<svg width="321" height="320" viewBox="0 0 321 320" fill="none" xmlns="http://www.w3.org/2000/svg">
<g clip-path="url(#clip0_1716_8402)">
<path d="M130.401 23.29H119.528C119.528 23.29 115.712 50.7541 105.355 62.3126C95.5418 73.2625 77.1724 70.2584 77.1724 70.2584C77.1724 70.2584 77.1654 70.2811 77.1566 70.3161C70.0519 68.3803 61.9488 68.8052 56.4248 70.2618C47.7638 72.5473 41.5072 76.5255 41.5072 76.5255C41.5072 76.5255 28.1424 84.9714 28.4607 101.089C28.7072 113.595 38.0921 128.483 38.0187 129.549C37.1934 141.485 36.2701 141.078 37.5168 145.331C40.5402 155.655 83.3625 151.397 84.1249 146.665C84.8156 142.372 82.8257 135.194 83.8242 125.541C85.3997 110.323 88.528 104.906 92.0882 95.5209C111.752 93.9244 124.459 82.8153 128.413 64.9722C132.49 46.5661 130.401 23.29 130.401 23.29Z" fill="#FFE5E1"/>
<path d="M58.5044 152.086C48.2679 152.086 38.5857 150.363 37.1431 145.439C36.323 142.636 36.4262 141.734 36.8109 138.369C37.033 136.439 37.3355 133.795 37.631 129.521C37.603 129.294 36.9875 128.067 36.3353 126.767C33.7141 121.544 28.2601 110.675 28.073 101.096C27.7547 84.9452 41.165 76.2807 41.3014 76.195C41.3626 76.1548 47.7066 72.1592 56.3274 69.8842C61.3757 68.5518 69.4509 67.8611 77.0609 69.8842C77.1169 69.8667 77.1763 69.8615 77.2375 69.872C77.4194 69.9017 95.5143 72.7118 105.069 62.0504C115.23 50.7122 119.109 23.507 119.145 23.2342C119.172 23.0418 119.336 22.8984 119.53 22.8984H130.403C130.604 22.8984 130.772 23.0523 130.789 23.2517C130.81 23.4842 132.839 46.7988 128.793 65.0545C124.751 83.284 111.82 94.2252 92.365 95.8864C91.7722 97.4409 91.1916 98.8871 90.6303 100.289C87.8815 107.149 85.5051 113.072 84.2111 125.58C83.648 131.023 84.045 135.71 84.3632 139.476C84.615 142.463 84.8144 144.82 84.5084 146.724C84.0415 149.627 72.4271 151.4 64.7331 151.885C62.6767 152.016 60.5783 152.086 58.5044 152.086ZM66.8472 69.4086C62.8183 69.4086 59.1462 69.9437 56.5232 70.6361C48.0249 72.8779 41.777 76.8123 41.7158 76.8525C41.5829 76.9365 28.5398 85.3789 28.8494 101.08C29.0347 110.482 34.4345 121.247 37.0295 126.419C38.0944 128.54 38.4301 129.228 38.4056 129.576C38.1084 133.867 37.8041 136.521 37.5838 138.459C37.2026 141.781 37.1134 142.57 37.8898 145.221C39.4968 150.708 53.3285 151.823 64.6841 151.11C75.7617 150.414 83.4802 148.218 83.7407 146.602C84.031 144.792 83.8264 142.36 83.5886 139.543C83.2668 135.743 82.8681 131.016 83.4382 125.5C84.7444 112.885 87.1366 106.913 89.9081 100.001C90.4957 98.5338 91.1042 97.0178 91.725 95.3828C91.7774 95.2429 91.9068 95.145 92.0572 95.1327C111.28 93.573 124.057 82.8311 128.034 64.8866C131.781 47.9791 130.281 26.6702 130.045 23.6748H119.864C119.381 26.8573 115.342 51.7474 105.646 62.5679C96.3606 72.9286 79.3621 70.9491 77.3127 70.6676C77.2341 70.7026 77.1449 70.7113 77.0539 70.6868C73.6686 69.7671 70.1381 69.4086 66.8472 69.4086Z" fill="#FF725E"/>
<path d="M265.953 301.391H76.1455C73.269 301.391 70.5341 300.122 68.6438 297.908C66.6924 295.622 65.8443 292.594 66.3199 289.602L107.14 32.2151C107.925 27.2665 112.057 23.6748 116.966 23.6748H306.773C309.649 23.6748 312.384 24.9443 314.274 27.1581C316.226 29.4435 317.074 32.4722 316.598 35.4641L275.777 292.849C274.995 297.799 270.861 301.391 265.953 301.391ZM116.967 24.4529C112.444 24.4529 108.633 27.7684 107.909 32.3375L67.0858 289.722C66.6469 292.491 67.4303 295.29 69.2331 297.402C70.9748 299.443 73.4946 300.613 76.1437 300.613H265.951C270.475 300.613 274.285 297.298 275.009 292.728L315.831 35.3434C316.27 32.5753 315.486 29.7758 313.683 27.6634C311.94 25.6228 309.422 24.4529 306.773 24.4529H116.967Z" fill="#FF725E"/>
<path d="M259.922 300.723H70.1145C67.2328 300.723 64.4962 299.454 62.6059 297.238C60.6579 294.958 59.8133 291.938 60.2872 288.953L101.109 32.0124C101.894 27.0725 106.026 23.4878 110.935 23.4878H300.742C303.624 23.4878 306.36 24.7573 308.25 26.9728C310.198 29.253 311.043 32.2729 310.569 35.2578L269.747 292.197C268.962 297.137 264.83 300.723 259.922 300.723ZM110.935 24.2642C106.411 24.2642 102.601 27.5743 101.877 32.1348L61.0549 289.074C60.616 291.833 61.3976 294.624 63.1969 296.733C64.9403 298.775 67.4619 299.945 70.1145 299.945H259.922C264.445 299.945 268.256 296.635 268.98 292.074L309.802 35.1354C310.24 32.3761 309.459 29.5853 307.659 27.4764C305.916 25.434 303.395 24.2642 300.742 24.2642H110.935Z" fill="#FF725E"/>
<path d="M228.887 47.7377H173.867C165.073 47.7377 158.391 39.6817 159.857 30.8459L161.142 23.1012C161.273 22.316 161.941 21.7407 162.723 21.7407H247.47C248.462 21.7407 249.217 22.65 249.051 23.6467L247.748 31.4946C246.194 40.8725 238.222 47.7377 228.887 47.7377Z" fill="#FFE5E1"/>
<path d="M228.887 48.1259H173.867C169.621 48.1259 165.594 46.2496 162.819 42.9761C159.965 39.61 158.746 35.165 159.474 30.7829L160.759 23.0382C160.921 22.0607 161.747 21.3525 162.723 21.3525H247.47C248.051 21.3525 248.601 21.6078 248.979 22.0555C249.367 22.5119 249.532 23.1152 249.434 23.7114L248.131 31.5593C246.54 41.1576 238.445 48.1259 228.887 48.1259ZM162.723 22.1289C162.128 22.1289 161.624 22.5643 161.525 23.1659L160.239 30.9106C159.549 35.0688 160.705 39.283 163.411 42.4743C166.038 45.5729 169.848 47.3495 173.867 47.3495H228.887C238.064 47.3495 245.837 40.654 247.367 31.4299L248.67 23.582C248.731 23.2131 248.628 22.8389 248.388 22.5556C248.157 22.2828 247.823 22.1272 247.472 22.1272H162.723V22.1289Z" fill="#FF725E"/>
<path d="M191.849 38.692H215.344C216.236 38.692 216.995 38.1027 217.138 37.2022L220.357 16.2693C221.648 7.93704 215.354 0.388184 207.108 0.388184C200.512 0.388184 194.895 5.27387 193.86 11.9379L190.053 36.6129C189.877 37.7425 190.73 38.692 191.849 38.692ZM201.462 13.2879L201.488 13.1305C201.932 10.4306 204.216 8.45288 206.893 8.45288C210.283 8.45288 212.859 11.5689 212.298 14.9893L212.272 15.1467C211.827 17.8465 209.544 19.8242 206.867 19.8242C203.478 19.8242 200.9 16.7082 201.462 13.2879Z" fill="#FFE5E1"/>
<path d="M215.346 39.0802H191.852C191.192 39.0802 190.575 38.8004 190.159 38.3126C189.75 37.8334 189.573 37.1917 189.675 36.5517L193.48 11.8785C194.55 4.99585 200.282 0 207.112 0C211.087 0 214.869 1.75388 217.488 4.81049C220.2 7.97552 221.388 12.174 220.744 16.327L217.525 37.2599C217.354 38.3335 216.458 39.0802 215.346 39.0802ZM207.11 0.776393C200.666 0.776393 195.256 5.49596 194.245 11.9974L190.439 36.6706C190.372 37.0938 190.481 37.496 190.746 37.8072C191.016 38.122 191.416 38.3021 191.848 38.3021H215.343C216.065 38.3021 216.645 37.8247 216.752 37.141L219.971 16.2098C220.58 12.2807 219.459 8.30951 216.894 5.3176C214.425 2.43235 210.857 0.776393 207.11 0.776393ZM206.867 20.2125C205.164 20.2125 203.548 19.4588 202.434 18.1456C201.282 16.7886 200.789 14.9963 201.079 13.2249L201.105 13.0675C201.581 10.1683 204.015 8.0647 206.893 8.0647C208.595 8.0647 210.212 8.81836 211.326 10.1316C212.478 11.4885 212.972 13.2809 212.681 15.0522L212.657 15.2079C212.179 18.1071 209.745 20.2125 206.867 20.2125ZM201.845 13.3508C201.591 14.8966 202.022 16.4599 203.025 17.642C203.992 18.7803 205.393 19.4343 206.865 19.4343C209.361 19.4343 211.473 17.6035 211.887 15.082L211.912 14.9263C212.165 13.3805 211.735 11.8155 210.732 10.6334C209.765 9.49508 208.364 8.84109 206.892 8.84109C204.396 8.84109 202.284 10.6719 201.869 13.1934L201.845 13.3508Z" fill="#FF725E"/>
<path d="M209.781 202.525H201.823C200.807 202.525 199.844 202.077 199.177 201.299C198.494 200.5 198.196 199.442 198.362 198.397L214.812 94.2269C215.086 92.4888 216.541 91.228 218.272 91.228H226.234C227.25 91.228 228.213 91.6757 228.88 92.4538C229.563 93.2529 229.859 94.3109 229.695 95.3565L213.242 199.526C212.967 201.264 211.512 202.525 209.781 202.525ZM215.58 94.3476L199.13 198.517C199.001 199.337 199.233 200.168 199.768 200.794C200.286 201.401 201.034 201.747 201.823 201.747H209.781C211.128 201.747 212.259 200.762 212.474 199.404L228.927 95.2341C229.056 94.414 228.824 93.5834 228.289 92.9574C227.771 92.3506 227.023 92.0044 226.234 92.0044H218.272C216.926 92.0062 215.795 92.9906 215.58 94.3476Z" fill="#FF725E"/>
<path d="M186.603 202.525H178.642C177.629 202.525 176.666 202.079 176.001 201.305C175.317 200.509 175.018 199.453 175.179 198.411L187.119 120.979C187.388 119.234 188.845 117.968 190.581 117.968H198.546C199.559 117.968 200.522 118.414 201.187 119.189C201.87 119.984 202.169 121.041 202.009 122.083L190.065 199.512C189.796 201.257 188.34 202.525 186.603 202.525ZM190.581 118.745C189.231 118.745 188.098 119.734 187.887 121.098L175.947 198.53C175.821 199.348 176.055 200.177 176.59 200.799C177.108 201.403 177.856 201.749 178.642 201.749H186.603C187.955 201.749 189.086 200.759 189.298 199.397L201.241 121.966C201.367 121.147 201.133 120.318 200.597 119.696C200.08 119.093 199.331 118.746 198.546 118.746H190.581V118.745Z" fill="#FF725E"/>
<path d="M163.437 202.525H155.476C154.462 202.525 153.5 202.079 152.834 201.303C152.15 200.505 151.853 199.449 152.013 198.405L160.924 141.029C161.196 139.286 162.65 138.021 164.387 138.021H172.352C173.366 138.021 174.328 138.467 174.994 139.244C175.678 140.041 175.975 141.097 175.814 142.141L166.9 199.517C166.629 201.259 165.172 202.525 163.437 202.525ZM161.694 141.148L152.783 198.524C152.655 199.344 152.89 200.171 153.425 200.796C153.942 201.401 154.691 201.747 155.476 201.747H163.437C164.787 201.747 165.919 200.759 166.13 199.397L175.045 142.021C175.172 141.2 174.938 140.373 174.403 139.749C173.885 139.144 173.137 138.798 172.352 138.798H164.387C163.039 138.798 161.905 139.786 161.694 141.148Z" fill="#FF725E"/>
<path d="M140.274 202.525H132.316C131.302 202.525 130.337 202.079 129.672 201.299C128.989 200.5 128.691 199.442 128.858 198.398L134.733 161.075C135.006 159.337 136.462 158.075 138.194 158.075H146.155C147.169 158.075 148.135 158.521 148.799 159.301C149.483 160.1 149.78 161.158 149.614 162.201L143.735 199.524C143.46 201.262 142.006 202.525 140.274 202.525ZM138.19 158.851C136.844 158.851 135.711 159.837 135.497 161.194L129.622 198.517C129.492 199.337 129.725 200.166 130.26 200.792C130.778 201.397 131.526 201.745 132.315 201.745H140.273C141.619 201.745 142.752 200.759 142.966 199.402L148.845 162.079C148.974 161.259 148.741 160.43 148.206 159.802C147.689 159.197 146.94 158.849 146.152 158.849H138.19V158.851Z" fill="#FF725E"/>
<path d="M117.063 202.525H109.09C108.084 202.525 107.128 202.086 106.463 201.32C105.781 200.535 105.475 199.489 105.622 198.453L108.575 177.619C108.822 175.878 110.314 174.564 112.045 174.564H120.022C121.027 174.564 121.984 175.003 122.648 175.769C123.33 176.554 123.636 177.6 123.49 178.637L120.534 199.47C120.284 201.212 118.794 202.525 117.063 202.525ZM109.343 177.728L106.39 198.561C106.274 199.374 106.514 200.194 107.049 200.81C107.566 201.406 108.31 201.747 109.09 201.747H117.063C118.41 201.747 119.569 200.721 119.763 199.36L122.72 178.527C122.836 177.714 122.596 176.894 122.061 176.278C121.543 175.682 120.8 175.341 120.02 175.341H112.043C110.697 175.341 109.535 176.367 109.343 177.728Z" fill="#FF725E"/>
<path d="M105.658 230.206C102.74 230.206 100.365 227.79 100.365 224.82C100.365 221.851 102.74 219.435 105.658 219.435C108.577 219.435 110.951 221.851 110.951 224.82C110.951 227.79 108.577 230.206 105.658 230.206ZM105.658 220.211C103.168 220.211 101.142 222.278 101.142 224.82C101.142 227.361 103.168 229.43 105.658 229.43C108.148 229.43 110.175 227.363 110.175 224.82C110.173 222.28 108.148 220.211 105.658 220.211Z" fill="#FF725E"/>
<path d="M101.467 250.803C98.5485 250.803 96.1738 248.387 96.1738 245.418C96.1738 242.448 98.5485 240.032 101.467 240.032C104.385 240.032 106.76 242.448 106.76 245.418C106.76 248.387 104.385 250.803 101.467 250.803ZM101.467 240.808C98.9769 240.808 96.9502 242.875 96.9502 245.418C96.9502 247.958 98.9769 250.027 101.467 250.027C103.957 250.027 105.984 247.96 105.984 245.418C105.984 242.875 103.957 240.808 101.467 240.808Z" fill="#FF725E"/>
<path d="M97.7707 272.404C94.8522 272.404 92.4775 269.988 92.4775 267.019C92.4775 264.049 94.8522 261.633 97.7707 261.633C100.689 261.633 103.064 264.049 103.064 267.019C103.064 269.988 100.689 272.404 97.7707 272.404ZM97.7707 262.409C95.2806 262.409 93.2539 264.476 93.2539 267.019C93.2539 269.561 95.2789 271.628 97.7707 271.628C100.261 271.628 102.287 269.561 102.287 267.019C102.287 264.476 100.261 262.409 97.7707 262.409Z" fill="#FF725E"/>
<path d="M172.46 225.209H119.956C119.74 225.209 119.567 225.035 119.567 224.82C119.567 224.605 119.742 224.432 119.956 224.432H172.46C172.675 224.432 172.848 224.605 172.848 224.82C172.848 225.035 172.673 225.209 172.46 225.209Z" fill="#FF725E"/>
<path d="M169.173 245.638H163.709C163.493 245.638 163.32 245.465 163.32 245.25C163.32 245.034 163.493 244.861 163.709 244.861H169.173C169.388 244.861 169.561 245.034 169.561 245.25C169.561 245.465 169.388 245.638 169.173 245.638Z" fill="#FFE5E1"/>
<path d="M153.726 245.638H116.668C116.453 245.638 116.28 245.465 116.28 245.25C116.28 245.034 116.453 244.861 116.668 244.861H153.726C153.941 244.861 154.114 245.034 154.114 245.25C154.114 245.465 153.941 245.638 153.726 245.638Z" fill="#FF725E"/>
<path d="M164.9 266.737H112.396C112.181 266.737 112.008 266.564 112.008 266.349C112.008 266.134 112.181 265.96 112.396 265.96H164.9C165.116 265.96 165.289 266.134 165.289 266.349C165.289 266.564 165.114 266.737 164.9 266.737Z" fill="#FF725E"/>
<path d="M109.27 130.488C109.27 130.488 117.121 130.373 121.223 128.591C125.325 126.811 125.263 129.899 124.101 130.985C123.161 131.866 117.492 135.026 112.408 135.395L109.27 130.488Z" fill="#FFE5E1"/>
<path d="M112.411 135.783C112.279 135.783 112.155 135.717 112.084 135.605L108.945 130.697C108.868 130.578 108.863 130.427 108.929 130.303C108.995 130.179 109.125 130.1 109.265 130.099C109.342 130.097 117.086 129.962 121.07 128.235C123.593 127.14 124.553 127.864 124.901 128.394C125.471 129.261 125.078 130.606 124.369 131.27C123.284 132.286 117.494 135.418 112.44 135.783C112.428 135.783 112.419 135.783 112.411 135.783ZM109.968 130.858L112.612 134.99C117.592 134.547 123.053 131.436 123.838 130.702C124.31 130.26 124.593 129.341 124.251 128.82C123.887 128.266 122.841 128.313 121.379 128.948C117.924 130.447 111.994 130.784 109.968 130.858Z" fill="#FF725E"/>
<path d="M97.8184 127.546L101.713 119.854L105.325 121.954C105.525 122.069 105.694 122.232 105.82 122.424L106.047 122.775C106.332 123.216 106.834 123.471 107.354 123.44C107.635 123.422 107.917 123.489 108.163 123.632L135.026 139.216C135.248 139.344 135.451 139.501 135.633 139.683L141.181 145.261L133.777 143.971C133.373 143.901 132.98 143.778 132.607 143.605L104.507 130.632C104.267 130.522 104.061 130.347 103.912 130.128L103.876 130.074C103.589 129.655 103.103 129.413 102.603 129.44L102.349 129.454C102.116 129.466 101.884 129.42 101.671 129.322L97.8184 127.546Z" fill="#FFE5E1"/>
<path d="M141.179 145.651C141.157 145.651 141.136 145.649 141.113 145.646L133.709 144.355C133.274 144.278 132.847 144.145 132.443 143.96L104.343 130.987C104.038 130.847 103.78 130.627 103.589 130.35L103.552 130.294C103.342 129.988 102.989 129.81 102.62 129.829L102.367 129.843C102.073 129.859 101.776 129.801 101.505 129.677L97.6542 127.901C97.558 127.857 97.4846 127.775 97.4496 127.675C97.4146 127.575 97.4216 127.465 97.4706 127.372L101.365 119.68C101.414 119.584 101.499 119.514 101.601 119.483C101.702 119.453 101.814 119.465 101.907 119.519L105.52 121.619C105.771 121.765 105.986 121.971 106.144 122.216L106.371 122.567C106.581 122.892 106.95 123.078 107.326 123.055C107.686 123.032 108.041 123.118 108.356 123.3L135.218 138.884C135.468 139.029 135.701 139.207 135.906 139.414L141.454 144.992C141.573 145.112 141.601 145.296 141.524 145.445C141.456 145.572 141.323 145.651 141.179 145.651ZM102.675 129.051C103.274 129.051 103.85 129.354 104.194 129.857L104.231 129.911C104.341 130.072 104.491 130.2 104.668 130.28L132.769 143.254C133.111 143.411 133.473 143.525 133.842 143.589L140.041 144.67L135.355 139.959C135.197 139.802 135.021 139.665 134.828 139.553L107.966 123.97C107.784 123.865 107.579 123.816 107.375 123.828C106.712 123.87 106.081 123.546 105.719 122.987L105.492 122.635C105.401 122.494 105.275 122.375 105.128 122.289L101.872 120.397L98.3449 127.362L101.828 128.971C101.984 129.042 102.153 129.076 102.323 129.067L102.577 129.053C102.61 129.051 102.641 129.051 102.675 129.051Z" fill="#FF725E"/>
<path d="M134.262 142.185C134.209 142.185 134.157 142.175 134.106 142.152C133.91 142.066 133.821 141.835 133.907 141.64L134.931 139.314C135.017 139.118 135.248 139.029 135.444 139.115C135.639 139.2 135.729 139.431 135.643 139.627L134.618 141.953C134.552 142.1 134.41 142.185 134.262 142.185Z" fill="#FF725E"/>
<path d="M95.4664 116.456L101.314 119.609C101.613 119.769 101.728 120.144 101.571 120.446L98.1401 127.028C97.9792 127.336 97.5997 127.453 97.2955 127.289L91.4603 124.143C90.2904 123.512 89.8271 122.067 90.4286 120.915L92.2612 117.4C92.8592 116.246 94.2948 115.825 95.4664 116.456Z" fill="#FF725E"/>
<path d="M97.586 127.752C97.4216 127.752 97.2573 127.712 97.1086 127.631L91.2734 124.485C89.9182 123.754 89.3849 122.072 90.0809 120.736L91.9134 117.221C92.2474 116.581 92.814 116.111 93.5064 115.898C94.2199 115.679 94.9805 115.756 95.6485 116.116L101.496 119.269C101.98 119.53 102.167 120.14 101.912 120.628L98.4813 127.21C98.3554 127.451 98.1421 127.629 97.8815 127.708C97.7853 127.736 97.6857 127.752 97.586 127.752ZM94.3178 116.55C94.122 116.55 93.9279 116.58 93.7373 116.637C93.2441 116.79 92.842 117.122 92.6041 117.578L90.7716 121.093C90.2697 122.056 90.6614 123.27 91.6441 123.8L97.4793 126.946C97.5353 126.975 97.5965 126.982 97.6577 126.963C97.7171 126.944 97.7661 126.904 97.7958 126.848L101.227 120.266C101.286 120.152 101.242 120.011 101.13 119.951L95.283 116.798C94.977 116.634 94.6483 116.55 94.3178 116.55Z" fill="#FF725E"/>
<path d="M104.007 128.691C103.946 128.691 103.883 128.677 103.823 128.645C103.635 128.544 103.563 128.308 103.664 128.119L105.602 124.501C105.703 124.312 105.937 124.241 106.128 124.342C106.317 124.443 106.389 124.679 106.287 124.868L104.35 128.486C104.28 128.616 104.145 128.691 104.007 128.691Z" fill="#FF725E"/>
<path d="M116.61 131.454C116.545 131.454 116.48 131.438 116.419 131.405L108.41 126.909C108.223 126.804 108.157 126.566 108.262 126.379C108.367 126.192 108.603 126.125 108.791 126.23L116.8 130.726C116.987 130.831 117.054 131.069 116.949 131.256C116.877 131.382 116.746 131.454 116.61 131.454Z" fill="#FF725E"/>
<path d="M132.462 140.704C132.397 140.704 132.333 140.688 132.273 140.655L129.145 138.915C128.958 138.81 128.89 138.574 128.995 138.387C129.1 138.2 129.336 138.131 129.523 138.236L132.651 139.976C132.838 140.081 132.906 140.317 132.801 140.504C132.731 140.632 132.599 140.704 132.462 140.704Z" fill="#FF725E"/>
<path d="M97.0072 125.01C96.9443 125.01 96.8796 124.994 96.8201 124.963L92.3523 122.513C92.1635 122.41 92.0953 122.174 92.1985 121.985C92.3016 121.796 92.5377 121.728 92.7266 121.831L97.1943 124.281C97.3832 124.384 97.4514 124.62 97.3482 124.809C97.2782 124.936 97.1453 125.01 97.0072 125.01Z" fill="#FFE5E1"/>
<path d="M95.1114 133.562C95.1114 133.562 102.059 134.549 106.745 130.929C110.73 127.85 118.802 136.663 119.496 137.782C120.479 139.366 118.316 141.855 115.819 140.445C115.819 140.445 115.158 144.373 109.768 145.032C104.379 145.691 102.08 142.161 100.634 141.634C99.1874 141.108 95.0449 141.078 95.0449 141.078L95.1114 133.562Z" fill="#FFE5E1"/>
<path d="M108.447 145.502C105.133 145.502 103.122 143.923 101.737 142.835C101.244 142.449 100.819 142.113 100.499 141.998C99.1318 141.499 95.0819 141.466 95.0417 141.466C94.9386 141.466 94.8406 141.424 94.7672 141.351C94.6955 141.277 94.6553 141.178 94.6553 141.075L94.7217 133.559C94.7235 133.447 94.7724 133.34 94.8564 133.269C94.9403 133.195 95.0522 133.162 95.1641 133.178C95.2323 133.186 102.008 134.096 106.506 130.621C107.349 129.969 108.403 129.752 109.641 129.976C113.946 130.754 119.273 136.689 119.823 137.577C120.35 138.425 120.175 139.545 119.388 140.363C118.723 141.055 117.487 141.587 116.062 140.998C115.67 142.127 114.268 144.873 109.812 145.418C109.335 145.476 108.88 145.502 108.447 145.502ZM95.4369 140.693C96.5176 140.714 99.527 140.816 100.767 141.267C101.202 141.426 101.65 141.778 102.218 142.223C103.683 143.374 105.895 145.112 109.72 144.644C114.737 144.03 115.408 140.525 115.434 140.377C115.455 140.253 115.537 140.146 115.651 140.092C115.767 140.038 115.899 140.043 116.008 140.104C117.227 140.793 118.264 140.41 118.828 139.823C119.274 139.357 119.551 138.611 119.164 137.985C118.701 137.238 113.534 131.468 109.505 130.738C108.48 130.553 107.653 130.716 106.981 131.233C102.849 134.425 97.1261 134.15 95.4964 133.994L95.4369 140.693Z" fill="#FF725E"/>
<path d="M47.9071 77.6953C47.9071 77.6953 38.3911 81.6997 33.3672 97.9987C30.5939 106.994 31.1028 119.822 44.7788 136.874C47.5137 140.284 51.3554 143.677 55.6938 144.168L97.2571 144.572L97.0717 131.266C97.0717 131.266 64.8391 127.078 59.9937 125.256C55.7025 123.642 49.4879 102.633 48.8409 92.3244L47.9071 77.6953Z" fill="#FFE5E1"/>
<path d="M97.2555 144.958C97.2538 144.958 97.2538 144.958 97.252 144.958L55.6888 144.555C55.6748 144.555 55.6625 144.553 55.6485 144.553C50.9132 144.018 46.9578 140.214 44.4748 137.118C43.0007 135.28 41.5808 133.419 40.2518 131.585C40.1259 131.412 40.1644 131.169 40.3375 131.043C40.5106 130.917 40.7537 130.955 40.8796 131.13C42.2016 132.954 43.6144 134.806 45.0798 136.633C47.4684 139.611 51.2507 143.268 55.715 143.782L96.8603 144.182L96.6855 131.611C93.0623 131.137 64.4774 127.362 59.8558 125.624C55.9965 124.172 51.4343 109.591 49.5651 100.193C49.5231 99.9836 49.6595 99.779 49.8711 99.7371C50.0809 99.6951 50.2855 99.8315 50.3275 100.043C52.4783 110.865 57.0335 123.734 60.1285 124.898C64.8761 126.684 96.7974 130.845 97.1191 130.885C97.3115 130.91 97.4549 131.073 97.4584 131.265L97.6437 144.57C97.6455 144.675 97.6035 144.777 97.5301 144.85C97.4584 144.917 97.3587 144.958 97.2555 144.958Z" fill="#FF725E"/>
<path d="M132.588 24.8059C133.073 26.0667 134.02 29.4591 132.457 31.7323C131.056 33.7712 128.129 33.8534 126.468 32.0226C125.597 31.0626 125.174 29.494 124.522 27.2803C124.202 26.1926 123.724 25.4425 123.198 24.7675C122.853 24.3268 122.327 24.0698 121.768 24.068L116.824 24.0435C116.824 24.0435 116.863 22.1183 118.302 21.3472C119.561 20.6722 122.819 21.2282 123.074 20.8453C125.922 16.5594 130.642 19.7332 132.588 24.8059Z" fill="#FFE5E1"/>
<path d="M129.393 33.719C128.176 33.719 127.018 33.2049 126.181 32.2833C125.301 31.3146 124.868 29.8353 124.266 27.7841L124.149 27.3889C123.827 26.296 123.332 25.5721 122.892 25.0055C122.621 24.6575 122.21 24.4565 121.765 24.4547L116.822 24.4302C116.719 24.4302 116.619 24.3883 116.546 24.3131C116.472 24.2379 116.434 24.1382 116.436 24.0333C116.437 23.9459 116.497 21.872 118.118 21.0012C118.926 20.5675 120.351 20.585 121.494 20.599C121.986 20.6042 122.591 20.613 122.794 20.5605C124.112 18.623 125.661 18.3537 126.735 18.4726C129.134 18.7384 131.631 21.2267 132.95 24.6645C133.238 25.4182 134.59 29.3124 132.777 31.9494C132.067 32.981 130.941 33.6228 129.685 33.7067C129.587 33.7155 129.491 33.719 129.393 33.719ZM117.257 23.6556L121.769 23.6783C122.453 23.6818 123.086 23.9913 123.504 24.5281C123.99 25.1507 124.535 25.9533 124.894 27.1703L125.011 27.5673C125.583 29.517 125.997 30.9264 126.756 31.7622C127.499 32.5824 128.548 33.009 129.634 32.9356C130.652 32.8674 131.563 32.348 132.138 31.5122C133.73 29.1953 132.492 25.635 132.226 24.9461C131.028 21.8213 128.735 19.4781 126.651 19.2473C125.387 19.1074 124.29 19.7159 123.399 21.0589C123.182 21.3859 122.687 21.3928 121.487 21.3771C120.487 21.3649 119.12 21.3474 118.487 21.6866C117.633 22.1448 117.352 23.11 117.257 23.6556Z" fill="#FF725E"/>
<path d="M51.6857 271.11L48.6553 285.653L56.5871 287.898L60.9727 273.74L51.6857 271.11Z" fill="#FFE5E1"/>
<path d="M56.5872 288.287C56.5522 288.287 56.5172 288.281 56.4805 288.273L48.5504 286.027C48.3546 285.972 48.2339 285.774 48.2759 285.575L51.3045 271.033C51.3273 270.928 51.392 270.835 51.4829 270.779C51.5756 270.723 51.6857 270.708 51.7907 270.737L61.0777 273.367C61.1791 273.395 61.263 273.464 61.3137 273.556C61.3644 273.649 61.3749 273.757 61.3434 273.857L56.9579 288.016C56.9072 288.18 56.7533 288.287 56.5872 288.287ZM49.11 285.377L56.3284 287.421L60.4849 274.006L51.9813 271.598L49.11 285.377Z" fill="#FF725E"/>
<path d="M46.0325 297.91C46.1217 299.309 47.8336 300.431 49.2168 300.641C54.0273 301.368 65.3322 301.061 68.4028 301.274C72.3879 301.55 79.8721 301.253 80.1624 298.711C80.5156 295.608 77.174 291.085 69.1774 288.607C65.0419 287.325 60.6686 280.976 58.7329 280.862C56.7971 280.749 53.3715 285.764 53.3715 285.764L47.8599 283.889C47.8616 283.887 45.5779 290.812 46.0325 297.91Z" fill="#FFE5E1"/>
<path d="M70.9119 301.73C69.4518 301.73 68.4114 301.662 68.3764 301.66C67.3272 301.589 65.2656 301.576 62.8769 301.562C58.1801 301.536 52.3344 301.505 49.1589 301.024C47.5414 300.779 45.7438 299.48 45.6459 297.934C45.1913 290.845 47.4697 283.836 47.4925 283.766C47.5257 283.669 47.5956 283.586 47.6883 283.541C47.781 283.494 47.8877 283.487 47.9873 283.52L53.221 285.3C53.9991 284.198 56.8529 280.362 58.7572 280.472C59.7644 280.532 61.1091 281.82 62.814 283.453C64.72 285.279 67.0929 287.552 69.2944 288.234C77.5602 290.796 80.9228 295.482 80.5504 298.752C80.2531 301.342 74.3917 301.73 70.9119 301.73ZM48.115 284.384C47.6603 285.912 46.0359 291.873 46.4206 297.883C46.494 299.037 47.9838 300.06 49.2743 300.254C52.3956 300.726 58.2099 300.758 62.8805 300.784C65.2813 300.798 67.3569 300.809 68.4289 300.884C72.8686 301.19 79.5449 300.697 79.7757 298.663C80.1237 295.606 76.5565 291.298 69.0619 288.976C66.6837 288.239 64.2391 285.896 62.2737 284.013C60.8118 282.612 59.4304 281.289 58.7082 281.247C57.4544 281.173 54.9679 284.111 53.6896 285.98C53.5917 286.124 53.4098 286.185 53.2437 286.129L48.115 284.384Z" fill="#FF725E"/>
<path d="M72.9892 297.948C71.9365 297.948 70.7806 297.889 69.5566 297.824C67.7433 297.73 65.867 297.632 64.0204 297.716C59.8307 297.906 56.246 297.742 53.978 297.569C49.7726 297.249 49.6064 296.983 49.5435 296.883C49.4683 296.764 49.4631 296.612 49.5313 296.488C49.6344 296.299 49.8705 296.229 50.0576 296.331C50.0593 296.331 50.0611 296.332 50.0628 296.332C50.7343 296.509 56.5747 297.275 63.9872 296.937C65.8705 296.852 67.766 296.95 69.5986 297.046C72.3754 297.191 74.9966 297.327 76.5127 296.682C76.7103 296.598 76.9376 296.689 77.0233 296.887C77.1072 297.084 77.0163 297.312 76.8187 297.397C75.822 297.822 74.5122 297.948 72.9892 297.948Z" fill="#FF725E"/>
<path d="M62.7249 292.961C62.627 292.961 62.5291 292.924 62.4539 292.851C62.3 292.7 62.2982 292.454 62.4469 292.302L65.3496 289.331C65.5 289.177 65.7466 289.175 65.8987 289.324C66.0526 289.474 66.0543 289.721 65.9057 289.873L63.0029 292.844C62.926 292.921 62.8246 292.961 62.7249 292.961Z" fill="#FF725E"/>
<path d="M8.66956 270.419L8.26562 280.562L15.3458 282.272L16.6066 270.491L8.66956 270.419Z" fill="#FFE5E1"/>
<path d="M15.3457 282.662C15.3159 282.662 15.2844 282.658 15.2547 282.651L8.1745 280.941C7.99439 280.897 7.87024 280.733 7.87723 280.548L8.28117 270.404C8.28991 270.196 8.46128 270.031 8.66937 270.031C8.67111 270.031 8.67111 270.031 8.67286 270.031L16.6099 270.103C16.7201 270.105 16.8232 270.152 16.8967 270.232C16.9701 270.315 17.0051 270.423 16.9929 270.531L15.7321 282.314C15.7199 282.426 15.6604 282.525 15.5695 282.59C15.503 282.637 15.4243 282.662 15.3457 282.662ZM8.66587 280.259L15.0047 281.791L16.1728 270.876L9.04008 270.811L8.66587 280.259Z" fill="#FF725E"/>
<path d="M16.4269 300.715C13.5889 301.115 8.95852 301.285 3.4748 300.709C1.01622 300.45 0.0579704 297.032 0.489883 295.273C1.69294 290.371 3.78256 282.468 7.33928 278.159L8.64551 280.791L9.8783 278.225C10.0462 277.925 10.3452 277.72 10.6862 277.676L13.3458 277.703C13.9037 277.631 14.423 278.002 14.5384 278.554L14.9633 280.581L17.2331 277.963L19.0044 297.298C19.223 298.954 18.0759 300.482 16.4269 300.715Z" fill="#FFE5E1"/>
<path d="M10.3711 301.472C8.42315 301.472 6.09571 301.376 3.43254 301.096C2.48653 300.996 1.65768 300.477 1.03517 299.59C0.0576814 298.202 -0.169641 296.32 0.11014 295.18C1.55276 289.299 3.64413 282.023 7.03823 277.912C7.12216 277.811 7.25331 277.758 7.38271 277.774C7.51386 277.79 7.62752 277.87 7.68697 277.988L8.63998 279.906L9.52828 278.057C9.76435 277.629 10.1753 277.351 10.6387 277.292C10.6562 277.29 10.6701 277.288 10.6911 277.288L13.3263 277.313C14.073 277.232 14.7654 277.737 14.9211 278.474L15.1851 279.734L16.9425 277.71C17.0439 277.592 17.2065 277.547 17.3552 277.594C17.5038 277.641 17.6087 277.774 17.6227 277.928L19.3941 297.263C19.6371 299.111 18.3327 300.839 16.4826 301.099C15.4684 301.243 13.3718 301.472 10.3711 301.472ZM7.26205 278.883C3.77703 283.499 1.74861 291.767 0.86555 295.367C0.632982 296.313 0.837572 297.959 1.67167 299.144C2.16828 299.851 2.78905 300.248 3.51473 300.325C8.14861 300.811 12.9539 300.814 16.3724 300.332C17.8011 300.13 18.81 298.793 18.6212 297.35L16.9302 278.907L15.2586 280.836C15.1624 280.948 15.0102 280.995 14.8669 280.958C14.7235 280.922 14.6151 280.806 14.5836 280.663L14.1587 278.636C14.0852 278.285 13.7512 278.045 13.3945 278.091C13.377 278.092 13.3595 278.094 13.3421 278.094L10.7121 278.07C10.504 278.103 10.3204 278.232 10.2172 278.418L8.99495 280.964C8.93025 281.098 8.7956 281.182 8.64697 281.184C8.51582 281.177 8.36194 281.102 8.29724 280.969L7.26205 278.883Z" fill="#FF725E"/>
<path d="M8.53998 298.298C6.72489 298.298 4.76118 298.137 2.80271 297.69C2.59287 297.642 2.46347 297.434 2.51069 297.224C2.5579 297.015 2.76774 296.885 2.97582 296.932C9.65211 298.457 16.6309 296.497 16.7008 296.478C16.9054 296.418 17.1223 296.537 17.1817 296.744C17.2412 296.95 17.1223 297.165 16.9159 297.224C16.7043 297.284 13.0917 298.298 8.53998 298.298Z" fill="#FF725E"/>
<path d="M6.9138 290.791C6.70571 290.791 6.5326 290.625 6.5256 290.415C6.51861 290.2 6.68648 290.022 6.90156 290.015L13.2823 289.803C13.4939 289.801 13.6758 289.964 13.6828 290.179C13.6898 290.394 13.5219 290.573 13.3068 290.58L6.92604 290.791C6.92254 290.789 6.9173 290.791 6.9138 290.791Z" fill="#FF725E"/>
<path d="M83.4288 148.931C86.1147 164.65 90.9969 203.279 80.4561 232.173C71.3842 257.041 64.909 269.424 62.4207 273.922C61.7405 275.151 60.3836 275.837 58.9917 275.658L52.5252 274.826C50.6087 274.579 49.2745 272.794 49.5805 270.881C51.9394 256.086 61.3103 184.068 58.8133 177.411L18.6577 271.811C18.224 272.813 17.2343 273.457 16.1449 273.444L9.36193 273.369C7.85112 273.352 6.64631 272.095 6.68653 270.58C8.69046 194.174 31.059 181.879 37.6129 145.348C37.6286 145.263 39.7584 147.83 39.8389 147.877C46.4015 151.678 49.6854 151.383 59.7523 151.934C70.6428 152.528 80.7569 148.419 83.142 148.531C83.3239 148.538 83.3991 148.749 83.4288 148.931Z" fill="#FF725E"/>
<path d="M71.4317 75.74L73.287 66.2222C73.4199 65.5822 73.948 65.0996 74.595 65.0244L78.3266 64.5995C79.1222 64.5085 79.7605 63.8983 79.8864 63.1044L80.731 57.7955C80.7327 57.7868 80.738 57.7798 80.745 57.7763L82.5181 56.8163C82.8713 56.6257 83.0059 56.1868 82.8241 55.8283L80.9565 52.1737C80.5928 51.462 80.0927 47.4454 79.2971 47.4856C79.2971 47.4856 65.8676 42.808 61.9174 48.3844C60.8717 49.862 60.7546 51.81 61.4628 53.4764L62.3668 55.6028C63.3058 57.813 63.5157 60.2978 62.797 62.5885C62.5417 63.4052 62.1815 64.1955 61.7233 64.9352L56.6768 72.8058C60.3436 74.6471 64.376 75.6351 68.4765 75.6963L71.4317 75.74Z" fill="#FFE5E1"/>
<path d="M71.4334 76.1282C71.4317 76.1282 71.4299 76.1282 71.4282 76.1282L68.473 76.0845C64.3392 76.0233 60.2002 75.0091 56.5053 73.1537C56.4074 73.1048 56.334 73.0156 56.3042 72.9089C56.2745 72.8023 56.292 72.6886 56.3515 72.5959L61.398 64.7253C61.8317 64.0241 62.1797 63.2652 62.428 62.4713C63.0942 60.3415 62.9473 57.9564 62.01 55.7531L61.106 53.6268C60.3244 51.7872 60.5132 49.6923 61.6009 48.157C65.5807 42.5404 78.2723 46.7214 79.3687 47.0974C80.1049 47.1586 80.4511 48.4525 80.9198 50.5404C81.0597 51.1612 81.203 51.8029 81.3027 51.997L83.1703 55.6517C83.4465 56.1938 83.2367 56.8687 82.7034 57.1572L81.0876 58.0333L80.271 63.1656C80.1189 64.1273 79.3373 64.8757 78.372 64.9859L74.6404 65.4108C74.1578 65.465 73.7679 65.8235 73.6682 66.3009L71.8129 75.8152C71.7779 75.997 71.6188 76.1282 71.4334 76.1282ZM57.2398 72.6501C60.7318 74.3323 64.6103 75.2504 68.4835 75.3081L71.1134 75.3465L72.9075 66.147C73.0754 65.3356 73.7364 64.7306 74.553 64.6379L78.2846 64.213C78.9036 64.143 79.4054 63.6622 79.5034 63.0431L80.348 57.7343C80.3672 57.6154 80.4546 57.4912 80.5613 57.4335L82.3344 56.4735C82.5005 56.3843 82.5652 56.1728 82.4795 56.0049L80.612 52.3503C80.4756 52.0827 80.3515 51.5529 80.1626 50.7118C79.9738 49.8689 79.5821 48.1308 79.2673 47.872C79.2341 47.8685 79.2026 47.8633 79.1711 47.851C79.04 47.8056 65.9724 43.3343 62.2356 48.6064C61.3036 49.9214 61.1445 51.7295 61.8229 53.3225L62.727 55.4488C63.7359 57.8217 63.8933 60.3975 63.1711 62.7039C62.9036 63.559 62.5276 64.3774 62.0573 65.1398L57.2398 72.6501Z" fill="#FF725E"/>
<path d="M68.8245 53.4066C68.1356 51.693 67.0584 51.0512 67.2595 50.0772C67.3819 49.4897 67.889 49.1207 68.1793 48.9109C69.6167 47.8687 71.5052 48.5052 75.2997 49.2204C80.0105 50.1087 80.5474 50.2486 81.4357 49.8971C83.6949 49.0036 84.9802 46.2233 85.0781 43.936C85.1061 43.2943 85.162 39.888 82.2715 38.1306C80.1836 36.8611 77.3893 36.9572 75.1318 38.3631C74.9343 37.7022 74.5233 36.7701 73.6263 36.312C71.4982 35.2244 68.3244 37.6637 67.214 38.517C66.1876 39.3057 64.3568 40.9529 63.0453 43.8504C62.6256 43.616 61.0536 42.8012 59.3399 43.3485C56.7922 44.1634 56.1644 47.2777 56.1102 47.5732C55.472 51.0145 58.3012 54.0169 60.4363 56.2849C61.6132 57.5352 62.2322 58.0108 62.9229 58.4742C63.3321 58.747 63.8602 58.7662 64.2903 58.5301C64.2973 58.5266 64.3061 58.5214 64.3131 58.5179C64.8779 58.2066 65.0667 57.4827 64.7275 56.9336L64.6191 56.7588C64.2116 56.1013 63.9336 55.3651 63.8479 54.594C63.7797 53.9802 63.8287 53.335 64.2239 53.0045C64.8604 52.4694 65.9445 52.8226 66.1002 52.8733C66.894 53.1321 67.3924 53.7214 67.6984 54.281C68.0306 54.8807 69.1305 54.1656 68.8245 53.4066Z" fill="#FF725E"/>
<path d="M32.1926 40.096C32.0597 40.096 31.925 40.0873 31.7904 40.0698C30.103 39.8547 28.8842 38.3194 29.073 36.6494C29.1639 35.8433 29.5644 35.1246 30.2009 34.6245C30.8479 34.1157 31.661 33.8936 32.4863 34.0003C34.1738 34.2153 35.3926 35.7506 35.2037 37.4206C35.1128 38.2267 34.7124 38.9454 34.0758 39.4455C33.5338 39.8722 32.8763 40.096 32.1926 40.096ZM29.8442 36.7369C29.7025 37.9871 30.6205 39.1377 31.8883 39.3004C32.5056 39.3791 33.1124 39.2147 33.595 38.8352C34.0671 38.4645 34.3644 37.9312 34.4308 37.3349C34.5725 36.0846 33.6544 34.934 32.3867 34.7714C31.7694 34.6927 31.1626 34.8571 30.68 35.2365C30.2079 35.6073 29.9124 36.1406 29.8442 36.7369Z" fill="#FF725E"/>
<path d="M20.4646 45.8159C20.3964 45.8159 20.33 45.7984 20.267 45.7617L17.6756 44.2281C17.4902 44.1197 17.429 43.8802 17.5392 43.6966C17.6476 43.5112 17.8871 43.45 18.0708 43.5602L20.6622 45.0937C20.8476 45.2039 20.9088 45.4417 20.7986 45.6253C20.7269 45.7477 20.5975 45.8159 20.4646 45.8159Z" fill="#FF725E"/>
<path d="M26.5008 49.3882C26.4326 49.3882 26.3661 49.3707 26.3032 49.334L23.7117 47.8004C23.5263 47.6902 23.4651 47.4524 23.5753 47.2688C23.6855 47.0835 23.9233 47.0223 24.1069 47.1324L26.6984 48.666C26.8837 48.7761 26.9449 49.014 26.8348 49.1976C26.7631 49.32 26.6337 49.3882 26.5008 49.3882Z" fill="#FF725E"/>
<path d="M19.6339 51.1507C19.5675 51.1507 19.4993 51.1332 19.4363 51.0965C19.251 50.9881 19.1898 50.7485 19.2999 50.5649L20.8335 47.9734C20.9436 47.7881 21.1797 47.7269 21.3651 47.837C21.5504 47.9454 21.6116 48.185 21.5014 48.3686L19.9679 50.9601C19.8962 51.0825 19.7668 51.1507 19.6339 51.1507Z" fill="#FF725E"/>
<path d="M23.2062 45.1111C23.1397 45.1111 23.0715 45.0937 23.0086 45.0569C22.8232 44.9485 22.762 44.7089 22.8722 44.5253L24.4057 41.9339C24.5159 41.7485 24.7537 41.6873 24.9373 41.7975C25.1227 41.9059 25.1839 42.1455 25.0737 42.3291L23.5402 44.9205C23.4685 45.0429 23.3391 45.1111 23.2062 45.1111Z" fill="#FF725E"/>
<path d="M292.37 319.612H156.494C148.337 319.612 142.236 312.123 143.878 304.13L164.492 203.877C166.225 195.447 173.645 189.396 182.248 189.396H298.796L292.37 319.612Z" fill="#FFE5E1"/>
<path d="M292.37 320H156.494C152.489 320 148.742 318.22 146.212 315.116C143.68 312.01 142.69 307.976 143.498 304.051L164.113 203.798C165.875 195.228 173.503 189.006 182.249 189.006H298.798C298.904 189.006 299.006 189.05 299.079 189.127C299.153 189.204 299.191 189.307 299.186 189.414L292.76 319.631C292.747 319.837 292.576 320 292.37 320ZM182.248 189.783C173.868 189.783 166.561 195.742 164.873 203.954L144.259 304.206C143.498 307.903 144.43 311.699 146.813 314.623C149.195 317.545 152.724 319.22 156.492 319.22H291.997L298.385 189.781H182.248V189.783Z" fill="#FF725E"/>
<path d="M309.767 319.612H283.399C275.242 319.612 269.141 312.122 270.783 304.129L293.487 193.707C294.003 191.196 296.213 189.395 298.775 189.395H305.556C308.368 189.395 310.708 191.552 310.937 194.355L320.224 308.26C320.722 314.375 315.898 319.612 309.767 319.612Z" fill="#FFE5E1"/>
<path d="M309.767 320H283.399C279.395 320 275.647 318.22 273.117 315.116C270.585 312.01 269.595 307.976 270.403 304.051L293.107 193.628C293.658 190.949 296.042 189.004 298.775 189.004H305.556C308.546 189.004 311.08 191.341 311.323 194.322L320.61 308.226C320.857 311.25 319.82 314.261 317.765 316.49C315.712 318.722 312.795 320 309.767 320ZM298.775 189.783C296.409 189.783 294.346 191.465 293.868 193.785L271.164 304.208C270.403 307.904 271.335 311.701 273.719 314.625C276.1 317.546 279.629 319.222 283.397 319.222H309.765C312.619 319.222 315.257 318.066 317.193 315.966C319.101 313.895 320.064 311.098 319.835 308.291L310.548 194.387C310.338 191.804 308.144 189.783 305.556 189.783H298.775Z" fill="#FF725E"/>
<path d="M301.362 316.081H283.397C280.575 316.081 277.932 314.826 276.149 312.638C274.365 310.449 273.669 307.607 274.238 304.841L281.69 268.593C281.734 268.384 281.939 268.247 282.148 268.291C282.358 268.335 282.495 268.539 282.451 268.749L274.998 304.996C274.477 307.532 275.115 310.139 276.75 312.145C278.385 314.152 280.807 315.303 283.395 315.303H301.361C301.576 315.303 301.749 315.476 301.749 315.691C301.749 315.906 301.577 316.081 301.362 316.081Z" fill="#FF725E"/>
<path d="M309.766 316.081C309.551 316.081 309.378 315.908 309.378 315.693C309.378 315.478 309.551 315.305 309.766 315.305C311.515 315.305 313.13 314.596 314.314 313.311C315.5 312.024 316.073 310.356 315.932 308.613L313.816 282.654C313.798 282.441 313.958 282.252 314.171 282.234C314.381 282.215 314.573 282.376 314.589 282.589L316.705 308.548C316.866 310.51 316.219 312.388 314.884 313.836C313.55 315.284 311.733 316.081 309.766 316.081Z" fill="#FF725E"/>
<path d="M308.312 210.771C308.111 210.771 307.941 210.617 307.925 210.415L307.485 205.004C307.467 204.791 307.626 204.602 307.84 204.585C308.055 204.565 308.242 204.726 308.258 204.94L308.698 210.35C308.716 210.563 308.557 210.752 308.343 210.769C308.333 210.771 308.322 210.771 308.312 210.771Z" fill="#FF725E"/>
<path d="M291.098 225.166C291.072 225.166 291.046 225.163 291.02 225.157C290.81 225.114 290.673 224.909 290.717 224.699L296.944 194.418C297.122 193.553 297.892 192.925 298.775 192.925H305.556C306.523 192.925 307.34 193.68 307.418 194.642L307.707 198.185C307.724 198.398 307.565 198.587 307.352 198.604C307.14 198.624 306.951 198.463 306.934 198.249L306.645 194.707C306.6 194.144 306.121 193.703 305.558 193.703H298.777C298.261 193.703 297.811 194.07 297.706 194.576L291.48 224.857C291.441 225.04 291.28 225.166 291.098 225.166Z" fill="#FF725E"/>
<path d="M273.857 242.41H167.47C167.255 242.41 167.082 242.236 167.082 242.021C167.082 241.806 167.255 241.633 167.47 241.633H273.857C276.844 241.633 279.411 239.603 280.1 236.695L289.478 197.088C289.527 196.88 289.736 196.751 289.945 196.8C290.153 196.849 290.282 197.059 290.233 197.267L280.855 236.873C280.084 240.133 277.206 242.41 273.857 242.41Z" fill="#FF725E"/>
<path d="M232.795 242.021L229.815 254.049C229.334 256.084 227.518 257.52 225.428 257.52H204.357C202.063 257.52 200.401 255.332 201.015 253.12L204.102 242.021H232.795Z" fill="#FFE5E1"/>
<path d="M225.428 257.908H204.357C203.142 257.908 202.022 257.353 201.286 256.385C200.55 255.416 200.314 254.188 200.641 253.015L203.727 241.916C203.775 241.749 203.927 241.631 204.102 241.631H232.795C232.914 241.631 233.028 241.686 233.101 241.78C233.174 241.874 233.201 241.997 233.173 242.112L230.193 254.139C229.668 256.357 227.708 257.908 225.428 257.908ZM204.397 242.41L201.391 253.223C201.131 254.159 201.32 255.14 201.907 255.914C202.495 256.687 203.388 257.131 204.359 257.131H225.43C227.348 257.131 228.997 255.827 229.439 253.959L232.3 242.411H204.397V242.41Z" fill="#FF725E"/>
<path d="M264.149 309.928H151.129C150.914 309.928 150.741 309.755 150.741 309.54C150.741 309.324 150.914 309.151 151.129 309.151H264.149C264.364 309.151 264.537 309.324 264.537 309.54C264.537 309.755 264.364 309.928 264.149 309.928Z" fill="#FF725E"/>
<path d="M209.095 184.844H200.273C197.889 184.844 195.957 186.778 195.957 189.162H213.41C213.41 186.778 211.478 184.844 209.095 184.844Z" fill="#FFE5E1"/>
<path d="M213.41 189.55H195.957C195.741 189.55 195.568 189.377 195.568 189.162C195.568 186.567 197.679 184.456 200.272 184.456H209.094C211.687 184.456 213.798 186.567 213.798 189.162C213.798 189.377 213.625 189.55 213.41 189.55ZM196.364 188.773H213.002C212.806 186.789 211.129 185.232 209.094 185.232H200.272C198.239 185.232 196.56 186.789 196.364 188.773Z" fill="#FF725E"/>
<path d="M279.799 184.844H270.977C268.593 184.844 266.661 186.778 266.661 189.162H284.114C284.114 186.778 282.184 184.844 279.799 184.844Z" fill="#FF725E"/>
<path d="M284.116 189.55H266.663C266.448 189.55 266.274 189.377 266.274 189.162C266.274 186.567 268.385 184.456 270.978 184.456H279.8C282.393 184.456 284.504 186.567 284.504 189.162C284.504 189.377 284.329 189.55 284.116 189.55ZM267.068 188.773H283.707C283.511 186.789 281.834 185.232 279.798 185.232H270.976C268.943 185.232 267.264 186.789 267.068 188.773Z" fill="#FF725E"/>
<path d="M277.495 184.612L278.917 176.164C279.926 170.173 275.888 165.315 269.899 165.315H216.998C211.009 165.315 205.338 170.173 204.329 176.164L202.907 184.612H206.955L208.062 178.037C208.847 173.373 213.261 169.594 217.923 169.594H267.535C272.195 169.594 275.339 173.375 274.554 178.037L273.447 184.612H277.495Z" fill="#FFE5E1"/>
<path d="M277.497 185H273.449C273.335 185 273.225 184.949 273.152 184.862C273.078 184.774 273.047 184.659 273.066 184.547L274.173 177.972C274.537 175.809 274.035 173.784 272.757 172.275C271.506 170.797 269.653 169.983 267.539 169.983H217.926C213.453 169.983 209.203 173.625 208.449 178.101L207.342 184.676C207.311 184.863 207.148 185 206.959 185H202.911C202.797 185 202.689 184.949 202.614 184.862C202.54 184.774 202.509 184.659 202.528 184.547L203.95 176.099C204.987 169.939 210.841 164.927 217.001 164.927H269.903C272.886 164.927 275.507 166.085 277.286 168.187C279.099 170.331 279.816 173.186 279.304 176.229L277.882 184.676C277.849 184.863 277.686 185 277.497 185ZM273.907 184.223H277.168L278.536 176.099C279.01 173.287 278.354 170.654 276.691 168.689C275.063 166.763 272.652 165.704 269.901 165.704H217C211.201 165.704 205.691 170.425 204.714 176.229L203.369 184.223H206.63L207.681 177.972C208.494 173.137 213.09 169.204 217.925 169.204H267.537C269.885 169.204 271.949 170.115 273.349 171.771C274.776 173.461 275.341 175.708 274.939 178.1L273.907 184.223Z" fill="#FF725E"/>
<path d="M267.273 161.818H220.803C218.93 161.818 217.157 163.338 216.84 165.211L216.157 169.271C215.842 171.144 217.104 172.663 218.977 172.663H265.447C267.32 172.663 269.093 171.144 269.409 169.271L270.093 165.211C270.408 163.336 269.145 161.818 267.273 161.818Z" fill="#FFE5E1"/>
<path d="M265.447 173.052H218.977C217.965 173.052 217.073 172.656 216.465 171.938C215.846 171.207 215.601 170.236 215.774 169.206L216.458 165.146C216.802 163.097 218.752 161.43 220.803 161.43H267.273C268.285 161.43 269.177 161.825 269.786 162.544C270.405 163.275 270.65 164.245 270.476 165.275L269.793 169.336C269.448 171.385 267.499 173.052 265.447 173.052ZM220.803 162.207C219.114 162.207 217.509 163.583 217.225 165.275L216.542 169.336C216.407 170.137 216.591 170.883 217.059 171.436C217.517 171.976 218.198 172.275 218.979 172.275H265.449C267.138 172.275 268.744 170.899 269.027 169.206L269.711 165.146C269.845 164.345 269.662 163.598 269.193 163.046C268.735 162.506 268.055 162.207 267.273 162.207H220.803Z" fill="#FF725E"/>
<path d="M238.803 173.052H218.977C217.965 173.052 217.073 172.656 216.465 171.938C215.846 171.207 215.601 170.236 215.774 169.206L216.458 165.146C216.802 163.097 218.752 161.43 220.803 161.43H236.303C236.518 161.43 236.691 161.603 236.691 161.818C236.691 162.033 236.518 162.207 236.303 162.207H220.803C219.114 162.207 217.509 163.583 217.225 165.275L216.542 169.336C216.407 170.137 216.591 170.883 217.059 171.436C217.517 171.976 218.198 172.275 218.979 172.275H238.805C239.02 172.275 239.193 172.448 239.193 172.663C239.192 172.878 239.019 173.052 238.803 173.052Z" fill="#FF725E"/>
<path d="M283.149 309.928C283.014 309.928 282.883 309.858 282.811 309.732C282.704 309.545 282.769 309.309 282.956 309.202L300.974 298.931V197.176C300.974 196.961 301.147 196.788 301.362 196.788C301.577 196.788 301.751 196.961 301.751 197.176V299.156C301.751 299.296 301.675 299.425 301.555 299.494L283.341 309.877C283.28 309.912 283.213 309.928 283.149 309.928Z" fill="#FF725E"/>
<path d="M282.439 186.85C282.439 186.85 290.546 189.872 293.725 187.327C296.904 184.783 288.797 180.489 286.89 180.807C284.984 181.125 282.439 186.85 282.439 186.85Z" fill="#FF725E"/>
<path d="M241.699 251.691L249.329 265.051L253.462 259.326L246.786 246.285L241.699 251.691Z" fill="#FFE5E1"/>
<path d="M249.328 265.439C249.321 265.439 249.314 265.439 249.307 265.439C249.176 265.432 249.055 265.359 248.991 265.243L241.36 251.884C241.276 251.735 241.297 251.55 241.414 251.424L246.501 246.017C246.586 245.925 246.712 245.881 246.838 245.898C246.964 245.916 247.072 245.993 247.13 246.106L253.806 259.148C253.873 259.277 253.861 259.435 253.775 259.552L249.641 265.277C249.571 265.38 249.452 265.439 249.328 265.439ZM242.178 251.749L249.367 264.334L253.007 259.291L246.689 246.953L242.178 251.749Z" fill="#FF725E"/>
<path d="M246.686 263.014C248.699 267.163 253.791 277.228 258.699 282.053C259.895 283.23 261.918 282.682 262.348 281.06C263.884 275.249 264.907 263.143 259.185 253.601C259.185 253.601 256.464 253.282 251.378 254.237L252.509 259.007L251.885 258.562C250.944 257.89 249.667 257.946 248.79 258.698L247.324 259.955C246.441 260.711 246.179 261.966 246.686 263.014Z" fill="#FF725E"/>
<path d="M259.501 280.706C259.456 280.706 259.409 280.698 259.363 280.682C259.162 280.607 259.061 280.381 259.138 280.182C263.483 268.695 257.616 255.166 257.555 255.031C257.468 254.835 257.557 254.606 257.754 254.519C257.95 254.431 258.179 254.521 258.267 254.718C258.328 254.856 264.321 268.678 259.865 280.458C259.807 280.61 259.659 280.706 259.501 280.706Z" fill="#FFE5E1"/>
<path d="M249.646 269.188C249.518 269.188 249.394 269.125 249.319 269.012C249.202 268.831 249.252 268.59 249.433 268.475L253.248 265.999C253.428 265.881 253.67 265.932 253.785 266.112C253.902 266.292 253.851 266.534 253.671 266.649L249.856 269.125C249.793 269.167 249.719 269.188 249.646 269.188Z" fill="#FFE5E1"/>
<path d="M251.554 272.577C251.437 272.577 251.322 272.525 251.246 272.425C251.115 272.256 251.148 272.011 251.318 271.88L254.815 269.194C254.985 269.063 255.23 269.094 255.359 269.265C255.49 269.435 255.457 269.68 255.287 269.811L251.79 272.497C251.72 272.551 251.636 272.577 251.554 272.577Z" fill="#FFE5E1"/>
<path d="M217.536 252.01C217.536 252.328 210.541 267.595 210.541 267.595L218.489 268.232L223.894 255.191L217.536 252.01Z" fill="#FFE5E1"/>
<path d="M218.488 268.62C218.478 268.62 218.467 268.62 218.457 268.618L210.509 267.982C210.384 267.971 210.27 267.901 210.205 267.791C210.14 267.681 210.133 267.548 210.188 267.433C212.888 261.538 216.953 252.588 217.152 251.941C217.172 251.833 217.236 251.737 217.331 251.677C217.446 251.606 217.588 251.6 217.709 251.66L224.067 254.841C224.248 254.932 224.331 255.148 224.252 255.337L218.847 268.379C218.787 268.526 218.644 268.62 218.488 268.62ZM211.125 267.253L218.238 267.823L223.397 255.378L217.74 252.548C217.31 253.606 215.881 256.867 211.125 267.253Z" fill="#FF725E"/>
<path d="M217.854 264.414C217.854 264.414 216.264 260.597 212.131 262.507C212.131 262.507 204.543 273.47 201.725 282.523C200.927 285.083 203.555 287.391 205.998 286.288C211.716 283.705 220.676 278.284 225.803 268.233C225.803 268.233 224.214 264.098 221.67 262.19L217.854 264.414Z" fill="#FF725E"/>
<path d="M204.056 283.915C203.729 283.915 203.537 283.891 203.489 283.884C203.278 283.852 203.131 283.655 203.162 283.443C203.194 283.231 203.39 283.085 203.603 283.116C203.692 283.128 212.136 284.104 223.581 268.323C223.707 268.15 223.95 268.109 224.123 268.237C224.296 268.363 224.337 268.606 224.209 268.779C214.004 282.85 206.188 283.915 204.056 283.915Z" fill="#FFE5E1"/>
<path d="M210.539 275.3C210.473 275.3 210.405 275.282 210.343 275.247L206.528 273.021C206.343 272.913 206.28 272.675 206.388 272.49C206.496 272.305 206.734 272.242 206.92 272.35L210.735 274.576C210.921 274.684 210.983 274.922 210.875 275.108C210.803 275.23 210.674 275.3 210.539 275.3Z" fill="#FFE5E1"/>
<path d="M212.447 272.437C212.384 272.437 212.321 272.421 212.263 272.39L208.13 270.164C207.941 270.062 207.871 269.826 207.972 269.637C208.074 269.449 208.31 269.379 208.499 269.48L212.632 271.706C212.821 271.808 212.891 272.044 212.79 272.232C212.72 272.362 212.585 272.437 212.447 272.437Z" fill="#FFE5E1"/>
<path d="M258.23 175.037C258.23 175.037 237.509 178.738 222.575 194.404C218.807 198.358 217.475 204.05 219.092 209.27C222.409 219.977 229.631 239.531 241.698 254.238L250.919 246.286C250.919 246.286 248.693 227.838 242.653 216.388C236.613 204.938 271.903 180.129 271.903 180.129L258.23 175.037Z" fill="#FFE5E1"/>
<path d="M241.698 254.626C241.688 254.626 241.676 254.626 241.665 254.624C241.56 254.615 241.464 254.564 241.398 254.484C229.229 239.654 221.967 219.861 218.72 209.385C217.062 204.032 218.431 198.19 222.294 194.137C237.143 178.56 257.954 174.692 258.162 174.655C258.23 174.643 258.3 174.65 258.366 174.673L272.037 179.761C272.172 179.812 272.268 179.933 272.287 180.076C272.306 180.22 272.244 180.361 272.125 180.443C271.775 180.69 237.182 205.185 242.996 216.205C249.001 227.587 251.283 246.052 251.304 246.237C251.319 246.367 251.27 246.494 251.172 246.578L241.952 254.529C241.88 254.592 241.791 254.626 241.698 254.626ZM258.197 175.439C256.602 175.75 236.991 179.845 222.857 194.672C219.188 198.521 217.887 204.069 219.463 209.154C222.67 219.504 229.813 238.989 241.747 253.683L250.506 246.129C250.239 244.08 247.906 227.181 242.309 216.57C236.547 205.648 266.281 183.684 271.079 180.237L258.197 175.439Z" fill="#FF725E"/>
<path d="M214.991 254.872L225.801 258.053C225.801 258.053 245.514 216.385 251.235 210.341C256.958 204.298 268.085 194.437 279.848 190.938C291.611 187.439 291.611 178.534 291.611 178.534L271.582 172.809C271.582 172.809 243.604 184.895 234.385 198.573C225.165 212.251 214.991 254.872 214.991 254.872Z" fill="#FFE5E1"/>
<path d="M225.801 258.441C225.765 258.441 225.728 258.436 225.691 258.425L214.881 255.245C214.683 255.187 214.565 254.982 214.614 254.781C214.715 254.355 224.91 211.935 234.064 198.356C243.24 184.742 271.149 172.575 271.43 172.454C271.512 172.419 271.605 172.412 271.691 172.436L291.72 178.161C291.886 178.209 292.001 178.361 292.001 178.536C292.001 178.628 291.863 187.772 279.96 191.313C266.824 195.219 254.869 207.072 251.518 210.611C245.904 216.54 226.35 257.805 226.153 258.221C226.086 258.357 225.948 258.441 225.801 258.441ZM215.456 254.605L225.593 257.588C227.522 253.522 245.447 215.893 250.954 210.076C254.339 206.502 266.419 194.53 279.738 190.568C289.908 187.543 291.074 180.352 291.207 178.824L271.61 173.223C269.556 174.129 243.443 185.833 234.707 198.792C226.079 211.59 216.469 250.446 215.456 254.605Z" fill="#FF725E"/>
<path d="M307.827 145.773C302.422 134.958 293.519 133.369 293.519 133.369L278.259 132.095C273.487 131.772 268.414 134.722 266.529 139.12L252.507 171.854C252.507 171.854 255.368 179.489 268.085 180.76C280.803 182.033 289.546 181.237 293.678 186.326C296.403 189.682 296.317 167.304 294.75 149.606L307.827 145.773Z" fill="#FFE5E1"/>
<path d="M294.192 187.055C293.962 187.055 293.678 186.943 293.378 186.572C290.279 182.757 284.299 182.349 276.021 181.783C273.625 181.619 270.909 181.433 268.047 181.148C255.236 179.866 252.264 172.312 252.143 171.992C252.108 171.898 252.11 171.795 252.15 171.702L266.172 138.968C268.089 134.493 273.294 131.372 278.285 131.709L293.552 132.982C293.68 133.003 302.745 134.738 308.174 145.6C308.225 145.703 308.229 145.824 308.183 145.929C308.138 146.034 308.047 146.114 307.937 146.146L295.166 149.891C296.261 162.48 297.165 185.908 294.477 186.999C294.395 187.032 294.299 187.055 294.192 187.055ZM252.93 171.856C253.395 172.872 256.756 179.239 268.124 180.375C270.974 180.66 273.683 180.846 276.073 181.008C284.547 181.587 290.669 182.005 293.981 186.083C294.122 186.258 294.199 186.277 294.199 186.277C294.233 186.259 295.408 185.663 295.455 173.883C295.483 166.752 295.075 157.69 294.362 149.643C294.346 149.458 294.462 149.288 294.64 149.236L307.267 145.534C301.991 135.386 293.537 133.767 293.451 133.753L278.226 132.485C273.557 132.169 268.678 135.089 266.886 139.275L252.93 171.856Z" fill="#FF725E"/>
<path d="M267.013 173.963L274.007 170.782L279.412 173.008C279.412 173.008 308.705 170.07 295.741 149.318C295.685 149.229 305.631 146.418 305.631 146.418C305.631 146.418 317.449 174.599 280.049 175.236C280.049 175.236 278.141 175.872 275.598 174.599C273.054 173.326 268.602 175.871 267.013 173.963Z" fill="#FFE5E1"/>
<path d="M278.776 175.785C277.931 175.785 276.76 175.616 275.424 174.948C274.345 174.407 272.81 174.636 271.327 174.857C269.463 175.135 267.702 175.397 266.716 174.211C266.639 174.119 266.609 173.995 266.635 173.876C266.662 173.757 266.744 173.659 266.854 173.608L273.848 170.427C273.946 170.384 274.058 170.382 274.158 170.422L279.47 172.611C280.728 172.465 293.994 170.744 297.698 163.193C299.524 159.47 298.756 154.872 295.414 149.523C295.35 149.419 295.337 149.29 295.381 149.175C295.474 148.933 295.497 148.877 305.528 146.043C305.719 145.99 305.917 146.085 305.992 146.267C306.037 146.377 310.556 157.4 305.032 165.862C300.947 172.118 292.562 175.402 280.112 175.623C279.942 175.67 279.469 175.785 278.776 175.785ZM273.712 173.836C274.45 173.836 275.151 173.94 275.772 174.252C278.124 175.429 279.909 174.872 279.928 174.865C279.965 174.853 280.005 174.846 280.044 174.846C292.251 174.638 300.438 171.473 304.38 165.437C309.164 158.11 306.079 148.727 305.397 146.887C302.162 147.802 297.691 149.085 296.324 149.519C299.604 154.94 300.3 159.654 298.394 163.538C294.332 171.814 280.058 173.335 279.453 173.397C279.388 173.402 279.325 173.393 279.266 173.369L274.016 171.206L267.742 174.059C268.548 174.484 269.849 174.292 271.211 174.089C272.049 173.963 272.904 173.836 273.712 173.836Z" fill="#FF725E"/>
<path d="M240.353 176.488H267.929L247.486 145.032C246.848 144.049 245.734 143.453 244.538 143.453H222.159C220.737 143.453 219.873 144.974 220.632 146.142L240.353 176.488Z" fill="#FF725E"/>
<path d="M240.513 156.409C241.085 155.53 240.223 153.956 238.588 152.893C236.954 151.83 235.166 151.68 234.594 152.558C234.023 153.437 234.885 155.011 236.519 156.074C238.154 157.137 239.942 157.287 240.513 156.409Z" fill="#FFE5E1"/>
<path d="M239.161 157.368C237.538 157.368 235.505 156.195 234.531 154.694C233.992 153.866 233.87 153.044 234.197 152.442C234.492 151.898 235.102 151.598 235.916 151.598C237.538 151.598 239.572 152.771 240.546 154.271C241.085 155.1 241.207 155.922 240.88 156.524C240.584 157.067 239.974 157.368 239.161 157.368ZM235.916 152.376C235.401 152.376 235.033 152.531 234.879 152.813C234.692 153.157 234.802 153.689 235.181 154.271C235.998 155.529 237.82 156.59 239.159 156.59C239.673 156.59 240.042 156.434 240.194 156.153C240.382 155.808 240.271 155.277 239.892 154.694C239.077 153.437 237.255 152.376 235.916 152.376Z" fill="#FF725E"/>
<path d="M242.294 178.854H284.716C285.84 178.854 286.753 177.943 286.753 176.817V176.285H240.259V176.817C240.257 177.941 241.17 178.854 242.294 178.854Z" fill="#FF725E"/>
<path d="M296.381 58.9395C308.055 55.2516 323.153 72.0087 320.112 85.7915C319.273 89.593 320.201 95.3425 316.036 97.4426C308.648 101.167 304.002 96.6575 302.103 99.6529C300.457 102.25 306.303 105.992 305.6 111.421C304.554 119.489 290.076 123.384 288.432 123.826C287.204 124.157 269.924 128.572 261.725 119.372C259.751 117.157 257.161 112.871 258.546 110.148C259.866 107.551 263.921 108.109 264.904 105.378C265.756 103.01 263.04 101.687 263.315 99.0164C263.844 93.8684 274.476 93.6026 275.714 88.2011C276.704 83.8837 270.526 81.3447 271.58 77.0693C272.432 73.621 276.877 73.5283 283.98 69.1183C292.485 63.8374 291.959 60.3366 296.381 58.9395Z" fill="#FF725E"/>
<path d="M283.347 131.142C283.064 131 279.238 126.486 277 123.826C277.169 123.088 277.145 122.852 277.083 121.733C277.083 121.733 278.243 120.57 277.778 119.061C277.237 117.307 275.573 118.715 275.573 118.715C275.573 118.715 274.802 117.366 271.902 119.69C269.003 122.016 265.939 119.187 265.939 119.187C265.939 119.187 265.941 120.928 267.473 123.044C268.318 124.212 268.461 125.755 268.501 127.195L270.126 126.961C271.021 128.021 271.685 128.54 272.913 129.049C272.913 129.049 273.884 128.871 274.892 128.037L276.673 132.093L274.857 133.048C274.857 133.048 274.447 135.592 279.217 136.229C283.985 136.865 287.801 133.048 287.801 133.048C287.801 133.048 285.253 132.097 283.347 131.142Z" fill="#FFE5E1"/>
<path d="M280.308 136.692C279.932 136.692 279.551 136.668 279.161 136.617C277.131 136.346 275.725 135.704 274.985 134.709C274.34 133.842 274.464 133.024 274.469 132.99C274.489 132.87 274.564 132.765 274.672 132.709L276.167 131.924L274.73 128.649C273.814 129.278 273.018 129.43 272.98 129.437C272.906 129.451 272.831 129.443 272.761 129.415C271.565 128.92 270.86 128.413 269.967 127.383L268.554 127.585C268.444 127.601 268.333 127.57 268.248 127.498C268.164 127.426 268.113 127.323 268.11 127.211C268.069 125.798 267.928 124.343 267.155 123.277C265.569 121.084 265.548 119.267 265.548 119.192C265.548 119.038 265.639 118.898 265.78 118.835C265.922 118.772 266.086 118.8 266.2 118.905C266.315 119.012 269.057 121.476 271.656 119.391C273.036 118.286 274.172 117.807 275.034 117.971C275.282 118.019 275.47 118.113 275.606 118.211C275.961 117.98 276.583 117.672 277.18 117.846C277.636 117.978 277.961 118.351 278.147 118.949C278.584 120.365 277.795 121.493 277.479 121.874L277.481 121.892C277.529 122.782 277.547 123.107 277.419 123.724C282.52 129.782 283.396 130.684 283.545 130.81C285.409 131.74 287.908 132.679 287.932 132.69C288.056 132.737 288.147 132.842 288.175 132.971C288.203 133.101 288.163 133.235 288.07 133.328C287.923 133.473 284.652 136.692 280.308 136.692ZM275.237 133.29C275.251 133.499 275.324 133.868 275.627 134.267C276.234 135.064 277.493 135.61 279.264 135.846C282.858 136.325 285.935 134.124 287.063 133.183C286.189 132.84 284.517 132.162 283.172 131.488C283.043 131.424 282.774 131.289 276.702 124.074C276.624 123.982 276.594 123.856 276.62 123.737C276.769 123.093 276.757 122.892 276.704 121.93L276.694 121.754C276.688 121.644 276.729 121.537 276.807 121.458C276.848 121.418 277.794 120.435 277.405 119.176C277.302 118.842 277.154 118.645 276.963 118.589C276.603 118.484 276.04 118.828 275.823 119.012C275.735 119.087 275.618 119.117 275.505 119.098C275.391 119.078 275.291 119.008 275.235 118.907C275.234 118.907 275.132 118.765 274.858 118.725C274.503 118.671 273.675 118.765 272.145 119.993C269.939 121.763 267.637 120.787 266.466 120.051C266.63 120.72 266.992 121.717 267.788 122.815C268.599 123.936 268.809 125.349 268.874 126.75L270.07 126.578C270.203 126.559 270.336 126.61 270.421 126.713C271.275 127.722 271.878 128.189 272.945 128.643C273.205 128.573 273.915 128.341 274.642 127.739C274.737 127.661 274.863 127.633 274.98 127.661C275.099 127.689 275.197 127.771 275.246 127.883L277.026 131.94C277.108 132.127 277.031 132.345 276.851 132.44L275.237 133.29Z" fill="#FF725E"/>
<path d="M274.888 128.428C274.782 128.428 274.677 128.385 274.6 128.301C274.457 128.142 274.469 127.895 274.628 127.752L275.153 127.28C275.312 127.136 275.558 127.148 275.702 127.308C275.845 127.467 275.833 127.713 275.674 127.857L275.149 128.329C275.076 128.395 274.981 128.428 274.888 128.428Z" fill="#FF725E"/>
<path d="M127.783 124.499C127.65 124.499 127.524 124.431 127.452 124.314L119.288 111.013L104.493 115.896C104.348 115.943 104.188 115.903 104.083 115.789C103.98 115.675 103.952 115.513 104.014 115.373L121.078 75.8589C121.159 75.6718 121.372 75.5792 121.565 75.6474L138.15 81.5333C138.337 81.5997 138.446 81.7973 138.399 81.9914L128.16 124.202C128.124 124.354 127.998 124.469 127.844 124.494C127.823 124.497 127.804 124.499 127.783 124.499ZM119.459 110.158C119.592 110.158 119.718 110.227 119.79 110.344L127.625 123.111L137.561 82.1488L121.649 76.5007L105.071 114.885L119.337 110.176C119.377 110.165 119.417 110.158 119.459 110.158Z" fill="#FF725E"/>
<path d="M148.14 125.183C148.121 125.183 148.101 125.181 148.082 125.179C147.932 125.156 147.808 125.048 147.766 124.899L136.09 83.4706C136.034 83.273 136.141 83.0684 136.333 82.9985L152.914 77.0986C153.101 77.0321 153.309 77.1178 153.395 77.2979L172.068 116.511C172.136 116.653 172.112 116.821 172.007 116.938C171.902 117.055 171.738 117.097 171.589 117.044L156.867 111.877L148.467 125.004C148.395 125.116 148.271 125.183 148.14 125.183ZM136.936 83.6105L148.278 123.855L156.378 111.199C156.476 111.047 156.664 110.982 156.834 111.041L170.965 116.002L152.845 77.9484L136.936 83.6105Z" fill="#FF725E"/>
<path d="M170.393 65.9093L165.735 71.5627L167.884 78.5694L161.411 82.0003L160.711 89.2938L153.419 89.995L149.99 96.4702L142.989 94.3194L137.337 98.9812L131.686 94.3194L124.682 96.4702L121.253 89.9933L113.961 89.2938L113.262 81.9985L106.789 78.5694L108.938 71.5627L104.279 65.9093L108.938 60.2542L106.789 53.2492L113.262 49.8184L113.961 42.5231L121.253 41.8236L124.682 35.3467L131.686 37.4975L137.337 32.8374L142.989 37.4975L149.99 35.3467L153.421 41.8236L160.711 42.5231L161.411 49.8184L167.884 53.2492L165.735 60.2542L170.393 65.9093Z" fill="#FF725E"/>
<path d="M137.137 89.5263C150.064 89.5263 160.544 79.0419 160.544 66.1086C160.544 53.1754 150.064 42.6909 137.137 42.6909C124.209 42.6909 113.729 53.1754 113.729 66.1086C113.729 79.0419 124.209 89.5263 137.137 89.5263Z" fill="#FFE5E1"/>
<path d="M137.136 89.9165C124.014 89.9165 113.341 79.2376 113.341 66.1106C113.341 52.9836 124.016 42.3047 137.136 42.3047C150.258 42.3047 160.932 52.9836 160.932 66.1106C160.932 79.2358 150.258 89.9165 137.136 89.9165ZM137.136 43.0811C124.443 43.0811 114.117 53.412 114.117 66.1106C114.117 78.8092 124.443 89.1401 137.136 89.1401C149.83 89.1401 160.155 78.8092 160.155 66.1106C160.155 53.412 149.83 43.0811 137.136 43.0811Z" fill="#FF725E"/>
<path d="M135.986 77.9558C135.671 77.9558 135.367 77.8281 135.146 77.5991L126.157 68.2579C125.711 67.7945 125.725 67.0566 126.188 66.6089C126.651 66.163 127.389 66.177 127.837 66.6404L135.835 74.9516L147.336 58.2225C147.701 57.6926 148.427 57.558 148.957 57.9217C149.487 58.2872 149.621 59.0128 149.258 59.5427L136.947 77.4487C136.748 77.7372 136.431 77.9208 136.082 77.9505C136.05 77.954 136.019 77.9558 135.986 77.9558Z" fill="#FF725E"/>
<path d="M229.716 63.1137L225.446 63.7729L222.681 60.7723C222.087 60.127 220.941 60.468 220.744 61.3493L219.821 65.4481L215.846 67.2457C214.991 67.6321 214.905 68.7723 215.701 69.1762L219.401 71.0507L219.709 75.1618C219.775 76.0448 220.868 76.4085 221.557 75.7773L224.768 72.8361L228.933 73.5793C229.828 73.7384 230.589 72.8238 230.22 72.03L228.503 68.3386L230.769 64.6857C231.257 63.9006 230.634 62.972 229.716 63.1137Z" fill="#FF725E"/>
<path d="M246.476 53.9665L242.278 54.7988L239.452 51.8716C238.845 51.2421 237.724 51.6321 237.555 52.5309L236.771 56.7101L232.9 58.6808C232.068 59.104 232.019 60.2616 232.818 60.6375L236.532 62.3897L236.966 66.5339C237.058 67.4257 238.149 67.751 238.812 67.0847L241.891 63.9879L246.03 64.5789C246.921 64.7066 247.643 63.7501 247.253 62.9632L245.441 59.2963L247.566 55.5158C248.024 54.7027 247.379 53.7881 246.476 53.9665Z" fill="#FF725E"/>
<path d="M264.677 46.3301L260.52 46.9718L257.876 43.8575C257.308 43.1878 256.191 43.5287 255.986 44.4345L255.033 48.6487L251.149 50.4656C250.314 50.8555 250.216 52.0306 250.983 52.452L254.55 54.4157L254.794 58.6527C254.846 59.5637 255.902 59.9484 256.581 59.3032L259.737 56.3025L263.771 57.1051C264.638 57.2783 265.39 56.341 265.042 55.5209L263.427 51.7036L265.677 47.9633C266.161 47.1554 265.57 46.1919 264.677 46.3301Z" fill="#FF725E"/>
<path d="M282.233 38.8776L278.108 39.6925L275.336 36.6918C274.74 36.0466 273.638 36.4348 273.472 37.3476L272.698 41.5967L268.893 43.5744C268.074 43.9994 268.025 45.1762 268.809 45.5661L272.455 47.3777L272.876 51.6007C272.967 52.5082 274.037 52.8475 274.688 52.1742L277.716 49.0442L281.78 49.6772C282.654 49.8136 283.364 48.8466 282.983 48.0405L281.208 44.2949L283.3 40.4619C283.753 39.64 283.12 38.7028 282.233 38.8776Z" fill="#FF725E"/>
</g>
<defs>
<clipPath id="clip0_1716_8402">
<rect width="320.647" height="320" fill="white"/>
</clipPath>
</defs>
</svg>
