<svg width="87" height="100" viewBox="0 0 87 100" fill="none" xmlns="http://www.w3.org/2000/svg">
<g id="Frame 1000002466">
<path id="Vector" d="M20.2504 96.9427C19.888 96.9427 19.5256 96.8069 19.2448 96.5346C18.6726 95.9791 18.6589 95.0651 19.2151 94.4929L21.0095 92.6443C21.5649 92.0721 22.4789 92.0584 23.0511 92.6138C23.6233 93.1692 23.6371 94.0832 23.0816 94.6554L21.2864 96.504C21.0034 96.7963 20.6273 96.9427 20.2504 96.9427Z" fill="#FF725E"/>
<path id="Vector_2" d="M39.7282 26.0277C39.3666 26.0277 39.0034 25.8919 38.7234 25.6195C38.1512 25.0641 38.1375 24.1501 38.6929 23.5787L40.4881 21.7293C41.0435 21.1571 41.9568 21.1434 42.529 21.6988C43.1012 22.2542 43.1149 23.1682 42.5595 23.7404L40.7643 25.5898C40.4812 25.8812 40.1051 26.0277 39.7282 26.0277Z" fill="#FF725E"/>
<path id="Vector_3" d="M81.1645 19.6076C80.8021 19.6076 80.4397 19.4725 80.159 19.2002C79.5868 18.6448 79.573 17.7308 80.1285 17.1586L81.9237 15.3092C82.4791 14.7377 83.3931 14.724 83.9653 15.2794C84.5375 15.8341 84.5512 16.7489 83.9958 17.3203L82.2006 19.1697C81.9176 19.4611 81.5414 19.6076 81.1645 19.6076Z" fill="#0D7C91"/>
<path id="Vector_4" d="M81.1645 90.5806C80.8021 90.5806 80.4397 90.4448 80.159 90.1732C79.5868 89.6178 79.573 88.7038 80.1285 88.1316L81.9237 86.2822C82.4791 85.7108 83.3931 85.6963 83.9653 86.2517C84.5375 86.8071 84.5512 87.7211 83.9958 88.2933L82.2006 90.1427C81.9176 90.4342 81.5414 90.5806 81.1645 90.5806Z" fill="#FF725E"/>
<path id="Vector_5" d="M12.6618 22.0529C12.3002 22.0529 11.937 21.9179 11.657 21.6455C11.0848 21.0901 11.0711 20.1761 11.6265 19.6039L13.4217 17.7545C13.9771 17.1831 14.8911 17.1693 15.4633 17.7247C16.0348 18.2802 16.0485 19.1942 15.4931 19.7656L13.6979 21.615C13.4148 21.9064 13.0387 22.0529 12.6618 22.0529Z" fill="#FF725E"/>
<path id="Vector_6" d="M2.74776 54.4579C2.38613 54.4579 2.02297 54.3228 1.74297 54.0505C1.17076 53.495 1.15703 52.581 1.71245 52.0088L3.50688 50.1595C4.0623 49.5873 4.9763 49.5735 5.54851 50.129C6.12071 50.6844 6.13445 51.5984 5.57903 52.1706L3.78383 54.0199C3.50154 54.3114 3.12465 54.4579 2.74776 54.4579Z" fill="#2DC471"/>
<path id="Vector_7" d="M42.589 54.3931L37.9023 56.9314C36.6869 57.5898 35.2663 56.5263 35.4982 55.1317L36.3932 49.756C36.4855 49.2021 36.3077 48.6375 35.9171 48.2454L32.1253 44.4375C31.1418 43.4503 31.6843 41.7299 33.0439 41.5262L38.283 40.7419C38.8231 40.661 39.2893 40.3123 39.5304 39.808L41.8741 34.9168C42.4822 33.6488 44.2377 33.6488 44.8458 34.9168L47.1887 39.808C47.4306 40.3123 47.8968 40.661 48.4362 40.7419L53.676 41.5262C55.0348 41.7299 55.5773 43.4503 54.5938 44.4375L50.8028 48.2454C50.4122 48.6375 50.2336 49.2021 50.326 49.756L51.2209 55.1317C51.4536 56.5263 50.033 57.5898 48.8176 56.9314L44.1309 54.3931C43.6479 54.1314 43.0712 54.1314 42.589 54.3931Z" fill="#FF725E"/>
<path id="Vector_8" d="M43.3595 99.9998C42.5622 99.9998 41.916 99.3536 41.916 98.5563V75.9794C41.916 75.1821 42.5622 74.5352 43.3595 74.5352C44.1568 74.5352 44.803 75.1821 44.803 75.9794V98.5563C44.803 99.3536 44.1568 99.9998 43.3595 99.9998Z" fill="#0D7C91"/>
<path id="Vector_9" d="M43.3707 69.8091H43.3485C42.5513 69.8091 41.9043 69.1621 41.9043 68.3649C41.9043 67.5676 42.5505 66.9214 43.3485 66.9214H43.3707C44.1679 66.9214 44.8141 67.5676 44.8141 68.3649C44.8141 69.1621 44.1679 69.8091 43.3707 69.8091Z" fill="#0D7C91"/>
<path id="Vector_10" d="M43.3707 64.843C43.3684 64.843 43.3661 64.843 43.3646 64.843H43.3417C42.5444 64.84 41.9013 64.1907 41.9043 63.3934C41.9081 62.5977 42.5536 61.9561 43.3478 61.9561H43.3547H43.3768C44.1741 61.9591 44.8172 62.6084 44.8142 63.4056C44.8111 64.2006 44.1649 64.843 43.3707 64.843Z" fill="#FF725E"/>
<path id="Vector_11" d="M17.3817 45.0968C17.0048 45.0968 16.6286 44.9503 16.3456 44.6588L0.84954 28.6943C0.29412 28.1221 0.30709 27.2081 0.879294 26.6535C1.4515 26.098 2.3655 26.1118 2.92092 26.6832L18.4177 42.6477C18.9732 43.2192 18.9594 44.1339 18.3872 44.6886C18.1065 44.9609 17.7441 45.0968 17.3817 45.0968Z" fill="#FF725E"/>
<path id="Vector_12" d="M22.6 50.4891C22.2361 50.4891 21.8722 50.3525 21.5914 50.0779C21.0207 49.5209 21.0101 48.6069 21.567 48.0363L21.583 48.0202C22.14 47.4503 23.054 47.4389 23.6247 47.9966C24.1953 48.5535 24.206 49.4675 23.6483 50.0382L23.633 50.0542C23.35 50.3434 22.9754 50.4891 22.6 50.4891Z" fill="#FF725E"/>
<path id="Vector_13" d="M26.0076 53.9999C25.6452 53.9999 25.2828 53.8641 25.0021 53.5917C24.4306 53.0363 24.4169 52.1223 24.9723 51.5509L24.9876 51.5341C25.5437 50.9619 26.4577 50.9489 27.0292 51.5043C27.6014 52.0597 27.6151 52.9737 27.0597 53.546L27.0437 53.562C26.7606 53.8534 26.3845 53.9999 26.0076 53.9999Z" fill="#0D7C91"/>
<path id="Vector_14" d="M69.3356 44.5288C68.9733 44.5288 68.6109 44.3937 68.3309 44.1214C67.7587 43.566 67.7449 42.652 68.3003 42.0798L83.7964 26.116C84.3518 25.5438 85.2658 25.5301 85.838 26.0855C86.4102 26.6409 86.424 27.5549 85.8685 28.1271L70.3717 44.0909C70.0887 44.3823 69.7125 44.5288 69.3356 44.5288Z" fill="#FF725E"/>
<path id="Vector_15" d="M64.1176 49.9222C63.7437 49.9222 63.3707 49.778 63.0884 49.4903L63.0723 49.4743C62.5131 48.9052 62.5215 47.9912 63.0899 47.4327C63.659 46.8735 64.573 46.8819 65.1315 47.4502L65.1475 47.4663C65.706 48.0354 65.6984 48.9494 65.1292 49.5079C64.8485 49.7841 64.483 49.9222 64.1176 49.9222Z" fill="#FF725E"/>
<path id="Vector_16" d="M60.7096 53.4332C60.3327 53.4332 59.9565 53.2867 59.6735 52.9953L59.6575 52.9793C59.1028 52.4071 59.1158 51.4931 59.688 50.9376C60.2602 50.3822 61.1742 50.396 61.7296 50.9674L61.7456 50.9834C62.3003 51.5556 62.2873 52.4696 61.7151 53.025C61.4344 53.2974 61.072 53.4332 60.7096 53.4332Z" fill="#FF725E"/>
<path id="Vector_17" d="M59.0651 22.7913C58.8225 22.7913 58.5768 22.7303 58.3517 22.6013C57.659 22.2061 57.4179 21.3242 57.8131 20.6322L68.9192 1.16885C69.3144 0.476868 70.1956 0.235779 70.8883 0.630982C71.5811 1.02618 71.8222 1.90814 71.427 2.60013L60.3209 22.0635C60.0546 22.5296 59.5671 22.7913 59.0651 22.7913Z" fill="#62D38F"/>
<path id="Vector_18" d="M55.3288 29.3612C55.0763 29.3612 54.8215 29.2956 54.5888 29.1568L54.5697 29.1453C53.8861 28.7364 53.6626 27.8499 54.0723 27.1655C54.4812 26.4804 55.3678 26.2584 56.0521 26.6673L56.0712 26.6787C56.7555 27.0877 56.9783 27.9742 56.5694 28.6586C56.2985 29.111 55.8202 29.3612 55.3288 29.3612Z" fill="#FF725E"/>
<path id="Vector_19" d="M52.8853 33.6418C52.6313 33.6418 52.3742 33.5746 52.1415 33.4342L52.1224 33.4228C51.4396 33.0108 51.2198 32.1235 51.6311 31.4407C52.0431 30.7579 52.9303 30.5389 53.6132 30.9501L53.6323 30.9616C54.3151 31.3735 54.5348 32.2608 54.1228 32.9437C53.852 33.393 53.3744 33.6418 52.8853 33.6418Z" fill="#2DC471"/>
<path id="Vector_20" d="M27.6809 22.7915C27.1789 22.7915 26.6913 22.5298 26.4251 22.0629L15.319 2.60029C14.9238 1.90754 15.1649 1.02635 15.8568 0.631146C16.5496 0.235943 17.4315 0.476269 17.8268 1.16902L28.9329 20.6316C29.3281 21.3243 29.087 22.2063 28.395 22.6015C28.1692 22.7304 27.9235 22.7915 27.6809 22.7915Z" fill="#0D7C91"/>
<path id="Vector_21" d="M31.416 29.3608C30.9262 29.3608 30.4478 29.1113 30.177 28.6612C29.7665 27.9776 29.9878 27.0903 30.6706 26.6798L30.6904 26.6684C31.374 26.2579 32.2606 26.4784 32.671 27.162C33.0823 27.8456 32.861 28.7321 32.1774 29.1433L32.1583 29.1548C31.9256 29.2944 31.6693 29.3608 31.416 29.3608Z" fill="#FF725E"/>
<path id="Vector_22" d="M33.8594 33.6418C33.3711 33.6418 32.895 33.3946 32.6234 32.946C32.2099 32.2639 32.4281 31.3766 33.1094 30.9631L33.1285 30.9517C33.8113 30.5389 34.6986 30.7563 35.1121 31.4384C35.5249 32.1205 35.3074 33.0078 34.6254 33.4213L34.6063 33.4327C34.3721 33.5746 34.1142 33.6418 33.8594 33.6418Z" fill="#FF725E"/>
<path id="Vector_23" d="M78.8875 69.7816L75.8555 72.0476C75.0697 72.6358 73.9703 72.0392 73.9955 71.039L74.0939 67.1815C74.1038 66.784 73.9238 66.4071 73.6117 66.1729L70.5829 63.9032C69.797 63.3142 70.0076 62.0531 70.9392 61.7685L74.5311 60.6729C74.9003 60.56 75.1933 60.2663 75.3123 59.8886L76.472 56.2196C76.7726 55.2675 78.0025 55.0844 78.5525 55.9091L80.6743 59.0898C80.8932 59.4171 81.2541 59.6132 81.6394 59.6132L85.3854 59.6155C86.3574 59.6162 86.9067 60.7644 86.3147 61.5587L84.0342 64.6196C83.7993 64.9354 83.7298 65.3497 83.8489 65.7274L85.0047 69.3986C85.3038 70.3508 84.4134 71.2434 83.4979 70.9093L79.967 69.6206C79.6039 69.4879 79.2003 69.5482 78.8875 69.7816Z" fill="#FF725E"/>
<path id="Vector_24" d="M51.42 100C50.6228 100 49.9766 99.3538 49.9766 98.5565C49.9766 87.3787 54.4359 79.8218 58.1766 75.4502C62.2446 70.6978 66.3042 68.6096 66.4751 68.5227C67.1862 68.1618 68.0552 68.4464 68.4153 69.1582C68.7754 69.8685 68.4923 70.736 67.782 71.0976C67.721 71.1289 63.9734 73.0828 60.2884 77.4246C55.3614 83.2291 52.8635 90.3389 52.8635 98.5565C52.8635 99.3538 52.2173 100 51.42 100Z" fill="#FF725E"/>
<path id="Vector_25" d="M20.4318 77.6077L22.7298 80.6556C23.3264 81.446 24.5433 81.1889 24.7897 80.2207L25.7396 76.4877C25.8373 76.1039 26.1127 75.7934 26.4758 75.6583L29.9991 74.3484C30.9131 74.0089 31.0519 72.737 30.2348 72.1969L27.0824 70.1125C26.7581 69.8974 26.5567 69.5319 26.5437 69.1352L26.4232 65.2778C26.3927 64.2776 25.2612 63.7481 24.5097 64.3821L21.6113 66.8266C21.3123 67.0783 20.9125 67.163 20.5425 67.0524L16.9444 65.9782C16.0114 65.6997 15.1729 66.6442 15.5261 67.5765L16.8872 71.1723C17.0276 71.5423 16.9818 71.9604 16.7651 72.2892L14.6617 75.4821C14.1162 76.3107 14.7289 77.423 15.6993 77.3658L19.4385 77.143C19.8238 77.1201 20.1953 77.2941 20.4318 77.6077Z" fill="#FF725E"/>
<path id="Vector_26" d="M35.3094 99.9999C34.5121 99.9999 33.8659 99.3537 33.8659 98.5564C33.8659 92.6856 32.5613 87.3145 29.9887 82.5926C29.6072 81.8923 29.8658 81.0157 30.5662 80.6342C31.2666 80.2527 32.1432 80.5113 32.5247 81.211C35.33 86.3623 36.7529 92.1981 36.7529 98.5564C36.7529 99.3537 36.1067 99.9999 35.3094 99.9999Z" fill="#FF725E"/>
<path id="Vector_27" d="M52.8676 10.9177C52.8676 8.71356 51.1326 6.92676 48.9933 6.92676C46.8533 6.92676 45.1191 8.71356 45.1191 10.9177C45.1191 13.1218 46.8533 14.9094 48.9933 14.9094C51.1326 14.9094 52.8676 13.1218 52.8676 10.9177Z" fill="#FF725E"/>
<path id="Vector_28" d="M73.2105 87.2683C73.2105 85.0641 71.4764 83.2773 69.3371 83.2773C67.1971 83.2773 65.4629 85.0641 65.4629 87.2683C65.4629 89.4724 67.1971 91.2592 69.3371 91.2592C71.4764 91.2592 73.2105 89.4724 73.2105 87.2683Z" fill="#0D7C91"/>
<path id="Vector_29" d="M8.96219 88.0575C8.96219 86.2897 7.57135 84.8569 5.85474 84.8569C4.13889 84.8569 2.74805 86.2897 2.74805 88.0575C2.74805 89.826 4.13889 91.2588 5.85474 91.2588C7.57135 91.2588 8.96219 89.826 8.96219 88.0575Z" fill="#62D38F"/>
<path id="Vector_30" d="M17.5657 56.3187C17.5657 54.551 16.1749 53.1182 14.4583 53.1182C12.7424 53.1182 11.3516 54.551 11.3516 56.3187C11.3516 58.0864 12.7424 59.52 14.4583 59.52C16.1749 59.52 17.5657 58.0864 17.5657 56.3187Z" fill="#0D7C91"/>
<g id="Group">
<path id="Vector_31" d="M41.5227 3.20129C41.5227 1.4328 40.1319 0 38.416 0C36.6994 0 35.3086 1.4328 35.3086 3.20129C35.3086 4.96902 36.6994 6.40182 38.416 6.40182C40.1319 6.40182 41.5227 4.96902 41.5227 3.20129Z" fill="#FF725E"/>
<path id="Vector_32" d="M71.6758 29.86C71.6758 28.0923 70.2842 26.6587 68.5684 26.6587C66.8525 26.6587 65.4609 28.0923 65.4609 29.86C65.4609 31.6277 66.8525 33.0605 68.5684 33.0605C70.2842 33.0605 71.6758 31.6277 71.6758 29.86Z" fill="#FF725E"/>
<path id="Vector_33" d="M27.6782 6.39586C27.3158 6.39586 26.9534 6.26082 26.6727 5.98769C26.1005 5.43227 26.0867 4.51903 26.6421 3.94683L28.4373 2.09746C28.9928 1.52526 29.9068 1.51152 30.4782 2.06694C31.0504 2.62236 31.0641 3.53636 30.5087 4.10857L28.7143 5.95793C28.4312 6.24938 28.0543 6.39586 27.6782 6.39586Z" fill="#FF725E"/>
</g>
</g>
</svg>
