<svg width="131" height="32" viewBox="0 0 131 32" fill="none" xmlns="http://www.w3.org/2000/svg">
<g clip-path="url(#clip0_1716_13633)">
<path d="M15.8039 31.5324C8.88427 31.5137 2.85506 27.1427 0.888267 20.6231C-0.754355 15.1602 0.310594 10.1669 4.00521 5.80313C6.27641 3.12152 9.20527 1.47786 12.6485 0.77447C14.5745 0.38165 16.5584 0.36542 18.4907 0.726677C18.7068 0.766156 18.7088 0.82434 18.6247 0.998884C17.6744 2.9771 16.7285 4.95809 15.7872 6.94183C15.7639 7.00388 15.7206 7.0564 15.6642 7.09123C15.6078 7.12599 15.5415 7.14105 15.4755 7.13408C13.4957 7.18465 11.5897 7.89593 10.0608 9.15472C8.53189 10.4135 7.4678 12.1474 7.038 14.0807C6.0894 18.3062 8.37516 22.6772 12.4085 24.2263C15.6095 25.4554 18.5883 24.966 21.2979 22.8652C21.4362 22.7613 21.4933 22.7405 21.592 22.912C22.631 24.7302 23.6789 26.545 24.7359 28.3562C24.8284 28.5152 24.7952 28.5869 24.658 28.6824C22.617 30.1265 20.2561 31.0535 17.7779 31.3838C17.123 31.4683 16.464 31.5179 15.8039 31.5324Z" fill="#EF492D"/>
<path d="M26.5533 27.0337C26.4681 26.9879 26.4441 26.8944 26.4005 26.8186C25.2189 24.7752 24.0413 22.7298 22.868 20.6823C22.8281 20.5985 22.763 20.5291 22.6818 20.4841C22.6006 20.439 22.5073 20.4204 22.415 20.4309C20.069 20.4382 17.724 20.4309 15.378 20.4309H15.086C15.084 20.3408 15.1167 20.2534 15.1774 20.1868C16.3689 18.1171 17.5609 16.0475 18.7536 13.9778C18.7853 13.9094 18.8376 13.8525 18.9032 13.8153C18.9688 13.778 19.0444 13.7622 19.1193 13.77C21.5208 13.7762 23.9215 13.7762 26.3215 13.77C26.3961 13.7622 26.4713 13.7781 26.5364 13.8154C26.6014 13.8527 26.6532 13.9095 26.6841 13.9778C27.8818 16.0648 29.0849 18.1489 30.2936 20.2304C30.334 20.2837 30.3567 20.3483 30.3585 20.4152C30.3604 20.4821 30.3413 20.5479 30.304 20.6034C29.0897 22.7 27.88 24.7946 26.6748 26.8871C26.6426 26.9401 26.6281 27.0128 26.5533 27.0337Z" fill="#EF492D"/>
<path d="M21.4957 5.05497C21.0656 4.62483 20.6645 4.2134 20.249 3.8082C20.1201 3.68352 20.2105 3.59105 20.2656 3.4965C20.7411 2.66842 21.5154 2.05358 22.4297 1.77803C22.9838 1.59519 23.57 1.53031 24.1507 1.58757C24.7314 1.64483 25.2936 1.82296 25.8012 2.11051C27.6714 3.12143 27.5041 5.46641 26.4247 6.52616C26.0154 6.92026 25.5518 7.25368 25.048 7.51634C24.5285 7.79267 24.009 8.0535 23.4999 8.34752C23.077 8.58959 22.7477 8.92415 22.5949 9.40829C22.5326 9.60361 22.57 9.6545 22.7789 9.65243C24.1524 9.64415 25.527 9.65243 26.9015 9.64415C27.1093 9.64415 27.1873 9.68361 27.1789 9.91012C27.1602 10.3953 27.1675 10.8815 27.1789 11.3647C27.1789 11.5185 27.1363 11.5725 26.9784 11.5725C24.7696 11.5684 22.5614 11.5684 20.3539 11.5725C20.25 11.5725 20.1533 11.5725 20.1523 11.4218C20.1523 9.89243 20.4349 8.46799 21.6318 7.3771C22.202 6.87219 22.842 6.4523 23.5321 6.13032C23.9103 5.94537 24.2926 5.76875 24.6231 5.50069C24.9119 5.26588 25.1113 4.98121 25.1322 4.59678C25.1633 3.99521 24.6874 3.54846 23.9685 3.5017C22.9347 3.42793 22.1887 3.8934 21.6671 4.75782C21.6152 4.84302 21.5674 4.9303 21.4957 5.05497Z" fill="#EF492D"/>
<path d="M56.7431 3.09127C56.9309 2.5132 57.7487 2.5132 57.9366 3.09127L58.7486 5.59027C58.8325 5.84879 59.0735 6.02383 59.3453 6.02383H61.9729C62.5807 6.02383 62.8335 6.80161 62.3417 7.15888L60.2159 8.70335C59.996 8.86316 59.904 9.14633 59.988 9.4049L60.8 11.9039C60.9878 12.4819 60.3262 12.9627 59.8344 12.6054L57.7086 11.0609C57.4887 10.9011 57.1909 10.9011 56.971 11.0609L54.8453 12.6054C54.3535 12.9627 53.6919 12.4819 53.8797 11.9039L54.6917 9.4049C54.7757 9.14633 54.6836 8.86316 54.4638 8.70335L52.338 7.15888C51.8462 6.80161 52.099 6.02383 52.7068 6.02383H55.3344C55.6062 6.02383 55.8471 5.84879 55.9311 5.59027L56.7431 3.09127Z" fill="#EF492D"/>
<path d="M73.0554 3.09127C73.2437 2.5132 74.0613 2.5132 74.2489 3.09127L75.0608 5.59027C75.1449 5.84879 75.3858 6.02383 75.6575 6.02383H78.2853C78.8933 6.02383 79.1461 6.80161 78.6542 7.15888L76.5284 8.70335C76.3088 8.86316 76.2166 9.14633 76.3006 9.4049L77.1126 11.9039C77.3002 12.4819 76.6388 12.9627 76.1469 12.6054L74.0211 11.0609C73.8015 10.9011 73.5034 10.9011 73.2832 11.0609L71.1574 12.6054C70.6661 12.9627 70.0042 12.4819 70.1924 11.9039L71.0043 9.4049C71.0884 9.14633 70.9962 8.86316 70.7759 8.70335L68.6501 7.15888C68.1588 6.80161 68.4117 6.02383 69.0191 6.02383H71.6468C71.9185 6.02383 72.1595 5.84879 72.2435 5.59027L73.0554 3.09127Z" fill="#EF492D"/>
<path d="M89.3699 3.09127C89.5581 2.5132 90.3757 2.5132 90.5633 3.09127L91.3752 5.59027C91.4593 5.84879 91.7003 6.02383 91.9719 6.02383H94.5997C95.2077 6.02383 95.4606 6.80161 94.9686 7.15888L92.8428 8.70335C92.6232 8.86316 92.531 9.14633 92.6151 9.4049L93.427 11.9039C93.6146 12.4819 92.9533 12.9627 92.4614 12.6054L90.3356 11.0609C90.1159 10.9011 89.8179 10.9011 89.5977 11.0609L87.4719 12.6054C86.9806 12.9627 86.3186 12.4819 86.5068 11.9039L87.3188 9.4049C87.4028 9.14633 87.3106 8.86316 87.0904 8.70335L84.9646 7.15888C84.4733 6.80161 84.7261 6.02383 85.3335 6.02383H87.9613C88.233 6.02383 88.4739 5.84879 88.558 5.59027L89.3699 3.09127Z" fill="#EF492D"/>
<path d="M105.684 3.09127C105.873 2.5132 106.69 2.5132 106.878 3.09127L107.69 5.59027C107.774 5.84879 108.015 6.02383 108.286 6.02383H110.914C111.522 6.02383 111.775 6.80161 111.283 7.15888L109.157 8.70335C108.938 8.86316 108.845 9.14633 108.93 9.4049L109.741 11.9039C109.929 12.4819 109.268 12.9627 108.776 12.6054L106.65 11.0609C106.43 10.9011 106.132 10.9011 105.912 11.0609L103.786 12.6054C103.295 12.9627 102.633 12.4819 102.821 11.9039L103.633 9.4049C103.717 9.14633 103.625 8.86316 103.405 8.70335L101.279 7.15888C100.788 6.80161 101.041 6.02383 101.648 6.02383H104.276C104.547 6.02383 104.788 5.84879 104.872 5.59027L105.684 3.09127Z" fill="#EF492D"/>
<path d="M121.997 3.09127C122.185 2.5132 123.003 2.5132 123.19 3.09127L124.002 5.59027C124.086 5.84879 124.327 6.02383 124.599 6.02383H127.227C127.835 6.02383 128.088 6.80161 127.596 7.15888L125.47 8.70335C125.25 8.86316 125.158 9.14633 125.242 9.4049L126.054 11.9039C126.242 12.4819 125.58 12.9627 125.088 12.6054L122.963 11.0609C122.743 10.9011 122.445 10.9011 122.225 11.0609L120.099 12.6054C119.608 12.9627 118.946 12.4819 119.134 11.9039L119.946 9.4049C120.03 9.14633 119.938 8.86316 119.717 8.70335L117.592 7.15888C117.1 6.80161 117.353 6.02383 117.96 6.02383H120.588C120.86 6.02383 121.101 5.84879 121.185 5.59027L121.997 3.09127Z" fill="#EF492D"/>
<path d="M56.8505 20.9548V21.9971H54.3469V28.8629H53.2494V21.9971H50.7402V20.9548H56.8505ZM59.1722 23.2379C59.698 23.2379 60.1777 23.3647 60.6115 23.6184C61.0454 23.8684 61.3873 24.214 61.6373 24.6552C61.891 25.0964 62.0179 25.5835 62.0179 26.1165C62.0179 26.9217 61.7421 27.6 61.1906 28.1515C60.6428 28.6993 59.97 28.9732 59.1722 28.9732C58.6465 28.9732 58.1649 28.8482 57.7274 28.5982C57.2936 28.3482 56.9516 28.0044 56.7016 27.567C56.4517 27.1294 56.3266 26.646 56.3266 26.1165C56.3266 25.3041 56.6006 24.6221 57.1483 24.0706C57.6962 23.5155 58.3708 23.2379 59.1722 23.2379ZM59.1722 24.2306C58.6538 24.2306 58.2182 24.4107 57.8653 24.771C57.516 25.1313 57.3413 25.5798 57.3413 26.1165C57.3413 26.6423 57.516 27.0853 57.8653 27.4456C58.2182 27.8023 58.6538 27.9806 59.1722 27.9806C59.6869 27.9806 60.1208 27.8004 60.4737 27.4401C60.8266 27.0798 61.0031 26.6386 61.0031 26.1165C61.0031 25.5798 60.8266 25.1313 60.4737 24.771C60.1208 24.4107 59.6869 24.2306 59.1722 24.2306ZM66.3082 23.2379C66.8007 23.2379 67.2531 23.3647 67.6647 23.6184C68.077 23.8721 68.402 24.2195 68.641 24.6607C68.8801 25.1019 68.9993 25.5835 68.9993 26.1056C68.9993 26.6276 68.8801 27.1092 68.641 27.5504C68.402 27.9916 68.077 28.339 67.6647 28.5927C67.2531 28.8463 66.8007 28.9732 66.3082 28.9732C65.8338 28.9732 65.4184 28.8684 65.0621 28.6589C64.7088 28.4456 64.4296 28.1442 64.2238 27.7544V30.8592H63.1703V23.3537H64.2238V24.4566C64.4296 24.0669 64.7088 23.7673 65.0621 23.5577C65.4184 23.3445 65.8338 23.2379 66.3082 23.2379ZM66.0986 27.9806C66.6206 27.9806 67.0617 27.8004 67.4225 27.4401C67.7864 27.0761 67.9684 26.6313 67.9684 26.1056C67.9684 25.5798 67.7864 25.1368 67.4225 24.7765C67.0617 24.4125 66.6206 24.2306 66.0986 24.2306C65.5584 24.2306 65.1097 24.4089 64.7534 24.7655C64.4001 25.1184 64.2238 25.5651 64.2238 26.1056C64.2238 26.646 64.4001 27.0945 64.7534 27.4511C65.1097 27.8041 65.5584 27.9806 66.0986 27.9806ZM74.674 28.9732C74.0271 28.9732 73.4919 28.8115 73.0696 28.4879C72.6504 28.1644 72.4133 27.725 72.3581 27.1699H73.3563C73.389 27.442 73.5213 27.6607 73.7529 27.8262C73.9882 27.9916 74.2806 28.0743 74.6301 28.0743C74.972 28.0743 75.2456 28.0026 75.4514 27.8592C75.6578 27.7122 75.7607 27.5229 75.7607 27.2912C75.7607 27.1074 75.6999 26.9566 75.5788 26.839C75.457 26.7213 75.3008 26.6349 75.1094 26.5798C74.9187 26.521 74.7054 26.4695 74.4701 26.4254C74.2385 26.3813 74.0051 26.3298 73.7698 26.271C73.5383 26.2085 73.3268 26.1276 73.1355 26.0283C72.9441 25.9291 72.7879 25.782 72.6668 25.5872C72.5457 25.3886 72.4848 25.1478 72.4848 24.8647C72.4848 24.3905 72.6705 24.0008 73.042 23.6956C73.4128 23.3905 73.9022 23.2379 74.5083 23.2379C75.0787 23.2379 75.5675 23.3868 75.9753 23.6846C76.3838 23.9787 76.621 24.3832 76.6868 24.8978H75.6334C75.6007 24.6735 75.4771 24.4879 75.2644 24.3409C75.0548 24.1938 74.7938 24.1202 74.4813 24.1202C74.1908 24.1202 73.9537 24.1809 73.7698 24.3022C73.5897 24.4236 73.4994 24.5853 73.4994 24.7875C73.4994 24.964 73.5603 25.1074 73.6813 25.2177C73.8024 25.3243 73.9593 25.4033 74.1501 25.4548C74.3414 25.5063 74.5529 25.5522 74.7844 25.5927C75.0197 25.6331 75.2531 25.6864 75.4846 25.7526C75.7199 25.8151 75.9333 25.8996 76.1246 26.0063C76.3154 26.1129 76.4716 26.2728 76.5933 26.4861C76.7144 26.6993 76.7753 26.9603 76.7753 27.2692C76.7753 27.7581 76.5745 28.1644 76.1742 28.4879C75.7733 28.8115 75.2732 28.9732 74.674 28.9732ZM80.4371 23.2379C80.9629 23.2379 81.4423 23.3647 81.8765 23.6184C82.3101 23.8684 82.652 24.214 82.9017 24.6552C83.1559 25.0964 83.2826 25.5835 83.2826 26.1165C83.2826 26.9217 83.0065 27.6 82.4556 28.1515C81.9072 28.6993 81.2346 28.9732 80.4371 28.9732C79.9113 28.9732 79.4294 28.8482 78.9921 28.5982C78.5585 28.3482 78.2166 28.0044 77.9662 27.567C77.7165 27.1294 77.5916 26.646 77.5916 26.1165C77.5916 25.3041 77.8652 24.6221 78.413 24.0706C78.9607 23.5155 79.6352 23.2379 80.4371 23.2379ZM80.4371 24.2306C79.9188 24.2306 79.4828 24.4107 79.1301 24.771C78.7806 25.1313 78.6062 25.5798 78.6062 26.1165C78.6062 26.6423 78.7806 27.0853 79.1301 27.4456C79.4828 27.8023 79.9188 27.9806 80.4371 27.9806C80.9516 27.9806 81.3852 27.8004 81.7384 27.4401C82.0911 27.0798 82.268 26.6386 82.268 26.1165C82.268 25.5798 82.0911 25.1313 81.7384 24.771C81.3852 24.4107 80.9516 24.2306 80.4371 24.2306ZM87.2142 21.76C86.4757 21.76 86.1061 22.1092 86.1061 22.8077V23.3537H87.6064V24.3464H86.1061V28.8629H85.0696V24.3464H83.9941V23.3537H85.0696V22.7967C85.0696 22.1386 85.2421 21.6386 85.5879 21.2967C85.933 20.9511 86.4035 20.7783 86.9996 20.7783C87.2199 20.7783 87.4225 20.8004 87.6064 20.8445V21.8041C87.4922 21.7746 87.3617 21.76 87.2142 21.76ZM91.6208 24.3464H90.1319V26.8886C90.1319 27.5945 90.4995 27.9474 91.2349 27.9474C91.393 27.9474 91.5217 27.9328 91.6208 27.9033V28.8629C91.4514 28.907 91.2512 28.9291 91.0197 28.9291C90.4242 28.9291 89.9537 28.7581 89.6079 28.4162C89.2622 28.0706 89.0897 27.5688 89.0897 26.9107V24.3464H88.0199V23.3537H89.0897V21.8592H90.1319V23.3537H91.6208V24.3464ZM94.1413 28.8629L92.1447 23.3537H93.2478L94.5711 27.3022L95.9828 23.3537H96.8324L98.2661 27.3022L99.5731 23.3537H100.692L98.6853 28.8629H97.847L96.4133 24.9088L94.9683 28.8629H94.1413ZM105.849 23.3537H106.891V28.8629H105.849V27.7324C105.643 28.1331 105.361 28.4401 105.005 28.6533C104.649 28.8666 104.229 28.9732 103.748 28.9732C103.005 28.9732 102.373 28.6956 101.851 28.1405C101.332 27.5816 101.073 26.9034 101.073 26.1056C101.073 25.3078 101.332 24.6313 101.851 24.0761C102.373 23.5173 103.005 23.2379 103.748 23.2379C104.229 23.2379 104.649 23.3445 105.005 23.5577C105.361 23.771 105.643 24.078 105.849 24.4787V23.3537ZM103.963 27.9806C104.507 27.9806 104.957 27.8041 105.314 27.4511C105.671 27.0982 105.849 26.6497 105.849 26.1056C105.849 25.5614 105.671 25.1129 105.314 24.7599C104.957 24.407 104.507 24.2306 103.963 24.2306C103.441 24.2306 102.998 24.4125 102.634 24.7765C102.27 25.1405 102.088 25.5835 102.088 26.1056C102.088 26.6276 102.27 27.0706 102.634 27.4346C102.998 27.7986 103.441 27.9806 103.963 27.9806ZM110.9 23.2489C111.077 23.2489 111.246 23.271 111.407 23.3151V24.2802C111.213 24.2177 111.032 24.1864 110.867 24.1864C110.444 24.1864 110.091 24.3316 109.808 24.6221C109.529 24.9088 109.389 25.2876 109.389 25.7581V28.8629H108.336V23.3537H109.389V24.1533C109.555 23.8703 109.768 23.6497 110.029 23.4916C110.29 23.3298 110.58 23.2489 110.9 23.2489ZM117.149 25.9732C117.149 26.1313 117.141 26.2691 117.126 26.3868H112.698C112.76 26.8904 112.954 27.2912 113.277 27.589C113.604 27.8868 114.021 28.0357 114.529 28.0357C114.915 28.0357 115.247 27.9493 115.527 27.7765C115.807 27.6 115.981 27.3666 116.051 27.0761H117.093C116.991 27.6497 116.7 28.1092 116.222 28.4548C115.744 28.8004 115.168 28.9732 114.496 28.9732C113.695 28.9732 113.023 28.6974 112.483 28.146C111.943 27.5909 111.672 26.9034 111.672 26.0835C111.672 25.5614 111.795 25.0835 112.042 24.6497C112.288 24.2122 112.626 23.8684 113.056 23.6184C113.49 23.3647 113.966 23.2379 114.484 23.2379C115.231 23.2379 115.862 23.4971 116.376 24.0155C116.891 24.5339 117.149 25.1864 117.149 25.9732ZM112.731 25.5099H116.018C115.973 25.1203 115.807 24.8022 115.516 24.5559C115.229 24.3096 114.871 24.1864 114.441 24.1864C114.007 24.1864 113.637 24.3041 113.332 24.5394C113.027 24.7747 112.827 25.0982 112.731 25.5099Z" fill="#65816D"/>
</g>
<defs>
<clipPath id="clip0_1716_13633">
<rect width="129.882" height="32" fill="white" transform="translate(0.138672)"/>
</clipPath>
</defs>
</svg>
