<svg width="68" height="60" viewBox="0 0 68 60" fill="none" xmlns="http://www.w3.org/2000/svg">
<path d="M31.5438 24.1641C28.498 24.1641 26.0166 26.6454 26.0166 29.6806C26.0166 32.7264 28.498 35.2077 31.5438 35.2077C34.5896 35.2077 37.0603 32.7264 37.0603 29.6806C37.0603 26.6454 34.5789 24.1641 31.5438 24.1641ZM31.5438 33.6209C29.3712 33.6209 27.614 31.8531 27.614 29.6912C27.614 27.5293 29.3819 25.7722 31.5438 25.7722C33.7056 25.7722 35.4628 27.5293 35.4628 29.6912C35.4628 31.8531 33.7056 33.6209 31.5438 33.6209Z" fill="#E5361D"/>
<path d="M41.3523 34.9734C41.7144 34.3025 42.0019 33.5996 42.2149 32.8861L44.5046 32.3323C44.8667 32.2471 45.1116 31.9276 45.1116 31.5549V27.8062C45.1116 27.4335 44.856 27.114 44.5046 27.0288L42.2149 26.475C42.0019 25.7615 41.7144 25.0693 41.3523 24.3877L42.577 22.3855C42.7687 22.0767 42.7261 21.6614 42.4599 21.4058L39.8081 18.754C39.5419 18.4878 39.1372 18.4452 38.8283 18.6369L36.8156 19.8616C36.1446 19.4995 35.4524 19.212 34.7389 18.999L34.1851 16.7199C34.0999 16.3579 33.7804 16.1129 33.4077 16.1129H29.659C29.2863 16.1129 28.9668 16.3685 28.8816 16.7199L28.3278 18.999C27.6036 19.2226 26.9008 19.5101 26.2405 19.8616L24.2384 18.6369C23.9295 18.4452 23.5142 18.4878 23.2586 18.754L20.5962 21.4058C20.3299 21.672 20.2873 22.0767 20.479 22.3855L21.7144 24.3877C21.363 25.048 21.0648 25.7402 20.8518 26.475L18.5621 27.0288C18.2 27.114 17.9551 27.4335 17.9551 27.8062V31.5549C17.9551 31.9276 18.2107 32.2471 18.5621 32.3323L20.8518 32.8861C21.0754 33.6209 21.363 34.3131 21.7144 34.9734L20.479 36.9755C20.2873 37.295 20.3299 37.6997 20.5962 37.9553L23.2586 40.6071C23.5142 40.8627 23.9295 40.9159 24.2384 40.7242L26.2405 39.4995C26.8901 39.8509 27.593 40.1385 28.3278 40.3621L28.8816 42.6518C28.9668 43.0139 29.2863 43.2588 29.659 43.2588H33.4077C33.7804 43.2588 34.0999 43.0032 34.1851 42.6518L34.7389 40.3621C35.4737 40.1385 36.1659 39.8509 36.8156 39.4995L38.8283 40.7242C39.1478 40.9159 39.5419 40.8627 39.8081 40.6071L42.4599 37.9553C42.7261 37.6891 42.7687 37.2844 42.577 36.9755L41.3523 34.9734ZM39.7442 35.41L40.8837 37.2737L39.1265 39.0309L37.2416 37.8914C36.986 37.7317 36.6665 37.7317 36.4109 37.8914C35.6441 38.36 34.7815 38.7114 33.8656 38.9457C33.5781 39.0203 33.3544 39.2439 33.2905 39.5315L32.7687 41.672H30.298L29.7868 39.5315C29.7123 39.2439 29.4886 39.0203 29.2117 38.9457C28.2852 38.7114 27.4226 38.3493 26.6558 37.8914C26.4002 37.7423 26.0807 37.7423 25.8252 37.8914L23.9508 39.0309L22.183 37.2737L23.3331 35.41C23.4929 35.1545 23.4929 34.835 23.3331 34.5794C22.8646 33.7913 22.5025 32.9393 22.2788 32.0235C22.2043 31.7359 21.9806 31.5123 21.6931 31.4484L19.5525 30.9265V28.4345L21.6931 27.9127C21.9806 27.8488 22.2043 27.6252 22.2788 27.3376C22.5131 26.4218 22.8646 25.5698 23.3331 24.7817C23.4822 24.5261 23.4822 24.2066 23.3331 23.951L22.183 22.0874L23.9508 20.3302L25.8145 21.4803C26.0701 21.6401 26.3896 21.6401 26.6345 21.4803C27.4332 21.0011 28.2959 20.6497 29.1904 20.4154C29.478 20.3408 29.7016 20.1172 29.7655 19.8296L30.2767 17.6997H32.7687L33.2905 19.8296C33.3651 20.1172 33.5781 20.3408 33.8656 20.4154C34.7495 20.639 35.6122 21.0011 36.4109 21.4803C36.6665 21.6294 36.986 21.6294 37.2309 21.4803L39.1159 20.3408L40.8731 22.098L39.7336 23.9723C39.5845 24.2279 39.5738 24.5368 39.7229 24.7924C40.2021 25.6124 40.5536 26.4644 40.7772 27.3483C40.8518 27.6358 41.0754 27.8595 41.363 27.934L43.5035 28.4558V30.9478L41.363 31.4697C41.0754 31.5442 40.8518 31.7679 40.7772 32.0554C40.5642 32.9287 40.2128 33.7913 39.7229 34.6113C39.5845 34.8456 39.5951 35.1545 39.7442 35.41Z" fill="#E5361D"/>
<path d="M67.3483 51.065L58.5943 43.5463C58.36 43.344 58.0192 43.3014 57.7423 43.4292C57.4547 43.557 57.2737 43.8445 57.2737 44.1534V46.3152H53.1842C56.8477 41.5655 58.8711 35.7295 58.8711 29.6912C58.8711 25.9638 58.1257 22.3642 56.6773 18.9776C61.6081 18.6262 65.5059 14.5154 65.5059 9.51012C65.5059 4.2705 61.246 0 55.9958 0C51.5975 0 47.902 3.0032 46.8158 7.0607C42.2897 3.98296 37.0288 2.35357 31.5229 2.35357C16.4537 2.35357 4.19595 14.6219 4.19595 29.6912C4.19595 35.7188 6.21938 41.5548 9.90415 46.3152H0.798722C0.362087 46.3152 0 46.6773 0 47.1139C0 47.5506 0.362087 47.9233 0.798722 47.9233H11.2034C14.2918 51.3632 18.147 53.9191 22.3855 55.4313H0.798722C0.362087 55.4313 0 55.7934 0 56.23C0 56.6667 0.362087 57.0288 0.798722 57.0288H31.5336H31.5548H57.2631V59.2013C57.2631 59.5101 57.4441 59.7977 57.7316 59.9254C57.8381 59.9787 57.9553 60 58.0618 60C58.2535 60 58.4345 59.9361 58.5836 59.8083L67.3376 52.279C67.5186 52.1299 67.6145 51.9063 67.6145 51.672C67.6145 51.4377 67.5186 51.2141 67.3483 51.065ZM56.0064 1.60809C60.3621 1.60809 63.9191 5.15442 63.9191 9.52077C63.9191 13.8871 60.3727 17.4334 56.0064 17.4334C51.64 17.4334 48.0937 13.8871 48.0937 9.52077C48.0937 5.15442 51.64 1.60809 56.0064 1.60809ZM58.8711 57.4547V56.2194C58.8711 55.7827 58.5091 55.4207 58.0724 55.4207H31.5336C24.1214 55.4207 17.0607 52.2045 12.1512 46.5815C8.05112 41.8956 5.7934 35.8999 5.7934 29.6912C5.7934 15.4952 17.3376 3.95101 31.5336 3.95101C36.9649 3.95101 42.1406 5.63365 46.5389 8.79659C46.5176 9.03088 46.5069 9.26518 46.5069 9.51012C46.5069 14.3876 50.1917 18.4026 54.9308 18.9457C56.4856 22.3216 57.2844 25.9318 57.2844 29.6912C57.2844 35.7827 55.1118 41.672 51.1715 46.3152H38.9563C45.3142 43.4611 49.7551 37.082 49.7551 29.6912C49.7551 19.6379 41.5761 11.459 31.5229 11.459C28.0937 11.459 24.7497 12.4281 21.853 14.2705C16.4963 17.6464 13.2907 23.4079 13.2907 29.6912C13.2907 35.9638 16.4856 41.7252 21.8424 45.1012C24.7497 46.9436 28.1044 47.9127 31.5229 47.9127H31.64H51.5123H58.0618C58.4984 47.9127 58.8605 47.5506 58.8605 47.1139V45.8892L65.5911 51.6613L58.8711 57.4547ZM31.5336 46.3152C28.4132 46.3152 25.3568 45.4313 22.705 43.7487C17.8168 40.6709 14.8988 35.41 14.8988 29.6912C14.8988 23.9617 17.8168 18.7007 22.7157 15.623C25.3568 13.9404 28.4132 13.0564 31.5336 13.0564C40.7029 13.0564 48.1683 20.5218 48.1683 29.6912C48.1683 38.8072 40.7561 46.262 31.6507 46.3152H31.5336Z" fill="#FF725E"/>
<path d="M53.9399 12.3962C54.089 12.5453 54.2914 12.6305 54.5044 12.6305C54.7174 12.6305 54.9197 12.5453 55.0688 12.3962L59.712 7.74233C60.0209 7.43349 60.0209 6.9223 59.712 6.61347C59.4032 6.30463 58.892 6.30463 58.5832 6.61347L54.5044 10.6923L53.4181 9.60601C53.1093 9.29717 52.5981 9.29717 52.2892 9.60601C51.9804 9.91485 51.9804 10.426 52.2892 10.7349L53.9399 12.3962Z" fill="#FF725E"/>
</svg>
