<svg width="30" height="31" viewBox="0 0 30 31" fill="none" xmlns="http://www.w3.org/2000/svg">
<path d="M29.87 17.6648L25.9499 13.7447C25.9088 13.7057 25.8391 13.65 25.7348 13.6258L22.6339 12.9171L23.6205 11.9553C23.9503 11.6338 24.0668 11.162 23.9245 10.7239C23.7821 10.2858 23.4105 9.97253 22.9547 9.90628L18.3654 9.23937C18.2634 9.22451 18.1752 9.16045 18.1296 9.06798L16.0772 4.90944C15.8734 4.49633 15.4606 4.23975 14.9999 4.23975C14.5393 4.23975 14.1265 4.49639 13.9227 4.90944L11.8703 9.06798C11.8247 9.16045 11.7365 9.22451 11.6344 9.23937L10.5431 9.39797C10.3004 9.43326 10.1322 9.65852 10.1675 9.90119C10.2028 10.144 10.4283 10.3126 10.6708 10.2768L11.7621 10.1182C12.1535 10.0613 12.4916 9.81564 12.6666 9.46102L14.719 5.30248C14.7968 5.14483 14.9414 5.12784 14.9999 5.12784C15.0585 5.12784 15.203 5.14483 15.2809 5.30248L17.3332 9.46102C17.5082 9.81558 17.8464 10.0613 18.2378 10.1182L22.827 10.7851C23.001 10.8104 23.0618 10.9426 23.0799 10.9983C23.0979 11.054 23.1265 11.1968 23.0006 11.3194L19.6798 14.5564C19.5415 14.6912 19.4397 14.8545 19.3796 15.0332L14.9999 16.0343L10.62 15.0332C10.56 14.8546 10.4585 14.6914 10.32 14.5564L6.99927 11.3194C6.87341 11.1968 6.90188 11.054 6.92 10.9983C6.93812 10.9426 6.99892 10.8104 7.17291 10.7851L8.6506 10.5704C8.89327 10.5351 9.0614 10.3098 9.02612 10.0671C8.99089 9.8244 8.76586 9.65603 8.5229 9.69156L7.04521 9.90628C6.58936 9.97247 6.21774 10.2858 6.07542 10.7239C5.9331 11.162 6.04955 11.6338 6.37943 11.9554L7.36597 12.917L4.26508 13.6258C4.19267 13.654 4.19362 13.6268 4.05006 13.7447L0.130045 17.6648C0.0156069 17.7793 -0.0274922 17.9469 0.0175606 18.1023C0.0626134 18.2578 0.188655 18.3765 0.346547 18.412L3.92011 19.2163V26.945C3.92011 27.4388 4.25626 27.8604 4.73751 27.9703L7.36046 28.5699C7.39374 28.5775 7.42707 28.5811 7.45981 28.5811C7.66228 28.5811 7.84521 28.4417 7.89228 28.2359C7.94692 27.9969 7.79738 27.7588 7.55838 27.7042L4.93537 27.1046C4.86048 27.0875 4.8082 27.0219 4.8082 26.945V19.4162L11.0129 20.8127C11.0453 20.82 11.0779 20.8235 11.1104 20.8235C11.2268 20.8235 11.3402 20.7777 11.4243 20.6935L14.5561 17.5618V22.7533C14.5561 22.9985 14.7549 23.1973 15.0001 23.1973C15.2454 23.1973 15.4441 22.9985 15.4441 22.7533V17.5618L18.5758 20.6935C18.66 20.7777 18.7733 20.8235 18.8898 20.8235C18.9222 20.8235 18.955 20.82 18.9872 20.8127L21.2065 20.3131C21.4457 20.2593 21.596 20.0217 21.5422 19.7824C21.4884 19.5432 21.2507 19.3933 21.0115 19.4467L19.0308 19.8926L15.8819 16.7436L25.4956 14.5462L28.6719 17.7226L23.022 18.9942C22.7828 19.048 22.6325 19.2856 22.6863 19.5249C22.7402 19.7642 22.9779 19.9141 23.217 19.8606L25.1919 19.4161V26.945C25.1919 27.0219 25.1395 27.0875 25.0646 27.1046L15.444 29.3036V24.8252C15.444 24.58 15.2452 24.3812 15 24.3812C14.7548 24.3812 14.556 24.58 14.556 24.8252V29.3036L9.57433 28.1649C9.33551 28.1103 9.09716 28.2598 9.04252 28.4989C8.98787 28.738 9.13742 28.9761 9.37642 29.0307L14.7689 30.2632C14.8445 30.2805 14.9222 30.2891 15 30.2891C15.0777 30.2891 15.1554 30.2805 15.2308 30.2632L25.2624 27.9703C25.7437 27.8603 26.0799 27.4387 26.0799 26.945V19.2163L29.6534 18.412C29.8113 18.3764 29.9374 18.2578 29.9824 18.1023C30.0275 17.9469 29.9844 17.7793 29.87 17.6648ZM21.877 13.655L23.6432 14.0587L20.7949 14.7098L21.877 13.655ZM9.2052 14.7098L6.35675 14.0587L8.12305 13.655L9.2052 14.7098ZM10.9692 19.8926L1.32806 17.7227L4.50443 14.5463L14.1181 16.7437L10.9692 19.8926Z" fill="#6A797C"/>
<path d="M14.9997 2.7045C15.245 2.7045 15.4437 2.50576 15.4437 2.26049V0.43718C15.4437 0.191906 15.245 -0.00683594 14.9997 -0.00683594C14.7545 -0.00683594 14.5557 0.191906 14.5557 0.43718V2.26049C14.5557 2.5057 14.7545 2.7045 14.9997 2.7045Z" fill="#FF725E"/>
<path d="M18.4594 6.03395C18.5426 6.10381 18.6439 6.13785 18.7446 6.13785C18.8713 6.13785 18.9971 6.08391 19.0849 5.97919L20.2569 4.58243C20.4145 4.39458 20.39 4.11455 20.2022 3.95696C20.0142 3.79924 19.7342 3.82381 19.5767 4.01172L18.4047 5.40848C18.247 5.59633 18.2715 5.87635 18.4594 6.03395Z" fill="#FF725E"/>
<path d="M23.9072 7.92473C24.0079 7.92473 24.1092 7.89063 24.1923 7.82083L25.589 6.64887C25.7769 6.49127 25.8014 6.21118 25.6437 6.02334C25.4861 5.83549 25.2061 5.81104 25.0182 5.96863L23.6215 7.1406C23.4337 7.2982 23.4091 7.57828 23.5668 7.76613C23.6547 7.87074 23.7805 7.92473 23.9072 7.92473Z" fill="#FF725E"/>
<path d="M10.9154 5.97925C11.0033 6.08392 11.1291 6.13785 11.2558 6.13785C11.3565 6.13785 11.4578 6.10381 11.541 6.03395C11.7289 5.87636 11.7534 5.59627 11.5958 5.40842L10.4238 4.01167C10.2661 3.82382 9.986 3.79925 9.79827 3.95696C9.61042 4.11456 9.58591 4.39464 9.74351 4.58249L10.9154 5.97925Z" fill="#FF725E"/>
<path d="M4.41057 6.64891L5.80732 7.82088C5.8905 7.89074 5.9918 7.92478 6.0925 7.92478C6.21919 7.92478 6.34506 7.87085 6.43291 7.76612C6.59051 7.57827 6.566 7.29824 6.37815 7.14065L4.98139 5.96868C4.79355 5.81097 4.5134 5.83554 4.35586 6.02339C4.19821 6.21123 4.22272 6.49132 4.41057 6.64891Z" fill="#FF725E"/>
</svg>
