<svg width="30" height="36" viewBox="0 0 30 36" fill="none" xmlns="http://www.w3.org/2000/svg">
<path d="M15.0271 7.76343C9.93371 7.76343 5.77246 11.9247 5.77246 17.018C5.77246 19.6812 6.93761 22.2446 8.90172 23.9756C10.3665 25.4404 10.2333 28.5697 10.2 28.6029C10.2 28.7694 10.2333 28.9025 10.3665 29.0357C10.4663 29.1356 10.6328 29.2022 10.766 29.2022H19.2549C19.4213 29.2022 19.5545 29.1356 19.6544 29.0357C19.7542 28.9358 19.8208 28.7694 19.8208 28.6029C19.8208 28.5697 19.6544 25.4404 21.1191 23.9756C21.1524 23.9423 21.1857 23.9091 21.219 23.8758C23.1498 22.1114 24.2817 19.6147 24.2817 17.018C24.2817 11.9247 20.1204 7.76343 15.0271 7.76343ZM20.3535 23.1101C20.3202 23.1434 20.2536 23.21 20.2536 23.2433C18.9553 24.6414 18.7223 26.9384 18.689 28.037H11.3319C11.2986 26.9384 11.0656 24.5416 9.66739 23.1101C7.90302 21.5788 6.87103 19.3483 6.87103 16.9847C6.87103 12.4906 10.4996 8.862 14.9938 8.862C19.4879 8.862 23.1165 12.4906 23.1165 16.9847C23.1165 19.3483 22.1178 21.5788 20.3535 23.1101Z" fill="#6A797C"/>
<path d="M14.9937 10.127C14.6941 10.127 14.4277 10.3933 14.4277 10.6929C14.4277 10.9925 14.6941 11.2588 14.9937 11.2588C18.3559 11.2588 21.0524 13.9886 21.0524 17.3176C21.0524 17.6172 21.3188 17.8835 21.6184 17.8835C21.918 17.8835 22.1843 17.6172 22.1843 17.3176C22.2176 13.3561 18.9885 10.127 14.9937 10.127Z" fill="#6A797C"/>
<path d="M18.6889 29.8347H11.2986C10.5329 29.8347 9.90039 30.4672 9.90039 31.2329C9.90039 31.9986 10.5329 32.6311 11.2986 32.6311H18.6556C19.4546 32.5978 20.0871 31.9986 20.0871 31.2329C20.0871 30.4672 19.4546 29.8347 18.6889 29.8347ZM18.6889 31.4659H11.2986C11.1654 31.4659 11.0322 31.3661 11.0322 31.1996C11.0322 31.0332 11.1321 30.9333 11.2986 30.9333H18.6556C18.7888 30.9333 18.922 31.0332 18.922 31.1996C18.922 31.3661 18.8221 31.4659 18.6889 31.4659Z" fill="#6A797C"/>
<path d="M17.5904 33.197H12.3972C11.6315 33.197 10.999 33.8295 10.999 34.5952C10.999 35.3609 11.6315 35.9934 12.3972 35.9934H17.5904C18.3561 35.9934 18.9886 35.3609 18.9886 34.5952C18.9886 33.7962 18.3561 33.197 17.5904 33.197ZM17.5904 34.8282H12.3972C12.264 34.8282 12.1309 34.7284 12.1309 34.5619C12.1309 34.3955 12.2308 34.2956 12.3972 34.2956H17.5904C17.7236 34.2956 17.8568 34.3955 17.8568 34.5619C17.8568 34.7284 17.7236 34.8282 17.5904 34.8282Z" fill="#6A797C"/>
<path d="M14.9937 5.00033C15.3266 5.00033 15.5596 4.73401 15.5596 4.4344V0.572765C15.5596 0.273156 15.2933 0.00683594 14.9937 0.00683594C14.6941 0.00683594 14.4277 0.273156 14.4277 0.572765V4.4344C14.4277 4.73401 14.6941 5.00033 14.9937 5.00033Z" fill="#FF725E"/>
<path d="M24.4147 2.86979C24.1484 2.67005 23.8155 2.76992 23.649 3.00295L21.5185 6.19879C21.3187 6.46511 21.3853 6.8313 21.6516 6.99774C21.7515 7.06432 21.8514 7.09761 21.9513 7.09761C22.151 7.09761 22.3174 6.99774 22.4173 6.8313L24.5479 3.63546C24.7476 3.40243 24.681 3.03624 24.4147 2.86979Z" fill="#FF725E"/>
<path d="M8.23611 6.9645C8.33598 6.9645 8.43585 6.93121 8.53572 6.86463C8.80204 6.69818 8.86862 6.33199 8.70217 6.06567L6.63819 2.83654C6.47174 2.57022 6.10555 2.50364 5.83923 2.67009C5.57291 2.83654 5.50633 3.20273 5.67278 3.46905L7.73676 6.69818C7.86992 6.89792 8.03637 6.9645 8.23611 6.9645Z" fill="#FF725E"/>
<path d="M4.20814 10.4932L0.845854 8.66224C0.579534 8.52908 0.213344 8.62895 0.0801845 8.89527C-0.0862653 9.16159 0.0136045 9.52778 0.313214 9.66094L3.6755 11.4919C3.77537 11.5252 3.84195 11.5585 3.94182 11.5585C4.14156 11.5585 4.3413 11.4586 4.44117 11.2589C4.57433 10.9925 4.47446 10.6263 4.20814 10.4932Z" fill="#FF725E"/>
<path d="M29.9413 8.89527C29.8081 8.62895 29.4419 8.52908 29.1756 8.66224L25.78 10.4932C25.5137 10.6263 25.4138 10.9925 25.547 11.2589C25.6469 11.4586 25.8466 11.5585 26.0464 11.5585C26.1462 11.5585 26.2461 11.5252 26.3127 11.4919L29.7083 9.66094C29.9746 9.52778 30.0744 9.16159 29.9413 8.89527Z" fill="#FF725E"/>
</svg>
