<svg width="30" height="31" viewBox="0 0 30 31" fill="none" xmlns="http://www.w3.org/2000/svg">
<path d="M13.5 17.7419C13.5 18.0181 13.7238 18.2419 14 18.2419C14.2761 18.2419 14.5 18.0181 14.5 17.7419C14.5 16.0879 12.97 14.7209 11 14.5199V13.9919C11 13.7158 10.7761 13.4919 10.5 13.4919C10.2239 13.4919 10 13.7158 10 13.9919V14.5199C8.03 14.7199 6.5 16.0879 6.5 17.7419C6.5 19.3959 8.03 20.7629 10 20.9639V25.4579C8.5835 25.2789 7.5 24.3544 7.5 23.2419C7.5 22.9658 7.27614 22.7419 7 22.7419C6.72386 22.7419 6.5 22.9658 6.5 23.2419C6.5 24.8959 8.03 26.2629 10 26.4639V26.9919C10 27.2681 10.2239 27.4919 10.5 27.4919C10.7761 27.4919 11 27.2681 11 26.9919V26.4639C12.97 26.2639 14.5 24.8959 14.5 23.2419C14.5 21.5879 12.97 20.2209 11 20.0199V15.5259C12.4165 15.7049 13.5 16.6294 13.5 17.7419ZM7.5 17.7419C7.5 16.6294 8.5835 15.7049 10 15.5259V19.9579C8.5835 19.7789 7.5 18.8544 7.5 17.7419ZM13.5 23.2419C13.5 24.3544 12.4165 25.2789 11 25.4579V21.0259C12.4165 21.2049 13.5 22.1294 13.5 23.2419Z" fill="#FF725E"/>
<path d="M1.80003 15.5786C1.54957 15.4623 1.2523 15.5711 1.13603 15.8216C0.383495 17.4411 -0.00429918 19.2062 3.59493e-05 20.9921C3.59493e-05 27.2956 3.53253 30.492 10.5 30.492C11.9079 30.5142 13.3126 30.3523 14.6785 30.0105C14.9454 29.9396 15.1042 29.6657 15.0333 29.3988C14.9623 29.1319 14.6884 28.9731 14.4215 29.044C13.1389 29.3608 11.821 29.5114 10.5 29.492C4.10753 29.492 1.00003 26.7116 1.00003 20.9921C0.991039 19.3509 1.34749 17.7283 2.04353 16.2421C2.15937 15.9916 2.05039 15.6946 1.80003 15.5786Z" fill="#6A797C"/>
<path d="M28.5 12.9919H17.5C16.6716 12.9919 16 13.6635 16 14.4919V28.9919C16 29.8203 16.6716 30.4919 17.5 30.4919H28.5C29.3284 30.4919 30 29.8203 30 28.9919V14.4919C30 13.6635 29.3284 12.9919 28.5 12.9919ZM29 28.9919C29 29.2681 28.7761 29.4919 28.5 29.4919H17.5C17.2239 29.4919 17 29.2681 17 28.9919V14.4919C17 14.2158 17.2239 13.9919 17.5 13.9919H28.5C28.7761 13.9919 29 14.2158 29 14.4919V28.9919Z" fill="#6A797C"/>
<path d="M19.5 19.4919H26.5C27.0523 19.4919 27.5 19.0442 27.5 18.4919V16.4919C27.5 15.9397 27.0523 15.4919 26.5 15.4919H19.5C18.9477 15.4919 18.5 15.9397 18.5 16.4919V18.4919C18.5 19.0442 18.9477 19.4919 19.5 19.4919ZM19.5 16.4919H26.5V18.4919H19.5V16.4919Z" fill="#6A797C"/>
<path d="M20.5 20.9919H19C18.7239 20.9919 18.5 21.2158 18.5 21.4919C18.5 21.7681 18.7239 21.9919 19 21.9919H20.5C20.7761 21.9919 21 21.7681 21 21.4919C21 21.2158 20.7761 20.9919 20.5 20.9919Z" fill="#6A797C"/>
<path d="M20.5 22.9919H19C18.7239 22.9919 18.5 23.2158 18.5 23.4919C18.5 23.7681 18.7239 23.9919 19 23.9919H20.5C20.7761 23.9919 21 23.7681 21 23.4919C21 23.2158 20.7761 22.9919 20.5 22.9919Z" fill="#6A797C"/>
<path d="M20.5 24.9919H19C18.7239 24.9919 18.5 25.2158 18.5 25.4919C18.5 25.7681 18.7239 25.9919 19 25.9919H20.5C20.7761 25.9919 21 25.7681 21 25.4919C21 25.2158 20.7761 24.9919 20.5 24.9919Z" fill="#6A797C"/>
<path d="M20.5 26.9919H19C18.7239 26.9919 18.5 27.2158 18.5 27.4919C18.5 27.7681 18.7239 27.9919 19 27.9919H20.5C20.7761 27.9919 21 27.7681 21 27.4919C21 27.2158 20.7761 26.9919 20.5 26.9919Z" fill="#6A797C"/>
<path d="M24 20.9919H22.5C22.2239 20.9919 22 21.2158 22 21.4919C22 21.7681 22.2239 21.9919 22.5 21.9919H24C24.2761 21.9919 24.5 21.7681 24.5 21.4919C24.5 21.2158 24.2761 20.9919 24 20.9919Z" fill="#6A797C"/>
<path d="M24 22.9919H22.5C22.2239 22.9919 22 23.2158 22 23.4919C22 23.7681 22.2239 23.9919 22.5 23.9919H24C24.2761 23.9919 24.5 23.7681 24.5 23.4919C24.5 23.2158 24.2761 22.9919 24 22.9919Z" fill="#6A797C"/>
<path d="M24 24.9919H22.5C22.2239 24.9919 22 25.2158 22 25.4919C22 25.7681 22.2239 25.9919 22.5 25.9919H24C24.2761 25.9919 24.5 25.7681 24.5 25.4919C24.5 25.2158 24.2761 24.9919 24 24.9919Z" fill="#6A797C"/>
<path d="M24 26.9919H22.5C22.2239 26.9919 22 27.2158 22 27.4919C22 27.7681 22.2239 27.9919 22.5 27.9919H24C24.2761 27.9919 24.5 27.7681 24.5 27.4919C24.5 27.2158 24.2761 26.9919 24 26.9919Z" fill="#6A797C"/>
<path d="M27.5 20.9919H26C25.7239 20.9919 25.5 21.2158 25.5 21.4919C25.5 21.7681 25.7239 21.9919 26 21.9919H27.5C27.7761 21.9919 28 21.7681 28 21.4919C28 21.2158 27.7761 20.9919 27.5 20.9919Z" fill="#6A797C"/>
<path d="M27.5 22.9919H26C25.7239 22.9919 25.5 23.2158 25.5 23.4919C25.5 23.7681 25.7239 23.9919 26 23.9919H27.5C27.7761 23.9919 28 23.7681 28 23.4919C28 23.2158 27.7761 22.9919 27.5 22.9919Z" fill="#6A797C"/>
<path d="M27.5 24.9919H26C25.7239 24.9919 25.5 25.2158 25.5 25.4919C25.5 25.7681 25.7239 25.9919 26 25.9919H27.5C27.7761 25.9919 28 25.7681 28 25.4919C28 25.2158 27.7761 24.9919 27.5 24.9919Z" fill="#6A797C"/>
<path d="M27.5 26.9919H26C25.7239 26.9919 25.5 27.2158 25.5 27.4919C25.5 27.7681 25.7239 27.9919 26 27.9919H27.5C27.7761 27.9919 28 27.7681 28 27.4919C28 27.2158 27.7761 26.9919 27.5 26.9919Z" fill="#6A797C"/>
<path d="M3.16241 1.1235C1.84591 2.3295 4.15891 6.0495 5.52191 7.99199H5.24991C4.78544 7.9903 4.33955 8.17427 4.01141 8.50299C3.68439 8.83251 3.50058 9.27775 3.49991 9.74199C3.50206 10.365 3.83635 10.9397 4.37691 11.2495C3.79328 11.8668 3.24347 12.5153 2.72991 13.192C2.56423 13.4129 2.609 13.7263 2.82991 13.892C3.05083 14.0577 3.36423 14.0129 3.52991 13.792C4.14751 12.984 4.8155 12.2158 5.52991 11.492H15.7499C16.3751 11.492 16.9528 11.1584 17.2654 10.617C17.578 10.0755 17.578 9.40845 17.2654 8.86699C16.9528 8.32554 16.3751 7.99199 15.7499 7.99199H15.4779C16.8404 6.0495 19.1534 2.33 17.8379 1.1235C17.2329 0.569504 16.5279 0.973503 15.9064 1.327C15.3412 1.71405 14.6832 1.94359 13.9999 1.992C13.4575 1.99086 12.9404 1.76233 12.5744 1.362C12.0273 0.805725 11.2797 0.492432 10.4994 0.492432C9.71914 0.492432 8.97155 0.805725 8.42441 1.362C8.05782 1.76297 7.53969 1.99156 6.99641 1.992C6.31349 1.94409 5.65579 1.7145 5.09141 1.327C4.47041 0.972503 3.76591 0.570004 3.16241 1.1235ZM16.2814 9.21099C16.4965 9.42558 16.5609 9.74876 16.4445 10.0294C16.328 10.3101 16.0538 10.4927 15.7499 10.492H5.24991C4.8357 10.492 4.49991 10.1562 4.49991 9.74199C4.49991 9.32778 4.8357 8.99199 5.24991 8.99199H15.7499C15.949 8.99205 16.14 9.07076 16.2814 9.21099ZM6.99641 2.992C7.77698 2.99189 8.52479 2.67824 9.0719 2.1215C9.43708 1.72035 9.95443 1.49169 10.4969 1.49169C11.0394 1.49169 11.5567 1.72035 11.9219 2.1215C12.4697 2.67867 13.2185 2.99234 13.9999 2.992C14.8584 2.9469 15.6889 2.6716 16.4044 2.195C16.6327 2.03388 16.8909 1.92014 17.1639 1.8605C17.6769 2.3305 16.3209 5.165 14.2479 7.99199H12.9999V5.492C12.9999 5.21586 12.776 4.992 12.4999 4.992C12.2238 4.992 11.9999 5.21586 11.9999 5.492V7.99199H8.9999V5.492C8.9999 5.21586 8.77605 4.992 8.49991 4.992C8.22376 4.992 7.99991 5.21586 7.99991 5.492V7.99199H6.75391C4.68091 5.165 3.32491 2.3305 3.84491 1.853C4.11223 1.9244 4.36572 2.04 4.59491 2.195C5.30929 2.67154 6.13885 2.94685 6.99641 2.992Z" fill="#6A797C"/>
</svg>
