<svg width="141" height="120" viewBox="0 0 141 120" fill="none" xmlns="http://www.w3.org/2000/svg">
<path d="M70.1632 117.911C102.32 117.911 128.388 91.8847 128.388 59.78C128.388 27.6753 102.32 1.64929 70.1632 1.64929C38.0066 1.64929 11.9385 27.6753 11.9385 59.78C11.9385 91.8847 38.0066 117.911 70.1632 117.911Z" fill="white"/>
<path d="M70.1626 2.93108C83.3239 2.93972 96.0751 7.5113 106.244 15.867C116.413 24.2227 123.37 35.8455 125.93 48.7554C128.49 61.6653 126.495 75.0635 120.285 86.6675C114.075 98.2714 104.033 107.363 91.8715 112.394C79.7096 117.425 66.1796 118.083 53.5867 114.257C40.9938 110.431 30.117 102.357 22.8092 91.4113C15.5015 80.4652 12.215 67.324 13.5096 54.2265C14.8042 41.1291 20.5998 28.8856 29.9091 19.582C35.1874 14.2823 41.4635 10.0811 48.3748 7.2209C55.2862 4.36074 62.6957 2.89836 70.1754 2.91826M70.1754 0.354614C37.3095 0.354614 10.6689 26.9524 10.6689 59.7457C10.6689 92.539 37.2967 119.21 70.1626 119.21C103.029 119.21 129.669 92.6117 129.669 59.8184C129.669 27.0251 103.029 0.367433 70.1626 0.367433L70.1754 0.354614Z" fill="#4385F4"/>
<path d="M70.1028 114.877C100.546 114.877 125.221 90.2361 125.221 59.8398C125.221 29.4435 100.546 4.80682 70.1028 4.80682C39.6595 4.80682 14.9844 29.4477 14.9844 59.8398C14.9844 90.2318 39.6637 114.877 70.1028 114.877Z" stroke="#4385F4" stroke-width="2" stroke-miterlimit="10" stroke-dasharray="3 3"/>
<path d="M74.5 60.3397H67.749L68.9027 57.8871L69.8982 55.5884H72.355L73.3506 57.8871L74.5 60.3397Z" fill="#FF7058"/>
<path d="M78.794 60.3397H63.4548C63.0491 60.3408 62.6602 60.5022 62.3729 60.7887C62.0856 61.0752 61.9232 61.4636 61.9209 61.8693V66.8471H80.2552V61.8693C80.269 61.6707 80.2411 61.4714 80.1734 61.2842C80.1058 61.0969 79.9998 60.9259 79.8623 60.7819C79.7248 60.638 79.5587 60.5243 79.3748 60.4481C79.1908 60.372 78.993 60.335 78.794 60.3397Z" fill="#FFD15C"/>
<mask id="mask0_1716_9597" style="mask-type:luminance" maskUnits="userSpaceOnUse" x="68" y="55" width="6" height="4">
<path d="M73.3503 57.8871C72.7516 58.2037 72.137 58.4889 71.5087 58.7417L71.1242 58.8186L70.7439 58.6648C70.1153 58.4128 69.5006 58.1276 68.9023 57.8102L69.8979 55.5115H72.2735L73.3503 57.8871Z" fill="white"/>
</mask>
<g mask="url(#mask0_1716_9597)">
<path d="M75.4863 53.3751H66.7656V60.9422H75.4863V53.3751Z" fill="#F1543F"/>
</g>
<path d="M83.0917 30.0844H59.1644C58.9206 30.0877 58.6878 30.186 58.5154 30.3584C58.3431 30.5308 58.2448 30.7636 58.2415 31.0073C58.2357 31.1335 58.2552 31.2596 58.2986 31.3782C58.3421 31.4968 58.4087 31.6056 58.4945 31.6983C58.5804 31.7909 58.6839 31.8655 58.7989 31.9178C58.9139 31.9701 59.0381 31.999 59.1644 32.0029H83.0917C83.3347 31.9985 83.5665 31.8997 83.7379 31.7274C83.9094 31.5552 84.0071 31.323 84.0104 31.08C84.0161 30.9541 83.9968 30.8284 83.9536 30.71C83.9104 30.5917 83.8442 30.4831 83.7588 30.3905C83.6734 30.2979 83.5704 30.2232 83.4559 30.1707C83.3414 30.1181 83.2176 30.0888 83.0917 30.0844ZM52.7168 34.2973V37.4378C52.7294 41.0838 53.8216 44.6443 55.8558 47.6701C57.89 50.6958 60.7749 53.0513 64.1464 54.439C68.6175 56.2792 73.6344 56.2792 78.1054 54.439C81.477 53.0513 84.3618 50.6958 86.396 47.6701C88.4302 44.6443 89.5225 41.0838 89.535 37.4378V34.2973H52.7168ZM86.4715 37.4378C86.4724 40.9943 85.2231 44.4381 82.9422 47.1668C81.5008 48.9049 79.6961 50.306 77.655 51.2715C75.6139 52.2371 73.386 52.7436 71.128 52.7556C68.8679 52.7605 66.6351 52.2614 64.5921 51.2946C62.5491 50.3278 60.7475 48.9177 59.3182 47.1668C57.0558 44.4274 55.8091 40.9906 55.7889 37.4378V37.3609H86.3946V37.4378H86.4715Z" fill="#F8B64C"/>
<path d="M83.0924 32.0029V40.2706C83.0862 44.0375 81.9401 47.7143 79.8047 50.8174C77.6693 53.9206 74.6447 56.3048 71.1287 57.6564C67.6097 56.2878 64.5853 53.8894 62.4509 50.7747C60.3165 47.66 59.1713 43.9738 59.165 40.198V32.0029H83.0924Z" fill="#FFD15C"/>
<mask id="mask1_1716_9597" style="mask-type:luminance" maskUnits="userSpaceOnUse" x="59" y="32" width="25" height="2">
<path d="M83.0149 32.0029H59.1602V33.1522H83.0149V32.0029Z" fill="white"/>
</mask>
<g mask="url(#mask1_1716_9597)">
<path d="M85.1509 29.8665H57.0234V35.2886H85.1509V29.8665Z" fill="#FFC952"/>
</g>
<path d="M70.0732 40.7192C70.0732 40.7192 69.3853 40.6509 69.3853 41.2576V43.9537H73.9187V44.7612C73.9214 44.8171 73.9121 44.8729 73.8913 44.9249C73.8705 44.9768 73.8387 45.0236 73.7981 45.0622C73.7576 45.1007 73.7092 45.13 73.6562 45.1482C73.6033 45.1663 73.5471 45.1727 73.4914 45.1671H69.3896V48.6708H74.346C74.346 48.6708 77.3369 48.2136 77.3668 45.1671V40.7192H70.0732ZM77.0976 36.3525H68.2787C65.0869 37.1088 65.0186 39.7707 65.0186 39.7707V48.6922H68.4367V40.5739C68.4352 40.3811 68.499 40.1933 68.6177 40.0413C68.7363 39.8892 68.903 39.7818 69.0905 39.7365H77.1019L77.0976 36.3525Z" fill="white"/>
<path opacity="0.5" d="M42.3601 102.221L42.3131 102.191C42.3131 102.191 42.3302 102.204 42.3601 102.221ZM35.7929 96.8845L35.7587 96.8503C35.7587 96.8503 35.7716 96.8674 35.7929 96.8845ZM21.8125 61.3395V61.3139C21.8125 61.3139 21.8125 61.3267 21.8125 61.3438V61.3395ZM22.4919 53.9733C22.4919 53.9434 22.4919 53.9263 22.4919 53.9306C22.4919 53.9349 22.4876 53.952 22.4919 53.9776V53.9733Z" fill="#4385F4"/>
<g opacity="0.5">
<path d="M69.0688 104.165C64.8694 104.354 60.6675 103.852 56.6308 102.678C58.075 100.807 55.6908 98.9439 53.4049 97.1494L48.6152 93.5731C48.5596 93.6158 51.4352 96.4786 51.1788 98.9739C51.0856 99.5414 51.1016 100.121 51.2258 100.683C50.5721 100.38 49.944 100.068 49.2945 99.7344C50.9737 98.1236 49.0724 95.8163 47.2436 93.6287C45.3123 91.4196 43.364 89.2534 43.3597 89.2491C43.3554 89.2448 45.4961 92.616 44.7868 95.0728C44.596 95.6219 44.5062 96.2009 44.5219 96.7819C43.9536 96.3547 43.3982 95.953 42.8598 95.5001C44.7483 94.167 43.3725 91.535 42.0052 89.0654C40.5696 86.5573 39.087 84.1218 39.087 84.1175C39.087 84.1133 40.5311 87.7793 39.3946 90.125C39.1112 90.6431 38.9217 91.2073 38.8349 91.7914C38.3649 91.29 37.9091 90.7816 37.4676 90.266C39.4886 89.2277 38.7024 86.4205 37.8436 83.7458C36.8908 81.0326 35.8653 78.4903 35.8739 78.4519C35.8824 78.4134 36.6387 82.2632 35.1176 84.4337C34.7481 84.9056 34.4593 85.4355 34.263 86.0018C33.8984 85.4321 33.5481 84.8624 33.2119 84.2927C35.3483 83.5407 35.0877 80.6523 34.7074 77.9178C34.2417 75.1234 33.6691 72.4914 33.6691 72.4615C33.6691 72.4316 33.793 76.3069 31.9344 78.2126C31.4995 78.628 31.1332 79.1096 30.8491 79.6397C30.6825 79.2509 30.5158 78.862 30.3577 78.469C30.2381 78.1656 30.1185 77.8622 30.0074 77.5546C32.1737 77.153 32.3659 74.4141 32.4258 71.8163C32.4258 69.1629 32.2719 66.6548 32.2591 66.6292C32.2463 66.6035 31.8318 70.1884 29.7852 71.7565C29.3088 72.0888 28.889 72.4956 28.5418 72.9614C28.3282 72.141 28.1146 71.3207 27.9693 70.4917C30.1057 70.4319 30.6996 67.9281 31.1226 65.4969C31.5456 63.0657 31.6994 60.673 31.678 60.673C31.6567 60.673 30.8235 63.9074 28.6871 65.0696C28.1804 65.3235 27.7186 65.6583 27.3198 66.0609C27.2173 65.1266 27.1418 64.1909 27.0934 63.2537C29.1528 63.5015 30.0287 61.2455 30.7337 59.0536C31.1726 57.6061 31.5377 56.1372 31.8276 54.6527C31.8019 54.6527 30.6269 57.5496 28.4777 58.3443C27.9608 58.5137 27.4756 58.7678 27.0421 59.0963C27.0677 58.2632 27.1105 57.43 27.1703 56.6053C27.1703 56.4088 27.2045 56.2122 27.2173 56.02C29.0759 56.537 30.2338 54.533 31.1226 52.6018C32.0113 50.6705 32.6394 48.6238 32.6394 48.6196C32.6394 48.6153 31.1995 51.1832 29.0973 51.6404C28.6026 51.7252 28.125 51.8897 27.683 52.1275C27.8539 51.0379 28.0633 49.9527 28.3026 48.8717C29.9347 49.5339 31.2251 47.8462 32.242 46.1585C32.9206 44.9884 33.5367 43.7832 34.0878 42.548C34.0878 42.548 32.4728 44.8339 30.4859 44.9792C30.0583 44.9966 29.636 45.0802 29.234 45.227C29.5587 44.1047 29.9177 42.9824 30.3107 41.8601C31.6951 42.5651 33.0282 41.1722 34.122 39.7237C34.8878 38.6682 35.5925 37.5697 36.2328 36.4337C36.2328 36.4337 34.4895 38.4846 32.6522 38.365C32.3126 38.3362 31.9708 38.352 31.6353 38.412C32.0882 37.3239 32.571 36.2329 33.0838 35.1391L33.1735 34.9254C34.3228 35.6347 35.6517 34.4982 36.7925 33.2163C37.635 32.2439 38.4265 31.2285 39.1639 30.1741C39.1639 30.1741 37.2839 32.0456 35.6389 31.7166C35.3022 31.6346 34.9543 31.6086 34.6091 31.6397C35.7516 29.2094 37.0356 26.8482 38.4546 24.5683C36.8523 26.9183 35.4295 29.2256 34.1818 31.5115C34.0343 31.0981 33.8254 30.7092 33.5623 30.3579C33.0368 29.6486 33.0239 28.5035 33.2119 27.525C33.3301 26.9162 33.5091 26.3207 33.746 25.7476C32.8974 27.1156 32.2187 28.582 31.725 30.1143C31.0713 32.2763 31.0927 34.323 32.5796 34.5793C31.9857 35.7757 31.443 36.9763 30.9388 38.1684C30.7316 37.8353 30.4833 37.5295 30.1997 37.2583C29.5203 36.6132 29.3451 35.4681 29.375 34.4725C29.4023 33.8517 29.4969 33.2357 29.657 32.6352C28.9695 34.1045 28.4713 35.6551 28.1744 37.2498C27.8069 39.4374 28.0804 41.4798 29.5972 41.6465C29.2126 42.746 28.8609 43.8455 28.5418 44.945C28.2871 44.667 28.0003 44.4203 27.6873 44.2101C26.038 43.1547 26.3627 39.8647 26.4225 39.6169C25.9034 41.1919 25.5917 42.8279 25.4954 44.4836C25.4056 46.7396 25.9525 48.7948 27.5377 48.8118C27.5377 48.8118 27.5377 48.8118 27.5377 48.8375C27.3241 49.843 27.1361 50.8556 26.9737 51.8754C26.6691 51.6372 26.3379 51.435 25.9867 51.2729C24.111 50.4184 24.0127 47.0002 24.0426 46.731C23.7034 48.4263 23.5927 50.1593 23.7136 51.8839C23.9187 54.2425 24.7733 56.3233 26.4525 56.1011C26.3755 57.0497 26.3214 57.9982 26.2901 58.9468C25.9315 58.729 25.5486 58.5541 25.1493 58.4255C23.1112 57.7974 22.5215 54.4262 22.4916 54.0032C22.3679 55.8068 22.4858 57.6188 22.842 59.3912C23.3462 61.8266 24.628 63.9715 26.3414 63.4332C26.3869 64.3048 26.4582 65.1765 26.555 66.0481C26.1316 65.847 25.6833 65.7033 25.2219 65.6208C22.9616 65.2491 21.8721 61.6771 21.8037 61.3481C21.9218 63.2815 22.3057 65.1894 22.9445 67.018C23.8418 69.5517 25.5338 71.6753 27.2814 70.7438C27.448 71.5386 27.6317 72.3333 27.8411 73.1238C27.3397 72.9594 26.8175 72.8673 26.2901 72.8503C23.8204 72.7819 22.137 69.0305 22.0814 68.7997C22.4881 70.8357 23.1815 72.8036 24.1409 74.6449C25.5039 77.2384 27.6616 79.2722 29.3622 77.8921C29.6271 78.5929 29.912 79.2865 30.2167 79.973C29.6459 79.8588 29.061 79.8315 28.482 79.8918C25.8543 80.1823 23.4615 76.3625 23.4359 76.2215C24.1779 78.3196 25.2261 80.2965 26.5465 82.088C28.4265 84.6516 31.0798 86.4932 32.618 84.6943C32.9598 85.264 33.3159 85.8337 33.6862 86.4034C33.1019 86.37 32.5159 86.4233 31.9472 86.5615C29.328 87.2281 26.2602 83.6262 26.3115 83.5706C27.3825 85.5785 28.7591 87.4077 30.3919 88.9927C32.7078 91.2786 35.6859 92.7228 36.9249 90.7018C37.3522 91.2231 37.835 91.7401 38.3136 92.2443C37.7271 92.2951 37.1512 92.4318 36.6045 92.6502C34.1818 93.6842 30.7637 90.924 30.4389 90.5822C31.869 92.41 33.5624 94.0155 35.4637 95.3463C38.2538 97.2776 41.4797 98.1663 42.3855 96.0427C42.9353 96.4928 43.505 96.9201 44.0946 97.3246C43.4953 97.464 42.9196 97.6899 42.3855 97.9954C40.1466 99.3285 36.19 97.1622 35.7884 96.8674C37.5642 98.4489 39.5641 99.7592 41.7232 100.756C44.9064 102.204 48.3631 102.52 48.8972 100.328C49.5381 100.67 50.179 100.991 50.8626 101.298C50.2927 101.532 49.759 101.846 49.2775 102.23C47.2479 103.9 42.8683 102.452 42.3556 102.23C44.4631 103.496 46.7489 104.438 49.1364 105.024C52.6358 105.879 56.2249 105.562 56.4001 103.366C60.4903 104.565 64.7516 105.073 69.009 104.87L69.0688 104.165Z" fill="#4385F4"/>
</g>
<path d="M86.7371 94.0004C86.8451 93.8566 86.9009 93.6802 86.8952 93.5005C86.8952 93.4663 86.8952 93.4022 86.8952 93.3039C86.8952 93.2056 86.8952 93.1373 86.8952 93.1031C86.9007 92.9227 86.8433 92.7459 86.7328 92.6032C86.6799 92.5434 86.6136 92.4968 86.5394 92.4671C86.4653 92.4374 86.3852 92.4255 86.3056 92.4323C86.226 92.4262 86.1461 92.4384 86.072 92.468C85.998 92.4977 85.9317 92.5439 85.8783 92.6032C85.7693 92.7465 85.7134 92.9232 85.7202 93.1031V93.3039V93.5005C85.7139 93.681 85.7714 93.858 85.8826 94.0004C85.9367 94.0584 86.0033 94.1035 86.0772 94.1323C86.1512 94.1612 86.2307 94.173 86.3098 94.167C86.389 94.1733 86.4686 94.1616 86.5426 94.1328C86.6166 94.1039 86.6831 94.0586 86.7371 94.0004ZM85.3869 94.3807C85.2742 94.2687 85.1848 94.1356 85.124 93.9889C85.0631 93.8422 85.0319 93.6849 85.0323 93.5261V93.0775C85.032 92.9183 85.0636 92.7606 85.1253 92.6139C85.1869 92.4671 85.2773 92.3342 85.3912 92.2229C85.6584 92.0235 85.9828 91.9158 86.3162 91.9158C86.6496 91.9158 86.9741 92.0235 87.2413 92.2229C87.3551 92.3342 87.4456 92.4671 87.5072 92.6139C87.5688 92.7606 87.6005 92.9183 87.6002 93.0775C87.6002 93.1159 87.6002 93.1928 87.6002 93.3039C87.6002 93.415 87.6002 93.4876 87.6002 93.5261C87.6015 93.6851 87.5708 93.8426 87.5098 93.9895C87.4489 94.1363 87.359 94.2693 87.2456 94.3807C86.9768 94.5801 86.6509 94.6878 86.3162 94.6878C85.9815 94.6878 85.6557 94.5801 85.3869 94.3807ZM82.4558 94.3807C82.3421 94.2695 82.2521 94.1365 82.1912 93.9896C82.1302 93.8428 82.0996 93.6851 82.1012 93.5261V93.321V93.1159C82.1004 92.957 82.1313 92.7996 82.1922 92.6528C82.2531 92.5061 82.3427 92.373 82.4558 92.2614C82.705 92.0453 83.0279 91.9336 83.3574 91.9495C83.5931 91.9425 83.8272 91.9908 84.041 92.0905C84.2109 92.1691 84.3579 92.2897 84.4683 92.4408C84.551 92.5581 84.6011 92.6952 84.6135 92.8382C84.6152 92.8548 84.613 92.8715 84.6071 92.8871C84.6012 92.9027 84.5917 92.9167 84.5794 92.9279C84.5546 92.9498 84.5227 92.9619 84.4896 92.9621H84.0367C84.0089 92.9707 83.9791 92.9707 83.9513 92.9621C83.9286 92.9374 83.9111 92.9083 83.9 92.8766C83.8621 92.765 83.7923 92.667 83.6992 92.5946C83.6039 92.5334 83.4918 92.5035 83.3787 92.5092C83.2997 92.5003 83.2198 92.5104 83.1454 92.5387C83.0711 92.5669 83.0046 92.6125 82.9515 92.6716C82.8422 92.8163 82.7863 92.9945 82.7934 93.1757V93.5346C82.8162 93.979 83.0041 94.2012 83.3574 94.2012C83.4717 94.2053 83.5846 94.1756 83.6821 94.1157C83.7745 94.0419 83.8429 93.9422 83.8786 93.8295C83.8891 93.7987 83.9066 93.7709 83.9299 93.7483C83.954 93.729 83.9846 93.7199 84.0154 93.7227H84.4683C84.5013 93.7228 84.5332 93.735 84.558 93.7568C84.5703 93.7681 84.5798 93.7821 84.5857 93.7976C84.5917 93.8132 84.5939 93.83 84.5922 93.8466C84.5792 93.9848 84.5306 94.1173 84.4512 94.2311C84.3431 94.3865 84.1956 94.5104 84.0239 94.59C83.8087 94.6952 83.5712 94.7465 83.3317 94.7396C83.0088 94.7362 82.699 94.6111 82.4644 94.3892L82.4558 94.3807ZM80.8877 94.6071C80.8767 94.5958 80.8679 94.5825 80.8621 94.5678C80.8562 94.5531 80.8533 94.5374 80.8535 94.5217V94.0004C80.8523 93.9838 80.8546 93.9671 80.8604 93.9515C80.8661 93.9359 80.8752 93.9217 80.887 93.9099C80.8988 93.8981 80.9129 93.8891 80.9285 93.8833C80.9442 93.8775 80.9608 93.8752 80.9774 93.8765H81.4944C81.5102 93.8762 81.5259 93.8791 81.5406 93.885C81.5553 93.8909 81.5686 93.8996 81.5799 93.9106C81.592 93.9222 81.6017 93.9361 81.6083 93.9516C81.6149 93.967 81.6184 93.9836 81.6184 94.0004V94.5174C81.6186 94.5332 81.6157 94.5489 81.6098 94.5635C81.6039 94.5782 81.5952 94.5916 81.5842 94.6028C81.5731 94.6157 81.5593 94.6258 81.5438 94.6324C81.5282 94.6391 81.5113 94.6421 81.4944 94.6413H80.9774C80.9595 94.6448 80.941 94.6444 80.9233 94.64C80.9056 94.6355 80.889 94.6272 80.8749 94.6157L80.8877 94.6071ZM78.5163 94.5772C78.3674 94.5172 78.2343 94.4236 78.1275 94.3037C78.0578 94.2301 78.0142 94.1355 78.0036 94.0346C78.0024 94.0197 78.0044 94.0047 78.0096 93.9907C78.0148 93.9766 78.0229 93.9639 78.0335 93.9534C78.0555 93.9324 78.0844 93.9203 78.1147 93.9192H78.542C78.5566 93.9202 78.5707 93.9245 78.5834 93.932C78.596 93.9394 78.6067 93.9496 78.6146 93.9619L78.73 94.0602C78.8587 94.169 79.0229 94.2268 79.1914 94.2226C79.3074 94.2276 79.4226 94.201 79.5247 94.1456C79.5647 94.1221 79.5976 94.0883 79.6202 94.0477C79.6427 94.0071 79.654 93.9613 79.6529 93.9149C79.655 93.8538 79.6336 93.7941 79.5931 93.7483C79.5333 93.694 79.4615 93.6545 79.3837 93.6329C79.2339 93.5825 79.0813 93.5411 78.9265 93.509C78.6913 93.4746 78.4699 93.3772 78.2856 93.227C78.2158 93.1644 78.1609 93.0871 78.1247 93.0006C78.0885 92.9142 78.0719 92.8207 78.0763 92.7271C78.0778 92.588 78.121 92.4526 78.2002 92.3383C78.2941 92.2089 78.421 92.1071 78.5676 92.0435C78.7503 91.9622 78.9488 91.9228 79.1487 91.9281C79.3533 91.9224 79.5569 91.9587 79.7469 92.0349C79.8928 92.0943 80.024 92.1847 80.1314 92.2998C80.2045 92.3734 80.2498 92.4701 80.2596 92.5733C80.2602 92.5875 80.2579 92.6016 80.2527 92.6149C80.2476 92.6281 80.2398 92.6401 80.2297 92.6502C80.2194 92.6613 80.2068 92.6701 80.1928 92.676C80.1788 92.6819 80.1637 92.6848 80.1485 92.6844H79.764C79.7477 92.6856 79.7313 92.6827 79.7164 92.676C79.7015 92.6693 79.6884 92.6589 79.6785 92.6459C79.638 92.6156 79.5995 92.5828 79.5632 92.5476C79.5085 92.504 79.4481 92.4681 79.3837 92.4408C79.3094 92.4096 79.2292 92.395 79.1487 92.3981C79.0452 92.3889 78.9419 92.4178 78.8582 92.4793C78.8253 92.5051 78.799 92.5383 78.7812 92.5761C78.7634 92.6139 78.7546 92.6554 78.7556 92.6972C78.7527 92.7524 78.7693 92.8069 78.8026 92.851C78.8588 92.9035 78.9259 92.9429 78.9992 92.9664C79.1387 93.0127 79.2815 93.0484 79.4264 93.0732C80.0417 93.1928 80.3494 93.462 80.3494 93.8807C80.3504 93.9977 80.322 94.113 80.2667 94.216C80.2114 94.3191 80.1311 94.4065 80.0332 94.4704C79.7703 94.6351 79.4627 94.7142 79.153 94.6968C78.9311 94.7056 78.7099 94.6677 78.5035 94.5857L78.5163 94.5772ZM73.5557 94.6071C73.5446 94.5958 73.5359 94.5825 73.5301 94.5678C73.5242 94.5531 73.5213 94.5374 73.5215 94.5217V92.099C73.5217 92.0659 73.5338 92.0341 73.5557 92.0093C73.5809 91.9886 73.6128 91.978 73.6454 91.9794H74.0471C74.0633 91.978 74.0796 91.9799 74.095 91.9851C74.1104 91.9902 74.1246 91.9985 74.1368 92.0093C74.1484 92.0211 74.1574 92.0351 74.1633 92.0506C74.1692 92.066 74.1718 92.0825 74.171 92.099V92.2913C74.2587 92.1789 74.3718 92.089 74.5011 92.0288C74.6303 91.9686 74.772 91.94 74.9144 91.9452C75.0772 91.9315 75.2402 91.9674 75.3821 92.0483C75.524 92.1291 75.638 92.2511 75.7092 92.3981C75.7951 92.2597 75.916 92.1462 76.0595 92.0691C76.208 91.9853 76.3761 91.9426 76.5466 91.9452C76.675 91.9411 76.8029 91.9646 76.9215 92.0139C77.0402 92.0633 77.1469 92.1375 77.2345 92.2315C77.4248 92.4658 77.5194 92.7634 77.4994 93.0646V94.5387C77.4997 94.5545 77.4968 94.5702 77.4909 94.5849C77.485 94.5996 77.4763 94.6129 77.4653 94.6242C77.4542 94.637 77.4404 94.6471 77.4248 94.6538C77.4093 94.6605 77.3924 94.6635 77.3755 94.6627H76.9482C76.9315 94.6627 76.9149 94.6592 76.8994 94.6526C76.884 94.646 76.8701 94.6364 76.8585 94.6242C76.8475 94.6129 76.8387 94.5996 76.8329 94.5849C76.827 94.5702 76.8241 94.5545 76.8243 94.5387V93.1074C76.8389 92.9405 76.7901 92.7742 76.6876 92.6416C76.6425 92.5932 76.5875 92.5551 76.5262 92.5301C76.465 92.505 76.3991 92.4935 76.333 92.4964C76.2691 92.4958 76.2058 92.5085 76.147 92.5335C76.0882 92.5585 76.0351 92.5953 75.9912 92.6416C75.886 92.773 75.8355 92.9398 75.8502 93.1074V94.5387C75.8504 94.5545 75.8475 94.5702 75.8416 94.5849C75.8357 94.5996 75.827 94.6129 75.816 94.6242C75.8049 94.637 75.7911 94.6471 75.7756 94.6538C75.76 94.6605 75.7431 94.6635 75.7262 94.6627H75.299C75.2668 94.6606 75.2364 94.6469 75.2136 94.6241C75.1908 94.6013 75.1771 94.5709 75.1751 94.5387V93.1074C75.1909 92.9403 75.142 92.7736 75.0383 92.6416C74.9924 92.5943 74.9372 92.557 74.8762 92.532C74.8152 92.507 74.7496 92.4948 74.6837 92.4964C74.6198 92.4961 74.5566 92.5088 74.4978 92.5338C74.4391 92.5588 74.386 92.5955 74.3419 92.6416C74.2367 92.773 74.1862 92.9398 74.2009 93.1074V94.5387C74.2019 94.5543 74.1998 94.5698 74.1947 94.5845C74.1895 94.5992 74.1815 94.6127 74.171 94.6242C74.1594 94.6364 74.1455 94.646 74.13 94.6526C74.1146 94.6592 74.098 94.6627 74.0812 94.6627H73.654C73.633 94.6649 73.6118 94.6618 73.5923 94.6536C73.5729 94.6454 73.5558 94.6323 73.5429 94.6157L73.5557 94.6071ZM71.4193 94.6071C71.4083 94.5958 71.3995 94.5825 71.3937 94.5678C71.3878 94.5531 71.3849 94.5374 71.3851 94.5217V92.1076C71.3847 92.0731 71.3968 92.0397 71.4193 92.0136C71.4311 92.002 71.4452 91.9929 71.4606 91.9871C71.476 91.9812 71.4925 91.9786 71.509 91.9794H71.9363C71.9535 91.9782 71.9707 91.9807 71.9869 91.9866C72.0031 91.9924 72.0179 92.0016 72.0303 92.0136C72.0528 92.0397 72.065 92.0731 72.0645 92.1076V92.3169C72.15 92.2037 72.2624 92.1136 72.3914 92.0547C72.5205 91.9957 72.6621 91.9699 72.8037 91.9794H73.0173C73.0335 91.978 73.0498 91.9799 73.0653 91.9851C73.0807 91.9902 73.0949 91.9985 73.1071 92.0093C73.1186 92.0211 73.1277 92.0351 73.1335 92.0506C73.1394 92.066 73.142 92.0825 73.1412 92.099V92.475C73.1426 92.4909 73.1402 92.5069 73.1343 92.5218C73.1283 92.5366 73.119 92.5499 73.1071 92.5605C73.096 92.5733 73.0822 92.5834 73.0666 92.5901C73.0511 92.5967 73.0342 92.5998 73.0173 92.5989H72.6157C72.5464 92.595 72.477 92.6051 72.4116 92.6286C72.3463 92.6521 72.2864 92.6885 72.2354 92.7356C72.1871 92.786 72.1496 92.8457 72.1254 92.9111C72.1011 92.9765 72.0906 93.0462 72.0944 93.1159V94.5217C72.0958 94.5376 72.0934 94.5536 72.0874 94.5684C72.0815 94.5833 72.0722 94.5965 72.0602 94.6071C72.0495 94.6191 72.0363 94.6288 72.0216 94.6354C72.0069 94.642 71.9909 94.6455 71.9748 94.6456H71.4834C71.4507 94.6478 71.4185 94.6371 71.3937 94.6157L71.4193 94.6071ZM68.548 94.6071C68.537 94.5958 68.5283 94.5825 68.5224 94.5678C68.5165 94.5531 68.5136 94.5374 68.5139 94.5217V92.5263H68.0866C68.07 92.5276 68.0533 92.5252 68.0377 92.5195C68.0221 92.5137 68.0079 92.5046 67.9961 92.4928C67.9843 92.4811 67.9753 92.4669 67.9695 92.4513C67.9637 92.4357 67.9614 92.419 67.9627 92.4024V92.099C67.9631 92.0673 67.9753 92.0368 67.9968 92.0136C68.0086 92.002 68.0227 91.9929 68.0381 91.9871C68.0536 91.9812 68.0701 91.9786 68.0866 91.9794H68.5139V91.7743C68.5042 91.647 68.5216 91.519 68.5651 91.399C68.6085 91.2789 68.677 91.1694 68.7659 91.0778C68.9805 90.9097 69.2506 90.8288 69.5222 90.8514H70.5861C70.6023 90.85 70.6186 90.8519 70.6341 90.8571C70.6495 90.8622 70.6637 90.8705 70.6759 90.8813C70.6977 90.9061 70.7099 90.9379 70.71 90.971V91.2744C70.71 91.2911 70.7066 91.3078 70.7 91.3232C70.6934 91.3386 70.6837 91.3525 70.6716 91.3641C70.6603 91.3752 70.6469 91.3839 70.6323 91.3897C70.6176 91.3956 70.6019 91.3985 70.5861 91.3983H69.5479C69.4966 91.3935 69.4448 91.3997 69.3962 91.4167C69.3475 91.4336 69.303 91.4609 69.2659 91.4965C69.206 91.5859 69.1775 91.6926 69.1847 91.7999V91.9794H70.5861C70.6023 91.978 70.6186 91.9799 70.6341 91.9851C70.6495 91.9902 70.6637 91.9985 70.6759 92.0093C70.6977 92.0341 70.7099 92.0659 70.71 92.099V94.5217C70.7103 94.5374 70.7074 94.5531 70.7015 94.5678C70.6956 94.5825 70.6869 94.5958 70.6759 94.6071C70.6648 94.6199 70.651 94.6301 70.6354 94.6367C70.6199 94.6434 70.603 94.6464 70.5861 94.6456H70.1589C70.1267 94.6435 70.0963 94.6298 70.0735 94.607C70.0507 94.5842 70.037 94.5539 70.035 94.5217V92.5263H69.1804V94.5217C69.1818 94.5376 69.1794 94.5536 69.1734 94.5684C69.1675 94.5833 69.1582 94.5965 69.1462 94.6071C69.1352 94.6199 69.1214 94.6301 69.1058 94.6367C69.0903 94.6434 69.0734 94.6464 69.0565 94.6456H68.6292C68.6103 94.6492 68.5908 94.6484 68.5723 94.6432C68.5537 94.638 68.5367 94.6286 68.5224 94.6157L68.548 94.6071ZM66.6552 93.9619C66.7527 93.8276 66.8064 93.6664 66.809 93.5005C66.809 93.4577 66.809 93.3936 66.809 93.3039C66.809 93.2142 66.809 93.1458 66.809 93.1031C66.8057 92.947 66.75 92.7965 66.6509 92.6758C66.598 92.6155 66.532 92.568 66.458 92.5369C66.3839 92.5058 66.3038 92.492 66.2237 92.4964C65.8605 92.4964 65.6639 92.7228 65.6383 93.1757V93.4834C65.6639 93.9106 65.8605 94.1585 66.2237 94.1585C66.3061 94.1629 66.3884 94.1473 66.4635 94.1131C66.5387 94.0789 66.6044 94.027 66.6552 93.9619ZM65.2324 94.3892C65.0336 94.1375 64.9266 93.8255 64.929 93.5047V93.1458C64.926 92.827 65.0315 92.5166 65.2281 92.2656C65.3272 92.153 65.4507 92.0645 65.5891 92.0067C65.7276 91.949 65.8774 91.9236 66.0271 91.9324C66.1745 91.9261 66.3213 91.9532 66.4567 92.0116C66.5921 92.0701 66.7126 92.1584 66.809 92.2699V91.1291C66.809 91.1123 66.8124 91.0957 66.819 91.0803C66.8257 91.0649 66.8353 91.0509 66.8475 91.0394C66.859 91.0289 66.8725 91.0208 66.8872 91.0157C66.9018 91.0105 66.9174 91.0084 66.9329 91.0095H67.3602C67.3764 91.0081 67.3927 91.01 67.4082 91.0152C67.4236 91.0203 67.4378 91.0285 67.4499 91.0394C67.4615 91.0512 67.4705 91.0652 67.4764 91.0807C67.4823 91.0961 67.4849 91.1126 67.4841 91.1291V94.5473C67.4855 94.5632 67.4831 94.5792 67.4772 94.5941C67.4712 94.6089 67.4619 94.6221 67.4499 94.6327C67.4389 94.6456 67.4251 94.6557 67.4095 94.6624C67.394 94.669 67.3771 94.672 67.3602 94.6712H66.9329C66.9007 94.6692 66.8704 94.6555 66.8476 94.6327C66.8247 94.6098 66.811 94.5795 66.809 94.5473V94.355C66.7086 94.4675 66.5862 94.5581 66.4493 94.6211C66.3123 94.6842 66.1639 94.7184 66.0132 94.7216C65.8625 94.7248 65.7127 94.697 65.5732 94.6398C65.4338 94.5826 65.3076 94.4973 65.2025 94.3892H65.2324ZM63.5959 94.0346C63.704 93.8908 63.7597 93.7144 63.754 93.5346C63.754 93.5005 63.754 93.4364 63.754 93.3381C63.754 93.2398 63.754 93.1715 63.754 93.1373C63.7591 92.9576 63.7033 92.7815 63.5959 92.6374C63.5427 92.5778 63.4765 92.5314 63.4024 92.5018C63.3282 92.4721 63.2482 92.46 63.1686 92.4665C63.0891 92.4607 63.0093 92.473 62.9353 92.5027C62.8613 92.5323 62.795 92.5783 62.7414 92.6374C62.6339 92.7815 62.5782 92.9576 62.5833 93.1373V93.5346C62.5776 93.7144 62.6333 93.8908 62.7414 94.0346C62.7957 94.0923 62.8623 94.1373 62.9362 94.1661C63.0101 94.1949 63.0895 94.2069 63.1686 94.2012C63.2535 94.2069 63.3385 94.1915 63.416 94.1565C63.4935 94.1214 63.5612 94.0678 63.613 94.0004L63.5959 94.0346ZM62.2457 94.4148C62.133 94.3029 62.0437 94.1698 61.9828 94.0231C61.9219 93.8764 61.8908 93.7191 61.8911 93.5603V93.1116C61.8908 92.9525 61.9225 92.7948 61.9841 92.6481C62.0457 92.5013 62.1362 92.3684 62.25 92.2571C62.5097 92.0391 62.843 91.929 63.1815 91.9495C63.5172 91.9295 63.8478 92.0397 64.1044 92.2571C64.2182 92.3684 64.3086 92.5013 64.3703 92.6481C64.4319 92.7948 64.4636 92.9525 64.4633 93.1116C64.4633 93.1501 64.4633 93.227 64.4633 93.3381C64.4633 93.4492 64.4633 93.5218 64.4633 93.5603C64.4636 93.7191 64.4325 93.8764 64.3716 94.0231C64.3107 94.1698 64.2213 94.3029 64.1086 94.4148C63.8392 94.6146 63.5126 94.7225 63.1772 94.7225C62.8417 94.7225 62.5152 94.6146 62.2457 94.4148ZM60.558 94.0346C60.6664 93.8912 60.7209 93.7142 60.7118 93.5346C60.7156 93.4692 60.7156 93.4036 60.7118 93.3381C60.7157 93.2712 60.7157 93.2042 60.7118 93.1373C60.7186 92.9574 60.6627 92.7807 60.5537 92.6374C60.5008 92.5776 60.4345 92.531 60.3603 92.5013C60.2862 92.4716 60.2061 92.4597 60.1265 92.4665C60.0469 92.4604 59.967 92.4726 59.8929 92.5022C59.8189 92.5318 59.7526 92.5781 59.6992 92.6374C59.5887 92.7801 59.5313 92.9568 59.5368 93.1373V93.5346C59.5305 93.7152 59.588 93.8922 59.6992 94.0346C59.8134 94.1463 59.9667 94.2088 60.1265 94.2088C60.2862 94.2088 60.4396 94.1463 60.5537 94.0346H60.558ZM59.2078 94.4148C59.0943 94.3035 59.0045 94.1705 58.9435 94.0236C58.8826 93.8768 58.8519 93.7192 58.8532 93.5603V93.1116C58.8529 92.9525 58.8845 92.7948 58.9462 92.6481C59.0078 92.5013 59.0982 92.3684 59.2121 92.2571C59.4793 92.0577 59.8037 91.95 60.1371 91.95C60.4705 91.95 60.795 92.0577 61.0622 92.2571C61.176 92.3684 61.2665 92.5013 61.3281 92.6481C61.3897 92.7948 61.4214 92.9525 61.4211 93.1116C61.4211 93.1501 61.4211 93.227 61.4211 93.3381C61.4211 93.4492 61.4211 93.5218 61.4211 93.5603C61.4214 93.7191 61.3903 93.8764 61.3294 94.0231C61.2685 94.1698 61.1792 94.3029 61.0665 94.4148C60.7977 94.6143 60.4718 94.722 60.1371 94.722C59.8024 94.722 59.4766 94.6143 59.2078 94.4148ZM57.4133 93.9192C57.5096 93.7888 57.5646 93.6325 57.5714 93.4706C57.5744 93.415 57.5744 93.3594 57.5714 93.3039C57.5744 93.2498 57.5744 93.1956 57.5714 93.1416C57.5647 92.9783 57.5097 92.8206 57.4133 92.6886C57.3609 92.6273 57.2951 92.5788 57.2211 92.5469C57.147 92.5151 57.0665 92.5007 56.986 92.5049C56.6143 92.5049 56.422 92.7314 56.4006 93.1843V93.3039C56.4006 93.838 56.5972 94.1072 56.9903 94.1072C57.0748 94.1117 57.1591 94.0953 57.2359 94.0595C57.3126 94.0238 57.3794 93.9697 57.4304 93.9021L57.4133 93.9192ZM56.2639 95.6283C56.1011 95.5515 55.9622 95.4319 55.8623 95.2822C55.795 95.1833 55.7551 95.0683 55.7469 94.9489C55.7462 94.9331 55.7488 94.9172 55.7547 94.9025C55.7606 94.8878 55.7696 94.8744 55.7811 94.8635C55.8048 94.8431 55.8353 94.8324 55.8665 94.8336H56.3237C56.3524 94.8314 56.381 94.8389 56.4049 94.8549C56.4305 94.8773 56.4485 94.9072 56.4562 94.9404C56.4939 95.0286 56.5525 95.1064 56.6271 95.1668C56.7295 95.2378 56.8533 95.271 56.9774 95.2608C57.0601 95.2769 57.1453 95.2722 57.2257 95.2471C57.306 95.2221 57.3789 95.1775 57.4378 95.1174C57.4966 95.0573 57.5397 94.9834 57.563 94.9026C57.5863 94.8217 57.5892 94.7364 57.5714 94.6541V94.3037C57.3601 94.5135 57.0744 94.6312 56.7766 94.6312C56.4789 94.6312 56.1932 94.5135 55.9819 94.3037C55.7898 94.0511 55.689 93.7409 55.6956 93.4236V93.2826V93.1458C55.6925 92.8284 55.7947 92.5188 55.9862 92.2656C56.0844 92.152 56.2078 92.0628 56.3464 92.0049C56.4851 91.9471 56.6353 91.9222 56.7852 91.9324C56.9505 91.9284 57.1145 91.9636 57.2637 92.0349C57.3955 92.0992 57.511 92.1928 57.6013 92.3084V92.1118C57.6007 92.0943 57.6038 92.0769 57.6104 92.0607C57.617 92.0445 57.627 92.0299 57.6397 92.0178C57.6515 92.0062 57.6656 91.9972 57.681 91.9913C57.6964 91.9855 57.7129 91.9828 57.7294 91.9836H58.1567C58.1732 91.9828 58.1897 91.9855 58.2052 91.9913C58.2206 91.9972 58.2347 92.0062 58.2465 92.0178C58.2689 92.0439 58.2811 92.0774 58.2806 92.1118V94.5815C58.2918 94.7421 58.2694 94.9033 58.215 95.0548C58.1606 95.2063 58.0752 95.3448 57.9644 95.4617C57.8336 95.5749 57.6817 95.6611 57.5175 95.7153C57.3532 95.7696 57.1799 95.7909 57.0074 95.7778C56.7566 95.7882 56.5072 95.7368 56.281 95.6283H56.2639Z" fill="black"/>
<path d="M139.164 71.013H123.606V94.778H139.164L134.164 83.6176L139.164 71.013ZM0.884766 71.013H16.4418V94.778H0.884766L5.8796 83.6176L0.884766 71.013Z" fill="#2C72C6"/>
<path d="M131.476 62.8563L123.61 70.9745V94.7395L131.476 86.9247V62.8563ZM8.7334 62.8563L16.6166 71.3206V94.7652L8.7334 86.9033V62.8563Z" fill="#3D597A"/>
<path d="M8.55859 86.7751H131.46L131.447 62.7111H8.55859V86.7751Z" fill="#4385F4"/>
<path opacity="0.5" d="M71.5039 104.494C75.7372 104.685 79.9732 104.183 84.0444 103.007C82.5874 101.127 84.993 99.2558 87.296 97.4528C89.7101 95.6582 92.1284 93.8679 92.1284 93.8594C92.1284 93.8508 89.2828 96.7777 89.5648 99.2815C89.6581 99.849 89.6421 100.429 89.5178 100.991C90.1758 100.691 90.8238 100.375 91.4619 100.042C89.7528 98.4269 91.6883 96.1154 93.5299 93.9192C95.4783 91.7059 97.4437 89.5311 97.4437 89.5225C97.4437 89.514 95.2817 92.9023 96.0081 95.3676C96.2002 95.9163 96.29 96.4956 96.273 97.0767C96.8455 96.6495 97.4053 96.2478 97.9479 95.7949C96.0423 94.4533 97.4352 91.8127 98.8025 89.3388C100.251 86.8179 101.746 84.3782 101.746 84.3739C101.746 84.3696 100.289 88.0484 101.434 90.4027C101.719 90.9207 101.91 91.4848 101.998 92.0691C102.473 91.5692 102.934 91.0607 103.374 90.5437C101.34 89.4969 102.135 86.6726 102.998 83.9979C103.96 81.2804 104.994 78.7296 104.981 78.6911C105.036 78.6911 104.212 82.5152 105.746 84.673C106.115 85.1451 106.404 85.6749 106.6 86.2411C106.968 85.6714 107.321 85.1017 107.66 84.532C105.489 83.78 105.771 80.8788 106.156 78.1229C106.622 75.3242 107.198 72.6837 107.198 72.6537C107.198 72.6238 107.079 76.4992 108.95 78.4219C109.389 78.8375 109.758 79.3208 110.044 79.8533C110.215 79.4645 110.382 79.0714 110.54 78.6783C110.664 78.375 110.779 78.0716 110.894 77.764C108.711 77.3367 108.514 74.6107 108.455 72.0043C108.455 69.3466 108.613 66.83 108.625 66.8044C108.638 66.7787 109.053 70.3764 111.117 71.9317C111.597 72.2669 112.021 72.6765 112.373 73.1451C112.586 72.3205 112.779 71.4958 112.95 70.6627C110.783 70.6071 110.194 68.0776 109.771 65.655C109.348 63.2323 109.207 60.8482 109.228 60.8225C109.249 60.7969 110.108 64.0698 112.257 65.2363C112.768 65.4902 113.234 65.8249 113.637 66.2275C113.74 65.2875 113.817 64.3518 113.868 63.4118C111.787 63.6596 110.903 61.3993 110.194 59.1989C109.751 57.7474 109.383 56.2742 109.091 54.7851C109.121 54.7851 110.305 57.6906 112.471 58.4896C112.991 58.659 113.478 58.9131 113.915 59.2416C113.89 58.3871 113.851 57.571 113.787 56.7421C113.787 56.5455 113.757 56.3532 113.74 56.1567C111.864 56.678 110.698 54.6655 109.805 52.7385C108.912 50.8115 108.275 48.7477 108.275 48.7435C108.275 48.7392 109.728 51.3071 111.843 51.7729C112.338 51.8609 112.816 52.0298 113.257 52.2728C113.078 51.1789 112.873 50.0894 112.629 49.0041C110.984 49.6707 109.681 47.9744 108.655 46.2824C107.973 45.1096 107.352 43.9016 106.797 42.6634C106.818 42.6634 108.425 44.9536 110.429 45.0988C110.866 45.1146 111.299 45.1982 111.71 45.3466C111.38 44.2072 111.017 43.0821 110.621 41.9712C109.224 42.6762 107.882 41.2833 106.775 39.8348C106.001 38.7751 105.288 37.6724 104.639 36.532C104.66 36.532 106.404 38.5914 108.25 38.4718C108.592 38.4407 108.937 38.4565 109.275 38.5188C108.822 37.425 108.336 36.3312 107.818 35.2373L107.728 35.0237C106.57 35.733 105.229 34.5964 104.079 33.3146C103.229 32.3402 102.43 31.3219 101.687 30.2639C101.712 30.2639 103.584 32.1396 105.241 31.8106C105.586 31.7342 105.942 31.7154 106.293 31.755C105.14 29.3176 103.849 26.948 102.426 24.658C104.037 27.0208 105.472 29.358 106.741 31.6269C106.89 31.212 107.101 30.8217 107.365 30.469C107.895 29.7597 107.908 28.6103 107.72 27.6276C107.595 27.0171 107.415 26.4193 107.181 25.8416C108.033 27.2162 108.718 28.6879 109.219 30.2254C109.873 32.3917 109.856 34.4469 108.365 34.7032C108.963 35.9039 109.51 37.1045 110.018 38.3052C110.228 37.9697 110.479 37.6624 110.766 37.3908C111.45 36.7456 111.621 35.592 111.595 34.5964C111.566 33.9744 111.471 33.3572 111.313 32.7549C112.004 34.2284 112.506 35.7831 112.809 37.3822C113.176 39.5784 112.898 41.6251 111.369 41.7917C111.757 42.8941 112.112 43.9922 112.437 45.0988C112.692 44.8212 112.979 44.5746 113.291 44.3639C114.936 43.2829 114.612 40.0057 114.573 39.7579C115.097 41.3362 115.411 42.9769 115.505 44.6374C115.594 46.9019 115.047 48.9614 113.449 48.9785C113.449 48.9785 113.449 48.9785 113.449 49.0041C113.666 50.0125 113.857 51.028 114.022 52.0506C114.324 51.8055 114.654 51.5962 115.005 51.4268C116.898 50.5466 116.996 47.1284 116.966 46.872C117.308 48.5727 117.42 50.3115 117.299 52.042C117.09 54.4049 116.231 56.49 114.539 56.272C114.616 57.2206 114.671 58.1692 114.701 59.1262C115.062 58.9061 115.448 58.7297 115.851 58.6007C117.906 57.9726 118.496 54.5886 118.53 54.1613C118.657 55.9776 118.539 57.8029 118.179 59.5877C117.667 62.0274 116.376 64.1766 114.65 63.6383C114.599 64.4928 114.53 65.3901 114.432 66.2617C114.861 66.0626 115.313 65.919 115.778 65.8344C118.06 65.4627 119.154 61.8822 119.196 61.5361C119.078 63.4758 118.691 65.3898 118.047 67.2231C117.145 69.7867 115.436 71.8932 113.676 70.9617C113.509 71.7565 113.321 72.5555 113.112 73.3459C113.618 73.1814 114.144 73.0893 114.676 73.0725C117.162 73.0041 118.863 69.227 118.914 69.0091C118.509 71.0534 117.81 73.028 116.838 74.8713C115.47 77.4734 113.291 79.5158 111.578 78.1314C111.313 78.8321 111.028 79.5272 110.723 80.2165C111.299 80.1026 111.888 80.0752 112.471 80.1353C115.12 80.4259 117.534 76.5975 117.56 76.4522C116.815 78.5606 115.758 80.5453 114.424 82.3401C112.531 84.9037 109.856 86.7538 108.305 84.9507C107.958 85.5375 107.599 86.1072 107.228 86.6598C107.817 86.6263 108.407 86.6796 108.98 86.8179C111.621 87.4887 114.714 83.874 114.663 83.827C113.569 85.8582 112.163 87.7051 110.497 89.3004C108.164 91.5906 105.16 93.039 103.908 91.0095C103.46 91.535 102.994 92.0477 102.511 92.5562C103.109 92.6105 103.695 92.7546 104.25 92.9835C106.66 93.9705 110.134 91.2017 110.45 90.8727C109.01 92.7021 107.307 94.3076 105.395 95.6368C102.58 97.5724 99.328 98.4654 98.4136 96.3376C97.8582 96.7862 97.2856 97.2178 96.7045 97.6407C97.3035 97.7812 97.8791 98.0071 98.4136 98.3116C100.67 99.6489 104.66 97.457 105.062 97.1793C103.272 98.7688 101.256 100.084 99.0802 101.08C95.8714 102.533 92.3848 102.849 91.8464 100.653C91.197 100.991 90.5347 101.32 89.8639 101.627C90.4282 101.859 90.9574 102.168 91.4363 102.546C93.4829 104.221 97.9137 102.768 98.4136 102.546C96.2962 103.817 94.0006 104.765 91.6029 105.357C88.0736 106.212 84.4589 105.896 84.288 103.695C80.1649 104.898 75.8708 105.407 71.5808 105.204L71.5039 104.494Z" fill="#4385F4"/>
<path d="M70.7905 7.60974L73.3114 12.7114L78.9471 13.5275L74.8667 17.5182L75.8323 23.1198L70.7905 20.475L65.7529 23.1198L66.7143 17.5182L62.6338 13.5489L68.2695 12.7328L70.7905 7.60974Z" fill="#FFA829"/>
<path d="M55.1656 17.5524L53.6573 14.4932L52.1448 17.5524L48.7607 18.0438L51.209 20.4237L50.6322 23.7864L53.6573 22.1969L56.6781 23.7864L56.1013 20.4237L58.5496 18.0438L55.1656 17.5524Z" fill="#F8B64C"/>
<path d="M92.8207 18.0438L89.4367 17.5524L87.9284 14.4932L86.4159 17.5524L83.0361 18.0438L85.4801 20.4237L84.9033 23.7864L87.9284 22.1969L90.9493 23.7864L90.3724 20.4237L92.8207 18.0438Z" fill="#F8B64C"/>
<path d="M46.7611 25.5297L45.8553 23.6924L44.9495 25.5297L42.9199 25.8245L44.3855 27.2516L44.0394 29.2683L45.8553 28.3198L47.6669 29.2683L47.3208 27.2516L48.7907 25.8245L46.7611 25.5297Z" fill="#FFD15C"/>
<path d="M98.6618 25.8245L96.6322 25.5297L95.7264 23.6924L94.8206 25.5297L92.791 25.8245L94.2608 27.2516L93.9147 29.2683L95.7264 28.3198L97.5423 29.2683L97.1962 27.2516L98.6618 25.8245Z" fill="#FFD15C"/>
<path d="M27.9696 72.8332V68.5989H26.4912V67.7144H30.5589V68.5989H29.0549V72.8332H27.9696Z" fill="white"/>
<path d="M35.6264 70.2781C35.6264 71.9017 34.6736 72.9229 33.1611 72.9229C31.6485 72.9229 30.6914 71.9017 30.6914 70.2781C30.6914 68.6544 31.64 67.6247 33.1611 67.6247C34.6821 67.6247 35.6264 68.6459 35.6264 70.2781ZM31.781 70.2781C31.781 71.3463 32.315 72.0256 33.1568 72.0256C33.9985 72.0256 34.5283 71.3463 34.5283 70.2781C34.5283 69.2099 33.9942 68.522 33.1568 68.522C32.3193 68.522 31.7852 69.2184 31.7852 70.2781H31.781Z" fill="white"/>
<path d="M38.4547 67.7144C38.6896 67.6997 38.9249 67.7347 39.1453 67.8172C39.3657 67.8998 39.5661 68.0279 39.7336 68.1933C39.901 68.3587 40.0315 68.5576 40.1167 68.777C40.2019 68.9963 40.2398 69.2312 40.2279 69.4662C40.2344 69.7043 40.1911 69.9411 40.1007 70.1614C40.0104 70.3818 39.875 70.5808 39.7032 70.7457C39.5314 70.9107 39.3271 71.0379 39.1032 71.1192C38.8794 71.2006 38.6411 71.2342 38.4035 71.2181H37.3865V72.8332H36.3184V67.7059L38.4547 67.7144ZM37.3908 70.3806H38.1685C38.2929 70.3892 38.4178 70.372 38.5354 70.3302C38.653 70.2885 38.7607 70.223 38.8519 70.1379C38.9431 70.0527 39.0158 69.9497 39.0655 69.8353C39.1152 69.7208 39.1409 69.5974 39.1409 69.4726C39.1409 69.3479 39.1152 69.2245 39.0655 69.11C39.0158 68.9956 38.9431 68.8926 38.8519 68.8074C38.7607 68.7223 38.653 68.6568 38.5354 68.615C38.4178 68.5733 38.2929 68.5561 38.1685 68.5647H37.3865L37.3908 70.3806Z" fill="white"/>
<path d="M44.39 67.7144C45.9239 67.7144 46.8298 68.6288 46.8298 70.2524C46.8298 71.8761 45.9239 72.8161 44.39 72.8161H42.416V67.6888L44.39 67.7144ZM43.4885 71.9444H44.2618C45.2189 71.9444 45.7359 71.3633 45.7359 70.2567C45.7359 69.1501 45.2061 68.5989 44.2618 68.5989H43.4885V71.9444Z" fill="white"/>
<path d="M47.5176 72.8332V67.7059H48.59V72.8332H47.5176Z" fill="white"/>
<path d="M51.7427 72.9229C50.2173 72.9229 49.2773 71.9231 49.2773 70.2567C49.2773 68.5903 50.2173 67.6247 51.7171 67.6247C52.9134 67.6247 53.815 68.334 53.9688 69.368H52.8921C52.824 69.1132 52.6707 68.8894 52.4577 68.7339C52.2447 68.5784 51.9848 68.5006 51.7214 68.5134C50.8668 68.5134 50.3712 69.1543 50.3712 70.2439C50.3712 71.3334 50.9095 72.0299 51.7598 72.0299C51.91 72.044 52.0615 72.0272 52.2049 71.9806C52.3484 71.934 52.4808 71.8585 52.594 71.7589C52.7073 71.6593 52.7989 71.5375 52.8634 71.4012C52.9279 71.2648 52.9638 71.1167 52.969 70.966V70.8848H51.8538V70.1072H53.9902V70.684C54.0158 72.0769 53.1698 72.9229 51.7427 72.9229Z" fill="white"/>
<path d="M54.7217 72.8332V67.7059H55.7899V72.8332H54.7217Z" fill="white"/>
<path d="M57.883 72.8332V68.5989H56.4004V67.7144H60.468V68.5989H58.964V72.8332H57.883Z" fill="white"/>
<path d="M63.3176 71.5898H61.5273L61.1385 72.8332H60.0361L61.8136 67.7059H63.0741L64.8558 72.8332H63.7064L63.3176 71.5898ZM61.7495 70.7908H63.0869L62.4289 68.6929H62.4075L61.7495 70.7908Z" fill="white"/>
<path d="M68.6759 72.8332H65.373V67.7059H66.4412V71.9359H68.6802L68.6759 72.8332Z" fill="white"/>
<path d="M76.2899 72.8332H75.3371V69.3765H75.3072L73.9185 72.7947H73.2434L71.8548 69.3765H71.8249V72.8332H70.8721V67.7059H72.1112L73.5682 71.3334H73.5938L75.0508 67.7059H76.2899V72.8332Z" fill="white"/>
<path d="M80.1054 71.5898H78.3066L77.9135 72.8332H76.8154L78.5929 67.7059H79.8534L81.6308 72.8332H80.4943L80.1054 71.5898ZM78.5373 70.7908H79.8747L79.2167 68.6929H79.1911L78.5373 70.7908Z" fill="white"/>
<path d="M83.2248 72.8332H82.1523V67.7059H84.2674C85.4466 67.7059 86.1174 68.3254 86.1174 69.3381C86.131 69.6462 86.0493 69.9509 85.8834 70.2109C85.7174 70.4709 85.4754 70.6734 85.1903 70.7908L86.267 72.8246H85.0535L84.1007 70.9532H83.2248V72.8332ZM83.2248 70.1841H84.1733C84.2854 70.1968 84.3988 70.1848 84.5057 70.1489C84.6125 70.113 84.7102 70.054 84.7917 69.9761C84.8733 69.8983 84.9367 69.8034 84.9775 69.6983C85.0183 69.5932 85.0355 69.4805 85.0279 69.368C85.0326 69.2562 85.0134 69.1448 84.9716 69.041C84.9297 68.9373 84.8663 68.8437 84.7854 68.7665C84.7045 68.6892 84.6081 68.6301 84.5025 68.5931C84.397 68.5561 84.2848 68.542 84.1733 68.5519H83.2419L83.2248 70.1841Z" fill="white"/>
<path d="M86.8223 72.8332V67.7059H87.8905V70.0388H87.9246L89.8474 67.7059H91.0395L89.1424 69.9747L91.1676 72.8246H89.8858L88.369 70.6882L87.8862 71.2651V72.8289L86.8223 72.8332Z" fill="white"/>
<path d="M95.0094 72.8332H91.6211V67.7059H95.0094V68.5903H92.6936V69.8251H94.8812V70.6455H92.6936V71.9273H95.0094V72.8332Z" fill="white"/>
<path d="M97.0257 72.8332V68.5989H95.5303V67.7144H99.5979V68.5989H98.0982V72.8332H97.0257Z" fill="white"/>
<path d="M100.188 72.8332V67.7059H101.264V72.8332H100.188Z" fill="white"/>
<path d="M102.119 72.8332V67.7059H103.012L105.405 71.0386H105.435V67.7059H106.456V72.8332H105.572L103.179 69.4833H103.145V72.8332H102.119Z" fill="white"/>
<path d="M109.605 72.9229C108.075 72.9229 107.14 71.9231 107.14 70.2567C107.14 68.5903 108.075 67.6247 109.579 67.6247C110.776 67.6247 111.677 68.334 111.831 69.368H110.754C110.686 69.1136 110.532 68.8902 110.319 68.7349C110.106 68.5795 109.847 68.5014 109.584 68.5134C108.729 68.5134 108.233 69.1543 108.233 70.2439C108.233 71.3334 108.772 72.0299 109.622 72.0299C109.772 72.0446 109.924 72.0283 110.067 71.9819C110.211 71.9355 110.343 71.86 110.456 71.7602C110.569 71.6604 110.66 71.5383 110.724 71.4017C110.788 71.2651 110.823 71.1167 110.827 70.966V70.8848H109.716V70.1072H111.852V70.684C111.874 72.0769 111.032 72.9229 109.605 72.9229Z" fill="white"/>
<path d="M52.2725 78.9902C52.2725 77.3409 53.2125 76.3411 54.6951 76.3411C55.2468 76.3087 55.7896 76.4913 56.2095 76.8506C56.6293 77.21 56.8936 77.718 56.9468 78.2681H55.9043C55.8664 77.9763 55.722 77.7089 55.4987 77.5172C55.2755 77.3255 54.9893 77.2231 54.6951 77.2298C53.8876 77.2298 53.3663 77.9049 53.3663 78.9859C53.3663 80.0669 53.879 80.7548 54.6908 80.7548C54.9776 80.7718 55.2604 80.6808 55.4834 80.4997C55.7064 80.3186 55.8535 80.0605 55.8958 79.7764H56.9383C56.8187 80.9172 55.9427 81.6436 54.6866 81.6436C53.2082 81.6393 52.2725 80.6395 52.2725 78.9902Z" fill="white"/>
<path d="M62.3826 78.9944C62.3826 80.6224 61.4298 81.6393 59.913 81.6393C58.3962 81.6393 57.4434 80.6224 57.4434 78.9944C57.4434 77.3665 58.3962 76.3411 59.913 76.3411C61.4298 76.3411 62.3826 77.3623 62.3826 78.9944ZM58.5372 78.9944C58.5372 80.0626 59.0713 80.742 59.913 80.742C60.7547 80.742 61.2846 80.0626 61.2846 78.9944C61.2846 77.9263 60.7505 77.2383 59.913 77.2383C59.0755 77.2383 58.5372 77.9177 58.5372 78.9944Z" fill="white"/>
<path d="M68.4921 81.5496H67.5392V78.0972H67.5093L66.1207 81.5154H65.4456L64.057 78.0972H64.027V81.5496H63.0742V76.4223H64.3133L65.7703 80.0499H65.8002L67.2572 76.4223H68.4963L68.4921 81.5496Z" fill="white"/>
<path d="M71.4788 76.4308C71.7136 76.4161 71.949 76.4511 72.1694 76.5337C72.3897 76.6162 72.5902 76.7444 72.7576 76.9097C72.925 77.0751 73.0556 77.274 73.1408 77.4934C73.226 77.7128 73.2639 77.9476 73.252 78.1827C73.2585 78.4207 73.2152 78.6575 73.1248 78.8779C73.0344 79.0982 72.899 79.2972 72.7272 79.4621C72.5555 79.6271 72.3511 79.7543 72.1273 79.8356C71.9035 79.917 71.6651 79.9507 71.4275 79.9345H70.4149V81.5496H69.3467V76.4223L71.4788 76.4308ZM70.4149 79.097H71.1925C71.317 79.1056 71.4419 79.0884 71.5594 79.0467C71.677 79.0049 71.7847 78.9394 71.8759 78.8543C71.9671 78.7691 72.0398 78.6661 72.0896 78.5517C72.1393 78.4373 72.1649 78.3138 72.1649 78.1891C72.1649 78.0643 72.1393 77.9409 72.0896 77.8264C72.0398 77.712 71.9671 77.609 71.8759 77.5239C71.7847 77.4387 71.677 77.3732 71.5594 77.3315C71.4419 77.2897 71.317 77.2726 71.1925 77.2811H70.4149V79.097Z" fill="white"/>
<path d="M76.3673 80.3276H74.5685L74.1796 81.571H73.0645L74.8376 76.4437H76.0981L77.8798 81.571H76.739L76.3673 80.3276ZM74.7992 79.5286H76.1366L75.4828 77.4307H75.4572L74.7992 79.5286Z" fill="white"/>
<path d="M78.418 81.5496V76.4223H79.311L81.7037 79.755H81.7293V76.4223H82.7548V81.5496H81.8703L79.4733 78.1912H79.4434V81.541L78.418 81.5496Z" fill="white"/>
<path d="M85.062 81.5496V79.6397L83.2803 76.4308H84.4467L85.5918 78.6142H85.6175L86.7668 76.4308H87.9162L86.1302 79.6397V81.5496H85.062Z" fill="white"/>
</svg>
