<svg width="117" height="120" viewBox="0 0 117 120" fill="none" xmlns="http://www.w3.org/2000/svg">
<g clip-path="url(#clip0_1716_9580)">
<path fill-rule="evenodd" clip-rule="evenodd" d="M58.3412 0L109.405 31.9149V88.7234L58.3412 120L7.27734 88.7234V31.9149L58.3412 0Z" fill="black"/>
<path d="M58.3412 3.01085L9.83054 33.33V87.2932L58.3412 117.006L106.852 87.2932V33.33L58.3412 3.01085ZM58.3412 0L109.405 31.9149V88.7234L58.3412 120L7.27734 88.7234V31.9149L58.3412 0Z" fill="#FFD409"/>
<path fill-rule="evenodd" clip-rule="evenodd" d="M58.341 7.53192L13.6602 35.4575V85.1649L58.341 112.532L103.022 85.1649V35.4575L58.341 7.53192Z" fill="#FFD409"/>
<path d="M115.405 41.8723H1.27734V78.1276H115.405V41.8723Z" fill="black" stroke="black" stroke-width="16"/>
<path fill-rule="evenodd" clip-rule="evenodd" d="M49.4043 24.383H51.2015C51.3872 24.383 51.5422 24.4252 51.6667 24.5096C51.7911 24.5939 51.8723 24.7057 51.9103 24.845L53.176 29.6545C53.2139 29.8106 53.2519 29.9772 53.2899 30.1544C53.3278 30.3316 53.3658 30.5172 53.4038 30.7113C53.4797 30.3147 53.5725 29.9624 53.6822 29.6545L55.1757 24.845C55.2137 24.7268 55.2949 24.6203 55.4193 24.5254C55.5438 24.4305 55.6946 24.383 55.8718 24.383H56.5046C56.6903 24.383 56.84 24.4262 56.9539 24.5127C57.0678 24.5992 57.1543 24.71 57.2134 24.845L58.6942 29.6545C58.8039 29.9498 58.8967 30.2852 58.9727 30.6606C59.0064 30.475 59.0412 30.2978 59.0771 30.1291C59.1129 29.9603 59.1498 29.8021 59.1878 29.6545L60.4535 24.845C60.4872 24.7226 60.5674 24.615 60.694 24.5222C60.8205 24.4294 60.9724 24.383 61.1496 24.383H62.8329L59.9852 33.6033H58.0487L56.3148 27.8889C56.2515 27.7075 56.1903 27.4986 56.1313 27.2624C56.0722 27.4986 56.011 27.7075 55.9477 27.8889L54.1885 33.6033H52.252L49.4043 24.383ZM66.0727 24.3912H67.3869L64.808 32.7072C64.6423 33.2415 64.1481 33.6056 63.5887 33.6056H62.319L64.8516 25.2957C65.0153 24.7584 65.511 24.3912 66.0727 24.3912Z" fill="black"/>
<path fill-rule="evenodd" clip-rule="evenodd" d="M35.736 91.0213L34.2041 86.7779H35.2841L36.0654 89.3668L36.7701 86.7779H37.5667L38.2713 89.3668L39.0526 86.7779H40.1326L38.6007 91.0213H37.9726L37.1684 88.2715L36.3641 91.0213H35.736ZM44.8892 86.7779V91.0213H43.9547V90.4468H43.9394C43.7607 90.6868 43.5475 90.8643 43.2998 90.9792C43.0522 91.0941 42.793 91.1541 42.5224 91.1592C41.9556 91.1592 41.4679 90.9549 41.0594 90.5464C40.6509 90.1379 40.4467 89.6017 40.4467 88.9379C40.4467 88.2792 40.6496 87.7315 41.0556 87.2949C41.4616 86.8583 41.9607 86.64 42.553 86.64C42.8492 86.64 43.116 86.7026 43.3535 86.8277C43.5909 86.9528 43.7862 87.1353 43.9394 87.3753H43.9547V86.7779H44.8892ZM42.7139 87.6051C42.3462 87.6051 42.0462 87.7315 41.8139 87.9843C41.5815 88.237 41.4654 88.5549 41.4654 88.9379C41.4603 89.3056 41.5739 89.6068 41.8062 89.8417C42.0386 90.0766 42.3411 90.1941 42.7139 90.1941C43.0764 90.1941 43.3701 90.0741 43.5947 89.8341C43.8194 89.5941 43.9318 89.28 43.9318 88.8919C43.9318 88.5243 43.8194 88.2179 43.5947 87.9728C43.3701 87.7277 43.0764 87.6051 42.7139 87.6051ZM49.9522 85.3532V91.0213H49.0177V90.4468H49.0024C48.8339 90.6817 48.6309 90.8579 48.3935 90.9753C48.156 91.0928 47.8943 91.1541 47.6084 91.1592C47.0313 91.1592 46.5373 90.9447 46.1262 90.5158C45.7152 90.0868 45.5096 89.5532 45.5096 88.9149C45.5045 88.2613 45.7088 87.7187 46.1224 87.2873C46.536 86.8558 47.0415 86.64 47.639 86.64C47.9147 86.6451 48.1598 86.6975 48.3743 86.797C48.5888 86.8966 48.7701 87.0358 48.9181 87.2145H48.9335V85.3532H49.9522ZM47.7539 87.6051C47.4015 87.6051 47.1092 87.7264 46.8769 87.969C46.6445 88.2115 46.5284 88.5217 46.5284 88.8996C46.5284 89.2724 46.642 89.5813 46.8692 89.8264C47.0964 90.0715 47.3913 90.1941 47.7539 90.1941C48.1113 90.1992 48.4075 90.0792 48.6424 89.8341C48.8773 89.589 48.9947 89.2775 48.9947 88.8996C48.9947 88.5268 48.876 88.2179 48.6386 87.9728C48.4011 87.7277 48.1062 87.6051 47.7539 87.6051ZM50.7718 91.0213V85.3532H51.7905V91.0213H50.7718ZM52.6101 91.0213V86.7779H53.6288V91.0213H52.6101ZM52.6101 86.2877V85.3532H53.6288V86.2877H52.6101ZM54.4484 91.0213V86.7779H55.3828V87.1685H55.3981C55.5309 87 55.6956 86.8698 55.8922 86.7779C56.0888 86.686 56.3122 86.64 56.5624 86.64C57.0577 86.64 57.4573 86.8098 57.7611 87.1494C58.065 87.489 58.2169 87.9524 58.2169 88.5396V91.0213H57.1981V88.7694C57.193 88.3813 57.1164 88.0902 56.9684 87.8962C56.8203 87.7021 56.6135 87.6051 56.3479 87.6051C56.0518 87.6051 55.8296 87.7047 55.6816 87.9038C55.5335 88.103 55.462 88.3915 55.4671 88.7694V91.0213H54.4484ZM63.2798 89.3515H59.9556C60.0169 89.6119 60.1484 89.8175 60.3501 89.9681C60.5518 90.1187 60.7905 90.1941 61.0662 90.1941C61.2705 90.1992 61.453 90.1673 61.6139 90.0983C61.7747 90.0294 61.9088 89.9285 62.016 89.7958H63.165C62.9862 90.2196 62.7156 90.5528 62.353 90.7953C61.9905 91.0379 61.5743 91.1592 61.1045 91.1592C60.4662 91.1592 59.9326 90.9447 59.5037 90.5158C59.0747 90.0868 58.8603 89.5583 58.8603 88.9302C58.8603 88.3021 59.076 87.7634 59.5075 87.3141C59.939 86.8647 60.4764 86.64 61.1198 86.64C61.7581 86.64 62.2803 86.857 62.6862 87.2911C63.0922 87.7251 63.2977 88.2613 63.3028 88.8996C63.3028 89.0017 63.3003 89.0873 63.2952 89.1562C63.2901 89.2251 63.285 89.2902 63.2798 89.3515ZM59.9403 88.4477H62.2381C62.1667 88.1873 62.0288 87.9817 61.8245 87.8311C61.6203 87.6804 61.3854 87.6051 61.1198 87.6051C60.839 87.6102 60.5926 87.6881 60.3807 87.8387C60.1688 87.9894 60.022 88.1924 59.9403 88.4477ZM64.0918 91.0213V90.0026H65.1105V91.0213H64.0918ZM69.2007 89.6426H70.3496C70.1811 90.1073 69.9169 90.4762 69.5569 90.7494C69.1969 91.0226 68.7616 91.1592 68.2509 91.1592C67.5769 91.1592 67.0177 90.9447 66.5735 90.5158C66.1292 90.0868 65.9071 89.5379 65.9071 88.869C65.9071 88.2358 66.1254 87.706 66.562 87.2796C66.9986 86.8532 67.5488 86.64 68.2126 86.64C68.7386 86.64 69.1905 86.7804 69.5684 87.0613C69.9462 87.3421 70.2067 87.7175 70.3496 88.1873H69.2007C69.0986 87.9983 68.962 87.8553 68.7909 87.7583C68.6198 87.6613 68.422 87.6102 68.1973 87.6051C67.8041 87.6051 67.4939 87.729 67.2667 87.9766C67.0394 88.2243 66.9258 88.5268 66.9258 88.8843C66.9258 89.2621 67.042 89.5762 67.2743 89.8264C67.5067 90.0766 67.8143 90.1992 68.1973 90.1941C68.4118 90.1941 68.6071 90.1494 68.7832 90.06C68.9594 89.9707 69.0986 89.8315 69.2007 89.6426ZM73.0305 86.64C73.6688 86.64 74.2037 86.8621 74.6352 87.3064C75.0667 87.7507 75.2824 88.2843 75.2824 88.9073C75.2824 89.5353 75.0667 90.0677 74.6352 90.5043C74.2037 90.9409 73.6688 91.1592 73.0305 91.1592C72.3871 91.1592 71.8509 90.9409 71.422 90.5043C70.993 90.0677 70.7786 89.5353 70.7786 88.9073C70.7786 88.2843 70.993 87.7507 71.422 87.3064C71.8509 86.8621 72.3871 86.64 73.0305 86.64ZM73.0305 87.6051C72.6628 87.6051 72.3654 87.7328 72.1381 87.9881C71.9109 88.2434 71.7973 88.5498 71.7973 88.9073C71.7922 89.2647 71.9045 89.5685 72.1343 89.8187C72.3641 90.069 72.6628 90.1941 73.0305 90.1941C73.393 90.1992 73.6892 90.0753 73.919 89.8226C74.1488 89.5698 74.2637 89.2647 74.2637 88.9073C74.2637 88.5498 74.1488 88.2434 73.919 87.9881C73.6892 87.7328 73.393 87.6051 73.0305 87.6051ZM75.8952 91.0213V86.7779H76.8296V87.1685H76.845C76.9624 87 77.1194 86.8698 77.316 86.7779C77.5126 86.686 77.7233 86.64 77.9479 86.64C78.2084 86.64 78.4484 86.7 78.6679 86.82C78.8875 86.94 79.0611 87.0996 79.1888 87.2987C79.3471 87.0843 79.5398 86.9209 79.7671 86.8085C79.9943 86.6962 80.2535 86.64 80.5445 86.64C81.0654 86.64 81.4841 86.8098 81.8007 87.1494C82.1173 87.489 82.2756 87.9524 82.2756 88.5396V91.0213H81.2569V88.7694C81.2569 88.3864 81.1879 88.0966 81.0501 87.9C80.9122 87.7034 80.7028 87.6051 80.422 87.6051C80.1411 87.6102 79.933 87.7098 79.7977 87.9038C79.6624 88.0979 79.5947 88.3864 79.5947 88.7694V91.0213H78.576V88.7694C78.576 88.3864 78.5071 88.0966 78.3692 87.9C78.2313 87.7034 78.022 87.6051 77.7411 87.6051C77.4603 87.6051 77.2509 87.7034 77.113 87.9C76.9752 88.0966 76.9088 88.3864 76.9139 88.7694V91.0213H75.8952Z" fill="black"/>
<path fill-rule="evenodd" clip-rule="evenodd" d="M14.8651 58.3405V51.3664H13.291V49.8383H18.0131V51.3664H16.4391V58.3405H14.8651ZM22.7065 49.689C23.9704 49.689 25.0331 50.1217 25.8948 50.9873C26.7566 51.8528 27.1874 52.9022 27.1874 54.1353C27.1874 55.3685 26.7546 56.4122 25.8891 57.2662C25.0236 58.1202 23.9627 58.5473 22.7065 58.5473C21.4427 58.5473 20.378 58.1202 19.5125 57.2662C18.647 56.4122 18.218 55.3685 18.2257 54.1353C18.2257 52.9022 18.6546 51.8528 19.5125 50.9873C20.3704 50.1217 21.4351 49.689 22.7065 49.689ZM22.6951 57.0192C23.5223 57.0192 24.2155 56.7339 24.7746 56.1632C25.3338 55.5926 25.6134 54.9051 25.6134 54.1009C25.6134 53.3043 25.3338 52.6245 24.7746 52.0615C24.2155 51.4985 23.5261 51.2171 22.7065 51.2171C21.8793 51.2171 21.188 51.4985 20.6327 52.0615C20.0774 52.6245 19.7997 53.3043 19.7997 54.1009C19.7997 54.9128 20.0774 55.6022 20.6327 56.169C21.188 56.7358 21.8755 57.0192 22.6951 57.0192ZM28.4455 58.3405V49.8383H30.8238C31.7966 49.846 32.5472 50.0853 33.0757 50.5564C33.6042 51.0275 33.8685 51.6728 33.8685 52.4924C33.8685 53.266 33.6119 53.8979 33.0987 54.3881C32.5855 54.8783 31.8272 55.1234 30.8238 55.1234H30.0195V58.3405H28.4455ZM30.0195 51.3664V53.5953H30.9502C31.3791 53.5953 31.7085 53.5034 31.9382 53.3196C32.168 53.1358 32.2868 52.8562 32.2944 52.4809C32.2944 52.1132 32.1776 51.8356 31.944 51.6479C31.7104 51.4602 31.3791 51.3664 30.9502 51.3664H30.0195ZM37.8438 58.3405V49.8383H39.9808L42.2327 56.3413L44.4846 49.8383H46.6217V58.3405H45.0476V51.9753L42.8991 58.3405H41.5663L39.4178 51.9753V58.3405H37.8438ZM52.3836 49.689C53.6474 49.689 54.7102 50.1217 55.5719 50.9873C56.4336 51.8528 56.8644 52.9022 56.8644 54.1353C56.8644 55.3685 56.4317 56.4122 55.5661 57.2662C54.7006 58.1202 53.6397 58.5473 52.3836 58.5473C51.1197 58.5473 50.0551 58.1202 49.1895 57.2662C48.324 56.4122 47.8951 55.3685 47.9027 54.1353C47.9027 52.9022 48.3316 51.8528 49.1895 50.9873C50.0474 50.1217 51.1121 49.689 52.3836 49.689ZM52.3721 57.0192C53.1993 57.0192 53.8925 56.7339 54.4517 56.1632C55.0108 55.5926 55.2904 54.9051 55.2904 54.1009C55.2904 53.3043 55.0108 52.6245 54.4517 52.0615C53.8925 51.4985 53.2031 51.2171 52.3836 51.2171C51.5563 51.2171 50.8651 51.4985 50.3097 52.0615C49.7544 52.6245 49.4768 53.3043 49.4768 54.1009C49.4768 54.9128 49.7544 55.6022 50.3097 56.169C50.8651 56.7358 51.5525 57.0192 52.3721 57.0192ZM58.1225 58.3405V49.8383H60.1676C61.1557 49.846 61.8948 50.047 62.3851 50.4415C62.8753 50.836 63.1204 51.3817 63.1204 52.0788C63.1204 52.4617 63.0361 52.7892 62.8676 53.0611C62.6991 53.333 62.4731 53.5456 62.1897 53.6988C62.6417 53.8519 62.9959 54.1124 63.2525 54.48C63.5091 54.8477 63.6374 55.2728 63.6374 55.7553C63.6374 56.5826 63.354 57.2202 62.7872 57.6683C62.2204 58.1164 61.374 58.3405 60.248 58.3405H58.1225ZM59.6965 56.8124H60.7191C61.148 56.82 61.4793 56.7281 61.7129 56.5366C61.9465 56.3451 62.0634 56.0809 62.0634 55.7439C62.0634 55.4068 61.9485 55.1407 61.7187 54.9453C61.4889 54.75 61.1557 54.6485 60.7191 54.6409H59.6965V56.8124ZM59.6965 53.1128H60.4319C60.7919 53.1128 61.0657 53.0343 61.2534 52.8773C61.441 52.7202 61.5387 52.5077 61.5463 52.2396C61.5463 51.9485 61.4506 51.7302 61.2591 51.5847C61.0676 51.4392 60.7919 51.3664 60.4319 51.3664H59.6965V53.1128ZM64.9644 58.3405V49.8383H66.5385V58.3405H64.9644ZM68.2906 58.3405V49.8383H69.8646V56.8124H72.4612V58.3405H68.2906ZM73.4895 58.3405V49.8383H78.0508V51.3664H75.0636V53.3311H77.9244V54.8592H75.0636V56.8124H78.0508V58.3405H73.4895ZM81.7274 58.3405L85.2661 49.8383H86.53L90.0687 58.3405H88.3338L87.4606 56.146H84.3355L83.4623 58.3405H81.7274ZM84.9329 54.6179H86.8631L85.898 52.1362L84.9329 54.6179ZM91.074 58.3405V49.8383H93.4523C94.4251 49.846 95.1757 50.0853 95.7042 50.5564C96.2327 51.0275 96.497 51.6728 96.497 52.4924C96.497 53.266 96.2404 53.8979 95.7272 54.3881C95.214 54.8783 94.4557 55.1234 93.4523 55.1234H92.648V58.3405H91.074ZM92.648 51.3664V53.5953H93.5787C94.0076 53.5953 94.337 53.5034 94.5668 53.3196C94.7966 53.1358 94.9153 52.8562 94.9229 52.4809C94.9229 52.1132 94.8061 51.8356 94.5725 51.6479C94.3389 51.4602 94.0076 51.3664 93.5787 51.3664H92.648ZM97.6517 58.3405V49.8383H100.03C101.003 49.846 101.753 50.0853 102.282 50.5564C102.81 51.0275 103.075 51.6728 103.075 52.4924C103.075 53.266 102.818 53.8979 102.305 54.3881C101.792 54.8783 101.033 55.1234 100.03 55.1234H99.2257V58.3405H97.6517ZM99.2257 51.3664V53.5953H100.156C100.585 53.5953 100.915 53.5034 101.144 53.3196C101.374 53.1358 101.493 52.8562 101.501 52.4809C101.501 52.1132 101.384 51.8356 101.15 51.6479C100.917 51.4602 100.585 51.3664 100.156 51.3664H99.2257ZM24.6827 71.1064V62.6043H27.038C28.4551 62.6043 29.5695 62.9662 30.3814 63.69C31.1934 64.4139 31.5993 65.4843 31.5993 66.9013C31.5993 68.1498 31.224 69.1628 30.4734 69.9402C29.7227 70.7177 28.5891 71.1064 27.0725 71.1064H24.6827ZM26.2568 69.5783H27.0265C27.9917 69.586 28.7308 69.3715 29.244 68.9349C29.7572 68.4983 30.0176 67.8205 30.0253 66.9013C30.0253 65.9515 29.7591 65.2526 29.2268 64.8045C28.6944 64.3564 27.9342 64.1324 26.9461 64.1324H26.2568V69.5783ZM32.8689 71.1064V62.6043H37.4302V64.1324H34.4429V66.0971H37.3038V67.6251H34.4429V69.5783H37.4302V71.1064H32.8689ZM41.5721 71.1064L38.2861 62.6043H39.9406L42.227 69.0728L44.5134 62.6043H46.1678L42.8819 71.1064H41.5721ZM47.1731 71.1064V62.6043H51.7344V64.1324H48.7472V66.0971H51.608V67.6251H48.7472V69.5783H51.7344V71.1064H47.1731ZM53.2912 71.1064V62.6043H54.8653V69.5783H57.4619V71.1064H53.2912ZM62.2012 62.4549C63.4651 62.4549 64.5278 62.8877 65.3895 63.7532C66.2512 64.6188 66.6821 65.6681 66.6821 66.9013C66.6821 68.1345 66.2493 69.1781 65.3838 70.0322C64.5182 70.8862 63.4574 71.3132 62.2012 71.3132C60.9374 71.3132 59.8727 70.8862 59.0072 70.0322C58.1416 69.1781 57.7127 68.1345 57.7204 66.9013C57.7204 65.6681 58.1493 64.6188 59.0072 63.7532C59.8651 62.8877 60.9297 62.4549 62.2012 62.4549ZM62.1897 69.7851C63.017 69.7851 63.7102 69.4998 64.2693 68.9292C64.8285 68.3585 65.108 67.6711 65.108 66.8668C65.108 66.0702 64.8285 65.3905 64.2693 64.8275C63.7102 64.2645 63.0208 63.983 62.2012 63.983C61.374 63.983 60.6827 64.2645 60.1274 64.8275C59.5721 65.3905 59.2944 66.0702 59.2944 66.8668C59.2944 67.6788 59.5721 68.3681 60.1274 68.9349C60.6827 69.5017 61.3702 69.7851 62.1897 69.7851ZM67.9402 71.1064V62.6043H70.3185C71.2912 62.6119 72.0419 62.8513 72.5704 63.3224C73.0989 63.7934 73.3631 64.4387 73.3631 65.2583C73.3631 66.0319 73.1066 66.6639 72.5934 67.1541C72.0802 67.6443 71.3219 67.8894 70.3185 67.8894H69.5142V71.1064H67.9402ZM69.5142 64.1324V66.3613H70.4448C70.8738 66.3613 71.2031 66.2694 71.4329 66.0856C71.6627 65.9017 71.7814 65.6222 71.7891 65.2468C71.7891 64.8792 71.6723 64.6015 71.4387 64.4139C71.2051 64.2262 70.8738 64.1324 70.4448 64.1324H69.5142ZM74.5178 71.1064V62.6043H79.0791V64.1324H76.0919V66.0971H78.9527V67.6251H76.0919V69.5783H79.0791V71.1064H74.5178ZM80.6359 71.1064V62.6043H83.0946C84.121 62.6043 84.91 62.8456 85.4614 63.3281C86.0129 63.8107 86.2887 64.4694 86.2887 65.3043C86.2887 66.0013 86.0761 66.6045 85.651 67.1139C85.2259 67.6232 84.6725 67.9085 83.9908 67.9698L86.3806 71.1064H84.4389L82.2329 67.9698H82.21V71.1064H80.6359ZM82.21 64.1324V66.66H83.1406C83.6231 66.66 84.0061 66.5585 84.2895 66.3556C84.5729 66.1526 84.7146 65.8328 84.7146 65.3962C84.707 64.9673 84.5634 64.6494 84.2838 64.4426C84.0042 64.2358 83.6231 64.1324 83.1406 64.1324H82.21ZM86.8229 68.7166H88.4659C88.4736 69.046 88.5865 69.3064 88.8048 69.4979C89.0231 69.6894 89.2893 69.7851 89.6034 69.7851C89.9404 69.7851 90.2161 69.6856 90.4306 69.4864C90.6451 69.2873 90.7523 69.0307 90.7523 68.7166C90.7523 68.4102 90.6527 68.1441 90.4536 67.9181C90.2544 67.6922 89.9404 67.5064 89.5114 67.3609C89.0748 67.223 88.8374 67.1464 88.7991 67.1311C88.7608 67.1158 88.7225 67.0966 88.6842 67.0736C88.1557 66.8592 87.7651 66.5566 87.5123 66.166C87.2595 65.7753 87.1331 65.3426 87.1331 64.8677C87.1331 64.1783 87.3763 63.6039 87.8627 63.1443C88.3491 62.6847 88.9485 62.4549 89.6608 62.4549C90.3425 62.4549 90.9131 62.677 91.3727 63.1213C91.8323 63.5656 92.0812 64.1477 92.1195 64.8677H90.4995C90.4919 64.6073 90.4076 64.3947 90.2468 64.23C90.0859 64.0653 89.8753 63.983 89.6148 63.983C89.3468 63.9907 89.1265 64.073 88.9542 64.23C88.7819 64.3871 88.6995 64.6034 88.7072 64.8792C88.7072 65.1243 88.7857 65.3273 88.9427 65.4881C89.0997 65.649 89.3851 65.7907 89.7987 65.9132C90.0438 65.9975 90.2161 66.0568 90.3157 66.0913C90.4153 66.1258 90.511 66.1583 90.6029 66.189C91.1238 66.4034 91.5412 66.7136 91.8553 67.1196C92.1693 67.5256 92.3263 68.0273 92.3263 68.6247C92.3263 69.3907 92.0659 70.0302 91.5451 70.5434C91.0242 71.0566 90.3655 71.3132 89.5689 71.3132C88.7799 71.3132 88.1251 71.0643 87.6042 70.5664C87.0834 70.0685 86.8229 69.4519 86.8229 68.7166Z" fill="white"/>
</g>
<defs>
<clipPath id="clip0_1716_9580">
<rect width="116.17" height="120" fill="white" transform="translate(0.255859)"/>
</clipPath>
</defs>
</svg>
