<svg width="141" height="120" viewBox="0 0 141 120" fill="none" xmlns="http://www.w3.org/2000/svg">
<g clip-path="url(#clip0_1716_9533)">
<path d="M69.9017 117.24C101.475 117.24 127.071 91.6577 127.071 60.1005C127.071 28.5432 101.475 2.96106 69.9017 2.96106C38.328 2.96106 12.7324 28.5432 12.7324 60.1005C12.7324 91.6577 38.328 117.24 69.9017 117.24Z" fill="white" stroke="#4385F4" stroke-width="8.07" stroke-miterlimit="10"/>
<path d="M69.9025 113.377C99.343 113.377 123.209 89.5244 123.209 60.1004C123.209 30.6765 99.343 6.82361 69.9025 6.82361C40.462 6.82361 16.5957 30.6765 16.5957 60.1004C16.5957 89.5244 40.462 113.377 69.9025 113.377Z" stroke="#4385F4" stroke-width="2.02" stroke-miterlimit="10" stroke-linecap="round" stroke-dasharray="2.02 4.04 2.02 4.04 2.02 4.04"/>
<path d="M99.914 53.4905C99.922 53.7672 99.8705 54.0424 99.7629 54.2975C99.6552 54.5526 99.494 54.7815 99.2901 54.9688C98.863 55.3617 98.2976 55.5691 97.7178 55.5457C97.2679 55.5508 96.825 55.4341 96.436 55.2081C96.0928 55.0213 95.7996 54.7546 95.5814 54.4305L96.436 53.6656C96.4875 53.7449 96.5461 53.8193 96.6111 53.8878C96.755 54.0458 96.9306 54.1717 97.1265 54.2571C97.3223 54.3425 97.534 54.3856 97.7477 54.3835C98.0109 54.3994 98.27 54.312 98.4698 54.1399C98.5616 54.0553 98.6331 53.951 98.679 53.8348C98.7249 53.7187 98.7439 53.5936 98.7347 53.4691C98.7347 53.1401 98.5253 52.9136 98.1109 52.794C97.2862 52.5419 96.829 52.4009 96.782 52.3667C96.4619 52.2207 96.1797 52.0028 95.9574 51.7301C95.7516 51.4068 95.6516 51.0275 95.6711 50.6448C95.6655 50.3809 95.7173 50.119 95.8228 49.877C95.9282 49.635 96.085 49.4189 96.2821 49.2434C96.6774 48.8764 97.1998 48.6772 97.7391 48.6879C98.1518 48.6836 98.5589 48.7836 98.9227 48.9784C99.2327 49.1255 99.5003 49.349 99.7003 49.6279L98.9483 50.4184C98.8403 50.3072 98.7215 50.207 98.5937 50.1193C98.3576 49.9298 98.0672 49.8205 97.7648 49.8074C97.544 49.797 97.3256 49.8569 97.141 49.9783C97.0454 50.0488 96.9689 50.1419 96.9181 50.2493C96.8674 50.3567 96.8442 50.475 96.8504 50.5935C96.8409 50.7068 96.862 50.8205 96.9116 50.9228C96.9612 51.0251 97.0375 51.1121 97.1324 51.1746C97.4631 51.3375 97.8157 51.4512 98.1792 51.5122C98.6555 51.6081 99.0926 51.843 99.4354 52.1873C99.6019 52.3589 99.7305 52.5636 99.813 52.7881C99.8954 53.0126 99.9298 53.2519 99.914 53.4905ZM94.385 55.4645L93.1716 55.6439V51.1789C93.1983 50.8566 93.1021 50.536 92.9024 50.2816C92.794 50.1822 92.6666 50.1058 92.5277 50.0574C92.3888 50.0089 92.2416 49.9892 92.0948 49.9996C91.9005 49.9923 91.7079 50.0382 91.5377 50.1323C91.3675 50.2264 91.2263 50.3652 91.1292 50.5337C90.9859 50.7635 90.9076 51.0278 90.9027 51.2985V55.4559L89.6936 55.6824V51.2088C89.7153 50.8864 89.6214 50.5667 89.4287 50.3073C89.3393 50.2049 89.2279 50.124 89.1028 50.0707C88.9778 50.0175 88.8423 49.9932 88.7066 49.9996H88.5912C88.4009 49.9884 88.2115 50.034 88.0472 50.1306C87.8829 50.2272 87.751 50.3705 87.6683 50.5423C87.5121 50.8654 87.4372 51.2219 87.4504 51.5805V55.4559L86.1942 55.6824V49.1365L87.3265 48.94V49.7945C87.4302 49.6254 87.5536 49.4691 87.6939 49.3288C87.8426 49.1806 88.0192 49.0634 88.2136 48.9842C88.408 48.905 88.6163 48.8652 88.8262 48.8674C89.179 48.8147 89.5392 48.886 89.8454 49.0691C90.1515 49.2522 90.3848 49.5357 90.5054 49.8714C90.6791 49.5514 90.9377 49.2855 91.2529 49.1031C91.568 48.9207 91.9274 48.8287 92.2914 48.8374C92.6042 48.8138 92.918 48.8664 93.206 48.9907C93.494 49.115 93.7475 49.3072 93.9449 49.551C94.2651 50.0609 94.4148 50.6595 94.3722 51.2601L94.385 55.4645ZM85.3653 48.8759L84.7927 50.2047C84.7173 50.1995 84.6417 50.1995 84.5663 50.2047C84.449 50.2048 84.3319 50.2133 84.2159 50.2304C84.084 50.2579 83.9561 50.3024 83.8356 50.3628C83.5404 50.5214 83.3082 50.7762 83.1776 51.0849C82.967 51.4991 82.8585 51.9576 82.8614 52.4223V55.473L81.648 55.6696V49.1365L82.7717 48.9314V50.2902C82.9127 50.0552 83.0665 49.8202 83.199 49.5766C83.3922 49.3451 83.6405 49.1658 83.9211 49.0554C84.1829 48.973 84.4544 48.9256 84.7286 48.9144C84.9393 48.8824 85.1523 48.8696 85.3653 48.8759ZM79.9004 55.4645L78.687 55.6354V49.1365L79.9004 48.9485V55.4645ZM80.144 47.389L79.3322 48.4273L78.5545 47.389L79.3749 46.3593L80.144 47.389ZM77.4222 48.0726H74.034V50.4184H76.666V51.619H74.034V55.4645L72.7137 55.661V46.8634H77.1616L77.4222 48.0726ZM69.9663 52.3112C69.9748 52.0047 69.9209 51.6996 69.8077 51.4146C69.6946 51.1296 69.5247 50.8706 69.3083 50.6534C69.1186 50.4404 68.8863 50.2696 68.6266 50.1518C68.3668 50.0341 68.0852 49.972 67.8 49.9697C67.5131 49.9594 67.2273 50.0122 66.963 50.1244C66.6987 50.2366 66.4623 50.4055 66.2704 50.6192C65.9031 51.0348 65.705 51.5729 65.7149 52.1275C65.693 52.7287 65.8956 53.3166 66.2832 53.7767C66.4617 53.9849 66.6843 54.1508 66.9348 54.2624C67.1853 54.374 67.4575 54.4285 67.7317 54.4219C68.3006 54.4259 68.8495 54.2118 69.2656 53.8237C69.4855 53.6382 69.6619 53.4064 69.7823 53.145C69.9027 52.8836 69.964 52.599 69.962 52.3112H69.9663ZM71.0345 55.4645L69.8937 55.6439V54.5287L69.6501 54.8107C69.4347 55.0124 69.1915 55.1822 68.928 55.3149C68.5405 55.4972 68.1172 55.5906 67.6889 55.5884C67.2628 55.5946 66.8403 55.5089 66.4502 55.3371C66.0602 55.1653 65.7117 54.9115 65.4287 54.5928C64.8253 53.9539 64.4956 53.1044 64.51 52.2257C64.4931 51.3291 64.8185 50.4597 65.4201 49.7945C65.6954 49.4721 66.0384 49.2142 66.4246 49.0392C66.8108 48.8642 67.2308 48.7763 67.6548 48.7819C68.1077 48.7722 68.5576 48.8581 68.975 49.034C69.2274 49.1509 69.4563 49.3131 69.6501 49.5125C69.7142 49.598 69.7783 49.692 69.8424 49.7732V46.8549L71.0516 46.6754L71.0345 55.4645ZM62.5189 52.2471C62.5267 51.9532 62.4754 51.6608 62.3683 51.3871C62.2612 51.1134 62.1003 50.8639 61.8951 50.6534C61.6995 50.4407 61.4607 50.2723 61.1946 50.1595C60.9286 50.0468 60.6415 49.9923 60.3526 49.9996C60.0725 49.9974 59.7953 50.0567 59.5406 50.1734C59.2859 50.29 59.0599 50.4612 58.8785 50.6747C58.4853 51.0916 58.268 51.6441 58.2718 52.2172C58.2633 52.7966 58.4845 53.3557 58.8871 53.7725C59.0814 53.9833 59.3182 54.1506 59.5819 54.2632C59.8455 54.3759 60.13 54.4315 60.4167 54.4262C60.6933 54.4281 60.9672 54.3717 61.2205 54.2605C61.4738 54.1493 61.7007 53.9859 61.8865 53.781C62.0897 53.5812 62.2502 53.3423 62.3582 53.0786C62.4661 52.8149 62.5194 52.532 62.5146 52.2471H62.5189ZM63.758 52.2471C63.764 52.6927 63.681 53.1351 63.5137 53.5482C63.3464 53.9613 63.0983 54.3368 62.7838 54.6526C62.4765 54.972 62.1078 55.226 61.7 55.3995C61.2922 55.573 60.8535 55.6625 60.4103 55.6625C59.9671 55.6625 59.5285 55.573 59.1206 55.3995C58.7128 55.226 58.3442 54.972 58.0368 54.6526C57.7147 54.339 57.4605 53.9624 57.29 53.5464C57.1195 53.1304 57.0363 52.6838 57.0455 52.2343C57.0342 51.3315 57.3743 50.4596 57.9941 49.8031C58.2829 49.4734 58.6401 49.2105 59.0407 49.0327C59.4414 48.8549 59.8759 48.7664 60.3142 48.7734C60.7736 48.7565 61.2314 48.836 61.6582 49.0068C62.085 49.1775 62.4713 49.4356 62.7924 49.7646C63.1109 50.0884 63.3604 50.4735 63.5256 50.8965C63.6909 51.3196 63.7685 51.7718 63.7537 52.2257L63.758 52.2471ZM54.6571 52.2471C54.6638 51.9534 54.6122 51.6612 54.5051 51.3876C54.398 51.114 54.2376 50.8644 54.0332 50.6534C53.8368 50.4406 53.5972 50.2722 53.3305 50.1594C53.0638 50.0467 52.776 49.9922 52.4865 49.9996C52.207 49.9978 51.9306 50.0573 51.6766 50.1739C51.4226 50.2906 51.1974 50.4615 51.0167 50.6747C50.6234 51.0916 50.4061 51.6441 50.41 52.2172C50.4014 52.7966 50.6226 53.3557 51.0252 53.7725C51.2187 53.9832 51.4548 54.1504 51.7177 54.2631C51.9807 54.3758 52.2646 54.4314 52.5506 54.4262C52.8279 54.4287 53.1026 54.3726 53.3567 54.2614C53.6108 54.1502 53.8384 53.9865 54.0247 53.781C54.2263 53.5801 54.3857 53.3409 54.4936 53.0774C54.6014 52.814 54.6556 52.5317 54.6528 52.2471H54.6571ZM55.8962 52.2471C55.9024 52.6931 55.819 53.1359 55.6509 53.5491C55.4828 53.9623 55.2335 54.3376 54.9177 54.6526C54.611 54.9724 54.2429 55.2268 53.8354 55.4006C53.4278 55.5744 52.9894 55.664 52.5463 55.664C52.1033 55.664 51.6648 55.5744 51.2573 55.4006C50.8498 55.2268 50.4816 54.9724 50.175 54.6526C49.8515 54.3398 49.5961 53.9635 49.4248 53.5474C49.2535 53.1312 49.1699 52.6842 49.1794 52.2343C49.168 51.3315 49.5082 50.4596 50.128 49.8031C50.4175 49.4731 50.7753 49.21 51.1767 49.0322C51.5781 48.8544 52.0134 48.7661 52.4523 48.7734C52.9117 48.7568 53.3694 48.8364 53.7962 49.0071C54.2229 49.1778 54.6093 49.4359 54.9305 49.7646C55.249 50.0884 55.4985 50.4735 55.6638 50.8965C55.829 51.3196 55.9066 51.7718 55.8919 52.2257L55.8962 52.2471ZM47.9232 54.5886C47.7181 54.7296 47.5643 54.8321 47.4532 54.8962C47.1011 55.1176 46.7326 55.3119 46.3509 55.4773C45.9294 55.666 45.4751 55.7705 45.0135 55.7849C43.7492 55.8275 42.5198 55.3665 41.5953 54.5031C41.1504 54.0978 40.798 53.6014 40.562 53.0477C40.3261 52.494 40.2122 51.8959 40.228 51.2943C40.2108 50.0974 40.6509 48.939 41.4586 48.0555C41.825 47.6207 42.2833 47.2725 42.8005 47.036C43.3177 46.7996 43.8809 46.6808 44.4495 46.6883C44.9787 46.6932 45.5037 46.7827 46.0048 46.9532C46.6449 47.148 47.2303 47.4905 47.7139 47.953L46.9277 48.8332C46.5667 48.4902 46.1262 48.2421 45.6459 48.1111C45.2372 47.9959 44.8142 47.9397 44.3897 47.9444C43.9907 47.9411 43.5963 48.0295 43.237 48.2029C42.8777 48.3762 42.563 48.6299 42.3174 48.9443C41.7634 49.6218 41.4695 50.4748 41.4885 51.3498C41.4766 51.7774 41.555 52.2027 41.7184 52.5981C41.8818 52.9934 42.1267 53.3499 42.437 53.6443C42.7588 53.949 43.1379 54.1867 43.5523 54.3437C43.9668 54.5006 44.4082 54.5737 44.8511 54.5586C45.2925 54.5473 45.7223 54.4159 46.0945 54.1784C46.4491 53.9049 46.6286 53.7767 46.6371 53.7511V51.8326H44.0008L44.3811 50.6363H47.8848L47.9232 54.5886Z" fill="#4385F4"/>
<path d="M68.4704 26.5892C68.4704 26.5892 67.321 26.4739 67.321 27.4908V32.0028H74.9052V33.3573C74.9089 33.4486 74.8935 33.5397 74.8598 33.6246C74.8262 33.7096 74.7751 33.7866 74.7099 33.8506C74.6447 33.9146 74.5667 33.9643 74.4812 33.9963C74.3956 34.0283 74.3042 34.0421 74.213 34.0366H67.321V39.9031H75.5931C75.5931 39.9031 80.6007 39.1383 80.6477 34.0366V26.5892H68.4704ZM80.2162 19.2786H65.4624C60.1257 20.5604 60.0146 24.9699 60.0146 24.9699V39.9245H65.6889V26.3072C65.6911 25.9836 65.8056 25.6707 66.0129 25.4221C66.2202 25.1735 66.5074 25.0046 66.8254 24.9442H80.2162V19.2786Z" fill="#4385F4"/>
<path d="M138.685 71.2694H123.209V95.3335H138.685L133.716 84.0321L138.685 71.2694Z" fill="#3876DF"/>
<path d="M1.11914 71.2694H16.595V95.3335H1.11914L6.08407 84.0321L1.11914 71.2694Z" fill="#3876DF"/>
<path d="M130.947 63.1041L123.209 71.2309V95.2907L130.947 87.1682V63.1041Z" fill="#2354A6"/>
<path d="M8.85742 63.1041L16.5954 71.2309V95.2907L8.85742 87.1682V63.1041Z" fill="#2354A6"/>
<path d="M87.0739 97.7091C87.2398 97.5122 87.3279 97.2615 87.3218 97.0041C87.3218 96.9657 87.3218 96.8888 87.3218 96.7777C87.3218 96.6666 87.3218 96.5854 87.3218 96.5469C87.3271 96.2897 87.2391 96.0392 87.0739 95.8419C86.9089 95.6857 86.6902 95.5986 86.4629 95.5986C86.2356 95.5986 86.017 95.6857 85.8519 95.8419C85.6868 96.0392 85.5988 96.2897 85.6041 96.5469V96.9913C85.598 97.2487 85.6861 97.4994 85.8519 97.6963C86.017 97.8526 86.2356 97.9397 86.4629 97.9397C86.6902 97.9397 86.9089 97.8526 87.0739 97.6963V97.7091ZM85.4418 98.0339C85.1913 97.7615 85.0538 97.4041 85.0572 97.034V96.7777V96.517C85.0552 96.1478 85.1942 95.7916 85.446 95.5215C85.7293 95.279 86.09 95.1457 86.4629 95.1457C86.8359 95.1457 87.1965 95.279 87.4799 95.5215C87.7331 95.7907 87.8725 96.1474 87.8687 96.517C87.8687 96.6068 87.8687 96.6922 87.8687 96.7777C87.8687 96.8631 87.8687 96.9486 87.8687 97.034C87.8733 97.4035 87.7373 97.7609 87.4884 98.0339C87.3521 98.1629 87.1908 98.2625 87.0143 98.3264C86.8379 98.3904 86.6502 98.4173 86.4629 98.4056C86.2784 98.416 86.0936 98.3883 85.9202 98.3244C85.7467 98.2604 85.5882 98.1616 85.4546 98.0339H85.4418ZM82.1176 98.0339C81.9899 97.8963 81.8905 97.735 81.8253 97.559C81.76 97.383 81.7301 97.1959 81.7373 97.0084V96.7691V96.5256C81.724 96.1483 81.8607 95.7811 82.1176 95.5044C82.2517 95.3777 82.4104 95.2797 82.5838 95.2165C82.7572 95.1533 82.9417 95.1263 83.1259 95.1369C83.3783 95.1291 83.6288 95.1819 83.8566 95.2908C84.0378 95.3765 84.1928 95.5093 84.3052 95.6753C84.3965 95.8115 84.451 95.969 84.4633 96.1325C84.4655 96.1508 84.4632 96.1693 84.4565 96.1865C84.4498 96.2036 84.4389 96.2189 84.4248 96.2308C84.4122 96.2441 84.3969 96.2548 84.3801 96.2622C84.3632 96.2695 84.345 96.2734 84.3266 96.2735H84.0617C84.0283 96.276 83.9951 96.267 83.9677 96.2479C83.9437 96.2162 83.9236 96.1817 83.9078 96.1453C83.8584 95.9736 83.7532 95.8232 83.6087 95.718C83.4649 95.6305 83.2984 95.5874 83.1302 95.5941C83.0189 95.5886 82.9077 95.6067 82.8038 95.6472C82.7 95.6877 82.6059 95.7497 82.5277 95.8291C82.3622 96.031 82.2757 96.2861 82.2842 96.5469V96.9742C82.2741 97.2353 82.3608 97.491 82.5277 97.692C82.6059 97.7715 82.7 97.8335 82.8038 97.874C82.9077 97.9145 83.0189 97.9326 83.1302 97.927C83.2999 97.9346 83.468 97.8915 83.613 97.8031C83.7549 97.6964 83.8584 97.5464 83.9078 97.3759C83.9224 97.3401 83.9426 97.3069 83.9677 97.2776C83.9951 97.2585 84.0283 97.2494 84.0617 97.2519H84.3266C84.3629 97.2524 84.3978 97.2661 84.4248 97.2904C84.4386 97.3025 84.4493 97.3178 84.456 97.3349C84.4627 97.352 84.4652 97.3704 84.4633 97.3887C84.4508 97.5508 84.3964 97.7069 84.3052 97.8416C84.192 98.008 84.0374 98.142 83.8566 98.2304C83.6288 98.3393 83.3783 98.392 83.1259 98.3842C82.9435 98.3986 82.76 98.3757 82.5866 98.3169C82.4133 98.2581 82.2537 98.1648 82.1176 98.0424V98.0339ZM80.3572 98.2988C80.3446 98.2858 80.3347 98.2704 80.3281 98.2535C80.3215 98.2366 80.3183 98.2186 80.3187 98.2005V97.7732C80.3185 97.7355 80.3322 97.699 80.3572 97.6707C80.3693 97.6567 80.3845 97.6455 80.4015 97.6381C80.4185 97.6307 80.4369 97.6273 80.4555 97.628H80.8827C80.9013 97.6273 80.9197 97.6307 80.9367 97.6381C80.9537 97.6455 80.9689 97.6567 80.981 97.6707C81.006 97.699 81.0197 97.7355 81.0195 97.7732V98.2005C81.0201 98.2186 81.0169 98.2367 81.0103 98.2535C81.0036 98.2704 80.9936 98.2857 80.9807 98.2985C80.9679 98.3113 80.9526 98.3214 80.9358 98.328C80.9189 98.3347 80.9009 98.3378 80.8827 98.3372H80.4555C80.4201 98.3404 80.3848 98.3297 80.3572 98.3073V98.2988ZM77.6654 98.2603C77.5017 98.191 77.3557 98.0859 77.2381 97.9527C77.1615 97.8732 77.1121 97.7715 77.0971 97.6621C77.0964 97.6442 77.0999 97.6264 77.1073 97.6101C77.1148 97.5938 77.1259 97.5794 77.1398 97.5681C77.1666 97.5469 77.1996 97.5349 77.2338 97.534H77.4859C77.504 97.5286 77.5233 97.5286 77.5414 97.534C77.5647 97.5485 77.585 97.5674 77.6013 97.5895C77.6873 97.697 77.7932 97.7869 77.9132 97.8544C78.056 97.9264 78.2149 97.9603 78.3746 97.9527C78.5565 97.9607 78.7371 97.9178 78.8959 97.8288C78.9571 97.7934 79.0077 97.7423 79.0423 97.6806C79.0769 97.6189 79.0942 97.5491 79.0925 97.4784C79.0958 97.3906 79.0652 97.3049 79.007 97.2391C78.9269 97.1639 78.8303 97.1083 78.725 97.0768C78.5356 97.0095 78.3413 96.9567 78.1439 96.9187C77.8702 96.8779 77.613 96.7626 77.4004 96.5854C77.328 96.5118 77.2714 96.4242 77.2339 96.328C77.1964 96.2317 77.179 96.1289 77.1825 96.0257C77.1858 95.8737 77.2317 95.7256 77.315 95.5984C77.4131 95.4508 77.5509 95.3338 77.7124 95.2608C77.9068 95.1677 78.1207 95.1223 78.3362 95.1284C78.5595 95.1219 78.7815 95.1657 78.9856 95.2566C79.141 95.3238 79.2796 95.4244 79.3915 95.5514C79.466 95.6301 79.5138 95.7303 79.5283 95.8377C79.5275 95.8547 79.5233 95.8714 79.516 95.8868C79.5086 95.9023 79.4983 95.916 79.4855 95.9274C79.4594 95.9499 79.426 95.9621 79.3915 95.9616H79.1651C79.1406 95.963 79.1161 95.9578 79.0943 95.9465C79.0725 95.9352 79.0542 95.9183 79.0412 95.8975C78.9728 95.8206 78.9173 95.7608 78.8703 95.718C78.8115 95.6689 78.7431 95.6325 78.6695 95.6112C78.562 95.5758 78.4492 95.5599 78.3362 95.5642C78.1757 95.5546 78.0165 95.5981 77.8833 95.6881C77.8328 95.7266 77.7922 95.7764 77.7647 95.8336C77.7372 95.8908 77.7237 95.9537 77.7252 96.0171C77.7243 96.0939 77.7482 96.1688 77.7935 96.2308C77.8619 96.306 77.9488 96.362 78.0456 96.3931C78.2263 96.4595 78.4121 96.5109 78.6011 96.5469C78.8973 96.5893 79.1773 96.7086 79.4129 96.893C79.4921 96.9652 79.5546 97.0539 79.5959 97.1528C79.6373 97.2517 79.6565 97.3585 79.6522 97.4656C79.6547 97.6337 79.6038 97.7982 79.5069 97.9356C79.3977 98.0837 79.2499 98.199 79.0796 98.2689C78.8577 98.3544 78.621 98.3951 78.3832 98.3885C78.1382 98.407 77.8923 98.3674 77.6654 98.2731V98.2603ZM71.9698 98.2988C71.9572 98.2858 71.9473 98.2704 71.9407 98.2535C71.9341 98.2366 71.9309 98.2186 71.9313 98.2005V95.3378C71.9304 95.3196 71.9334 95.3014 71.94 95.2845C71.9466 95.2675 71.9568 95.2522 71.9698 95.2395C71.9819 95.2255 71.9971 95.2143 72.0141 95.207C72.0311 95.1996 72.0495 95.1961 72.0681 95.1968H72.3244C72.3424 95.1957 72.3603 95.1991 72.3767 95.2065C72.3931 95.214 72.4074 95.2253 72.4184 95.2395C72.4314 95.2522 72.4416 95.2675 72.4482 95.2845C72.4549 95.3014 72.4578 95.3196 72.4569 95.3378V95.5429C72.5617 95.4111 72.6959 95.3057 72.8487 95.2353C73.0016 95.1648 73.1688 95.1311 73.3371 95.1369C73.5319 95.1248 73.726 95.1711 73.8942 95.2701C74.0625 95.3691 74.1973 95.5162 74.2813 95.6924C74.3818 95.5199 74.5303 95.3804 74.7086 95.2908C74.8923 95.1871 75.1002 95.134 75.3111 95.1369C75.4619 95.1327 75.6119 95.1606 75.7512 95.2188C75.8904 95.277 76.0157 95.3642 76.1186 95.4745C76.3453 95.7482 76.4585 96.0984 76.4348 96.4529V98.2005C76.4352 98.2186 76.432 98.2366 76.4254 98.2535C76.4188 98.2704 76.409 98.2858 76.3964 98.2988C76.3828 98.3119 76.3667 98.3221 76.3491 98.3287C76.3315 98.3353 76.3126 98.3382 76.2938 98.3372H76.0374C76.0186 98.3382 75.9998 98.3353 75.9822 98.3287C75.9645 98.3221 75.9484 98.3119 75.9349 98.2988C75.9223 98.2858 75.9124 98.2704 75.9058 98.2535C75.8992 98.2366 75.896 98.2186 75.8964 98.2005V96.4914C75.9209 96.2434 75.849 95.9956 75.6956 95.7992C75.6274 95.7297 75.5454 95.6752 75.4549 95.6391C75.3644 95.6031 75.2674 95.5863 75.1701 95.5899C75.0767 95.5889 74.9843 95.6079 74.8988 95.6455C74.8134 95.683 74.7369 95.7384 74.6744 95.8078C74.5169 95.9989 74.4416 96.2448 74.4651 96.4914V98.2005C74.4657 98.2186 74.4625 98.2367 74.4559 98.2535C74.4492 98.2704 74.4392 98.2857 74.4264 98.2985C74.4135 98.3113 74.3982 98.3214 74.3814 98.328C74.3645 98.3347 74.3465 98.3378 74.3284 98.3372H74.0634C74.0446 98.3382 74.0258 98.3353 74.0081 98.3287C73.9905 98.3221 73.9744 98.3119 73.9609 98.2988C73.9483 98.2858 73.9384 98.2704 73.9318 98.2535C73.9252 98.2366 73.922 98.2186 73.9224 98.2005V96.4914C73.9456 96.2435 73.8704 95.9964 73.7131 95.8035C73.6463 95.7341 73.566 95.6793 73.477 95.6425C73.388 95.6057 73.2923 95.5878 73.1961 95.5899C73.1032 95.5892 73.0111 95.6078 72.9258 95.6446C72.8405 95.6814 72.7637 95.7355 72.7004 95.8035C72.5429 95.9947 72.4676 96.2405 72.4911 96.4871V98.1962C72.4917 98.2143 72.4885 98.2324 72.4819 98.2492C72.4752 98.2661 72.4652 98.2814 72.4523 98.2942C72.4395 98.307 72.4242 98.3171 72.4074 98.3238C72.3905 98.3304 72.3725 98.3335 72.3543 98.333H72.0852C72.067 98.3334 72.049 98.3302 72.0322 98.3236C72.0153 98.317 71.9999 98.3071 71.9869 98.2945L71.9698 98.2988ZM69.701 98.2988C69.6884 98.2858 69.6785 98.2704 69.6719 98.2535C69.6653 98.2366 69.6621 98.2186 69.6625 98.2005V95.342C69.6623 95.3043 69.676 95.2678 69.701 95.2395C69.7268 95.2129 69.7621 95.1975 69.7992 95.1968H70.0556C70.0748 95.1957 70.094 95.199 70.1117 95.2064C70.1295 95.2138 70.1454 95.2251 70.1581 95.2395C70.1713 95.253 70.1815 95.2691 70.1881 95.2867C70.1947 95.3044 70.1976 95.3232 70.1966 95.342V95.6069C70.2854 95.4635 70.4124 95.3476 70.5633 95.2722C70.7142 95.1967 70.8831 95.1647 71.0511 95.1797H71.2862C71.305 95.1787 71.3238 95.1816 71.3414 95.1882C71.3591 95.1948 71.3752 95.205 71.3887 95.2181C71.4018 95.2315 71.4116 95.2477 71.4176 95.2655C71.4235 95.2832 71.4253 95.3021 71.4229 95.3207V95.5429C71.4241 95.5613 71.4214 95.5798 71.415 95.5972C71.4086 95.6146 71.3987 95.6304 71.3858 95.6437C71.3729 95.657 71.3574 95.6674 71.3402 95.6743C71.3231 95.6812 71.3046 95.6845 71.2862 95.6839H70.9272C70.8319 95.6789 70.7365 95.6934 70.6469 95.7265C70.5573 95.7595 70.4753 95.8104 70.406 95.8761C70.3415 95.947 70.2917 96.0299 70.2595 96.1201C70.2272 96.2103 70.2131 96.306 70.218 96.4017V98.1834C70.2172 98.2205 70.2019 98.2558 70.1752 98.2817C70.1469 98.3066 70.1104 98.3203 70.0727 98.3201H69.7992C69.766 98.3283 69.731 98.3237 69.701 98.3073V98.2988ZM66.7357 98.2988C66.7231 98.2858 66.7132 98.2704 66.7066 98.2535C66.7 98.2366 66.6968 98.2186 66.6972 98.2005V95.6625H66.176C66.1402 95.6629 66.1055 95.6508 66.0777 95.6283C66.0651 95.6153 66.0552 95.5999 66.0486 95.583C66.042 95.5662 66.0388 95.5481 66.0392 95.53V95.3378C66.0383 95.3196 66.0412 95.3014 66.0479 95.2845C66.0545 95.2675 66.0647 95.2522 66.0777 95.2395C66.0898 95.2255 66.1049 95.2143 66.122 95.207C66.139 95.1996 66.1574 95.1961 66.176 95.1968H66.6972V94.8977C66.678 94.623 66.7635 94.3513 66.9365 94.1371C67.0399 94.0388 67.1633 93.9639 67.2982 93.9175C67.4331 93.8711 67.5764 93.8542 67.7184 93.8679H68.6242C68.6421 93.8679 68.6597 93.8717 68.6759 93.879C68.6921 93.8864 68.7066 93.8972 68.7182 93.9107C68.7308 93.9237 68.7407 93.9391 68.7473 93.9559C68.7539 93.9728 68.7571 93.9908 68.7567 94.0089V94.2012C68.7576 94.2194 68.7547 94.2375 68.748 94.2545C68.7414 94.2714 68.7313 94.2868 68.7182 94.2995C68.6926 94.3227 68.6588 94.335 68.6242 94.3337H67.7312C67.6596 94.3262 67.5872 94.3354 67.5197 94.3606C67.4523 94.3858 67.3916 94.4263 67.3424 94.4789C67.261 94.6137 67.2236 94.7706 67.2356 94.9276V95.1968H68.6242C68.6422 95.1957 68.6601 95.1991 68.6765 95.2065C68.6929 95.214 68.7072 95.2253 68.7182 95.2395C68.7313 95.2522 68.7414 95.2675 68.748 95.2845C68.7547 95.3014 68.7576 95.3196 68.7567 95.3378V98.2005C68.7571 98.2186 68.7539 98.2366 68.7473 98.2535C68.7407 98.2704 68.7308 98.2858 68.7182 98.2988C68.7063 98.3117 68.6918 98.3218 68.6755 98.3285C68.6593 98.3351 68.6418 98.3381 68.6242 98.3372H68.3636C68.3455 98.3378 68.3274 98.3347 68.3106 98.328C68.2937 98.3214 68.2784 98.3113 68.2656 98.2985C68.2528 98.2857 68.2427 98.2704 68.2361 98.2535C68.2294 98.2367 68.2263 98.2186 68.2269 98.2005V95.6625H67.2441V98.2005C67.2448 98.219 67.2413 98.2375 67.2339 98.2545C67.2266 98.2715 67.2154 98.2866 67.2014 98.2988C67.1887 98.3118 67.1734 98.3219 67.1564 98.3286C67.1395 98.3352 67.1213 98.3382 67.1031 98.3372H66.8425C66.8236 98.34 66.8043 98.3387 66.7859 98.3336C66.7675 98.3284 66.7504 98.3195 66.7357 98.3073V98.2988ZM64.6933 97.645C64.8374 97.4524 64.9167 97.219 64.9198 96.9785C64.9198 96.9358 64.9198 96.8589 64.9198 96.7478C64.9198 96.6367 64.9198 96.5598 64.9198 96.5128C64.9178 96.2804 64.8364 96.0557 64.689 95.8761C64.6117 95.7853 64.5143 95.7137 64.4046 95.667C64.2948 95.6202 64.1757 95.5997 64.0567 95.6069C63.937 95.5977 63.8169 95.6178 63.7067 95.6655C63.5965 95.7131 63.4996 95.7869 63.4243 95.8804C63.2825 96.0914 63.2067 96.3398 63.2064 96.5939V96.7691C63.2064 97.5425 63.4927 97.927 64.0609 97.927C64.1805 97.9355 64.3004 97.9151 64.4105 97.8675C64.5206 97.8199 64.6176 97.7465 64.6933 97.6536V97.645ZM62.9842 97.9869C62.7646 97.685 62.645 97.3219 62.6424 96.9486V96.5854C62.6457 96.2128 62.7669 95.8509 62.9885 95.5514C63.1002 95.4087 63.2449 95.2953 63.4101 95.2209C63.5753 95.1465 63.7562 95.1133 63.937 95.1241C64.1217 95.1123 64.3066 95.1449 64.4761 95.2193C64.6456 95.2936 64.7948 95.4075 64.9112 95.5514V94.1542C64.912 94.1171 64.9273 94.0818 64.9539 94.0559C64.967 94.0433 64.9824 94.0334 64.9992 94.0268C65.0161 94.0202 65.0341 94.0171 65.0522 94.0175H65.3257C65.3438 94.0169 65.3618 94.02 65.3787 94.0267C65.3956 94.0333 65.4109 94.0434 65.4237 94.0562C65.4365 94.069 65.4465 94.0843 65.4532 94.1012C65.4599 94.118 65.463 94.1361 65.4624 94.1542V98.1663C65.463 98.1844 65.4599 98.2025 65.4532 98.2193C65.4465 98.2362 65.4365 98.2515 65.4237 98.2643C65.4109 98.2771 65.3956 98.2872 65.3787 98.2938C65.3618 98.3005 65.3438 98.3036 65.3257 98.303H65.065C65.0469 98.304 65.0287 98.301 65.0118 98.2944C64.9948 98.2878 64.9795 98.2776 64.9668 98.2646C64.9443 98.2368 64.9322 98.202 64.9326 98.1663V97.9057C64.816 98.0567 64.6645 98.1773 64.4911 98.2569C64.3177 98.3365 64.1276 98.3729 63.937 98.3629C63.7619 98.3795 63.5853 98.3549 63.4213 98.2911C63.2574 98.2273 63.1106 98.1261 62.9928 97.9954L62.9842 97.9869ZM61.2196 97.7006C61.3854 97.5037 61.4735 97.2529 61.4674 96.9956C61.4674 96.9571 61.4674 96.8802 61.4674 96.7691C61.4674 96.658 61.4674 96.5769 61.4674 96.5384C61.4727 96.2812 61.3847 96.0307 61.2196 95.8334C61.0545 95.6771 60.8359 95.59 60.6086 95.59C60.3813 95.59 60.1626 95.6771 59.9976 95.8334C59.8324 96.0307 59.7444 96.2812 59.7497 96.5384V96.9913C59.7436 97.2487 59.8317 97.4994 59.9976 97.6963C60.1626 97.8526 60.3813 97.9397 60.6086 97.9397C60.8359 97.9397 61.0545 97.8526 61.2196 97.6963V97.7006ZM59.5831 98.0253C59.3356 97.7514 59.1999 97.3946 59.2028 97.0255V96.7691V96.5085C59.2008 96.1392 59.3399 95.7831 59.5917 95.5129C59.875 95.2704 60.2356 95.1372 60.6086 95.1372C60.9815 95.1372 61.3422 95.2704 61.6255 95.5129C61.8773 95.7831 62.0163 96.1392 62.0143 96.5085C62.0143 96.5982 62.0143 96.6837 62.0143 96.7691C62.0143 96.8546 62.0143 96.94 62.0143 97.0255C62.0172 97.3946 61.8815 97.7514 61.634 98.0253C61.3461 98.2651 60.9833 98.3964 60.6086 98.3964C60.2339 98.3964 59.871 98.2651 59.5831 98.0253ZM57.7672 97.7006C57.9336 97.5043 58.0205 97.2528 58.0107 96.9956C58.0107 96.9571 58.0107 96.8802 58.0107 96.7691C58.0107 96.658 58.0107 96.5769 58.0107 96.5384C58.0197 96.2813 57.9329 96.0301 57.7672 95.8334C57.6888 95.7513 57.5937 95.6871 57.4882 95.6451C57.3828 95.603 57.2696 95.5842 57.1562 95.5899C57.0422 95.5844 56.9284 95.6033 56.8223 95.6453C56.7162 95.6873 56.6203 95.7514 56.5409 95.8334C56.3787 96.0321 56.2923 96.2819 56.2974 96.5384V96.9913C56.2916 97.2479 56.378 97.498 56.5409 97.6963C56.6203 97.7783 56.7162 97.8424 56.8223 97.8844C56.9284 97.9264 57.0422 97.9453 57.1562 97.9399C57.27 97.9484 57.3843 97.9322 57.4912 97.8924C57.5982 97.8525 57.6952 97.79 57.7757 97.7091L57.7672 97.7006ZM56.1307 98.0253C55.8818 97.7523 55.7459 97.3949 55.7505 97.0255V96.7691V96.5085C55.7467 96.1389 55.886 95.7821 56.1393 95.5129C56.4226 95.2704 56.7833 95.1372 57.1562 95.1372C57.5291 95.1372 57.8898 95.2704 58.1731 95.5129C58.4249 95.7831 58.564 96.1392 58.5619 96.5085C58.5619 96.5982 58.5619 96.6837 58.5619 96.7691C58.5619 96.8546 58.5619 96.94 58.5619 97.0255C58.5632 97.3951 58.426 97.7518 58.1774 98.0253C57.8905 98.2656 57.5282 98.3972 57.1541 98.3972C56.7799 98.3972 56.4176 98.2656 56.1307 98.0253ZM54.1866 97.6237C54.3332 97.4334 54.4155 97.2015 54.4216 96.9614C54.4216 96.9229 54.4216 96.8546 54.4216 96.7478C54.4216 96.6409 54.4216 96.5811 54.4216 96.5427C54.4155 96.3039 54.3332 96.0733 54.1866 95.8847C54.1104 95.7909 54.0129 95.7167 53.9021 95.6684C53.7913 95.6201 53.6706 95.599 53.55 95.6069C53.4304 95.5967 53.3101 95.6167 53.2003 95.6653C53.0905 95.7138 52.9948 95.7893 52.9219 95.8847C52.7809 96.0944 52.7051 96.3412 52.704 96.5939V96.9144C52.7051 97.1671 52.7809 97.4139 52.9219 97.6237C52.995 97.7186 53.0909 97.7934 53.2007 97.8413C53.3106 97.8891 53.4307 97.9083 53.55 97.8971C53.6709 97.9084 53.7928 97.8901 53.9052 97.844C54.0175 97.7979 54.117 97.7252 54.1952 97.6322L54.1866 97.6237ZM52.7595 99.4951C52.5851 99.4077 52.4375 99.2749 52.3323 99.1106C52.2612 98.9974 52.2201 98.868 52.2126 98.7346C52.2133 98.6996 52.227 98.6661 52.2511 98.6406C52.2781 98.6163 52.313 98.6026 52.3494 98.6021H52.6143C52.6305 98.6008 52.6468 98.6027 52.6622 98.6078C52.6776 98.613 52.6919 98.6212 52.704 98.632C52.7349 98.6575 52.7572 98.6918 52.7681 98.7303C52.8215 98.8859 52.9265 99.0185 53.0655 99.1063C53.2046 99.1941 53.3695 99.2318 53.5329 99.2131C53.7724 99.2325 54.0108 99.1641 54.2037 99.0209C54.2858 98.9285 54.3476 98.8199 54.3851 98.7021C54.4227 98.5844 54.4351 98.4601 54.4216 98.3372V97.9099C54.3036 98.0531 54.1535 98.1664 53.9835 98.2407C53.8135 98.3149 53.6284 98.348 53.4432 98.3372C53.261 98.3484 53.0789 98.3154 52.9122 98.241C52.7456 98.1666 52.5994 98.053 52.4861 97.9099C52.2631 97.6101 52.1445 97.2454 52.1485 96.8717V96.5384C52.1454 96.1662 52.264 95.8031 52.4861 95.5044C52.5989 95.3608 52.745 95.2468 52.9118 95.1723C53.0785 95.0979 53.2609 95.0652 53.4432 95.0771C53.6338 95.0684 53.8237 95.1063 53.9964 95.1874C54.1691 95.2686 54.3195 95.3906 54.4345 95.5429V95.2822C54.4343 95.2445 54.4479 95.208 54.4729 95.1797C54.4988 95.153 54.5341 95.1377 54.5712 95.1369H54.8318C54.8689 95.1377 54.9042 95.153 54.9301 95.1797C54.9551 95.208 54.9687 95.2445 54.9685 95.2822V98.2731C54.9685 99.2003 54.5028 99.666 53.5628 99.666C53.2884 99.6804 53.0149 99.6245 52.7681 99.5037L52.7595 99.4951Z" fill="#4A4A4A"/>
<path d="M130.827 63.1084H8.7373V87.1682H130.827V63.1084Z" fill="#4385F4"/>
<path d="M44.1976 72.8332V68.5989H42.7021V67.7145H46.7698V68.5989H45.2914V72.8332H44.1976Z" fill="white"/>
<path d="M51.854 70.2739C51.854 71.9018 50.9011 72.923 49.3843 72.923C47.8675 72.923 46.9189 71.9018 46.9189 70.2739C46.9189 68.6459 47.8675 67.6248 49.3843 67.6248C50.9011 67.6248 51.854 68.6459 51.854 70.2739ZM48.0085 70.2739C48.0085 71.3463 48.5469 72.0257 49.3843 72.0257C50.2218 72.0257 50.7601 71.3463 50.7601 70.2739C50.7601 69.2014 50.2218 68.5178 49.3843 68.5178C48.5469 68.5178 48.0085 69.2185 48.0085 70.2739Z" fill="white"/>
<path d="M54.6911 67.7145C54.9258 67.7004 55.1608 67.7359 55.3809 67.8187C55.6009 67.9015 55.8011 68.0296 55.9684 68.1949C56.1356 68.3601 56.2662 68.5587 56.3517 68.7778C56.4371 68.9969 56.4755 69.2314 56.4642 69.4663C56.4708 69.7047 56.4274 69.9419 56.3368 70.1626C56.2461 70.3832 56.1103 70.5824 55.9381 70.7475C55.7658 70.9125 55.5609 71.0396 55.3366 71.1206C55.1123 71.2017 54.8735 71.2349 54.6355 71.2181H53.6271V72.8332H52.5547V67.7059L54.6911 67.7145ZM53.6271 70.3807H54.4048C54.5243 70.3807 54.6426 70.3571 54.7531 70.3114C54.8635 70.2657 54.9638 70.1986 55.0483 70.1141C55.1328 70.0296 55.1999 69.9293 55.2456 69.8189C55.2913 69.7084 55.3149 69.5901 55.3149 69.4706C55.3149 69.3511 55.2913 69.2327 55.2456 69.1223C55.1999 69.0119 55.1328 68.9115 55.0483 68.827C54.9638 68.7425 54.8635 68.6755 54.7531 68.6298C54.6426 68.584 54.5243 68.5605 54.4048 68.5605H53.6271V70.3807Z" fill="white"/>
<path d="M59.4849 71.3762C59.5319 71.8035 59.972 72.0727 60.5403 72.0727C61.1086 72.0727 61.5017 71.7992 61.5017 71.4232C61.5017 71.0472 61.2581 70.9062 60.6471 70.7695L59.9806 70.6242C59.0363 70.4191 58.5748 69.9406 58.5748 69.1929C58.5748 68.2486 59.3867 67.6248 60.5318 67.6248C61.6768 67.6248 62.4716 68.24 62.4887 69.1672H61.4846C61.4504 68.7399 61.0573 68.4708 60.536 68.4708C60.0147 68.4708 59.6516 68.7228 59.6516 69.1031C59.6516 69.415 59.8994 69.5945 60.5061 69.7269L61.1257 69.8594C62.1511 70.0816 62.5998 70.5217 62.5998 71.2993C62.5998 72.2949 61.7922 72.923 60.5232 72.923C59.2542 72.923 58.5065 72.3376 58.4766 71.3762H59.4849Z" fill="white"/>
<path d="M68.0053 70.2739C68.0053 71.9018 67.0525 72.923 65.5357 72.923C64.0189 72.923 63.0703 71.9018 63.0703 70.2739C63.0703 68.6459 64.0189 67.6248 65.5357 67.6248C67.0525 67.6248 68.0053 68.6459 68.0053 70.2739ZM64.1599 70.2739C64.1599 71.3463 64.6982 72.0257 65.5357 72.0257C66.3731 72.0257 66.9115 71.3463 66.9115 70.2739C66.9115 69.2014 66.3731 68.5178 65.5357 68.5178C64.6982 68.5178 64.1599 69.2185 64.1599 70.2739Z" fill="white"/>
<path d="M68.6924 72.8332V67.7059H72.0465V68.5904H69.7648V69.9619H71.8457V70.8165H69.7648V72.8332H68.6924Z" fill="white"/>
<path d="M73.9183 72.8332V68.5989H72.4229V67.7145H76.482V68.5989H74.9822V72.8332H73.9183Z" fill="white"/>
<path d="M79.1737 72.8332H78.1654L76.8066 67.7059H77.9176L78.7251 71.4104H78.7507L79.7078 67.7059H80.6137L81.5708 71.4104H81.6092L82.4168 67.7059H83.5277L82.1689 72.8332H81.1563L80.1864 69.3338H80.1565L79.1737 72.8332Z" fill="white"/>
<path d="M86.5781 71.5899H84.7793L84.3862 72.8332H83.2881L85.0655 67.7059H86.3089L88.0864 72.8332H86.9498L86.5781 71.5899ZM85.0271 70.7908H86.3645L85.7065 68.6929H85.6808L85.0271 70.7908Z" fill="white"/>
<path d="M89.6975 72.8332H88.625V67.7059H90.7614C91.9406 67.7059 92.6115 68.3255 92.6115 69.3381C92.625 69.6462 92.5433 69.951 92.3774 70.211C92.2115 70.4709 91.9694 70.6734 91.6843 70.7908L92.761 72.8247H91.5476L90.5819 70.9618H89.7274L89.6975 72.8332ZM89.6975 70.1841H90.6375C90.7495 70.1969 90.8629 70.1849 90.9698 70.149C91.0767 70.113 91.1743 70.0541 91.2559 69.9762C91.3374 69.8983 91.4008 69.8035 91.4416 69.6984C91.4824 69.5933 91.4996 69.4805 91.492 69.368C91.4967 69.2563 91.4775 69.1448 91.4357 69.0411C91.3938 68.9374 91.3304 68.8438 91.2495 68.7665C91.1686 68.6893 91.0722 68.6302 90.9666 68.5932C90.8611 68.5562 90.7489 68.5421 90.6375 68.5519H89.7103L89.6975 70.1841Z" fill="white"/>
<path d="M96.6832 72.8332H93.2949V67.7059H96.6832V68.5904H94.3631V69.8252H96.5636V70.6456H94.3759V71.9274H96.696L96.6832 72.8332Z" fill="white"/>
<path d="M27.3455 76.4309C28.8837 76.4309 29.7852 77.3453 29.7852 78.9689C29.7852 80.5926 28.8837 81.5326 27.3455 81.5326H25.3672V76.4053L27.3455 76.4309ZM26.4439 80.6609H27.2173C28.1744 80.6609 28.6957 80.0798 28.6957 78.9732C28.6957 77.8665 28.153 77.3367 27.2087 77.3367H26.4354L26.4439 80.6609Z" fill="white"/>
<path d="M33.8574 81.5497H30.4648V76.4224H33.8574V77.3367H31.5373V78.5716H33.7249V79.3919H31.5373V80.6737H33.8574V81.5497Z" fill="white"/>
<path d="M36.0236 81.5497L34.3145 76.4224H35.5151L36.6858 80.4387H36.7115L37.8822 76.4224H39.0487L37.3396 81.5497H36.0236Z" fill="white"/>
<path d="M42.9449 81.5497H39.5566V76.4224H42.9449V77.3367H40.6248V78.5716H42.8167V79.3919H40.6248V80.6737H42.9449V81.5497Z" fill="white"/>
<path d="M47.0301 81.5497H43.7188V76.4224H44.7912V80.6524H47.0301V81.5497Z" fill="white"/>
<path d="M52.2303 78.9903C52.2303 80.6182 51.2732 81.6394 49.7607 81.6394C48.2481 81.6394 47.291 80.6182 47.291 78.9903C47.291 77.3624 48.2438 76.3412 49.7607 76.3412C51.2775 76.3412 52.2303 77.3624 52.2303 78.9903ZM48.3848 78.9903C48.3848 80.0627 48.9189 80.7421 49.7607 80.7421C50.6024 80.7421 51.1322 80.0627 51.1322 78.9903C51.1322 77.9178 50.5981 77.2385 49.7607 77.2385C48.9232 77.2385 48.3848 77.9178 48.3848 78.9903Z" fill="white"/>
<path d="M55.0497 76.4308C55.2857 76.4153 55.5222 76.4501 55.7438 76.5329C55.9653 76.6156 56.1667 76.7445 56.3347 76.9109C56.5027 77.0773 56.6335 77.2775 56.7184 77.4982C56.8033 77.7189 56.8404 77.9551 56.8272 78.1912C56.8337 78.4293 56.7903 78.666 56.7 78.8864C56.6096 79.1067 56.4742 79.3057 56.3024 79.4707C56.1306 79.6356 55.9263 79.7628 55.7025 79.8442C55.4786 79.9255 55.2403 79.9592 55.0027 79.943H53.9901V81.5581H52.9219V76.4308H55.0497ZM53.9858 79.097H54.7634C55.0048 79.097 55.2363 79.0011 55.407 78.8305C55.5776 78.6598 55.6735 78.4283 55.6735 78.1869C55.6735 77.9456 55.5776 77.7141 55.407 77.5434C55.2363 77.3727 55.0048 77.2768 54.7634 77.2768H53.9815L53.9858 79.097Z" fill="white"/>
<path d="M62.8779 81.5497H61.9208V78.093H61.8952L60.5023 81.5112H59.8186L58.43 78.093H58.4001V81.5497H57.4473V76.4224H58.6906L60.1434 80.0499H60.1733L61.626 76.4224H62.8694L62.8779 81.5497Z" fill="white"/>
<path d="M67.1158 81.5497H63.7275V76.4224H67.1158V77.3367H64.7957V78.5716H66.9876V79.3919H64.7957V80.6737H67.1158V81.5497Z" fill="white"/>
<path d="M67.8896 81.5497V76.4224H68.7912L71.1839 79.7551H71.2138V76.4224H72.2094V81.5497H71.3548L68.9621 78.1998H68.9279V81.5497H67.8896Z" fill="white"/>
<path d="M74.3197 81.5497V77.3367H72.8242V76.4523H76.909V77.3367H75.4092V81.571L74.3197 81.5497Z" fill="white"/>
<path d="M78.8877 78.9903C78.8877 77.341 79.8234 76.3412 81.3061 76.3412C82.5366 76.3412 83.4766 77.1231 83.5578 78.2682H82.5153C82.4783 77.976 82.3341 77.708 82.1106 77.5162C81.8872 77.3243 81.6005 77.2223 81.3061 77.2299C80.4985 77.2299 79.9772 77.905 79.9772 78.986C79.9772 80.067 80.49 80.7507 81.3103 80.7507C81.5974 80.7668 81.8802 80.6756 82.1037 80.4947C82.3272 80.3138 82.4754 80.0563 82.5195 79.7722H83.5621C83.4382 80.913 82.5622 81.6394 81.3061 81.6394C79.8191 81.6394 78.8877 80.6396 78.8877 78.9903Z" fill="white"/>
<path d="M88.9965 78.9903C88.9965 80.6182 88.0437 81.6394 86.5269 81.6394C85.0101 81.6394 84.0615 80.6182 84.0615 78.9903C84.0615 77.3624 85.0101 76.3412 86.5269 76.3412C88.0437 76.3412 88.9965 77.3624 88.9965 78.9903ZM85.1511 78.9903C85.1511 80.0627 85.6894 80.7421 86.5269 80.7421C87.3643 80.7421 87.9027 80.0627 87.9027 78.9903C87.9027 77.9178 87.3643 77.2385 86.5269 77.2385C85.6894 77.2385 85.1511 77.9178 85.1511 78.9903Z" fill="white"/>
<path d="M95.1024 81.5497H94.1496V78.093H94.124L92.731 81.5112H92.0559L90.6673 78.093H90.6374V81.5497H89.6846V76.4224H90.9279L92.3807 80.0499H92.4106L93.8633 76.4224H95.1024V81.5497Z" fill="white"/>
<path d="M98.0891 76.4309C98.324 76.4162 98.5593 76.4512 98.7797 76.5337C99.0001 76.6163 99.2005 76.7444 99.368 76.9098C99.5354 77.0752 99.6659 77.2741 99.7511 77.4935C99.8363 77.7128 99.8742 77.9477 99.8623 78.1827C99.8688 78.4208 99.8255 78.6576 99.7351 78.8779C99.6448 79.0982 99.5094 79.2973 99.3376 79.4622C99.1658 79.6271 98.9614 79.7544 98.7376 79.8357C98.5138 79.917 98.2755 79.9507 98.0379 79.9346H97.0252V81.5497H95.957V76.4224L98.0891 76.4309ZM97.0252 79.0971H97.8029C98.0442 79.0971 98.2757 79.0012 98.4464 78.8305C98.6171 78.6599 98.7129 78.4284 98.7129 78.187C98.7129 77.9456 98.6171 77.7141 98.4464 77.5435C98.2757 77.3728 98.0442 77.2769 97.8029 77.2769H97.0209L97.0252 79.0971Z" fill="white"/>
<path d="M102.973 80.3276H101.178L100.789 81.571H99.6914L101.469 76.4437H102.725L104.507 81.571H103.366L102.973 80.3276ZM101.405 79.5286H102.742L102.088 77.4307H102.063L101.405 79.5286Z" fill="white"/>
<path d="M105.028 81.5497V76.4224H105.921L108.314 79.7551H108.34V76.4224H109.382V81.5497H108.498L106.084 78.1913H106.054V81.5411L105.028 81.5497Z" fill="white"/>
<path d="M111.672 81.5497V79.6355L109.891 76.4309H111.057L112.202 78.6186H112.228L113.377 76.4352H114.509L112.723 79.6397V81.5539L111.672 81.5497Z" fill="white"/>
</g>
<defs>
<clipPath id="clip0_1716_9533">
<rect width="140.018" height="120" fill="white"/>
</clipPath>
</defs>
</svg>
