<svg width="42" height="40" viewBox="0 0 42 40" fill="none" xmlns="http://www.w3.org/2000/svg">
<path d="M38.7592 40.0001H3.03674C2.23161 39.9992 1.4597 39.679 0.890394 39.1097C0.321083 38.5404 0.000864335 37.7685 0 36.9633L0 11.9511C0 11.8645 0.0344022 11.7814 0.0956386 11.7202C0.156875 11.659 0.239929 11.6245 0.326531 11.6245C0.413132 11.6245 0.496186 11.659 0.557423 11.7202C0.618659 11.7814 0.653061 11.8645 0.653061 11.9511V36.9633C0.653753 37.5953 0.905111 38.2012 1.35199 38.6481C1.79886 39.0949 2.40476 39.3463 3.03674 39.347H38.7592C39.3912 39.3463 39.9971 39.0949 40.4439 38.6481C40.8908 38.2012 41.1422 37.5953 41.1429 36.9633V11.9511C41.1429 11.8645 41.1773 11.7814 41.2385 11.7202C41.2997 11.659 41.3828 11.6245 41.4694 11.6245C41.556 11.6245 41.639 11.659 41.7003 11.7202C41.7615 11.7814 41.7959 11.8645 41.7959 11.9511V36.9633C41.7951 37.7685 41.4748 38.5404 40.9055 39.1097C40.3362 39.679 39.5643 39.9992 38.7592 40.0001Z" fill="#4F5B5E"/>
<path d="M41.4694 12.2794H0.326531C0.239929 12.2794 0.156875 12.245 0.0956386 12.1837C0.0344022 12.1225 0 12.0394 0 11.9528V5.51334C0.000864335 4.70821 0.321083 3.93631 0.890394 3.36699C1.4597 2.79768 2.23161 2.47746 3.03674 2.4766H38.7592C39.5643 2.47746 40.3362 2.79768 40.9055 3.36699C41.4748 3.93631 41.7951 4.70821 41.7959 5.51334V11.9528C41.7959 12.0394 41.7615 12.1225 41.7003 12.1837C41.639 12.245 41.556 12.2794 41.4694 12.2794ZM0.653061 11.6263H41.1429V5.51334C41.1423 4.88133 40.8909 4.27539 40.444 3.82849C39.9971 3.3816 39.3912 3.13027 38.7592 3.12966H3.03674C2.40473 3.13027 1.79879 3.3816 1.35189 3.82849C0.904997 4.27539 0.653666 4.88133 0.653061 5.51334V11.6263Z" fill="#4F5B5E"/>
<path d="M10.0621 5.18103C9.97547 5.18103 9.89241 5.14663 9.83117 5.08539C9.76994 5.02415 9.73554 4.9411 9.73554 4.8545V1.53662C9.73554 1.30825 9.64482 1.08924 9.48334 0.927759C9.32186 0.766279 9.10284 0.67556 8.87447 0.67556C8.64611 0.67556 8.42709 0.766279 8.26561 0.927759C8.10413 1.08924 8.01341 1.30825 8.01341 1.53662V2.80323C8.01341 2.88983 7.97901 2.97289 7.91777 3.03413C7.85654 3.09536 7.77348 3.12976 7.68688 3.12976C7.60028 3.12976 7.51723 3.09536 7.45599 3.03413C7.39475 2.97289 7.36035 2.88983 7.36035 2.80323V1.53662C7.36035 1.13505 7.51988 0.749928 7.80383 0.465975C8.08778 0.182022 8.4729 0.0224991 8.87447 0.0224991C9.27604 0.0224991 9.66117 0.182022 9.94512 0.465975C10.2291 0.749928 10.3886 1.13505 10.3886 1.53662V4.8545C10.3886 4.9411 10.3542 5.02415 10.293 5.08539C10.2317 5.14663 10.1487 5.18103 10.0621 5.18103Z" fill="#4F5B5E"/>
<path d="M17.8031 5.1808C17.7165 5.1808 17.6335 5.1464 17.5722 5.08516C17.511 5.02393 17.4766 4.94087 17.4766 4.85427V1.53639C17.4788 1.42193 17.4582 1.30817 17.4159 1.20177C17.3737 1.09537 17.3106 0.998462 17.2304 0.916723C17.1503 0.834984 17.0546 0.770052 16.9491 0.725725C16.8435 0.681398 16.7302 0.658567 16.6157 0.658567C16.5012 0.658567 16.3879 0.681398 16.2823 0.725725C16.1767 0.770052 16.0811 0.834984 16.0009 0.916723C15.9208 0.998462 15.8577 1.09537 15.8154 1.20177C15.7732 1.30817 15.7526 1.42193 15.7548 1.53639V2.80301C15.7548 2.88961 15.7204 2.97266 15.6591 3.0339C15.5979 3.09514 15.5149 3.12954 15.4283 3.12954C15.3417 3.12954 15.2586 3.09514 15.1974 3.0339C15.1361 2.97266 15.1017 2.88961 15.1017 2.80301V1.53639C15.0988 1.33571 15.1358 1.13644 15.2105 0.950173C15.2853 0.763908 15.3963 0.594365 15.5372 0.451405C15.6781 0.308444 15.846 0.194919 16.0311 0.117431C16.2163 0.0399425 16.415 3.8147e-05 16.6157 3.8147e-05C16.8164 3.8147e-05 17.0151 0.0399425 17.2002 0.117431C17.3854 0.194919 17.5533 0.308444 17.6942 0.451405C17.835 0.594365 17.9461 0.763908 18.0208 0.950173C18.0956 1.13644 18.1326 1.33571 18.1296 1.53639V4.85427C18.1296 4.94087 18.0952 5.02393 18.034 5.08516C17.9728 5.1464 17.8897 5.1808 17.8031 5.1808Z" fill="#4F5B5E"/>
<path d="M25.5445 5.18103C25.4579 5.18103 25.3748 5.14663 25.3136 5.08539C25.2524 5.02415 25.218 4.9411 25.218 4.8545V1.53662C25.218 1.30825 25.1272 1.08924 24.9658 0.927759C24.8043 0.766279 24.5853 0.67556 24.3569 0.67556C24.1285 0.67556 23.9095 0.766279 23.748 0.927759C23.5866 1.08924 23.4958 1.30825 23.4958 1.53662V2.80323C23.4958 2.88984 23.4614 2.97289 23.4002 3.03413C23.339 3.09536 23.2559 3.12976 23.1693 3.12976C23.0827 3.12976 22.9996 3.09536 22.9384 3.03413C22.8772 2.97289 22.8428 2.88984 22.8428 2.80323V1.53662C22.8428 1.13505 23.0023 0.749928 23.2862 0.465975C23.5702 0.182022 23.9553 0.0224991 24.3569 0.0224991C24.7585 0.0224991 25.1436 0.182022 25.4275 0.465975C25.7115 0.749928 25.871 1.13505 25.871 1.53662V4.8545C25.871 4.9411 25.8366 5.02415 25.7754 5.08539C25.7141 5.14663 25.6311 5.18103 25.5445 5.18103Z" fill="#4F5B5E"/>
<path d="M33.2857 5.18103C33.1991 5.18103 33.116 5.14663 33.0548 5.08539C32.9936 5.02415 32.9592 4.9411 32.9592 4.8545V1.53662C32.9592 1.30825 32.8684 1.08924 32.707 0.927759C32.5455 0.766279 32.3265 0.67556 32.0981 0.67556C31.8697 0.67556 31.6507 0.766279 31.4892 0.927759C31.3278 1.08924 31.237 1.30825 31.237 1.53662V2.80323C31.237 2.88984 31.2026 2.97289 31.1414 3.03413C31.0802 3.09536 30.9971 3.12976 30.9105 3.12976C30.8239 3.12976 30.7409 3.09536 30.6796 3.03413C30.6184 2.97289 30.584 2.88984 30.584 2.80323V1.53662C30.584 1.13505 30.7435 0.749928 31.0275 0.465975C31.3114 0.182022 31.6965 0.0224991 32.0981 0.0224991C32.4997 0.0224991 32.8848 0.182022 33.1688 0.465975C33.4527 0.749928 33.6122 1.13505 33.6122 1.53662V4.8545C33.6122 4.9411 33.5778 5.02415 33.5166 5.08539C33.4554 5.14663 33.3723 5.18103 33.2857 5.18103Z" fill="#4F5B5E"/>
<path d="M10.9112 20.5735H6.16442C6.07782 20.5735 5.99477 20.5391 5.93353 20.4778C5.87229 20.4166 5.83789 20.3335 5.83789 20.2469V15.5002C5.83789 15.4136 5.87229 15.3305 5.93353 15.2693C5.99477 15.208 6.07782 15.1736 6.16442 15.1736H10.9112C10.9978 15.1736 11.0809 15.208 11.1421 15.2693C11.2033 15.3305 11.2377 15.4136 11.2377 15.5002V20.2469C11.2377 20.3335 11.2033 20.4166 11.1421 20.4778C11.0809 20.5391 10.9978 20.5735 10.9112 20.5735ZM6.49095 19.9204H10.5847V15.8267H6.49095V19.9204Z" fill="#4F5B5E"/>
<path d="M19.1514 20.5735H14.4047C14.3181 20.5735 14.235 20.5391 14.1738 20.4778C14.1125 20.4166 14.0781 20.3335 14.0781 20.2469V15.5002C14.0781 15.4136 14.1125 15.3305 14.1738 15.2693C14.235 15.208 14.3181 15.1736 14.4047 15.1736H19.1514C19.238 15.1736 19.3211 15.208 19.3823 15.2693C19.4436 15.3305 19.478 15.4136 19.478 15.5002V20.2469C19.478 20.3335 19.4436 20.4166 19.3823 20.4778C19.3211 20.5391 19.238 20.5735 19.1514 20.5735ZM14.7312 19.9204H18.8249V15.8267H14.7312V19.9204Z" fill="#FF725E"/>
<path d="M27.3907 20.5735H22.6439C22.5573 20.5735 22.4743 20.5391 22.413 20.4778C22.3518 20.4166 22.3174 20.3335 22.3174 20.2469V15.5002C22.3174 15.4136 22.3518 15.3305 22.413 15.2693C22.4743 15.208 22.5573 15.1736 22.6439 15.1736H27.3907C27.4773 15.1736 27.5603 15.208 27.6216 15.2693C27.6828 15.3305 27.7172 15.4136 27.7172 15.5002V20.2469C27.7172 20.3335 27.6828 20.4166 27.6216 20.4778C27.5603 20.5391 27.4773 20.5735 27.3907 20.5735ZM22.9704 19.9204H27.0642V15.8267H22.9704V19.9204Z" fill="#FF725E"/>
<path d="M35.6309 20.5735H30.8841C30.7975 20.5735 30.7145 20.5391 30.6533 20.4778C30.592 20.4166 30.5576 20.3335 30.5576 20.2469V15.5002C30.5576 15.4136 30.592 15.3305 30.6533 15.2693C30.7145 15.208 30.7975 15.1736 30.8841 15.1736H35.6309C35.7175 15.1736 35.8006 15.208 35.8618 15.2693C35.9231 15.3305 35.9575 15.4136 35.9575 15.5002V20.2469C35.9575 20.3335 35.9231 20.4166 35.8618 20.4778C35.8006 20.5391 35.7175 20.5735 35.6309 20.5735ZM31.2107 19.9204H35.3044V15.8267H31.2107V19.9204Z" fill="#4F5B5E"/>
<path d="M10.9112 27.9026H6.16442C6.07782 27.9026 5.99477 27.8682 5.93353 27.8069C5.87229 27.7457 5.83789 27.6626 5.83789 27.576V22.8293C5.83789 22.7427 5.87229 22.6596 5.93353 22.5984C5.99477 22.5371 6.07782 22.5027 6.16442 22.5027H10.9112C10.9978 22.5027 11.0809 22.5371 11.1421 22.5984C11.2033 22.6596 11.2377 22.7427 11.2377 22.8293V27.576C11.2377 27.6626 11.2033 27.7457 11.1421 27.8069C11.0809 27.8682 10.9978 27.9026 10.9112 27.9026ZM6.49095 27.2495H10.5847V23.1558H6.49095V27.2495Z" fill="#4F5B5E"/>
<path d="M19.1514 27.9026H14.4047C14.3181 27.9026 14.235 27.8682 14.1738 27.8069C14.1125 27.7457 14.0781 27.6626 14.0781 27.576V22.8293C14.0781 22.7427 14.1125 22.6596 14.1738 22.5984C14.235 22.5371 14.3181 22.5027 14.4047 22.5027H19.1514C19.238 22.5027 19.3211 22.5371 19.3823 22.5984C19.4436 22.6596 19.478 22.7427 19.478 22.8293V27.576C19.478 27.6626 19.4436 27.7457 19.3823 27.8069C19.3211 27.8682 19.238 27.9026 19.1514 27.9026ZM14.7312 27.2495H18.8249V23.1558H14.7312V27.2495Z" fill="#FF725E"/>
<path d="M27.3907 27.9026H22.6439C22.5573 27.9026 22.4743 27.8682 22.413 27.8069C22.3518 27.7457 22.3174 27.6626 22.3174 27.576V22.8293C22.3174 22.7427 22.3518 22.6596 22.413 22.5984C22.4743 22.5371 22.5573 22.5027 22.6439 22.5027H27.3907C27.4773 22.5027 27.5603 22.5371 27.6216 22.5984C27.6828 22.6596 27.7172 22.7427 27.7172 22.8293V27.576C27.7172 27.6626 27.6828 27.7457 27.6216 27.8069C27.5603 27.8682 27.4773 27.9026 27.3907 27.9026ZM22.9704 27.2495H27.0642V23.1558H22.9704V27.2495Z" fill="#FF725E"/>
<path d="M35.6309 27.9026H30.8841C30.7975 27.9026 30.7145 27.8682 30.6533 27.8069C30.592 27.7457 30.5576 27.6626 30.5576 27.576V22.8293C30.5576 22.7427 30.592 22.6596 30.6533 22.5984C30.7145 22.5371 30.7975 22.5027 30.8841 22.5027H35.6309C35.7175 22.5027 35.8006 22.5371 35.8618 22.5984C35.9231 22.6596 35.9575 22.7427 35.9575 22.8293V27.576C35.9575 27.6626 35.9231 27.7457 35.8618 27.8069C35.8006 27.8682 35.7175 27.9026 35.6309 27.9026ZM31.2107 27.2495H35.3044V23.1558H31.2107V27.2495Z" fill="#4F5B5E"/>
<path d="M10.9112 35.2317H6.16442C6.07782 35.2317 5.99477 35.1973 5.93353 35.136C5.87229 35.0748 5.83789 34.9917 5.83789 34.9051V30.1584C5.83789 30.0718 5.87229 29.9887 5.93353 29.9275C5.99477 29.8662 6.07782 29.8318 6.16442 29.8318H10.9112C10.9978 29.8318 11.0809 29.8662 11.1421 29.9275C11.2033 29.9887 11.2377 30.0718 11.2377 30.1584V34.9051C11.2377 34.9917 11.2033 35.0748 11.1421 35.136C11.0809 35.1973 10.9978 35.2317 10.9112 35.2317ZM6.49095 34.5786H10.5847V30.4849H6.49095V34.5786Z" fill="#4F5B5E"/>
<path d="M19.1514 35.2317H14.4047C14.3181 35.2317 14.235 35.1973 14.1738 35.136C14.1125 35.0748 14.0781 34.9917 14.0781 34.9051V30.1584C14.0781 30.0718 14.1125 29.9887 14.1738 29.9275C14.235 29.8662 14.3181 29.8318 14.4047 29.8318H19.1514C19.238 29.8318 19.3211 29.8662 19.3823 29.9275C19.4436 29.9887 19.478 30.0718 19.478 30.1584V34.9051C19.478 34.9917 19.4436 35.0748 19.3823 35.136C19.3211 35.1973 19.238 35.2317 19.1514 35.2317ZM14.7312 34.5786H18.8249V30.4849H14.7312V34.5786Z" fill="#4F5B5E"/>
<path d="M27.3907 35.2317H22.6439C22.5573 35.2317 22.4743 35.1973 22.413 35.136C22.3518 35.0748 22.3174 34.9917 22.3174 34.9051V30.1584C22.3174 30.0718 22.3518 29.9887 22.413 29.9275C22.4743 29.8662 22.5573 29.8318 22.6439 29.8318H27.3907C27.4773 29.8318 27.5603 29.8662 27.6216 29.9275C27.6828 29.9887 27.7172 30.0718 27.7172 30.1584V34.9051C27.7172 34.9917 27.6828 35.0748 27.6216 35.136C27.5603 35.1973 27.4773 35.2317 27.3907 35.2317ZM22.9704 34.5786H27.0642V30.4849H22.9704V34.5786Z" fill="#4F5B5E"/>
<path d="M35.6309 35.2317H30.8841C30.7975 35.2317 30.7145 35.1973 30.6533 35.136C30.592 35.0748 30.5576 34.9917 30.5576 34.9051V30.1584C30.5576 30.0718 30.592 29.9887 30.6533 29.9275C30.7145 29.8662 30.7975 29.8318 30.8841 29.8318H35.6309C35.7175 29.8318 35.8006 29.8662 35.8618 29.9275C35.9231 29.9887 35.9575 30.0718 35.9575 30.1584V34.9051C35.9575 34.9917 35.9231 35.0748 35.8618 35.136C35.8006 35.1973 35.7175 35.2317 35.6309 35.2317ZM31.2107 34.5786H35.3044V30.4849H31.2107V34.5786Z" fill="#4F5B5E"/>
</svg>
