<svg width="34" height="40" viewBox="0 0 34 40" fill="none" xmlns="http://www.w3.org/2000/svg">
<path fill-rule="evenodd" clip-rule="evenodd" d="M7.56786 34.5498H25.9711V30.6043H7.56786V34.5498ZM26.322 35.2515H7.21704C7.02335 35.2515 6.86621 35.0943 6.86621 34.9006V30.2535C6.86621 30.0589 7.02326 29.9027 7.21704 29.9027H26.322C26.5158 29.9027 26.6728 30.0589 26.6728 30.2535V34.9006C26.6728 35.0943 26.5158 35.2515 26.322 35.2515Z" fill="#4F5B5E"/>
<path fill-rule="evenodd" clip-rule="evenodd" d="M5.46435 39.2983H28.0757V35.2515H5.46435V39.2983ZM28.4265 40H5.11352C4.91975 40 4.7627 39.8428 4.7627 39.6491V34.9006C4.7627 34.7069 4.91975 34.5498 5.11352 34.5498H28.4265C28.6202 34.5498 28.7773 34.7069 28.7773 34.9006V39.6491C28.7773 39.8428 28.6202 40 28.4265 40Z" fill="#4F5B5E"/>
<path fill-rule="evenodd" clip-rule="evenodd" d="M7.05224 0.701649V9.8826C7.05224 14.9454 11.171 19.0643 16.2336 19.0643H17.0748C22.1374 19.0643 26.256 14.9454 26.256 9.8826L26.2561 0.701649H7.05224ZM17.0748 19.766H16.2337C10.7842 19.766 6.35059 15.3327 6.35059 9.8826L6.35068 0.350825C6.35068 0.157142 6.50773 0 6.70141 0H26.607C26.8007 0 26.9578 0.157142 26.9578 0.350825L26.9579 9.8826C26.9579 15.3327 22.5243 19.766 17.0748 19.766Z" fill="#4F5B5E"/>
<path fill-rule="evenodd" clip-rule="evenodd" d="M11.1055 30.6043C11.0249 30.6043 10.9437 30.5761 10.8776 30.5194C10.7304 30.3933 10.7132 30.1722 10.8391 30.0251C14.8349 25.3542 14.4805 19.3942 14.4765 19.3348C14.4633 19.1411 14.6094 18.9739 14.8028 18.9611C14.9964 18.9483 15.1635 19.0935 15.1766 19.2873C15.1939 19.5422 15.5525 25.5946 11.3723 30.481C11.303 30.5623 11.2045 30.6043 11.1055 30.6043Z" fill="#4F5B5E"/>
<path fill-rule="evenodd" clip-rule="evenodd" d="M22.1897 30.6043C22.0906 30.6043 21.9921 30.5623 21.9228 30.481C17.7425 25.5946 18.1038 19.544 18.1212 19.2882C18.1344 19.0954 18.3013 18.9492 18.4952 18.962C18.6884 18.9757 18.8344 19.1429 18.8213 19.3357C18.8172 19.396 18.4673 25.3624 22.4561 30.0251C22.5819 30.1722 22.5647 30.3933 22.4175 30.5194C22.3513 30.576 22.2703 30.6043 22.1897 30.6043Z" fill="#4F5B5E"/>
<path fill-rule="evenodd" clip-rule="evenodd" d="M6.81995 11.7319H6.12199C2.74634 11.7319 0 8.98533 0 5.61005V2.60858C0 2.41489 0.15705 2.25775 0.350824 2.25775H6.70156C6.89534 2.25775 7.05239 2.41489 7.05239 2.60858C7.05239 2.80226 6.89534 2.95949 6.70156 2.95949L0.701741 2.9594V5.61005C0.701741 8.5988 3.13324 11.0302 6.12199 11.0302H6.81995C7.01372 11.0302 7.17087 11.1874 7.17087 11.381C7.17087 11.5747 7.01363 11.7319 6.81995 11.7319ZM26.4888 11.7319C26.2951 11.7319 26.1379 11.5747 26.1379 11.381C26.1379 11.1874 26.295 11.0302 26.4886 11.0302H27.1867C30.1754 11.0293 32.6069 8.59788 32.6069 5.61005V2.9594H26.6071C26.4134 2.9594 26.2562 2.80226 26.2562 2.60858C26.2563 2.41489 26.4133 2.25775 26.6071 2.25775H32.9578C33.1516 2.25775 33.309 2.41489 33.309 2.60858V5.61005C33.309 8.98533 30.5623 11.7309 27.1868 11.7319H26.4888Z" fill="#4F5B5E"/>
<path fill-rule="evenodd" clip-rule="evenodd" d="M16.6186 11.3609C16.6914 11.3609 16.7639 11.3838 16.8255 11.4286L18.7825 12.8557L18.0294 10.5541C17.9821 10.4088 18.0337 10.2498 18.1572 10.1603L20.1196 8.74043L17.6974 8.74495C17.6971 8.74495 17.6977 8.74495 17.6974 8.74495C17.5452 8.74495 17.4095 8.64724 17.3628 8.50191L16.6186 6.19672L15.8746 8.50191C15.8279 8.64724 15.693 8.74495 15.5408 8.74495C15.5405 8.74495 15.5411 8.74495 15.5408 8.74495L13.1179 8.74043L15.0802 10.1603C15.2037 10.2498 15.2554 10.4088 15.208 10.5542L14.455 12.8557L16.4119 11.4286C16.4736 11.3838 16.5461 11.3609 16.6186 11.3609ZM19.4538 14.1312C19.3812 14.1312 19.3085 14.1084 19.247 14.0636L16.6186 12.1467L13.9904 14.0636C13.8674 14.1532 13.7006 14.1532 13.5774 14.0636C13.4543 13.9741 13.4029 13.816 13.4501 13.6708L14.4616 10.5788L11.8259 8.67187C11.7025 8.58237 11.6508 8.4243 11.6979 8.27906C11.7449 8.13466 11.8796 8.03685 12.0315 8.03685L15.2855 8.04331L16.2848 4.94669C16.3316 4.80238 16.4664 4.70364 16.6186 4.70364C16.771 4.70364 16.9058 4.80238 16.9527 4.94669L17.952 8.04331L21.2053 8.03685C21.3574 8.03685 21.4926 8.13466 21.5396 8.27906C21.5867 8.4243 21.5349 8.58237 21.4116 8.67187L18.7759 10.5788L19.7872 13.6708C19.8346 13.816 19.7831 13.9741 19.6599 14.0636C19.5984 14.1084 19.5261 14.1312 19.4538 14.1312Z" fill="#FF725E"/>
<path fill-rule="evenodd" clip-rule="evenodd" d="M16.6548 4.11071C13.4718 4.11071 10.8823 6.70018 10.8823 9.88261C10.8823 13.0659 13.4718 15.6553 16.6547 15.6553C19.8375 15.6553 22.427 13.0659 22.427 9.88261C22.427 6.70018 19.8375 4.11071 16.6548 4.11071ZM16.6548 16.3571C13.0849 16.3571 10.1807 13.4524 10.1807 9.88261C10.1808 6.31273 13.0849 3.40897 16.6547 3.40897C20.2245 3.40897 23.1287 6.31273 23.1287 9.88261C23.1287 13.4524 20.2245 16.3571 16.6548 16.3571Z" fill="#FF725E"/>
</svg>
