<svg width="42" height="42" viewBox="0 0 42 42" fill="none" xmlns="http://www.w3.org/2000/svg">
<path d="M20.9994 17.2784C23.2815 17.2784 25.1316 15.4284 25.1316 13.1462C25.1316 10.8641 23.2815 9.01405 20.9994 9.01405C18.7172 9.01405 16.8672 10.8641 16.8672 13.1462C16.8672 15.4284 18.7172 17.2784 20.9994 17.2784Z" stroke="#FF725E" stroke-width="1.06207" stroke-miterlimit="10" stroke-linecap="round" stroke-linejoin="round"/>
<path d="M26.3545 8.20306C28.3435 8.20306 29.956 6.5906 29.956 4.60153C29.956 2.61246 28.3435 1 26.3545 1C24.3654 1 22.7529 2.61246 22.7529 4.60153C22.7529 6.5906 24.3654 8.20306 26.3545 8.20306Z" stroke="#4F5B5E" stroke-width="1.06207" stroke-miterlimit="10" stroke-linecap="round" stroke-linejoin="round"/>
<path d="M15.6943 8.20306C17.6834 8.20306 19.2958 6.5906 19.2958 4.60153C19.2958 2.61246 17.6834 1 15.6943 1C13.7052 1 12.0928 2.61246 12.0928 4.60153C12.0928 6.5906 13.7052 8.20306 15.6943 8.20306Z" stroke="#4F5B5E" stroke-width="1.06207" stroke-miterlimit="10" stroke-linecap="round" stroke-linejoin="round"/>
<path d="M10.3541 16.0245C12.3797 16.0245 14.0217 14.3824 14.0217 12.3568C14.0217 10.3313 12.3797 8.68924 10.3541 8.68924C8.32857 8.68924 6.68652 10.3313 6.68652 12.3568C6.68652 14.3824 8.32857 16.0245 10.3541 16.0245Z" stroke="#4F5B5E" stroke-width="1.06207" stroke-miterlimit="10" stroke-linecap="round" stroke-linejoin="round"/>
<path d="M31.5716 16.0247C28.9843 16.0594 26.8535 17.9229 26.3213 20.3605C26.844 21.2632 27.144 22.3092 27.144 23.4219V26.1964C27.1982 26.2046 27.2533 26.21 27.3097 26.21H35.9811C36.5985 26.21 37.0989 25.7096 37.0989 25.0923V21.4778C37.0989 18.4537 34.6044 15.9841 31.5716 16.0247Z" stroke="#4F5B5E" stroke-width="1.06207" stroke-miterlimit="10" stroke-linecap="round" stroke-linejoin="round"/>
<path d="M14.8563 23.5028C14.8563 22.3666 15.162 21.2957 15.6949 20.3723C15.1754 17.8751 12.9342 15.9894 10.281 16.025C7.28626 16.0651 4.90137 18.5546 4.90137 21.5495V25.0925C4.90137 25.7098 5.40182 26.2103 6.01913 26.2103H14.6905C14.747 26.2103 14.8021 26.2047 14.8563 26.1967V23.5028Z" stroke="#4F5B5E" stroke-width="1.06207" stroke-miterlimit="10" stroke-linecap="round" stroke-linejoin="round"/>
<path d="M14.0217 12.3569C14.0217 14.3826 12.3797 16.0246 10.3541 16.0246C10.349 16.0246 10.344 16.0243 10.3389 16.0242V16.0251C12.9663 16.0179 15.1784 17.8931 15.6941 20.3718C15.6938 20.3724 15.6935 20.3729 15.6932 20.3734C16.7428 18.5535 18.6779 17.3081 20.9165 17.278C20.9437 17.2776 20.9708 17.278 20.998 17.278C18.7167 17.277 16.8675 15.4274 16.8675 13.1458C16.8675 11.5365 17.7882 10.143 19.131 9.46066C18.1818 8.66242 16.9552 8.18491 15.6215 8.20286C14.4163 8.21904 13.3121 8.63964 12.4281 9.33229C13.3904 9.99346 14.0217 11.1013 14.0217 12.3569Z" stroke="#FF725E" stroke-width="1.06207" stroke-miterlimit="10" stroke-linecap="round" stroke-linejoin="round"/>
<path d="M25.1323 13.1459C25.1323 15.4275 23.2833 17.2771 21.002 17.278C23.2682 17.2788 25.2579 18.5226 26.3223 20.3615C26.3221 20.361 26.3219 20.3606 26.3217 20.3603C26.8539 17.9227 28.9846 16.0593 31.572 16.0246C31.6184 16.0239 31.6644 16.0257 31.7106 16.0263V16.0229C31.689 16.0233 31.6676 16.0245 31.6458 16.0245C29.6202 16.0245 27.9782 14.3825 27.9782 12.3569C27.9782 11.087 28.6237 9.9681 29.6043 9.30975C28.6836 8.60286 27.53 8.18611 26.2827 8.20286C24.9936 8.22016 23.8198 8.69968 22.9076 9.48053C24.2294 10.17 25.1323 11.5521 25.1323 13.1459Z" stroke="#FF725E" stroke-width="1.06207" stroke-miterlimit="10" stroke-linecap="round" stroke-linejoin="round"/>
<path d="M25.2689 36.4567C25.7964 35.9426 25.5054 35.0467 24.7764 34.9408L23.1802 34.7088C22.8907 34.6667 22.6404 34.485 22.511 34.2227L21.7971 32.7762C21.4711 32.1157 20.5292 32.1157 20.2032 32.7762L19.4893 34.2227C19.3598 34.485 19.1096 34.6668 18.8201 34.7088L17.2238 34.9408C16.4949 35.0467 16.2038 35.9426 16.7312 36.4567L17.8863 37.5826C18.0958 37.7868 18.1914 38.0809 18.142 38.3692L17.8693 39.959C17.7448 40.6851 18.5068 41.2387 19.1588 40.8959L20.5865 40.1453C20.8454 40.0092 21.1547 40.0092 21.4136 40.1453L22.8413 40.8959C23.4933 41.2387 24.2554 40.6851 24.1308 39.959L23.8581 38.3692C23.8086 38.0809 23.9043 37.7868 24.1138 37.5826L25.2689 36.4567Z" stroke="#4F5B5E" stroke-width="1.06207" stroke-miterlimit="10" stroke-linecap="round" stroke-linejoin="round"/>
<path d="M33.8767 34.2217C34.2659 33.8424 34.0511 33.1816 33.5134 33.1034L32.3358 32.9323C32.1223 32.9012 31.9377 32.7672 31.8422 32.5737L31.3156 31.5066C31.0751 31.0193 30.3802 31.0193 30.1397 31.5066L29.6131 32.5737C29.5176 32.7672 29.3331 32.9012 29.1195 32.9323L27.9419 33.1034C27.4042 33.1816 27.1895 33.8424 27.5785 34.2217L28.4306 35.0523C28.5851 35.203 28.6556 35.42 28.6192 35.6326L28.4181 36.8054C28.3262 37.341 28.8883 37.7494 29.3693 37.4965L30.4225 36.9428C30.6135 36.8423 30.8416 36.8423 31.0326 36.9428L32.0858 37.4965C32.5668 37.7494 33.129 37.3409 33.0371 36.8054L32.836 35.6326C32.7995 35.4199 32.8701 35.2029 33.0246 35.0523L33.8767 34.2217Z" stroke="#4F5B5E" stroke-width="1.06207" stroke-miterlimit="10" stroke-linecap="round" stroke-linejoin="round"/>
<path d="M40.8348 30.9482C41.1578 30.6333 40.9795 30.0847 40.5331 30.0197L39.5554 29.8777C39.3781 29.8519 39.2248 29.7405 39.1455 29.5799L38.7082 28.6939C38.5086 28.2893 37.9316 28.2893 37.732 28.6939L37.2947 29.5799C37.2154 29.7405 37.0621 29.8519 36.8848 29.8777L35.9071 30.0197C35.4606 30.0846 35.2823 30.6333 35.6055 30.9482L36.313 31.6379C36.4413 31.763 36.4999 31.9432 36.4695 32.1198L36.3025 33.0935C36.2262 33.5382 36.693 33.8773 37.0924 33.6674L37.9669 33.2076C38.1255 33.1243 38.3149 33.1243 38.4735 33.2076L39.3481 33.6674C39.7474 33.8773 40.2142 33.5382 40.1379 33.0935L39.9709 32.1198C39.9407 31.9432 39.9992 31.763 40.1275 31.6379L40.8348 30.9482Z" stroke="#4F5B5E" stroke-width="1.06207" stroke-miterlimit="10" stroke-linecap="round" stroke-linejoin="round"/>
<path d="M8.12352 34.2217C7.73438 33.8424 7.94911 33.1816 8.4869 33.1034L9.66444 32.9323C9.87796 32.9012 10.0626 32.7672 10.158 32.5737L10.6846 31.5066C10.9251 31.0193 11.62 31.0193 11.8605 31.5066L12.3871 32.5737C12.4826 32.7672 12.6672 32.9012 12.8808 32.9323L14.0583 33.1034C14.596 33.1816 14.8108 33.8424 14.4217 34.2217L13.5696 35.0523C13.4151 35.203 13.3446 35.42 13.3811 35.6326L13.5822 36.8054C13.674 37.341 13.1119 37.7494 12.6309 37.4965L11.5777 36.9428C11.3867 36.8423 11.1585 36.8423 10.9675 36.9428L9.91434 37.4965C9.43338 37.7494 8.8712 37.3409 8.96303 36.8054L9.16416 35.6326C9.20062 35.4199 9.13012 35.2029 8.97559 35.0523L8.12352 34.2217Z" stroke="#4F5B5E" stroke-width="1.06207" stroke-miterlimit="10" stroke-linecap="round" stroke-linejoin="round"/>
<path d="M1.16497 30.9482C0.841912 30.6333 1.02018 30.0847 1.46662 30.0197L2.44433 29.8777C2.62163 29.8519 2.77495 29.7405 2.85423 29.5799L3.29149 28.6939C3.49117 28.2893 4.06815 28.2893 4.26775 28.6939L4.70501 29.5799C4.78429 29.7405 4.93761 29.8519 5.11491 29.8777L6.09262 30.0197C6.53914 30.0846 6.71741 30.6333 6.39427 30.9482L5.68674 31.6379C5.55845 31.763 5.49986 31.9432 5.5302 32.1198L5.69721 33.0935C5.7735 33.5382 5.3067 33.8773 4.90735 33.6674L4.03282 33.2076C3.87419 33.1243 3.68481 33.1243 3.52618 33.2076L2.65165 33.6674C2.2523 33.8773 1.78549 33.5382 1.86179 33.0935L2.02879 32.1198C2.05906 31.9432 2.00054 31.763 1.87225 31.6379L1.16497 30.9482Z" stroke="#4F5B5E" stroke-width="1.06207" stroke-miterlimit="10" stroke-linecap="round" stroke-linejoin="round"/>
<path d="M22.4082 28.754H25.8846C26.5802 28.754 27.144 28.1901 27.144 27.4946V23.4223C27.144 20.0152 24.3336 17.2327 20.9165 17.2785C17.5425 17.3238 14.8555 20.1285 14.8555 23.5028V27.4945C14.8555 28.19 15.4193 28.7539 16.1149 28.7539H19.5913" stroke="#FF725E" stroke-width="1.06207" stroke-miterlimit="10" stroke-linecap="round" stroke-linejoin="round"/>
<path d="M35.063 11.0268C34.5303 9.65898 33.2014 8.68924 31.6451 8.68924C29.6196 8.68924 27.9775 10.3313 27.9775 12.3568C27.9775 14.3824 29.6196 16.0245 31.6451 16.0245C33.1412 16.0245 34.4272 15.1282 34.9977 13.8437" stroke="#4F5B5E" stroke-width="1.06207" stroke-miterlimit="10" stroke-linecap="round" stroke-linejoin="round"/>
</svg>
