<svg width="52" height="40" viewBox="0 0 52 40" fill="none" xmlns="http://www.w3.org/2000/svg">
<path d="M23.7739 40C23.6661 40 23.5704 39.988 23.4626 39.9761C22.5169 39.8683 21.7388 39.2937 20.9847 38.7431C20.458 38.348 19.9792 37.9889 19.4764 37.8094C18.9976 37.6418 18.3871 37.6178 17.7526 37.6059C16.8069 37.5819 15.8373 37.546 15.0113 37.0313C14.2213 36.5285 13.7784 35.6786 13.3474 34.8526C13.0362 34.2661 12.7489 33.7154 12.3658 33.3323C11.9828 32.9493 11.4321 32.662 10.8455 32.3627C10.0315 31.9318 9.16966 31.4889 8.66689 30.6988C8.14018 29.8848 8.11624 28.9032 8.0923 27.9695C8.06836 27.3231 8.05639 26.7245 7.8888 26.2337C7.70924 25.731 7.35012 25.2402 6.95509 24.7135C6.39246 23.9713 5.81787 23.1932 5.72211 22.2475C5.61437 21.3018 6.0094 20.416 6.39246 19.5661C6.65582 18.9676 6.9072 18.4169 6.96706 17.8782C7.02691 17.3515 6.9072 16.765 6.77553 16.1305C6.59597 15.2088 6.41641 14.2751 6.71567 13.3533C7.02691 12.4555 7.76909 11.833 8.47536 11.2225C8.96616 10.8036 9.43301 10.4085 9.72031 9.95365C9.99563 9.52271 10.1393 8.94812 10.2949 8.33761C10.5343 7.42784 10.7737 6.48216 11.468 5.77589C12.1623 5.08159 13.12 4.84218 14.0297 4.5908C14.6402 4.43518 15.2268 4.27956 15.6578 4.01621C16.1007 3.72891 16.4957 3.26205 16.9147 2.77126C17.5252 2.05302 18.1476 1.32281 19.0574 0.999601C19.9672 0.688364 20.9248 0.867924 21.8466 1.05945C22.481 1.17916 23.0676 1.29887 23.5823 1.25098C24.109 1.19113 24.6597 0.939747 25.2582 0.688363C26.1081 0.305302 26.994 -0.0897295 27.9516 0.0180065C28.8973 0.125742 29.6754 0.700334 30.4295 1.25098C30.9563 1.64602 31.4351 2.00514 31.9378 2.1847C32.4167 2.35228 33.0272 2.37623 33.6616 2.3882C34.6073 2.41214 35.5769 2.44805 36.4029 2.96279C37.193 3.46556 37.6359 4.31547 38.0668 5.14145C38.3781 5.72801 38.6654 6.27866 39.0484 6.66172C39.4315 7.04478 39.9821 7.33208 40.5687 7.63134C41.3827 8.06229 42.2446 8.5052 42.7474 9.29527C43.2741 10.1093 43.298 11.0909 43.3219 12.0246C43.3459 12.671 43.3579 13.2695 43.5254 13.7603C43.705 14.2631 44.0641 14.7539 44.4592 15.2806C45.0218 16.0228 45.5964 16.8009 45.6921 17.7465C45.7999 18.6922 45.4048 19.5781 45.0218 20.428C44.7584 21.0265 44.507 21.5772 44.4472 22.1158C44.3873 22.6426 44.507 23.2291 44.6387 23.8636C44.8183 24.7853 44.9978 25.719 44.6986 26.6407C44.3873 27.5385 43.6452 28.161 42.9389 28.7715C42.4481 29.1905 41.9812 29.5855 41.6939 30.0404C41.4306 30.4594 41.2869 31.034 41.1313 31.6445C40.8919 32.5782 40.6525 33.5358 39.9462 34.2301C39.2519 34.9244 38.3062 35.1639 37.3845 35.4033C36.774 35.5589 36.1874 35.7145 35.7565 35.9779C35.3136 36.2652 34.9185 36.732 34.4996 37.2228C33.8891 37.941 33.2666 38.6713 32.3568 38.9825C31.447 39.2937 30.4894 39.1142 29.5677 38.9226C28.9452 38.8029 28.3466 38.6832 27.8319 38.7311C27.3052 38.791 26.7546 39.0424 26.156 39.2937C25.4019 39.6529 24.6118 40 23.7739 40ZM20.1587 2.01711C19.9073 2.01711 19.6799 2.04105 19.4525 2.12484C18.8539 2.32834 18.3512 2.91491 17.8244 3.53738C17.3696 4.07606 16.8907 4.62671 16.3042 5.00977C15.7056 5.38086 15.0233 5.56042 14.341 5.73998C13.5389 5.94348 12.7848 6.13501 12.3179 6.61384C11.8511 7.09266 11.6596 7.84682 11.4561 8.63688C11.2765 9.30724 11.0969 10.0015 10.7258 10.5881C10.3428 11.1986 9.79213 11.6655 9.24148 12.1203C8.61901 12.647 8.03244 13.1378 7.82894 13.7364C7.62544 14.3469 7.76909 15.101 7.93668 15.9031C8.08033 16.5974 8.212 17.3036 8.12821 18.0099C8.04442 18.7162 7.74515 19.3865 7.45785 20.0329C7.12267 20.7751 6.81144 21.4814 6.88326 22.1158C6.94311 22.7383 7.40997 23.3488 7.90077 24.0072C8.33171 24.5698 8.76265 25.1684 9.00207 25.8387C9.22951 26.4971 9.25345 27.2273 9.27739 27.9336C9.30133 28.7476 9.32528 29.5257 9.67242 30.0763C10.0076 30.603 10.6899 30.9622 11.4082 31.3332C12.0426 31.6684 12.701 32.0036 13.2157 32.5183C13.7305 33.045 14.0657 33.6915 14.4008 34.3259C14.7719 35.0442 15.131 35.7265 15.6578 36.0497C16.2204 36.3968 16.9985 36.4208 17.8125 36.4447C18.5068 36.4687 19.225 36.4926 19.8834 36.72C20.5657 36.9475 21.1403 37.3904 21.7029 37.8213C22.3493 38.3002 22.9718 38.767 23.6063 38.8388C24.2527 38.8987 24.947 38.5994 25.6892 38.2643C26.3356 37.977 27.0059 37.6777 27.7122 37.6059C28.4065 37.534 29.1128 37.6657 29.7951 37.8094C30.6091 37.965 31.3633 38.1206 31.9857 37.9051C32.5843 37.7016 33.087 37.1151 33.6137 36.4926C34.0686 35.9539 34.5474 35.4033 35.134 35.0202C35.7206 34.6491 36.4149 34.4696 37.0972 34.29C37.8992 34.0865 38.6534 33.895 39.1202 33.4161C39.5991 32.9373 39.7906 32.1832 40.0061 31.3692C40.1737 30.7108 40.3532 30.0165 40.7123 29.4419C41.0954 28.8314 41.6461 28.3645 42.1967 27.8977C42.8192 27.371 43.4057 26.8802 43.6092 26.2816C43.8127 25.6711 43.6691 24.917 43.5015 24.1149C43.3579 23.4206 43.2262 22.7144 43.31 22.0081C43.3938 21.3018 43.693 20.6315 43.9803 19.9851C44.3155 19.2429 44.6267 18.5366 44.5549 17.9022C44.4951 17.2797 44.0282 16.6692 43.5374 16.0108C43.1065 15.4482 42.6755 14.8497 42.4361 14.1793C42.2087 13.5209 42.1847 12.7907 42.1608 12.0844C42.1368 11.2704 42.1129 10.4923 41.7658 9.94168C41.4306 9.41497 40.7483 9.05585 40.03 8.68476C39.3956 8.34958 38.7372 8.01441 38.2224 7.49967C37.7077 6.97296 37.3725 6.32654 37.0373 5.6921C36.6663 4.97386 36.3071 4.29153 35.7804 3.96832C35.2178 3.62117 34.4397 3.59723 33.6257 3.57329C32.9314 3.54935 32.2132 3.52541 31.5548 3.29797C30.8844 3.07052 30.2979 2.62761 29.7352 2.19667C29.0888 1.71784 28.4664 1.25098 27.8319 1.17916C27.1855 1.11931 26.4912 1.41857 25.749 1.75375C25.1026 2.04105 24.4322 2.34031 23.726 2.41214C23.0317 2.48396 22.3254 2.35228 21.6431 2.20864C21.1164 2.11287 20.6136 2.01711 20.1587 2.01711Z" fill="#4F5B5E"/>
<path d="M25.7373 34.3139C17.8606 34.3139 11.4443 27.9096 11.4443 20.0209C11.4443 12.1442 17.8486 5.72797 25.7373 5.72797C33.614 5.72797 40.0303 12.1323 40.0303 20.0209C40.0303 27.9096 33.614 34.3139 25.7373 34.3139ZM25.7373 6.88912C18.4951 6.88912 12.6055 12.7787 12.6055 20.0209C12.6055 27.2632 18.4951 33.1408 25.7373 33.1408C32.9795 33.1408 38.8691 27.2512 38.8691 20.009C38.8691 12.7667 32.9676 6.88912 25.7373 6.88912Z" fill="#4F5B5E"/>
<path d="M22.23 27.5985C21.7991 27.5985 21.4041 27.431 21.1048 27.1197L17.2263 23.2293C16.3764 22.3793 16.3764 20.9668 17.2263 20.1049C18.0762 19.255 19.4888 19.243 20.3626 20.0929L22.266 21.9963L31.1841 13.0781C32.034 12.2282 33.4465 12.2282 34.3084 13.0781C35.1583 13.9281 35.1703 15.3406 34.3204 16.2145L23.3792 27.1078C23.068 27.431 22.649 27.5985 22.23 27.5985ZM18.7705 20.6197C18.4952 20.6197 18.2438 20.7274 18.0403 20.9189C17.6453 21.3259 17.6453 21.9843 18.0403 22.4033L21.9427 26.3057C21.9427 26.3057 21.9427 26.3057 21.9547 26.3177C22.0265 26.3895 22.1343 26.4374 22.242 26.4374C22.3617 26.4374 22.4695 26.3895 22.5532 26.3057L33.4705 15.4124C33.8655 15.0054 33.8655 14.347 33.4705 13.9281C33.0635 13.533 32.4051 13.533 31.9861 13.9281L22.661 23.2532C22.4335 23.4806 22.0624 23.4806 21.835 23.2532L19.5127 20.9309C19.3092 20.7274 19.0458 20.6197 18.7705 20.6197Z" fill="#FF725E"/>
<path d="M3.56727 14.8494C3.47151 14.8494 3.37574 14.8254 3.29195 14.7895L1.3527 13.7361C1.06541 13.5924 0.957671 13.2214 1.11329 12.946C1.25694 12.6587 1.62803 12.551 1.90335 12.7066L3.8426 13.7481C4.12989 13.8917 4.23763 14.2628 4.08201 14.5381C3.98625 14.7416 3.78275 14.8494 3.56727 14.8494Z" fill="#FF725E"/>
<path d="M2.6934 20.5954H0.586562C0.263355 20.5954 0 20.3321 0 20.0089C0 19.6857 0.263355 19.4223 0.586562 19.4223H2.6934C3.01661 19.4223 3.27996 19.6857 3.27996 20.0089C3.26799 20.3441 3.00463 20.5954 2.6934 20.5954Z" fill="#FF725E"/>
<path d="M1.62859 27.4066C1.42508 27.4066 1.22158 27.2989 1.11385 27.0954C0.9702 26.8081 1.06597 26.449 1.35326 26.3053L3.29251 25.2639C3.5798 25.1202 3.93892 25.216 4.08257 25.5033C4.22622 25.7906 4.13045 26.1497 3.84316 26.2933L1.90391 27.3348C1.82012 27.3827 1.72435 27.4066 1.62859 27.4066Z" fill="#FF725E"/>
<path d="M47.8952 14.8496C47.6917 14.8496 47.4882 14.7419 47.3804 14.5384C47.2368 14.2511 47.3326 13.892 47.6199 13.7483L49.5591 12.7069C49.8464 12.5632 50.2055 12.659 50.3492 12.9463C50.4928 13.2336 50.3971 13.5927 50.1098 13.7364L48.1705 14.7778C48.0747 14.8257 47.991 14.8496 47.8952 14.8496Z" fill="#FF725E"/>
<path d="M50.8877 20.5955H48.7809C48.4577 20.5955 48.1943 20.3321 48.1943 20.0089C48.1943 19.6857 48.4577 19.4224 48.7809 19.4224H50.8877C51.2109 19.4224 51.4743 19.6857 51.4743 20.0089C51.4743 20.3441 51.2109 20.5955 50.8877 20.5955Z" fill="#FF725E"/>
<path d="M49.8339 27.4067C49.7381 27.4067 49.6423 27.3827 49.5586 27.3468L47.6193 26.3054C47.332 26.1617 47.2243 25.7906 47.3799 25.5153C47.5235 25.228 47.8946 25.1203 48.17 25.2759L50.1092 26.3173C50.3965 26.461 50.5042 26.8321 50.3486 27.1074C50.2409 27.287 50.0374 27.4067 49.8339 27.4067Z" fill="#FF725E"/>
</svg>
