<svg width="80" height="81" viewBox="0 0 80 81" fill="none" xmlns="http://www.w3.org/2000/svg">
<path fill-rule="evenodd" clip-rule="evenodd" d="M40.8986 74.1056H30.7521C30.2348 74.1056 29.8145 73.6852 29.8145 73.168V56.4723C29.8145 55.955 30.2348 55.5347 30.7521 55.5347H40.8986C41.4158 55.5347 41.8362 55.955 41.8362 56.4723V73.168C41.8362 73.6852 41.4158 74.1056 40.8986 74.1056ZM31.6897 72.2304H39.961V57.4099H31.6897V72.2304Z" fill="#FFE5E1"/>
<path fill-rule="evenodd" clip-rule="evenodd" d="M70.8849 74.1055H60.7384C60.2196 74.1055 59.8008 73.6867 59.8008 73.1679V43.7894C59.8008 43.2722 60.2196 42.8518 60.7384 42.8518H70.8849C71.4021 42.8518 71.8225 43.2722 71.8225 43.7894V73.1679C71.8225 73.6867 71.4021 74.1055 70.8849 74.1055ZM61.676 72.2302H69.9473V44.727H61.676V72.2302Z" fill="#FFE5E1"/>
<path fill-rule="evenodd" clip-rule="evenodd" d="M7.58214 80.75C7.06333 80.75 6.64453 80.3312 6.64453 79.8124V1.68761C6.64453 1.1688 7.06333 0.75 7.58214 0.75C8.09939 0.75 8.51975 1.1688 8.51975 1.68761V79.8124C8.51975 80.3312 8.09939 80.75 7.58214 80.75Z" fill="#F8523B"/>
<path fill-rule="evenodd" clip-rule="evenodd" d="M79.0624 74.1054H0.93761C0.418799 74.1054 0 73.6851 0 73.1678C0 72.6506 0.418799 72.2302 0.93761 72.2302H79.0624C79.5796 72.2302 80 72.6506 80 73.1678C80 73.6851 79.5796 74.1054 79.0624 74.1054Z" fill="#F8523B"/>
<path fill-rule="evenodd" clip-rule="evenodd" d="M76.615 76.5526C76.3743 76.5526 76.1352 76.4619 75.9524 76.2791C75.5851 75.9119 75.5851 75.3196 75.9524 74.9524L77.737 73.1678L75.9289 71.3598C75.5617 70.9941 75.5617 70.4003 75.9274 70.0346C76.2946 69.6689 76.8869 69.6674 77.2541 70.0346L79.7247 72.5052C79.9013 72.6802 79.9997 72.9193 79.9997 73.1678C79.9997 73.4163 79.9013 73.6553 79.7247 73.8304L77.2775 76.2791C77.0947 76.4619 76.854 76.5526 76.615 76.5526Z" fill="#F8523B"/>
<path fill-rule="evenodd" clip-rule="evenodd" d="M5.36163 4.84579C5.12254 4.84579 4.88189 4.75359 4.69906 4.57076C4.33339 4.20509 4.33339 3.61127 4.69906 3.24561L6.91807 1.02347C7.09465 0.848449 7.33374 0.75 7.58221 0.75C7.83067 0.75 8.0682 0.848449 8.24478 1.02347L10.3185 3.09715C10.6841 3.46438 10.6841 4.0582 10.3185 4.42387C9.9528 4.78954 9.35898 4.78954 8.99331 4.42387L7.58221 3.01277L6.02421 4.57076C5.84138 4.75359 5.60229 4.84579 5.36163 4.84579Z" fill="#F8523B"/>
<path fill-rule="evenodd" clip-rule="evenodd" d="M25.9064 74.1055H15.7599C15.2426 74.1055 14.8223 73.6867 14.8223 73.1679V43.7894C14.8223 43.2722 15.2426 42.8518 15.7599 42.8518H25.9064C26.4236 42.8518 26.844 43.2722 26.844 43.7894V73.1679C26.844 73.6867 26.4236 74.1055 25.9064 74.1055ZM16.6975 72.2302H24.9688V44.727H16.6975V72.2302Z" fill="#F8523B"/>
<path fill-rule="evenodd" clip-rule="evenodd" d="M55.8907 74.1054H45.7443C45.227 74.1054 44.8066 73.685 44.8066 73.1678V50.2635C44.8066 49.7463 45.227 49.3259 45.7443 49.3259H55.8907C56.4096 49.3259 56.8284 49.7463 56.8284 50.2635V73.1678C56.8284 73.685 56.4096 74.1054 55.8907 74.1054ZM46.6819 72.2302H54.9547V51.2011H46.6819V72.2302Z" fill="#F8523B"/>
<path fill-rule="evenodd" clip-rule="evenodd" d="M50.8188 45.6616C50.7844 45.6616 50.7485 45.6601 50.7125 45.6554C50.4062 45.621 50.1359 45.4366 49.9906 45.1631L34.9825 16.8598L21.6341 38.7389C21.3638 39.1796 20.7871 39.3203 20.3449 39.0499C19.9027 38.7811 19.7636 38.2045 20.0324 37.7623L34.2387 14.4783C34.4153 14.1907 34.731 14.0189 35.0669 14.0298C35.4045 14.0392 35.7092 14.2298 35.8686 14.5267L51.0063 43.0754L71.2821 19.6539C71.6212 19.2617 72.2135 19.2195 72.6057 19.5586C72.9964 19.8977 73.0386 20.4899 72.701 20.8806L51.5282 45.3381C51.3485 45.5444 51.0891 45.6616 50.8188 45.6616Z" fill="#FFE5E1"/>
</svg>
