<svg width="30" height="30" viewBox="0 0 30 30" fill="none" xmlns="http://www.w3.org/2000/svg">
<g clip-path="url(#clip0_1716_9955)">
<path d="M23.3203 26.25H18.3984C18.3052 26.25 18.2158 26.287 18.1498 26.353C18.0839 26.4189 18.0469 26.5083 18.0469 26.6016C18.0469 26.6948 18.0839 26.7842 18.1498 26.8502C18.2158 26.9161 18.3052 26.9531 18.3984 26.9531H23.3203C23.4136 26.9531 23.503 26.9161 23.5689 26.8502C23.6348 26.7842 23.6719 26.6948 23.6719 26.6016C23.6719 26.5083 23.6348 26.4189 23.5689 26.353C23.503 26.287 23.4136 26.25 23.3203 26.25Z" fill="#FF725E"/>
<path d="M8.17762 14.0323C8.26284 14.0702 8.35961 14.0726 8.44664 14.0391C8.53367 14.0056 8.60383 13.9389 8.64168 13.8537C8.67954 13.7685 8.68199 13.6717 8.64849 13.5847C8.615 13.4977 8.54831 13.4275 8.46309 13.3897L6.35371 12.4522C6.31152 12.4334 6.26604 12.4232 6.21988 12.422C6.17372 12.4208 6.12779 12.4288 6.08469 12.4453C5.99767 12.4788 5.92751 12.5455 5.88965 12.6307C5.85179 12.716 5.84934 12.8127 5.88284 12.8998C5.91633 12.9868 5.98302 13.057 6.06824 13.0948L8.17762 14.0323Z" fill="#6A797C"/>
<path d="M10.3125 12.9961V10.6758C10.3125 10.5825 10.2755 10.4931 10.2095 10.4272C10.1436 10.3613 10.0542 10.3242 9.96094 10.3242C9.8677 10.3242 9.77828 10.3613 9.71235 10.4272C9.64641 10.4931 9.60938 10.5825 9.60938 10.6758V12.9961C9.60938 13.0893 9.64641 13.1788 9.71235 13.2447C9.77828 13.3106 9.8677 13.3477 9.96094 13.3477C10.0542 13.3477 10.1436 13.3106 10.2095 13.2447C10.2755 13.1788 10.3125 13.0893 10.3125 12.9961Z" fill="#6A797C"/>
<path d="M25.0359 10.336L23.7122 10.0057C23.4469 9.93985 23.2177 9.77333 23.073 9.54142L22.3502 8.38361C22.1922 8.13084 21.9725 7.92241 21.7118 7.77792C21.451 7.63343 21.1578 7.55762 20.8597 7.55762C20.5616 7.55762 20.2684 7.63343 20.0077 7.77792C19.7469 7.92241 19.5272 8.13084 19.3692 8.38361L18.6462 9.53908C18.5016 9.77118 18.2722 9.9378 18.0068 10.0036L16.6833 10.336C16.3939 10.4081 16.1276 10.5526 15.9095 10.756C15.6914 10.9594 15.5287 11.2149 15.4366 11.4986C15.3444 11.7822 15.326 12.0846 15.383 12.3773C15.4399 12.6701 15.5704 12.9435 15.7622 13.1719L16.6387 14.217C16.8145 14.4258 16.9021 14.6947 16.883 14.967L16.788 16.328C16.7673 16.6254 16.8225 16.9232 16.9485 17.1934C17.0745 17.4636 17.2671 17.6973 17.5083 17.8725C17.7495 18.0478 18.0312 18.1588 18.3271 18.1951C18.623 18.2315 18.9233 18.192 19.1998 18.0804L20.4654 17.5695C20.7188 17.4668 21.0023 17.4668 21.2557 17.5695L22.5213 18.0804C22.7978 18.192 23.098 18.2315 23.3939 18.1951C23.6898 18.1588 23.9716 18.0478 24.2128 17.8725C24.454 17.6973 24.6466 17.4636 24.7726 17.1934C24.8986 16.9232 24.9538 16.6254 24.933 16.328L24.8381 14.967C24.819 14.6947 24.9066 14.4258 25.0823 14.217L25.9589 13.1719C26.1507 12.9435 26.2812 12.6701 26.3381 12.3773C26.3951 12.0846 26.3766 11.7822 26.2845 11.4986C26.1924 11.2149 26.0296 10.9594 25.8115 10.756C25.5934 10.5526 25.3272 10.4081 25.0378 10.336H25.0359ZM25.4182 12.7193L24.5416 13.7644C24.2481 14.1127 24.1022 14.5619 24.135 15.0162L24.2299 16.3772C24.2424 16.5557 24.2093 16.7344 24.1336 16.8965C24.058 17.0586 23.9424 17.1989 23.7977 17.304C23.6529 17.4092 23.4838 17.4758 23.3063 17.4976C23.1287 17.5194 22.9485 17.4956 22.7826 17.4286L21.517 16.9179C21.0949 16.7463 20.6224 16.7463 20.2003 16.9179L18.9347 17.4286C18.7688 17.4956 18.5886 17.5194 18.411 17.4976C18.2335 17.4758 18.0644 17.4092 17.9196 17.304C17.7749 17.1989 17.6593 17.0586 17.5837 16.8965C17.5081 16.7344 17.4749 16.5557 17.4874 16.3772L17.5823 15.0162C17.6151 14.5619 17.4692 14.1127 17.1757 13.7644L16.2991 12.7193C16.1841 12.5823 16.1059 12.4183 16.0717 12.2427C16.0375 12.0671 16.0486 11.8857 16.1039 11.7156C16.1591 11.5454 16.2567 11.3921 16.3875 11.2701C16.5183 11.1481 16.678 11.0613 16.8516 11.018L18.1769 10.6875C18.6193 10.5783 19.0015 10.3008 19.2424 9.91408L19.9657 8.7572C20.0605 8.60561 20.1923 8.48062 20.3487 8.39398C20.5052 8.30733 20.681 8.26187 20.8598 8.26187C21.0386 8.26187 21.2145 8.30733 21.3709 8.39398C21.5273 8.48062 21.6591 8.60561 21.754 8.7572L22.4768 9.91408C22.7177 10.3006 23.0997 10.5781 23.5418 10.6875L24.8655 11.0177C25.0391 11.0611 25.1988 11.1478 25.3296 11.2699C25.4604 11.3919 25.558 11.5452 25.6132 11.7153C25.6685 11.8855 25.6795 12.0669 25.6454 12.2424C25.6112 12.418 25.533 12.5821 25.418 12.7191L25.4182 12.7193Z" fill="#FF725E"/>
<path d="M26.8359 0H14.8828C14.0439 0.000930534 13.2397 0.334585 12.6465 0.92776C12.0533 1.52094 11.7197 2.32519 11.7188 3.16406V16.1419C11.6787 15.9141 11.5918 15.6971 11.4636 15.5046C11.3355 15.3121 11.1688 15.1483 10.9741 15.0234C10.7757 14.8985 10.5537 14.8157 10.322 14.7801C10.0902 14.7444 9.85361 14.7567 9.62681 14.8162C9.40001 14.8757 9.18783 14.9811 9.00341 15.126C8.819 15.2708 8.66627 15.4519 8.55469 15.6581L7.50234 17.632C7.40683 17.8116 7.26126 17.9596 7.08328 18.0581L4.14469 19.6875H3.21656C3.14429 19.4825 3.01034 19.3048 2.83308 19.1789C2.65583 19.053 2.44397 18.9851 2.22656 18.9844H1.05469C0.775062 18.9847 0.506978 19.0959 0.309253 19.2936C0.111528 19.4914 0.000310178 19.7594 0 20.0391L0 28.9453C0.000310178 29.2249 0.111528 29.493 0.309253 29.6907C0.506978 29.8885 0.775062 29.9997 1.05469 30H2.22656C2.46133 29.9992 2.68914 29.9202 2.8739 29.7753C3.05865 29.6305 3.1898 29.4281 3.24656 29.2003L4.92188 29.8097C5.26841 29.936 5.63444 30.0005 6.00328 30.0002H12.723C13.0403 29.9997 13.3503 29.9049 13.6137 29.7279C14.0134 29.9052 14.4455 29.9979 14.8828 30H26.8359C27.6748 29.9991 28.4791 29.6654 29.0722 29.0722C29.6654 28.4791 29.9991 27.6748 30 26.8359V3.16406C29.9991 2.32519 29.6654 1.52094 29.0722 0.92776C28.4791 0.334585 27.6748 0.000930534 26.8359 0ZM2.57812 28.9453C2.57812 29.0386 2.54109 29.128 2.47515 29.1939C2.40922 29.2598 2.3198 29.2969 2.22656 29.2969H1.05469C0.961447 29.2969 0.872026 29.2598 0.806095 29.1939C0.740165 29.128 0.703125 29.0386 0.703125 28.9453V20.0391C0.703125 19.9458 0.740165 19.8564 0.806095 19.7905C0.872026 19.7245 0.961447 19.6875 1.05469 19.6875H2.22656C2.3198 19.6875 2.40922 19.7245 2.47515 19.7905C2.54109 19.8564 2.57812 19.9458 2.57812 20.0391V28.9453ZM24.9141 0.703125L24.3516 1.75289C24.2314 1.99415 24.0481 2.1983 23.8211 2.34362C23.5941 2.48894 23.3319 2.56999 23.0625 2.57812H18.6562C18.3872 2.56957 18.1256 2.48833 17.899 2.34303C17.6725 2.19774 17.4895 1.99381 17.3695 1.75289L16.8059 0.703125H24.9141ZM11.5755 17.2362C11.6424 17.0933 11.6905 16.9423 11.7188 16.7871V19.9219H10.3153L11.5755 17.2362ZM12.1875 26.9531C12.0943 26.9531 12.0048 26.9902 11.9389 27.0561C11.873 27.122 11.8359 27.2114 11.8359 27.3047C11.8359 27.3979 11.873 27.4873 11.9389 27.5533C12.0048 27.6192 12.0943 27.6562 12.1875 27.6562H12.7734C12.8879 27.657 13.0009 27.6814 13.1053 27.7282C13.2098 27.7749 13.3033 27.8428 13.3801 27.9277C13.4569 28.0125 13.5152 28.1124 13.5513 28.221C13.5873 28.3295 13.6005 28.4444 13.5898 28.5584C13.5613 28.7666 13.4572 28.957 13.2972 29.0932C13.1372 29.2295 12.9326 29.302 12.7226 29.2969H6.00328C5.71644 29.297 5.43181 29.2468 5.16234 29.1485L3.28125 28.4646V20.3906H4.23563C4.29525 20.3907 4.3539 20.3755 4.40602 20.3466L7.4243 18.6731C7.72094 18.5089 7.96362 18.2622 8.12297 17.963L9.17578 15.9891C9.2412 15.8677 9.33089 15.7612 9.43926 15.676C9.54763 15.5908 9.67238 15.5288 9.80573 15.4939C9.93908 15.459 10.0782 15.4519 10.2144 15.473C10.3506 15.4942 10.481 15.5432 10.5975 15.6169C10.8027 15.76 10.9499 15.9719 11.0125 16.2141C11.0751 16.4563 11.0491 16.7129 10.939 16.9376L9.47484 20.0576C9.44771 20.1161 9.43511 20.1803 9.43812 20.2447C9.44114 20.3091 9.45967 20.3719 9.49214 20.4276C9.52461 20.4833 9.57007 20.5303 9.62464 20.5647C9.6792 20.5991 9.74127 20.6198 9.80555 20.625H13.6605C13.8706 20.6199 14.0752 20.6924 14.2352 20.8286C14.3952 20.9649 14.4993 21.1553 14.5277 21.3635C14.5384 21.4775 14.5253 21.5924 14.4892 21.701C14.4531 21.8096 14.3947 21.9095 14.3179 21.9944C14.2411 22.0792 14.1475 22.1471 14.043 22.1938C13.9385 22.2405 13.8254 22.265 13.7109 22.2656H12.1957C12.1025 22.2656 12.013 22.3027 11.9471 22.3686C11.8812 22.4345 11.8441 22.5239 11.8441 22.6172C11.8441 22.7104 11.8812 22.7998 11.9471 22.8658C12.013 22.9317 12.1025 22.9688 12.1957 22.9688H14.1797C14.3972 22.9688 14.6059 23.0552 14.7597 23.209C14.9136 23.3629 15 23.5715 15 23.7891C15 24.0066 14.9136 24.2153 14.7597 24.3691C14.6059 24.5229 14.3972 24.6094 14.1797 24.6094H12.1957C12.1025 24.6094 12.013 24.6464 11.9471 24.7123C11.8812 24.7783 11.8441 24.8677 11.8441 24.9609C11.8441 25.0542 11.8812 25.1436 11.9471 25.2095C12.013 25.2755 12.1025 25.3125 12.1957 25.3125H13.7109C13.8254 25.3132 13.9384 25.3377 14.0428 25.3844C14.1473 25.4312 14.2408 25.4991 14.3176 25.5839C14.3944 25.6688 14.4527 25.7686 14.4888 25.8772C14.5248 25.9858 14.538 26.1007 14.5273 26.2146C14.4988 26.4228 14.3947 26.6132 14.2347 26.7495C14.0747 26.8857 13.8701 26.9582 13.6601 26.9531H12.1875ZM29.2969 26.8359C29.2961 27.4884 29.0366 28.1139 28.5753 28.5753C28.1139 29.0366 27.4884 29.2961 26.8359 29.2969H14.8828C14.6245 29.296 14.368 29.254 14.123 29.1724C14.2144 29.0029 14.2711 28.8169 14.2898 28.6252C14.3239 28.2677 14.2314 27.9096 14.0285 27.6134C14.3419 27.5432 14.6256 27.3773 14.8404 27.1387C15.0553 26.9 15.1905 26.6004 15.2273 26.2814C15.2468 26.078 15.2253 25.8728 15.1642 25.6778C15.1031 25.4828 15.0036 25.302 14.8716 25.1461C15.1217 25.0185 15.3317 24.8242 15.4784 24.5847C15.625 24.3452 15.7027 24.0699 15.7027 23.7891C15.7027 23.5082 15.625 23.2329 15.4784 22.9934C15.3317 22.7539 15.1217 22.5597 14.8716 22.432C15.0036 22.2761 15.1031 22.0953 15.1642 21.9003C15.2253 21.7054 15.2468 21.5001 15.2273 21.2967C15.1811 20.9149 14.9957 20.5636 14.7066 20.3099C14.4176 20.0563 14.0451 19.9181 13.6605 19.9219H12.4219V3.16406C12.4226 2.51161 12.6821 1.88609 13.1435 1.42474C13.6048 0.963385 14.2304 0.703869 14.8828 0.703125H16.0078L16.7496 2.08594C16.9295 2.43905 17.2019 2.73672 17.5377 2.94722C17.8734 3.15772 18.26 3.27317 18.6562 3.28125H23.0625C23.4586 3.27304 23.8451 3.15754 24.1807 2.94704C24.5163 2.73654 24.7886 2.43894 24.9684 2.08594L25.7109 0.703125H26.8359C27.4884 0.703869 28.1139 0.963385 28.5753 1.42474C29.0366 1.88609 29.2961 2.51161 29.2969 3.16406V26.8359Z" fill="#6A797C"/>
</g>
<defs>
<clipPath id="clip0_1716_9955">
<rect width="30" height="30" fill="white"/>
</clipPath>
</defs>
</svg>
