<svg width="30" height="30" viewBox="0 0 30 30" fill="none" xmlns="http://www.w3.org/2000/svg">
<g clip-path="url(#clip0_1716_9972)">
<path d="M27.3236 7.7718C27.367 7.81579 27.4186 7.85078 27.4755 7.87478C27.5323 7.89878 27.5934 7.9113 27.6552 7.91164C27.7169 7.91198 27.7781 7.90013 27.8353 7.87675C27.8924 7.85338 27.9444 7.81896 27.9882 7.77545C28.032 7.73194 28.0668 7.68021 28.0906 7.62323C28.1144 7.56624 28.1267 7.50512 28.1268 7.44337C28.1269 7.38163 28.1148 7.32047 28.0912 7.26341C28.0676 7.20635 28.0329 7.15451 27.9893 7.11086L25.0221 4.14368C24.9787 4.10022 24.9272 4.06574 24.8705 4.04222C24.8138 4.0187 24.753 4.00659 24.6916 4.00659C24.6302 4.00659 24.5694 4.0187 24.5127 4.04222C24.456 4.06574 24.4045 4.10022 24.3611 4.14368C24.2733 4.23218 24.2241 4.35181 24.2241 4.47649C24.2241 4.60117 24.2733 4.72079 24.3611 4.8093L25.5049 5.95305L23.9346 7.50461C22.2623 5.9461 20.1712 4.90997 17.9182 4.5235C15.6652 4.13703 13.3483 4.41705 11.2523 5.32916C9.15622 6.24128 7.3722 7.74576 6.1194 9.6578C4.86659 11.5698 4.19954 13.8062 4.2002 16.0921C4.2002 16.2164 4.24958 16.3357 4.33749 16.4236C4.4254 16.5115 4.54463 16.5609 4.66895 16.5609C4.79327 16.5609 4.91249 16.5115 5.0004 16.4236C5.08831 16.3357 5.1377 16.2164 5.1377 16.0921C5.13816 13.9558 5.77204 11.8676 6.9592 10.0915C8.14635 8.31546 9.83347 6.93126 11.8072 6.11394C13.781 5.29663 15.9528 5.08291 18.048 5.49979C20.1433 5.91668 22.0679 6.94545 23.5784 8.45605C25.089 9.96664 26.1178 11.8912 26.5347 13.9864C26.9516 16.0817 26.7379 18.2535 25.9206 20.2273C25.1032 22.201 23.719 23.8881 21.943 25.0753C20.1669 26.2625 18.0787 26.8963 15.9424 26.8968C15.8181 26.8968 15.6988 26.9462 15.6109 27.0341C15.523 27.122 15.4736 27.2412 15.4736 27.3655C15.4736 27.4899 15.523 27.6091 15.6109 27.697C15.6988 27.7849 15.8181 27.8343 15.9424 27.8343C18.2201 27.8348 20.4488 27.1725 22.3565 25.9281C24.2642 24.6836 25.7685 22.9109 26.6859 20.8261C27.6034 18.7413 27.8942 16.4345 27.523 14.1872C27.1518 11.94 26.1346 9.84928 24.5955 8.17024L26.1658 6.61399L27.3236 7.7718Z" fill="#6A797C"/>
<path d="M12.8936 3.04272H19.0853C19.2096 3.04272 19.3288 2.99334 19.4167 2.90543C19.5046 2.81752 19.554 2.69829 19.554 2.57397C19.554 2.44965 19.5046 2.33043 19.4167 2.24252C19.3288 2.15461 19.2096 2.10522 19.0853 2.10522H12.8936C12.7692 2.10522 12.65 2.15461 12.5621 2.24252C12.4742 2.33043 12.4248 2.44965 12.4248 2.57397C12.4248 2.69829 12.4742 2.81752 12.5621 2.90543C12.65 2.99334 12.7692 3.04272 12.8936 3.04272Z" fill="#6A797C"/>
<path d="M16.0089 7.94531H16.005C15.8814 7.94537 15.7628 7.99424 15.675 8.08129C15.5872 8.16835 15.5373 8.28654 15.5362 8.41017L15.4717 16.0894C15.4712 16.1516 15.483 16.2134 15.5066 16.271C15.5302 16.3286 15.565 16.3809 15.609 16.4249L19.5348 20.3507C19.6229 20.4378 19.7418 20.4865 19.8657 20.4861C19.9895 20.4857 20.1082 20.4364 20.1958 20.3488C20.2833 20.2612 20.3327 20.1426 20.333 20.0187C20.3334 19.8949 20.2847 19.7759 20.1976 19.6879L16.4108 15.9008L16.4737 8.41796C16.4747 8.29365 16.4263 8.17404 16.3392 8.08541C16.252 7.99678 16.1332 7.94639 16.0089 7.94531Z" fill="#FF725E"/>
<path d="M13.838 17.7324H2.34375C2.21943 17.7324 2.1002 17.7818 2.01229 17.8697C1.92439 17.9576 1.875 18.0769 1.875 18.2012C1.875 18.3255 1.92439 18.4447 2.01229 18.5326C2.1002 18.6205 2.21943 18.6699 2.34375 18.6699H13.838C13.9623 18.6699 14.0815 18.6205 14.1694 18.5326C14.2573 18.4447 14.3067 18.3255 14.3067 18.2012C14.3067 18.0769 14.2573 17.9576 14.1694 17.8697C14.0815 17.7818 13.9623 17.7324 13.838 17.7324Z" fill="#FF725E"/>
<path d="M13.8384 22.3447H4.63574C4.51142 22.3447 4.39219 22.3941 4.30429 22.482C4.21638 22.5699 4.16699 22.6892 4.16699 22.8135C4.16699 22.9378 4.21638 23.057 4.30429 23.1449C4.39219 23.2328 4.51142 23.2822 4.63574 23.2822H13.8384C13.9627 23.2822 14.0819 23.2328 14.1699 23.1449C14.2578 23.057 14.3071 22.9378 14.3071 22.8135C14.3071 22.6892 14.2578 22.5699 14.1699 22.482C14.0819 22.3941 13.9627 22.3447 13.8384 22.3447Z" fill="#FF725E"/>
<path d="M13.8383 26.9573H6.94922C6.8249 26.9573 6.70567 27.0067 6.61776 27.0946C6.52985 27.1825 6.48047 27.3017 6.48047 27.426C6.48047 27.5503 6.52985 27.6696 6.61776 27.7575C6.70567 27.8454 6.8249 27.8948 6.94922 27.8948H13.8383C13.9627 27.8948 14.0819 27.8454 14.1698 27.7575C14.2577 27.6696 14.3071 27.5503 14.3071 27.426C14.3071 27.3017 14.2577 27.1825 14.1698 27.0946C14.0819 27.0067 13.9627 26.9573 13.8383 26.9573Z" fill="#FF725E"/>
</g>
<defs>
<clipPath id="clip0_1716_9972">
<rect width="30" height="30" fill="white"/>
</clipPath>
</defs>
</svg>
