<svg width="30" height="27" viewBox="0 0 30 27" fill="none" xmlns="http://www.w3.org/2000/svg">
<path fill-rule="evenodd" clip-rule="evenodd" d="M28.9286 9.48209C28.9286 9.48209 28.9286 5.96967 28.9286 3.58924C28.9286 2.87885 28.6464 2.19748 28.144 1.69519C27.6417 1.19289 26.9605 0.910645 26.25 0.910645C21.0611 0.910645 7.86751 0.910645 2.67859 0.910645C1.9682 0.910645 1.28684 1.19289 0.784543 1.69519C0.282246 2.19748 0 2.87885 0 3.58924V19.1249C0 19.8353 0.282246 20.5166 0.784543 21.019C1.28684 21.5213 1.9682 21.8035 2.67859 21.8035H20.8929C21.1885 21.8035 21.4286 21.5634 21.4286 21.2678C21.4286 20.9721 21.1885 20.7321 20.8929 20.7321C20.8929 20.7321 7.90705 20.7321 2.67859 20.7321C2.25238 20.7321 1.84352 20.5628 1.54218 20.2614C1.24075 19.9599 1.07142 19.5512 1.07142 19.1249C1.07142 15.3138 1.07142 7.40039 1.07142 3.58924C1.07142 3.16302 1.24075 2.75417 1.54218 2.45283C1.84352 2.15139 2.25238 1.98206 2.67859 1.98206H26.25C26.6763 1.98206 27.0851 2.15139 27.3865 2.45283C27.6878 2.75417 27.8572 3.16302 27.8572 3.58924V9.48209C27.8572 9.77774 28.0972 10.0177 28.3929 10.0177C28.6886 10.0177 28.9286 9.77774 28.9286 9.48209Z" fill="#6A797C"/>
<path fill-rule="evenodd" clip-rule="evenodd" d="M0.535757 18.5892H20.8929C21.1885 18.5892 21.4286 18.3492 21.4286 18.0536C21.4286 17.7579 21.1885 17.5178 20.8929 17.5178H0.535757C0.240107 17.5178 0 17.7579 0 18.0536C0 18.3492 0.240107 18.5892 0.535757 18.5892Z" fill="#6A797C"/>
<path fill-rule="evenodd" clip-rule="evenodd" d="M16.5736 21.0797C16.4952 20.8706 16.2953 20.7322 16.072 20.7322H12.8578C12.6344 20.7322 12.4345 20.8706 12.3561 21.0797L10.749 25.3655C10.6872 25.53 10.7102 25.7143 10.8103 25.8587C10.9103 26.0032 11.0749 26.0893 11.2506 26.0893H17.6792C17.8549 26.0893 18.0194 26.0032 18.1195 25.8587C18.2196 25.7143 18.2424 25.53 18.1807 25.3655L16.5736 21.0797ZM15.7008 21.8036L16.9061 25.0179H12.0236L13.229 21.8036H15.7008Z" fill="#6A797C"/>
<path fill-rule="evenodd" clip-rule="evenodd" d="M9.64308 26.0892H19.2859C19.5816 26.0892 19.8217 25.8492 19.8217 25.5536C19.8217 25.2578 19.5816 25.0178 19.2859 25.0178H9.64308C9.34743 25.0178 9.10742 25.2578 9.10742 25.5536C9.10742 25.8492 9.34743 26.0892 9.64308 26.0892Z" fill="#6A797C"/>
<path fill-rule="evenodd" clip-rule="evenodd" d="M30.0003 11.0891C30.0003 9.90575 29.0409 8.94629 27.8574 8.94629H22.5003C21.3169 8.94629 20.3574 9.90575 20.3574 11.0891V22.8749C20.3574 24.0584 21.3169 25.0178 22.5003 25.0178H27.8574C29.0409 25.0178 30.0003 24.0584 30.0003 22.8749V11.0891ZM28.9289 11.0891V22.8749C28.9289 23.4666 28.4492 23.9463 27.8574 23.9463H22.5004C21.9086 23.9463 21.4289 23.4666 21.4288 22.8749V11.0891C21.4289 10.4974 21.9086 10.0178 22.5003 10.0177H27.8574C28.4492 10.0178 28.9289 10.4974 28.9289 11.0891Z" fill="#FF725E"/>
<path fill-rule="evenodd" clip-rule="evenodd" d="M24.3756 22.8751H25.9828C26.2784 22.8751 26.5184 22.635 26.5184 22.3394C26.5184 22.0437 26.2784 21.8037 25.9828 21.8037H24.3756C24.08 21.8037 23.8398 22.0437 23.8398 22.3394C23.8398 22.635 24.08 22.8751 24.3756 22.8751Z" fill="#FF725E"/>
</svg>
