<svg width="30" height="30" viewBox="0 0 30 30" fill="none" xmlns="http://www.w3.org/2000/svg">
<g id="001-code">
<g id="8">
<path id="Vector" d="M20.4467 21.15C20.2531 21.1489 20.0645 21.0879 19.9069 20.9752C19.7493 20.8625 19.6305 20.7039 19.5668 20.5209C19.5031 20.338 19.4976 20.1399 19.5511 19.9537C19.6046 19.7675 19.7144 19.6025 19.8655 19.4813L25.5655 15L19.9405 10.5563C19.8439 10.48 19.7632 10.3853 19.7031 10.2778C19.643 10.1703 19.6047 10.0521 19.5904 9.92974C19.576 9.80743 19.5859 9.68349 19.6194 9.56499C19.6529 9.44649 19.7095 9.33576 19.7858 9.23911C19.8621 9.14247 19.9568 9.0618 20.0643 9.00173C20.1718 8.94165 20.2901 8.90333 20.4124 8.88897C20.5347 8.8746 20.6586 8.88447 20.7771 8.91801C20.8956 8.95155 21.0064 9.00809 21.103 9.08442L27.6655 14.2594C27.7784 14.3471 27.8698 14.4593 27.9327 14.5877C27.9955 14.7161 28.0282 14.8571 28.0282 15C28.0282 15.143 27.9955 15.284 27.9327 15.4124C27.8698 15.5407 27.7784 15.653 27.6655 15.7407L21.0186 20.925C20.8587 21.0622 20.6572 21.1414 20.4467 21.15Z" fill="#6A797C"/>
<path id="Vector_2" d="M9.68459 22.5471C9.47745 22.5464 9.27636 22.4772 9.11272 22.3502L2.21272 16.9596C2.10442 16.8694 2.01783 16.756 1.9594 16.6278C1.90097 16.4996 1.8722 16.3598 1.87522 16.219C1.87698 16.0774 1.91079 15.938 1.97412 15.8114C2.03744 15.6847 2.12863 15.5741 2.24084 15.4877L9.08459 10.0971C9.18185 10.0208 9.29319 9.96433 9.41226 9.93103C9.53133 9.89773 9.65579 9.88821 9.77854 9.90301C9.90128 9.91781 10.0199 9.95664 10.1277 10.0173C10.2354 10.0779 10.3301 10.1592 10.4065 10.2565C10.4828 10.3537 10.5392 10.4651 10.5725 10.5841C10.6058 10.7032 10.6153 10.8277 10.6005 10.9504C10.5857 11.0732 10.5469 11.1918 10.4863 11.2995C10.4256 11.4073 10.3444 11.502 10.2471 11.5783L4.33147 16.2658L10.294 20.9533C10.445 21.0745 10.5549 21.2396 10.6084 21.4257C10.6619 21.6119 10.6564 21.8101 10.5926 21.993C10.5289 22.1759 10.4101 22.3346 10.2526 22.4472C10.095 22.5599 9.90641 22.621 9.71271 22.6221L9.68459 22.5471Z" fill="#6A797C"/>
<path id="Vector_3" d="M12.2442 28.1251H12.0379C11.917 28.0985 11.8026 28.0482 11.7012 27.9772C11.5998 27.9061 11.5135 27.8157 11.4472 27.7111C11.381 27.6065 11.3361 27.4898 11.3152 27.3678C11.2943 27.2457 11.2978 27.1208 11.3254 27.0001L16.8754 2.60635C16.9 2.48472 16.9484 2.36917 17.0179 2.2664C17.0875 2.16363 17.1767 2.07569 17.2805 2.00767C17.3843 1.93965 17.5005 1.89291 17.6225 1.87015C17.7445 1.84739 17.8697 1.84908 17.9911 1.8751C18.1111 1.90273 18.2246 1.95376 18.3249 2.02527C18.4253 2.09678 18.5105 2.18737 18.5758 2.29185C18.6411 2.39634 18.6852 2.51267 18.7055 2.6342C18.7258 2.75572 18.722 2.88006 18.6942 3.0001L13.1254 27.3939C13.08 27.596 12.9689 27.7774 12.8094 27.9097C12.65 28.042 12.4512 28.1177 12.2442 28.1251Z" fill="#FF725E"/>
</g>
</g>
</svg>
