<svg width="30" height="37" viewBox="0 0 30 37" fill="none" xmlns="http://www.w3.org/2000/svg">
<g clip-path="url(#clip0_1716_10041)">
<path d="M15.0005 23.9326C20.29 23.9326 24.5781 19.6506 24.5781 14.3684C24.5781 9.08624 20.29 4.8042 15.0005 4.8042C9.71089 4.8042 5.42285 9.08624 5.42285 14.3684C5.42285 19.6506 9.71089 23.9326 15.0005 23.9326Z" fill="#6A797C"/>
<path d="M27.6293 21.6289V18.9521C27.6293 18.6171 27.7175 18.3463 27.9156 18.0749L29.491 15.9093C30.17 14.9735 30.17 13.7635 29.4903 12.827L27.9142 10.6607C27.7168 10.392 27.6293 10.122 27.6293 9.78489V7.10807C27.6293 5.95088 26.9178 4.97211 25.8163 4.61459L23.2685 3.78884C22.9491 3.68518 22.7178 3.51805 22.5204 3.24656L20.945 1.07958C20.2652 0.145229 19.1144 -0.227805 18.0136 0.12901L15.4637 0.954763C15.1436 1.05842 14.8587 1.05842 14.5386 0.954763L11.9901 0.12901C10.89 -0.2271 9.73847 0.145934 9.05657 1.07958L7.48193 3.24656C7.28378 3.51876 7.05319 3.68588 6.73375 3.78954L4.18597 4.61529C3.08309 4.97211 2.37157 5.95088 2.37157 7.10877V9.78559C2.37157 10.1227 2.28343 10.3927 2.08527 10.6628L0.50922 12.8277C-0.169858 13.7635 -0.169858 14.9728 0.509925 15.9093L2.08527 18.0749C2.28272 18.3463 2.37157 18.6164 2.37157 18.9521V21.6289C2.37157 22.7861 3.08309 23.7649 4.18456 24.1224L4.45464 24.2098L1.08393 30.0402C0.899884 30.3561 0.909051 30.7432 1.10791 31.0507C1.30677 31.3574 1.65512 31.5252 2.01335 31.4879L6.96786 31.0147L9.0326 35.5334C9.18209 35.8641 9.50083 36.0813 9.86611 36.1004C10.2286 36.1187 10.567 35.9347 10.7518 35.6173L15.0004 28.2688L19.2505 35.6195C19.4261 35.9206 19.742 36.1018 20.0847 36.1018C20.1016 36.1018 20.1179 36.1011 20.1348 36.1004C20.505 36.0813 20.8167 35.8691 20.9669 35.5355L23.033 31.014L27.9833 31.4865C28.3451 31.5245 28.6948 31.3567 28.8937 31.05C29.0925 30.7425 29.1017 30.3554 28.9184 30.0416L25.5462 24.2098L25.8156 24.1224C26.9178 23.7649 27.6293 22.7861 27.6293 21.6289Z" fill="#6A797C"/>
<path d="M3.49998 21.6289V18.9521C3.49998 18.3788 3.33567 17.8739 2.9979 17.4106L1.42325 15.2465C1.03612 14.7134 1.03612 14.0237 1.42255 13.4913L2.99649 11.3278C3.33497 10.866 3.49998 10.3611 3.49998 9.78493V7.10811C3.49998 6.44877 3.90545 5.89099 4.53305 5.6879L7.08082 4.86214C7.62663 4.68515 8.05607 4.37417 8.39385 3.90946L9.96849 1.74389C10.3577 1.21148 11.015 0.999228 11.6426 1.20232L14.1903 2.02807C14.7354 2.20436 15.2657 2.20436 15.8108 2.02807L18.3614 1.20232C18.9897 0.998523 19.6455 1.21078 20.0327 1.74318L21.608 3.91017C21.9458 4.37417 22.3752 4.68585 22.921 4.86285L25.4688 5.6886C26.0964 5.8924 26.5019 6.44948 26.5019 7.10881V9.78563C26.5019 10.3618 26.6662 10.8667 27.004 11.3271L28.5786 13.4913C28.9657 14.0244 28.9657 14.7141 28.5793 15.2465L27.0047 17.4106C26.6662 17.8746 26.5019 18.3788 26.5019 18.9521V21.6289C26.5019 22.2883 26.0964 22.8454 25.4688 23.0492L22.9217 23.8763C22.3745 24.0533 21.9451 24.3643 21.6087 24.8269L20.0334 26.9939C19.6462 27.527 18.9904 27.7399 18.3621 27.5361L15.8115 26.7083C15.5386 26.6201 15.27 26.5757 15.0013 26.5757C14.7326 26.5757 14.4639 26.6201 14.191 26.7083L11.6433 27.5361C11.015 27.7392 10.3577 27.5263 9.9699 26.9939L8.39455 24.8269C8.05819 24.3643 7.62874 24.0533 7.08223 23.8763L4.53446 23.0485C3.90545 22.8454 3.49998 22.2883 3.49998 21.6289Z" fill="white"/>
<path d="M25.2067 14.3685C25.2067 19.9971 20.6379 24.561 15.0008 24.561C9.36366 24.561 4.79492 19.9971 4.79492 14.3685C4.79492 8.73994 9.36366 4.17603 15.0008 4.17603C20.6379 4.17603 25.2067 8.73994 25.2067 14.3685Z" stroke="#6A797C"/>
<path d="M9.93037 34.7838L7.94743 30.4442C7.77819 30.0691 7.38682 29.8427 6.97289 29.8801L2.21582 30.3342L5.55127 24.5659L6.73243 24.9495C7.05328 25.0532 7.28457 25.2203 7.48061 25.4904L9.05596 27.6574C9.73715 28.5924 10.888 28.9655 11.9902 28.6094L13.849 28.0057L9.93037 34.7838Z" fill="white"/>
<path d="M27.7845 30.3342L23.0254 29.88C22.6107 29.842 22.2299 30.0613 22.0543 30.4414L20.07 34.7838L16.1514 28.0057L18.0123 28.6093C18.2894 28.6996 18.5701 28.7433 18.8451 28.7426C19.6631 28.7426 20.436 28.3569 20.9444 27.6566L22.519 25.4897C22.7158 25.2196 22.9464 25.0525 23.2679 24.9488L24.4484 24.5652L27.7845 30.3342Z" fill="white"/>
<path d="M9.06999 20.0422H12.2482C12.5599 20.0422 12.8123 19.7897 12.8123 19.478V19.4667H13.4392C13.5542 19.4667 13.6374 19.5013 13.7213 19.5859L13.8891 19.7516C14.1804 20.0429 14.5527 20.1966 14.9666 20.1966H19.326C19.6722 20.1966 20.4987 20.0725 20.6891 18.9209C20.6898 18.9167 20.6905 18.9118 20.6912 18.9075L21.4894 13.2563C21.493 13.2302 21.4951 13.2041 21.4951 13.1773C21.4951 12.3326 20.8075 11.6457 19.962 11.6457H17.9629L18.3218 10.5245C18.5454 9.82286 18.4819 8.68542 17.9854 8.06699C17.8747 7.9316 17.5341 7.58395 17.4009 7.47676C16.9404 7.10161 16.3212 7.02616 15.7853 7.27931C15.2473 7.53247 14.913 8.06064 14.913 8.65721V10.0563C14.913 10.1663 14.8806 10.2474 14.8023 10.3292L14.2262 10.9342C14.15 11.0132 14.0887 11.0929 14.0266 11.1944L12.9449 12.9736C12.9082 13.0328 12.8631 13.0786 12.8109 13.1097C12.7891 12.8177 12.5465 12.5878 12.2489 12.5878H9.06999C8.75831 12.5878 8.50586 12.8403 8.50586 13.152V19.4766C8.50586 19.789 8.75831 20.0422 9.06999 20.0422Z" fill="#FF725E"/>
<path d="M13.9076 13.5625L14.9887 11.7841C15.0091 11.751 15.0211 11.7362 15.0408 11.7157L15.6184 11.1093C15.8948 10.8201 16.0415 10.457 16.0415 10.0571V8.65809C16.0415 8.4959 16.1212 8.36897 16.2671 8.30057C16.4131 8.23146 16.5626 8.2498 16.6909 8.35416C16.7614 8.41199 17.0449 8.69899 17.1091 8.77727C17.3129 9.03113 17.3841 9.75251 17.2473 10.1806L16.6528 12.0373C16.5978 12.2086 16.6282 12.3962 16.7346 12.5422C16.8411 12.6881 17.0104 12.7735 17.1902 12.7735H19.9622C20.1709 12.7735 20.3493 12.9413 20.3656 13.1458L19.5751 18.7413C19.5201 19.0664 19.4298 19.0671 19.3261 19.0671H14.9668C14.8511 19.0671 14.7672 19.0325 14.6847 18.95L14.519 18.7864C14.2278 18.4924 13.8547 18.3372 13.4394 18.3372H12.8125V14.279C13.268 14.2205 13.6594 13.9673 13.9076 13.5625Z" fill="white"/>
<path d="M11.6837 13.7175H9.63379V18.9139H11.6837V13.7175Z" fill="white"/>
</g>
<defs>
<clipPath id="clip0_1716_10041">
<rect width="30" height="36.1061" fill="white" transform="translate(0 -0.00415039)"/>
</clipPath>
</defs>
</svg>
