<svg width="30" height="31" viewBox="0 0 30 31" fill="none" xmlns="http://www.w3.org/2000/svg">
<path d="M2.2966 12.432L6.3668 16.5024C6.5158 16.6514 6.59774 16.8494 6.59774 17.06V21.0784C6.59774 21.3211 6.79458 21.5179 7.03719 21.5179C7.2798 21.5179 7.47664 21.3211 7.47664 21.0784V17.06C7.47664 16.6146 7.30315 16.1959 6.98821 15.881L2.60719 11.5C2.43553 11.3283 2.15744 11.3283 1.98578 11.5L1.09886 12.3867C1.01806 12.4675 0.878905 12.4086 0.878905 12.2956V7.86419C0.878905 7.70627 1.00731 7.57786 1.16524 7.57786H5.59661C5.71151 7.57786 5.7685 7.71702 5.68771 7.79782C5.68771 7.79782 4.8017 8.68405 4.80102 8.68474C4.63142 8.85434 4.63142 9.13678 4.80102 9.30615L10.1248 14.6299C10.4178 14.9229 10.5791 15.3125 10.5791 15.7267V29.1946H7.47664V22.8362C7.47664 22.5936 7.2798 22.3968 7.03719 22.3968C6.79458 22.3968 6.59774 22.5936 6.59774 22.8362V29.6338C6.59774 29.8766 6.79458 30.0733 7.03719 30.0733H11.0186C11.2612 30.0733 11.458 29.8766 11.458 29.6338V15.7267C11.458 15.0776 11.2051 14.4674 10.7462 14.0083L5.73325 8.99533C5.73325 8.99533 6.30843 8.41992 6.30935 8.41923C6.9319 7.79645 6.47414 6.69873 5.59661 6.69873H1.16524C0.522765 6.69873 0 7.2215 0 7.86419V12.2956C0 13.166 1.09497 13.6336 1.7205 13.0081L2.2966 12.432Z" fill="#6A797C"/>
<path d="M29.041 18.1012C28.9959 18.1197 28.9408 18.1142 28.9009 18.0744C28.9009 18.0744 28.0156 17.1889 28.0143 17.1875C27.8373 17.0106 27.5393 17.02 27.3738 17.2076L26.1029 18.6489C25.9422 18.8309 25.9596 19.1085 26.1415 19.2692C26.3237 19.4296 26.6014 19.4122 26.7618 19.2303L27.7236 18.1399C27.7236 18.1399 28.2791 18.6954 28.2795 18.6958C28.9023 19.3186 30 18.8609 30 17.9833V13.552C30 12.9095 29.4773 12.3867 28.8348 12.3867C28.8348 12.3867 24.408 12.3867 24.4034 12.3867C23.5245 12.3867 23.0693 13.4856 23.6907 14.107L24.2668 14.6831L19.2538 19.696C18.7947 20.1552 18.542 20.7654 18.542 21.4145V29.6339C18.542 29.8767 18.7388 30.0733 18.9814 30.0733H22.9628C23.2055 30.0733 23.4023 29.8767 23.4023 29.6339V23.3337C23.4023 23.1229 23.4842 22.9249 23.6332 22.7761C23.6396 22.7697 23.646 22.7628 23.652 22.756L25.6073 20.5392C25.7678 20.3573 25.7504 20.0794 25.5684 19.919C25.3865 19.7585 25.1086 19.7759 24.9482 19.9579L23.0013 22.1652C22.693 22.4788 22.5234 22.8931 22.5234 23.3337V29.1944H19.4209V21.4145C19.4209 21.0002 19.5823 20.6107 19.8752 20.3175C19.8752 20.3175 25.1944 14.9983 25.199 14.9939C25.3686 14.8243 25.3684 14.5419 25.199 14.3725C25.199 14.3725 24.3196 13.4931 24.3121 13.4856C24.2359 13.4094 24.2837 13.2656 24.4032 13.2656H28.8346C28.9925 13.2656 29.1209 13.394 29.1209 13.552V17.9831C29.1211 18.0399 29.0861 18.0824 29.041 18.1012Z" fill="#6A797C"/>
<path d="M13.0089 30.0733H16.9903C17.2331 30.0733 17.4297 29.8767 17.4297 29.6338V5.32089H18.2445C19.123 5.32089 19.5787 4.22226 18.957 3.60062C18.957 3.60062 15.825 0.468601 15.8237 0.466999C15.3744 0.0179331 14.6243 0.0183909 14.1757 0.466999L11.0423 3.60039C10.4198 4.22294 10.8775 5.32089 11.7548 5.32089H12.5694V29.6338C12.5694 29.8767 12.7663 30.0733 13.0089 30.0733ZM11.7548 4.44198C11.6456 4.44198 11.5809 4.30465 11.6637 4.22203C11.6637 4.22203 14.7921 1.09368 14.7971 1.08864C14.9079 0.977633 15.0912 0.977633 15.2022 1.08864C15.2022 1.08864 18.3315 4.21791 18.3356 4.22203C18.413 4.29916 18.3615 4.44198 18.2445 4.44198H16.9903C16.7476 4.44198 16.5508 4.63882 16.5508 4.88144V29.1944H13.4483V4.88144C13.4483 4.63882 13.2517 4.44198 13.0089 4.44198C13.0089 4.44198 11.758 4.44198 11.7548 4.44198Z" fill="#FF725E"/>
</svg>
