<svg width="30" height="31" viewBox="0 0 30 31" fill="none" xmlns="http://www.w3.org/2000/svg">
<g id="quick-review-code 1" clip-path="url(#clip0_1716_10002)">
<g id="Group">
<g id="Page-1_18_">
<g id="_x30_19---Review-Code">
<path id="Shape_311_" d="M19.6544 10.6272C19.8495 10.4322 20.1657 10.4322 20.3608 10.6272L22.8586 13.1251C23.0536 13.3202 23.0536 13.6364 22.8586 13.8314L20.3608 16.3293C20.1648 16.5186 19.8532 16.5159 19.6605 16.3232C19.4678 16.1305 19.4651 15.8189 19.6544 15.6229L21.799 13.4783L19.6544 11.3336C19.4594 11.1386 19.4594 10.8223 19.6544 10.6272Z" fill="#FF725E"/>
<path id="Shape_310_" d="M14.3655 16.3293C14.1704 16.5244 13.8542 16.5244 13.6591 16.3293L11.1613 13.8315C10.9662 13.6364 10.9662 13.3202 11.1613 13.1251L13.6591 10.6273C13.8551 10.438 14.1667 10.4407 14.3594 10.6334C14.5521 10.826 14.5548 11.1377 14.3655 11.3337L12.2208 13.4783L14.3655 15.6229C14.5605 15.818 14.5605 16.1343 14.3655 16.3293Z" fill="#FF725E"/>
<path id="Shape_309_" d="M15.8255 16.4402C15.9485 16.4894 16.086 16.4877 16.2078 16.4355C16.3296 16.3833 16.4257 16.2849 16.4749 16.1619L18.4731 11.1662C18.5396 11.0004 18.5124 10.8118 18.402 10.6714C18.2916 10.531 18.1147 10.4602 17.9379 10.4856C17.7611 10.511 17.6113 10.6288 17.5449 10.7946L15.5466 15.7902C15.4973 15.9134 15.4989 16.0511 15.5512 16.173C15.6036 16.2949 15.7022 16.391 15.8255 16.4402Z" fill="#FF725E"/>
<path id="Shape_308_" d="M17.0099 26.4671C14.0822 26.4692 11.2405 25.477 8.95039 23.653L7.50562 25.0982C7.47789 25.5815 7.27404 26.0379 6.93264 26.3811L3.43567 29.8781C2.93392 30.3976 2.19101 30.6059 1.49232 30.423C0.793625 30.2401 0.248016 29.6945 0.0651741 28.9958C-0.117666 28.2972 0.0906487 27.5542 0.610069 27.0525L4.10704 23.5555C4.44749 23.2249 4.89608 23.0286 5.36997 23.003L6.83521 21.5378C3.08117 16.7905 3.10569 10.079 6.89437 5.35941C10.683 0.639799 17.2305 -0.835435 22.6772 1.80327C28.1238 4.44198 31.0244 10.4944 29.669 16.3929C28.3137 22.2914 23.0621 26.4706 17.0099 26.4671ZM1.31644 27.759C0.926411 28.1491 0.926411 28.7816 1.31644 29.1718C1.7117 29.5494 2.33397 29.5494 2.72924 29.1718L6.22621 25.6748C6.48595 25.4239 6.59011 25.0525 6.49868 24.7031C6.40726 24.3538 6.13443 24.081 5.78511 23.9896C5.4358 23.8982 5.06428 24.0023 4.81347 24.2621L1.31644 27.759ZM6.52797 23.2579C6.67575 23.339 6.81187 23.4399 6.93264 23.5576C7.04918 23.6775 7.14994 23.8118 7.23237 23.9573L8.18706 23.0021C7.94428 22.7773 7.71013 22.5432 7.48467 22.2997L6.52797 23.2579ZM17.0099 1.48866C10.3882 1.48866 5.02024 6.8566 5.02024 13.4783C5.02024 20.1 10.3882 25.468 17.0099 25.468C23.6316 25.468 28.9995 20.1 28.9995 13.4783C28.9918 6.85982 23.6284 1.49639 17.0099 1.48866Z" fill="#4F5B5E"/>
<path id="Shape_307_" d="M17.0095 24.4688C10.9396 24.4688 6.01898 19.5482 6.01898 13.4783C6.01898 7.40839 10.9396 2.48779 17.0095 2.48779C23.0793 2.48779 28 7.40839 28 13.4783C27.9931 19.5453 23.0765 24.4619 17.0095 24.4688ZM17.0095 3.48694C11.4914 3.48694 7.01812 7.96019 7.01812 13.4783C7.01812 18.9964 11.4914 23.4697 17.0095 23.4697C22.5276 23.4697 27.0009 18.9964 27.0009 13.4783C26.9945 7.96287 22.5249 3.49324 17.0095 3.48694Z" fill="#4F5B5E"/>
<path id="Shape_305_" d="M22.5053 7.48346H11.5148C11.2389 7.48346 11.0153 7.25979 11.0153 6.98392C11.0153 6.70799 11.239 6.48438 11.5148 6.48438H22.5053C22.7813 6.48438 23.0049 6.70805 23.0049 6.98392C23.0049 7.25979 22.7812 7.48346 22.5053 7.48346Z" fill="#4F5B5E"/>
<path id="Shape_303_" d="M19.0083 5.48517H15.0117C14.7358 5.48517 14.5122 5.2615 14.5122 4.98563C14.5122 4.70976 14.7358 4.48608 15.0117 4.48608H19.0083C19.2842 4.48608 19.5078 4.70976 19.5078 4.98563C19.5078 5.2615 19.2841 5.48517 19.0083 5.48517Z" fill="#4F5B5E"/>
<path id="Shape_300_" d="M11.5147 19.4731H19.0083C19.2842 19.4731 19.5078 19.6968 19.5078 19.9727C19.5078 20.2486 19.2841 20.4722 19.0083 20.4722H11.5147C11.2388 20.4722 11.0152 20.2486 11.0152 19.9727C11.0152 19.6968 11.2389 19.4731 11.5147 19.4731Z" fill="#4F5B5E"/>
<path id="Shape_299_" d="M21.0067 19.4731H22.5053C22.7813 19.4731 23.0049 19.6968 23.0049 19.9727C23.0049 20.2486 22.7812 20.4722 22.5053 20.4722H21.0067C20.7307 20.4722 20.5071 20.2486 20.5071 19.9727C20.5071 19.6968 20.7307 19.4731 21.0067 19.4731Z" fill="#4F5B5E"/>
</g>
</g>
</g>
</g>
<defs>
<clipPath id="clip0_1716_10002">
<rect width="30" height="30" fill="white" transform="matrix(-1 0 0 1 30 0.49585)"/>
</clipPath>
</defs>
</svg>
