<svg width="32" height="31" viewBox="0 0 32 31" fill="none" xmlns="http://www.w3.org/2000/svg">
<path fill-rule="evenodd" clip-rule="evenodd" d="M2.6709 8.07582V2.77834C2.6709 1.45718 3.74527 0.382812 5.06643 0.382812H16.5306C17.8511 0.382812 18.9261 1.45718 18.9261 2.77834V2.85975H26.932C28.2531 2.85975 29.3275 3.93412 29.3275 5.25529V10.5528C29.3275 11.8464 28.2974 12.9041 27.014 12.947V14.7252C27.014 15.1547 26.7884 15.5323 26.4108 15.7361C26.2371 15.8304 26.0493 15.8772 25.8634 15.8772C25.6448 15.8772 25.4281 15.8131 25.2345 15.6861L21.0582 12.9489H15.4684C14.1473 12.9489 13.0723 11.8739 13.0723 10.5534V10.4726H10.9402L6.76388 13.2105C6.57029 13.3374 6.35298 13.4009 6.13503 13.4009C5.94913 13.4009 5.76195 13.3547 5.58759 13.2605C5.21002 13.0566 4.98502 12.6784 4.98502 12.2496V10.4713C3.70103 10.4271 2.6709 9.36942 2.6709 8.07582Z" fill="#FF725E"/>
<path fill-rule="evenodd" clip-rule="evenodd" d="M3.44043 8.07587V2.77839C3.44043 1.88159 4.16992 1.1521 5.06672 1.1521H16.5309C17.4271 1.1521 18.1572 1.88159 18.1572 2.77839V8.07651C18.1572 8.97331 17.4271 9.7028 16.5309 9.7028H10.8257C10.7507 9.7028 10.6777 9.7246 10.6148 9.76562L6.34237 12.5663C6.21994 12.6464 6.08212 12.6522 5.95391 12.583C5.82506 12.5131 5.75455 12.3945 5.75455 12.249V10.0874C5.75455 9.87524 5.58211 9.7028 5.36993 9.7028H5.06672C4.16992 9.70216 3.44043 8.97267 3.44043 8.07587Z" fill="white"/>
<path fill-rule="evenodd" clip-rule="evenodd" d="M16.5309 10.4713C17.8514 10.4713 18.9265 9.3969 18.9265 8.07573V3.62891H26.9323C27.8291 3.62891 28.5586 4.3584 28.5586 5.2552V10.5527C28.5586 11.4495 27.8291 12.179 26.9323 12.179H26.6297C26.4169 12.179 26.2451 12.3514 26.2451 12.5636V14.7251C26.2451 14.8713 26.1739 14.9899 26.0457 15.0591C25.9169 15.1284 25.7791 15.1226 25.6566 15.0425L21.3842 12.2418C21.3213 12.2008 21.2483 12.179 21.1733 12.179H15.4687C14.5719 12.179 13.8418 11.4495 13.8418 10.5527V10.4719H16.5309V10.4713Z" fill="white"/>
<path fill-rule="evenodd" clip-rule="evenodd" d="M21.2007 8.46959C21.3769 8.46959 21.5366 8.39779 21.6519 8.28241C21.7673 8.16702 21.8385 8.00741 21.8385 7.83176C21.8385 7.65612 21.7673 7.49651 21.6519 7.38112C21.5366 7.26573 21.3769 7.19458 21.2007 7.19458C21.025 7.19458 20.8654 7.26573 20.75 7.38112C20.6346 7.49651 20.5635 7.65612 20.5635 7.83176C20.5635 8.00741 20.6346 8.16702 20.75 8.28241C20.8654 8.39844 21.025 8.46959 21.2007 8.46959Z" fill="#FF725E"/>
<path fill-rule="evenodd" clip-rule="evenodd" d="M24.3278 8.2829C24.4432 8.39828 24.6022 8.47008 24.7785 8.47008C24.9547 8.47008 25.1137 8.39828 25.2291 8.2829C25.3445 8.16751 25.4163 8.0079 25.4163 7.83225C25.4163 7.65661 25.3445 7.49699 25.2291 7.38161C25.1137 7.26622 24.9547 7.19507 24.7785 7.19507C24.6022 7.19507 24.4432 7.26622 24.3278 7.38161C24.2124 7.49699 24.1406 7.65661 24.1406 7.83225C24.1406 8.0079 24.2124 8.16751 24.3278 8.2829Z" fill="#FF725E"/>
<path fill-rule="evenodd" clip-rule="evenodd" d="M14.3764 5.99312C14.5527 5.99312 14.7117 5.92196 14.8271 5.80658C14.9425 5.69119 15.0143 5.53158 15.0143 5.35593C15.0143 5.18029 14.9425 5.02068 14.8271 4.90529C14.7117 4.7899 14.5527 4.71875 14.3764 4.71875C14.2008 4.71875 14.0412 4.7899 13.9258 4.90529C13.8104 5.02068 13.7393 5.18029 13.7393 5.35593C13.7393 5.53222 13.8104 5.69119 13.9258 5.80658C14.0412 5.92132 14.2008 5.99312 14.3764 5.99312Z" fill="#FF725E"/>
<path fill-rule="evenodd" clip-rule="evenodd" d="M10.799 5.99312C10.9746 5.99312 11.1342 5.92196 11.2496 5.80658C11.365 5.69119 11.4361 5.53158 11.4361 5.35593C11.4361 5.18029 11.365 5.02068 11.2496 4.90529C11.1342 4.7899 10.9746 4.71875 10.799 4.71875C10.6227 4.71875 10.4631 4.7899 10.3477 4.90529C10.2323 5.02068 10.1611 5.18029 10.1611 5.35593C10.1611 5.53222 10.2323 5.69119 10.3477 5.80658C10.4631 5.92132 10.6227 5.99312 10.799 5.99312Z" fill="#FF725E"/>
<path fill-rule="evenodd" clip-rule="evenodd" d="M7.22083 5.99312C7.39712 5.99312 7.55609 5.92196 7.67148 5.80658C7.78686 5.69119 7.85866 5.53158 7.85866 5.35593C7.85866 5.18029 7.78686 5.02068 7.67148 4.90529C7.55609 4.7899 7.39712 4.71875 7.22083 4.71875C7.04455 4.71875 6.88557 4.7899 6.77019 4.90529C6.6548 5.02068 6.58301 5.18029 6.58301 5.35593C6.58301 5.53222 6.6548 5.69119 6.77019 5.80658C6.88557 5.92132 7.04455 5.99312 7.22083 5.99312Z" fill="#FF725E"/>
<path fill-rule="evenodd" clip-rule="evenodd" d="M31.2516 27.508C30.8561 27.951 30.333 28.185 29.7394 28.185H26.333C26.3811 28.751 26.2061 29.2747 25.824 29.7023C25.4285 30.1452 24.9054 30.3792 24.3118 30.3792H18.5426C17.949 30.3792 17.4259 30.1452 17.0304 29.7023C16.6483 29.2754 16.4733 28.7516 16.5214 28.185H15.4778C15.5259 28.7516 15.3509 29.2754 14.9688 29.7023C14.5733 30.1452 14.0502 30.3792 13.4566 30.3792H7.68736C7.09376 30.3792 6.57068 30.1452 6.17516 29.7023C5.79311 29.2754 5.61811 28.7516 5.66619 28.185H2.25975C1.66616 28.185 1.14308 27.951 0.74756 27.508C0.352045 27.0657 0.177685 26.5196 0.244352 25.9298C0.455251 24.0503 1.84629 22.5683 3.62963 22.1843C2.78988 21.6715 2.22834 20.7471 2.22834 19.6939C2.22834 18.0862 3.53668 16.7778 5.14439 16.7778C6.75273 16.7778 8.06044 18.0862 8.06044 19.6939C8.06044 20.7484 7.49825 21.6734 6.65786 22.1856C7.03607 22.2689 7.39953 22.4029 7.73992 22.5804C7.68543 22.358 7.65594 22.1259 7.65594 21.8875C7.65594 20.2798 8.96429 18.9714 10.572 18.9714C12.1803 18.9714 13.488 20.2798 13.488 21.8875C13.488 22.1259 13.4586 22.358 13.4041 22.5804C13.7445 22.4022 14.1079 22.2683 14.4861 22.1856C13.6457 21.6734 13.0835 20.7477 13.0835 19.6939C13.0835 18.0862 14.3919 16.7778 15.9996 16.7778C17.6073 16.7778 18.9156 18.0862 18.9156 19.6939C18.9156 20.7484 18.3535 21.6734 17.5131 22.1856C17.8913 22.2689 18.2547 22.4029 18.5951 22.5804C18.5406 22.358 18.5112 22.1259 18.5112 21.8875C18.5112 20.2798 19.8189 18.9714 21.4272 18.9714C23.0349 18.9714 24.3432 20.2798 24.3432 21.8875C24.3432 22.1259 24.3138 22.358 24.2593 22.5804C24.5997 22.4022 24.9631 22.2683 25.3413 22.1856C24.5009 21.6734 23.9388 20.7477 23.9388 19.6939C23.9388 18.0862 25.2465 16.7778 26.8548 16.7778C28.4625 16.7778 29.7709 18.0862 29.7709 19.6939C29.7709 20.7471 29.2093 21.6721 28.3696 22.1843C30.1529 22.5683 31.5439 24.0503 31.7548 25.9298C31.8215 26.5196 31.6471 27.0651 31.2516 27.508Z" fill="#6A797C"/>
<path fill-rule="evenodd" clip-rule="evenodd" d="M30.9909 26.0157C30.7884 24.2137 29.2672 22.8547 27.4531 22.8547H26.2569C25.0569 22.8547 23.9351 23.474 23.2812 24.465C24.6755 24.8862 25.7813 25.9919 26.187 27.415H29.7396C30.1134 27.415 30.4294 27.274 30.6781 26.9952C30.9275 26.7163 31.0326 26.3868 30.9909 26.0157Z" fill="white"/>
<path fill-rule="evenodd" clip-rule="evenodd" d="M25.5639 28.2093C25.6056 28.5811 25.5005 28.9105 25.2511 29.1888C25.0024 29.4676 24.6864 29.6086 24.3126 29.6086H18.5434C18.1697 29.6086 17.8536 29.4676 17.6043 29.1888C17.3555 28.9099 17.2504 28.5804 17.2921 28.2093C17.4946 26.4073 19.0158 25.0483 20.8299 25.0483H22.0261C23.8402 25.0483 25.3614 26.4073 25.5639 28.2093Z" fill="white"/>
<path fill-rule="evenodd" clip-rule="evenodd" d="M19.5733 24.465C18.9194 23.474 17.7976 22.8547 16.5976 22.8547H15.4014C14.2014 22.8547 13.0796 23.474 12.4258 24.465C13.82 24.8862 14.9258 25.9919 15.3316 27.415H16.6675C17.0733 25.9926 18.179 24.8868 19.5733 24.465Z" fill="white"/>
<path fill-rule="evenodd" clip-rule="evenodd" d="M14.7085 28.2093C14.7501 28.5811 14.645 28.9105 14.3963 29.1888C14.1469 29.4676 13.8309 29.6086 13.4572 29.6086H7.68791C7.31418 29.6086 6.99816 29.4676 6.7488 29.1888C6.50008 28.9099 6.39495 28.5804 6.43661 28.2093C6.63918 26.4073 8.16034 25.0483 9.97446 25.0483H11.1706C12.9847 25.0483 14.5059 26.4073 14.7085 28.2093Z" fill="white"/>
<path fill-rule="evenodd" clip-rule="evenodd" d="M8.71855 24.465C8.0647 23.474 6.9429 22.8547 5.74289 22.8547H4.54672C2.73261 22.8547 1.21144 24.2137 1.00888 26.0157C0.967211 26.3875 1.07234 26.7169 1.3217 26.9952C1.57042 27.274 1.88645 27.415 2.26017 27.415H5.81276C6.21853 25.9926 7.32431 24.8868 8.71855 24.465Z" fill="white"/>
<path d="M5.21624 21.8377C6.40117 21.7982 7.32975 20.8056 7.29027 19.6207C7.25079 18.4358 6.2582 17.5072 5.07326 17.5467C3.88832 17.5862 2.95974 18.5787 2.99922 19.7637C3.03871 20.9486 4.0313 21.8772 5.21624 21.8377Z" fill="white"/>
<path d="M10.5726 24.0343C11.7582 24.0343 12.7194 23.0732 12.7194 21.8875C12.7194 20.7019 11.7582 19.7407 10.5726 19.7407C9.38694 19.7407 8.42578 20.7019 8.42578 21.8875C8.42578 23.0732 9.38694 24.0343 10.5726 24.0343Z" fill="white"/>
<path d="M15.9994 21.84C17.185 21.84 18.1462 20.8788 18.1462 19.6932C18.1462 18.5075 17.185 17.5464 15.9994 17.5464C14.8137 17.5464 13.8525 18.5075 13.8525 19.6932C13.8525 20.8788 14.8137 21.84 15.9994 21.84Z" fill="white"/>
<path d="M21.4271 24.0343C22.6127 24.0343 23.5739 23.0732 23.5739 21.8875C23.5739 20.7019 22.6127 19.7407 21.4271 19.7407C20.2414 19.7407 19.2803 20.7019 19.2803 21.8875C19.2803 23.0732 20.2414 24.0343 21.4271 24.0343Z" fill="white"/>
<path d="M26.8548 21.84C28.0405 21.84 29.0016 20.8788 29.0016 19.6932C29.0016 18.5075 28.0405 17.5464 26.8548 17.5464C25.6692 17.5464 24.708 18.5075 24.708 19.6932C24.708 20.8788 25.6692 21.84 26.8548 21.84Z" fill="white"/>
</svg>
