<svg width="1282" height="898" viewBox="0 0 1282 898" fill="none" xmlns="http://www.w3.org/2000/svg">
<circle cx="5" cy="5" r="5" fill="#FFE5E1"/>
<circle cx="323" cy="5" r="5" fill="#FFE5E1"/>
<circle cx="641" cy="5" r="5" fill="#FFE5E1"/>
<circle cx="959" cy="5" r="5" fill="#FFE5E1"/>
<circle cx="1277" cy="5" r="5" fill="#FFE5E1"/>
<circle cx="5" cy="153" r="5" fill="#FFE5E1"/>
<circle cx="323" cy="153" r="5" fill="#FFE5E1"/>
<circle cx="641" cy="153" r="5" fill="#FFE5E1"/>
<circle cx="959" cy="153" r="5" fill="#FFE5E1"/>
<circle cx="1277" cy="153" r="5" fill="#FFE5E1"/>
<circle cx="5" cy="301" r="5" fill="#FFE5E1"/>
<circle cx="323" cy="301" r="5" fill="#FFE5E1"/>
<circle cx="641" cy="301" r="5" fill="#FFE5E1"/>
<circle cx="959" cy="301" r="5" fill="#FFE5E1"/>
<circle cx="1277" cy="301" r="5" fill="#FFE5E1"/>
<circle cx="5" cy="449" r="5" fill="#FFE5E1"/>
<circle cx="323" cy="449" r="5" fill="#FFE5E1"/>
<circle cx="641" cy="449" r="5" fill="#FFE5E1"/>
<circle cx="959" cy="449" r="5" fill="#FFE5E1"/>
<circle cx="1277" cy="449" r="5" fill="#FFE5E1"/>
<circle cx="5" cy="597" r="5" fill="#FFE5E1"/>
<circle cx="323" cy="597" r="5" fill="#FFE5E1"/>
<circle cx="641" cy="597" r="5" fill="#FFE5E1"/>
<circle cx="959" cy="597" r="5" fill="#FFE5E1"/>
<circle cx="1277" cy="597" r="5" fill="#FFE5E1"/>
<circle cx="5" cy="745" r="5" fill="#FFE5E1"/>
<circle cx="323" cy="745" r="5" fill="#FFE5E1"/>
<circle cx="641" cy="745" r="5" fill="#FFE5E1"/>
<circle cx="959" cy="745" r="5" fill="#FFE5E1"/>
<circle cx="1277" cy="745" r="5" fill="#FFE5E1"/>
<circle cx="5" cy="893" r="5" fill="#FFE5E1"/>
<circle cx="323" cy="893" r="5" fill="#FFE5E1"/>
<circle cx="641" cy="893" r="5" fill="#FFE5E1"/>
<circle cx="959" cy="893" r="5" fill="#FFE5E1"/>
<circle cx="1277" cy="893" r="5" fill="#FFE5E1"/>
</svg>
