<svg width="291" height="256" viewBox="0 0 291 256" fill="none" xmlns="http://www.w3.org/2000/svg">
<g clip-path="url(#clip0_1716_9735)">
<rect x="0.875" y="-19.2529" width="140.175" height="72.3536" rx="6.96848" fill="#FFACA0"/>
<path d="M45.3458 22.2134V12.0774H48.7707C49.5626 12.0774 50.2126 12.2127 50.7207 12.4832C51.2288 12.7505 51.6049 13.1184 51.8491 13.5869C52.0933 14.0554 52.2153 14.5883 52.2153 15.1855C52.2153 15.7827 52.0933 16.3123 51.8491 16.7742C51.6049 17.2361 51.2304 17.5991 50.7256 17.863C50.2208 18.1237 49.5758 18.254 48.7905 18.254H46.0189V17.1454H48.7509C49.292 17.1454 49.7275 17.0662 50.0575 16.9078C50.3907 16.7495 50.6316 16.5251 50.7801 16.2347C50.9318 15.9411 51.0077 15.5913 51.0077 15.1855C51.0077 14.7797 50.9318 14.425 50.7801 14.1214C50.6283 13.8179 50.3858 13.5836 50.0525 13.4186C49.7193 13.2504 49.2788 13.1662 48.7311 13.1662H46.5732V22.2134H45.3458ZM50.1169 17.6601L52.6113 22.2134H51.1859L48.7311 17.6601H50.1169ZM57.2079 22.3718C56.4754 22.3718 55.8435 22.2101 55.3123 21.8867C54.7844 21.5601 54.3769 21.1048 54.0899 20.5208C53.8061 19.9334 53.6642 19.2505 53.6642 18.4718C53.6642 17.6931 53.8061 17.0068 54.0899 16.4129C54.3769 15.8157 54.7761 15.3505 55.2876 15.0172C55.8023 14.6807 56.4028 14.5124 57.0891 14.5124C57.485 14.5124 57.876 14.5784 58.262 14.7104C58.6481 14.8424 58.9995 15.0568 59.3162 15.3538C59.633 15.6474 59.8854 16.0368 60.0734 16.5218C60.2615 17.0068 60.3555 17.604 60.3555 18.3134V18.8083H54.4957V17.7987H59.1677C59.1677 17.3698 59.082 16.987 58.9104 16.6505C58.7421 16.3139 58.5012 16.0483 58.1878 15.8536C57.8776 15.659 57.5114 15.5616 57.0891 15.5616C56.6238 15.5616 56.2213 15.6771 55.8815 15.9081C55.5449 16.1358 55.2859 16.4327 55.1044 16.7989C54.923 17.1652 54.8322 17.5578 54.8322 17.9769V18.65C54.8322 19.2241 54.9312 19.7107 55.1292 20.11C55.3305 20.5059 55.6093 20.8078 55.9656 21.0157C56.3219 21.2202 56.736 21.3225 57.2079 21.3225C57.5147 21.3225 57.7919 21.2796 58.0393 21.1938C58.2901 21.1048 58.5062 20.9728 58.6877 20.7979C58.8691 20.6197 59.0094 20.3987 59.1083 20.1347L60.2368 20.4515C60.118 20.8342 59.9184 21.1707 59.6379 21.4611C59.3575 21.7482 59.011 21.9725 58.5986 22.1342C58.1861 22.2926 57.7226 22.3718 57.2079 22.3718ZM64.3694 22.3916C63.8876 22.3916 63.4505 22.3008 63.0578 22.1193C62.6652 21.9346 62.3534 21.669 62.1224 21.3225C61.8915 20.9728 61.776 20.5504 61.776 20.0555C61.776 19.62 61.8618 19.267 62.0333 18.9964C62.2049 18.7225 62.4342 18.5081 62.7213 18.353C63.0083 18.1979 63.3251 18.0824 63.6715 18.0066C64.0213 17.9274 64.3727 17.8647 64.7257 17.8185C65.1876 17.7591 65.5621 17.7145 65.8492 17.6849C66.1395 17.6519 66.3507 17.5974 66.4827 17.5215C66.6179 17.4456 66.6856 17.3137 66.6856 17.1256V17.086C66.6856 16.5977 66.552 16.2182 66.2847 15.9477C66.0207 15.6771 65.6199 15.5418 65.082 15.5418C64.5244 15.5418 64.0873 15.6639 63.7705 15.9081C63.4538 16.1523 63.231 16.4129 63.1024 16.6901L61.9937 16.2941C62.1917 15.8322 62.4557 15.4726 62.7856 15.2152C63.1189 14.9545 63.4818 14.7731 63.8744 14.6708C64.2704 14.5652 64.6597 14.5124 65.0424 14.5124C65.2866 14.5124 65.5671 14.5421 65.8838 14.6015C66.2039 14.6576 66.5124 14.7747 66.8093 14.9529C67.1096 15.1311 67.3587 15.4 67.5566 15.7596C67.7546 16.1193 67.8536 16.601 67.8536 17.2048V22.2134H66.6856V21.1839H66.6262C66.547 21.3489 66.415 21.5254 66.2303 21.7135C66.0455 21.9016 65.7997 22.0616 65.4928 22.1936C65.186 22.3256 64.8115 22.3916 64.3694 22.3916ZM64.5475 21.3423C65.0095 21.3423 65.3988 21.2516 65.7155 21.0701C66.0356 20.8886 66.2765 20.6544 66.4381 20.3673C66.6031 20.0803 66.6856 19.7784 66.6856 19.4616V18.3926C66.6361 18.452 66.5272 18.5064 66.3589 18.5559C66.194 18.6021 66.0026 18.6434 65.7848 18.6796C65.5704 18.7126 65.3608 18.7423 65.1563 18.7687C64.955 18.7918 64.7917 18.8116 64.6663 18.8281C64.3628 18.8677 64.079 18.9321 63.815 19.0211C63.5544 19.1069 63.3432 19.2373 63.1815 19.4121C63.0232 19.5837 62.944 19.818 62.944 20.1149C62.944 20.5208 63.0941 20.8276 63.3944 21.0355C63.6979 21.24 64.0823 21.3423 64.5475 21.3423ZM73.0738 22.3718C72.3611 22.3718 71.7474 22.2035 71.2327 21.8669C70.718 21.5304 70.322 21.0668 70.0449 20.4762C69.7677 19.8856 69.6291 19.2109 69.6291 18.452C69.6291 17.6799 69.771 16.9986 70.0548 16.408C70.3418 15.8141 70.741 15.3505 71.2525 15.0172C71.7672 14.6807 72.3677 14.5124 73.054 14.5124C73.5885 14.5124 74.0702 14.6114 74.4991 14.8094C74.9281 15.0073 75.2795 15.2845 75.5533 15.6408C75.8272 15.9972 75.9971 16.4129 76.0631 16.888H74.8951C74.806 16.5416 74.608 16.2347 74.3012 15.9675C73.9976 15.6969 73.5885 15.5616 73.0738 15.5616C72.6184 15.5616 72.2192 15.6804 71.8761 15.918C71.5362 16.1523 71.2706 16.4838 71.0792 16.9128C70.8912 17.3384 70.7971 17.8383 70.7971 18.4124C70.7971 18.9997 70.8895 19.5111 71.0743 19.9466C71.2624 20.3822 71.5263 20.7204 71.8662 20.9612C72.2093 21.2021 72.6118 21.3225 73.0738 21.3225C73.3773 21.3225 73.6528 21.2697 73.9003 21.1641C74.1478 21.0586 74.3573 20.9068 74.5288 20.7088C74.7004 20.5109 74.8225 20.2733 74.8951 19.9961H76.0631C75.9971 20.4449 75.8338 20.849 75.5731 21.2087C75.3158 21.565 74.9743 21.8488 74.5486 22.06C74.1263 22.2678 73.6347 22.3718 73.0738 22.3718ZM81.0766 14.6114V15.6012H77.1371V14.6114H81.0766ZM78.2853 12.7901H79.4533V20.0357C79.4533 20.3657 79.5011 20.6131 79.5968 20.7781C79.6958 20.9398 79.8212 21.0487 79.973 21.1048C80.128 21.1575 80.2914 21.1839 80.4629 21.1839C80.5916 21.1839 80.6972 21.1773 80.7797 21.1641C80.8622 21.1476 80.9282 21.1345 80.9777 21.1246L81.2152 22.1738C81.136 22.2035 81.0255 22.2332 80.8836 22.2629C80.7417 22.2959 80.5619 22.3124 80.3442 22.3124C80.0142 22.3124 79.6909 22.2414 79.3741 22.0995C79.0607 21.9577 78.8 21.7416 78.5921 21.4512C78.3876 21.1608 78.2853 20.7946 78.2853 20.3525V12.7901ZM86.8722 12.0774H88.0996V19.323C88.0996 19.9697 87.9808 20.5191 87.7432 20.9711C87.5057 21.4232 87.1708 21.7663 86.7385 22.0006C86.3063 22.2348 85.7965 22.352 85.2092 22.352C84.6549 22.352 84.1616 22.2513 83.7294 22.0501C83.2972 21.8455 82.9573 21.5551 82.7099 21.179C82.4624 20.8029 82.3387 20.3558 82.3387 19.8378H83.5463C83.5463 20.1248 83.6172 20.3756 83.7591 20.59C83.9043 20.8012 84.1023 20.9662 84.353 21.085C84.6038 21.2037 84.8892 21.2631 85.2092 21.2631C85.5623 21.2631 85.8625 21.1889 86.11 21.0404C86.3574 20.8919 86.5455 20.6742 86.6742 20.3871C86.8062 20.0968 86.8722 19.7421 86.8722 19.323V12.0774ZM96.1024 14.6114C96.043 14.1099 95.8022 13.7205 95.3798 13.4434C94.9575 13.1662 94.4395 13.0277 93.8258 13.0277C93.3771 13.0277 92.9844 13.1002 92.6479 13.2454C92.3146 13.3906 92.054 13.5902 91.8659 13.8443C91.6811 14.0983 91.5888 14.387 91.5888 14.7104C91.5888 14.9809 91.6531 15.2136 91.7818 15.4082C91.9138 15.5996 92.082 15.7596 92.2866 15.8883C92.4912 16.0137 92.7056 16.1176 92.93 16.2001C93.1544 16.2793 93.3606 16.3436 93.5486 16.3931L94.5781 16.6703C94.842 16.7396 95.1357 16.8352 95.459 16.9573C95.7857 17.0794 96.0975 17.246 96.3944 17.4572C96.6947 17.6651 96.9421 17.9323 97.1368 18.259C97.3315 18.5856 97.4288 18.9865 97.4288 19.4616C97.4288 20.0093 97.2853 20.5043 96.9982 20.9464C96.7145 21.3885 96.2988 21.7399 95.751 22.0006C95.2066 22.2612 94.5451 22.3916 93.7664 22.3916C93.0405 22.3916 92.412 22.2744 91.8808 22.0402C91.3528 21.8059 90.9371 21.4792 90.6336 21.0602C90.3333 20.6412 90.1634 20.1545 90.1238 19.6002H91.3908C91.4238 19.9829 91.5525 20.2997 91.7768 20.5504C92.0045 20.7979 92.2915 20.9827 92.638 21.1048C92.9877 21.2235 93.3639 21.2829 93.7664 21.2829C94.2349 21.2829 94.6556 21.207 95.0285 21.0553C95.4013 20.9002 95.6966 20.6857 95.9144 20.4119C96.1321 20.1347 96.241 19.8114 96.241 19.4418C96.241 19.1053 96.147 18.8314 95.9589 18.6203C95.7708 18.4091 95.5234 18.2375 95.2165 18.1055C94.9097 17.9736 94.5781 17.8581 94.2217 17.7591L92.9745 17.4027C92.1827 17.1751 91.5558 16.8501 91.0938 16.4278C90.6319 16.0054 90.4009 15.4528 90.4009 14.7698C90.4009 14.2023 90.5544 13.7073 90.8612 13.285C91.1714 12.8594 91.5871 12.5294 92.1084 12.2952C92.633 12.0576 93.2187 11.9388 93.8654 11.9388C94.5187 11.9388 95.0994 12.056 95.6075 12.2902C96.1156 12.5212 96.5182 12.8379 96.8151 13.2405C97.1154 13.643 97.2737 14.1 97.2902 14.6114H96.1024Z" fill="#842518"/>
<rect x="0.875" y="65.2955" width="140.175" height="72.3536" rx="6.96848" fill="#FFACA0"/>
<path d="M46.2951 106.762V96.6257H52.4124V97.7146H47.5225V101.139H52.0956V102.228H47.5225V105.673H52.4915V106.762H46.2951ZM55.3373 99.1597L57.1586 102.268L58.98 99.1597H60.3261L57.8713 102.961L60.3261 106.762H58.98L57.1586 103.812L55.3373 106.762H53.9912L56.4064 102.961L53.9912 99.1597H55.3373ZM61.9928 109.612V99.1597H63.1212V100.367H63.2598C63.3456 100.235 63.4644 100.067 63.6161 99.8625C63.7712 99.6547 63.9923 99.4699 64.2793 99.3082C64.5697 99.1432 64.9623 99.0608 65.4572 99.0608C66.0973 99.0608 66.6615 99.2208 67.1499 99.5408C67.6382 99.8609 68.0193 100.315 68.2931 100.902C68.567 101.489 68.7039 102.182 68.7039 102.981C68.7039 103.786 68.567 104.483 68.2931 105.074C68.0193 105.661 67.6398 106.117 67.1548 106.44C66.6698 106.76 66.1105 106.92 65.477 106.92C64.9887 106.92 64.5977 106.839 64.3041 106.678C64.0104 106.513 63.7844 106.326 63.626 106.118C63.4676 105.907 63.3456 105.732 63.2598 105.594H63.1608V109.612H61.9928ZM63.141 102.961C63.141 103.535 63.2251 104.041 63.3934 104.48C63.5617 104.916 63.8075 105.257 64.1308 105.505C64.4542 105.749 64.8501 105.871 65.3187 105.871C65.807 105.871 66.2145 105.742 66.5411 105.485C66.8711 105.224 67.1185 104.874 67.2835 104.436C67.4518 103.993 67.5359 103.502 67.5359 102.961C67.5359 102.426 67.4534 101.944 67.2884 101.516C67.1268 101.083 66.881 100.742 66.551 100.491C66.2244 100.237 65.8136 100.11 65.3187 100.11C64.8435 100.11 64.4443 100.23 64.1209 100.471C63.7976 100.709 63.5534 101.042 63.3885 101.471C63.2235 101.897 63.141 102.393 63.141 102.961ZM70.4856 106.762V99.1597H71.614V100.308H71.6932C71.8318 99.9318 72.0826 99.6266 72.4455 99.3923C72.8085 99.1581 73.2176 99.041 73.6729 99.041C73.7587 99.041 73.8659 99.0426 73.9946 99.0459C74.1233 99.0492 74.2206 99.0542 74.2866 99.0608V100.249C74.247 100.239 74.1563 100.224 74.0144 100.204C73.8758 100.181 73.729 100.169 73.5739 100.169C73.2044 100.169 72.8744 100.247 72.5841 100.402C72.297 100.554 72.0694 100.765 71.9011 101.035C71.7361 101.303 71.6536 101.608 71.6536 101.951V106.762H70.4856ZM78.6271 106.92C77.8946 106.92 77.2627 106.758 76.7315 106.435C76.2036 106.108 75.7961 105.653 75.5091 105.069C75.2253 104.482 75.0834 103.799 75.0834 103.02C75.0834 102.241 75.2253 101.555 75.5091 100.961C75.7961 100.364 76.1954 99.8988 76.7068 99.5656C77.2215 99.229 77.822 99.0608 78.5083 99.0608C78.9042 99.0608 79.2952 99.1267 79.6813 99.2587C80.0673 99.3907 80.4187 99.6052 80.7354 99.9021C81.0522 100.196 81.3046 100.585 81.4927 101.07C81.6807 101.555 81.7748 102.152 81.7748 102.862V103.357H75.9149V102.347H80.587C80.587 101.918 80.5012 101.535 80.3296 101.199C80.1613 100.862 79.9205 100.597 79.607 100.402C79.2969 100.207 78.9306 100.11 78.5083 100.11C78.0431 100.11 77.6405 100.225 77.3007 100.456C76.9641 100.684 76.7051 100.981 76.5237 101.347C76.3422 101.714 76.2515 102.106 76.2515 102.525V103.198C76.2515 103.772 76.3504 104.259 76.5484 104.658C76.7497 105.054 77.0285 105.356 77.3848 105.564C77.7412 105.769 78.1552 105.871 78.6271 105.871C78.9339 105.871 79.2111 105.828 79.4585 105.742C79.7093 105.653 79.9254 105.521 80.1069 105.346C80.2884 105.168 80.4286 104.947 80.5276 104.683L81.656 105C81.5372 105.383 81.3376 105.719 81.0571 106.009C80.7767 106.296 80.4302 106.521 80.0178 106.683C79.6054 106.841 79.1418 106.92 78.6271 106.92ZM88.9363 100.862L87.887 101.159C87.821 100.984 87.7237 100.814 87.595 100.649C87.4697 100.481 87.2981 100.343 87.0803 100.234C86.8625 100.125 86.5837 100.07 86.2439 100.07C85.7787 100.07 85.391 100.178 85.0808 100.392C84.774 100.603 84.6206 100.872 84.6206 101.199C84.6206 101.489 84.7261 101.718 84.9373 101.887C85.1485 102.055 85.4784 102.195 85.9271 102.307L87.0556 102.585C87.7353 102.75 88.2417 103.002 88.575 103.342C88.9082 103.678 89.0748 104.112 89.0748 104.643C89.0748 105.079 88.9495 105.468 88.6987 105.811C88.4512 106.155 88.1048 106.425 87.6594 106.623C87.2139 106.821 86.6959 106.92 86.1053 106.92C85.3299 106.92 84.6882 106.752 84.1801 106.415C83.672 106.079 83.3503 105.587 83.215 104.94L84.3236 104.663C84.4292 105.072 84.6288 105.379 84.9225 105.584C85.2194 105.788 85.6071 105.891 86.0855 105.891C86.6299 105.891 87.0622 105.775 87.3822 105.544C87.7056 105.31 87.8672 105.029 87.8672 104.703C87.8672 104.439 87.7749 104.218 87.5901 104.04C87.4053 103.858 87.1216 103.723 86.7388 103.634L85.4718 103.337C84.7756 103.172 84.2642 102.916 83.9376 102.57C83.6142 102.22 83.4525 101.783 83.4525 101.258C83.4525 100.829 83.573 100.45 83.8138 100.12C84.058 99.7899 84.3896 99.5309 84.8086 99.3429C85.231 99.1548 85.7094 99.0608 86.2439 99.0608C86.9962 99.0608 87.5868 99.2257 88.0157 99.5557C88.4479 99.8856 88.7548 100.321 88.9363 100.862ZM96.2178 100.862L95.1686 101.159C95.1026 100.984 95.0052 100.814 94.8766 100.649C94.7512 100.481 94.5796 100.343 94.3618 100.234C94.1441 100.125 93.8653 100.07 93.5254 100.07C93.0602 100.07 92.6725 100.178 92.3624 100.392C92.0555 100.603 91.9021 100.872 91.9021 101.199C91.9021 101.489 92.0077 101.718 92.2188 101.887C92.43 102.055 92.7599 102.195 93.2087 102.307L94.3371 102.585C95.0168 102.75 95.5232 103.002 95.8565 103.342C96.1897 103.678 96.3564 104.112 96.3564 104.643C96.3564 105.079 96.231 105.468 95.9802 105.811C95.7328 106.155 95.3863 106.425 94.9409 106.623C94.4955 106.821 93.9774 106.92 93.3868 106.92C92.6115 106.92 91.9697 106.752 91.4616 106.415C90.9535 106.079 90.6318 105.587 90.4965 104.94L91.6051 104.663C91.7107 105.072 91.9103 105.379 92.204 105.584C92.5009 105.788 92.8886 105.891 93.367 105.891C93.9115 105.891 94.3437 105.775 94.6637 105.544C94.9871 105.31 95.1488 105.029 95.1488 104.703C95.1488 104.439 95.0564 104.218 94.8716 104.04C94.6868 103.858 94.4031 103.723 94.0203 103.634L92.7533 103.337C92.0572 103.172 91.5457 102.916 91.2191 102.57C90.8957 102.22 90.7341 101.783 90.7341 101.258C90.7341 100.829 90.8545 100.45 91.0954 100.12C91.3395 99.7899 91.6711 99.5309 92.0902 99.3429C92.5125 99.1548 92.9909 99.0608 93.5254 99.0608C94.2777 99.0608 94.8683 99.2257 95.2972 99.5557C95.7295 99.8856 96.0363 100.321 96.2178 100.862Z" fill="#842518"/>
<rect x="0.875" y="149.844" width="140.175" height="72.3536" rx="6.96848" fill="#FFACA0"/>
<path d="M49.6139 191.31V181.174H53.0387C53.8339 181.174 54.4839 181.318 54.9887 181.605C55.4968 181.888 55.873 182.273 56.1171 182.758C56.3613 183.243 56.4834 183.784 56.4834 184.381C56.4834 184.978 56.3613 185.521 56.1171 186.009C55.8763 186.498 55.5034 186.887 54.9986 187.177C54.4938 187.465 53.8471 187.608 53.0585 187.608H50.6037V186.519H53.0189C53.5634 186.519 54.0005 186.425 54.3305 186.237C54.6604 186.049 54.8996 185.795 55.0481 185.475C55.1999 185.152 55.2758 184.787 55.2758 184.381C55.2758 183.975 55.1999 183.612 55.0481 183.292C54.8996 182.972 54.6588 182.722 54.3255 182.54C53.9923 182.355 53.5502 182.263 52.9991 182.263H50.8413V191.31H49.6139ZM59.0545 194.161C58.8565 194.161 58.68 194.144 58.5249 194.111C58.3699 194.082 58.2626 194.052 58.2032 194.022L58.5002 192.993C58.7839 193.065 59.0347 193.092 59.2525 193.072C59.4702 193.052 59.6632 192.955 59.8315 192.78C60.0031 192.608 60.1598 192.33 60.3017 191.944L60.5195 191.35L57.7083 183.708H58.9753L61.0738 189.766H61.153L63.2514 183.708H64.5184L61.2915 192.419C61.1464 192.811 60.9665 193.136 60.7521 193.394C60.5376 193.654 60.2885 193.847 60.0047 193.973C59.7243 194.098 59.4075 194.161 59.0545 194.161ZM69.3662 183.708V184.698H65.4266V183.708H69.3662ZM66.5748 181.887H67.7428V189.132C67.7428 189.462 67.7907 189.71 67.8864 189.875C67.9853 190.036 68.1107 190.145 68.2625 190.201C68.4176 190.254 68.5809 190.281 68.7525 190.281C68.8811 190.281 68.9867 190.274 69.0692 190.261C69.1517 190.244 69.2177 190.231 69.2672 190.221L69.5047 191.27C69.4256 191.3 69.315 191.33 69.1731 191.36C69.0313 191.393 68.8515 191.409 68.6337 191.409C68.3037 191.409 67.9804 191.338 67.6636 191.196C67.3502 191.054 67.0895 190.838 66.8817 190.548C66.6771 190.258 66.5748 189.891 66.5748 189.449V181.887ZM72.4545 186.737V191.31H71.2865V181.174H72.4545V184.896H72.5535C72.7316 184.503 72.9989 184.191 73.3552 183.96C73.7149 183.726 74.1933 183.609 74.7905 183.609C75.3085 183.609 75.7622 183.713 76.1515 183.921C76.5409 184.125 76.8428 184.441 77.0572 184.866C77.275 185.289 77.3839 185.826 77.3839 186.48V191.31H76.2159V186.559C76.2159 185.955 76.0591 185.488 75.7457 185.158C75.4355 184.825 75.005 184.658 74.454 184.658C74.0712 184.658 73.7281 184.739 73.4245 184.901C73.1243 185.063 72.8867 185.298 72.7118 185.609C72.5403 185.919 72.4545 186.295 72.4545 186.737ZM82.609 191.468C81.9227 191.468 81.3206 191.305 80.8025 190.978C80.2878 190.652 79.8853 190.195 79.5949 189.608C79.3079 189.02 79.1644 188.334 79.1644 187.549C79.1644 186.757 79.3079 186.066 79.5949 185.475C79.8853 184.884 80.2878 184.426 80.8025 184.099C81.3206 183.772 81.9227 183.609 82.609 183.609C83.2953 183.609 83.8958 183.772 84.4105 184.099C84.9285 184.426 85.3311 184.884 85.6181 185.475C85.9085 186.066 86.0537 186.757 86.0537 187.549C86.0537 188.334 85.9085 189.02 85.6181 189.608C85.3311 190.195 84.9285 190.652 84.4105 190.978C83.8958 191.305 83.2953 191.468 82.609 191.468ZM82.609 190.419C83.1303 190.419 83.5593 190.286 83.8958 190.018C84.2323 189.751 84.4815 189.4 84.6431 188.964C84.8048 188.529 84.8856 188.057 84.8856 187.549C84.8856 187.041 84.8048 186.567 84.6431 186.128C84.4815 185.689 84.2323 185.335 83.8958 185.064C83.5593 184.794 83.1303 184.658 82.609 184.658C82.0877 184.658 81.6588 184.794 81.3222 185.064C80.9857 185.335 80.7366 185.689 80.5749 186.128C80.4132 186.567 80.3324 187.041 80.3324 187.549C80.3324 188.057 80.4132 188.529 80.5749 188.964C80.7366 189.4 80.9857 189.751 81.3222 190.018C81.6588 190.286 82.0877 190.419 82.609 190.419ZM89.0046 186.737V191.31H87.8366V183.708H88.965V184.896H89.064C89.2422 184.51 89.5127 184.2 89.8757 183.965C90.2386 183.728 90.7071 183.609 91.2813 183.609C91.796 183.609 92.2464 183.715 92.6324 183.926C93.0184 184.134 93.3187 184.45 93.5331 184.876C93.7476 185.298 93.8548 185.833 93.8548 186.48V191.31H92.6868V186.559C92.6868 185.962 92.5318 185.496 92.2216 185.163C91.9115 184.827 91.4858 184.658 90.9447 184.658C90.5719 184.658 90.2386 184.739 89.945 184.901C89.6546 185.063 89.4253 185.298 89.257 185.609C89.0888 185.919 89.0046 186.295 89.0046 186.737Z" fill="#842518"/>
<rect x="0.875" y="234.392" width="140.175" height="72.3536" rx="6.96848" fill="#FFACA0"/>
</g>
<g clip-path="url(#clip1_1716_9735)">
<rect x="150.697" y="-55.2568" width="140.175" height="72.3536" rx="6.96848" fill="#FFACA0"/>
<rect x="150.697" y="29.2915" width="140.175" height="72.3536" rx="6.96848" fill="#FFACA0"/>
<path d="M201.98 60.6218L204.99 69.1543H205.108L208.118 60.6218H209.404L205.682 70.7578H204.415L200.694 60.6218H201.98ZM215.616 67.6497V63.1558H216.784V70.7578H215.616V69.471H215.536C215.358 69.8571 215.081 70.1854 214.705 70.4559C214.329 70.7232 213.854 70.8568 213.28 70.8568C212.804 70.8568 212.382 70.7529 212.013 70.545C211.643 70.3338 211.353 70.0171 211.141 69.5947C210.93 69.1691 210.825 68.633 210.825 67.9863V63.1558H211.993V67.9071C211.993 68.4614 212.148 68.9035 212.458 69.2335C212.771 69.5634 213.171 69.7284 213.656 69.7284C213.946 69.7284 214.241 69.6541 214.542 69.5057C214.845 69.3572 215.099 69.1295 215.304 68.8227C215.512 68.5158 215.616 68.1248 215.616 67.6497ZM222.11 70.9162C221.378 70.9162 220.746 70.7545 220.215 70.4312C219.687 70.1045 219.279 69.6492 218.992 69.0652C218.708 68.4779 218.567 67.7949 218.567 67.0162C218.567 66.2375 218.708 65.5512 218.992 64.9573C219.279 64.3601 219.678 63.8949 220.19 63.5617C220.705 63.2251 221.305 63.0568 221.991 63.0568C222.387 63.0568 222.778 63.1228 223.164 63.2548C223.55 63.3868 223.902 63.6013 224.219 63.8982C224.535 64.1919 224.788 64.5812 224.976 65.0662C225.164 65.5512 225.258 66.1485 225.258 66.8578V67.3528H219.398V66.3431H224.07C224.07 65.9142 223.984 65.5314 223.813 65.1949C223.644 64.8584 223.404 64.5928 223.09 64.3981C222.78 64.2034 222.414 64.1061 221.991 64.1061C221.526 64.1061 221.124 64.2216 220.784 64.4525C220.447 64.6802 220.188 64.9771 220.007 65.3434C219.825 65.7096 219.735 66.1023 219.735 66.5213V67.1944C219.735 67.7685 219.834 68.2552 220.031 68.6544C220.233 69.0503 220.512 69.3522 220.868 69.5601C221.224 69.7647 221.638 69.867 222.11 69.867C222.417 69.867 222.694 69.8241 222.942 69.7383C223.192 69.6492 223.408 69.5172 223.59 69.3423C223.771 69.1642 223.912 68.9431 224.011 68.6791L225.139 68.9959C225.02 69.3786 224.821 69.7152 224.54 70.0055C224.26 70.2926 223.913 70.517 223.501 70.6786C223.088 70.837 222.625 70.9162 222.11 70.9162ZM231.073 60.6218H232.301V67.8675C232.301 68.5142 232.182 69.0635 231.944 69.5156C231.707 69.9676 231.372 70.3107 230.94 70.545C230.507 70.7793 229.998 70.8964 229.41 70.8964C228.856 70.8964 228.363 70.7958 227.93 70.5945C227.498 70.3899 227.158 70.0996 226.911 69.7234C226.663 69.3473 226.54 68.9002 226.54 68.3822H227.747C227.747 68.6692 227.818 68.92 227.96 69.1345C228.105 69.3456 228.303 69.5106 228.554 69.6294C228.805 69.7482 229.09 69.8076 229.41 69.8076C229.763 69.8076 230.064 69.7333 230.311 69.5849C230.558 69.4364 230.747 69.2186 230.875 68.9316C231.007 68.6412 231.073 68.2865 231.073 67.8675V60.6218ZM240.303 63.1558C240.244 62.6543 240.003 62.265 239.581 61.9878C239.159 61.7107 238.641 61.5721 238.027 61.5721C237.578 61.5721 237.185 61.6447 236.849 61.7898C236.516 61.935 236.255 62.1346 236.067 62.3887C235.882 62.6428 235.79 62.9315 235.79 63.2548C235.79 63.5254 235.854 63.758 235.983 63.9527C236.115 64.144 236.283 64.304 236.488 64.4327C236.692 64.5581 236.907 64.662 237.131 64.7445C237.355 64.8237 237.562 64.8881 237.75 64.9375L238.779 65.2147C239.043 65.284 239.337 65.3797 239.66 65.5018C239.987 65.6238 240.298 65.7905 240.595 66.0016C240.896 66.2095 241.143 66.4767 241.338 66.8034C241.532 67.13 241.63 67.5309 241.63 68.0061C241.63 68.5538 241.486 69.0487 241.199 69.4908C240.915 69.9329 240.5 70.2843 239.952 70.545C239.408 70.8057 238.746 70.936 237.967 70.936C237.242 70.936 236.613 70.8189 236.082 70.5846C235.554 70.3503 235.138 70.0237 234.835 69.6046C234.534 69.1856 234.364 68.6989 234.325 68.1446H235.592C235.625 68.5274 235.753 68.8441 235.978 69.0949C236.205 69.3423 236.493 69.5271 236.839 69.6492C237.189 69.768 237.565 69.8274 237.967 69.8274C238.436 69.8274 238.857 69.7515 239.229 69.5997C239.602 69.4446 239.898 69.2302 240.115 68.9563C240.333 68.6791 240.442 68.3558 240.442 67.9863C240.442 67.6497 240.348 67.3759 240.16 67.1647C239.972 66.9535 239.724 66.7819 239.418 66.65C239.111 66.518 238.779 66.4025 238.423 66.3035L237.176 65.9472C236.384 65.7195 235.757 65.3945 235.295 64.9722C234.833 64.5499 234.602 63.9972 234.602 63.3142C234.602 62.7467 234.755 62.2518 235.062 61.8294C235.372 61.4038 235.788 61.0739 236.309 60.8396C236.834 60.602 237.42 60.4833 238.066 60.4833C238.72 60.4833 239.3 60.6004 239.809 60.8347C240.317 61.0656 240.719 61.3824 241.016 61.7849C241.316 62.1874 241.475 62.6444 241.491 63.1558H240.303Z" fill="#842518"/>
<rect x="150.697" y="113.84" width="140.175" height="72.3536" rx="6.96848" fill="#FFACA0"/>
<path d="M206.422 145.17V155.306H205.235L199.711 147.348H199.612V155.306H198.385V145.17H199.573L205.116 153.148H205.215V145.17H206.422ZM213.511 152.198V147.704H214.679V155.306H213.511V154.019H213.432C213.254 154.406 212.976 154.734 212.6 155.004C212.224 155.272 211.749 155.405 211.175 155.405C210.7 155.405 210.277 155.301 209.908 155.093C209.538 154.882 209.248 154.566 209.037 154.143C208.826 153.718 208.72 153.181 208.72 152.535V147.704H209.888V152.456C209.888 153.01 210.043 153.452 210.353 153.782C210.667 154.112 211.066 154.277 211.551 154.277C211.841 154.277 212.137 154.203 212.437 154.054C212.741 153.906 212.995 153.678 213.199 153.371C213.407 153.064 213.511 152.673 213.511 152.198ZM217.689 147.704L219.511 150.812L221.332 147.704H222.678L220.223 151.505L222.678 155.306H221.332L219.511 152.357L217.689 155.306H216.343L218.758 151.505L216.343 147.704H217.689ZM227.651 147.704V148.694H223.711V147.704H227.651ZM224.859 145.883H226.027V153.129C226.027 153.459 226.075 153.706 226.171 153.871C226.27 154.033 226.395 154.142 226.547 154.198C226.702 154.25 226.866 154.277 227.037 154.277C227.166 154.277 227.271 154.27 227.354 154.257C227.436 154.241 227.502 154.227 227.552 154.217L227.789 155.267C227.71 155.296 227.6 155.326 227.458 155.356C227.316 155.389 227.136 155.405 226.918 155.405C226.588 155.405 226.265 155.334 225.948 155.192C225.635 155.051 225.374 154.834 225.166 154.544C224.962 154.254 224.859 153.888 224.859 153.445V145.883ZM233.446 145.17H234.674V152.416C234.674 153.063 234.555 153.612 234.317 154.064C234.08 154.516 233.745 154.859 233.313 155.093C232.88 155.328 232.371 155.445 231.783 155.445C231.229 155.445 230.736 155.344 230.304 155.143C229.871 154.938 229.532 154.648 229.284 154.272C229.037 153.896 228.913 153.449 228.913 152.931H230.12C230.12 153.218 230.191 153.468 230.333 153.683C230.478 153.894 230.676 154.059 230.927 154.178C231.178 154.297 231.463 154.356 231.783 154.356C232.136 154.356 232.437 154.282 232.684 154.133C232.932 153.985 233.12 153.767 233.248 153.48C233.38 153.19 233.446 152.835 233.446 152.416V145.17ZM242.677 147.704C242.617 147.203 242.376 146.813 241.954 146.536C241.532 146.259 241.014 146.121 240.4 146.121C239.951 146.121 239.559 146.193 239.222 146.338C238.889 146.483 238.628 146.683 238.44 146.937C238.255 147.191 238.163 147.48 238.163 147.803C238.163 148.074 238.227 148.306 238.356 148.501C238.488 148.692 238.656 148.853 238.861 148.981C239.065 149.107 239.28 149.211 239.504 149.293C239.729 149.372 239.935 149.437 240.123 149.486L241.152 149.763C241.416 149.832 241.71 149.928 242.033 150.05C242.36 150.172 242.672 150.339 242.969 150.55C243.269 150.758 243.516 151.025 243.711 151.352C243.906 151.679 244.003 152.079 244.003 152.555C244.003 153.102 243.859 153.597 243.572 154.039C243.289 154.481 242.873 154.833 242.325 155.093C241.781 155.354 241.119 155.484 240.341 155.484C239.615 155.484 238.986 155.367 238.455 155.133C237.927 154.899 237.511 154.572 237.208 154.153C236.907 153.734 236.738 153.247 236.698 152.693H237.965C237.998 153.076 238.127 153.393 238.351 153.643C238.579 153.891 238.866 154.076 239.212 154.198C239.562 154.316 239.938 154.376 240.341 154.376C240.809 154.376 241.23 154.3 241.603 154.148C241.975 153.993 242.271 153.779 242.489 153.505C242.706 153.228 242.815 152.904 242.815 152.535C242.815 152.198 242.721 151.924 242.533 151.713C242.345 151.502 242.098 151.33 241.791 151.198C241.484 151.066 241.152 150.951 240.796 150.852L239.549 150.496C238.757 150.268 238.13 149.943 237.668 149.521C237.206 149.098 236.975 148.546 236.975 147.863C236.975 147.295 237.129 146.8 237.435 146.378C237.746 145.952 238.161 145.622 238.683 145.388C239.207 145.151 239.793 145.032 240.44 145.032C241.093 145.032 241.674 145.149 242.182 145.383C242.69 145.614 243.092 145.931 243.389 146.333C243.69 146.736 243.848 147.193 243.864 147.704H242.677Z" fill="#842518"/>
<rect x="150.697" y="198.388" width="140.175" height="72.3536" rx="6.96848" fill="#FFACA0"/>
<path d="M200.342 232.886C200.234 232.553 200.09 232.254 199.912 231.99C199.737 231.723 199.528 231.495 199.283 231.307C199.042 231.119 198.769 230.976 198.462 230.877C198.155 230.778 197.818 230.728 197.452 230.728C196.852 230.728 196.306 230.883 195.814 231.194C195.322 231.504 194.931 231.961 194.641 232.564C194.351 233.168 194.205 233.909 194.205 234.787C194.205 235.664 194.352 236.405 194.646 237.009C194.94 237.613 195.337 238.07 195.839 238.38C196.34 238.69 196.904 238.845 197.531 238.845C198.112 238.845 198.623 238.721 199.066 238.474C199.511 238.223 199.857 237.87 200.105 237.415C200.356 236.956 200.481 236.417 200.481 235.796L200.857 235.875H197.808V234.787H201.669V235.875C201.669 236.71 201.491 237.436 201.134 238.053C200.781 238.67 200.293 239.149 199.669 239.488C199.049 239.825 198.336 239.993 197.531 239.993C196.634 239.993 195.845 239.782 195.166 239.36C194.489 238.937 193.961 238.337 193.582 237.558C193.206 236.78 193.018 235.856 193.018 234.787C193.018 233.985 193.125 233.264 193.339 232.624C193.557 231.98 193.864 231.433 194.26 230.981C194.656 230.529 195.124 230.182 195.665 229.941C196.207 229.7 196.802 229.58 197.452 229.58C197.987 229.58 198.485 229.661 198.947 229.823C199.412 229.981 199.826 230.207 200.189 230.501C200.555 230.791 200.86 231.139 201.105 231.545C201.349 231.947 201.517 232.395 201.609 232.886H200.342ZM203.613 239.855V232.253H204.741V233.401H204.82C204.959 233.025 205.21 232.72 205.573 232.485C205.935 232.251 206.345 232.134 206.8 232.134C206.886 232.134 206.993 232.136 207.122 232.139C207.25 232.142 207.348 232.147 207.414 232.154V233.341C207.374 233.332 207.283 233.317 207.141 233.297C207.003 233.274 206.856 233.262 206.701 233.262C206.331 233.262 206.001 233.34 205.711 233.495C205.424 233.647 205.196 233.858 205.028 234.128C204.863 234.396 204.781 234.701 204.781 235.044V239.855H203.613ZM211.035 240.033C210.554 240.033 210.116 239.942 209.724 239.761C209.331 239.576 209.019 239.31 208.788 238.964C208.557 238.614 208.442 238.192 208.442 237.697C208.442 237.261 208.528 236.908 208.699 236.638C208.871 236.364 209.1 236.149 209.387 235.994C209.674 235.839 209.991 235.724 210.337 235.648C210.687 235.569 211.039 235.506 211.392 235.46C211.854 235.4 212.228 235.356 212.515 235.326C212.805 235.293 213.017 235.239 213.149 235.163C213.284 235.087 213.351 234.955 213.351 234.767V234.727C213.351 234.239 213.218 233.859 212.951 233.589C212.687 233.318 212.286 233.183 211.748 233.183C211.19 233.183 210.753 233.305 210.436 233.549C210.12 233.793 209.897 234.054 209.768 234.331L208.66 233.935C208.858 233.473 209.122 233.114 209.451 232.856C209.785 232.596 210.148 232.414 210.54 232.312C210.936 232.206 211.326 232.154 211.708 232.154C211.952 232.154 212.233 232.183 212.55 232.243C212.87 232.299 213.178 232.416 213.475 232.594C213.775 232.772 214.025 233.041 214.223 233.401C214.42 233.76 214.519 234.242 214.519 234.846V239.855H213.351V238.825H213.292C213.213 238.99 213.081 239.167 212.896 239.355C212.711 239.543 212.466 239.703 212.159 239.835C211.852 239.967 211.477 240.033 211.035 240.033ZM211.213 238.984C211.675 238.984 212.065 238.893 212.381 238.711C212.701 238.53 212.942 238.296 213.104 238.009C213.269 237.722 213.351 237.42 213.351 237.103V236.034C213.302 236.093 213.193 236.148 213.025 236.197C212.86 236.243 212.668 236.285 212.451 236.321C212.236 236.354 212.027 236.384 211.822 236.41C211.621 236.433 211.458 236.453 211.332 236.469C211.029 236.509 210.745 236.573 210.481 236.662C210.22 236.748 210.009 236.878 209.847 237.053C209.689 237.225 209.61 237.459 209.61 237.756C209.61 238.162 209.76 238.469 210.06 238.677C210.364 238.881 210.748 238.984 211.213 238.984ZM216.651 242.705V232.253H217.78V233.46H217.918C218.004 233.328 218.123 233.16 218.275 232.955C218.43 232.748 218.651 232.563 218.938 232.401C219.228 232.236 219.621 232.154 220.116 232.154C220.756 232.154 221.32 232.314 221.808 232.634C222.297 232.954 222.678 233.407 222.952 233.995C223.226 234.582 223.362 235.275 223.362 236.073C223.362 236.878 223.226 237.576 222.952 238.167C222.678 238.754 222.298 239.21 221.813 239.533C221.328 239.853 220.769 240.013 220.136 240.013C219.647 240.013 219.256 239.932 218.963 239.77C218.669 239.606 218.443 239.419 218.285 239.211C218.126 239 218.004 238.825 217.918 238.687H217.819V242.705H216.651ZM217.8 236.054C217.8 236.628 217.884 237.134 218.052 237.573C218.22 238.009 218.466 238.35 218.789 238.598C219.113 238.842 219.509 238.964 219.977 238.964C220.466 238.964 220.873 238.835 221.2 238.578C221.53 238.317 221.777 237.967 221.942 237.528C222.11 237.086 222.194 236.595 222.194 236.054C222.194 235.519 222.112 235.037 221.947 234.608C221.785 234.176 221.54 233.835 221.21 233.584C220.883 233.33 220.472 233.203 219.977 233.203C219.502 233.203 219.103 233.323 218.78 233.564C218.456 233.802 218.212 234.135 218.047 234.564C217.882 234.99 217.8 235.486 217.8 236.054ZM226.312 235.282V239.855H225.144V229.719H226.312V233.44H226.411C226.589 233.048 226.857 232.736 227.213 232.505C227.573 232.271 228.051 232.154 228.648 232.154C229.166 232.154 229.62 232.258 230.009 232.465C230.399 232.67 230.7 232.985 230.915 233.411C231.133 233.833 231.242 234.371 231.242 235.024V239.855H230.074V235.103C230.074 234.5 229.917 234.033 229.603 233.703C229.293 233.37 228.863 233.203 228.312 233.203C227.929 233.203 227.586 233.284 227.282 233.445C226.982 233.607 226.744 233.843 226.57 234.153C226.398 234.463 226.312 234.839 226.312 235.282ZM237.219 236.687H238.565L239.694 238.172L239.991 238.568L241.673 240.805H240.327L239.218 239.32L238.941 238.944L237.219 236.687ZM242.089 234.787C242.089 235.856 241.896 236.78 241.51 237.558C241.124 238.337 240.594 238.937 239.921 239.36C239.248 239.782 238.479 239.993 237.615 239.993C236.75 239.993 235.982 239.782 235.309 239.36C234.636 238.937 234.106 238.337 233.72 237.558C233.334 236.78 233.141 235.856 233.141 234.787C233.141 233.718 233.334 232.794 233.72 232.015C234.106 231.236 234.636 230.636 235.309 230.214C235.982 229.791 236.75 229.58 237.615 229.58C238.479 229.58 239.248 229.791 239.921 230.214C240.594 230.636 241.124 231.236 241.51 232.015C241.896 232.794 242.089 233.718 242.089 234.787ZM240.901 234.787C240.901 233.909 240.754 233.168 240.461 232.564C240.17 231.961 239.776 231.504 239.278 231.194C238.783 230.883 238.229 230.728 237.615 230.728C237.001 230.728 236.445 230.883 235.947 231.194C235.452 231.504 235.058 231.961 234.764 232.564C234.474 233.168 234.329 233.909 234.329 234.787C234.329 235.664 234.474 236.405 234.764 237.009C235.058 237.613 235.452 238.07 235.947 238.38C236.445 238.69 237.001 238.845 237.615 238.845C238.229 238.845 238.783 238.69 239.278 238.38C239.776 238.07 240.17 237.613 240.461 237.009C240.754 236.405 240.901 235.664 240.901 234.787ZM244.153 239.855V229.719H245.38V238.766H250.092V239.855H244.153Z" fill="#842518"/>
</g>
<defs>
<clipPath id="clip0_1716_9735">
<rect width="140.175" height="295.006" fill="white" transform="translate(0.875 -19.2529)"/>
</clipPath>
<clipPath id="clip1_1716_9735">
<rect width="140.175" height="295.006" fill="white" transform="translate(150.697 -19.2529)"/>
</clipPath>
</defs>
</svg>
