<svg width="200" height="200" viewBox="0 0 200 200" fill="none" xmlns="http://www.w3.org/2000/svg">
<path d="M121.875 37.5C113.262 37.5 106.25 30.4937 106.25 21.875C106.25 13.2563 113.262 6.25 121.875 6.25C130.487 6.25 137.5 13.2563 137.5 21.875C137.5 30.4937 130.487 37.5 121.875 37.5ZM121.875 12.5C116.706 12.5 112.5 16.7063 112.5 21.875C112.5 27.0438 116.706 31.25 121.875 31.25C127.044 31.25 131.25 27.0438 131.25 21.875C131.25 16.7063 127.044 12.5 121.875 12.5Z" fill="#F8523B"/>
<path d="M71.875 37.5C63.2625 37.5 56.25 30.4937 56.25 21.875C56.25 13.2563 63.2625 6.25 71.875 6.25C80.4875 6.25 87.5 13.2563 87.5 21.875C87.5 30.4937 80.4875 37.5 71.875 37.5ZM71.875 12.5C66.7063 12.5 62.5 16.7063 62.5 21.875C62.5 27.0438 66.7063 31.25 71.875 31.25C77.0438 31.25 81.25 27.0438 81.25 21.875C81.25 16.7063 77.0438 12.5 71.875 12.5Z" fill="#F8523B"/>
<path d="M165.625 193.75C163.9 193.75 162.5 192.35 162.5 190.625V153.125C162.5 151.4 163.9 150 165.625 150C167.35 150 168.75 151.4 168.75 153.125C168.75 154.844 170.15 156.25 171.875 156.25C173.6 156.25 175 154.844 175 153.125V109.375C175 102.344 169.231 93.75 162.5 93.75H140.625C138.9 93.75 137.5 92.35 137.5 90.625C137.5 88.9 138.9 87.5 140.625 87.5H162.5C173.056 87.5 181.25 99.2625 181.25 109.375V153.125C181.25 158.294 177.044 162.5 171.875 162.5C170.781 162.5 169.725 162.312 168.75 161.962V190.625C168.75 192.35 167.35 193.75 165.625 193.75Z" fill="#F8523B"/>
<path d="M128.125 62.5C128.125 52.1625 136.537 43.75 146.875 43.75C157.212 43.75 165.625 52.1625 165.625 62.5C165.625 72.8375 157.212 81.25 146.875 81.25C136.537 81.25 128.125 72.8375 128.125 62.5ZM134.375 62.5C134.375 69.4 139.975 75 146.875 75C153.775 75 159.375 69.4 159.375 62.5C159.375 55.6062 153.775 50 146.875 50C139.975 50 134.375 55.6062 134.375 62.5Z" fill="#F8523B"/>
<path d="M165.625 156.25C167.35 156.25 168.75 154.85 168.75 153.125V115.625C168.75 113.9 167.35 112.5 165.625 112.5C163.9 112.5 162.5 113.9 162.5 115.625V153.125C162.5 154.85 163.9 156.25 165.625 156.25Z" fill="#F8523B"/>
<path d="M146.875 193.75C148.6 193.75 150 192.35 150 190.625V165.625C150 163.9 148.6 162.5 146.875 162.5C145.15 162.5 143.75 163.9 143.75 165.625V190.625C143.75 192.35 145.15 193.75 146.875 193.75Z" fill="#F8523B"/>
<path d="M28.125 193.75C26.4 193.75 25 192.35 25 190.625V161.962C24.025 162.312 22.9688 162.5 21.875 162.5C16.7062 162.5 12.5 158.294 12.5 153.125V109.375C12.5 99.2625 20.6938 87.5 31.25 87.5H53.125C54.85 87.5 56.25 88.9 56.25 90.625C56.25 92.35 54.85 93.75 53.125 93.75H31.25C24.5188 93.75 18.75 102.344 18.75 109.375V153.125C18.75 154.844 20.15 156.25 21.875 156.25C23.6 156.25 25 154.844 25 153.125C25 151.4 26.4 150 28.125 150C29.85 150 31.25 151.4 31.25 153.125V190.625C31.25 192.35 29.85 193.75 28.125 193.75Z" fill="#F8523B"/>
<path d="M46.875 81.25C36.5375 81.25 28.125 72.8375 28.125 62.5C28.125 52.1625 36.5375 43.75 46.875 43.75C57.2125 43.75 65.625 52.1625 65.625 62.5C65.625 72.8375 57.2125 81.25 46.875 81.25ZM46.875 50C39.975 50 34.375 55.6062 34.375 62.5C34.375 69.4 39.975 75 46.875 75C53.775 75 59.375 69.4 59.375 62.5C59.375 55.6062 53.775 50 46.875 50Z" fill="#F8523B"/>
<path d="M28.125 156.25C26.4 156.25 25 154.85 25 153.125V115.625C25 113.9 26.4 112.5 28.125 112.5C29.85 112.5 31.25 113.9 31.25 115.625V153.125C31.25 154.85 29.85 156.25 28.125 156.25Z" fill="#F8523B"/>
<path d="M46.875 193.75C45.15 193.75 43.75 192.35 43.75 190.625V165.625C43.75 163.9 45.15 162.5 46.875 162.5C48.6 162.5 50 163.9 50 165.625V190.625C50 192.35 48.6 193.75 46.875 193.75Z" fill="#F8523B"/>
<path d="M115.625 193.75C113.9 193.75 112.5 192.35 112.5 190.625V121.875C112.5 120.15 113.9 118.75 115.625 118.75C118.956 118.75 122.063 116.956 123.738 114.069C124.563 112.65 125 111.031 125 109.375V103.125C125 94.5063 117.987 87.5 109.375 87.5H81.25C74.3562 87.5 68.75 93.1062 68.75 100V109.375C68.75 114.544 72.9563 118.75 78.125 118.75C79.85 118.75 81.25 120.15 81.25 121.875V190.625C81.25 192.35 79.85 193.75 78.125 193.75C76.4 193.75 75 192.35 75 190.625V124.688C67.875 123.238 62.5 116.919 62.5 109.375V100C62.5 89.6625 70.9125 81.25 81.25 81.25H109.375C121.438 81.25 131.25 91.0625 131.25 103.125V109.375C131.25 112.125 130.525 114.838 129.144 117.206C126.887 121.094 123.069 123.794 118.75 124.681V190.625C118.75 192.35 117.35 193.75 115.625 193.75Z" fill="#FFE5E1"/>
<path d="M96.875 75C86.5375 75 78.125 66.5875 78.125 56.25C78.125 45.9125 86.5375 37.5 96.875 37.5C107.212 37.5 115.625 45.9125 115.625 56.25C115.625 66.5875 107.212 75 96.875 75ZM96.875 43.75C89.975 43.75 84.375 49.3562 84.375 56.25C84.375 63.15 89.975 68.75 96.875 68.75C103.775 68.75 109.375 63.15 109.375 56.25C109.375 49.3562 103.775 43.75 96.875 43.75Z" fill="#FFE5E1"/>
<path d="M115.625 115.625C113.9 115.625 112.5 114.225 112.5 112.5V110.506C112.5 109.575 112.106 108.725 111.394 108.119C110.681 107.513 109.775 107.275 108.869 107.425L85.9187 111.244C83.1812 111.681 80.425 110.931 78.3188 109.15C76.2063 107.369 75 104.756 75 101.994C75 100.269 76.4 98.8688 78.125 98.8688C79.85 98.8688 81.25 100.269 81.25 101.994C81.25 102.925 81.6438 103.775 82.3563 104.381C83.0688 104.981 83.9813 105.244 84.8938 105.075L107.837 101.256C110.556 100.806 113.325 101.556 115.431 103.344C117.537 105.125 118.75 107.738 118.75 110.506V112.5C118.75 114.225 117.35 115.625 115.625 115.625Z" fill="#FFE5E1"/>
<path d="M96.875 193.75C95.15 193.75 93.75 192.35 93.75 190.625V150C93.75 148.275 95.15 146.875 96.875 146.875C98.6 146.875 100 148.275 100 150V190.625C100 192.35 98.6 193.75 96.875 193.75Z" fill="#FFE5E1"/>
<path d="M115.625 125H90.625C88.9 125 87.5 123.6 87.5 121.875C87.5 120.15 88.9 118.75 90.625 118.75H115.625C117.35 118.75 118.75 120.15 118.75 121.875C118.75 123.6 117.35 125 115.625 125Z" fill="#FFE5E1"/>
</svg>
