<svg width="40" height="41" viewBox="0 0 40 41" fill="none" xmlns="http://www.w3.org/2000/svg">
<g clip-path="url(#clip0_1716_9935)">
<path d="M34.0977 32.9939L34.837 32.0846L35.7463 32.824L35.0069 33.7333L34.0977 32.9939Z" fill="#4F5B5E"/>
<path d="M39.9165 18.6848C39.4316 13.3651 36.9042 8.55275 32.7998 5.13401C28.6954 1.71527 23.5051 0.0992483 18.1857 0.584515C12.866 1.06931 8.0536 3.59673 4.63493 7.70111C1.21627 11.8055 -0.39944 16.9956 0.0853584 22.3152C0.570235 27.6349 3.09765 32.4472 7.20203 35.866C10.829 38.8869 15.303 40.5001 19.9657 40.4999C20.5795 40.4998 21.1973 40.472 21.8161 40.4155C26.4704 39.9913 30.8492 37.9386 34.1461 34.6357L33.3168 33.8078C32.8221 34.3034 32.3013 34.7687 31.758 35.2031C30.809 34.3575 29.6265 34.124 28.4782 33.8973C27.3191 33.6685 26.2242 33.4524 25.3828 32.6273C24.5245 31.7857 24.2932 30.7001 24.0483 29.5508C23.7948 28.3607 23.5326 27.1302 22.5483 26.1649C21.5639 25.1996 20.3285 24.9616 19.1338 24.7312C17.9799 24.5089 16.8901 24.2989 16.0317 23.4571C15.1733 22.6153 14.9421 21.5298 14.6972 20.3805C14.4436 19.1905 14.1815 17.9599 13.1971 16.9946C12.2127 16.0293 10.9773 15.7913 9.78257 15.5609C8.6287 15.3386 7.53888 15.1286 6.68052 14.2868C5.82217 13.445 5.5907 12.3594 5.3458 11.2101C5.21355 10.5897 5.0763 9.95192 4.83413 9.34713C5.05841 9.04294 5.29136 8.74359 5.53524 8.45073C6.11729 7.75197 6.74278 7.1025 7.40569 6.50349C7.73675 6.98774 7.97071 7.56683 8.21475 8.17154C8.66284 9.28214 9.17076 10.5409 10.4137 11.3955C11.6567 12.2499 13.0134 12.273 14.2105 12.2934C15.2614 12.3113 16.2539 12.3282 17.0654 12.8861C17.8769 13.4439 18.2482 14.3647 18.6412 15.3394C19.0889 16.4498 19.5964 17.7084 20.8393 18.5629C22.0823 19.4174 23.4391 19.4405 24.6362 19.4609C25.687 19.4788 26.6797 19.4956 27.4911 20.0535C28.3026 20.6115 28.6738 21.5322 29.0668 22.5068C29.5145 23.6173 30.022 24.8758 31.2649 25.7304C32.4909 26.5732 33.8503 26.6008 35.0496 26.6251C36.0313 26.645 36.8978 26.6639 37.6454 27.0588C37.1067 28.5096 36.3892 29.8973 35.5006 31.1848L36.465 31.8504C39.1147 28.0116 40.3404 23.336 39.9165 18.6848ZM1.25228 22.2089C1.10237 20.5644 1.16713 18.9334 1.43375 17.3472C1.58217 18.1759 1.86183 19.0092 2.37663 19.7902C3.23256 21.0888 4.5219 21.6381 5.65945 22.1227C6.66334 22.5505 7.61153 22.9545 8.17593 23.8108C8.74041 24.6671 8.73783 25.6979 8.73517 26.7891C8.73213 28.0255 8.72861 29.427 9.58455 30.7256C10.4405 32.0241 11.7298 32.5734 12.8673 33.058C13.8712 33.4858 14.8194 33.8898 15.3838 34.7462C15.9485 35.6026 15.9461 36.6337 15.9435 37.7254C15.9425 38.109 15.9422 38.5006 15.965 38.8967C13.0498 38.2607 10.3103 36.9299 7.95196 34.9656C4.08811 31.7473 1.7088 27.2169 1.25228 22.2089ZM4.19974 11.4547C4.45753 12.6639 4.74969 14.0347 5.86005 15.1237C6.97049 16.2126 8.34669 16.4778 9.56088 16.7118C10.6323 16.9183 11.6444 17.1133 12.3767 17.8314C13.109 18.5495 13.3238 19.5576 13.5512 20.6249C13.8088 21.8342 14.1009 23.2049 15.2113 24.2938C16.3217 25.3827 17.6979 25.648 18.9121 25.882C19.9836 26.0885 20.9956 26.2835 21.7279 27.0016C22.4601 27.7197 22.675 28.7278 22.9023 29.7951C23.1599 31.0043 23.452 32.3751 24.5624 33.4641C25.6537 34.5342 27.0337 34.8067 28.2512 35.047C29.2311 35.2405 30.1032 35.4134 30.7908 35.9267C28.121 37.7927 24.988 38.9498 21.7097 39.2487C20.1717 39.3889 18.6453 39.3418 17.1563 39.1171C17.1135 38.6677 17.1142 38.2083 17.1152 37.7283C17.1181 36.5111 17.121 35.2526 16.3622 34.1014C15.6035 32.9503 14.446 32.4571 13.3266 31.9802C12.2456 31.5196 11.2245 31.0845 10.5629 30.0808C9.90131 29.0771 9.90405 27.9672 9.90694 26.7921C9.90998 25.5754 9.91311 24.3171 9.15435 23.166C8.39567 22.015 7.23813 21.5218 6.11878 21.0449C5.03779 20.5844 4.01671 20.1492 3.35505 19.1454C2.38116 17.6679 2.4249 15.8921 2.46349 14.3255C2.46974 14.0713 2.47545 13.8298 2.47701 13.5938C2.8897 12.5497 3.39903 11.5408 3.99952 10.5771C4.07225 10.86 4.13553 11.1534 4.19974 11.4547ZM18.292 1.75136C23.3001 1.29539 28.1859 2.81595 32.0499 6.03432C35.1325 8.60197 37.2688 12.0052 38.239 15.8192C38.182 15.8261 38.1251 15.8331 38.0688 15.8401C37.1106 15.9586 36.2054 16.0705 35.3342 15.6368C34.4635 15.2031 34.008 14.4144 33.526 13.5792C33.0117 12.6884 32.4799 11.7672 31.4249 11.2419C30.3699 10.7165 29.3143 10.8472 28.2934 10.9739C27.3364 11.0924 26.4324 11.2045 25.5617 10.7708C24.691 10.3373 24.2356 9.54844 23.7535 8.71321C23.2391 7.82235 22.7073 6.90119 21.6523 6.37585C20.5973 5.85051 19.5417 5.98143 18.521 6.10783C17.564 6.22656 16.6601 6.33843 15.7892 5.9048C14.9184 5.47125 14.4628 4.68233 13.9806 3.84702C13.7917 3.51979 13.598 3.18654 13.3763 2.86922C14.9376 2.28561 16.5871 1.90681 18.292 1.75136ZM38.0226 25.937C37.0781 25.4951 36.0623 25.474 35.0735 25.4538C33.9381 25.4308 32.8656 25.409 31.9289 24.765C30.9768 24.1105 30.577 23.1189 30.1536 22.0689C29.713 20.9761 29.2573 19.8461 28.155 19.0882C27.0526 18.3304 25.8344 18.3096 24.6562 18.2895C23.5243 18.2702 22.4553 18.2521 21.5033 17.5975C20.5512 16.9431 20.1514 15.9514 19.728 14.9015C19.2873 13.8087 18.8316 12.6785 17.7293 11.9207C16.627 11.1629 15.4087 11.1421 14.2305 11.122C13.0987 11.1028 12.0296 11.0846 11.0775 10.4301C10.1254 9.77553 9.72516 8.78359 9.30145 7.73338C9.02725 7.05391 8.74502 6.35663 8.30279 5.74302C9.52111 4.77319 10.8492 3.96412 12.2608 3.32918C12.5164 3.65524 12.7364 4.03568 12.9659 4.43314C13.4882 5.33774 14.0802 6.36304 15.2669 6.95392C16.4537 7.54488 17.6286 7.39935 18.6651 7.27092C19.5913 7.15617 20.3912 7.05711 21.1301 7.42497C21.869 7.7929 22.272 8.49096 22.7387 9.29924C23.2609 10.2038 23.8527 11.229 25.0395 11.8199C26.2263 12.4107 27.4011 12.2651 28.4376 12.1369C29.3639 12.022 30.1637 11.9231 30.9027 12.291C31.6416 12.6589 32.0446 13.357 32.5112 14.1652C33.0334 15.0697 33.6253 16.0949 34.8121 16.6859C35.4816 17.0193 36.1475 17.1184 36.7872 17.1184C37.2816 17.1184 37.7604 17.0591 38.2128 17.0031C38.3087 16.9913 38.4022 16.9799 38.4948 16.9689C38.6081 17.5682 38.6935 18.176 38.7496 18.7912C38.9701 21.2118 38.7153 23.6392 38.0226 25.937Z" fill="#4F5B5E"/>
<path d="M26.2002 4.55566L27.3672 4.44904L27.4738 5.61612L26.3068 5.72274L26.2002 4.55566Z" fill="#4F5B5E"/>
<path d="M23.7598 3.60107L24.9268 3.49445L25.0334 4.66153L23.8664 4.76815L23.7598 3.60107Z" fill="#4F5B5E"/>
</g>
<defs>
<clipPath id="clip0_1716_9935">
<rect width="40" height="40" fill="white" transform="translate(0 0.5)"/>
</clipPath>
</defs>
</svg>
