<svg width="40" height="40" viewBox="0 0 40 40" fill="none" xmlns="http://www.w3.org/2000/svg">
<path d="M16.5946 16.9257H2.54054C2.39718 16.9257 2.25969 16.8687 2.15832 16.7673C2.05695 16.666 2 16.5285 2 16.3851V2.33107C2 2.18771 2.05695 2.05022 2.15832 1.94885C2.25969 1.84748 2.39718 1.79053 2.54054 1.79053H16.5946C16.738 1.79053 16.8754 1.84748 16.9768 1.94885C17.0782 2.05022 17.1351 2.18771 17.1351 2.33107V16.3851C17.1351 16.5285 17.0782 16.666 16.9768 16.7673C16.8754 16.8687 16.738 16.9257 16.5946 16.9257ZM3.08108 15.8446H16.0541V2.87161H3.08108V15.8446Z" fill="#4F5B5E"/>
<path d="M38.3788 16.9258H22.9194C22.8254 16.9258 22.7331 16.9013 22.6515 16.8548C22.57 16.8082 22.5019 16.7412 22.4541 16.6603C22.4063 16.5795 22.3804 16.4876 22.379 16.3936C22.3775 16.2997 22.4006 16.207 22.4458 16.1247L30.1756 2.07068C30.2264 1.99123 30.2964 1.92584 30.3792 1.88055C30.4619 1.83526 30.5548 1.81152 30.6491 1.81152C30.7434 1.81152 30.8362 1.83526 30.919 1.88055C31.0017 1.92584 31.0718 1.99123 31.1226 2.07068L38.8523 16.1247C38.8976 16.207 38.9207 16.2997 38.9192 16.3936C38.9177 16.4876 38.8918 16.5795 38.8441 16.6603C38.7963 16.7412 38.7282 16.8082 38.6466 16.8548C38.5651 16.9013 38.4727 16.9258 38.3788 16.9258ZM23.8345 15.8447H37.4648L30.6491 3.45447L23.8345 15.8447Z" fill="#4F5B5E"/>
<path d="M13.546 38.3851H5.59193C5.49326 38.3852 5.39647 38.3582 5.31205 38.3071C5.22762 38.256 5.15879 38.1828 5.11301 38.0954L1.14274 30.5278C1.09938 30.445 1.07823 30.3524 1.08136 30.259C1.08448 30.1656 1.11178 30.0746 1.16058 29.9949L5.13085 23.5084C5.17915 23.4294 5.24692 23.3642 5.32765 23.319C5.40839 23.2737 5.49938 23.25 5.59193 23.25H13.546C13.6417 23.25 13.7358 23.2754 13.8185 23.3236C13.9013 23.3719 13.9697 23.4412 14.0168 23.5246L17.9871 30.5516C18.0328 30.6327 18.0569 30.7242 18.0569 30.8173C18.0569 30.9104 18.0328 31.0019 17.9871 31.083L14.0168 38.11C13.9697 38.1935 13.9014 38.2629 13.8186 38.3113C13.7359 38.3596 13.6418 38.3851 13.546 38.3851ZM5.91895 37.3041H13.2303L16.8952 30.8176L13.2303 24.3311H5.89463L2.24274 30.2981L5.91895 37.3041Z" fill="#4F5B5E"/>
<path d="M30.6486 38.3851C29.1519 38.3851 27.6888 37.9413 26.4443 37.1098C25.1998 36.2782 24.2299 35.0963 23.6571 33.7136C23.0843 32.3308 22.9345 30.8092 23.2265 29.3412C23.5185 27.8732 24.2392 26.5248 25.2975 25.4665C26.3559 24.4082 27.7043 23.6874 29.1723 23.3954C30.6402 23.1034 32.1618 23.2533 33.5446 23.8261C34.9274 24.3988 36.1093 25.3688 36.9408 26.6133C37.7724 27.8577 38.2162 29.3208 38.2162 30.8176C38.214 32.824 37.4161 34.7476 35.9973 36.1663C34.5786 37.585 32.655 38.383 30.6486 38.3851ZM30.6486 24.3311C29.3657 24.3311 28.1116 24.7115 27.0449 25.4243C25.9782 26.137 25.1468 27.1501 24.6559 28.3353C24.1649 29.5206 24.0365 30.8248 24.2868 32.083C24.5371 33.3413 25.1548 34.4971 26.062 35.4042C26.9691 36.3114 28.1249 36.9291 29.3832 37.1794C30.6414 37.4297 31.9456 37.3013 33.1309 36.8103C34.3161 36.3194 35.3292 35.488 36.0419 34.4213C36.7547 33.3546 37.1351 32.1005 37.1351 30.8176C37.1333 29.0978 36.4493 27.449 35.2332 26.233C34.0172 25.0169 32.3684 24.3329 30.6486 24.3311Z" fill="#4F5B5E"/>
</svg>
