<svg width="40" height="28" viewBox="0 0 40 28" fill="none" xmlns="http://www.w3.org/2000/svg">
<path fill-rule="evenodd" clip-rule="evenodd" d="M26.0022 27.9958C23.8358 27.9958 21.7585 27.5136 19.8274 26.5632C19.3663 26.3358 19.7109 25.6348 20.1728 25.8622C21.9953 26.7594 23.957 27.2143 26.0022 27.2143C33.2899 27.2143 39.2194 21.2856 39.2194 13.9979C39.2194 6.71017 33.2899 0.780743 26.0022 0.780743C23.957 0.780743 21.9953 1.23637 20.1728 2.13356C19.7117 2.36099 19.3663 1.65996 19.8274 1.43332C21.7585 0.482201 23.8358 0 26.0022 0C33.7206 0 40.0001 6.27955 40.0001 13.9979C40.0001 21.7162 33.7206 27.9958 26.0022 27.9958Z" fill="#4F5B5E"/>
<path fill-rule="evenodd" clip-rule="evenodd" d="M13.9979 27.9958C6.27955 27.9958 0 21.7162 0 13.9979C0 6.27955 6.27955 0 13.9979 0C16.1651 0 18.2431 0.482201 20.1735 1.43254C20.6354 1.65996 20.2899 2.36099 19.8288 2.13356C18.0063 1.23637 16.0447 0.780743 13.9979 0.780743C6.71017 0.781525 0.780743 6.71017 0.780743 13.9979C0.780743 21.2856 6.71017 27.2143 13.9979 27.2143C16.0439 27.2143 18.0055 26.7594 19.8281 25.8622C20.2892 25.6356 20.6346 26.3366 20.1735 26.5632C18.2423 27.5136 16.1651 27.9958 13.9979 27.9958Z" fill="#4F5B5E"/>
<path fill-rule="evenodd" clip-rule="evenodd" d="M20.0001 26.603C19.9407 26.603 19.8821 26.5897 19.8274 26.5624C12.3443 22.8751 9.72544 13.5125 14.1786 6.50219C15.5626 4.32408 17.5165 2.57112 19.8274 1.43244C19.9368 1.37929 20.0642 1.37929 20.1729 1.43244C27.6544 5.11811 30.2756 14.4823 25.8217 21.4926C24.4376 23.6715 22.4846 25.4245 20.1729 26.5624C20.1182 26.5897 20.0595 26.603 20.0001 26.603ZM20.0001 2.22021C15.5447 4.49289 12.7859 8.98744 12.7859 13.9978C12.7859 19.0081 15.5447 23.5027 20.0001 25.7754C24.4556 23.5027 27.2144 19.0081 27.2144 13.9978C27.2144 8.98744 24.4556 4.49289 20.0001 2.22021Z" fill="#4F5B5E"/>
<path fill-rule="evenodd" clip-rule="evenodd" d="M23.8986 5.05496H16.1021C15.5871 5.05496 15.5871 4.27344 16.1021 4.27344H23.8986C24.4128 4.27344 24.4128 5.05496 23.8986 5.05496Z" fill="#4F5B5E"/>
<path fill-rule="evenodd" clip-rule="evenodd" d="M25.8621 7.72147H14.1376C13.6234 7.72147 13.6234 6.93994 14.1376 6.93994H25.8621C26.3763 6.93994 26.3763 7.72147 25.8621 7.72147Z" fill="#4F5B5E"/>
<path fill-rule="evenodd" clip-rule="evenodd" d="M27.008 10.3879H12.9921C12.4779 10.3879 12.4779 9.60718 12.9921 9.60718H27.008C27.5222 9.60718 27.5222 10.3879 27.008 10.3879Z" fill="#4F5B5E"/>
<path fill-rule="evenodd" clip-rule="evenodd" d="M27.5408 13.0555H12.4589C11.9447 13.0555 11.9447 12.2739 12.4589 12.2739H27.5408C28.055 12.2739 28.055 13.0555 27.5408 13.0555Z" fill="#4F5B5E"/>
<path fill-rule="evenodd" clip-rule="evenodd" d="M27.5408 15.722H12.4589C11.9447 15.722 11.9447 14.9404 12.4589 14.9404H27.5408C28.055 14.9404 28.055 15.722 27.5408 15.722Z" fill="#4F5B5E"/>
<path fill-rule="evenodd" clip-rule="evenodd" d="M27.008 18.3884H12.9921C12.4779 18.3884 12.4779 17.6077 12.9921 17.6077H27.008C27.5222 17.6077 27.5222 18.3884 27.008 18.3884Z" fill="#4F5B5E"/>
<path fill-rule="evenodd" clip-rule="evenodd" d="M25.8621 21.0559H14.1376C13.6234 21.0559 13.6234 20.2744 14.1376 20.2744H25.8621C26.3763 20.2744 26.3763 21.0559 25.8621 21.0559Z" fill="#4F5B5E"/>
<path fill-rule="evenodd" clip-rule="evenodd" d="M23.898 23.7224H16.1015C15.5873 23.7224 15.5873 22.9409 16.1015 22.9409H23.898C24.4122 22.9409 24.4122 23.7224 23.898 23.7224Z" fill="#4F5B5E"/>
</svg>
