<svg width="376" height="320" viewBox="0 0 376 320" fill="none" xmlns="http://www.w3.org/2000/svg">
<g clip-path="url(#clip0_1716_9169)">
<path d="M286.516 115.549C276.134 112.306 264.389 146.476 262.845 152.765C259.295 165.197 237.584 186.171 244.316 190.959C255.118 198.637 275.479 165.722 277.391 160.436C280.698 151.297 296.899 118.796 286.516 115.549Z" fill="white"/>
<path d="M247.946 192.856C248.828 192.856 249.756 192.705 250.728 192.401C256.827 190.496 263.524 182.902 268.07 176.868C273.234 170.012 277.274 162.949 278.091 160.688C278.669 159.092 279.664 156.726 280.818 153.985C285.729 142.318 293.15 124.688 289.881 117.647C289.224 116.231 288.166 115.287 286.739 114.842C285.151 114.345 283.473 114.586 281.75 115.56C277.727 117.829 273.405 124.056 268.904 134.071C265.558 141.514 262.888 149.505 262.131 152.575C260.686 157.619 256.143 164.161 251.751 170.488C248.602 175.023 245.627 179.307 243.875 182.907C243.101 184.495 240.745 189.33 243.89 191.564C245.098 192.425 246.457 192.856 247.946 192.856ZM286.294 116.257C287.32 116.579 288.052 117.236 288.532 118.272C291.525 124.717 283.964 142.678 279.448 153.409C278.287 156.168 277.283 158.551 276.693 160.182C275.906 162.358 271.96 169.233 266.883 175.975C262.47 181.835 256.007 189.196 250.285 190.984C248.113 191.662 246.301 191.457 244.747 190.353C241.411 187.98 247.287 179.518 252.968 171.333C257.434 164.901 262.051 158.251 263.56 152.968C263.563 152.958 263.566 152.95 263.567 152.94C265.042 146.934 273.859 121.713 282.478 116.85C283.848 116.078 285.098 115.884 286.294 116.257Z" fill="#FF725E"/>
<path d="M334.845 233.707L347.519 317.341L317.141 317.684C317.141 317.684 315.664 315.805 318.22 314.538C320.044 313.633 322.431 314.582 324.192 313.662C325.952 312.743 312.751 236.075 312.751 236.075L334.845 233.707Z" fill="white"/>
<path d="M317.141 318.46C317.144 318.46 317.147 318.46 317.15 318.46L347.527 318.117C347.751 318.114 347.964 318.015 348.11 317.844C348.256 317.673 348.319 317.447 348.286 317.225L335.612 233.591C335.55 233.18 335.175 232.893 334.762 232.935L312.669 235.302C312.455 235.325 312.261 235.434 312.131 235.606C312.002 235.777 311.949 235.995 311.985 236.206C312.017 236.39 315.184 254.793 318.171 273.439C323.246 305.109 323.693 311.788 323.569 313.092C322.9 313.344 322.082 313.337 321.222 313.33C320.104 313.321 318.947 313.311 317.873 313.843C316.822 314.364 316.19 315.062 315.997 315.915C315.728 317.104 316.447 318.06 316.529 318.165C316.678 318.35 316.903 318.46 317.141 318.46ZM346.617 316.574L317.589 316.901C317.516 316.723 317.46 316.485 317.516 316.246C317.627 315.784 318.146 315.44 318.564 315.233C319.306 314.865 320.231 314.873 321.21 314.881C322.333 314.891 323.496 314.902 324.552 314.349C325.103 314.061 325.296 313.587 324.979 309.994C324.796 307.911 324.437 304.9 323.916 301.045C323.039 294.566 321.687 285.6 319.899 274.399C317.209 257.561 314.318 240.619 313.656 236.756L334.187 234.556L346.617 316.574Z" fill="#FF725E"/>
<path d="M315.931 318.218L348.382 317.466L346.679 305.508C341.3 306.094 338.002 312.739 332.537 311.377C329.401 310.614 325.746 307.306 322.745 307.479C322.56 310.159 323.132 312.045 322.671 312.328C320.765 313.428 319.061 313.31 317.092 314.377C314.325 315.941 315.931 318.218 315.931 318.218Z" fill="#FF725E"/>
<path d="M306.966 235.284L311.456 317.34L281.079 317.683C281.079 317.683 279.601 315.804 282.157 314.537C283.981 313.632 286.926 313.004 288.686 312.083C290.447 311.163 286.188 225.815 286.188 225.815L306.966 235.284Z" fill="white"/>
<path d="M281.079 318.461C281.082 318.461 281.085 318.461 281.088 318.461L311.465 318.117C311.677 318.115 311.878 318.026 312.023 317.872C312.168 317.717 312.244 317.511 312.231 317.298L307.741 235.243C307.726 234.955 307.551 234.698 307.287 234.578L286.51 225.11C286.263 224.997 285.975 225.022 285.751 225.175C285.527 225.326 285.399 225.585 285.412 225.856C285.422 226.061 286.448 246.654 287.275 267.456C288.659 302.263 288.412 310.121 288.099 311.509C287.271 311.906 286.172 312.264 285.106 312.611C283.948 312.987 282.749 313.377 281.813 313.842C280.761 314.363 280.129 315.061 279.938 315.914C279.669 317.103 280.387 318.059 280.47 318.164C280.616 318.35 280.841 318.461 281.079 318.461ZM310.636 316.573L281.527 316.901C281.454 316.723 281.398 316.485 281.454 316.246C281.565 315.785 282.084 315.44 282.502 315.233C283.337 314.818 284.482 314.447 285.587 314.087C286.814 313.688 288.084 313.275 289.046 312.772C289.645 312.459 290.078 312.233 289.816 298.201C289.682 291.002 289.365 281.034 288.874 268.574C288.156 250.332 287.268 231.97 287.027 227.052L306.216 235.797L310.636 316.573Z" fill="#FF725E"/>
<path d="M279.864 318.218L312.709 317.862L312.163 305.872C306.784 306.458 301.935 312.741 296.47 311.378C293.334 310.616 290.539 307.346 287.539 307.521C287.354 310.201 287.066 312.047 286.606 312.331C284.699 313.431 282.995 313.313 281.026 314.38C278.258 315.942 279.864 318.218 279.864 318.218Z" fill="#FF725E"/>
<path d="M337.343 232.655C340.631 179.789 325.113 164.534 325.113 164.534C325.113 164.534 323.21 164.747 309.859 162.562C296.508 160.378 283.558 163.614 283.558 163.614C283.558 163.614 283.073 220.505 283.558 230.944C284.044 241.383 336.755 242.115 337.343 232.655Z" fill="#FF725E"/>
<path d="M274.361 104.089C276.026 107.421 279.437 109.873 283.554 110.249C289.745 110.846 295.168 106.541 295.669 100.647C296.173 94.7697 291.568 89.5212 285.376 88.9242C284.087 88.7988 282.847 88.8925 281.668 89.1751C277.142 90.1967 273.654 93.8735 273.261 98.5251C273.089 100.506 273.497 102.409 274.361 104.089Z" fill="white"/>
<path d="M284.717 111.05C287.563 111.05 290.264 110.091 292.427 108.287C294.744 106.356 296.16 103.665 296.411 100.71C296.947 94.4375 292.03 88.8181 285.448 88.1826C284.111 88.0516 282.78 88.1426 281.494 88.4514C276.541 89.5695 272.93 93.5938 272.519 98.4631C272.34 100.513 272.748 102.576 273.697 104.426C275.53 108.09 279.281 110.606 283.486 110.991C283.899 111.031 284.311 111.05 284.717 111.05ZM284.267 89.615C284.611 89.615 284.959 89.6315 285.306 89.666C291.08 90.223 295.398 95.1213 294.93 100.585C294.713 103.139 293.486 105.469 291.476 107.144C289.311 108.949 286.524 109.787 283.627 109.509C279.927 109.17 276.633 106.967 275.028 103.757C275.027 103.754 275.026 103.752 275.024 103.75C274.201 102.15 273.848 100.367 274.004 98.5927C274.361 94.3713 277.507 90.8806 281.833 89.9045C282.632 89.7115 283.445 89.615 284.267 89.615Z" fill="#FF725E"/>
<path d="M297.637 96.5222C297.936 92.8591 296.182 88.464 291.418 86.254C284.755 83.1631 275.116 87.7774 274.817 91.4405C274.518 95.1022 290.089 101.842 293.771 102.206C297.452 102.57 297.337 100.184 297.637 96.5222Z" fill="#FF725E"/>
<path d="M273.222 102.914C276.428 100.966 283.103 89.2912 283.543 85.2366C276.539 84.1337 271.252 91.9189 271.24 96.587C271.232 99.9688 271.907 101.153 273.222 102.914Z" fill="#FF725E"/>
<path d="M290.148 108.774C288.418 109.524 286.566 110.402 286.566 110.402C286.566 111.104 288.637 114.47 288.637 114.47C288.637 114.47 286.495 122.294 288.568 121.999C294.216 121.193 300.918 111.881 300.918 111.881L295.363 104.406C295.362 104.406 291.877 108.024 290.148 108.774Z" fill="white"/>
<path d="M288.456 122.751C288.527 122.751 288.6 122.745 288.673 122.736C294.566 121.893 301.239 112.707 301.52 112.317C301.709 112.055 301.706 111.699 301.513 111.44L295.959 103.965C295.829 103.79 295.628 103.681 295.41 103.668C295.194 103.654 294.98 103.736 294.828 103.894C293.887 104.87 291.158 107.528 289.853 108.094C288.132 108.842 286.268 109.724 286.249 109.732C285.99 109.855 285.824 110.117 285.824 110.404C285.824 111.116 286.883 113.017 287.839 114.589C287.699 115.13 287.414 116.299 287.198 117.566C286.634 120.861 287.039 121.826 287.457 122.299C287.716 122.594 288.066 122.751 288.456 122.751ZM299.99 111.88C298.614 113.683 293.119 120.534 288.536 121.253C288.448 121.048 288.243 120.255 288.662 117.808C288.94 116.184 289.35 114.683 289.354 114.668C289.408 114.469 289.377 114.258 289.27 114.083C288.561 112.931 287.786 111.541 287.462 110.803C288.143 110.486 289.325 109.942 290.444 109.456C291.86 108.842 294.165 106.656 295.283 105.545L299.99 111.88Z" fill="#FF725E"/>
<path d="M299.067 96.7567C299.212 94.9451 297.826 93.3252 295.972 93.1391C294.117 92.953 292.496 94.2696 292.351 96.0811C292.204 97.8927 293.589 99.5112 295.444 99.6987C297.301 99.8862 298.922 98.5682 299.067 96.7567Z" fill="white"/>
<path d="M295.798 100.46C296.758 100.46 297.671 100.133 298.406 99.5193C299.225 98.8368 299.721 97.8759 299.807 96.8157C299.983 94.6072 298.296 92.626 296.046 92.3999C294.933 92.2883 293.855 92.6136 293.011 93.3167C292.192 94.0006 291.695 94.9601 291.611 96.0216C291.431 98.2289 293.117 100.21 295.369 100.437C295.512 100.453 295.656 100.46 295.798 100.46ZM298.326 96.6972C298.274 97.3562 297.963 97.9531 297.455 98.3791C296.92 98.8258 296.23 99.0326 295.516 98.9595C294.063 98.8134 292.974 97.5492 293.09 96.1416C293.142 95.4812 293.452 94.8829 293.963 94.4583C294.498 94.013 295.184 93.8062 295.897 93.8779C297.349 94.024 298.439 95.2882 298.326 96.6972Z" fill="#FF725E"/>
<path d="M270.66 158.587C270.823 158.587 270.987 158.535 271.124 158.424C271.445 158.168 271.499 157.699 271.242 157.378C268.821 154.341 265.739 153.436 262.077 154.69C261.688 154.823 261.48 155.247 261.614 155.635C261.747 156.024 262.171 156.232 262.559 156.099C265.603 155.056 268.063 155.779 270.077 158.306C270.225 158.492 270.441 158.587 270.66 158.587Z" fill="#FF725E"/>
<path d="M286.566 87.2492C283.326 87.2492 280.699 84.6222 280.699 81.3817C280.699 78.1411 283.326 75.5142 286.566 75.5142C289.807 75.5142 292.434 78.1411 292.434 81.3817C292.434 84.6222 289.807 87.2492 286.566 87.2492Z" fill="#FF725E"/>
<path d="M311.501 111.868L300.64 111.927C300.64 111.927 292.085 121.265 288.566 122.001C286.564 122.469 288.459 114.472 288.459 114.472C288.459 114.472 284.368 112.736 278.362 120.284C274.284 130.515 272.153 136.705 273.375 145.13C274.046 148.286 277.966 155.277 279.513 158.481C283.616 166.983 285.467 165.909 285.467 165.909L327.15 166.836L311.501 111.868Z" fill="white"/>
<path d="M327.152 167.579C327.382 167.579 327.599 167.472 327.739 167.29C327.884 167.104 327.931 166.86 327.866 166.633L312.217 111.664C312.126 111.344 311.835 111.125 311.503 111.125C311.501 111.125 311.5 111.125 311.499 111.125L300.638 111.184C300.431 111.185 300.234 111.272 300.095 111.425C297.789 113.941 291.277 120.542 288.519 121.249C288.424 120.998 288.253 120.173 288.593 117.796C288.826 116.166 289.18 114.658 289.184 114.643C289.267 114.291 289.085 113.93 288.751 113.788C288.562 113.708 284.069 111.923 277.783 119.821C277.737 119.878 277.701 119.941 277.674 120.008C273.722 129.921 271.366 136.442 272.642 145.236C272.644 145.253 272.647 145.268 272.65 145.285C273.174 147.751 275.484 152.234 277.341 155.837C277.944 157.004 278.464 158.014 278.844 158.804C281.102 163.484 283.071 166.11 284.696 166.609C285.083 166.728 285.38 166.707 285.582 166.655L327.134 167.579C327.141 167.579 327.146 167.579 327.152 167.579ZM310.942 112.612L326.162 166.072L285.485 165.167C285.394 165.165 285.306 165.18 285.222 165.21C285.027 165.188 283.385 164.795 280.184 158.16C279.794 157.352 279.27 156.336 278.664 155.158C276.948 151.832 274.603 147.279 274.108 145.001C272.899 136.623 275.181 130.278 279.012 120.662C283.188 115.453 286.311 114.982 287.572 115.059C287.44 115.692 287.254 116.65 287.112 117.663C286.64 121.026 287.079 121.957 287.512 122.391C287.833 122.713 288.264 122.832 288.728 122.727C292.169 121.998 299.404 114.359 300.969 112.669L310.942 112.612Z" fill="#FF725E"/>
<path d="M322.615 125.347L311.052 127.365C311.052 127.365 320.655 151.902 319.985 155.462C316.189 160.712 288.946 161.259 288.946 161.259C288.946 161.259 279.645 158.036 278.439 159.027C277.234 160.015 283.808 163.673 283.808 163.673C283.808 163.673 270.52 166.968 270.309 168.202C270.097 169.434 279.687 168.093 279.687 168.093C279.687 168.093 267.852 171.796 268.5 173.778C268.909 174.92 280.814 170.911 280.814 170.911C280.814 170.911 270.946 176.869 272.17 177.415C273.396 177.959 282.838 173.14 282.838 173.14C282.838 173.14 275.241 178.026 276.37 178.862C277.495 179.698 286.364 174.403 290.36 171.899C294.36 169.397 327.835 166.506 334.056 160.592C340.274 154.676 322.615 125.347 322.615 125.347Z" fill="white"/>
<path d="M276.702 179.593C277.496 179.593 279.054 179.096 282.592 177.199C285.84 175.457 289.344 173.293 290.701 172.444C292.111 171.561 298.202 170.498 304.65 169.373C316.166 167.363 330.497 164.863 334.499 161.057C336.114 159.522 336.449 156.706 335.521 152.452C334.82 149.24 333.385 145.214 331.254 140.487C327.642 132.473 323.211 125.089 323.167 125.016C323.03 124.788 322.767 124.668 322.505 124.714L310.942 126.732C310.752 126.765 310.587 126.882 310.493 127.05C310.398 127.219 310.384 127.42 310.454 127.601C314.222 137.228 319.632 152.34 319.371 155.207C316.127 159.184 296.547 160.456 289.047 160.616C288.555 160.448 286.48 159.751 284.315 159.154C279.669 157.874 278.53 158.121 278.031 158.532C277.756 158.758 277.622 159.076 277.654 159.429C277.703 159.982 278.109 160.785 280.736 162.544C281.226 162.872 281.712 163.178 282.136 163.437C280.845 163.772 278.898 164.292 276.957 164.858C274.997 165.431 273.424 165.941 272.28 166.374C270.214 167.155 269.761 167.596 269.675 168.094C269.628 168.367 269.714 168.641 269.912 168.847C270.152 169.094 270.581 169.538 274.367 169.293C274.339 169.305 274.312 169.316 274.284 169.327C269.333 171.276 268.322 172.354 267.992 172.995C267.777 173.412 267.817 173.76 267.889 173.98C267.89 173.985 267.893 173.991 267.894 173.996C268.164 174.752 269.172 174.728 270.712 174.445C271.771 174.251 273.209 173.897 274.986 173.392C275.426 173.267 275.867 173.139 276.297 173.012C276.218 173.064 276.138 173.116 276.06 173.169C274.771 174.026 273.744 174.757 273.006 175.34C271.647 176.416 271.396 176.88 271.423 177.32C271.443 177.622 271.623 177.877 271.909 178.004C272.241 178.15 272.834 178.413 277.039 176.595C275.846 177.663 275.626 178.198 275.612 178.599C275.602 178.911 275.739 179.195 275.987 179.378C276.145 179.494 276.348 179.593 276.702 179.593ZM322.289 126.056C323.232 127.657 326.969 134.106 330.085 141.024C334.652 151.162 335.904 157.944 333.613 160.124C329.892 163.662 315.175 166.23 304.428 168.105C297.284 169.351 291.641 170.337 290.019 171.353C288.746 172.15 285.448 174.188 282.32 175.885C279.28 177.532 277.848 178.071 277.189 178.24C278.075 177.243 280.75 175.249 283.187 173.682C283.476 173.497 283.568 173.118 283.397 172.82C283.226 172.522 282.852 172.412 282.548 172.568C279.24 174.255 275.406 175.992 273.489 176.596C274.973 175.379 278.215 173.234 281.148 171.462C281.43 171.293 281.537 170.94 281.399 170.642C281.261 170.344 280.921 170.198 280.611 170.303C276.159 171.801 270.96 173.267 269.314 173.348C269.71 172.937 270.9 172.063 274.473 170.635C277.17 169.557 279.854 168.714 279.88 168.706C280.2 168.607 280.389 168.277 280.316 167.952C280.243 167.625 279.93 167.41 279.599 167.456C276.578 167.878 273.093 168.171 271.538 168.061C273.45 167.155 278.919 165.548 283.964 164.296C284.22 164.232 284.412 164.019 284.446 163.757C284.481 163.495 284.352 163.238 284.121 163.11C281.692 161.758 279.512 160.197 279.027 159.491C279.454 159.442 280.705 159.482 284.13 160.434C286.498 161.093 288.714 161.858 288.736 161.867C288.808 161.892 288.884 161.905 288.96 161.903C289.029 161.901 295.883 161.756 303.113 160.969C312.97 159.897 318.823 158.171 320.507 155.839C320.563 155.762 320.601 155.674 320.618 155.581C321.257 152.182 313.729 132.478 311.938 127.864L322.289 126.056Z" fill="#FF725E"/>
<path d="M293.636 172.908L290.7 159.635C290.7 159.635 317.536 156.916 317.288 153.552C316.559 143.641 295.331 120.05 309.209 112.17C324.784 107.132 334.971 144.809 337.277 159.471C339.224 171.844 293.636 172.908 293.636 172.908Z" fill="white"/>
<path d="M293.636 173.652C293.642 173.652 293.647 173.652 293.654 173.652C295.107 173.617 329.317 172.72 336.637 163.953C337.808 162.551 338.271 161.004 338.011 159.357C337.054 153.274 334.803 143.461 331.356 134.162C327.201 122.953 322.553 115.71 317.54 112.63C314.758 110.921 311.878 110.529 308.982 111.465C308.934 111.48 308.888 111.501 308.844 111.526C306.485 112.866 304.93 114.735 304.224 117.086C303.607 119.14 303.618 121.532 304.257 124.398C305.406 129.538 308.465 135.408 311.166 140.589C313.81 145.661 316.307 150.453 316.548 153.59C316.505 153.685 316.076 154.38 312.471 155.372C310.25 155.983 307.223 156.601 303.47 157.207C297.057 158.244 290.69 158.893 290.627 158.9C290.416 158.922 290.224 159.033 290.1 159.204C289.976 159.376 289.93 159.592 289.977 159.799L292.914 173.073C292.987 173.41 293.289 173.652 293.636 173.652ZM312.055 112.448C313.635 112.448 315.193 112.928 316.764 113.894C321.421 116.755 325.986 123.942 329.965 134.677C333.374 143.874 335.599 153.576 336.545 159.587C336.738 160.81 336.395 161.926 335.499 163C329.116 170.646 298.918 171.985 294.23 172.146L291.607 160.284C293.613 160.065 298.948 159.453 304.21 158.586C308.117 157.942 311.226 157.284 313.45 156.632C316.752 155.663 318.122 154.726 318.031 153.496C317.778 150.055 315.206 145.121 312.484 139.897C307.081 129.531 300.96 117.785 309.513 112.851C310.369 112.585 311.215 112.448 312.055 112.448Z" fill="#FF725E"/>
<path d="M78.0385 287.53L79.2075 319.258L107.624 319.14C107.624 319.14 108.979 317.361 106.569 316.213C104.85 315.394 103.382 315.524 101.722 314.688C100.062 313.853 101.183 288.81 101.183 288.81L78.0385 287.53Z" fill="white"/>
<path d="M79.2074 319.985C79.2088 319.985 79.2088 319.985 79.2101 319.985L107.627 319.866C107.853 319.865 108.065 319.76 108.202 319.58C108.277 319.48 108.935 318.575 108.666 317.468C108.473 316.672 107.874 316.03 106.882 315.557C105.961 315.118 105.126 314.934 104.318 314.756C103.578 314.593 102.877 314.437 102.154 314.091C101.943 313.667 101.423 311.53 101.563 300.88C101.645 294.797 101.905 288.902 101.908 288.843C101.926 288.444 101.62 288.107 101.223 288.085L78.0783 286.804C77.8729 286.793 77.6743 286.867 77.5296 287.011C77.3834 287.154 77.3049 287.351 77.3131 287.557L78.4822 319.285C78.496 319.676 78.8172 319.985 79.2074 319.985ZM107.194 318.416L79.9077 318.531L78.7938 288.301L100.427 289.498C100.353 291.327 100.163 296.372 100.105 301.43C100.062 305.141 100.099 308.136 100.214 310.333C100.432 314.523 100.878 315.08 101.398 315.34C102.323 315.805 103.179 315.995 104.008 316.177C104.769 316.345 105.488 316.504 106.259 316.872C106.653 317.06 107.146 317.374 107.255 317.804C107.31 318.025 107.26 318.247 107.194 318.416Z" fill="#FF725E"/>
<path d="M108.765 319.623L78.0388 319.765L78.3752 308.541C83.4155 309.011 88.0408 314.817 93.1336 313.466C96.0549 312.707 98.6219 309.608 101.432 309.728C101.644 312.232 101.939 313.955 102.375 314.213C104.174 315.215 105.766 315.079 107.623 316.048C110.234 317.47 108.765 319.623 108.765 319.623Z" fill="#FF725E"/>
<path d="M39.4857 285.8L36.6595 319.26L65.0761 319.141C65.0761 319.141 66.4313 317.362 64.0228 316.214C62.3037 315.395 60.8354 315.525 59.1755 314.689C57.5156 313.854 62.6318 287.081 62.6318 287.081L39.4857 285.8Z" fill="white"/>
<path d="M36.6595 319.985C36.6609 319.985 36.6609 319.985 36.6623 319.985L65.0789 319.866C65.305 319.865 65.5173 319.76 65.6538 319.58C65.7296 319.48 66.3873 318.575 66.1184 317.466C65.9254 316.671 65.3257 316.028 64.3345 315.555C63.4135 315.117 62.5781 314.932 61.7702 314.754C61.0464 314.594 60.3598 314.443 59.6512 314.11C59.4996 313.576 59.3286 311.128 61.107 299.996C62.141 293.527 63.3335 287.277 63.3446 287.214C63.3845 287.009 63.3322 286.795 63.2039 286.631C63.0744 286.466 62.8814 286.365 62.6718 286.353L39.5271 285.072C39.1342 285.054 38.7964 285.345 38.7634 285.737L35.9371 319.196C35.9206 319.399 35.9895 319.6 36.1274 319.751C36.2625 319.901 36.4569 319.985 36.6595 319.985ZM64.6447 318.416L37.4509 318.529L40.1516 286.564L61.7646 287.759C61.391 289.753 60.4081 295.1 59.5643 300.458C58.9398 304.42 58.5124 307.614 58.2932 309.955C57.9072 314.075 58.1774 315 58.8502 315.339C59.7753 315.803 60.6314 315.994 61.46 316.176C62.221 316.344 62.9406 316.502 63.7113 316.871C64.1084 317.059 64.6033 317.376 64.7081 317.811C64.7591 318.029 64.7095 318.249 64.6447 318.416Z" fill="#FF725E"/>
<path d="M66.215 319.622L35.4892 319.764L36.6583 308.67C41.6986 309.141 45.4913 314.818 50.584 313.465C53.5067 312.707 57.2966 309.594 60.1062 309.714C60.3186 312.218 60.6136 313.959 61.0479 314.217C62.847 315.219 63.2165 315.08 65.0721 316.049C67.6847 317.47 66.215 319.622 66.215 319.622Z" fill="#FF725E"/>
<path d="M92.9469 176.028C92.9469 176.028 100.922 227.155 102.094 240.288C103.269 253.424 101.978 301.393 101.978 301.393L76.9519 301.671L73.2075 242.257L63.5336 301.328L35.4906 301.158L48.8565 176.498L92.9469 176.028Z" fill="#FF725E"/>
<path d="M37.0069 295.125C37.0083 295.125 37.0097 295.125 37.0124 295.125L62.4981 294.942C62.8758 294.939 63.1805 294.63 63.1777 294.251C63.175 293.873 62.8648 293.574 62.487 293.571L37.0014 293.755C36.6237 293.757 36.319 294.066 36.3217 294.445C36.3245 294.822 36.6306 295.125 37.0069 295.125Z" fill="white"/>
<path d="M77.1648 294.027H101.185C101.564 294.027 101.87 293.721 101.87 293.341C101.87 292.962 101.564 292.656 101.185 292.656H77.1648C76.7857 292.656 76.4796 292.962 76.4796 293.341C76.4796 293.721 76.7857 294.027 77.1648 294.027Z" fill="white"/>
<path d="M73.7811 243.693C74.061 243.693 74.2995 243.482 74.3284 243.198L77.6234 211.091L82.7947 202.382C82.9504 202.12 82.8636 201.783 82.6017 201.627C82.3397 201.471 82.0019 201.558 81.8462 201.82L76.6128 210.633C76.5714 210.702 76.5466 210.78 76.5384 210.858L73.231 243.087C73.1993 243.39 73.4199 243.66 73.7232 243.692C73.7438 243.692 73.7618 243.693 73.7811 243.693Z" fill="white"/>
<path d="M110.661 96.2764H138.882V118.813H110.661V96.2764Z" fill="white"/>
<path d="M110.661 119.389H138.882C139.201 119.389 139.46 119.13 139.46 118.812V96.2764C139.46 95.9579 139.201 95.6987 138.882 95.6987H110.661C110.343 95.6987 110.084 95.9579 110.084 96.2764V118.813C110.084 119.132 110.342 119.389 110.661 119.389ZM138.305 118.235H111.239V96.8527H138.305V118.235Z" fill="#FF725E"/>
<path d="M123.901 108.218L110.661 96.2764H138.882L123.901 108.218Z" fill="white"/>
<path d="M123.902 108.796C124.029 108.796 124.156 108.754 124.262 108.67L139.241 96.7286C139.432 96.5755 139.507 96.3177 139.425 96.0861C139.344 95.8545 139.126 95.6987 138.881 95.6987H110.66C110.422 95.6987 110.206 95.8462 110.121 96.0696C110.035 96.2929 110.096 96.5452 110.273 96.7051L123.513 108.647C123.625 108.746 123.764 108.796 123.902 108.796ZM137.231 96.8527L123.925 107.461L112.164 96.8527H137.231Z" fill="#FF725E"/>
<path d="M111.635 120.996C111.635 120.996 115.097 111.096 116.9 109.949C119.107 108.544 117.272 115.976 117.272 115.976L117.338 118.715H125.898L119.595 125.285C119.595 125.285 120.984 164.123 109.983 166.731C97.8127 169.616 76.9483 135.568 76.9483 135.568L82.2367 123.632L104.365 146.401L111.635 120.996Z" fill="white"/>
<path d="M108.453 167.482C109.028 167.482 109.582 167.419 110.117 167.292C114.943 166.148 118.098 158.677 119.49 145.087C120.421 136.008 120.225 127.086 120.181 125.508L126.316 119.114C126.476 118.947 126.521 118.7 126.43 118.488C126.339 118.276 126.131 118.136 125.899 118.136H117.903L117.852 116.037C117.927 115.726 118.204 114.535 118.391 113.26C118.809 110.409 118.411 109.698 117.965 109.378C117.748 109.221 117.279 109.023 116.592 109.461C114.716 110.654 111.681 119.119 111.093 120.804C111.089 120.815 111.086 120.825 111.083 120.836L104.088 145.283L82.6541 123.229C82.5204 123.091 82.326 123.029 82.1385 123.064C81.9496 123.098 81.7897 123.222 81.7125 123.399L76.424 135.335C76.3468 135.509 76.3606 135.709 76.4599 135.87C76.5123 135.955 81.7745 144.51 88.461 152.6C96.6281 162.489 103.343 167.482 108.453 167.482ZM124.543 119.292L119.177 124.883C119.07 124.996 119.012 125.148 119.017 125.304C119.02 125.4 119.351 135.098 118.338 144.98C117.02 157.837 114.084 165.163 109.848 166.168C105.103 167.295 98.0136 162.351 89.3516 151.872C83.3627 144.628 78.5237 137.003 77.5972 135.522L82.4156 124.646L103.949 146.802C104.092 146.95 104.304 147.011 104.503 146.96C104.703 146.91 104.861 146.757 104.918 146.558L112.183 121.168C113.499 117.411 116.019 111.189 117.207 110.432C117.25 110.405 117.286 110.386 117.313 110.373C117.572 110.955 117.306 113.413 116.708 115.834C116.696 115.884 116.69 115.935 116.691 115.987L116.759 118.726C116.767 119.039 117.022 119.29 117.337 119.29H124.543V119.292Z" fill="#FF725E"/>
<path d="M67.3717 110.455C69.721 110.897 71.6428 111.425 71.6428 111.425C71.6428 111.566 70.9286 120.191 70.9286 120.191L75.4947 121.429L80.291 137.575L59.7092 120.363L62.2873 107.317C62.2887 107.317 65.0239 110.008 67.3717 110.455Z" fill="white"/>
<path d="M80.291 138.248C80.4192 138.248 80.5474 138.211 80.6604 138.138C80.9086 137.975 81.0203 137.668 80.9362 137.384L76.1398 121.237C76.0737 121.014 75.8958 120.84 75.6711 120.779L71.6468 119.687C72.0921 114.312 72.3169 111.534 72.3169 111.425C72.3169 111.122 72.1142 110.856 71.8219 110.776C71.742 110.754 69.8463 110.235 67.4971 109.793C65.374 109.39 62.7863 106.863 62.7601 106.837C62.5836 106.663 62.3258 106.6 62.0887 106.673C61.8516 106.746 61.6751 106.943 61.6268 107.186L59.0488 120.232C59.0005 120.473 59.0888 120.721 59.2776 120.878L79.8594 138.091C79.9835 138.196 80.1365 138.248 80.291 138.248ZM74.9556 121.98L79.0088 135.626L60.4467 120.102L62.7188 108.606C63.7679 109.483 65.567 110.798 67.2462 111.116C68.8151 111.413 70.202 111.749 70.9286 111.935C70.8155 113.37 70.4874 117.346 70.2572 120.135C70.231 120.459 70.4391 120.756 70.7521 120.841L74.9556 121.98Z" fill="#FF725E"/>
<path d="M82.1143 122.446L74.9922 120.572L80.158 136.905L58.8786 120.237C58.8786 120.237 57.3069 120.323 53.9279 122.473C50.5461 124.621 49.4638 128.184 49.4638 128.184V169.673L46.8554 203.481H97.8115L92.5961 178.269C92.5961 178.269 97.0215 154.545 95.7132 146.731C94.6117 140.144 82.1143 122.446 82.1143 122.446Z" fill="#FF725E"/>
<path d="M58.979 107.034C56.6063 101.455 58.9376 94.9846 64.1875 92.583C69.436 90.1787 75.6137 92.7526 77.9864 98.332C80.3576 103.909 78.0263 110.379 72.7792 112.783C67.5293 115.185 61.3502 112.612 58.979 107.034Z" fill="white"/>
<path d="M68.6695 114.357C70.1681 114.357 71.6571 114.036 73.0578 113.395C78.6261 110.843 81.1146 103.968 78.6054 98.0671C77.3467 95.1057 75.0595 92.8585 72.1657 91.7377C69.4567 90.6886 66.523 90.7713 63.9063 91.9707C58.3379 94.5198 55.8495 101.395 58.3586 107.297C59.6173 110.256 61.9031 112.503 64.7955 113.624C66.057 114.113 67.3667 114.357 68.6695 114.357ZM68.2973 92.354C69.4347 92.354 70.579 92.5663 71.6805 92.9937C74.231 93.9821 76.2507 95.9715 77.3674 98.5951C79.5939 103.83 77.4101 109.921 72.4994 112.171C70.215 113.216 67.6521 113.287 65.2849 112.369C62.7344 111.381 60.7161 109.393 59.6008 106.77C57.3743 101.533 59.5581 95.4435 64.4688 93.1949C65.6875 92.6352 66.989 92.354 68.2973 92.354Z" fill="#FF725E"/>
<path d="M63.185 106.666C63.0913 107.081 65.3964 100.982 65.8306 100.108C67.4533 96.8348 76.8074 97.6868 77.1286 93.7811C77.2334 92.5113 70.7538 84.3387 58.8837 88.851C41.6451 95.4037 49.0939 125.868 53.0865 122.949C53.0865 122.949 66.6179 119.464 67.3348 118.535C67.7897 117.858 63.0499 111.97 63.0499 111.97C63.0499 111.97 58.6589 108.418 58.5597 107.177C58.2964 103.895 63.6993 104.394 63.185 106.666Z" fill="#FF725E"/>
<path d="M77.198 147.597L101.147 151.947L93.9448 191.604L69.9953 187.254L77.198 147.597Z" fill="white"/>
<path d="M93.9506 192.198C94.2249 192.198 94.4676 192.003 94.5186 191.724L101.719 152.065C101.776 151.75 101.568 151.45 101.255 151.393L77.3048 147.045C77.1546 147.017 76.9988 147.052 76.8733 147.139C76.7479 147.226 76.661 147.359 76.6334 147.511L69.4328 187.169C69.4052 187.319 69.4383 187.475 69.5265 187.601C69.6148 187.726 69.7471 187.813 69.8988 187.84L93.8486 192.189C93.8817 192.194 93.9161 192.198 93.9506 192.198ZM100.48 152.427L93.4846 190.949L70.6708 186.806L77.666 148.284L100.48 152.427Z" fill="#FF725E"/>
<path d="M73.8582 149.203L97.8076 153.553L90.6049 193.21L66.6555 188.86L73.8582 149.203Z" fill="white"/>
<path d="M90.6115 193.803C90.8859 193.803 91.1285 193.608 91.1795 193.329L98.3802 153.671C98.4078 153.521 98.3747 153.365 98.2864 153.239C98.1982 153.114 98.0659 153.027 97.9142 153L73.9644 148.651C73.65 148.595 73.3495 148.803 73.293 149.116L66.0923 188.774C66.0648 188.924 66.0978 189.08 66.1861 189.206C66.2743 189.331 66.4066 189.418 66.5583 189.445L90.5081 193.794C90.5426 193.799 90.577 193.803 90.6115 193.803ZM97.1394 154.032L90.1442 192.554L67.3304 188.411L74.3256 149.889L97.1394 154.032Z" fill="#FF725E"/>
<path d="M58.1553 123.316C47.7727 120.073 42.3808 138.909 40.8368 145.199C37.3474 159.393 34.7901 171.221 41.522 176.009C52.3237 183.686 92.0548 182.417 92.0548 182.417C92.0548 182.417 98.7895 182.64 99.3478 181.578C99.8497 180.626 95.5524 180.433 95.5524 180.433C95.5524 180.433 100.309 180.179 100.418 179.17C100.568 177.765 95.8543 177.899 95.8543 177.899C95.8543 177.899 100.398 177.156 100.485 176.562C100.786 174.505 95.7041 175.29 95.7041 175.29C95.7041 175.29 100.026 175.132 99.0818 173.552C98.653 172.835 91.5254 172.147 91.5254 172.147C91.5254 172.147 96.574 170.125 95.9054 168.319C95.5924 167.472 86.4258 171.178 86.4258 171.178C86.4258 171.178 57.0248 166.604 53.9435 163.521C53.9435 163.521 68.5379 126.561 58.1553 123.316Z" fill="white"/>
<path d="M85.7589 183.166C89.3986 183.166 91.8002 183.097 92.0552 183.088C92.2675 183.095 93.8502 183.139 95.5225 183.066C98.9443 182.916 99.6708 182.411 99.9452 181.889C100.107 181.583 100.102 181.241 99.9355 180.95C99.8445 180.791 99.6957 180.654 99.5027 180.534C100.538 180.229 101.027 179.818 101.089 179.241C101.129 178.87 101.011 178.524 100.746 178.238C100.534 178.008 100.22 177.829 99.8501 177.69C100.84 177.356 101.095 177.051 101.153 176.658C101.231 176.118 101.077 175.638 100.706 175.27C100.443 175.008 100.078 174.826 99.6612 174.702C99.6888 174.662 99.7136 174.622 99.737 174.581C99.8694 174.337 100.036 173.833 99.6612 173.206C99.4241 172.811 98.9278 172.44 95.2399 171.914C94.7863 171.85 94.3355 171.79 93.9122 171.738C95.4398 170.856 97.0735 169.529 96.5386 168.086C96.4614 167.879 96.3028 167.712 96.0891 167.619C95.7624 167.474 95.2151 167.233 90.5194 168.906C88.6762 169.564 86.8991 170.266 86.349 170.486C75.08 168.727 57.9875 165.457 54.7519 163.309C56.2435 159.443 65.6652 134.261 61.4976 125.542C60.7944 124.071 59.7384 123.106 58.3584 122.675C56.0795 121.962 53.8695 122.195 51.7933 123.367C45.4446 126.949 41.7953 138.482 40.1851 145.039C38.4052 152.278 36.9122 158.71 36.6764 164.103C36.4062 170.246 37.8235 174.204 41.135 176.559C45.719 179.818 55.7017 181.905 70.8048 182.766C76.471 183.086 81.8353 183.166 85.7589 183.166ZM92.0566 181.741C92.0497 181.741 92.0428 181.741 92.0345 181.741C91.6402 181.754 52.4054 182.916 41.9125 175.458C35.7321 171.062 37.8386 160.21 41.4906 145.358C42.7452 140.248 46.3242 127.994 52.4523 124.537C54.2169 123.542 56.0174 123.352 57.9544 123.957C58.9774 124.277 59.737 124.984 60.2802 126.12C64.452 134.848 53.4283 162.989 53.3167 163.273C53.2188 163.523 53.2767 163.807 53.4669 163.997C53.9798 164.51 55.5377 166.068 71.2101 169.165C78.8699 170.679 86.2484 171.832 86.3228 171.843C86.4428 171.862 86.5654 171.847 86.6785 171.801C89.9955 170.46 93.9123 169.083 95.2413 168.886C94.9118 169.633 93.0713 170.8 91.2735 171.521C90.9854 171.637 90.8131 171.935 90.8572 172.243C90.9013 172.55 91.1495 172.787 91.4597 172.817C94.3851 173.1 97.8331 173.61 98.5307 173.967C98.3708 174.157 97.7435 174.356 96.9784 174.484C96.34 174.519 95.8189 174.592 95.6011 174.625C95.2482 174.68 95 175 95.0331 175.354C95.0676 175.71 95.3709 175.98 95.7279 175.963C96.0119 175.952 96.5386 175.922 97.1217 175.83C98.2274 175.779 99.3896 175.863 99.7549 176.227C99.7701 176.242 99.7839 176.257 99.7963 176.276C99.1814 176.556 97.3189 176.977 95.7445 177.235C95.3943 177.292 95.1489 177.61 95.1834 177.963C95.2164 178.309 95.5073 178.572 95.8534 178.572C95.8603 178.572 95.8658 178.572 95.8727 178.572C97.4884 178.526 99.1552 178.75 99.646 179.057C99.0615 179.354 97.2789 179.665 95.517 179.759C95.1585 179.778 94.8787 180.075 94.8801 180.434C94.8814 180.793 95.1641 181.088 95.5239 181.104C96.5137 181.149 97.5298 181.284 98.1736 181.439C96.9618 181.71 94.3493 181.817 92.0773 181.743C92.0718 181.741 92.0635 181.741 92.0566 181.741Z" fill="#FF725E"/>
<path d="M58.7525 108.143C58.2383 106.932 58.7773 105.514 59.9533 104.973C61.1307 104.435 62.5024 104.979 63.0166 106.189C63.5309 107.4 62.9946 108.817 61.8172 109.357C60.6399 109.896 59.2695 109.353 58.7525 108.143Z" fill="white"/>
<path d="M60.8713 110.239C61.2876 110.239 61.7054 110.15 62.0969 109.971C63.5996 109.28 64.2903 107.466 63.6355 105.927C63.3129 105.167 62.7187 104.587 61.9618 104.293C61.2159 104.004 60.4039 104.029 59.6733 104.362C58.1692 105.054 57.4785 106.869 58.1319 108.407V108.409C58.4559 109.168 59.0515 109.749 59.8097 110.041C60.1558 110.173 60.5128 110.239 60.8713 110.239ZM60.9002 105.439C61.0946 105.439 61.289 105.475 61.4752 105.547C61.8901 105.708 62.2182 106.029 62.3975 106.452C62.7697 107.328 62.3837 108.356 61.5372 108.745C61.1415 108.926 60.7017 108.939 60.2978 108.784C59.8814 108.622 59.5533 108.301 59.3727 107.878C59.0019 107.002 59.3879 105.974 60.2358 105.584C60.4481 105.489 60.6741 105.439 60.9002 105.439Z" fill="#FF725E"/>
<path d="M34.8861 287.361C35.0143 287.361 35.1342 287.261 35.1838 287.097C35.2487 286.884 35.1673 286.642 35.0033 286.558L34.9564 286.535C34.791 286.451 34.6062 286.558 34.5428 286.772C34.4794 286.986 34.5607 287.227 34.7248 287.31L34.7689 287.332C34.8075 287.351 34.8475 287.361 34.8861 287.361ZM29.985 284.499C30.1008 284.499 30.2125 284.416 30.2704 284.273C30.3503 284.068 30.2883 283.818 30.1311 283.714C28.5595 282.666 27.0195 281.506 25.5554 280.262C25.4079 280.137 25.2094 280.19 25.1129 280.382C25.0164 280.574 25.0577 280.831 25.2052 280.957C26.6873 282.216 28.2466 283.392 29.8389 284.452C29.8857 284.485 29.9354 284.499 29.985 284.499ZM21.0845 276.937C21.1768 276.937 21.2692 276.884 21.3326 276.785C21.4443 276.607 21.425 276.347 21.2871 276.201C19.9305 274.758 18.6153 273.199 17.3773 271.57C17.2532 271.406 17.0505 271.404 16.9251 271.566C16.7996 271.727 16.7982 271.989 16.9223 272.153C18.1755 273.804 19.5073 275.382 20.8818 276.843C20.9424 276.906 21.0142 276.937 21.0845 276.937ZM13.6177 267.107C13.688 267.107 13.7583 267.078 13.8176 267.016C13.9555 266.873 13.9775 266.612 13.8672 266.433C12.7781 264.663 11.7373 262.785 10.775 260.853C10.6785 260.66 10.4813 260.605 10.3324 260.731C10.1835 260.855 10.1422 261.113 10.2373 261.306C11.212 263.261 12.2639 265.16 13.3668 266.953C13.4302 267.053 13.524 267.107 13.6177 267.107ZM7.83017 255.511C7.87979 255.511 7.93082 255.496 7.97769 255.464C8.13486 255.358 8.19553 255.107 8.11417 254.905C7.31042 252.897 6.56046 250.796 5.88354 248.659C5.81598 248.447 5.62988 248.346 5.46582 248.433C5.30176 248.52 5.22455 248.763 5.29208 248.975C5.97592 251.134 6.73413 253.259 7.54617 255.288C7.60269 255.43 7.71436 255.511 7.83017 255.511ZM3.77283 242.724C3.80453 242.724 3.83762 242.717 3.86932 242.705C4.03754 242.636 4.13129 242.403 4.07751 242.184C3.55225 240.022 3.0835 237.786 2.68506 235.535C2.64508 235.311 2.47412 235.172 2.30179 235.223C2.12946 235.274 2.02194 235.497 2.06192 235.721C2.46448 237.993 2.93738 240.251 3.46814 242.433C3.51089 242.611 3.63635 242.724 3.77283 242.724ZM1.37396 229.243C1.3905 229.243 1.4057 229.241 1.42224 229.238C1.59732 229.204 1.71725 228.992 1.6897 228.766C1.42636 226.52 1.22095 224.216 1.08032 221.916C1.06656 221.688 0.91214 221.518 0.735657 221.536C0.559204 221.554 0.428223 221.754 0.442017 221.983C0.584015 224.301 0.790833 226.626 1.05692 228.891C1.0831 229.095 1.21817 229.243 1.37396 229.243ZM0.52475 215.448C0.526123 215.448 0.527496 215.448 0.527496 215.448C0.703949 215.445 0.845978 215.258 0.843201 215.029C0.840454 214.674 0.839081 214.321 0.839081 213.966C0.839081 212.037 0.881805 210.075 0.965881 208.134C0.975555 207.905 0.840454 207.709 0.665344 207.696C0.486145 207.686 0.33725 207.858 0.327606 208.087C0.242126 210.044 0.199371 212.022 0.199371 213.966C0.199371 214.323 0.200745 214.68 0.203491 215.037C0.206268 215.264 0.34964 215.448 0.52475 215.448ZM347.695 210.315C347.786 210.315 347.876 210.265 347.939 210.169C349.097 208.404 350.236 206.6 351.326 204.806C351.435 204.625 351.412 204.365 351.274 204.223C351.135 204.081 350.935 204.111 350.825 204.292C349.74 206.077 348.605 207.874 347.452 209.631C347.338 209.806 347.355 210.068 347.488 210.217C347.549 210.282 347.622 210.315 347.695 210.315ZM1.12445 201.632C1.28299 201.632 1.42084 201.478 1.44153 201.267C1.65659 198.996 1.93097 196.705 2.25909 194.455C2.29218 194.23 2.17773 194.013 2.00403 193.97C1.83032 193.927 1.66348 194.075 1.6304 194.301C1.29953 196.567 1.02243 198.876 0.805969 201.165C0.783936 201.393 0.909393 201.599 1.08447 201.628C1.09827 201.632 1.11206 201.632 1.12445 201.632ZM354.295 199.449C354.394 199.449 354.49 199.389 354.554 199.278C355.604 197.404 356.631 195.489 357.609 193.587C357.707 193.396 357.667 193.139 357.521 193.01C357.373 192.884 357.175 192.935 357.077 193.125C356.105 195.018 355.082 196.923 354.037 198.788C353.933 198.973 353.965 199.234 354.107 199.369C354.164 199.424 354.23 199.449 354.295 199.449ZM3.10693 188.04C3.24893 188.04 3.37854 187.916 3.41574 187.729C3.8569 185.508 4.35876 183.281 4.90884 181.114C4.96399 180.896 4.87299 180.662 4.7048 180.59C4.53659 180.518 4.35599 180.637 4.30084 180.855C3.74661 183.04 3.24066 185.283 2.79675 187.522C2.75262 187.744 2.85602 187.97 3.02695 188.028C3.05316 188.036 3.08075 188.04 3.10693 188.04ZM360.206 187.934C360.314 187.934 360.42 187.863 360.479 187.734C361.407 185.752 362.306 183.729 363.152 181.726C363.238 181.525 363.18 181.273 363.026 181.162C362.871 181.052 362.677 181.126 362.591 181.326C361.75 183.32 360.856 185.331 359.933 187.303C359.842 187.499 359.889 187.755 360.041 187.874C360.092 187.915 360.15 187.934 360.206 187.934ZM365.325 175.799C365.444 175.799 365.557 175.714 365.612 175.566C366.396 173.485 367.149 171.363 367.847 169.262C367.917 169.051 367.843 168.807 367.68 168.716C367.517 168.625 367.33 168.723 367.259 168.932C366.566 171.021 365.817 173.13 365.037 175.201C364.96 175.406 365.025 175.656 365.183 175.757C365.23 175.786 365.278 175.799 365.325 175.799ZM6.43912 174.902C6.56595 174.902 6.68591 174.804 6.73553 174.641C7.4028 172.491 8.11279 170.361 8.84348 168.312C8.91794 168.104 8.8476 167.857 8.68768 167.76C8.52777 167.664 8.33752 167.754 8.26309 167.962C7.52689 170.024 6.81274 172.167 6.14133 174.331C6.07516 174.543 6.15512 174.786 6.31781 174.872C6.35916 174.891 6.39914 174.902 6.43912 174.902ZM369.544 163.092C369.673 163.092 369.796 162.989 369.843 162.822C370.467 160.649 371.053 158.441 371.583 156.258C371.637 156.039 371.543 155.806 371.373 155.737C371.205 155.668 371.026 155.79 370.972 156.009C370.445 158.178 369.864 160.372 369.243 162.533C369.181 162.748 369.265 162.986 369.431 163.068C369.468 163.084 369.507 163.092 369.544 163.092ZM10.9238 162.364C11.0383 162.364 11.1486 162.285 11.2065 162.144C12.0419 160.106 12.9257 158.095 13.8342 156.166C13.9265 155.97 13.8783 155.715 13.728 155.595C13.5778 155.475 13.3806 155.537 13.2882 155.733C12.3742 157.676 11.4836 159.702 10.6426 161.754C10.5599 161.956 10.6192 162.207 10.775 162.315C10.8218 162.349 10.8728 162.364 10.9238 162.364ZM16.4729 150.585C16.5735 150.585 16.6728 150.523 16.7349 150.407C17.7509 148.524 18.8193 146.673 19.914 144.904C20.0243 144.725 20.0022 144.464 19.8644 144.319C19.7265 144.176 19.5252 144.205 19.4149 144.383C18.312 146.165 17.2339 148.032 16.211 149.929C16.1103 150.117 16.1448 150.376 16.2896 150.508C16.3447 150.562 16.4095 150.585 16.4729 150.585ZM372.744 149.895C372.886 149.895 373.017 149.771 373.052 149.583C373.496 147.339 373.896 145.06 374.241 142.81C374.275 142.585 374.162 142.366 373.99 142.322C373.818 142.278 373.648 142.424 373.614 142.648C373.272 144.883 372.875 147.148 372.433 149.378C372.389 149.6 372.493 149.826 372.664 149.884C372.691 149.891 372.717 149.895 372.744 149.895ZM23.1317 139.824C23.2186 139.824 23.3041 139.778 23.3675 139.69C24.56 138.008 25.8118 136.36 27.0871 134.792C27.2153 134.634 27.2208 134.371 27.0995 134.204C26.9782 134.037 26.7755 134.031 26.6473 134.188C25.361 135.769 24.0995 137.43 22.8974 139.126C22.7774 139.294 22.7857 139.558 22.9167 139.713C22.976 139.788 23.0545 139.824 23.1317 139.824ZM374.817 136.316C374.974 136.316 375.111 136.166 375.133 135.958C375.38 133.664 375.575 131.341 375.716 129.052C375.73 128.823 375.599 128.624 375.422 128.606C375.245 128.585 375.091 128.759 375.078 128.986C374.938 131.258 374.743 133.566 374.499 135.843C374.474 136.071 374.597 136.281 374.772 136.312C374.788 136.315 374.802 136.316 374.817 136.316ZM30.8522 130.329C30.9239 130.329 30.9955 130.297 31.0548 130.234C32.4045 128.788 33.8162 127.374 35.2528 126.033C35.3961 125.899 35.4293 125.64 35.3259 125.454C35.2224 125.268 35.0226 125.225 34.8792 125.359C33.4316 126.711 32.0075 128.135 30.6467 129.593C30.5103 129.739 30.4909 130.001 30.604 130.177C30.6688 130.278 30.7598 130.329 30.8522 130.329ZM375.664 122.523C375.837 122.523 375.979 122.342 375.983 122.116C375.994 121.376 376 120.629 376 119.894C376 118.321 375.974 116.73 375.924 115.165C375.917 114.936 375.767 114.76 375.592 114.768C375.415 114.778 375.279 114.971 375.286 115.201C375.335 116.755 375.362 118.333 375.362 119.894C375.362 120.623 375.356 121.365 375.345 122.098C375.342 122.327 375.482 122.518 375.658 122.522C375.659 122.522 375.662 122.523 375.664 122.523ZM39.4866 122.26C39.5445 122.26 39.6038 122.239 39.6562 122.196C41.13 120.997 42.6713 119.826 44.2347 118.718C44.3891 118.608 44.447 118.355 44.3615 118.154C44.2774 117.953 44.083 117.878 43.9272 117.989C42.3514 119.105 40.8005 120.284 39.3157 121.492C39.1654 121.613 39.1212 121.87 39.215 122.064C39.2757 122.191 39.3805 122.26 39.4866 122.26ZM48.8269 115.628C48.8724 115.628 48.9193 115.616 48.9634 115.588C50.524 114.623 52.1536 113.682 53.808 112.79C53.9706 112.702 54.0479 112.459 53.9803 112.247C53.9128 112.034 53.7253 111.934 53.5626 112.022C51.8986 112.919 50.258 113.868 48.6891 114.837C48.5291 114.935 48.4616 115.183 48.5374 115.39C48.5926 115.542 48.707 115.628 48.8269 115.628ZM58.647 110.316C58.6829 110.316 58.7201 110.308 58.756 110.292C60.3759 109.527 62.0674 108.778 63.7852 108.065C63.9534 107.995 64.0458 107.762 63.992 107.543C63.9383 107.323 63.759 107.204 63.5894 107.274C61.8648 107.989 60.1635 108.742 58.5367 109.511C58.3713 109.59 58.2844 109.828 58.3451 110.044C58.3933 110.212 58.5161 110.316 58.647 110.316ZM375.216 108.698C375.227 108.698 375.238 108.697 375.249 108.695C375.424 108.672 375.552 108.468 375.534 108.239C375.349 105.943 375.107 103.629 374.812 101.357C374.783 101.131 374.617 100.979 374.444 101.016C374.27 101.055 374.151 101.268 374.182 101.495C374.474 103.749 374.715 106.047 374.898 108.324C374.915 108.539 375.054 108.698 375.216 108.698ZM68.7897 106.095C68.8186 106.095 68.8476 106.09 68.8766 106.08C70.5213 105.477 72.2501 104.879 74.0148 104.304C74.1857 104.248 74.2905 104.023 74.2464 103.8C74.2036 103.578 74.0299 103.443 73.859 103.498C72.0888 104.075 70.3531 104.675 68.7029 105.28C68.5333 105.342 68.434 105.573 68.4823 105.793C68.5209 105.977 68.6505 106.095 68.7897 106.095ZM79.1158 102.713C79.1392 102.713 79.1626 102.711 79.1861 102.702C80.8474 102.214 82.5458 101.736 84.3822 101.242C84.5545 101.195 84.6662 100.976 84.6303 100.751C84.5945 100.527 84.4263 100.382 84.2526 100.429C82.4135 100.924 80.7108 101.402 79.0454 101.892C78.8731 101.943 78.7656 102.165 78.8042 102.388C78.8373 102.582 78.9696 102.713 79.1158 102.713ZM89.5466 99.8926C89.5673 99.8926 89.5879 99.8898 89.6072 99.8843C91.1665 99.4914 92.8305 99.0819 94.8447 98.5952C95.0184 98.5539 95.1328 98.3361 95.1011 98.1114C95.0681 97.8853 94.9012 97.7364 94.7289 97.7791C92.7133 98.2658 91.0479 98.6766 89.4859 99.0695C89.3122 99.1136 89.1992 99.3314 89.2322 99.5562C89.2626 99.7547 89.3963 99.8926 89.5466 99.8926ZM100.031 97.3448C100.05 97.3448 100.07 97.3421 100.089 97.3379C101.777 96.934 103.581 96.4997 105.335 96.0696C105.509 96.0268 105.623 95.809 105.59 95.5843C105.557 95.3596 105.39 95.2107 105.216 95.2534C103.464 95.6835 101.661 96.1164 99.9733 96.5204C99.7996 96.5617 99.6851 96.7782 99.7168 97.0043C99.7458 97.2042 99.8809 97.3448 100.031 97.3448ZM373.447 95.059C373.47 95.059 373.495 95.0549 373.52 95.048C373.692 94.9956 373.798 94.7723 373.758 94.5489C373.354 92.3059 372.89 90.049 372.378 87.8404C372.327 87.6212 372.149 87.4972 371.98 87.562C371.81 87.6281 371.715 87.8597 371.766 88.0789C372.275 90.271 372.735 92.5113 373.137 94.7378C373.17 94.9294 373.302 95.059 373.447 95.059ZM110.512 94.7543C110.532 94.7543 110.554 94.7516 110.575 94.7461C112.464 94.2525 114.172 93.7852 115.8 93.3164C115.972 93.2668 116.081 93.0448 116.043 92.8215C116.004 92.5982 115.833 92.4561 115.661 92.5058C114.037 92.9731 112.331 93.4391 110.448 93.9313C110.275 93.9768 110.163 94.196 110.197 94.4207C110.228 94.6179 110.361 94.7543 110.512 94.7543ZM120.92 91.7351C120.947 91.7351 120.973 91.731 120.999 91.7227C122.808 91.1299 124.543 90.515 126.155 89.8946C126.325 89.8298 126.421 89.5982 126.372 89.379C126.322 89.1584 126.144 89.033 125.975 89.0992C124.371 89.7154 122.645 90.3275 120.843 90.919C120.672 90.9755 120.569 91.2002 120.612 91.4235C120.647 91.6097 120.777 91.7351 120.92 91.7351ZM131.133 87.7743C131.169 87.7743 131.205 87.766 131.241 87.7495C132.986 86.9416 134.66 86.0813 136.215 85.1921C136.376 85.0997 136.451 84.8543 136.379 84.6447C136.309 84.4352 136.12 84.3387 135.957 84.4324C134.416 85.312 132.757 86.1654 131.026 86.9678C130.859 87.045 130.772 87.2821 130.831 87.4985C130.878 87.6681 131.001 87.7743 131.133 87.7743ZM140.914 82.3148C140.96 82.3148 141.009 82.301 141.054 82.2721C142.641 81.2616 144.235 80.1931 145.791 79.0929C145.946 78.9827 146.003 78.7317 145.919 78.5291C145.835 78.3278 145.641 78.2533 145.485 78.3623C143.937 79.4555 142.35 80.5198 140.771 81.5249C140.613 81.6255 140.547 81.875 140.625 82.0805C140.682 82.2294 140.796 82.3148 140.914 82.3148ZM370.378 81.8171C370.415 81.8171 370.452 81.8089 370.49 81.791C370.655 81.711 370.739 81.4725 370.678 81.2574C370.064 79.1026 369.388 76.9381 368.668 74.8247C368.597 74.6151 368.408 74.52 368.247 74.6123C368.085 74.7047 368.012 74.9501 368.084 75.1597C368.798 77.258 369.469 79.4073 370.079 81.5455C370.126 81.7137 370.248 81.8171 370.378 81.8171ZM150.259 75.7208C150.314 75.7208 150.371 75.7015 150.423 75.6615C151.914 74.5048 153.394 73.3082 154.949 72.004C155.098 71.8799 155.14 71.6221 155.045 71.4291C154.948 71.236 154.751 71.1809 154.602 71.3064C153.054 72.6064 151.58 73.7976 150.095 74.9487C149.944 75.0659 149.894 75.321 149.985 75.5181C150.044 75.6491 150.15 75.7208 150.259 75.7208ZM366.078 69.1667C366.128 69.1667 366.177 69.1515 366.224 69.1198C366.381 69.015 366.443 68.7641 366.362 68.5601C365.553 66.5197 364.681 64.4765 363.773 62.4844C363.683 62.2873 363.486 62.2225 363.334 62.3383C363.183 62.4555 363.132 62.7105 363.223 62.9076C364.124 64.8846 364.99 66.914 365.794 68.9406C365.849 69.084 365.962 69.1667 366.078 69.1667ZM159.201 68.2375C159.263 68.2375 159.327 68.2141 159.382 68.1644C160.711 66.9815 162.098 65.7215 163.748 64.2008C163.891 64.0685 163.926 63.8093 163.824 63.6218C163.722 63.4343 163.522 63.3902 163.379 63.5239C161.731 65.0432 160.347 66.2991 159.021 67.4792C158.874 67.6088 158.837 67.868 158.938 68.0569C158.999 68.1741 159.099 68.2375 159.201 68.2375ZM167.891 60.2565C167.956 60.2565 168.02 60.2317 168.077 60.1779C169.4 58.944 170.9 57.5447 172.403 56.1592C172.547 56.0268 172.581 55.7676 172.479 55.5802C172.377 55.3927 172.177 55.3499 172.034 55.4823C170.53 56.8692 169.03 58.2685 167.705 59.5038C167.561 59.6375 167.528 59.8967 167.632 60.0828C167.692 60.1972 167.79 60.2565 167.891 60.2565ZM360.652 57.2621C360.712 57.2621 360.774 57.2387 360.829 57.1918C360.976 57.0636 361.016 56.8058 360.916 56.6155C359.932 54.7144 358.888 52.8132 357.813 50.9631C357.707 50.7797 357.505 50.7439 357.365 50.8817C357.224 51.0196 357.195 51.2802 357.303 51.4635C358.371 53.3013 359.409 55.19 360.387 57.0787C360.448 57.1987 360.548 57.2621 360.652 57.2621ZM176.574 52.2686C176.636 52.2686 176.699 52.2452 176.756 52.1956C178.287 50.8224 179.726 49.5555 181.156 48.3243C181.304 48.1975 181.344 47.9397 181.246 47.7495C181.148 47.5578 180.949 47.5054 180.803 47.6323C179.369 48.8661 177.927 50.1359 176.393 51.5118C176.248 51.6427 176.211 51.9005 176.312 52.0894C176.372 52.2052 176.473 52.2686 176.574 52.2686ZM354.234 46.2205C354.307 46.2205 354.38 46.1888 354.439 46.1226C354.574 45.9751 354.591 45.7132 354.478 45.5381C353.343 43.7886 352.149 42.0419 350.931 40.3461C350.811 40.1779 350.608 40.1697 350.479 40.3254C350.349 40.4826 350.342 40.7446 350.463 40.9128C351.675 42.5975 352.861 44.3345 353.989 46.073C354.052 46.1709 354.143 46.2205 354.234 46.2205ZM185.446 44.6378C185.504 44.6378 185.564 44.6172 185.617 44.5731C187.116 43.3447 188.639 42.1287 190.145 40.961C190.297 40.8438 190.346 40.5888 190.255 40.3916C190.164 40.1945 189.968 40.1311 189.817 40.2482C188.307 41.4201 186.78 42.6388 185.277 43.8713C185.128 43.994 185.083 44.2505 185.178 44.4448C185.237 44.5703 185.34 44.6378 185.446 44.6378ZM194.581 37.5461C194.635 37.5461 194.689 37.5282 194.739 37.4923C196.263 36.3729 197.829 35.2548 199.396 34.1684C199.551 34.0609 199.611 33.8086 199.527 33.6059C199.444 33.4033 199.249 33.3274 199.094 33.435C197.523 34.5241 195.952 35.6463 194.423 36.7685C194.268 36.8816 194.215 37.1353 194.302 37.3338C194.361 37.4703 194.47 37.5461 194.581 37.5461ZM346.966 36.1068C347.05 36.1068 347.133 36.0641 347.195 35.9813C347.317 35.8173 347.315 35.554 347.188 35.394C345.925 33.8017 344.606 32.2163 343.267 30.6791C343.134 30.5274 342.932 30.5426 342.816 30.7149C342.699 30.8872 342.711 31.1492 342.844 31.3008C344.175 32.8284 345.486 34.4055 346.742 35.9896C346.804 36.0668 346.886 36.1068 346.966 36.1068ZM203.969 31.0306C204.017 31.0306 204.066 31.0168 204.112 30.9865C205.666 29.9663 207.27 28.9406 208.882 27.9383C209.042 27.8391 209.108 27.5909 209.032 27.3841C208.957 27.1773 208.765 27.0891 208.606 27.1897C206.992 28.1948 205.383 29.2232 203.824 30.2462C203.667 30.3496 203.603 30.5991 203.683 30.8045C203.738 30.9465 203.851 31.0306 203.969 31.0306ZM338.985 26.9416C339.079 26.9416 339.171 26.8892 339.234 26.7872C339.345 26.6093 339.324 26.3474 339.186 26.2026C337.817 24.7688 336.394 23.3419 334.958 21.9633C334.816 21.8268 334.616 21.8668 334.511 22.0501C334.406 22.2349 334.437 22.4941 334.579 22.6305C336.01 24.0023 337.424 25.4209 338.786 26.8478C338.843 26.9112 338.913 26.9416 338.985 26.9416ZM213.568 25.0542C213.612 25.0542 213.658 25.0418 213.7 25.017C215.286 24.0795 216.921 23.1379 218.562 22.2156C218.724 22.1246 218.799 21.8806 218.728 21.6696C218.658 21.4587 218.471 21.3622 218.308 21.4532C216.665 22.3769 215.025 23.3226 213.436 24.2615C213.274 24.3566 213.204 24.6034 213.277 24.8116C213.33 24.9632 213.447 25.0542 213.568 25.0542ZM223.337 19.5548C223.377 19.5548 223.419 19.5451 223.458 19.5231C225.069 18.6587 226.729 17.7887 228.391 16.9354C228.555 16.8513 228.637 16.61 228.57 16.3963C228.506 16.1826 228.32 16.0778 228.156 16.1619C226.49 17.0167 224.827 17.888 223.213 18.7538C223.05 18.8406 222.972 19.0847 223.039 19.2956C223.093 19.4583 223.212 19.5548 223.337 19.5548ZM330.415 18.7166C330.517 18.7166 330.618 18.6532 330.68 18.5346C330.779 18.3443 330.74 18.0865 330.594 17.9583C329.775 17.2387 328.937 16.5176 328.1 15.8159C327.461 15.2796 326.781 14.7433 326.082 14.2194C325.929 14.105 325.733 14.1739 325.645 14.3725C325.557 14.571 325.609 14.8247 325.762 14.9391C326.453 15.4547 327.123 15.9841 327.753 16.5135C328.586 17.2111 329.421 17.9294 330.235 18.6449C330.291 18.6931 330.354 18.7166 330.415 18.7166ZM233.241 14.4717C233.279 14.4717 233.317 14.4634 233.354 14.4441C234.985 13.6418 236.665 12.8339 238.344 12.0412C238.509 11.9626 238.596 11.7241 238.535 11.509C238.475 11.2939 238.291 11.1823 238.126 11.2609C236.444 12.055 234.762 12.8642 233.128 13.668C232.963 13.7493 232.88 13.9892 232.942 14.2029C232.99 14.3683 233.112 14.4717 233.241 14.4717ZM321.181 11.8385C321.302 11.8385 321.418 11.7489 321.472 11.5959C321.545 11.3877 321.475 11.1409 321.315 11.0458C319.755 10.1166 318.091 9.21908 316.371 8.38087C316.205 8.29953 316.021 8.40844 315.959 8.62351C315.897 8.83858 315.981 9.07708 316.146 9.15842C317.853 9.98975 319.502 10.879 321.049 11.7999C321.09 11.8261 321.135 11.8385 321.181 11.8385ZM243.25 9.74297C243.285 9.74297 243.321 9.73608 243.356 9.71953C245.003 8.97231 246.696 8.21681 248.39 7.4751C248.557 7.40203 248.648 7.16628 248.591 6.94846C248.535 6.73063 248.354 6.61482 248.186 6.68789C246.489 7.43098 244.793 8.18648 243.146 8.93508C242.979 9.01091 242.89 9.24804 242.95 9.46448C242.995 9.63544 243.119 9.74297 243.25 9.74297ZM311.212 6.95121C311.348 6.95121 311.475 6.83679 311.518 6.65756C311.57 6.43836 311.475 6.20537 311.307 6.13781C309.636 5.46779 307.903 4.84051 306.156 4.27251C305.986 4.21736 305.812 4.35247 305.769 4.57443C305.726 4.79639 305.83 5.02249 306.002 5.07764C307.738 5.64288 309.46 6.26603 311.12 6.93053C311.149 6.9457 311.18 6.95121 311.212 6.95121ZM253.363 5.38783C253.392 5.38783 253.422 5.38232 253.451 5.37129C255.127 4.74262 256.858 4.17187 258.596 3.6728C258.768 3.62316 258.877 3.4012 258.839 3.17786C258.8 2.95452 258.63 2.81252 258.457 2.86215C256.706 3.36398 254.961 3.94025 253.272 4.57305C253.102 4.63647 253.004 4.8667 253.052 5.08729C253.097 5.26927 253.225 5.38783 253.363 5.38783ZM300.876 3.57905C301.025 3.57905 301.159 3.44256 301.189 3.24404C301.224 3.01932 301.111 2.80011 300.937 2.756C299.203 2.31069 297.431 1.91227 295.669 1.57174C295.494 1.53728 295.331 1.69444 295.307 1.92192C295.28 2.14939 295.402 2.36033 295.575 2.39341C297.326 2.73118 299.088 3.12685 300.813 3.57078C300.835 3.57629 300.856 3.57905 300.876 3.57905ZM263.763 2.39479C263.78 2.39479 263.796 2.39341 263.814 2.38928C265.539 2.03359 267.31 1.73442 269.081 1.50005C269.256 1.47661 269.384 1.27258 269.366 1.0451C269.348 0.817623 269.191 0.650807 269.016 0.674244C267.233 0.909992 265.449 1.21054 263.714 1.57036C263.538 1.60621 263.42 1.8199 263.447 2.046C263.474 2.25003 263.609 2.39479 263.763 2.39479ZM290.334 1.54555C290.496 1.54555 290.636 1.38562 290.652 1.17193C290.67 0.943079 290.542 0.740418 290.365 0.716981C288.595 0.486748 286.802 0.310281 285.036 0.190339C284.859 0.180689 284.709 0.354398 284.699 0.583253C284.69 0.812108 284.826 1.00788 285.003 1.0189C286.759 1.13747 288.543 1.31393 290.302 1.54141C290.313 1.54555 290.323 1.54555 290.334 1.54555ZM274.364 0.987196C274.369 0.987196 274.375 0.987196 274.379 0.987196C276.032 0.883798 277.721 0.831409 279.397 0.831409H279.689C279.689 0.831409 279.689 0.831409 279.691 0.831409C279.867 0.831409 280.01 0.646671 280.01 0.417816C280.01 0.188961 279.868 0.00146484 279.692 0.00146484H279.397C277.71 0.00146484 276.01 0.0538533 274.347 0.15863C274.171 0.16966 274.034 0.364048 274.042 0.592903C274.052 0.813487 274.194 0.987196 274.364 0.987196Z" fill="#FF725E"/>
<path d="M234.084 299.506C240.712 299.506 246.105 294.113 246.105 287.485C246.105 280.856 240.712 275.463 234.084 275.463C227.455 275.463 222.062 280.856 222.062 287.485C222.062 294.115 227.455 299.506 234.084 299.506ZM234.084 276.562C240.107 276.562 245.008 281.463 245.008 287.486C245.008 293.509 240.107 298.41 234.084 298.41C228.06 298.41 223.159 293.509 223.159 287.486C223.159 281.461 228.06 276.562 234.084 276.562Z" fill="#FF725E"/>
<path d="M348.729 113.019C351.975 113.019 354.613 110.623 354.613 107.679C354.613 104.735 351.973 102.34 348.729 102.34C345.485 102.34 342.845 104.736 342.845 107.679C342.844 110.623 345.484 113.019 348.729 113.019ZM348.729 103.379C351.4 103.379 353.572 105.308 353.572 107.678C353.572 110.049 351.4 111.977 348.729 111.977C346.059 111.977 343.886 110.048 343.886 107.678C343.885 105.308 346.057 103.379 348.729 103.379Z" fill="#FF725E"/>
<path d="M120.041 31.513C123.302 31.513 125.954 28.8605 125.954 25.6C125.954 22.3395 123.302 19.687 120.041 19.687C116.781 19.687 114.128 22.3395 114.128 25.6C114.128 28.8605 116.781 31.513 120.041 31.513ZM120.041 20.7858C122.696 20.7858 124.857 22.9461 124.857 25.6014C124.857 28.2567 122.696 30.417 120.041 30.417C117.386 30.417 115.225 28.2567 115.225 25.6014C115.227 22.9461 117.387 20.7858 120.041 20.7858Z" fill="#FF725E"/>
<path d="M318.41 78.248C318.632 78.248 318.846 78.1391 318.974 77.9475L332.154 58.3073H349.04C354.724 58.3073 359.348 53.6833 359.348 47.9992V30.6172C359.348 24.9331 354.724 20.3091 349.04 20.3091H318.878C313.193 20.3091 308.569 24.9331 308.569 30.6172V47.9992C308.569 53.2918 312.544 57.6731 317.732 58.2439V77.5697C317.732 77.8689 317.928 78.1322 318.213 78.2191C318.278 78.2384 318.344 78.248 318.41 78.248ZM349.04 21.6657C353.975 21.6657 357.991 25.6817 357.991 30.6172V47.9992C357.991 52.9347 353.975 56.9507 349.04 56.9507H331.791C331.565 56.9507 331.354 57.0637 331.227 57.2512L319.088 75.3418V57.618C319.088 57.2554 318.804 56.9576 318.442 56.9397C313.666 56.7108 309.926 52.7844 309.926 47.9992V30.6172C309.926 25.6817 313.942 21.6657 318.878 21.6657H349.04Z" fill="#FF725E"/>
<path d="M332.311 27.5605H350.01V43.3957H332.311V27.5605Z" fill="#FF725E"/>
<path d="M319.953 35.0054H337.652V50.8405H319.953V35.0054Z" fill="#FFE5E1"/>
<path d="M85.541 45.5269L75.0868 65.3256L63.8646 54.772L85.541 45.5269Z" fill="white"/>
<path d="M75.0864 65.9021C75.1181 65.9021 75.1498 65.8993 75.1815 65.8938C75.3594 65.8648 75.5138 65.7532 75.5979 65.5932L86.0521 45.7959C86.1666 45.5795 86.1321 45.3148 85.9666 45.1355C85.8012 44.9563 85.5406 44.8998 85.3145 44.9949L63.6367 54.2401C63.4575 54.3159 63.3293 54.4786 63.2948 54.6702C63.2604 54.8619 63.3252 55.059 63.4672 55.1914L74.6907 65.7435C74.7996 65.8469 74.9416 65.9021 75.0864 65.9021ZM84.2709 46.6975L74.9306 64.3855L64.9037 54.957L84.2709 46.6975Z" fill="#FF725E"/>
<path d="M54.3657 45.8513L85.541 45.5273L60.884 51.887L54.3657 45.8513Z" fill="white"/>
<path d="M60.8838 52.4643C60.932 52.4643 60.9803 52.4588 61.0285 52.4464L85.6856 46.0867C85.9682 46.0136 86.1516 45.7421 86.1144 45.4525C86.0771 45.163 85.8248 44.948 85.5353 44.9507L54.36 45.2747C54.1243 45.2774 53.912 45.4236 53.8279 45.6442C53.7424 45.8648 53.8003 46.1157 53.974 46.2756L60.4936 52.3113C60.5998 52.4106 60.7404 52.4643 60.8838 52.4643ZM80.7983 46.1543L61.0451 51.2484L55.8228 46.4135L80.7983 46.1543Z" fill="#FF725E"/>
<path d="M59.8583 59.9282L63.8646 54.772L85.541 45.5269L60.815 51.841L59.8583 59.9282Z" fill="white"/>
<path d="M59.858 60.5059C60.0317 60.5059 60.2026 60.4273 60.3143 60.2826L64.2283 55.245L85.7682 46.0577C86.0453 45.9391 86.186 45.6276 86.0881 45.3408C85.9916 45.0554 85.691 44.8914 85.3987 44.9672L60.6714 51.2814C60.4397 51.3407 60.2688 51.5364 60.2412 51.7736L59.2844 59.8593C59.2541 60.1171 59.3989 60.3625 59.6388 60.4618C59.7091 60.4907 59.7835 60.5059 59.858 60.5059ZM78.3897 47.9492L63.6368 54.2413C63.5472 54.2799 63.4673 54.3406 63.408 54.4178L60.6755 57.9347L61.3414 52.303L78.3897 47.9492Z" fill="#FF725E"/>
<path d="M66.8223 57.5546L59.8574 59.9286L63.8637 54.7725L66.8223 57.5546Z" fill="white"/>
<path d="M59.8576 60.5061C59.9196 60.5061 59.983 60.4965 60.0437 60.4758L67.0086 58.1031C67.2002 58.0383 67.3436 57.877 67.3863 57.6785C67.4291 57.48 67.3656 57.2746 67.2181 57.1353L64.2596 54.3532C64.141 54.2416 63.9811 54.185 63.8198 54.1988C63.6571 54.2112 63.5082 54.2912 63.409 54.4208L59.4026 59.5755C59.2468 59.7768 59.2399 60.0567 59.3888 60.2649C59.4977 60.4179 59.6742 60.5061 59.8576 60.5061ZM65.7278 57.3187L61.4968 58.7594L63.9301 55.6285L65.7278 57.3187Z" fill="#FF725E"/>
<path d="M97.6215 319.84C97.9592 319.84 98.2543 319.592 98.3025 319.247L109.791 238.053C109.796 238.018 109.798 237.982 109.798 237.946C109.798 237.902 109.782 233.438 112.973 230.297C116.337 226.99 119.699 227.661 119.84 227.692C120.211 227.772 120.577 227.536 120.659 227.165C120.74 226.794 120.507 226.429 120.137 226.346C119.968 226.307 115.927 225.461 112.006 229.316C108.553 232.715 108.422 237.314 108.42 237.91L96.9404 319.054C96.8866 319.431 97.15 319.779 97.5263 319.833C97.5567 319.839 97.5898 319.84 97.6215 319.84Z" fill="#FF725E"/>
<path d="M195.497 157.662C195.497 157.662 188.125 164.034 184.756 182.873C181.388 201.714 180.387 208.995 180.387 208.995L181.843 211.454L195.223 206.994C195.223 206.994 193.949 195.254 194.04 187.79C194.132 180.327 195.497 157.662 195.497 157.662Z" fill="#FF725E"/>
<path d="M192.633 285.992L188.817 319.21L157.919 319.082C157.919 319.082 156.445 317.148 159.064 315.899C160.934 315.008 162.53 315.15 164.335 314.242C166.139 313.334 170.761 287.53 170.761 287.53L192.633 285.992Z" fill="white"/>
<path d="M188.816 320C189.218 320 189.555 319.699 189.601 319.3L193.417 286.081C193.443 285.848 193.366 285.615 193.203 285.444C193.04 285.275 192.812 285.185 192.577 285.203L170.705 286.74C170.344 286.765 170.046 287.032 169.983 287.389C169.972 287.452 168.865 293.621 167.542 299.946C165.177 311.265 164.192 313.229 163.915 313.566C163.109 313.96 162.333 314.132 161.511 314.313C160.633 314.507 159.724 314.707 158.723 315.184C157.645 315.699 156.993 316.398 156.784 317.262C156.491 318.467 157.207 319.451 157.289 319.559C157.438 319.755 157.669 319.869 157.915 319.87L188.814 319.999C188.814 320 188.815 320 188.816 320ZM191.739 286.846L188.113 318.416L158.387 318.292C158.317 318.108 158.261 317.867 158.322 317.625C158.441 317.156 158.976 316.814 159.404 316.61C160.243 316.21 161.024 316.038 161.853 315.856C162.753 315.657 163.685 315.452 164.69 314.946C165.239 314.67 166.158 314.208 168.998 300.707C170.123 295.362 171.108 290.035 171.429 288.275L191.739 286.846Z" fill="#FF725E"/>
<path d="M156.679 319.606L190.089 319.76L189.722 307.558C184.242 308.07 179.211 314.382 173.675 312.913C170.497 312.088 167.707 308.719 164.651 308.848C164.421 311.571 164.1 313.445 163.626 313.726C161.669 314.815 159.938 314.668 157.92 315.721C155.081 317.267 156.679 319.606 156.679 319.606Z" fill="#FF725E"/>
<path d="M159.724 285.992L155.908 319.21L125.009 319.082C125.009 319.082 123.536 317.148 126.155 315.899C128.024 315.008 129.621 315.15 131.426 314.242C133.23 313.334 137.851 287.53 137.851 287.53L159.724 285.992Z" fill="white"/>
<path d="M155.909 320C156.31 320 156.648 319.699 156.694 319.3L160.51 286.081C160.536 285.848 160.459 285.615 160.296 285.444C160.133 285.275 159.904 285.185 159.67 285.203L137.798 286.74C137.437 286.765 137.139 287.032 137.075 287.389C137.064 287.452 135.957 293.621 134.635 299.946C132.269 311.265 131.285 313.229 131.009 313.566C130.203 313.96 129.427 314.132 128.605 314.313C127.727 314.507 126.818 314.707 125.817 315.184C124.739 315.699 124.086 316.398 123.878 317.262C123.585 318.467 124.301 319.451 124.384 319.559C124.533 319.755 124.763 319.869 125.01 319.87L155.908 319.999C155.906 320 155.908 320 155.909 320ZM158.83 286.846L155.205 318.416L125.478 318.292C125.408 318.108 125.353 317.867 125.413 317.625C125.532 317.156 126.067 316.814 126.496 316.61C127.334 316.21 128.116 316.038 128.944 315.856C129.844 315.657 130.776 315.452 131.781 314.946C132.33 314.67 133.25 314.208 136.09 300.707C137.215 295.362 138.199 290.035 138.52 288.275L158.83 286.846Z" fill="#FF725E"/>
<path d="M123.771 319.606L157.181 319.76L156.814 307.558C151.334 308.07 146.305 314.382 140.767 312.913C137.589 312.088 134.798 308.719 131.743 308.848C131.513 311.571 131.192 313.445 130.719 313.726C128.763 314.815 127.031 314.668 125.011 315.721C122.173 317.267 123.771 319.606 123.771 319.606Z" fill="#FF725E"/>
<path d="M195.21 207.012C195.21 207.012 192.304 190.632 192.754 181.301C193.208 171.971 196.043 157.893 196.043 157.893L205.65 152.241L219.318 148.162L238.552 151.931L247.733 214.084L200.626 216.341L195.21 207.012Z" fill="white"/>
<path d="M200.626 217.087C200.639 217.087 200.65 217.087 200.662 217.086L247.769 214.829C247.978 214.819 248.176 214.72 248.309 214.557C248.443 214.395 248.501 214.184 248.471 213.976L239.289 151.822C239.243 151.511 239.005 151.261 238.695 151.2L219.461 147.431C219.343 147.408 219.221 147.413 219.105 147.449L205.438 151.527C205.38 151.545 205.325 151.568 205.274 151.599L195.666 157.251C195.484 157.359 195.356 157.538 195.313 157.746C195.284 157.887 192.462 171.986 192.011 181.264C191.562 190.572 194.357 206.469 194.477 207.142C194.493 207.227 194.523 207.31 194.567 207.386L199.985 216.715C200.116 216.947 200.361 217.087 200.626 217.087ZM246.877 213.38L201.044 215.576L195.921 206.753C195.651 205.196 193.078 190.044 193.499 181.338C193.907 172.953 196.285 160.528 196.708 158.367L205.949 152.929L219.355 148.928L237.891 152.561L246.877 213.38Z" fill="#FF725E"/>
<path d="M210.4 145.137C208.648 145.861 205.521 146.902 205.521 146.902C205.524 147.577 207.06 154.739 207.06 154.739C207.06 154.739 209.154 158.076 214.358 155.682C219.563 153.289 219.385 149.467 219.385 149.467L215.686 140.935C215.686 140.934 212.155 144.416 210.4 145.137Z" fill="white"/>
<path d="M210.868 157.287C211.911 157.287 213.178 157.045 214.67 156.358C220.266 153.784 220.138 149.608 220.129 149.432C220.125 149.342 220.105 149.252 220.069 149.17L216.37 140.637C216.272 140.411 216.069 140.248 215.828 140.202C215.587 140.155 215.339 140.231 215.163 140.403C214.209 141.343 211.445 143.902 210.118 144.448H210.116C208.408 145.154 205.317 146.184 205.287 146.193C204.981 146.295 204.775 146.582 204.777 146.903C204.78 147.602 205.968 153.195 206.332 154.894C206.35 154.979 206.383 155.061 206.43 155.134C206.496 155.238 207.111 156.175 208.449 156.785C209.048 157.058 209.852 157.287 210.868 157.287ZM218.639 149.618C218.61 150.235 218.246 153.073 214.047 155.004C209.97 156.88 208.114 154.891 207.756 154.432C207.165 151.672 206.546 148.643 206.337 147.412C207.331 147.074 209.368 146.37 210.683 145.826C212.055 145.263 214.248 143.317 215.428 142.213L218.639 149.618Z" fill="#FF725E"/>
<path d="M131.999 301.648L159.572 305.232L176.055 242.071C176.055 242.071 194.183 240.763 206.431 235.864C218.679 230.966 223.902 214.309 223.902 214.309L155.313 220.841C155.313 220.841 156.622 217.412 149.435 227.21C142.251 237.006 131.999 301.648 131.999 301.648Z" fill="#FF725E"/>
<path d="M235.596 151.746C247.246 148.107 258.072 167.537 259.805 174.593C263.721 190.521 264.722 204.627 257.167 210C245.047 218.615 201.207 218.379 201.207 218.379L194.544 205.993C194.544 205.993 231.954 200.441 236.414 195.981C243.652 188.745 223.945 155.389 235.596 151.746Z" fill="#FF725E"/>
<path d="M179.802 213.327C180.908 211.928 195.332 206.99 195.332 206.99L200.657 217.371C200.657 217.371 187.588 217.728 185.884 217.103C184.18 216.476 193.837 214.873 193.837 214.873C193.837 214.873 182.487 217.025 181.753 216.451C181.018 215.881 190.901 212.584 190.901 212.584C190.901 212.584 178.694 214.727 179.802 213.327Z" fill="white"/>
<path d="M193.309 218.222C196.469 218.222 199.612 218.144 200.678 218.115C200.934 218.108 201.169 217.971 201.298 217.75C201.428 217.529 201.438 217.258 201.32 217.03L195.995 206.649C195.825 206.32 195.441 206.165 195.09 206.284C195.055 206.296 191.431 207.538 187.72 208.936C180.038 211.829 179.465 212.555 179.219 212.865C178.952 213.203 178.912 213.607 179.113 213.945C179.414 214.448 179.968 214.779 183.882 214.354C183.517 214.505 183.19 214.644 182.903 214.774C181.518 215.397 181.07 215.739 180.984 216.239C180.933 216.542 181.053 216.85 181.3 217.04C181.56 217.244 181.85 217.47 184.953 217.083C184.993 217.31 185.143 217.625 185.629 217.804C186.532 218.133 189.93 218.222 193.309 218.222ZM199.454 216.655C195.964 216.734 191.425 216.768 188.615 216.654C189.369 216.479 190.243 216.294 191.156 216.115C192.773 215.832 193.96 215.608 193.978 215.603C194.379 215.528 194.644 215.143 194.572 214.74C194.5 214.338 194.118 214.069 193.716 214.137C193.699 214.139 192.374 214.36 190.804 214.666C188.562 215.058 186.395 215.397 184.768 215.602C186.519 214.898 188.933 214.025 191.138 213.29C191.507 213.166 191.72 212.779 191.624 212.401C191.529 212.023 191.157 211.783 190.774 211.849C187.466 212.43 183.697 212.941 181.638 213.045C184.103 211.847 189.663 209.733 194.962 207.904L199.454 216.655Z" fill="#FF725E"/>
<path d="M166.341 303.087L192.631 306.909L209.204 245.951C209.204 245.951 228.397 244.474 240.361 238.919C254.561 232.328 248.771 214.655 248.771 214.655L188.466 221.492C188.466 221.492 189.775 218.063 182.588 227.861C175.404 237.662 166.341 303.087 166.341 303.087Z" fill="#FF725E"/>
<path d="M101.576 219.522H261.094V226.302H101.578V219.522H101.576Z" fill="white"/>
<path d="M101.576 227.048H261.093C261.504 227.048 261.838 226.714 261.838 226.303V219.523C261.838 219.112 261.504 218.779 261.093 218.779H101.577C101.167 218.779 100.833 219.112 100.833 219.523V226.303C100.831 226.714 101.165 227.048 101.576 227.048ZM260.349 225.558H102.322V220.268H260.349V225.558Z" fill="#FF725E"/>
<path d="M225.17 247.527C225.852 247.527 226.55 247.52 227.257 247.507C238.028 247.285 246.008 245.425 250.974 241.981C260.044 235.692 262.429 225.596 264.735 215.834C265.473 212.708 266.171 209.757 267.078 206.944C268.033 203.984 269.306 200.786 270.538 197.691C273.551 190.125 276.151 183.59 274.197 180.859C273.549 179.954 272.488 179.531 271.04 179.604C264.624 179.927 256.872 179.607 256.794 179.604C256.385 179.582 256.036 179.906 256.018 180.317C256 180.728 256.32 181.075 256.731 181.093C256.81 181.096 264.629 181.419 271.114 181.093C272.483 181.024 272.861 181.552 272.985 181.726C273.608 182.597 273.515 184.503 272.705 187.389C271.918 190.195 270.575 193.569 269.154 197.139C267.913 200.256 266.63 203.48 265.661 206.486C264.735 209.355 264.031 212.336 263.285 215.49C261.043 224.98 258.726 234.793 250.125 240.755C238.817 248.597 213.047 245.373 212.788 245.339C212.381 245.287 212.006 245.575 211.954 245.983C211.902 246.391 212.19 246.765 212.598 246.817C212.657 246.826 218.163 247.527 225.17 247.527Z" fill="#FF725E"/>
<path d="M266.149 319.147C266.182 319.147 266.215 319.144 266.249 319.14C266.626 319.084 266.888 318.734 266.833 318.358L255.005 237.211C255.002 236.607 254.866 232.009 251.309 228.614C247.281 224.766 243.138 225.61 242.964 225.647C242.592 225.727 242.356 226.095 242.436 226.467C242.517 226.839 242.884 227.075 243.256 226.995C243.4 226.965 246.879 226.289 250.358 229.61C253.643 232.747 253.628 237.205 253.626 237.25C253.626 237.285 253.628 237.323 253.633 237.358L265.469 318.555C265.517 318.898 265.811 319.147 266.149 319.147Z" fill="#FF725E"/>
<path d="M120.393 215.458H177.702C177.922 215.458 178.13 215.36 178.272 215.191C178.414 215.023 178.474 214.8 178.436 214.583L171.164 173.099C171.102 172.742 170.792 172.482 170.431 172.482C170.429 172.482 170.429 172.482 170.428 172.482L110.768 172.696C110.541 172.697 110.327 172.801 110.187 172.979C110.046 173.157 109.994 173.39 110.046 173.61L119.67 214.881C119.746 215.219 120.047 215.458 120.393 215.458ZM176.815 213.967H120.984L111.707 174.184L169.803 173.976L176.815 213.967Z" fill="#FF725E"/>
<path d="M120.414 219.162H181.18C181.591 219.162 181.925 218.828 181.925 218.417V214.804C181.925 214.393 181.591 214.06 181.18 214.06H120.414C120.003 214.06 119.669 214.393 119.669 214.804V218.417C119.669 218.828 120.003 219.162 120.414 219.162ZM180.434 217.672H121.158V215.548H180.434V217.672Z" fill="#FF725E"/>
<path d="M144.17 199.219C147.163 199.219 149.598 197.293 149.598 194.926C149.598 192.56 147.163 190.635 144.17 190.635C141.176 190.635 138.739 192.56 138.739 194.926C138.741 197.294 141.177 199.219 144.17 199.219ZM144.17 192.126C146.341 192.126 148.107 193.382 148.107 194.926C148.107 196.471 146.341 197.728 144.17 197.728C141.997 197.728 140.23 196.471 140.23 194.926C140.231 193.383 141.999 192.126 144.17 192.126Z" fill="#FF725E"/>
<path d="M246.54 199.635C246.639 199.635 246.738 199.613 246.833 199.566C247.159 199.403 247.29 199.009 247.128 198.684C246.166 196.759 244.363 195.216 242.179 194.45C239.901 193.652 237.521 193.776 235.475 194.799C235.149 194.961 235.018 195.356 235.181 195.681C235.344 196.006 235.738 196.137 236.063 195.975C237.789 195.111 239.806 195.011 241.745 195.691C243.609 196.344 245.143 197.65 245.954 199.271C246.067 199.501 246.298 199.635 246.54 199.635Z" fill="white"/>
<path d="M176.567 242.118C176.835 242.118 177.07 241.922 177.112 241.649C177.855 236.733 181.344 227.187 186.407 226.31C186.707 226.258 186.908 225.973 186.856 225.674C186.804 225.374 186.518 225.172 186.219 225.224C183.619 225.675 181.17 228.013 179.138 231.989C177.376 235.437 176.358 239.259 176.021 241.485C175.976 241.786 176.183 242.067 176.484 242.112C176.512 242.115 176.54 242.118 176.567 242.118Z" fill="white"/>
<path d="M217.044 140.608C217.554 134.943 212.886 129.891 206.617 129.325C200.349 128.764 194.85 132.899 194.343 138.568C193.833 144.235 198.501 149.285 204.77 149.849C211.039 150.415 216.537 146.276 217.044 140.608Z" fill="white"/>
<path d="M205.92 150.646C208.702 150.646 211.361 149.782 213.515 148.16C216.003 146.287 217.52 143.627 217.785 140.674C218.051 137.721 217.033 134.836 214.918 132.547C212.823 130.281 209.899 128.872 206.682 128.582C203.466 128.294 200.335 129.158 197.87 131.014C195.38 132.888 193.864 135.547 193.6 138.5C193.054 144.566 198.036 149.991 204.703 150.591C205.111 150.628 205.517 150.646 205.92 150.646ZM205.472 130.019C205.829 130.019 206.189 130.035 206.55 130.067C209.397 130.323 211.982 131.564 213.825 133.559C215.649 135.533 216.529 138.013 216.301 140.541C216.075 143.069 214.767 145.352 212.619 146.969C210.447 148.603 207.685 149.362 204.836 149.106C198.987 148.579 194.612 143.881 195.084 138.632C195.31 136.104 196.618 133.821 198.766 132.204C200.662 130.78 203.01 130.019 205.472 130.019Z" fill="#FF725E"/>
<path d="M218.532 137.017C218.649 135.489 217.517 134.122 216 133.965C214.484 133.807 213.156 134.919 213.039 136.446C212.919 137.974 214.051 139.341 215.57 139.498C217.087 139.656 218.412 138.544 218.532 137.017Z" fill="white"/>
<path d="M215.858 140.26C216.659 140.26 217.426 139.984 218.046 139.467C218.765 138.869 219.2 138.019 219.275 137.075V137.074C219.422 135.148 217.988 133.422 216.078 133.223C215.144 133.126 214.237 133.402 213.522 133.999C212.803 134.599 212.369 135.447 212.297 136.39C212.147 138.314 213.581 140.043 215.494 140.24C215.616 140.253 215.737 140.26 215.858 140.26ZM217.789 136.96C217.746 137.5 217.499 137.983 217.092 138.323C216.69 138.658 216.177 138.813 215.648 138.758C214.531 138.644 213.695 137.633 213.784 136.506C213.825 135.966 214.072 135.483 214.477 135.143C214.881 134.807 215.394 134.651 215.925 134.706C217.039 134.822 217.874 135.833 217.789 136.96Z" fill="#FF725E"/>
<path d="M212.843 137.65C214.179 138.031 211.644 137.091 210.912 136.997C208.455 136.675 205.779 136.476 203.285 136.354C197.389 136.063 182.459 133.199 188.842 123.25C192.29 117.876 195.494 124.497 199.25 123.281C201.709 122.483 202.385 119.238 204.599 118.619C210.771 116.891 211.307 122.512 216.013 124.048C218.336 124.806 221.541 123.466 222.462 126.75C223.386 130.056 221.063 139.406 218.298 141.344C216.816 142.384 218.897 136.009 217.329 134.85C214.453 132.722 212.125 137.444 212.843 137.65Z" fill="#FF725E"/>
<path d="M192.707 300.721C192.978 300.721 193.214 300.521 193.253 300.246C193.294 299.944 193.083 299.665 192.783 299.624L169.052 296.339C168.75 296.296 168.472 296.507 168.43 296.809C168.389 297.111 168.6 297.389 168.9 297.43L192.631 300.716C192.656 300.718 192.682 300.721 192.707 300.721Z" fill="white"/>
<path d="M159.726 297.435C159.997 297.435 160.234 297.233 160.272 296.956C160.311 296.654 160.101 296.377 159.799 296.336L133.462 292.794C133.162 292.753 132.883 292.965 132.842 293.267C132.802 293.569 133.013 293.846 133.315 293.887L159.651 297.429C159.676 297.433 159.701 297.435 159.726 297.435Z" fill="white"/>
<path d="M143.059 83.8188H218.855V100.328H143.059V83.8188Z" fill="#FFE5E1"/>
<path d="M143.059 59.0723H218.855V75.5815H143.059V59.0723Z" fill="#FFE5E1"/>
<path d="M143.059 35.1309H218.855V51.6401H143.059V35.1309Z" fill="#FFE5E1"/>
<path d="M225.754 83.8188H242.264V100.328H225.754V83.8188Z" fill="#FFE5E1"/>
<path d="M238.658 98.8696C238.822 98.8696 238.987 98.8323 239.139 98.7551C239.492 98.5787 239.718 98.2216 239.729 97.8273L240.085 85.4554C240.101 84.8639 239.636 84.3704 239.044 84.3524C238.449 84.3331 237.959 84.8019 237.941 85.3933L237.643 95.7759L219.704 83.2109C219.219 82.8718 218.55 82.989 218.211 83.4742C217.872 83.9595 217.989 84.6282 218.474 84.9673L238.043 98.6738C238.226 98.8034 238.443 98.8696 238.658 98.8696Z" fill="#FF725E"/>
<path d="M225.754 59.0723H242.264V75.5815H225.754V59.0723Z" fill="#FFE5E1"/>
<path d="M238.658 74.123C238.822 74.123 238.987 74.0858 239.139 74.0086C239.492 73.8321 239.718 73.475 239.729 73.0807L240.085 60.7088C240.101 60.1173 239.636 59.6238 239.044 59.6059C238.449 59.5866 237.959 60.0553 237.941 60.6467L237.643 71.0293L219.704 58.4643C219.219 58.1252 218.55 58.2424 218.211 58.7277C217.872 59.2129 217.989 59.8816 218.474 60.2207L238.043 73.9272C238.226 74.0568 238.443 74.123 238.658 74.123Z" fill="#FF725E"/>
<path d="M225.754 35.1309H242.264V51.6401H225.754V35.1309Z" fill="#FFE5E1"/>
<path d="M238.658 50.1801C238.822 50.1801 238.987 50.1429 239.139 50.0657C239.492 49.8892 239.718 49.5322 239.729 49.1379L240.085 36.7659C240.101 36.1745 239.636 35.6809 239.044 35.663C238.449 35.6437 237.959 36.1124 237.941 36.7039L237.643 47.0864L219.704 34.5215C219.219 34.1823 218.55 34.2995 218.211 34.7848C217.872 35.2701 217.989 35.9387 218.474 36.2779L238.043 49.9843C238.226 50.1153 238.443 50.1801 238.658 50.1801Z" fill="#FF725E"/>
</g>
<defs>
<clipPath id="clip0_1716_9169">
<rect width="375.799" height="320" fill="white" transform="matrix(-1 0 0 1 376 0)"/>
</clipPath>
</defs>
</svg>
