<svg width="57" height="60" viewBox="0 0 57 60" fill="none" xmlns="http://www.w3.org/2000/svg">
<g id="Frame" clip-path="url(#clip0_1716_9774)">
<g id="Group">
<path id="Vector" d="M21.6905 6.45968L24.3966 8.63468L23.4857 11.9843C23.3466 12.4923 23.5329 13.021 23.9599 13.3319C24.1812 13.4927 24.4401 13.5738 24.699 13.5738C24.9373 13.5738 25.1768 13.5048 25.3885 13.3669L28.2929 11.4653L31.1974 13.3669C31.6377 13.656 32.199 13.6415 32.6248 13.3319C33.0506 13.0222 33.2369 12.4935 33.099 11.9843L32.1881 8.63468L34.8941 6.45968C35.3054 6.12944 35.4651 5.59234 35.3018 5.09153C35.1385 4.59073 34.6933 4.2496 34.1671 4.22419L30.7002 4.05484L29.4675 0.810484C29.28 0.318145 28.8179 0 28.2917 0C27.7655 0 27.3034 0.318145 27.1171 0.809274L25.8845 4.05484L22.4175 4.22419C21.8913 4.2496 21.4462 4.59073 21.2829 5.09153C21.1196 5.59234 21.2792 6.12944 21.6905 6.45968Z" fill="#FF725E"/>
<path id="Vector_2" d="M26.4215 5.96619C26.9211 5.94199 27.359 5.62385 27.5356 5.15691L28.2917 3.16699L29.0477 5.15691C29.2244 5.62506 29.6623 5.94199 30.1619 5.9674L32.2885 6.07143L30.6288 7.4057C30.2393 7.71901 30.0723 8.23312 30.203 8.71578L30.7619 10.7698L28.98 9.60368C28.7707 9.46699 28.5312 9.39804 28.2917 9.39804C28.0522 9.39804 27.8127 9.46699 27.6034 9.60368L25.8215 10.7698L26.3804 8.71457C26.5111 8.23191 26.3441 7.7178 25.9546 7.40449L24.2949 6.07022L26.4215 5.96619Z" fill="#FFE5E1"/>
<path id="Vector_3" d="M2.46353 25.1819L5.69942 23.9262L8.14539 26.3903C8.38853 26.6347 8.70789 26.7629 9.0345 26.7629C9.20748 26.7629 9.38288 26.7266 9.54982 26.6528C10.0313 26.4387 10.3228 25.9597 10.2938 25.4335L10.099 21.9678L13.1982 20.4036C13.6688 20.1666 13.9361 19.6742 13.8817 19.1504C13.826 18.6266 13.4619 18.2008 12.9526 18.0666L9.59579 17.1799L9.06474 13.7492C8.98369 13.2278 8.59902 12.8214 8.08369 12.7113C7.56837 12.6012 7.05063 12.8178 6.76514 13.2605L4.8853 16.1782L1.45829 15.623C0.940547 15.5383 0.432482 15.7791 0.168773 16.2363C-0.0949369 16.6924 -0.0501788 17.2512 0.282482 17.6589L2.47684 20.348L0.89095 23.4351C0.650224 23.9032 0.721595 24.4597 1.07482 24.8516C1.42684 25.2424 1.9724 25.373 2.46353 25.1819Z" fill="#FF725E"/>
<path id="Vector_4" d="M5.01453 18.1596C5.50808 18.2395 6.00162 18.0193 6.27259 17.5995L7.42541 15.8104L7.75082 17.9153C7.82824 18.4088 8.18993 18.8104 8.67259 18.9387L10.7315 19.4818L8.82985 20.4399C8.38348 20.6649 8.11372 21.133 8.14154 21.6326L8.2613 23.758L6.7613 22.2471C6.52058 22.0052 6.19759 21.8757 5.86856 21.8757C5.71614 21.8757 5.5613 21.9036 5.41372 21.9616L3.42864 22.7322L4.40243 20.8391C4.63106 20.3939 4.57542 19.8568 4.25848 19.4685L2.91211 17.8185L5.01453 18.1596Z" fill="#FFE5E1"/>
<path id="Vector_5" d="M56.4121 16.235C56.1483 15.779 55.6427 15.5383 55.1238 15.6217L51.6967 16.177L49.8169 13.2592C49.5314 12.8165 49.0137 12.6012 48.4984 12.71C47.983 12.8189 47.5971 13.2266 47.5173 13.7479L46.9863 17.1786L43.6306 18.0653C43.1213 18.1995 42.756 18.6253 42.7016 19.1491C42.6459 19.6729 42.9145 20.1653 43.385 20.4024L46.483 21.9665L46.2883 25.4322C46.2592 25.9584 46.5508 26.4362 47.0322 26.6516C47.1992 26.7254 47.3746 26.7616 47.5475 26.7616C47.8742 26.7616 48.1935 26.6334 48.4367 26.3878L50.8826 23.9237L54.1185 25.1794C54.6096 25.3705 55.1552 25.2399 55.5072 24.8491C55.8604 24.4572 55.9318 23.902 55.6911 23.4326L54.104 20.3455L56.2983 17.6552C56.631 17.2512 56.6758 16.6923 56.4121 16.235Z" fill="#FF725E"/>
<path id="Vector_6" d="M52.1804 20.8378L53.1542 22.731L51.1691 21.9604C50.7033 21.7802 50.1747 21.8927 49.8227 22.2471L48.3227 23.758L48.4413 21.6314C48.4691 21.133 48.1981 20.6649 47.7529 20.4399L45.8525 19.4806L47.9102 18.9374C48.3941 18.8104 48.7558 18.4076 48.832 17.9141L49.1574 15.8104L50.3102 17.5995C50.5812 18.0205 51.0747 18.2395 51.5683 18.1596L53.6695 17.8185L52.3231 19.4685C52.0086 19.8556 51.9517 20.3927 52.1804 20.8378Z" fill="#FFE5E1"/>
<path id="Vector_7" d="M14.0093 45.9702C14.1931 46.1746 14.4544 46.2907 14.729 46.2907H41.8536C42.1282 46.2907 42.3895 46.1746 42.5734 45.9702C42.7572 45.7657 42.8455 45.4936 42.8153 45.2202C42.4343 41.6577 40.754 38.3661 38.0855 35.9528C36.4899 34.5097 34.6161 33.4512 32.5972 32.8294C34.7383 31.4226 36.156 29.0008 36.156 26.2536C36.156 21.9169 32.6274 18.3895 28.2919 18.3895C23.9564 18.3895 20.4278 21.9182 20.4278 26.2536C20.4278 29.0008 21.8455 31.4226 23.9867 32.8294C21.9677 33.4512 20.0939 34.5097 18.4984 35.9528C15.8298 38.3661 14.1496 41.6577 13.7685 45.2202C13.7383 45.4936 13.8266 45.7657 14.0093 45.9702Z" fill="#E5361D"/>
<path id="Vector_8" d="M22.3613 26.2536C22.3613 22.9838 25.0214 20.325 28.29 20.325C31.5585 20.325 34.2186 22.985 34.2186 26.2536C34.2186 29.5221 31.5597 32.1822 28.2912 32.1822H28.29H28.2887C25.0214 32.181 22.3613 29.5221 22.3613 26.2536Z" fill="#FFE5E1"/>
<path id="Vector_9" d="M28.2907 34.1178H28.2931C34.4213 34.119 39.5903 38.4484 40.731 44.3553H15.8516C16.9935 38.4484 22.1624 34.1178 28.2907 34.1178Z" fill="#FFE5E1"/>
<path id="Vector_10" d="M52.856 35.0419C52.9867 34.0052 53.0544 32.954 53.0544 31.9065C53.0544 31.3718 52.6214 30.9387 52.0867 30.9387C51.552 30.9387 51.1189 31.3718 51.1189 31.9065C51.1189 32.8488 51.0609 33.7923 50.946 34.7238C48.6996 34.8617 46.9141 36.7331 46.9141 39.0133C46.9141 40.3863 47.5625 41.6105 48.5677 42.398C45.3004 48.7113 39.3464 53.1121 32.375 54.3677C31.8125 52.6488 30.1939 51.404 28.2899 51.404C26.3859 51.404 24.7673 52.65 24.2048 54.3677C17.2782 53.1194 11.3484 48.7609 8.07015 42.5081C9.16007 41.7278 9.87257 40.4516 9.87257 39.0121C9.87257 36.6617 7.977 34.748 5.63386 34.7153C5.52015 33.7863 5.46208 32.8452 5.46208 31.9052C5.46208 31.3706 5.02902 30.9375 4.49434 30.9375C3.95966 30.9375 3.5266 31.3706 3.5266 31.9052C3.5266 32.9831 3.59797 34.0633 3.73587 35.1278C2.28305 35.8186 1.27539 37.2992 1.27539 39.0121C1.27539 41.3819 3.20362 43.3101 5.57337 43.3101C5.81168 43.3101 6.04636 43.2895 6.27378 43.252C8.00483 46.6028 10.5052 49.5472 13.5439 51.802C16.6383 54.0992 20.2504 55.6464 24.0343 56.3032C24.3282 58.3887 26.1246 59.9988 28.2899 59.9988C30.4552 59.9988 32.2504 58.3887 32.5443 56.3032C36.3427 55.644 39.9657 54.0871 43.0673 51.7766C46.1024 49.5157 48.5968 46.569 50.3218 43.2157C50.6085 43.2762 50.906 43.3089 51.2109 43.3089C53.5806 43.3089 55.5089 41.3806 55.5089 39.0109C55.5113 37.2242 54.4129 35.6879 52.856 35.0419Z" fill="#FF725E"/>
<path id="Vector_11" d="M3.21289 39.0122C3.21289 37.7093 4.27257 36.6497 5.57539 36.6497C6.87821 36.6497 7.93789 37.7093 7.93789 39.0122C7.93789 40.315 6.87821 41.3747 5.57539 41.3747C4.27257 41.3759 3.21289 40.315 3.21289 39.0122Z" fill="#FFE5E1"/>
<path id="Vector_12" d="M28.2912 58.0645C26.9884 58.0645 25.9287 57.0048 25.9287 55.702C25.9287 54.3992 26.9884 53.3395 28.2912 53.3395C29.594 53.3395 30.6537 54.3992 30.6537 55.702C30.6537 57.0048 29.594 58.0645 28.2912 58.0645Z" fill="#FFE5E1"/>
<path id="Vector_13" d="M51.2141 41.3758C49.9112 41.3758 48.8516 40.3161 48.8516 39.0133C48.8516 37.7104 49.9112 36.6508 51.2141 36.6508C52.5169 36.6508 53.5766 37.7104 53.5766 39.0133C53.5766 40.3149 52.5169 41.3758 51.2141 41.3758Z" fill="#FFE5E1"/>
</g>
</g>
<defs>
<clipPath id="clip0_1716_9774">
<rect width="56.5839" height="60" fill="white"/>
</clipPath>
</defs>
</svg>
