<svg width="40" height="40" viewBox="0 0 40 40" fill="none" xmlns="http://www.w3.org/2000/svg">
<g id="014-overlap">
<g id="Layer_x0020_1">
<path id="Vector" fill-rule="evenodd" clip-rule="evenodd" d="M26 33.993C23.8343 33.993 21.7578 33.511 19.8273 32.561C19.3664 32.3336 19.7109 31.6329 20.1726 31.8602C21.9945 32.7571 23.9554 33.2118 26 33.2118C33.2851 33.2118 39.2125 27.2852 39.2125 20C39.2125 12.7149 33.2851 6.78755 26 6.78755C23.9554 6.78755 21.9945 7.24302 20.1726 8.13989C19.7117 8.36724 19.3664 7.66646 19.8273 7.43989C21.7578 6.48911 23.8343 6.00708 26 6.00708C33.7156 6.00708 39.9929 12.2844 39.9929 20C39.9929 27.7157 33.7156 33.993 26 33.993Z" fill="#4F5B5E"/>
<path id="Vector_2" fill-rule="evenodd" clip-rule="evenodd" d="M13.9998 33.993C6.28418 33.993 0.00683594 27.7157 0.00683594 20C0.00683594 12.2844 6.28418 6.00708 13.9998 6.00708C16.1662 6.00708 18.2436 6.48911 20.1732 7.43911C20.635 7.66646 20.2896 8.36724 19.8287 8.13989C18.0068 7.24302 16.0459 6.78755 13.9998 6.78755C6.71465 6.78833 0.787305 12.7149 0.787305 20C0.787305 27.2852 6.71465 33.2118 13.9998 33.2118C16.0451 33.2118 18.0061 32.7571 19.8279 31.8602C20.2889 31.6336 20.6342 32.3344 20.1732 32.561C18.2428 33.511 16.1662 33.993 13.9998 33.993Z" fill="#4F5B5E"/>
<path id="Vector_3" fill-rule="evenodd" clip-rule="evenodd" d="M19.9998 32.6009C19.9404 32.6009 19.8818 32.5876 19.8271 32.5602C12.3466 28.8743 9.72868 19.5149 14.1802 12.5071C15.5638 10.3298 17.517 8.57742 19.8271 7.43914C19.9365 7.38601 20.0638 7.38601 20.1724 7.43914C27.6513 11.1235 30.2716 20.4844 25.8193 27.4923C24.4357 29.6704 22.4834 31.4227 20.1724 32.5602C20.1177 32.5876 20.0591 32.6009 19.9998 32.6009ZM19.9998 8.22664C15.5459 10.4985 12.7881 14.9915 12.7881 20.0001C12.7881 25.0087 15.5459 29.5016 19.9998 31.7735C24.4537 29.5016 27.2115 25.0087 27.2115 20.0001C27.2115 14.9915 24.4537 10.4985 19.9998 8.22664Z" fill="#4F5B5E"/>
<path id="Vector_4" fill-rule="evenodd" clip-rule="evenodd" d="M23.8967 11.0602H16.1029C15.5881 11.0602 15.5881 10.2789 16.1029 10.2789H23.8967C24.4107 10.2789 24.4107 11.0602 23.8967 11.0602Z" fill="#FF725E"/>
<path id="Vector_5" fill-rule="evenodd" clip-rule="evenodd" d="M25.8598 13.7258H14.1395C13.6254 13.7258 13.6254 12.9446 14.1395 12.9446H25.8598C26.3738 12.9446 26.3738 13.7258 25.8598 13.7258Z" fill="#FF725E"/>
<path id="Vector_6" fill-rule="evenodd" clip-rule="evenodd" d="M27.0054 16.3914H12.9944C12.4804 16.3914 12.4804 15.611 12.9944 15.611H27.0054C27.5194 15.611 27.5194 16.3914 27.0054 16.3914Z" fill="#FF725E"/>
<path id="Vector_7" fill-rule="evenodd" clip-rule="evenodd" d="M27.5383 19.0579H12.4617C11.9477 19.0579 11.9477 18.2766 12.4617 18.2766H27.5383C28.0523 18.2766 28.0523 19.0579 27.5383 19.0579Z" fill="#FF725E"/>
<path id="Vector_8" fill-rule="evenodd" clip-rule="evenodd" d="M27.5383 21.7235H12.4617C11.9477 21.7235 11.9477 20.9423 12.4617 20.9423H27.5383C28.0523 20.9423 28.0523 21.7235 27.5383 21.7235Z" fill="#FF725E"/>
<path id="Vector_9" fill-rule="evenodd" clip-rule="evenodd" d="M27.0054 24.3891H12.9944C12.4804 24.3891 12.4804 23.6086 12.9944 23.6086H27.0054C27.5194 23.6086 27.5194 24.3891 27.0054 24.3891Z" fill="#FF725E"/>
<path id="Vector_10" fill-rule="evenodd" clip-rule="evenodd" d="M25.8598 27.0555H14.1395C13.6254 27.0555 13.6254 26.2743 14.1395 26.2743H25.8598C26.3738 26.2743 26.3738 27.0555 25.8598 27.0555Z" fill="#FF725E"/>
<path id="Vector_11" fill-rule="evenodd" clip-rule="evenodd" d="M23.8966 29.7212H16.1028C15.5888 29.7212 15.5888 28.9399 16.1028 28.9399H23.8966C24.4106 28.9399 24.4106 29.7212 23.8966 29.7212Z" fill="#FF725E"/>
</g>
</g>
</svg>
