<svg width="27" height="30" viewBox="0 0 27 30" fill="none" xmlns="http://www.w3.org/2000/svg">
<g clip-path="url(#clip0_1794_5516)">
<path d="M2.85562 26.5385L0.490234 0H26.5095L24.1441 26.5385L13.471 29.5385" fill="#0C73B8"/>
<path d="M13.5288 27.2308L22.125 24.8654L24.1442 2.13464H13.5288" fill="#30A9DC"/>
<path d="M13.5287 12H5.91335L6.20181 15.2885H13.5287V12ZM13.5287 5.4231H5.33643L5.62489 8.65386H13.5287V5.4231ZM13.5287 20.4808L6.37489 18.5769L6.77873 22.0385L13.5287 23.8846V20.4808Z" fill="#ECEDEE"/>
<path d="M13.5288 15.2885H17.5096L17.1057 19.5L13.5288 20.4808V23.8846L20.1634 22.0385L21.6634 5.4231H13.5288V8.65386H18.1442L17.798 12H13.5288V15.2885Z" fill="white"/>
</g>
<defs>
<clipPath id="clip0_1794_5516">
<rect width="26.0769" height="30" fill="white" transform="translate(0.490234)"/>
</clipPath>
</defs>
</svg>
