<svg width="31" height="30" viewBox="0 0 31 30" fill="none" xmlns="http://www.w3.org/2000/svg">
<path d="M13.3212 3.75H17.0384V20.7834C15.4516 21.1091 13.8366 21.2771 12.2168 21.285C7.67744 21.2803 5.31494 19.2525 5.31494 15.3581C5.31494 11.6081 7.82088 9.17062 11.7049 9.17062C12.2497 9.16 12.7934 9.22307 13.3212 9.35813V3.75ZM13.3212 12.3206C12.9171 12.1873 12.4932 12.1239 12.0678 12.1331C10.1928 12.1331 9.10244 13.2797 9.10244 15.2887C9.10244 17.2453 10.1403 18.3253 12.0443 18.3253C12.4717 18.3252 12.8984 18.2939 13.3212 18.2316V12.3253V12.3206Z" fill="#44B78B"/>
<path d="M22.9447 9.43036V17.9616C22.9447 20.8988 22.7244 22.3107 22.0794 23.5285C21.4211 24.7667 20.3447 25.7312 19.0419 26.25L15.5938 24.6254C16.8464 24.1964 17.8956 23.3183 18.5384 22.1607C19.0691 21.1097 19.2369 19.8919 19.2369 16.6885V9.43036H22.9447ZM19.2331 3.7688H22.9494V7.54505H19.2331V3.7688Z" fill="#44B78B"/>
</svg>
