<svg width="21" height="30" viewBox="0 0 21 30" fill="none" xmlns="http://www.w3.org/2000/svg">
<mask id="mask0_1794_5563" style="mask-type:luminance" maskUnits="userSpaceOnUse" x="0" y="0" width="20" height="30">
<path d="M20 0H0V30H20V0Z" fill="white"/>
</mask>
<g mask="url(#mask0_1794_5563)">
<path d="M4.99999 30.0001C7.75999 30.0001 10 27.7601 10 25.0001V20.0001H4.99999C2.24 20.0001 0 22.2401 0 25.0001C0 27.7601 2.24 30.0001 4.99999 30.0001Z" fill="#0ACF83"/>
<path d="M0 14.9999C0 12.2399 2.24 9.99988 4.99999 9.99988H10V19.9999H4.99999C2.24 19.9999 0 17.7599 0 14.9999Z" fill="#A259FF"/>
<path d="M0 4.99999C0 2.24 2.24 0 4.99999 0H10V10H4.99999C2.24 10 0 7.75999 0 4.99999Z" fill="#F24E1E"/>
<path d="M10 0H15C17.76 0 20 2.24 20 4.99999C20 7.75999 17.76 10 15 10H10V0Z" fill="#FF7262"/>
<path d="M20 14.9999C20 17.7599 17.76 19.9999 15 19.9999C12.24 19.9999 10 17.7599 10 14.9999C10 12.2399 12.24 9.99988 15 9.99988C17.76 9.99988 20 12.2399 20 14.9999Z" fill="#1ABCFE"/>
</g>
</svg>
