<svg width="31" height="30" viewBox="0 0 31 30" fill="none" xmlns="http://www.w3.org/2000/svg">
<g clip-path="url(#clip0_1794_5552)">
<path d="M0.0698242 0H30.0698V30H0.0698242V0Z" fill="#F0DB4F"/>
<path d="M27.6143 22.845C27.3947 21.4762 26.5021 20.327 23.8586 19.2547C22.9403 18.8327 21.9166 18.5304 21.6114 17.8346C21.5031 17.4296 21.4888 17.2015 21.5573 16.9562C21.754 16.1606 22.7036 15.9125 23.4565 16.1406C23.9413 16.3032 24.4004 16.6768 24.677 17.2728C25.9717 16.4344 25.9688 16.4401 26.8728 15.8641C26.542 15.3507 26.3652 15.114 26.1485 14.8945C25.37 14.0247 24.3092 13.577 22.6124 13.6112C22.3187 13.6483 22.0221 13.6882 21.7284 13.7253C20.8814 13.9391 20.0744 14.384 19.601 14.98C18.1808 16.5912 18.5858 19.4116 20.3139 20.5722C22.0164 21.8498 24.5173 22.1407 24.8367 23.3355C25.1476 24.7985 23.7617 25.2718 22.3842 25.1036C21.369 24.8926 20.8044 24.3764 20.1941 23.4382C19.0706 24.0884 19.0706 24.0884 17.9156 24.7528C18.1894 25.3517 18.4774 25.6226 18.9366 26.1416C21.1096 28.346 26.5477 28.2376 27.5231 24.9011C27.563 24.787 27.8253 24.0228 27.6143 22.845ZM16.3785 13.788H13.5725C13.5725 16.2119 13.5611 18.6188 13.5611 21.0427C13.5611 22.5855 13.6409 24 13.39 24.4334C12.9793 25.286 11.9156 25.1806 11.4309 25.0151C10.9375 24.7727 10.6866 24.4277 10.3957 23.9401C10.3158 23.8003 10.2559 23.692 10.236 23.6834C9.47458 24.1482 8.716 24.6159 7.95459 25.0808C8.3339 25.8593 8.8928 26.5351 9.60858 26.9743C10.678 27.6159 12.1152 27.8127 13.6181 27.4676C14.5963 27.1824 15.4403 26.5922 15.8823 25.6939C16.5211 24.5161 16.3842 23.0903 16.3785 21.5133C16.3928 18.941 16.3785 16.3688 16.3785 13.788Z" fill="#323330"/>
</g>
<defs>
<clipPath id="clip0_1794_5552">
<rect width="30" height="30" fill="white" transform="translate(0.0698242)"/>
</clipPath>
</defs>
</svg>
