<svg width="52" height="52" viewBox="0 0 52 52" fill="none" xmlns="http://www.w3.org/2000/svg">
<g clip-path="url(#clip0_1280_5599)">
<path d="M26.0002 21.6669C27.5429 21.6669 29.0509 21.2094 30.3336 20.3524C31.6163 19.4953 32.6161 18.2771 33.2065 16.8518C33.7968 15.4266 33.9513 13.8582 33.6503 12.3452C33.3494 10.8321 32.6065 9.44231 31.5156 8.35146C30.4248 7.26062 29.035 6.51774 27.5219 6.21677C26.0088 5.91581 24.4405 6.07027 23.0153 6.66064C21.59 7.251 20.3718 8.25075 19.5147 9.53345C18.6577 10.8162 18.2002 12.3242 18.2002 13.8669C18.2025 15.9349 19.025 17.9175 20.4873 19.3798C21.9496 20.8421 23.9322 21.6646 26.0002 21.6669ZM26.0002 7.80023C27.2001 7.80023 28.373 8.15603 29.3707 8.82265C30.3683 9.48926 31.1459 10.4367 31.6051 11.5453C32.0642 12.6538 32.1844 13.8736 31.9503 15.0504C31.7162 16.2273 31.1384 17.3082 30.29 18.1567C29.4415 19.0051 28.3606 19.5829 27.1837 19.817C26.0069 20.0511 24.7871 19.9309 23.6786 19.4718C22.57 19.0126 21.6226 18.235 20.9559 17.2374C20.2893 16.2397 19.9335 15.0668 19.9335 13.8669C19.9354 12.2585 20.5751 10.7165 21.7124 9.57914C22.8498 8.44182 24.3918 7.80207 26.0002 7.80023Z" fill="#FF725E"/>
<path d="M25.9998 18.1999C26.8569 18.1999 27.6947 17.9457 28.4073 17.4696C29.1199 16.9934 29.6753 16.3166 30.0033 15.5248C30.3313 14.733 30.4171 13.8617 30.2499 13.0211C30.0827 12.1806 29.67 11.4084 29.064 10.8024C28.4579 10.1964 27.6858 9.78367 26.8452 9.61647C26.0046 9.44927 25.1334 9.53508 24.3415 9.86306C23.5497 10.191 22.873 10.7465 22.3968 11.4591C21.9206 12.1717 21.6665 13.0095 21.6665 13.8665C21.6679 15.0154 22.1249 16.1168 22.9372 16.9291C23.7496 17.7415 24.851 18.1985 25.9998 18.1999ZM25.9998 11.2665C26.5141 11.2665 27.0168 11.419 27.4443 11.7047C27.8719 11.9904 28.2051 12.3965 28.4019 12.8716C28.5987 13.3466 28.6502 13.8694 28.5499 14.3738C28.4496 14.8781 28.2019 15.3414 27.8383 15.705C27.4747 16.0686 27.0114 16.3163 26.5071 16.4166C26.0027 16.5169 25.4799 16.4654 25.0049 16.2686C24.5298 16.0718 24.1237 15.7386 23.838 15.311C23.5523 14.8835 23.3998 14.3808 23.3998 13.8665C23.3998 13.177 23.6738 12.5157 24.1614 12.0281C24.649 11.5405 25.3103 11.2665 25.9998 11.2665Z" fill="#FF725E"/>
<path d="M51.9998 32.9333C51.9988 32.573 51.8851 32.222 51.6746 31.9296C51.4642 31.6371 51.1676 31.4177 50.8263 31.3022L42.0583 28.1666L50.8272 25.0301C51.1688 24.9156 51.4658 24.6965 51.6762 24.404C51.8866 24.1115 51.9998 23.7603 51.9998 23.3999C51.9998 23.0396 51.8866 22.6884 51.6762 22.3959C51.4658 22.1034 51.1688 21.8843 50.8272 21.7697L37.2205 16.8991C37.2439 16.8124 37.2734 16.7257 37.2942 16.6391L38.8949 16.1494C39.1448 16.0746 39.3666 15.9266 39.5316 15.7245C39.6965 15.5225 39.7972 15.2756 39.8205 15.0158C39.8552 14.6371 39.8717 14.2531 39.8717 13.8666C39.8717 13.4801 39.8552 13.0961 39.8205 12.7174C39.7971 12.4574 39.6963 12.2104 39.5312 12.0082C39.366 11.806 39.1441 11.6579 38.8941 11.5829L37.289 11.0933C37.0095 9.94792 36.555 8.85256 35.9413 7.84588L36.7274 6.37255C36.852 6.14266 36.9048 5.88065 36.8788 5.62044C36.8529 5.36024 36.7494 5.11382 36.5818 4.91308C36.338 4.6213 36.078 4.33877 35.8018 4.06548C35.5256 3.79219 35.2428 3.53219 34.9533 3.28548C34.7527 3.11865 34.5068 3.01564 34.2472 2.9897C33.9876 2.96375 33.7261 3.01605 33.4965 3.13988L32.0162 3.92681C31.0108 3.31314 29.917 2.85773 28.7731 2.57654L28.2843 0.975811C28.2085 0.72619 28.0599 0.504829 27.8577 0.339973C27.6555 0.175116 27.4088 0.074239 27.149 0.0502111C26.3844 -0.0186902 25.6152 -0.0186902 24.8506 0.0502111C24.5907 0.0740149 24.3439 0.174929 24.1417 0.340004C23.9396 0.505079 23.7914 0.726786 23.7161 0.976678L23.2265 2.57654C22.0815 2.85685 20.9865 3.31169 19.9799 3.92508L18.5014 3.13901C18.2712 3.01489 18.0091 2.96252 17.7488 2.98862C17.4885 3.01472 17.2421 3.11811 17.0411 3.28548C16.7499 3.52814 16.4673 3.78814 16.1943 4.06548C15.9213 4.34281 15.6605 4.62101 15.4143 4.91221C15.2466 5.11269 15.143 5.35886 15.1167 5.61889C15.0904 5.87892 15.1428 6.14085 15.267 6.37081L16.0539 7.85021C15.4428 8.85611 14.9898 9.94988 14.7106 11.0933L13.1099 11.5829C12.86 11.6578 12.6382 11.8058 12.4732 12.0078C12.3082 12.2099 12.2076 12.4567 12.1843 12.7165C12.1496 13.0953 12.1331 13.4792 12.1331 13.8657C12.1331 14.2523 12.1496 14.6362 12.1843 15.0132C12.2075 15.2735 12.3082 15.5208 12.4733 15.7233C12.6385 15.9259 12.8605 16.0743 13.1107 16.1494L14.7106 16.6382C14.7314 16.7249 14.7609 16.8115 14.7843 16.8982L1.17239 21.7697C0.830769 21.8843 0.533777 22.1034 0.323363 22.3959C0.11295 22.6884 -0.000251358 23.0396 -0.000251358 23.3999C-0.000251358 23.7603 0.11295 24.1115 0.323363 24.404C0.533777 24.6965 0.830769 24.9156 1.17239 25.0301L9.94133 28.1666L1.17239 31.3022C0.830565 31.4168 0.533388 31.636 0.322842 31.9286C0.112297 32.2213 -0.000976563 32.5727 -0.000976562 32.9333C-0.000976562 33.2938 0.112297 33.6452 0.322842 33.9379C0.533388 34.2306 0.830565 34.4497 1.17239 34.5644L8.72886 37.2666L1.17239 39.9697C0.830565 40.0844 0.533388 40.3035 0.322842 40.5962C0.112297 40.8889 -0.000976562 41.2403 -0.000976562 41.6008C-0.000976563 41.9614 0.112297 42.3128 0.322842 42.6055C0.533388 42.8981 0.830565 43.1173 1.17239 43.2319L25.3767 51.8908C25.7784 52.0363 26.2186 52.0363 26.6203 51.8908L50.8263 43.2319C51.1682 43.1173 51.4653 42.8981 51.6759 42.6055C51.8864 42.3128 51.9997 41.9614 51.9997 41.6008C51.9997 41.2403 51.8864 40.8889 51.6759 40.5962C51.4653 40.3035 51.1682 40.0844 50.8263 39.9697L43.2716 37.2666L50.8272 34.5644C51.1683 34.4487 51.4647 34.2293 51.675 33.9368C51.8852 33.6443 51.9988 33.2935 51.9998 32.9333ZM13.8881 14.5747C13.8734 14.3407 13.8665 14.1041 13.8665 13.8666C13.8665 13.6291 13.8734 13.3934 13.8881 13.1585L15.6995 12.6047C15.8496 12.5591 15.9845 12.4736 16.0898 12.3573C16.1951 12.241 16.2669 12.0982 16.2975 11.9443C16.5493 10.6658 17.0537 9.45043 17.7812 8.36935C17.8686 8.23897 17.919 8.08731 17.9269 7.93055C17.9348 7.77379 17.9001 7.61781 17.8263 7.47928L16.9345 5.80661C17.0905 5.63328 17.2517 5.45995 17.4207 5.29095C17.5897 5.12195 17.7604 4.95988 17.9407 4.80475L19.6177 5.69655C19.7563 5.77021 19.9123 5.80485 20.0691 5.79676C20.2258 5.78867 20.3774 5.73815 20.5077 5.65061C21.5866 4.92178 22.7999 4.41504 24.0767 4.15995C24.2304 4.12953 24.3729 4.05802 24.4892 3.95303C24.6055 3.84803 24.6912 3.71348 24.7371 3.56368L25.2917 1.75148C25.7633 1.72201 26.2363 1.72201 26.7079 1.75148L27.2625 3.56368C27.3084 3.71348 27.3941 3.84803 27.5104 3.95303C27.6267 4.05802 27.7692 4.12953 27.9229 4.15995C29.2009 4.41178 30.4157 4.91621 31.4962 5.64368C31.6265 5.73122 31.7781 5.78173 31.9349 5.78982C32.0916 5.79791 32.2477 5.76328 32.3863 5.68961L34.0598 4.80128C34.2331 4.95641 34.4065 5.11935 34.5755 5.28748C34.7445 5.45561 34.9057 5.62721 35.0617 5.80315L34.1733 7.47928C34.0994 7.61792 34.0645 7.77406 34.0724 7.93099C34.0804 8.08792 34.1308 8.23974 34.2184 8.37021C34.9477 9.45049 35.4536 10.6657 35.7065 11.9443C35.737 12.0982 35.8088 12.241 35.9141 12.3573C36.0194 12.4736 36.1543 12.5591 36.3045 12.6047L38.1158 13.1585C38.1305 13.3925 38.1375 13.6291 38.1375 13.8666C38.1375 14.1041 38.1305 14.3398 38.1158 14.5747L36.3045 15.1285C36.1543 15.1741 36.0194 15.2597 35.9141 15.376C35.8088 15.4923 35.737 15.635 35.7065 15.7889C35.4547 17.0674 34.9502 18.2828 34.2227 19.3639C34.1353 19.4943 34.085 19.6459 34.077 19.8027C34.0691 19.9594 34.1039 20.1154 34.1777 20.2539L35.0651 21.9266C34.9091 22.0999 34.7479 22.2733 34.5789 22.4466C34.4099 22.6199 34.2392 22.7777 34.0633 22.9328L32.3863 22.041C32.2477 21.9673 32.0916 21.9327 31.9349 21.9408C31.7781 21.9489 31.6265 21.9994 31.4962 22.0869C30.4159 22.8153 29.2011 23.3207 27.9229 23.5733C27.7692 23.6037 27.6267 23.6752 27.5104 23.7802C27.3941 23.8852 27.3084 24.0197 27.2625 24.1695L26.7079 25.9817C26.2363 26.0112 25.7633 26.0112 25.2917 25.9817L24.7371 24.1695C24.6912 24.0197 24.6055 23.8852 24.4892 23.7802C24.3729 23.6752 24.2304 23.6037 24.0767 23.5733C22.7983 23.3214 21.5832 22.8166 20.5025 22.0887C20.3722 22.0013 20.2205 21.9509 20.0637 21.943C19.907 21.935 19.751 21.9698 19.6125 22.0436L17.9398 22.9311C17.7665 22.7768 17.5931 22.6139 17.4198 22.4457C17.2465 22.2776 17.0896 22.106 16.9336 21.9257L17.8254 20.2496C17.8994 20.111 17.9342 19.9548 17.9263 19.7979C17.9184 19.641 17.8679 19.4891 17.7803 19.3587C17.0526 18.2781 16.5481 17.0629 16.2966 15.7845C16.266 15.6306 16.1943 15.4879 16.0889 15.3716C15.9836 15.2553 15.8487 15.1698 15.6986 15.1241L13.8881 14.5747ZM15.3615 18.5336C15.5645 18.9994 15.7978 19.4513 16.06 19.8865L15.2739 21.3598C15.1493 21.5897 15.0966 21.8517 15.1225 22.1119C15.1485 22.3721 15.2519 22.6185 15.4195 22.8193C15.6634 23.1111 15.9234 23.3936 16.1995 23.6669C16.4757 23.9402 16.7585 24.2002 17.048 24.4469C17.2488 24.6134 17.4947 24.7162 17.7542 24.7421C18.0137 24.7681 18.2751 24.716 18.5049 24.5925L19.9843 23.8055C20.9895 24.4192 22.0829 24.8749 23.2265 25.1567L23.7153 26.7574C23.7908 27.007 23.9391 27.2283 24.1412 27.3931C24.3434 27.5578 24.5901 27.6585 24.8497 27.6821C25.2285 27.7168 25.6124 27.7333 25.9989 27.7333C26.3855 27.7333 26.7694 27.7168 27.1481 27.6821C27.4081 27.6585 27.655 27.5576 27.8571 27.3925C28.0593 27.2274 28.2074 27.0056 28.2826 26.7557L28.7714 25.1567C29.9163 24.8764 31.0113 24.4215 32.0179 23.8081L33.4965 24.5942C33.7266 24.7186 33.9888 24.7711 34.2491 24.745C34.5094 24.7189 34.7559 24.6153 34.9568 24.4477C35.248 24.2051 35.5305 23.9451 35.8035 23.6677C36.0765 23.3904 36.3374 23.1122 36.5835 22.821C36.7512 22.6205 36.8549 22.3744 36.8811 22.1143C36.9074 21.8543 36.8551 21.5924 36.7309 21.3624L35.9439 19.883C36.2058 19.4478 36.4389 18.9959 36.6416 18.5301L50.2431 23.3999L25.9625 32.0562L1.75653 23.3999L15.3615 18.5336ZM50.2431 41.5999L25.9625 50.2588L1.75653 41.5999L11.3011 38.1853L25.3775 43.2197C25.7793 43.3653 26.2194 43.3653 26.6212 43.2197L40.6985 38.187L50.2431 41.5999ZM25.9625 41.5896L1.75653 32.9333L12.5145 29.087L25.3775 33.6881C25.7793 33.8337 26.2194 33.8337 26.6212 33.6881L39.4851 29.087L50.2431 32.9333L25.9625 41.5896Z" fill="#6A797C"/>
<path d="M23.7034 37.3179L14.0115 33.8512C13.7972 33.7818 13.5644 33.7986 13.3622 33.898C13.1601 33.9974 13.0046 34.1715 12.9287 34.3835C12.8527 34.5956 12.8623 34.8289 12.9554 35.034C13.0485 35.239 13.2178 35.3998 13.4274 35.4823L23.1193 38.9489C23.213 38.9828 23.3118 39.0001 23.4114 39.0001C23.6153 38.9998 23.8126 38.9276 23.9686 38.7962C24.1245 38.6648 24.2292 38.4826 24.2641 38.2817C24.2989 38.0807 24.2619 37.8739 24.1593 37.6977C24.0568 37.5214 23.8954 37.3869 23.7034 37.3179Z" fill="#6A797C"/>
<path d="M23.7034 45.9844L14.0115 42.5177C13.7972 42.4483 13.5644 42.4651 13.3622 42.5645C13.1601 42.6639 13.0046 42.838 12.9287 43.0501C12.8527 43.2621 12.8623 43.4954 12.9554 43.7005C13.0485 43.9055 13.2178 44.0663 13.4274 44.1488L23.1193 47.6154C23.213 47.6493 23.3118 47.6666 23.4114 47.6666C23.6153 47.6663 23.8126 47.5941 23.9686 47.4627C24.1245 47.3313 24.2292 47.1491 24.2641 46.9482C24.2989 46.7472 24.2619 46.5404 24.1593 46.3642C24.0568 46.1879 23.8954 46.0534 23.7034 45.9844Z" fill="#6A797C"/>
</g>
<defs>
<clipPath id="clip0_1280_5599">
<rect width="52" height="52" fill="white"/>
</clipPath>
</defs>
</svg>
