<svg width="52" height="52" viewBox="0 0 52 52" fill="none" xmlns="http://www.w3.org/2000/svg">
<path d="M46.8 28.5999V26.8666C47.2783 26.8666 47.6666 26.4786 47.6666 25.9999V20.7999C47.6666 20.3212 47.2783 19.9333 46.8 19.9333H42.12L41.9521 19.2823C41.5688 17.7934 40.9737 16.3671 40.1839 15.0478L39.8372 14.4679L43.16 11.1393C43.4945 10.8042 43.4945 10.2612 43.16 9.92601L39.4794 6.23998C39.1395 5.916 38.6056 5.916 38.2657 6.23998L34.9368 9.56885L34.3572 9.22219C33.0359 8.43203 31.6083 7.83688 30.1174 7.45331L29.4667 7.28404V2.59999C29.4667 2.1213 29.0787 1.73333 28.6 1.73333H23.4C22.9213 1.73333 22.5334 2.1213 22.5334 2.59999V7.27998L21.8824 7.44823C20.3935 7.83112 18.9672 8.42628 17.6472 9.21508L17.0673 9.56208L13.7394 6.23998C13.3992 5.91329 12.8619 5.91329 12.5217 6.23998L8.84008 9.9206C8.67826 10.0821 8.58719 10.3015 8.58719 10.53C8.58719 10.7588 8.67826 10.9779 8.84008 11.1393L12.169 14.4679L11.8223 15.0478C11.0328 16.3671 10.4373 17.7934 10.0544 19.2823L9.88448 19.9333H5.20009C4.72139 19.9333 4.33343 20.3212 4.33343 20.7999V25.9999C4.33343 26.4786 4.72139 26.8666 5.20009 26.8666V28.5999C3.76434 28.5999 2.6001 27.4357 2.6001 25.9999V20.7999C2.6001 19.3642 3.76434 18.1999 5.20009 18.1999H8.55334C8.91083 17.0015 9.39427 15.8444 9.99552 14.7482L7.61219 12.3649C7.12469 11.8784 6.85081 11.2182 6.85081 10.53C6.85081 9.84171 7.12469 9.18156 7.61219 8.69542L11.2955 5.01209C12.3216 4.02999 13.9395 4.02999 14.9656 5.01209L17.3483 7.3944C18.4445 6.7935 19.6019 6.31107 20.8 5.95391V2.59999C20.8 1.16424 21.9643 0 23.4 0H28.6C30.0358 0 31.2 1.16424 31.2 2.59999V5.95391C32.3984 6.31107 33.5552 6.79451 34.6518 7.39542L37.0351 5.01209C38.0616 4.02999 39.6791 4.02999 40.7056 5.01209L44.3882 8.6944C44.8754 9.18088 45.1489 9.84036 45.1489 10.529C45.1489 11.2175 44.8754 11.8777 44.3882 12.3638L42.0049 14.7472C42.6058 15.844 43.0889 17.0015 43.4467 18.1999H46.8C48.2357 18.1999 49.4 19.3642 49.4 20.7999V25.9999C49.4 27.4357 48.2357 28.5999 46.8 28.5999Z" fill="#FF725E"/>
<path d="M38.1333 23.3999H36.4C36.4 17.6562 31.7437 12.9999 26 12.9999C20.2563 12.9999 15.6 17.6562 15.6 23.3999H13.8667C13.8667 16.6988 19.2989 11.2666 26 11.2666C32.7007 11.2666 38.1333 16.6988 38.1333 23.3999Z" fill="#FF725E"/>
<path d="M25.9998 30.3331C23.1279 30.3331 20.7998 28.0046 20.7998 25.1331C20.7998 22.2612 23.1279 19.9331 25.9998 19.9331C28.872 19.9331 31.1998 22.2612 31.1998 25.1331C31.1967 28.0039 28.8706 30.33 25.9998 30.3331ZM25.9998 21.6664C24.0853 21.6664 22.5331 23.2186 22.5331 25.1331C22.5331 27.0475 24.0853 28.5997 25.9998 28.5997C27.9142 28.5997 29.4664 27.0475 29.4664 25.1331C29.4664 23.2186 27.9142 21.6664 25.9998 21.6664Z" fill="#6A797C"/>
<path d="M40.7332 33.7999C37.8613 33.7999 35.5332 31.4714 35.5332 28.5999C35.5332 25.728 37.8613 23.3999 40.7332 23.3999C43.605 23.3999 45.9332 25.728 45.9332 28.5999C45.9301 31.4707 43.604 33.7968 40.7332 33.7999ZM40.7332 25.1332C38.8187 25.1332 37.2665 26.6854 37.2665 28.5999C37.2665 30.5143 38.8187 32.0665 40.7332 32.0665C42.6476 32.0665 44.1998 30.5143 44.1998 28.5999C44.1998 26.6854 42.6476 25.1332 40.7332 25.1332Z" fill="#6A797C"/>
<path d="M11.2664 33.7999C8.39455 33.7999 6.06641 31.4714 6.06641 28.5999C6.06641 25.728 8.39455 23.3999 11.2664 23.3999C14.1386 23.3999 16.4664 25.728 16.4664 28.5999C16.4633 31.4707 14.1372 33.7968 11.2664 33.7999ZM11.2664 25.1332C9.35194 25.1332 7.79973 26.6854 7.79973 28.5999C7.79973 30.5143 9.35194 32.0665 11.2664 32.0665C13.1808 32.0665 14.733 30.5143 14.733 28.5999C14.733 26.6854 13.1808 25.1332 11.2664 25.1332Z" fill="#6A797C"/>
<path d="M48.5901 36.0233C47.2985 35.1356 45.7673 34.662 44.1999 34.6664H37.2666C36.8451 34.6701 36.4243 34.7084 36.0089 34.7805C35.4543 33.9132 34.7329 33.165 33.8866 32.5783C33.7596 32.4825 33.6262 32.3955 33.4871 32.3186C32.2748 31.5843 30.8837 31.1977 29.4666 31.1998H22.5333C19.8828 31.1903 17.4132 32.5427 15.9933 34.7805C15.5769 34.7084 15.1555 34.6701 14.7333 34.6664H7.79998C6.23389 34.662 4.70301 35.135 3.41215 36.0216C1.27867 37.4733 0.00135416 39.886 0 42.4664V45.933C0.00304684 48.2994 1.37989 50.4485 3.52929 51.4397C4.32283 51.8135 5.18983 52.0048 6.06665 51.9997H14.7333V50.2664H6.93331V40.7331H5.19998V50.1794C4.87363 50.114 4.55676 50.0084 4.25613 49.8659C2.72085 49.158 1.73671 47.6234 1.73333 45.933V42.4664C1.73536 40.4582 2.73033 38.581 4.39053 37.4516C5.39363 36.763 6.58292 36.3964 7.79998 36.3997H14.7333C14.886 36.3997 15.0332 36.416 15.1822 36.4261C14.889 37.2529 14.737 38.1229 14.7333 38.9997V47.6664C14.7363 50.0585 16.6748 51.9966 19.0666 51.9997H21.6666V38.1331H19.9333V50.2664H19.0666C17.6309 50.2664 16.4666 49.1021 16.4666 47.6664V38.9997C16.4666 35.6489 19.1831 32.9331 22.5333 32.9331H29.4666C30.5817 32.9338 31.6745 33.2425 32.6255 33.8248C32.7135 33.8729 32.7982 33.927 32.8784 33.9866C33.6906 34.5428 34.3571 35.2859 34.8216 36.1533C35.2885 37.0294 35.5332 38.0068 35.5332 38.9997V47.6664C35.5332 49.1021 34.369 50.2664 32.9332 50.2664H32.0666V38.1331H30.3332V51.9997H32.9332C35.3254 51.9966 37.2635 50.0585 37.2666 47.6664V38.9997C37.2625 38.1229 37.1112 37.2532 36.8183 36.4261C36.9676 36.416 37.1149 36.3997 37.2666 36.3997H44.1999C45.4176 36.3964 46.6079 36.764 47.6117 37.4533C49.2705 38.5833 50.2641 40.4592 50.2665 42.4664V45.933C50.2635 47.6295 49.2719 49.1685 47.7292 49.8726C47.4329 50.0128 47.1208 50.1157 46.7999 50.1794V40.7331H45.0665V50.2664H37.2666V51.9997H45.9332C46.8049 52.0051 47.6669 51.8162 48.456 51.4465C50.6125 50.4583 51.9965 48.3052 51.9998 45.933V42.4664C51.9985 39.887 50.7222 37.4753 48.5901 36.0233Z" fill="#6A797C"/>
<path d="M22.5332 50.2666H29.4665V51.9999H22.5332V50.2666Z" fill="#6A797C"/>
</svg>
