<svg width="52" height="52" viewBox="0 0 52 52" fill="none" xmlns="http://www.w3.org/2000/svg">
<path d="M31.6875 9.75C29.4482 9.75 27.625 7.92837 27.625 5.6875C27.625 3.44663 29.4482 1.625 31.6875 1.625C33.9268 1.625 35.75 3.44663 35.75 5.6875C35.75 7.92837 33.9268 9.75 31.6875 9.75ZM31.6875 3.25C30.3436 3.25 29.25 4.34363 29.25 5.6875C29.25 7.03137 30.3436 8.125 31.6875 8.125C33.0314 8.125 34.125 7.03137 34.125 5.6875C34.125 4.34363 33.0314 3.25 31.6875 3.25Z" fill="#6A797C"/>
<path d="M18.6875 9.75C16.4482 9.75 14.625 7.92837 14.625 5.6875C14.625 3.44663 16.4482 1.625 18.6875 1.625C20.9268 1.625 22.75 3.44663 22.75 5.6875C22.75 7.92837 20.9268 9.75 18.6875 9.75ZM18.6875 3.25C17.3436 3.25 16.25 4.34363 16.25 5.6875C16.25 7.03137 17.3436 8.125 18.6875 8.125C20.0314 8.125 21.125 7.03137 21.125 5.6875C21.125 4.34363 20.0314 3.25 18.6875 3.25Z" fill="#6A797C"/>
<path d="M43.0625 50.375C42.614 50.375 42.25 50.011 42.25 49.5625V39.8125C42.25 39.364 42.614 39 43.0625 39C43.511 39 43.875 39.364 43.875 39.8125C43.875 40.2594 44.239 40.625 44.6875 40.625C45.136 40.625 45.5 40.2594 45.5 39.8125V28.4375C45.5 26.6094 44.0001 24.375 42.25 24.375H36.5625C36.114 24.375 35.75 24.011 35.75 23.5625C35.75 23.114 36.114 22.75 36.5625 22.75H42.25C44.9946 22.75 47.125 25.8082 47.125 28.4375V39.8125C47.125 41.1564 46.0314 42.25 44.6875 42.25C44.4031 42.25 44.1285 42.2013 43.875 42.1102V49.5625C43.875 50.011 43.511 50.375 43.0625 50.375Z" fill="#6A797C"/>
<path d="M33.3125 16.25C33.3125 13.5622 35.4997 11.375 38.1875 11.375C40.8752 11.375 43.0625 13.5622 43.0625 16.25C43.0625 18.9377 40.8752 21.125 38.1875 21.125C35.4997 21.125 33.3125 18.9377 33.3125 16.25ZM34.9375 16.25C34.9375 18.044 36.3935 19.5 38.1875 19.5C39.9815 19.5 41.4375 18.044 41.4375 16.25C41.4375 14.4576 39.9815 13 38.1875 13C36.3935 13 34.9375 14.4576 34.9375 16.25Z" fill="#6A797C"/>
<path d="M43.0625 40.625C43.511 40.625 43.875 40.261 43.875 39.8125V30.0625C43.875 29.614 43.511 29.25 43.0625 29.25C42.614 29.25 42.25 29.614 42.25 30.0625V39.8125C42.25 40.261 42.614 40.625 43.0625 40.625Z" fill="#6A797C"/>
<path d="M38.1875 50.375C38.636 50.375 39 50.011 39 49.5625V43.0625C39 42.614 38.636 42.25 38.1875 42.25C37.739 42.25 37.375 42.614 37.375 43.0625V49.5625C37.375 50.011 37.739 50.375 38.1875 50.375Z" fill="#6A797C"/>
<path d="M7.3125 50.375C6.864 50.375 6.5 50.011 6.5 49.5625V42.1102C6.2465 42.2013 5.97187 42.25 5.6875 42.25C4.34362 42.25 3.25 41.1564 3.25 39.8125V28.4375C3.25 25.8082 5.38037 22.75 8.125 22.75H13.8125C14.261 22.75 14.625 23.114 14.625 23.5625C14.625 24.011 14.261 24.375 13.8125 24.375H8.125C6.37488 24.375 4.875 26.6094 4.875 28.4375V39.8125C4.875 40.2594 5.239 40.625 5.6875 40.625C6.136 40.625 6.5 40.2594 6.5 39.8125C6.5 39.364 6.864 39 7.3125 39C7.761 39 8.125 39.364 8.125 39.8125V49.5625C8.125 50.011 7.761 50.375 7.3125 50.375Z" fill="#6A797C"/>
<path d="M12.1875 21.125C9.49975 21.125 7.3125 18.9377 7.3125 16.25C7.3125 13.5622 9.49975 11.375 12.1875 11.375C14.8752 11.375 17.0625 13.5622 17.0625 16.25C17.0625 18.9377 14.8752 21.125 12.1875 21.125ZM12.1875 13C10.3935 13 8.9375 14.4576 8.9375 16.25C8.9375 18.044 10.3935 19.5 12.1875 19.5C13.9815 19.5 15.4375 18.044 15.4375 16.25C15.4375 14.4576 13.9815 13 12.1875 13Z" fill="#6A797C"/>
<path d="M7.3125 40.625C6.864 40.625 6.5 40.261 6.5 39.8125V30.0625C6.5 29.614 6.864 29.25 7.3125 29.25C7.761 29.25 8.125 29.614 8.125 30.0625V39.8125C8.125 40.261 7.761 40.625 7.3125 40.625Z" fill="#6A797C"/>
<path d="M12.1875 50.375C11.739 50.375 11.375 50.011 11.375 49.5625V43.0625C11.375 42.614 11.739 42.25 12.1875 42.25C12.636 42.25 13 42.614 13 43.0625V49.5625C13 50.011 12.636 50.375 12.1875 50.375Z" fill="#6A797C"/>
<path d="M30.0625 50.375C29.614 50.375 29.25 50.011 29.25 49.5625V31.6875C29.25 31.239 29.614 30.875 30.0625 30.875C30.9286 30.875 31.7363 30.4086 32.1718 29.6579C32.3863 29.289 32.5 28.8681 32.5 28.4375V26.8125C32.5 24.5716 30.6768 22.75 28.4375 22.75H21.125C19.3326 22.75 17.875 24.2076 17.875 26V28.4375C17.875 29.7814 18.9686 30.875 20.3125 30.875C20.761 30.875 21.125 31.239 21.125 31.6875V49.5625C21.125 50.011 20.761 50.375 20.3125 50.375C19.864 50.375 19.5 50.011 19.5 49.5625V32.4188C17.6475 32.0418 16.25 30.3989 16.25 28.4375V26C16.25 23.3122 18.4372 21.125 21.125 21.125H28.4375C31.5737 21.125 34.125 23.6762 34.125 26.8125V28.4375C34.125 29.1525 33.9365 29.8577 33.5774 30.4736C32.9907 31.4844 31.9979 32.1864 30.875 32.4171V49.5625C30.875 50.011 30.511 50.375 30.0625 50.375Z" fill="#FF725E"/>
<path d="M25.1875 19.5C22.4997 19.5 20.3125 17.3127 20.3125 14.625C20.3125 11.9372 22.4997 9.75 25.1875 9.75C27.8752 9.75 30.0625 11.9372 30.0625 14.625C30.0625 17.3127 27.8752 19.5 25.1875 19.5ZM25.1875 11.375C23.3935 11.375 21.9375 12.8326 21.9375 14.625C21.9375 16.419 23.3935 17.875 25.1875 17.875C26.9815 17.875 28.4375 16.419 28.4375 14.625C28.4375 12.8326 26.9815 11.375 25.1875 11.375Z" fill="#FF725E"/>
<path d="M30.0625 30.0627C29.614 30.0627 29.25 29.6987 29.25 29.2502V28.7318C29.25 28.4897 29.1476 28.2687 28.9624 28.1111C28.7771 27.9534 28.5415 27.8917 28.3059 27.9307L22.3389 28.9236C21.6271 29.0373 20.9105 28.8423 20.3629 28.3792C19.8136 27.9161 19.5 27.2368 19.5 26.5186C19.5 26.0701 19.864 25.7061 20.3125 25.7061C20.761 25.7061 21.125 26.0701 21.125 26.5186C21.125 26.7607 21.2274 26.9817 21.4126 27.1393C21.5979 27.2953 21.8351 27.3636 22.0724 27.3197L28.0377 26.3268C28.7446 26.2098 29.4645 26.4048 30.0121 26.8696C30.5597 27.3327 30.875 28.0119 30.875 28.7318V29.2502C30.875 29.6987 30.511 30.0627 30.0625 30.0627Z" fill="#FF725E"/>
<path d="M25.1875 50.375C24.739 50.375 24.375 50.011 24.375 49.5625V39C24.375 38.5515 24.739 38.1875 25.1875 38.1875C25.636 38.1875 26 38.5515 26 39V49.5625C26 50.011 25.636 50.375 25.1875 50.375Z" fill="#FF725E"/>
<path d="M30.0625 32.5H23.5625C23.114 32.5 22.75 32.136 22.75 31.6875C22.75 31.239 23.114 30.875 23.5625 30.875H30.0625C30.511 30.875 30.875 31.239 30.875 31.6875C30.875 32.136 30.511 32.5 30.0625 32.5Z" fill="#FF725E"/>
</svg>
