<svg width="36" height="35" viewBox="0 0 36 35" fill="none" xmlns="http://www.w3.org/2000/svg">
<g id="002-phone-1" clip-path="url(#clip0_1515_5827)">
<g id="Group">
<g id="Group_2">
<path id="Vector" d="M25.1048 35C12.9415 34.8588 -2.29165 19.2363 0.981039 6.936C1.644 3.32999 8.0371 -2.89108 12.194 1.52552C13.8467 3.27648 15.9752 4.64005 15.9205 7.34765C15.9324 9.05576 15.1166 10.3764 13.8812 11.4826C12.4823 12.8816 12.3528 15.1067 13.5801 16.6585C15.0912 18.5708 16.8989 20.3783 18.8115 21.8899C20.3633 23.1171 22.5883 22.9877 23.9873 21.5887L24.5536 21.0226C25.5034 20.0728 26.7708 19.5495 28.1224 19.5495C30.8267 19.493 32.1986 21.6274 33.9447 23.276C38.3546 27.4703 32.1556 33.8017 28.5341 34.4889C27.4777 34.8302 26.3278 35 25.1048 35ZM8.74735 1.50289C6.2262 1.40393 2.86377 5.06298 2.45704 7.22689C-0.192054 17.3106 10.3536 28.9133 19.426 32.3464C23.8427 33.9258 27.8933 34.1495 31.2283 31.3447C33.4515 29.4415 35.1674 26.6198 32.8815 24.3393C32.8814 24.3393 30.628 22.086 30.628 22.086C29.3167 20.7179 26.9278 20.7183 25.6168 22.086C25.6168 22.086 25.0505 22.6521 25.0505 22.6521C23.1121 24.5906 20.0288 24.7699 17.8787 23.0694C16.8771 22.2772 15.9025 21.4087 14.982 20.4881C14.0609 19.5671 13.1924 18.5924 12.4007 17.5912C10.7001 15.4412 10.8795 12.358 12.8179 10.4195L13.3841 9.85329C14.7522 8.54316 14.7518 6.15235 13.3841 4.84208C13.3842 4.84208 11.1306 2.58864 11.1306 2.58864C10.4051 1.86301 9.61808 1.50289 8.74735 1.50289Z" fill="#4F5B5E"/>
</g>
<g id="Group_3">
<path id="Vector_2" d="M28.6686 13.9297C28.3217 13.9297 28.0099 13.6883 27.9342 13.3354C27.6284 11.9095 26.9217 10.6108 25.8905 9.57972C24.8439 8.533 23.5242 7.82186 22.0744 7.52318C21.6678 7.43939 21.406 7.04182 21.4897 6.63516C21.5736 6.2285 21.9711 5.96674 22.3777 6.05053C24.1163 6.40859 25.6987 7.26135 26.9537 8.51646C28.1902 9.75291 29.0377 11.3102 29.4044 13.0201C29.4915 13.426 29.233 13.8258 28.827 13.9129C28.7739 13.9242 28.7208 13.9297 28.6686 13.9297Z" fill="#FF725E"/>
</g>
<g id="Group_4">
<path id="Vector_3" d="M32.9155 18.1537C32.8664 18.1537 32.8166 18.1489 32.7667 18.1389C32.3596 18.0571 32.0959 17.6609 32.1776 17.2538C32.9607 13.3538 31.7489 9.34635 28.9363 6.53357C26.1184 3.71572 22.1043 2.50524 18.1984 3.2958C17.7914 3.37857 17.3948 3.11503 17.3124 2.70803C17.2301 2.30109 17.4932 1.90441 17.9002 1.82205C22.3014 0.93123 26.8244 2.29515 29.9995 5.4703C33.1688 8.63972 34.5342 13.1554 33.6518 17.5497C33.5801 17.9069 33.2662 18.1537 32.9155 18.1537Z" fill="#FF725E"/>
</g>
</g>
</g>
<defs>
<clipPath id="clip0_1515_5827">
<rect width="35" height="35" fill="white" transform="translate(0.5)"/>
</clipPath>
</defs>
</svg>
