<svg width="40" height="40" viewBox="0 0 40 40" fill="none" xmlns="http://www.w3.org/2000/svg">
<g id="curve 1" clip-path="url(#clip0_1468_16074)">
<path id="Vector" d="M39.653 29.103L35.553 27.053L32.9437 20.2655C32.9129 20.1853 32.866 20.1122 32.8058 20.0509C32.7456 19.9896 32.6733 19.9414 32.5937 19.9093L16.403 13.4374C16.2898 13.3923 16.1659 13.3813 16.0465 13.4058C15.9272 13.4302 15.8175 13.489 15.7312 13.5749L13.5718 15.7343C13.487 15.8207 13.4292 15.93 13.4053 16.0487C13.3815 16.1674 13.3926 16.2905 13.4374 16.403L19.9093 32.5936C19.9414 32.6733 19.9896 32.7456 20.0509 32.8058C20.1122 32.866 20.1853 32.9129 20.2655 32.9436L27.053 35.553L29.103 39.653C29.1462 39.7434 29.2105 39.8221 29.2904 39.8825C29.3703 39.9429 29.4636 39.9831 29.5624 39.9999C29.5957 40.003 29.6291 40.003 29.6624 39.9999C29.8279 39.9992 29.9864 39.9329 30.103 39.8155L39.8155 30.103C39.887 30.034 39.941 29.949 39.9731 29.855C40.0052 29.761 40.0143 29.6607 39.9999 29.5624C39.9831 29.4636 39.9429 29.3703 39.8825 29.2904C39.8221 29.2104 39.7434 29.1462 39.653 29.103ZM14.7468 16.3218L15.0937 15.978L23.153 24.0374C22.6219 24.79 22.3925 25.7146 22.5102 26.6282C22.6279 27.5418 23.0842 28.378 23.7887 28.9714C24.4933 29.5648 25.3949 29.8723 26.3152 29.8329C27.2356 29.7936 28.1076 29.4104 28.759 28.759C29.4104 28.1076 29.7936 27.2356 29.8329 26.3152C29.8723 25.3949 29.5648 24.4933 28.9714 23.7887C28.378 23.0842 27.5418 22.6279 26.6282 22.5102C25.7146 22.3925 24.79 22.6219 24.0374 23.153L15.978 15.0936L16.3218 14.7468L31.8749 20.9686L34.328 27.3499L27.3499 34.328L20.9687 31.8749L14.7468 16.3218ZM26.1562 23.728C26.7179 23.7289 27.2619 23.9244 27.6956 24.2814C28.1293 24.6384 28.4258 25.1346 28.5347 25.6857C28.6435 26.2368 28.5579 26.8085 28.2924 27.3036C28.027 27.7986 27.5981 28.1863 27.0789 28.4006C26.5597 28.6149 25.9822 28.6426 25.4449 28.4789C24.9075 28.3151 24.4436 27.9702 24.1321 27.5028C23.8205 27.0354 23.6807 26.4744 23.7364 25.9155C23.792 25.3565 24.0398 24.8342 24.4374 24.4374C24.8937 23.9825 25.5119 23.7274 26.1562 23.728ZM29.8343 38.3186L28.2718 35.1936L35.1874 28.278L38.3124 29.8405L29.8343 38.3186Z" fill="#FF725E"/>
<path id="Vector_2" d="M11.9531 33.4374C11.8336 33.3245 11.6754 33.2615 11.5109 33.2615C11.3465 33.2615 11.1882 33.3245 11.0687 33.4374L10.275 34.2312C8.15678 31.3563 6.98825 27.8923 6.93223 24.3218C6.87621 20.7513 7.9355 17.2523 9.96247 14.3124C10.5697 14.6466 11.269 14.775 11.9553 14.6783C12.6417 14.5816 13.2783 14.2651 13.7696 13.7762C14.261 13.2873 14.5807 12.6524 14.6808 11.9665C14.7809 11.2806 14.6561 10.5808 14.325 9.97181C17.2648 7.94484 20.7639 6.88555 24.3343 6.94157C27.9048 6.99759 31.3689 8.16612 34.2437 10.2843L33.4375 11.0687C33.3212 11.1859 33.2561 11.3443 33.2562 11.5093C33.2557 11.5916 33.2715 11.6731 33.3026 11.7492C33.3337 11.8254 33.3795 11.8947 33.4375 11.9531L36.1937 14.6874C36.3108 14.8038 36.4692 14.8692 36.6343 14.8692C36.7995 14.8692 36.9579 14.8038 37.075 14.6874L39.8156 11.9468C39.8737 11.8888 39.9198 11.8198 39.9513 11.744C39.9827 11.6681 39.9989 11.5868 39.9989 11.5046C39.9989 11.4225 39.9827 11.3412 39.9513 11.2653C39.9198 11.1894 39.8737 11.1205 39.8156 11.0624L37.075 8.32181C36.9579 8.2054 36.7995 8.14006 36.6343 8.14006C36.4692 8.14006 36.3108 8.2054 36.1937 8.32181L35.1343 9.37493C32.5234 7.41023 29.4366 6.17586 26.1909 5.79857C22.9452 5.42127 19.6576 5.91466 16.6656 7.22806L20.2687 3.63431C20.6773 3.82952 21.1417 3.87371 21.5798 3.75903C22.0178 3.64436 22.401 3.37823 22.6615 3.00787C22.922 2.63751 23.0429 2.18685 23.0027 1.73585C22.9625 1.28485 22.7639 0.862664 22.442 0.544188C22.1201 0.225712 21.6959 0.0315364 21.2445 -0.00389048C20.7931 -0.0393173 20.3437 0.0862947 19.9761 0.350661C19.6085 0.615028 19.3465 1.00106 19.2364 1.44027C19.1264 1.87948 19.1755 2.34347 19.375 2.74993L13.2937 8.84056C12.6763 8.42637 11.9342 8.23942 11.1942 8.31162C10.4542 8.38383 9.76223 8.71072 9.23649 9.23646C8.71076 9.76219 8.38387 10.4542 8.31166 11.1941C8.23945 11.9341 8.42641 12.6762 8.84059 13.2937L2.74997 19.3749C2.34192 19.1761 1.87658 19.1284 1.43666 19.2402C0.996735 19.3521 0.610713 19.6163 0.347188 19.9859C0.083662 20.3555 -0.0402998 20.8065 -0.00267003 21.2589C0.0349597 21.7112 0.231744 22.1356 0.552714 22.4566C0.873685 22.7775 1.29805 22.9743 1.75041 23.0119C2.20277 23.0496 2.65382 22.9256 3.02341 22.6621C3.39301 22.3986 3.6572 22.0125 3.76906 21.5726C3.88091 21.1327 3.83318 20.6674 3.63434 20.2593L7.23747 16.6656C5.92276 19.6567 5.42782 22.9439 5.80346 26.1896C6.1791 29.4353 7.41179 32.5225 9.37497 35.1343L8.31872 36.1937C8.20231 36.3108 8.13697 36.4692 8.13697 36.6343C8.13697 36.7994 8.20231 36.9578 8.31872 37.0749L11.0593 39.8156C11.176 39.9329 11.3345 39.9992 11.5 39.9999C11.5824 40 11.6641 39.9837 11.7403 39.9521C11.8164 39.9205 11.8856 39.8741 11.9437 39.8156L14.6875 37.0749C14.8039 36.9578 14.8692 36.7994 14.8692 36.6343C14.8692 36.4692 14.8039 36.3108 14.6875 36.1937L11.9531 33.4374ZM36.6406 9.64056L38.4968 11.4968L36.6406 13.3531L34.7843 11.4968L36.6406 9.64056ZM20.625 1.44681C20.7178 1.35318 20.8364 1.28924 20.9657 1.26312C21.095 1.237 21.2291 1.24986 21.351 1.30008C21.473 1.3503 21.5772 1.43562 21.6506 1.54519C21.724 1.65477 21.7632 1.78368 21.7632 1.91556C21.7632 2.04744 21.724 2.17634 21.6506 2.28592C21.5772 2.3955 21.473 2.48081 21.351 2.53103C21.2291 2.58125 21.095 2.59412 20.9657 2.56799C20.8364 2.54187 20.7178 2.47794 20.625 2.38431C20.5634 2.32278 20.5145 2.24971 20.4811 2.16928C20.4478 2.08884 20.4306 2.00263 20.4306 1.91556C20.4306 1.82849 20.4478 1.74227 20.4811 1.66184C20.5145 1.58141 20.5634 1.50834 20.625 1.44681ZM10.125 10.1249C10.3065 9.94258 10.5222 9.79787 10.7598 9.69913C10.9973 9.60039 11.2521 9.54956 11.5093 9.54956C11.7666 9.54956 12.0214 9.60039 12.2589 9.69913C12.4965 9.79787 12.7122 9.94258 12.8937 10.1249C13.1681 10.3988 13.355 10.748 13.4308 11.1281C13.5067 11.5083 13.4681 11.9024 13.3199 12.2606C13.1717 12.6188 12.9205 12.925 12.5982 13.1405C12.276 13.3559 11.897 13.4709 11.5093 13.4709C11.1217 13.4709 10.7427 13.3559 10.4204 13.1405C10.0982 12.925 9.84702 12.6188 9.69882 12.2606C9.55061 11.9024 9.51199 11.5083 9.58785 11.1281C9.66371 10.748 9.85063 10.3988 10.125 10.1249ZM2.38747 21.5624C2.25987 21.6688 2.09709 21.7237 1.93112 21.7162C1.76515 21.7087 1.60798 21.6394 1.4905 21.5219C1.37302 21.4044 1.30372 21.2473 1.29622 21.0813C1.28872 20.9153 1.34356 20.7525 1.44997 20.6249C1.57503 20.502 1.74337 20.4332 1.91872 20.4332C2.09407 20.4332 2.2624 20.502 2.38747 20.6249C2.44908 20.6865 2.49795 20.7595 2.53129 20.84C2.56464 20.9204 2.5818 21.0066 2.5818 21.0937C2.5818 21.1808 2.56464 21.267 2.53129 21.3474C2.49795 21.4278 2.44908 21.5009 2.38747 21.5624ZM11.5093 38.4781L9.65309 36.6218L11.5093 34.7656L13.3656 36.6218L11.5093 38.4781Z" fill="#4F5B5E"/>
</g>
<defs>
<clipPath id="clip0_1468_16074">
<rect width="40" height="40" fill="white"/>
</clipPath>
</defs>
</svg>
