<svg width="40" height="40" viewBox="0 0 40 40" fill="none" xmlns="http://www.w3.org/2000/svg">
<g clip-path="url(#clip0_1468_16060)">
<path d="M20 20.0001C19.8867 20.0001 19.7733 19.9767 19.6683 19.9301L0.501667 11.5967C0.196667 11.4651 0 11.1651 0 10.8334C0 10.5017 0.196667 10.2017 0.501667 10.0701L19.6683 1.73675C19.88 1.64341 20.12 1.64341 20.3317 1.73675L39.4983 10.0701C39.8033 10.2017 40 10.5017 40 10.8334C40 11.1651 39.8033 11.4651 39.4983 11.5967L20.3317 19.9301C20.2267 19.9767 20.1133 20.0001 20 20.0001ZM2.92333 10.8334L20 18.2584L37.0767 10.8334L20 3.40841L2.92333 10.8334Z" fill="#4F5B5E"/>
<path d="M20 26.6667C19.8867 26.6667 19.7733 26.6434 19.6683 26.5967L0.501667 18.2634C0.196667 18.1317 0 17.8317 0 17.5001C0 17.1684 0.196667 16.8684 0.501667 16.7367L8.16833 13.4034C8.59167 13.2201 9.08 13.4117 9.265 13.8351C9.44833 14.2567 9.255 14.7484 8.83333 14.9317L2.92333 17.5001L20 24.9251L37.0767 17.5001L31.1683 14.9301C30.7467 14.7467 30.5517 14.2551 30.7367 13.8334C30.92 13.4101 31.4083 13.2167 31.8333 13.4017L39.5 16.7351C39.8033 16.8684 40 17.1684 40 17.5001C40 17.8317 39.8033 18.1317 39.4983 18.2634L20.3317 26.5967C20.2267 26.6434 20.1133 26.6667 20 26.6667Z" fill="#4F5B5E"/>
<path d="M20 33.3335C19.8867 33.3335 19.7733 33.3101 19.6683 33.2635L0.501667 24.9301C0.196667 24.7985 0 24.4985 0 24.1668C0 23.8351 0.196667 23.5351 0.501667 23.4035L8.16833 20.0701C8.59167 19.8868 9.08 20.0801 9.265 20.5018C9.44833 20.9235 9.255 21.4151 8.83333 21.5985L2.92333 24.1668L20 31.5918L37.0767 24.1668L31.1683 21.5968C30.7467 21.4135 30.5517 20.9218 30.7367 20.5001C30.92 20.0785 31.4083 19.8818 31.8333 20.0685L39.5 23.4018C39.8033 23.5351 40 23.8351 40 24.1668C40 24.4985 39.8033 24.7985 39.4983 24.9301L20.3317 33.2635C20.2267 33.3101 20.1133 33.3335 20 33.3335Z" fill="#FF725E"/>
<path d="M20 40C19.8867 40 19.7733 39.9766 19.6683 39.93L0.501667 31.5966C0.196667 31.465 0 31.165 0 30.8333C0 30.5016 0.196667 30.2016 0.501667 30.07L8.16833 26.7366C8.59167 26.5516 9.08 26.7466 9.265 27.1683C9.44833 27.59 9.255 28.0816 8.83333 28.265L2.92333 30.8333L20 38.2583L37.0767 30.8333L31.1683 28.2633C30.7467 28.08 30.5517 27.5883 30.7367 27.1666C30.92 26.745 31.4083 26.5483 31.8333 26.735L39.5 30.0683C39.8033 30.2016 40 30.5016 40 30.8333C40 31.165 39.8033 31.465 39.4983 31.5966L20.3317 39.93C20.2267 39.9766 20.1133 40 20 40Z" fill="#4F5B5E"/>
</g>
<defs>
<clipPath id="clip0_1468_16060">
<rect width="40" height="40" fill="white"/>
</clipPath>
</defs>
</svg>
