<svg width="46" height="40" viewBox="0 0 46 40" fill="none" xmlns="http://www.w3.org/2000/svg">
<g clip-path="url(#clip0_1283_6097)">
<path d="M22.6686 33.5035L38.1982 19.8023L33.6179 15.761L37.0751 12.7106L22.6686 0L8.26173 12.7106L11.719 15.7609L7.13916 19.8023L22.6686 33.5035ZM10.2828 12.7106L22.6686 1.78287L35.0546 12.7106L32.6076 14.8696L32.6072 14.8693L22.6684 23.6385L19.5601 20.896L12.7296 14.8691L12.7294 14.8693L10.2828 12.7106ZM22.6686 25.4214L32.6077 16.6522L36.1777 19.8022L22.6686 31.7204L9.16 19.8022L12.7296 16.6524L22.6686 25.4214Z" fill="#4F5B5E"/>
<path d="M10.1252 25.4478L11.0898 24.5962L10.0788 23.7046L9.11408 24.5562L10.1252 25.4478Z" fill="#FF725E"/>
<path d="M7.13863 26.3005L8.14893 27.1919L9.15928 26.3005L8.14899 25.4091L7.13863 26.3005Z" fill="#FF725E"/>
<path d="M17.5033 35.4428L18.5425 36.3599L19.553 35.4686L18.5138 34.5515L17.5033 35.4428Z" fill="#FF725E"/>
<path d="M9.18787 28.1073L10.2271 29.0239L11.2373 28.1324L10.1981 27.2158L9.18787 28.1073Z" fill="#FF725E"/>
<path d="M13.3457 31.7747L14.3849 32.6912L15.3952 31.7999L14.3561 30.8833L13.3457 31.7747Z" fill="#FF725E"/>
<path d="M11.2662 29.9411L12.3052 30.8574L13.3153 29.966L12.2763 29.0496L11.2662 29.9411Z" fill="#FF725E"/>
<path d="M15.4231 33.6089L16.4624 34.5259L17.4728 33.6345L16.4334 32.7175L15.4231 33.6089Z" fill="#FF725E"/>
<path d="M19.5801 37.2761L20.6194 38.1927L21.6298 37.3013L20.5906 36.3843L19.5801 37.2761Z" fill="#FF725E"/>
<path d="M21.658 39.109L22.6685 40.0005L23.6788 39.1091L22.6683 38.2175L21.658 39.109Z" fill="#FF725E"/>
<path d="M29.9413 31.801L30.9517 32.6921L31.9909 31.775L30.9805 30.8838L29.9413 31.801Z" fill="#FF725E"/>
<path d="M32.021 29.967L33.0316 30.8576L34.0705 29.9412L33.06 29.0498L32.021 29.967Z" fill="#FF725E"/>
<path d="M34.0995 28.133L35.1099 29.0244L36.1489 28.1077L35.1385 27.2163L34.0995 28.133Z" fill="#FF725E"/>
<path d="M27.8642 33.6345L28.8745 34.5259L29.9138 33.6089L28.9034 32.7175L27.8642 33.6345Z" fill="#FF725E"/>
<path d="M25.7831 35.4677L26.7939 36.3591L27.8329 35.4419L26.822 34.5505L25.7831 35.4677Z" fill="#FF725E"/>
<path d="M23.708 37.3013L24.7184 38.1927L25.7575 37.2761L24.7472 36.3843L23.708 37.3013Z" fill="#FF725E"/>
<path d="M37.1874 25.4049L36.1772 26.2964L37.1877 27.1876L38.1978 26.2961L37.1874 25.4049Z" fill="#FF725E"/>
<path d="M35.2109 25.4463L36.2212 24.5552L35.2564 23.7037L34.2461 24.5948L35.2109 25.4463Z" fill="#FF725E"/>
<path d="M17.6173 12.7093L16.6074 11.8181L15.5968 12.7095L16.6066 13.6007L17.6173 12.7093Z" fill="#FF725E"/>
<path d="M19.6384 10.9288L18.6284 10.0369L17.6177 10.9277L18.6277 11.8197L19.6384 10.9288Z" fill="#FF725E"/>
<path d="M21.6585 9.14411L20.6484 8.25244L19.6382 9.14327L20.6482 10.0349L21.6585 9.14411Z" fill="#FF725E"/>
<path d="M23.6792 7.362L22.6689 6.47046L21.6583 7.36186L22.6685 8.2534L23.6792 7.362Z" fill="#FF725E"/>
<path d="M18.6273 13.6008L17.6167 14.4922L18.6267 15.3836L19.6374 14.4922L18.6273 13.6008Z" fill="#FF725E"/>
<path d="M19.6377 12.7107L20.6481 13.6027L21.6585 12.7107L20.6481 11.8188L19.6377 12.7107Z" fill="#FF725E"/>
<path d="M21.6592 10.9247L22.6694 11.8164L23.6803 10.925L22.67 10.0332L21.6592 10.9247Z" fill="#FF725E"/>
<path d="M24.6891 10.0361L25.7 9.14467L24.6891 8.25269L23.6792 9.14529L24.6891 10.0361Z" fill="#FF725E"/>
<path d="M20.6476 15.3861L19.6372 16.2781L20.6482 17.1695L21.6585 16.2776L20.6476 15.3861Z" fill="#FF725E"/>
<path d="M22.6693 15.3844L23.6797 14.4924L22.6687 13.601L21.6583 14.4929L22.6693 15.3844Z" fill="#FF725E"/>
<path d="M25.7004 12.7107L24.6891 11.8188L23.6792 12.7107L24.6891 13.602L25.7004 12.7107Z" fill="#FF725E"/>
<path d="M27.7204 10.9271L26.71 10.0359L25.7001 10.9271L26.7106 11.8183L27.7204 10.9271Z" fill="#FF725E"/>
<path d="M21.6583 18.0597L22.6685 18.9509L23.6788 18.0595L22.6686 17.1683L21.6583 18.0597Z" fill="#FF725E"/>
<path d="M23.6793 16.2769L24.689 17.1682L25.6997 16.2769L24.69 15.3856L23.6793 16.2769Z" fill="#FF725E"/>
<path d="M25.6996 14.4904L26.71 15.3818L27.7203 14.4904L26.71 13.599L25.6996 14.4904Z" fill="#FF725E"/>
<path d="M28.7312 13.5999L29.7412 12.708L28.7304 11.817L27.7204 12.7089L28.7312 13.5999Z" fill="#FF725E"/>
</g>
<defs>
<clipPath id="clip0_1283_6097">
<rect width="45.3372" height="40" fill="white"/>
</clipPath>
</defs>
</svg>
