<svg width="40" height="40" viewBox="0 0 40 40" fill="none" xmlns="http://www.w3.org/2000/svg">
<g clip-path="url(#clip0_1468_16039)">
<path d="M19.9997 8.05542C13.4135 8.05542 8.05518 13.4138 8.05518 20.0002C8.05518 26.5866 13.4135 31.945 19.9997 31.945C23.7142 31.945 27.1535 30.2608 29.436 27.3242C29.6075 27.1036 29.5676 26.7856 29.3471 26.6142C29.1263 26.4427 28.8085 26.4828 28.6371 26.7032C26.5478 29.3914 23.3997 30.933 19.9998 30.933C13.9716 30.933 9.06713 26.0286 9.06713 20.0002C9.06713 13.9717 13.9714 9.06737 19.9997 9.06737C26.0281 9.06737 30.9325 13.9717 30.9325 20.0002C30.9325 20.5664 30.889 21.1341 30.8032 21.6873C30.7606 21.9634 30.9497 22.2219 31.2258 22.2648C31.5037 22.3075 31.7606 22.1183 31.8033 21.8422C31.897 21.2378 31.9444 20.6182 31.9444 20.0002C31.9445 13.4138 26.586 8.05542 19.9997 8.05542Z" fill="#FF725E"/>
<path d="M24.0792 13.9679L17.7247 21.6836L15.8898 19.5678C15.2035 18.7764 13.9959 18.6728 13.1858 19.3757C12.3857 20.0696 12.2992 21.2797 12.9937 22.0797L16.543 26.1716C16.543 26.1718 16.543 26.1718 16.5432 26.1718C17.2015 26.9308 18.3834 26.914 19.021 26.1398L27.0382 16.4049C27.71 15.5892 27.5932 14.379 26.7775 13.707C25.9599 13.0337 24.7528 13.1499 24.0792 13.9679ZM26.1339 14.4881C26.5189 14.8053 26.5743 15.3765 26.2571 15.7615L18.2397 25.4966C18.015 25.7692 17.5745 25.8163 17.3075 25.5086L13.7582 21.4165C13.4309 21.0399 13.4702 20.4685 13.8487 20.1401C14.2248 19.8141 14.7962 19.8514 15.1253 20.2307L17.3525 22.7987C17.45 22.9112 17.5885 22.9709 17.7413 22.9732C17.8901 22.9713 18.0307 22.9039 18.1253 22.7889L24.8603 14.6112C25.1745 14.2296 25.7432 14.166 26.1339 14.4881Z" fill="#4F5B5E"/>
<path d="M37.451 13.5786C37.9422 11.2114 36.5808 8.85546 34.2842 8.09882C33.1617 7.72944 32.271 6.83866 31.9015 5.71601C31.1453 3.41952 28.7892 2.05976 26.417 2.54991C25.2643 2.78905 24.0494 2.46452 23.1611 1.67359C21.3588 0.0678821 18.6409 0.0673352 16.8307 1.68054C15.9512 2.46398 14.7373 2.78937 13.5782 2.54898C11.211 2.05726 8.85509 3.41945 8.09884 5.71585C7.72907 6.83827 6.83806 7.72905 5.71564 8.09866C3.41915 8.85507 2.05782 11.2108 2.5497 13.583C2.78907 14.7368 2.46392 15.9508 1.67314 16.8388C0.0674331 18.6412 0.0674331 21.3592 1.68009 23.1694C2.46392 24.0494 2.78907 25.2637 2.54876 26.4217C2.05743 28.7889 3.41884 31.1447 5.71548 31.9015C6.83814 32.2709 7.72892 33.1616 8.09829 34.2843C8.8547 36.5808 11.211 37.9425 13.5826 37.4504C14.7364 37.2108 15.9504 37.5359 16.8386 38.3267C18.6404 39.9319 21.3583 39.933 23.169 38.3198C24.0492 37.5361 25.2638 37.2112 26.4213 37.4513C28.7881 37.9421 31.1444 36.5808 31.9008 34.2844C32.2706 33.162 33.1616 32.2712 34.284 31.9016C36.5805 31.1452 37.942 28.7897 37.4499 26.4173C37.2106 25.2635 37.5357 24.0495 38.322 23.1669L38.3279 23.1599C39.932 21.3576 39.9316 18.6405 38.3196 16.8309C37.5358 15.9509 37.2106 14.7366 37.451 13.5786ZM37.5709 22.4883C36.496 23.7476 36.171 25.2344 36.46 26.6279C36.8466 28.4911 35.7749 30.3452 33.9673 30.9405C32.5413 31.4101 31.4095 32.5419 30.9397 33.9679C30.3448 35.7758 28.4909 36.849 26.6227 36.4594C25.1563 36.1561 23.6137 36.5685 22.4879 37.5714C21.0698 38.8348 18.9301 38.8349 17.5037 37.5641C16.3824 36.5655 14.8392 36.1559 13.3723 36.4604C11.5084 36.8478 9.65478 35.7751 9.05962 33.9675C8.59001 32.5415 7.45806 31.4098 6.03204 30.9403C4.22439 30.3446 3.1529 28.4905 3.54048 26.6229C3.84462 25.1571 3.43181 23.6143 2.42853 22.4883C1.16501 21.0698 1.16501 18.9305 2.43564 17.5039C3.43157 16.386 3.84462 14.8434 3.5397 13.3727C3.15314 11.5093 4.22478 9.65523 6.03243 9.05991C7.45845 8.5903 8.59017 7.45859 9.06001 6.03257C9.65509 4.22491 11.5095 3.15382 13.377 3.54101C14.843 3.8446 16.3858 3.43194 17.5118 2.42905C18.9299 1.16569 21.0696 1.16554 22.496 2.4364C23.6139 3.43234 25.1566 3.8446 26.6274 3.54007C28.4902 3.15366 30.3448 4.22515 30.9401 6.0328C31.4097 7.45905 32.5414 8.59077 33.9677 9.06015C35.7753 9.65585 36.8468 11.51 36.4592 13.3776C36.1551 14.8433 36.5681 16.3862 37.571 17.5121C38.8347 18.9305 38.8347 21.0698 37.5709 22.4883Z" fill="#4F5B5E"/>
</g>
<defs>
<clipPath id="clip0_1468_16039">
<rect width="40" height="40" fill="white"/>
</clipPath>
</defs>
</svg>
