<svg width="35" height="30" viewBox="0 0 35 30" fill="none" xmlns="http://www.w3.org/2000/svg">
<g clip-path="url(#clip0_1794_5561)">
<path d="M28.3494 9.71366C27.991 9.59067 27.6294 9.47673 27.2652 9.37195C27.3264 9.12195 27.3827 8.87498 27.4327 8.63235C28.2535 4.648 27.7169 1.43813 25.8842 0.381293C24.1269 -0.631865 21.2531 0.424582 18.3507 2.9505C18.0647 3.19989 17.785 3.45646 17.5119 3.71998C17.3291 3.54475 17.1431 3.37292 16.9539 3.20458C13.9121 0.503793 10.8631 -0.634497 9.03232 0.425372C7.27667 1.44169 6.7568 4.45919 7.49574 8.23524C7.56926 8.60922 7.65227 8.98127 7.74469 9.35103C7.31311 9.47366 6.89667 9.60419 6.49811 9.74313C2.9318 10.9866 0.654297 12.9351 0.654297 14.9563C0.654297 17.0438 3.0993 19.1376 6.81377 20.4072C7.11491 20.5097 7.41856 20.6047 7.72443 20.6921C7.62509 21.0903 7.5369 21.4913 7.45995 21.8944C6.75548 25.605 7.30561 28.5512 9.05653 29.561C10.865 30.6039 13.9002 29.5321 16.8556 26.9485C17.0953 26.7385 17.3296 26.5225 17.5585 26.3008C17.8542 26.5861 18.1579 26.8631 18.469 27.1316C21.3319 29.595 24.1593 30.5897 25.9085 29.5771C27.7152 28.5312 28.3025 25.3662 27.5401 21.5155C27.48 21.2138 27.4127 20.9137 27.3381 20.6152C27.5513 20.5521 27.7605 20.4871 27.9644 20.4195C31.826 19.1401 34.3385 17.0717 34.3385 14.9563C34.3385 12.9277 31.9875 10.966 28.3494 9.71366ZM27.5119 19.0537C27.3277 19.1146 27.1388 19.1734 26.9461 19.2306C26.5198 17.881 25.9446 16.446 25.2405 14.9633C25.9123 13.5159 26.4655 12.0992 26.8798 10.7584C27.2244 10.8581 27.5588 10.9633 27.8811 11.0742C30.9982 12.1473 32.8996 13.7338 32.8996 14.9563C32.8996 16.2584 30.8461 17.9488 27.5119 19.0537ZM26.1285 21.795C26.4656 23.4976 26.5136 25.0371 26.2903 26.2406C26.0898 27.3221 25.6864 28.043 25.1875 28.3318C24.126 28.9463 21.8559 28.1476 19.4076 26.0408C19.1182 25.7912 18.8357 25.5337 18.5606 25.2684C19.5098 24.2304 20.4584 23.0237 21.3842 21.6834C23.0126 21.5389 24.551 21.3026 25.9461 20.9801C26.0148 21.2573 26.0759 21.5292 26.1285 21.795ZM12.138 28.2256C11.1009 28.5918 10.2748 28.6023 9.77548 28.3144C8.71298 27.7017 8.27127 25.336 8.87377 22.1629C8.94539 21.7879 9.0274 21.415 9.11969 21.0446C10.4994 21.3498 12.0267 21.5693 13.6589 21.7017C14.591 23.0131 15.5669 24.2185 16.5505 25.2741C16.3415 25.4763 16.1275 25.6734 15.9088 25.8651C14.6018 27.0075 13.2922 27.818 12.138 28.2256ZM7.2793 19.0456C5.6368 18.4842 4.28035 17.7546 3.35061 16.9584C2.51509 16.243 2.09338 15.5326 2.09338 14.9563C2.09338 13.7297 3.92193 12.1652 6.9718 11.1019C7.34193 10.973 7.7293 10.8513 8.13127 10.7371C8.55285 12.1081 9.10574 13.5417 9.77298 14.9913C9.09706 16.4623 8.53627 17.9188 8.11061 19.306C7.83142 19.2261 7.55423 19.1392 7.2793 19.0456ZM8.90798 7.95879C8.27496 4.72366 8.69535 2.28327 9.75338 1.67077C10.8802 1.0184 13.3721 1.94853 15.9985 4.28063C16.1698 4.43305 16.3383 4.58856 16.5039 4.74708C15.5252 5.798 14.5582 6.99445 13.6344 8.29813C12.0502 8.44498 10.5338 8.68077 9.13956 8.99669C9.05366 8.65277 8.97644 8.3066 8.90798 7.95879ZM23.4379 11.5467C23.1085 10.9779 22.767 10.4162 22.4135 9.86208C23.4882 9.998 24.518 10.1784 25.485 10.3989C25.1947 11.3294 24.8329 12.3022 24.4069 13.2996C24.0956 12.7089 23.7725 12.1245 23.4379 11.5467ZM17.5126 5.7755C18.1763 6.49458 18.841 7.29735 19.4948 8.1684C18.1685 8.10576 16.84 8.1055 15.5136 8.16761C16.1681 7.30458 16.8385 6.50287 17.5126 5.7755ZM11.5493 11.5566C11.2188 12.1297 10.9018 12.7105 10.5984 13.2984C10.1794 12.3046 9.82088 11.3273 9.52811 10.3837C10.4892 10.1687 11.514 9.99287 12.5819 9.85945C12.2245 10.4169 11.8802 10.9829 11.5493 11.5566ZM12.6126 20.1555C11.5093 20.0323 10.469 19.8656 9.50824 19.6564C9.80561 18.6959 10.1721 17.6979 10.6001 16.6827C10.9047 17.2711 11.223 17.8522 11.555 18.4256C11.8963 19.0151 12.2497 19.5925 12.6126 20.1555ZM17.5523 24.2384C16.8702 23.5026 16.19 22.6885 15.5256 21.813C16.1706 21.8383 16.8281 21.8512 17.4964 21.8512C18.183 21.8512 18.8617 21.8358 19.5297 21.806C18.8738 22.6973 18.2115 23.5126 17.5523 24.2384ZM24.4205 16.6309C24.8707 17.6572 25.2502 18.65 25.5515 19.5941C24.575 19.8169 23.5205 19.9964 22.4094 20.1297C22.7655 19.5653 23.1102 18.9939 23.4435 18.4158C23.7824 17.8281 24.1081 17.233 24.4205 16.6309ZM22.1971 17.6968C21.6868 18.5832 21.1479 19.4527 20.5811 20.3041C19.5545 20.3768 18.5256 20.4129 17.4964 20.4123C16.4481 20.4123 15.4285 20.3797 14.4467 20.316C13.8651 19.4667 13.3159 18.5956 12.8002 17.7047C12.287 16.8185 11.8077 15.9132 11.3631 14.9906C11.8065 14.0679 12.2845 13.1621 12.796 12.2752L12.7959 12.2754C13.3072 11.3883 13.852 10.521 14.4292 9.67524C15.4309 9.59945 16.4581 9.55998 17.4963 9.55998C18.5392 9.55998 19.5679 9.59984 20.5693 9.67616C21.1406 10.5206 21.682 11.385 22.1923 12.2676C22.7055 13.1525 23.1898 14.0539 23.6444 14.9702C23.1945 15.896 22.7117 16.8054 22.1971 17.6968ZM25.1655 1.62787C26.2934 2.2784 26.7321 4.90169 26.0234 8.34182C25.9781 8.56129 25.9273 8.78484 25.8721 9.01155C24.4744 8.68892 22.9569 8.44906 21.3681 8.29998C20.4426 6.98195 19.4835 5.78366 18.5207 4.74629C18.7731 4.50307 19.0314 4.26616 19.2955 4.03577C21.7823 1.87169 24.1065 1.01721 25.1655 1.62787ZM17.4964 11.9484C19.1576 11.9484 20.5043 13.2951 20.5043 14.9563C20.5043 16.6175 19.1576 17.9642 17.4964 17.9642C15.8352 17.9642 14.4885 16.6175 14.4885 14.9563C14.4885 13.2951 15.8352 11.9484 17.4964 11.9484Z" fill="#00D8FF"/>
</g>
<defs>
<clipPath id="clip0_1794_5561">
<rect width="33.6842" height="30" fill="white" transform="translate(0.654297)"/>
</clipPath>
</defs>
</svg>
