<svg width="407" height="180" viewBox="0 0 407 180" fill="none" xmlns="http://www.w3.org/2000/svg">
<line x1="29.5" y1="180" x2="29.5" y2="2.18557e-08" stroke="#FFE5E1"/>
<line x1="58.5" y1="180" x2="58.5" y2="2.18557e-08" stroke="#FFE5E1"/>
<line x1="87.5" y1="180" x2="87.5" y2="2.18557e-08" stroke="#FFE5E1"/>
<line x1="116.5" y1="180" x2="116.5" y2="2.18557e-08" stroke="#FFE5E1"/>
<line x1="145.5" y1="180" x2="145.5" y2="2.18557e-08" stroke="#FFE5E1"/>
<line x1="174.5" y1="180" x2="174.5" y2="2.18557e-08" stroke="#FFE5E1"/>
<line x1="203.5" y1="180" x2="203.5" y2="2.18557e-08" stroke="#FFE5E1"/>
<line x1="232.5" y1="180" x2="232.5" y2="2.18557e-08" stroke="#FFE5E1"/>
<line x1="261.5" y1="180" x2="261.5" y2="2.18557e-08" stroke="#FFE5E1"/>
<line x1="290.5" y1="180" x2="290.5" y2="2.18557e-08" stroke="#FFE5E1"/>
<line x1="319.5" y1="180" x2="319.5" y2="2.18557e-08" stroke="#FFE5E1"/>
<line x1="377.5" y1="180" x2="377.5" y2="2.18557e-08" stroke="#FFE5E1"/>
<line x1="348.5" y1="180" x2="348.5" y2="2.18557e-08" stroke="#FFE5E1"/>
<line y1="29.5" x2="407" y2="29.5" stroke="#FFE5E1"/>
<line y1="59.5" x2="407" y2="59.5" stroke="#FFE5E1"/>
<line y1="89.5" x2="407" y2="89.5" stroke="#FFE5E1"/>
<line y1="119.5" x2="407" y2="119.5" stroke="#FFE5E1"/>
<line y1="149.5" x2="407" y2="149.5" stroke="#FFE5E1"/>
<line y1="179.5" x2="407" y2="179.5" stroke="#FFE5E1"/>
</svg>
