<svg width="31" height="30" viewBox="0 0 31 30" fill="none" xmlns="http://www.w3.org/2000/svg">
<g clip-path="url(#clip0_1794_5485)">
<path d="M7.24707 -2.0201e-05H23.8643C24.7688 -0.0153959 25.667 0.154772 26.5032 0.499982C27.3395 0.845192 28.0961 1.35812 28.7264 2.00711C29.3567 2.65609 29.8474 3.42737 30.168 4.27334C30.4887 5.11931 30.6326 6.02202 30.5908 6.92576V23.1328C30.6227 24.0323 30.4713 24.9289 30.1456 25.768C29.8199 26.6071 29.3269 27.3711 28.6965 28.0135C28.0661 28.656 27.3116 29.1634 26.4788 29.5049C25.646 29.8464 24.7525 30.0149 23.8525 30L6.9541 29.9883C5.24822 29.8984 3.6416 29.1583 2.46458 27.9203C1.28756 26.6822 0.629603 25.0403 0.625977 23.332V6.66795C0.62574 4.97344 1.27178 3.34264 2.43238 2.108C3.59299 0.873353 5.18078 0.127832 6.87207 0.0234173C6.98926 -2.02014e-05 7.11816 -2.0201e-05 7.24707 -2.0201e-05Z" fill="url(#paint0_linear_1794_5485)"/>
<path d="M25.8916 24.5391C25.5439 23.982 25.0803 23.5063 24.5322 23.1445C24.0635 22.8281 23.5127 22.6289 22.9502 22.6055C22.5518 22.582 22.1533 22.6523 21.7783 22.793C21.4024 22.9321 21.038 23.1006 20.6885 23.2969C20.2783 23.5078 19.8682 23.7187 19.4346 23.8945C18.919 24.1055 18.3799 24.2695 17.8291 24.3867C17.1411 24.5112 16.4422 24.5662 15.7432 24.5508C12.4065 24.4867 9.20074 23.2409 6.6963 21.0352C5.694 20.1623 4.79728 19.1751 4.02442 18.0937C3.89635 17.9173 3.77895 17.7334 3.67286 17.543L0.579112 14.2031V6.64453C0.577571 5.77251 0.747997 4.90875 1.08064 4.10266C1.41328 3.29658 1.9016 2.564 2.51767 1.94685C3.13374 1.32969 3.86545 0.840074 4.67095 0.506012C5.47644 0.171949 6.3399 -1.36101e-06 7.21192 0L13.1299 0L17.5127 4.45312C27.4033 11.1797 24.2041 18.5977 24.2041 18.5977C24.2041 18.5977 27.0166 21.7617 25.8916 24.5391Z" fill="url(#paint1_linear_1794_5485)"/>
<path d="M17.5361 4.45312C27.4268 11.1797 24.2275 18.5977 24.2275 18.5977C24.2275 18.5977 27.04 21.7734 25.9033 24.5508C25.9033 24.5508 24.7432 22.6055 22.7979 22.6055C20.9229 22.6055 19.8213 24.5508 16.0479 24.5508C7.64551 24.5508 3.67285 17.5313 3.67285 17.5313C11.2432 22.5117 16.4111 18.9844 16.4111 18.9844C13.001 17.0039 5.74707 7.53516 5.74707 7.53516C12.0635 12.9141 14.7939 14.332 14.7939 14.332C13.165 12.9844 8.59473 6.39844 8.59473 6.39844C12.251 10.1016 19.5166 15.2695 19.5166 15.2695C21.5791 9.55078 17.5361 4.45312 17.5361 4.45312Z" fill="white"/>
</g>
<defs>
<linearGradient id="paint0_linear_1794_5485" x1="18.4268" y1="-1.05471" x2="12.7549" y2="31.0898" gradientUnits="userSpaceOnUse">
<stop stop-color="#FAAE42"/>
<stop offset="1" stop-color="#EF3E31"/>
</linearGradient>
<linearGradient id="paint1_linear_1794_5485" x1="15.8838" y1="0.480468" x2="11.7354" y2="24.0117" gradientUnits="userSpaceOnUse">
<stop stop-color="#E39F3A"/>
<stop offset="1" stop-color="#D33929"/>
</linearGradient>
<clipPath id="clip0_1794_5485">
<rect width="30" height="30" fill="white" transform="translate(0.579102)"/>
</clipPath>
</defs>
</svg>
