<svg width="60" height="63" viewBox="0 0 60 63" fill="none" xmlns="http://www.w3.org/2000/svg">
<g opacity="0.5">
<path d="M40.5263 53.7358H18.9668V61.5862H40.5263V53.7358Z" fill="#F072AE"/>
<path d="M40.5258 58.7056H18.9663V61.5862H40.5258V58.7056Z" fill="#E54696"/>
<path d="M15.4347 47.6335C16.1506 52.5257 20.7014 55.9752 25.1393 55.9752H35.1361C41.0897 55.9752 45.0573 51.087 45.0573 45.0569V38.7327H30.6939L30.681 32.3843H20.6207C17.7565 32.3843 15.4346 34.7361 15.4346 37.6371L15.4347 47.6335Z" fill="#FEF2E2"/>
<path d="M35.136 53.4207H25.1392C21.2261 53.5653 17.9951 50.272 18.0034 46.3085V37.6381C18.0034 34.7371 20.3252 32.3853 23.1895 32.3853H20.6207C17.7565 32.3853 15.4346 34.7371 15.4346 37.6381V47.6344C16.1505 52.5265 20.7013 55.9761 25.1392 55.9761H35.136C41.0895 55.9761 45.0572 51.0878 45.0572 45.0578V42.5024C45.0573 48.5323 41.0895 53.4207 35.136 53.4207Z" fill="#FFE1BA"/>
<path d="M21.5005 15.0148C20.9843 13.0759 19.0151 11.9264 17.0999 12.4462C15.1804 12.9672 14.0426 14.967 14.5599 16.9104L18.6795 32.3845H26.116L21.5005 15.0148Z" fill="#FEF2E2"/>
<path d="M17.0135 15.6561C16.6915 14.4469 17.0107 13.2161 17.76 12.333C17.5408 12.35 17.3201 12.3866 17.0999 12.4464C15.1804 12.9674 14.0426 14.9672 14.5599 16.9106L18.6795 32.3847H21.5175L17.0135 15.6561Z" fill="#FFE1BA"/>
<path d="M30.9017 15.0148C31.4179 13.0759 33.387 11.9264 35.3022 12.4462C37.2217 12.9672 38.3596 14.967 37.8423 16.9104L33.7226 32.3845H26.2861L30.9017 15.0148Z" fill="#FEF2E2"/>
<path d="M35.7211 12.5892C35.5859 12.5338 35.4465 12.4854 35.3022 12.4463C33.387 11.9264 31.4179 13.0758 30.9017 15.0148L26.2861 32.3845H28.9855L33.6012 15.0148C33.9054 13.8715 34.7152 13.003 35.7211 12.5892Z" fill="#FFE1BA"/>
<path d="M34.2847 43.2592C36.2679 43.2592 37.8756 41.6308 37.8756 39.6222V34.1868C37.8756 32.1782 36.2678 30.5498 34.2847 30.5498C32.3016 30.5498 30.6938 32.1782 30.6938 34.1868V39.6222C30.6938 41.6309 32.3016 43.2592 34.2847 43.2592Z" fill="#FEF2E2"/>
<path d="M33.3442 39.6221V34.1868C33.3442 32.6524 34.2829 31.3409 35.6099 30.8066C35.1998 30.6415 34.7529 30.5498 34.2847 30.5498C32.3015 30.5498 30.6938 32.1781 30.6938 34.1868V39.6221C30.6938 41.6308 32.3015 43.2591 34.2847 43.2591C34.7529 43.2591 35.1998 43.1674 35.6099 43.0023C34.2829 42.4681 33.3442 41.1566 33.3442 39.6221Z" fill="#FFE1BA"/>
<path d="M41.4668 43.2592C43.4501 43.2592 45.0577 41.6308 45.0577 39.6222V34.1868C45.0577 32.1782 43.4499 30.5498 41.4668 30.5498C39.4836 30.5498 37.876 32.1782 37.876 34.1868V39.6222C37.876 41.6309 39.4836 43.2592 41.4668 43.2592Z" fill="#FEF2E2"/>
<path d="M40.5264 39.6221V34.1868C40.5264 32.6524 41.465 31.3409 42.792 30.8066C42.3819 30.6415 41.935 30.5498 41.4668 30.5498C39.4836 30.5498 37.876 32.1781 37.876 34.1868V39.6221C37.876 41.6308 39.4836 43.2591 41.4668 43.2591C41.935 43.2591 42.3819 43.1674 42.792 43.0023C41.465 42.4681 40.5264 41.1566 40.5264 39.6221Z" fill="#FFE1BA"/>
<path d="M51.2865 15.5937L46.4962 16.8238L46.1709 11.8292L43.5356 7.59484L48.1249 5.73812L51.2865 1.89111L54.4482 5.73812L59.0375 7.59484L56.4022 11.8292L56.0769 16.8238L51.2865 15.5937Z" fill="#FEE95D"/>
<path d="M56.2516 14.1422L51.2866 12.8673L48.8855 13.4839L48.7092 10.7755L46.0869 6.56201L43.5356 7.59416L46.1709 11.8285L46.4962 16.8232L51.2866 15.593L56.0769 16.8232L56.2516 14.1422Z" fill="#F7D700"/>
<path d="M52.19 55.8898L49.4227 56.6004L49.2347 53.7152L47.7124 51.269L50.3636 50.1965L52.19 47.9741L54.0164 50.1965L56.6675 51.269L55.1452 53.7152L54.9572 56.6004L52.19 55.8898Z" fill="#FEE95D"/>
<path d="M9.98325 51.3983L4.43132 52.824L4.05426 47.0353L1 42.1278L6.31897 39.9758L9.98325 35.5171L13.6475 39.9758L18.9665 42.1278L15.9122 47.0353L15.5352 52.824L9.98325 51.3983Z" fill="#FEE95D"/>
<path d="M9.98325 48.6106L6.71722 49.4492L6.50079 46.1253L3.44641 41.2178L1 42.1276L4.05426 47.0352L4.43132 52.8238L9.98325 51.3983L15.5352 52.8238V50.0361L9.98325 48.6106Z" fill="#F7D700"/>
<path d="M7.33057 43.2612V45.0809" stroke="white" stroke-miterlimit="10"/>
<path d="M49.5093 8.68652V10.5062" stroke="white" stroke-miterlimit="10"/>
<path d="M26.1161 32.384L21.5004 15.0143C20.9842 13.0753 19.0152 11.926 17.0999 12.4457C15.1804 12.9666 14.0425 14.9665 14.5599 16.9098L18.6796 32.384" stroke="#03141A" stroke-miterlimit="10"/>
<path d="M36.393 22.353L34.2109 30.5494" stroke="#03141A" stroke-miterlimit="10"/>
<path d="M26.2861 32.384L30.9018 15.0143C31.418 13.0753 33.387 11.926 35.3023 12.4457C37.2218 12.9666 38.3597 14.9665 37.8423 16.9098L36.8771 20.5352" stroke="#03141A" stroke-miterlimit="10"/>
<path d="M15.4189 40.6934V37.8734C15.4189 34.8424 17.8449 32.3853 20.8374 32.3853H30.6807V35.0525C30.6807 37.5859 28.653 39.6395 26.1519 39.6395H20.8088C24.2754 39.6395 27.0855 42.4858 27.0855 45.9969V49.6518" stroke="#03141A" stroke-miterlimit="10"/>
<path d="M45.0573 38.7324V45.0565C45.0573 51.0866 41.0895 55.9749 35.1361 55.9749H25.1393C20.7014 55.9749 16.958 52.9624 15.7939 48.8463" stroke="#03141A" stroke-miterlimit="10"/>
<path d="M34.2847 43.2587C36.2679 43.2587 37.8756 41.6303 37.8756 39.6217V34.1863C37.8756 32.1777 36.2678 30.5493 34.2847 30.5493C32.3016 30.5493 30.6938 32.1777 30.6938 34.1863V39.6217C30.6938 41.6304 32.3016 43.2587 34.2847 43.2587Z" stroke="#03141A" stroke-miterlimit="10"/>
<path d="M45.0577 35.0934V34.1863C45.0577 32.1777 43.4499 30.5493 41.4668 30.5493C39.4837 30.5493 37.876 32.1777 37.876 34.1863V39.6217C37.876 41.6303 39.4837 43.2587 41.4668 43.2587C43.4501 43.2587 45.0577 41.6303 45.0577 39.6217L45.0578 36.9132" stroke="#03141A" stroke-miterlimit="10"/>
<path d="M18.9663 53.7354V61.5857H40.5258V54.2278" stroke="#03141A" stroke-miterlimit="10"/>
<path d="M51.2865 15.5932L46.4962 16.8234L46.1709 11.8287L43.5356 7.59435L48.1249 5.73763L51.2865 1.89062L54.4482 5.73763L59.0375 7.59435L56.4022 11.8287L56.0769 16.8234L51.2865 15.5932Z" stroke="#03141A" stroke-miterlimit="10"/>
<path d="M52.1904 55.8893L49.4232 56.6L49.2352 53.7147L47.7129 51.2685L50.3641 50.196L52.1904 47.9736L54.0169 50.196L56.668 51.2685L55.1457 53.7147L54.9577 56.6L52.1904 55.8893Z" stroke="#03141A" stroke-miterlimit="10"/>
<path d="M9.98325 51.3978L4.43132 52.8235L4.05426 47.0348L1 42.1273L6.31897 39.9753L9.98325 35.5166L13.6475 39.9753L18.9665 42.1273L15.9122 47.0348L15.5352 52.8235L9.98325 51.3978Z" stroke="#03141A" stroke-miterlimit="10"/>
<path d="M13.4335 10.9061L8.30957 5.71631" stroke="#03141A" stroke-miterlimit="10"/>
<path d="M9.69847 15.7879L3.42285 12.1182" stroke="#03141A" stroke-miterlimit="10"/>
<path d="M18.2887 7.17073L14.6655 0.814453" stroke="#03141A" stroke-miterlimit="10"/>
</g>
</svg>
