<svg width="40" height="40" viewBox="0 0 50 34" fill="none" xmlns="http://www.w3.org/2000/svg">
<path d="M37.4997 2.7815L38.582 1.62259C38.7442 1.44159 38.8337 1.19971 38.8313 0.94886C38.8289 0.698006 38.7347 0.458158 38.569 0.280776C38.4034 0.103394 38.1794 0.00261151 37.9451 5.0041e-05C37.7108 -0.00251142 37.485 0.0933523 37.3159 0.267075L34.7264 3.03995C34.6432 3.12894 34.5773 3.2346 34.5323 3.3509C34.4873 3.4672 34.4641 3.59185 34.4641 3.71774C34.4641 3.84362 34.4873 3.96827 34.5323 4.08457C34.5773 4.20087 34.6432 4.30653 34.7264 4.39552L37.316 7.16845C37.399 7.25761 37.4977 7.32833 37.6063 7.37652C37.7149 7.42472 37.8314 7.44946 37.949 7.44931C38.1247 7.44625 38.2958 7.38823 38.4412 7.28238C38.5866 7.17653 38.6998 7.02748 38.7671 6.85357C38.8344 6.67967 38.8527 6.48849 38.8198 6.30359C38.7869 6.11868 38.7042 5.94811 38.5819 5.81288L37.5438 4.70119C40.4273 4.82872 43.1535 6.14376 45.1534 8.37187C47.1532 10.6 48.2722 13.569 48.2769 16.6593C47.66 32.5593 26.5072 32.5494 25.8953 16.6592C25.8913 12.974 24.5223 9.44086 22.0887 6.83499C19.6551 4.22912 16.3556 2.76329 12.9139 2.75906C-4.04621 3.46891 -4.42067 29.2647 12.5004 30.5371L11.418 31.6961C11.3347 31.785 11.2686 31.8907 11.2235 32.0071C11.1783 32.1234 11.155 32.2481 11.155 32.3741C11.1549 32.5001 11.178 32.6249 11.223 32.7413C11.268 32.8577 11.3339 32.9635 11.4171 33.0526C11.5003 33.1417 11.5991 33.2123 11.7078 33.2605C11.8166 33.3087 11.9331 33.3334 12.0508 33.3333C12.1684 33.3332 12.2849 33.3083 12.3936 33.26C12.5022 33.2116 12.6009 33.1408 12.684 33.0516L15.2736 30.2787C15.3568 30.1897 15.4227 30.0841 15.4677 29.9678C15.5127 29.8515 15.5359 29.7268 15.5359 29.6009C15.5359 29.475 15.5127 29.3504 15.4677 29.2341C15.4227 29.1178 15.3568 29.0121 15.2736 28.9231L12.684 26.1502C12.515 25.9764 12.2891 25.8805 12.0548 25.8831C11.8205 25.8856 11.5964 25.9864 11.4308 26.1638C11.2651 26.3412 11.1709 26.5811 11.1686 26.832C11.1662 27.0829 11.2558 27.3248 11.4181 27.5058L12.4562 28.6175C-2.04863 27.3987 -1.65406 5.28196 12.914 4.67628C15.881 4.6799 18.7255 5.94357 20.8234 8.19005C22.9213 10.4365 24.1014 13.4824 24.1047 16.6593C24.1087 20.3446 25.4776 23.8777 27.9112 26.4836C30.3449 29.0895 33.6444 30.5554 37.0861 30.5596C54.0461 29.8498 54.4208 4.05393 37.4997 2.7815Z" fill="#4F5B5E"/>
<path d="M20.0795 14.4078H19.5226C19.2184 13.3924 18.7153 12.4581 18.0468 11.6677L18.3283 11.1444C18.5243 10.7753 18.5764 10.3382 18.4733 9.92825C18.3702 9.51825 18.1201 9.16838 17.7775 8.95465L16.7232 8.30214C16.3788 8.09046 15.9701 8.03328 15.5865 8.14309C15.2029 8.25289 14.8754 8.52076 14.6756 8.8882L14.3958 9.40496C13.4225 9.17872 12.4152 9.17807 11.4416 9.40305C11.1836 8.87605 10.8431 8.26438 10.2517 8.13553C9.51651 7.83877 8.66154 8.61275 8.0581 8.94807C7.71401 9.16134 7.46297 9.51204 7.36005 9.92325C7.25713 10.3345 7.31073 10.7726 7.5091 11.1415L7.78887 11.6602C7.11795 12.4485 6.61316 13.382 6.30871 14.3975H5.74829C5.35074 14.3979 4.96956 14.5672 4.68845 14.8682C4.40733 15.1692 4.24925 15.5774 4.2489 16.003V17.3062C4.24925 17.7319 4.40733 18.14 4.68845 18.441C4.96956 18.742 5.35074 18.9113 5.74829 18.9117H6.30521C6.60915 19.927 7.11233 20.8609 7.781 21.6509L7.49948 22.1742C7.30344 22.5433 7.25133 22.9803 7.35446 23.3903C7.45759 23.8003 7.70764 24.1502 8.05028 24.3639L9.10466 25.0165C9.44894 25.2287 9.85773 25.2862 10.2415 25.1763C10.6253 25.0665 10.9528 24.7983 11.1522 24.4304L11.4311 23.9136C12.4047 24.1402 13.4123 24.1411 14.3862 23.9164L14.6668 24.4369C14.8666 24.8044 15.1941 25.0723 15.5778 25.1821C15.9614 25.2919 16.37 25.2347 16.7144 25.023C17.2835 24.6192 18.3408 24.2299 18.469 23.3949C18.5206 23.0894 18.5089 22.7755 18.4345 22.4754C18.3602 22.1753 18.2251 21.8964 18.0389 21.6584C18.7098 20.8701 19.2147 19.9366 19.5191 18.921H20.0795C20.4771 18.9207 20.8582 18.7514 21.1393 18.4504C21.4204 18.1494 21.5785 17.7413 21.5789 17.3156V16.0125C21.5784 15.5869 21.4202 15.179 21.1391 14.8781C20.858 14.5773 20.4769 14.4082 20.0795 14.4078ZM19.7883 17.0038C19.1191 17.0136 18.127 16.8232 17.9523 17.7715C17.728 18.9354 17.1575 19.9901 16.3262 20.7775C15.6428 21.4051 16.3 22.251 16.6217 22.8661L16.0708 23.2069C15.7812 22.7168 15.4835 21.7851 14.8162 21.8382C13.6731 22.2421 12.4415 22.2584 11.2894 21.8849C10.4416 21.5629 10.0842 22.5955 9.74802 23.2003L9.19722 22.8596C9.52133 22.2439 10.1716 21.3952 9.49442 20.7719C8.6646 19.9823 8.09543 18.9265 7.87181 17.7621C7.70395 16.8173 6.69694 17.0027 6.03931 16.9945V16.3148C6.70863 16.305 7.70067 16.4953 7.8753 15.5471C8.09961 14.3832 8.67017 13.3285 9.50147 12.5411C10.1851 11.9133 9.52737 11.0673 9.20504 10.4525L9.75677 10.1117L10.2359 11.0021C10.3387 11.1938 10.5004 11.3414 10.6934 11.4198C10.8865 11.4982 11.099 11.5024 11.2946 11.4318C12.3484 11.0582 13.4867 11.0592 14.54 11.4346C15.3863 11.7529 15.7438 10.7231 16.0796 10.1183L16.6304 10.4591C16.3066 11.0743 15.6558 11.9238 16.3332 12.5458C17.1663 13.3334 17.7361 14.3909 17.9558 15.5574C17.9969 15.774 18.1066 15.9688 18.2664 16.1087C18.4263 16.2486 18.6263 16.325 18.8328 16.3251H19.7883V17.0038Z" fill="#FF725E"/>
<path d="M12.914 12.4651C11.8817 12.4758 10.8952 12.9224 10.1688 13.7078C9.44238 14.4932 9.0349 15.5538 9.03491 16.6592C9.03493 17.7645 9.44244 18.8252 10.1688 19.6106C10.8953 20.3959 11.8818 20.8425 12.9141 20.8532C13.9463 20.8425 14.9329 20.3959 15.6592 19.6105C16.3856 18.8251 16.7931 17.7644 16.7931 16.6591C16.7931 15.5537 16.3856 14.4931 15.6592 13.7077C14.9328 12.9223 13.9462 12.4758 12.914 12.4651ZM12.914 18.9359C12.3541 18.9293 11.8193 18.6865 11.4256 18.2602C11.0319 17.834 10.8111 17.2586 10.8111 16.6591C10.8111 16.0596 11.0319 15.4843 11.4256 15.058C11.8193 14.6317 12.3542 14.389 12.914 14.3824C13.4742 14.3885 14.0094 14.6311 14.4035 15.0574C14.7975 15.4837 15.0186 16.0593 15.0186 16.6592C15.0186 17.259 14.7975 17.8346 14.4034 18.2609C14.0094 18.6872 13.4741 18.9298 12.914 18.9359Z" fill="#FF725E"/>
<path d="M31.4953 20.6558C31.6642 20.8299 31.8902 20.926 32.1247 20.9236C32.3591 20.9212 32.5833 20.8203 32.7491 20.6428C32.9149 20.4653 33.009 20.2252 33.0113 19.9742C33.0135 19.7231 32.9237 19.4811 32.7612 19.3002L30.2949 16.6593L32.7612 14.0184C32.9291 13.8386 33.0234 13.5948 33.0234 13.3406C33.0234 13.0864 32.9291 12.8426 32.7612 12.6628C32.5934 12.4831 32.3657 12.3821 32.1283 12.3821C31.8908 12.3821 31.6632 12.4831 31.4953 12.6628L28.396 15.9816C28.3128 16.0705 28.2468 16.1762 28.2018 16.2925C28.1568 16.4088 28.1337 16.5335 28.1337 16.6593C28.1337 16.7852 28.1568 16.9099 28.2018 17.0262C28.2468 17.1425 28.3128 17.2481 28.396 17.3371L31.4953 20.6558Z" fill="#FF725E"/>
<path d="M41.4113 20.6558C41.4944 20.7449 41.5931 20.8155 41.7017 20.8637C41.8103 20.9119 41.9267 20.9367 42.0443 20.9367C42.1619 20.9367 42.2783 20.9119 42.3869 20.8637C42.4955 20.8155 42.5942 20.7449 42.6773 20.6558L45.7766 17.3371C45.8598 17.2481 45.9257 17.1425 45.9707 17.0262C46.0157 16.9099 46.0389 16.7852 46.0389 16.6593C46.0389 16.5335 46.0157 16.4088 45.9707 16.2925C45.9257 16.1762 45.8598 16.0705 45.7766 15.9816L42.6773 12.6628C42.5942 12.5738 42.4955 12.5032 42.3869 12.455C42.2783 12.4069 42.1619 12.3821 42.0443 12.3821C41.9268 12.3821 41.8103 12.4069 41.7017 12.455C41.5931 12.5032 41.4944 12.5738 41.4113 12.6628C41.3282 12.7518 41.2623 12.8575 41.2173 12.9738C41.1723 13.0901 41.1491 13.2147 41.1491 13.3406C41.1491 13.4665 41.1723 13.5911 41.2173 13.7074C41.2623 13.8237 41.3282 13.9294 41.4113 14.0184L43.8777 16.6593L41.4113 19.3003C41.3282 19.3893 41.2622 19.4949 41.2172 19.6112C41.1722 19.7275 41.149 19.8522 41.149 19.9781C41.149 20.1039 41.1722 20.2286 41.2172 20.3449C41.2622 20.4612 41.3282 20.5669 41.4113 20.6558Z" fill="#FF725E"/>
<path d="M36.7919 21.8692L39.1158 11.914C39.1682 11.6694 39.1289 11.4124 39.0064 11.1985C38.8838 10.9845 38.6877 10.8306 38.4603 10.7698C38.2329 10.709 37.9922 10.7461 37.7901 10.8733C37.588 11.0004 37.4406 11.2074 37.3794 11.4497L35.0556 21.4049C34.9981 21.6515 35.0344 21.9124 35.1566 22.1302C35.2787 22.3481 35.4767 22.5051 35.7069 22.5667C35.9372 22.6283 36.1809 22.5894 36.3843 22.4586C36.5878 22.3278 36.7344 22.1158 36.7919 21.8692Z" fill="#FF725E"/>
</svg>
