<svg width="40" height="40" viewBox="0 0 32 40" fill="none" xmlns="http://www.w3.org/2000/svg">
<path d="M16.0002 33.5035L31.0718 19.8023L26.6265 15.761L29.9818 12.7106L16.0002 0L2.01824 12.7106L5.37351 15.7609L0.928772 19.8023L16.0002 33.5035ZM3.97965 12.7106L16.0002 1.78287L28.0209 12.7106L25.646 14.8696L25.6457 14.8693L16 23.6385L12.9833 20.896L6.35435 14.8691L6.35409 14.8693L3.97965 12.7106ZM16.0002 25.4214L25.6461 16.6522L29.1109 19.8022L16.0002 31.7204L2.89001 19.8022L6.35435 16.6524L16.0002 25.4214Z" fill="#4F5B5E"/>
<path d="M3.82634 25.4478L4.76257 24.5962L3.78131 23.7046L2.84508 24.5562L3.82634 25.4478Z" fill="#FF725E"/>
<path d="M0.928134 26.3005L1.90863 27.1919L2.88919 26.3005L1.90869 25.4091L0.928134 26.3005Z" fill="#FF725E"/>
<path d="M10.9869 35.4428L11.9954 36.3599L12.9761 35.4686L11.9676 34.5515L10.9869 35.4428Z" fill="#FF725E"/>
<path d="M2.91694 28.1073L3.92548 29.0239L4.90589 28.1324L3.89736 27.2158L2.91694 28.1073Z" fill="#FF725E"/>
<path d="M6.95197 31.7747L7.96056 32.6912L8.94105 31.7999L7.93254 30.8833L6.95197 31.7747Z" fill="#FF725E"/>
<path d="M4.93422 29.9411L5.9425 30.8574L6.9228 29.966L5.91451 29.0496L4.93422 29.9411Z" fill="#FF725E"/>
<path d="M8.96836 33.6089L9.97705 34.5259L10.9576 33.6345L9.94892 32.7175L8.96836 33.6089Z" fill="#FF725E"/>
<path d="M13.0027 37.2761L14.0114 38.1927L14.9919 37.3013L13.9834 36.3843L13.0027 37.2761Z" fill="#FF725E"/>
<path d="M15.0193 39.109L16 40.0005L16.9806 39.1091L15.9999 38.2175L15.0193 39.109Z" fill="#FF725E"/>
<path d="M23.0583 31.801L24.0389 32.6921L25.0474 31.775L24.0669 30.8838L23.0583 31.801Z" fill="#FF725E"/>
<path d="M25.0766 29.967L26.0574 30.8576L27.0657 29.9412L26.0849 29.0498L25.0766 29.967Z" fill="#FF725E"/>
<path d="M27.0937 28.133L28.0743 29.0244L29.0827 28.1077L28.1021 27.2163L27.0937 28.133Z" fill="#FF725E"/>
<path d="M21.0426 33.6345L22.0231 34.5259L23.0318 33.6089L22.0512 32.7175L21.0426 33.6345Z" fill="#FF725E"/>
<path d="M19.0229 35.4677L20.004 36.3591L21.0123 35.4419L20.0312 34.5505L19.0229 35.4677Z" fill="#FF725E"/>
<path d="M17.0089 37.3013L17.9895 38.1927L18.998 37.2761L18.0174 36.3843L17.0089 37.3013Z" fill="#FF725E"/>
<path d="M30.0906 25.4049L29.1103 26.2964L30.0909 27.1876L31.0713 26.2961L30.0906 25.4049Z" fill="#FF725E"/>
<path d="M28.1726 25.4463L29.1531 24.5552L28.2167 23.7037L27.2362 24.5948L28.1726 25.4463Z" fill="#FF725E"/>
<path d="M11.0977 12.7093L10.1176 11.8181L9.1368 12.7095L10.1169 13.6007L11.0977 12.7093Z" fill="#FF725E"/>
<path d="M13.0592 10.9288L12.079 10.0369L11.0982 10.9277L12.0784 11.8197L13.0592 10.9288Z" fill="#FF725E"/>
<path d="M15.02 9.14411L14.0397 8.25244L13.0592 9.14327L14.0395 10.0349L15.02 9.14411Z" fill="#FF725E"/>
<path d="M16.981 7.362L16.0005 6.47046L15.0197 7.36186L16.0002 8.2534L16.981 7.362Z" fill="#FF725E"/>
<path d="M12.0782 13.6008L11.0974 14.4922L12.0776 15.3836L13.0584 14.4922L12.0782 13.6008Z" fill="#FF725E"/>
<path d="M13.0585 12.7107L14.0391 13.6027L15.0197 12.7107L14.0391 11.8188L13.0585 12.7107Z" fill="#FF725E"/>
<path d="M15.0203 10.9247L16.0008 11.8164L16.9818 10.925L16.0013 10.0332L15.0203 10.9247Z" fill="#FF725E"/>
<path d="M17.9612 10.0361L18.9422 9.14467L17.9612 8.25269L16.981 9.14529L17.9612 10.0361Z" fill="#FF725E"/>
<path d="M14.0386 15.3861L13.058 16.2781L14.0391 17.1695L15.0197 16.2776L14.0386 15.3861Z" fill="#FF725E"/>
<path d="M16.0009 15.3844L16.9815 14.4924L16.0004 13.601L15.0198 14.4929L16.0009 15.3844Z" fill="#FF725E"/>
<path d="M18.9426 12.7107L17.9612 11.8188L16.981 12.7107L17.9612 13.602L18.9426 12.7107Z" fill="#FF725E"/>
<path d="M20.9029 10.9271L19.9222 10.0359L18.9422 10.9271L19.9228 11.8183L20.9029 10.9271Z" fill="#FF725E"/>
<path d="M15.0195 18.0597L15.9999 18.9509L16.9804 18.0595L16.0001 17.1683L15.0195 18.0597Z" fill="#FF725E"/>
<path d="M16.9811 16.2769L17.961 17.1682L18.942 16.2769L17.962 15.3856L16.9811 16.2769Z" fill="#FF725E"/>
<path d="M18.9416 14.4904L19.9221 15.3818L20.9027 14.4904L19.9221 13.599L18.9416 14.4904Z" fill="#FF725E"/>
<path d="M21.884 13.5999L22.8643 12.708L21.8833 11.817L20.903 12.7089L21.884 13.5999Z" fill="#FF725E"/>
</svg>
