<svg width="434" height="320" viewBox="0 0 434 320" fill="none" xmlns="http://www.w3.org/2000/svg">
<path d="M6.97426 201.446C7.16681 201.446 7.32304 201.193 7.32304 200.88V122.578H200.011C200.204 122.578 200.36 122.324 200.36 122.012C200.36 121.7 200.204 121.446 200.011 121.446H6.97426C6.78171 121.446 6.62546 121.7 6.62546 122.012V200.878C6.62546 201.19 6.78171 201.444 6.97426 201.444V201.446Z" fill="#155263"/>
<path d="M117.609 91.0754H135.622C135.815 91.0754 135.972 90.9189 135.972 90.7262C135.972 90.5334 135.815 90.377 135.622 90.377H117.609C117.417 90.377 117.26 90.5334 117.26 90.7262C117.26 90.9189 117.417 91.0754 117.609 91.0754Z" fill="#155263"/>
<path d="M258.182 91.0754H292.045C292.238 91.0754 292.394 90.9189 292.394 90.7262C292.394 90.5334 292.238 90.377 292.045 90.377H258.182C257.989 90.377 257.833 90.5334 257.833 90.7262C257.833 90.9189 257.989 91.0754 258.182 91.0754Z" fill="#155263"/>
<path d="M176.218 41.3134C181.029 32.8931 200.392 29.6792 200.392 29.6792C215.448 29.3806 225.003 34.8398 229.691 38.5009C231.764 40.1205 233.492 42.1382 234.76 44.442C243.083 59.5461 246.063 78.9638 247.12 90.944H192.752L163.288 73.6168C163.288 73.6168 171.37 49.7969 176.218 41.315V41.3134Z" fill="#FF725E"/>
<path d="M187.051 73.4461C187.08 73.4461 187.108 73.443 187.136 73.4351C187.323 73.3877 187.437 73.198 187.389 73.0116L182.861 55.1771C182.813 54.9907 182.625 54.8785 182.437 54.9259C182.251 54.9733 182.137 55.1629 182.184 55.3494L186.713 73.1838C186.753 73.3418 186.895 73.4461 187.051 73.4461Z" fill="#155263"/>
<path d="M210.7 48.1569L198.886 72.1205C198.886 72.1205 167.412 73.8902 164.296 79.1535C161.182 84.4167 166.199 86.5025 166.199 86.5025C166.199 86.5025 204.159 91.9443 214.785 88.2074C226.884 83.9522 231.894 60.4974 233.327 51.6157C234.76 42.734 210.7 48.1553 210.7 48.1553V48.1569Z" fill="#FF725E"/>
<path d="M205.835 89.9615C223.379 89.9615 227.584 74.9949 230.406 64.9502C230.657 64.0543 230.899 63.1948 231.139 62.3826C231.192 62.1977 231.088 62.0034 230.903 61.9497C230.72 61.8959 230.526 62.0002 230.47 62.1851C230.23 62.9988 229.987 63.8616 229.734 64.7622C226.852 75.0233 222.492 90.5271 203.538 89.1825C203.345 89.1683 203.179 89.3136 203.165 89.5048C203.151 89.696 203.296 89.8635 203.487 89.8777C204.296 89.9346 205.077 89.963 205.835 89.963V89.9615Z" fill="#155263"/>
<path d="M198.796 72.6451C198.796 72.6451 198.809 72.6451 198.813 72.6451C200.773 72.5472 203.999 72.4097 204.325 72.4587C204.506 72.5203 204.688 72.416 204.75 72.2343C204.811 72.051 204.696 71.8503 204.513 71.7887C204.295 71.716 202.365 71.7697 198.78 71.9483C198.587 71.9578 198.44 72.1221 198.45 72.3133C198.459 72.4997 198.613 72.6451 198.798 72.6451H198.796Z" fill="#155263"/>
<path d="M164.296 79.5009C164.415 79.5009 164.532 79.4393 164.596 79.3302C167.581 74.2866 198.504 72.6607 198.815 72.6449C198.94 72.6386 199.052 72.5659 199.109 72.4537L209.932 50.9598C210.019 50.7875 209.95 50.5789 209.778 50.492C209.605 50.4051 209.397 50.4747 209.31 50.6469L198.576 71.9591C195.631 72.1171 167.071 73.7778 163.996 78.9747C163.898 79.1406 163.953 79.3539 164.118 79.4519C164.173 79.4851 164.235 79.5009 164.295 79.5009H164.296Z" fill="#155263"/>
<path d="M139.089 90.9647H200.316C201.838 90.9647 203.07 89.7323 203.07 88.2106C203.07 86.689 201.838 85.4565 200.316 85.4565H134.363L139.088 90.9647H139.089Z" fill="#155263"/>
<path d="M139.089 90.8919L183.953 90.0782L167.915 52.7723C167.325 51.4119 165.984 50.5317 164.502 50.5317H123.061C120.959 50.5317 119.54 52.6759 120.362 54.6099L134.578 88.0731C135.34 89.8681 137.144 90.9931 139.091 90.8919H139.089Z" fill="#155263"/>
<path d="M142.012 62.8881C142.012 63.6639 142.641 64.2928 143.417 64.2928C144.193 64.2928 144.822 63.6639 144.822 62.8881C144.822 62.1123 144.193 61.4834 143.417 61.4834C142.641 61.4834 142.012 62.1123 142.012 62.8881Z" fill="#FF725E"/>
<path d="M197.827 35.1827C197.906 35.1827 197.985 35.1559 198.05 35.1022C198.197 34.9789 198.218 34.7593 198.094 34.6107C197.742 34.1889 197.251 33.6169 196.728 33.007C195.927 32.0747 195.018 31.0176 194.449 30.3082C194.329 30.1581 194.109 30.1328 193.959 30.2544C193.809 30.3745 193.785 30.5942 193.906 30.7443C194.481 31.4632 195.394 32.525 196.198 33.462C196.72 34.0688 197.21 34.6376 197.559 35.0579C197.628 35.1401 197.726 35.1827 197.827 35.1827Z" fill="#155263"/>
<path d="M200.679 20.3662L205.181 27.0721C205.807 28.0044 206.69 28.7328 207.725 29.1673L210.702 30.4219C210.702 30.4219 204.924 43.3723 194.92 40.9469C194.92 40.9469 188.397 38.9544 194.591 30.9828L192.566 28.3583L200.681 20.3662H200.679Z" fill="white"/>
<path d="M210.7 30.7714C210.836 30.7714 210.966 30.6908 211.021 30.5581C211.095 30.3811 211.013 30.1757 210.835 30.1015L207.858 28.8469C206.884 28.436 206.058 27.7566 205.469 26.8781L200.969 20.1722C200.861 20.0126 200.646 19.9699 200.485 20.0774C200.325 20.1848 200.283 20.4013 200.39 20.5609L204.89 27.2668C205.556 28.2575 206.488 29.027 207.588 29.49L210.564 30.7445C210.609 30.7635 210.655 30.7714 210.7 30.7714Z" fill="#155263"/>
<path d="M196.622 33.7672C196.698 33.7672 196.775 33.7419 196.84 33.6914C196.99 33.5713 197.014 33.3516 196.894 33.2015L193.032 28.387L200.924 20.6161C201.062 20.4818 201.063 20.2606 200.929 20.1231C200.793 19.9857 200.574 19.9841 200.436 20.12L192.321 28.1121C192.193 28.2369 192.182 28.4391 192.294 28.5782L196.352 33.6376C196.421 33.723 196.522 33.7688 196.623 33.7688L196.622 33.7672Z" fill="#155263"/>
<path d="M201.067 3.66478C199.802 3.91285 198.794 4.55595 198.109 5.58301C197.774 4.04084 196.745 2.70092 195.441 1.80975C194.139 0.920163 192.581 0.454037 191.012 0.278647C187.576 -0.105315 183.932 0.950185 181.464 3.37246C178.994 5.79316 177.868 9.60433 178.939 12.8925C180.01 16.1807 183.387 18.6598 186.835 18.3928C186.43 20.2889 186.149 22.2466 186.451 24.1617C186.752 26.0768 187.708 27.9602 189.336 29.0126C191.177 30.204 193.624 30.1597 195.655 29.3286C197.684 28.4975 199.354 26.9743 200.809 25.3341C201.657 24.3782 202.448 23.3732 203.266 22.3904C203.685 21.8879 204.105 21.3792 204.555 20.9051C204.848 20.597 205.219 20.3884 205.445 20.0282C206.679 18.0641 207.526 16.6721 207.194 12.8893C207.071 11.4799 205.142 2.86209 201.067 3.66478Z" fill="#155263"/>
<path d="M189.451 10.8223C189.451 10.8223 187.644 15.7237 187.16 19.3026C187.042 20.1764 187.465 21.0249 188.23 21.4642C189.467 22.1736 191.741 22.9795 195.358 22.5449C201.338 21.8276 201.419 17.3149 201.711 15.5578C202.079 13.352 201.067 11.6155 197.524 12.5066C192.561 13.7533 189.45 10.8223 189.45 10.8223H189.451Z" fill="white"/>
<path d="M193.384 23.0175C194.007 23.0175 194.677 22.9796 195.4 22.8927C201.142 22.2038 201.711 18.0877 201.985 16.1094C202.01 15.9293 202.032 15.7634 202.057 15.6164C202.277 14.3002 202.022 13.2621 201.322 12.6174C200.518 11.8748 199.211 11.7246 197.44 12.1702C192.735 13.3537 189.72 10.598 189.69 10.5696C189.605 10.4906 189.486 10.4574 189.371 10.4843C189.257 10.5111 189.164 10.5933 189.124 10.7023C189.05 10.9046 187.298 15.6812 186.816 19.2569C186.68 20.2713 187.166 21.2557 188.058 21.7677C189.118 22.376 190.84 23.0175 193.384 23.0175ZM199.221 12.619C199.93 12.619 200.482 12.7896 200.85 13.1293C201.506 13.7329 201.495 14.7521 201.368 15.5011C201.343 15.6527 201.319 15.825 201.292 16.013C201.024 17.9565 200.523 21.5765 195.315 22.2006C191.826 22.6194 189.63 21.8672 188.401 21.1641C187.756 20.7944 187.403 20.0833 187.503 19.3517C187.889 16.4855 189.156 12.7075 189.611 11.407C190.625 12.1655 193.492 13.8815 197.608 12.8465C198.208 12.6948 198.749 12.6206 199.218 12.6206L199.221 12.619Z" fill="#155263"/>
<path d="M201.798 22.033C201.798 22.033 202.721 20.2649 203.342 18.402C203.342 18.402 207.099 16.4474 207.67 19.4559C208.24 22.4644 203.688 25.0099 201.798 22.033Z" fill="white"/>
<path d="M204.122 23.708C204.606 23.708 205.078 23.6053 205.499 23.4378C207.014 22.839 208.363 21.2557 208.009 19.3912C207.85 18.5522 207.45 17.9723 206.821 17.6674C205.377 16.9674 203.268 18.0482 203.179 18.094C203.099 18.1351 203.038 18.2078 203.01 18.2931C202.405 20.107 201.496 21.8562 201.488 21.8736C201.432 21.9842 201.436 22.1169 201.503 22.2212C202.196 23.313 203.178 23.7096 204.122 23.7096V23.708ZM205.684 18.124C205.979 18.124 206.268 18.1714 206.519 18.2931C206.944 18.5001 207.208 18.9014 207.327 19.5192C207.607 20.9966 206.463 22.3065 205.244 22.7884C204.031 23.2688 202.907 22.9749 202.203 22.0063C202.449 21.5165 203.117 20.1355 203.626 18.6502C203.949 18.5016 204.851 18.1224 205.687 18.1224L205.684 18.124Z" fill="#155263"/>
<path d="M203.173 21.7093C203.26 21.7093 203.345 21.6777 203.413 21.6129C204.002 21.0535 204.865 20.7849 205.669 20.9113C205.861 20.9413 206.037 20.8118 206.068 20.6222C206.098 20.4326 205.968 20.254 205.778 20.224C204.767 20.0644 203.677 20.4025 202.934 21.1088C202.795 21.2416 202.789 21.4628 202.922 21.6018C202.989 21.6745 203.081 21.7109 203.174 21.7109L203.173 21.7093Z" fill="#155263"/>
<path d="M126.636 211.184C126.828 211.184 126.984 211.029 126.986 210.838L127.199 176.217H185.073C185.266 176.217 185.422 176.061 185.422 175.868C185.422 175.675 185.266 175.519 185.073 175.519H126.853C126.662 175.519 126.505 175.673 126.504 175.865L126.289 210.832C126.289 211.025 126.442 211.181 126.635 211.183H126.636V211.184Z" fill="#155263"/>
<path d="M233.169 87.0619C236.325 84.9983 241.226 85.7394 243.049 89.0402C244.827 86.6874 248.221 85.7109 250.977 86.7617C253.732 87.8109 255.617 90.7972 255.38 93.7362C255.249 95.3526 254.65 97.2803 255.839 98.3848C257.025 99.4861 259.174 98.8304 260.345 99.9491C261.252 100.815 261.102 102.292 260.756 103.498C259.092 109.28 254.075 114.149 248.112 114.95C243.552 115.562 238.671 113.505 235.922 109.814C233.134 106.069 229.74 101.749 229.126 97.0007C228.642 93.2606 230.015 89.1287 233.171 87.0651L233.169 87.0619Z" fill="#155263"/>
<path d="M255.123 128.727L249.498 110.762L238.622 113.461L242.201 127.816L255.123 128.727Z" fill="white"/>
<path d="M255.121 129.075C255.227 129.075 255.328 129.026 255.395 128.942C255.466 128.852 255.488 128.732 255.453 128.621L249.83 110.656C249.774 110.48 249.593 110.378 249.412 110.422L238.537 113.122C238.447 113.144 238.369 113.201 238.322 113.28C238.274 113.359 238.26 113.454 238.282 113.544L241.861 127.899C241.898 128.046 242.024 128.152 242.176 128.163L255.098 129.073C255.106 129.073 255.113 129.073 255.123 129.073L255.121 129.075ZM249.262 111.179L254.636 128.343L242.477 127.485L239.044 113.715L249.262 111.179Z" fill="#155263"/>
<path d="M248.589 106.048C248.752 104.94 248.916 103.819 248.79 102.706C248.664 101.594 248.21 100.475 247.338 99.7735C246.096 98.7749 244.293 98.8302 242.773 99.3074C241.253 99.7861 239.862 100.625 238.334 101.077C236.807 101.529 234.991 101.518 233.801 100.458C233.849 103.046 233.894 105.634 233.942 108.222C233.986 110.709 234.138 113.462 235.89 115.227C237.45 116.797 239.911 117.131 242.09 116.744C245.244 116.186 248.133 114.265 249.868 111.57C251.136 111.738 252.483 111.509 253.541 110.788C254.6 110.068 255.328 108.827 255.284 107.548C255.24 106.268 254.347 105.021 253.107 104.705C252.255 104.488 251.38 104.778 250.732 105.342C249.789 106.162 249.962 106.486 248.591 106.046L248.589 106.048Z" fill="white"/>
<path d="M240.45 117.24C241.002 117.24 241.572 117.189 242.15 117.087C245.315 116.527 248.248 114.609 250.04 111.942C251.411 112.076 252.715 111.771 253.737 111.078C254.935 110.264 255.678 108.873 255.632 107.537C255.581 106.048 254.556 104.716 253.192 104.369C252.285 104.138 251.28 104.403 250.503 105.08C250.291 105.265 250.131 105.426 250.003 105.555C249.643 105.92 249.582 105.985 248.978 105.803C249.126 104.781 249.258 103.729 249.136 102.667C248.983 101.322 248.422 100.199 247.556 99.5019C246.383 98.5586 244.601 98.3674 242.667 98.9758C241.913 99.2128 241.19 99.5367 240.488 99.8511C239.758 100.178 239.003 100.516 238.235 100.744C236.546 101.243 234.975 101.039 234.033 100.199C233.931 100.107 233.782 100.083 233.656 100.142C233.529 100.2 233.45 100.327 233.452 100.464L233.591 108.229C233.64 110.898 233.838 113.656 235.64 115.472C236.78 116.619 238.507 117.24 240.449 117.24H240.45ZM249.866 111.223C249.749 111.223 249.637 111.283 249.574 111.383C247.897 113.985 245.077 115.861 242.029 116.401C239.64 116.824 237.439 116.292 236.137 114.98C234.515 113.347 234.335 110.743 234.289 108.216L234.161 101.142C235.28 101.782 236.819 101.888 238.432 101.411C239.246 101.171 240.022 100.823 240.774 100.486C241.457 100.181 242.163 99.8654 242.877 99.6394C243.686 99.385 245.717 98.9157 247.12 100.044C247.842 100.624 248.311 101.583 248.444 102.744C248.566 103.819 248.403 104.925 248.245 105.996C248.22 106.165 248.321 106.326 248.483 106.378C249.64 106.75 249.915 106.639 250.501 106.044C250.626 105.917 250.768 105.772 250.961 105.604C251.566 105.078 252.336 104.868 253.021 105.042C254.074 105.31 254.897 106.391 254.936 107.557C254.974 108.662 254.35 109.815 253.345 110.498C252.424 111.124 251.173 111.389 249.913 111.223C249.899 111.221 249.883 111.22 249.868 111.22L249.866 111.223Z" fill="#155263"/>
<path d="M250.078 109.997C250.201 109.997 250.319 109.932 250.383 109.817C250.852 108.965 251.644 108.28 252.551 107.934C252.731 107.866 252.821 107.663 252.753 107.483C252.685 107.303 252.484 107.213 252.302 107.281C251.242 107.685 250.321 108.487 249.773 109.479C249.68 109.648 249.741 109.86 249.909 109.953C249.962 109.983 250.019 109.997 250.076 109.997H250.078Z" fill="#155263"/>
<path d="M241.754 109.706C240.248 109.706 239.028 108.198 239.028 106.339C239.028 104.479 240.248 102.972 241.754 102.972C243.259 102.972 244.479 104.479 244.479 106.339C244.479 108.198 243.259 109.706 241.754 109.706Z" fill="white"/>
<path d="M241.754 110.055C243.449 110.055 244.829 108.388 244.829 106.339C244.829 104.29 243.449 102.623 241.754 102.623C240.058 102.623 238.679 104.29 238.679 106.339C238.679 108.388 240.058 110.055 241.754 110.055ZM241.754 103.319C243.065 103.319 244.132 104.674 244.132 106.339C244.132 108.004 243.065 109.358 241.754 109.358C240.442 109.358 239.376 108.004 239.376 106.339C239.376 104.674 240.442 103.319 241.754 103.319Z" fill="#155263"/>
<path d="M234.056 109.493C232.55 109.493 231.33 107.985 231.33 106.125C231.33 104.266 232.55 102.758 234.056 102.758C235.561 102.758 236.781 104.266 236.781 106.125C236.781 107.985 235.561 109.493 234.056 109.493Z" fill="white"/>
<path d="M234.056 109.842C235.751 109.842 237.13 108.175 237.13 106.126C237.13 104.076 235.751 102.409 234.056 102.409C232.36 102.409 230.981 104.076 230.981 106.126C230.981 108.175 232.36 109.842 234.056 109.842ZM234.056 103.106C235.367 103.106 236.434 104.46 236.434 106.126C236.434 107.791 235.367 109.145 234.056 109.145C232.744 109.145 231.678 107.791 231.678 106.126C231.678 104.46 232.744 103.106 234.056 103.106Z" fill="#155263"/>
<path d="M236.827 106.691C236.965 106.691 237.096 106.609 237.149 106.473C237.265 106.187 237.456 105.841 237.714 105.81C238.082 105.767 238.562 106.284 238.744 106.54C238.854 106.696 239.072 106.734 239.229 106.622C239.385 106.511 239.423 106.293 239.313 106.137C239.232 106.021 238.494 105.018 237.634 105.116C237.156 105.171 236.775 105.54 236.505 106.21C236.432 106.388 236.519 106.59 236.698 106.663C236.74 106.68 236.784 106.688 236.829 106.688L236.827 106.691Z" fill="#155263"/>
<path d="M244.481 106.688C244.491 106.688 244.5 106.688 244.508 106.688L248.763 106.353C248.954 106.337 249.098 106.17 249.084 105.978C249.068 105.787 248.897 105.643 248.709 105.658L244.454 105.993C244.263 106.008 244.119 106.176 244.133 106.367C244.148 106.55 244.301 106.688 244.481 106.688Z" fill="#155263"/>
<path d="M302.87 179.877C302.715 169.623 297.501 156.534 292.908 146.941C288.728 138.214 280.787 131.88 271.343 129.777C267.438 128.908 261.611 127.591 257.346 126.923C241.729 124.474 220.772 128.701 215.088 129.513C198.886 131.824 204.479 152.911 205.232 158.992C207.033 173.523 213.625 175.395 213.625 175.395L243.065 175.779L254.982 183.691C254.982 183.691 268.78 191.76 274.119 195.172C287.173 203.511 303.148 198.299 302.868 179.877H302.87Z" fill="#FF725E"/>
<path d="M274.572 165.861C274.602 165.861 274.634 165.858 274.664 165.849C274.85 165.798 274.959 165.607 274.909 165.422C273.883 161.628 272.431 157.945 270.594 154.472C270.504 154.301 270.293 154.237 270.123 154.327C269.952 154.417 269.887 154.629 269.977 154.798C271.791 158.225 273.224 161.859 274.236 165.602C274.278 165.757 274.419 165.86 274.572 165.86V165.861Z" fill="#155263"/>
<path d="M288.75 174.588C288.864 174.588 288.976 174.533 289.043 174.43C289.149 174.269 289.103 174.052 288.942 173.948C279.384 167.708 269.227 162.247 258.749 157.716C258.571 157.638 258.367 157.72 258.291 157.897C258.215 158.074 258.296 158.28 258.473 158.356C268.914 162.872 279.036 168.315 288.561 174.533C288.619 174.57 288.686 174.589 288.75 174.589V174.588Z" fill="#155263"/>
<path d="M213.628 167.847C213.628 167.847 222.957 153.091 228.302 151.131C234.684 148.791 256.749 157.338 256.749 157.338C256.749 157.338 256.453 165.308 247.189 175.394C247.189 175.394 213.314 171.311 213.628 167.847Z" fill="white"/>
<path d="M219.926 169.493C220.058 169.493 220.182 169.419 220.242 169.293C221.894 165.788 224.343 162.625 227.321 160.147C227.47 160.024 227.489 159.804 227.365 159.656C227.242 159.509 227.023 159.487 226.874 159.612C223.818 162.154 221.306 165.399 219.61 168.997C219.528 169.171 219.603 169.38 219.776 169.462C219.825 169.484 219.874 169.495 219.925 169.495L219.926 169.493Z" fill="#155263"/>
<path d="M227.045 171.257C227.182 171.257 227.313 171.175 227.369 171.039C228.576 168.046 230.393 165.232 232.624 162.901C232.757 162.762 232.752 162.541 232.613 162.408C232.476 162.276 232.254 162.281 232.12 162.42C229.829 164.815 227.961 167.705 226.721 170.778C226.65 170.957 226.735 171.159 226.914 171.232C226.956 171.249 227.001 171.257 227.043 171.257H227.045Z" fill="#155263"/>
<path d="M244.328 124.87L245.734 121.862L255.753 121.137L257.593 127.06L245.921 133.877L244.404 128.727L239.232 133.986L237.284 127.173L239.302 121.862H243.155L244.328 124.87Z" fill="#FF725E"/>
<path d="M239.23 134.333C239.322 134.333 239.412 134.297 239.478 134.229L244.235 129.393L245.584 133.975C245.614 134.077 245.69 134.161 245.789 134.201C245.889 134.24 246.001 134.232 246.094 134.177L257.766 127.361C257.932 127.264 257.989 127.051 257.891 126.883C257.795 126.717 257.582 126.661 257.414 126.758L246.126 133.351L244.735 128.626C244.701 128.508 244.606 128.416 244.486 128.386C244.366 128.356 244.239 128.392 244.152 128.479L239.399 133.311L237.617 127.075C237.563 126.89 237.371 126.782 237.186 126.836C237.001 126.888 236.893 127.082 236.946 127.267L238.892 134.079C238.927 134.198 239.022 134.291 239.142 134.321C239.17 134.329 239.199 134.332 239.227 134.332L239.23 134.333Z" fill="#155263"/>
<path d="M179.452 176.256H247.325V174.212C247.325 172.413 245.868 170.957 244.07 170.957H174.681L175.238 173.026C175.752 174.932 177.479 176.258 179.454 176.258L179.452 176.256Z" fill="#155263"/>
<path d="M177.517 173.858H218.465C220.214 173.858 221.499 172.216 221.077 170.519L213.337 139.298C213.04 138.097 211.963 137.253 210.726 137.253H169.778C168.028 137.253 166.744 138.895 167.166 140.592L174.905 171.813C175.202 173.014 176.28 173.858 177.517 173.858Z" fill="#155263"/>
<path d="M190.066 149.302C190.066 150.049 190.671 150.654 191.418 150.654C192.166 150.654 192.771 150.049 192.771 149.302C192.771 148.554 192.166 147.949 191.418 147.949C190.671 147.949 190.066 148.554 190.066 149.302Z" fill="#FF725E"/>
<path d="M221.914 320C222.107 320 222.264 319.671 222.264 319.266V249.18H291.576C291.769 249.18 291.926 248.851 291.926 248.445C291.926 248.04 291.769 247.711 291.576 247.711H221.916C221.722 247.711 221.565 248.04 221.565 248.445V319.262C221.565 319.668 221.722 319.997 221.916 319.997L221.914 320Z" fill="#155263"/>
<path d="M336.232 186.086C339.485 181.685 344.455 178.887 349.898 178.384C352.998 178.098 358.917 177.575 363.252 177.354C363.49 178.136 363.824 178.893 364.257 179.607C365.513 181.679 367.481 183.273 369.675 184.264C371.869 185.255 374.325 185.703 376.723 185.413C379.071 185.128 381.306 184.126 382.928 182.376C384.251 180.947 385.839 179.222 386.245 177.351C390.178 177.574 393.185 176.747 396.876 177.327C403.921 178.433 414.586 181.221 418.882 189.347C421.985 195.215 427.171 211.887 427.171 211.887L390.807 248.48L345.667 247.363L326.951 242.272C326.951 242.272 324.939 201.365 336.23 186.087L336.232 186.086Z" fill="#FF725E"/>
<path d="M397.876 212.233C397.912 212.233 397.949 212.227 397.985 212.216C398.168 212.156 398.268 211.958 398.208 211.776C397.775 210.454 397.554 209.694 397.339 208.961C397.111 208.183 396.898 207.448 396.457 206.143C396.154 205.243 395.065 204.462 394.032 204.4C393.844 204.389 393.675 204.536 393.664 204.728C393.652 204.92 393.799 205.085 393.991 205.096C394.725 205.138 395.587 205.744 395.797 206.366C396.233 207.657 396.446 208.385 396.67 209.157C396.887 209.896 397.11 210.661 397.546 211.994C397.593 212.141 397.731 212.235 397.878 212.235L397.876 212.233Z" fill="#155263"/>
<path d="M344.268 225.403C344.441 225.403 344.591 225.275 344.614 225.098L347.089 205.699C347.113 205.508 346.978 205.334 346.787 205.309C346.596 205.285 346.422 205.419 346.397 205.611L343.922 225.009C343.899 225.201 344.033 225.374 344.224 225.4C344.238 225.401 344.254 225.403 344.268 225.403Z" fill="#155263"/>
<path d="M371.515 228.576C373.443 228.405 377.153 227.324 377.153 227.324C383.741 227.075 392.836 227.053 402.574 226.789C402.588 226.789 397.996 212.291 397.996 212.291C397.996 212.291 421.331 211.885 427.173 211.885C427.173 211.885 432.309 229.235 433.125 234.793C434.261 242.531 430.277 247.335 430.277 247.335C425.749 254.872 412.198 254.813 404.476 254.535C395.239 254.203 390.176 251.945 379.487 250.819L371.517 228.576H371.515Z" fill="white"/>
<path d="M409.613 254.875C412.266 254.875 414.971 254.75 417.687 254.462L417.918 254.438C423.521 253.855 427.923 251.427 430.647 247.412C433.668 242.962 434.424 236.934 432.719 230.876C432.085 228.626 431.553 226.744 431.047 224.96C429.958 221.114 429.016 217.793 427.481 212.222C427.43 212.035 427.236 211.928 427.052 211.978C426.868 212.029 426.759 212.222 426.809 212.406C428.347 217.979 429.287 221.302 430.377 225.15C430.883 226.934 431.415 228.814 432.049 231.064C433.673 236.838 432.935 242.803 430.072 247.02C427.466 250.858 423.238 253.184 417.847 253.745L417.615 253.768C405.694 255.033 393.95 253.13 386.196 251.311C384.417 250.894 381.705 251.436 378.834 252.01C376.344 252.508 373.775 253.021 371.52 252.996H371.515C371.324 252.996 371.169 253.149 371.166 253.34C371.163 253.533 371.318 253.691 371.511 253.693C373.837 253.721 376.445 253.198 378.97 252.694C381.765 252.136 384.404 251.609 386.035 251.991C392.077 253.408 400.529 254.875 409.611 254.875H409.613Z" fill="#155263"/>
<path d="M391.99 247.918C392.311 250.086 390.119 251.759 388.119 250.872C384.03 249.059 379.601 248.142 375.131 248.188L355.789 248.382C355.789 248.382 354.931 224.573 382.277 227.59C382.277 227.59 389.876 233.624 391.99 247.919V247.918Z" fill="white"/>
<path d="M370.035 248.826C370.052 248.826 370.068 248.826 370.085 248.823C370.275 248.794 370.408 248.617 370.379 248.428C370.182 247.066 370.501 245.551 371.28 244.16C371.937 242.988 372.912 241.88 374.26 240.774C374.511 240.568 374.781 240.357 375.077 240.226C375.254 240.148 375.333 239.943 375.256 239.766C375.178 239.59 374.974 239.508 374.796 239.587C374.418 239.753 374.091 240.008 373.816 240.235C372.4 241.396 371.372 242.569 370.67 243.819C369.815 245.342 369.468 247.015 369.687 248.527C369.713 248.701 369.861 248.826 370.032 248.826H370.035Z" fill="#155263"/>
<path d="M363.783 248.467C363.953 248.467 364.103 248.341 364.127 248.167C364.361 246.519 364.696 244.591 365.412 242.792C366.148 240.941 367.229 239.432 368.535 238.426C368.689 238.309 368.717 238.089 368.599 237.938C368.482 237.784 368.262 237.756 368.11 237.874C366.704 238.957 365.546 240.567 364.764 242.534C364.02 244.402 363.675 246.38 363.436 248.069C363.41 248.26 363.542 248.436 363.732 248.463C363.749 248.464 363.765 248.466 363.781 248.466L363.783 248.467Z" fill="#155263"/>
<path d="M358.774 248.468C358.788 248.468 358.8 248.468 358.815 248.465C359.006 248.443 359.142 248.269 359.12 248.078C358.287 241.086 362.857 236.72 362.902 236.676C363.043 236.544 363.051 236.323 362.92 236.183C362.789 236.042 362.567 236.034 362.428 236.165C362.229 236.352 357.552 240.806 358.428 248.158C358.448 248.335 358.6 248.465 358.774 248.465V248.468Z" fill="#155263"/>
<path d="M414.586 227.231C414.777 227.231 414.932 227.076 414.935 226.885C414.935 226.692 414.781 226.536 414.589 226.534L402.575 226.438H402.572C402.381 226.438 402.226 226.593 402.223 226.784C402.223 226.977 402.376 227.133 402.569 227.135L414.582 227.231H414.586Z" fill="#155263"/>
<path d="M376.777 159.817L383.083 175.248C383.426 176.253 384.281 176.999 385.322 177.201L387.715 177.215C387.715 177.215 377.716 203.849 367.235 201.585C356.753 199.319 362.838 177.669 362.838 177.669L367.589 177.154C368.703 176.981 369.566 175.687 369.232 174.395L366.388 164.935C366.388 164.935 373.29 161.248 376.777 159.818V159.817Z" fill="white"/>
<path d="M356.359 140.791C357.084 137.206 360.26 134.962 363.057 134.448C364.98 134.095 366.69 134.262 367.744 135.009C372.089 138.086 370.397 137.929 376.497 139.084C380.89 139.917 382.123 148.307 382.181 151.891C382.183 152.03 382.176 152.166 382.168 152.302C386.163 151.455 390.526 154.027 392.343 158.524C394.349 163.489 392.497 168.918 388.208 170.651C383.918 172.385 378.812 169.767 376.806 164.804C375.956 162.7 375.801 160.514 376.227 158.561C374.464 158.96 372.772 158.671 371.901 157.481C370.746 155.903 369.657 154.656 368.82 153.759C365.935 154.021 360.008 149.494 359.908 149.445C356.554 147.799 355.44 145.331 356.358 140.791H356.359Z" fill="#155263"/>
<path d="M374.048 161.96C374.048 161.96 371.446 167.98 364.628 166.869C357.81 165.757 357.638 157.069 358.246 147.838C358.927 148.711 360.657 149.7 361.657 149.896C366.889 150.916 369.398 148.542 370.383 149.864C370.926 150.594 372.732 154.892 373.279 154.946C373.279 154.946 375.674 152.002 378.247 153.682C380.819 155.36 379.862 162.442 374.048 161.961V161.96Z" fill="white"/>
<path d="M366.255 167.352C371.332 167.352 373.737 163.328 374.258 162.323C376.812 162.448 378.801 161.136 379.61 158.779C380.35 156.625 379.846 154.307 378.438 153.389C376.366 152.038 374.257 153.383 373.239 154.463C372.862 153.967 372.151 152.522 371.7 151.608C371.263 150.719 370.885 149.952 370.664 149.654C370.079 148.868 369.16 149.071 367.889 149.349C366.458 149.662 364.494 150.091 361.727 149.553C360.826 149.377 359.17 148.453 358.522 147.623C358.432 147.509 358.282 147.462 358.145 147.505C358.007 147.547 357.909 147.671 357.9 147.814C357.322 156.578 357.314 166.027 364.573 167.212C365.163 167.308 365.726 167.352 366.257 167.352H366.255ZM374.048 161.61C373.911 161.61 373.784 161.692 373.729 161.82C373.626 162.056 371.144 167.58 364.685 166.524C358.206 165.467 358.04 156.87 358.545 148.639C359.434 149.404 360.757 150.074 361.591 150.237C364.501 150.804 366.628 150.338 368.036 150.03C369.218 149.771 369.801 149.665 370.103 150.071C370.286 150.317 370.669 151.095 371.073 151.916C372.34 154.49 372.778 155.244 373.244 155.291C373.361 155.302 373.475 155.255 373.549 155.165C373.639 155.054 375.783 152.487 378.055 153.972C379.185 154.71 379.577 156.721 378.95 158.553C378.602 159.566 377.436 161.89 374.077 161.613C374.067 161.613 374.058 161.613 374.048 161.613V161.61Z" fill="#155263"/>
<path d="M374.45 159.588C374.595 159.588 374.729 159.496 374.78 159.352C374.927 158.924 375.077 158.482 375.33 158.129C375.583 157.778 375.929 157.554 376.259 157.532C376.45 157.519 376.595 157.352 376.583 157.161C376.57 156.968 376.4 156.824 376.211 156.837C375.669 156.875 375.142 157.197 374.764 157.723C374.451 158.159 374.284 158.652 374.121 159.128C374.059 159.31 374.156 159.509 374.337 159.57C374.374 159.583 374.413 159.589 374.45 159.589V159.588Z" fill="#155263"/>
<path d="M362.834 178.016C362.847 178.016 362.861 178.016 362.876 178.014L367.442 177.485C368.196 177.395 368.829 177.024 369.229 176.439C369.64 175.839 369.763 175.061 369.569 174.308L367.393 166.978C367.338 166.793 367.145 166.688 366.96 166.742C366.775 166.797 366.669 166.99 366.725 167.175L368.897 174.492C369.038 175.039 368.951 175.61 368.654 176.044C368.369 176.46 367.911 176.725 367.361 176.791L362.797 177.321C362.605 177.343 362.468 177.517 362.49 177.708C362.511 177.885 362.661 178.016 362.836 178.016H362.834Z" fill="#155263"/>
<path d="M292.31 255.139H388.571C389.141 255.139 389.712 254.992 390.181 254.668C391.282 253.91 391.665 252.552 391.229 251.386C390.094 249.002 387.563 247.845 384.095 247.845H285.69L287.271 251.634C288.058 253.741 290.067 255.137 292.312 255.137L292.31 255.139Z" fill="white"/>
<path d="M292.31 255.488H388.571C389.249 255.488 389.875 255.305 390.379 254.955C391.575 254.131 392.058 252.614 391.556 251.266C390.38 248.792 387.805 247.499 384.096 247.499H285.688C285.571 247.499 285.462 247.557 285.397 247.654C285.333 247.75 285.322 247.874 285.366 247.981L286.948 251.77C287.775 253.988 289.932 255.486 292.31 255.486V255.488ZM384.095 248.196C387.515 248.196 389.873 249.351 390.913 251.538C391.292 252.558 390.914 253.739 389.982 254.382C389.593 254.649 389.105 254.791 388.569 254.791H292.31C290.221 254.791 288.327 253.475 287.595 251.516L286.211 248.196H384.096H384.095Z" fill="#155263"/>
<path d="M291.767 255.139C289.842 255.139 288.11 253.963 287.398 252.171L270.357 209.327C269.905 208.191 270.044 206.903 270.73 205.891C271.415 204.878 272.558 204.271 273.779 204.271H332.941C336.505 204.271 339.685 206.521 340.874 209.888L356.87 255.139H291.767Z" fill="white"/>
<path d="M291.765 255.488H356.87C356.982 255.488 357.088 255.434 357.152 255.343C357.217 255.251 357.236 255.134 357.2 255.028L355.195 249.073C355.133 248.891 354.937 248.792 354.754 248.853C354.572 248.915 354.474 249.113 354.534 249.294L356.385 254.79H291.767C289.973 254.79 288.387 253.712 287.722 252.042L270.68 209.198C270.27 208.166 270.396 207.003 271.019 206.085C271.64 205.167 272.671 204.619 273.779 204.619H329.545C329.738 204.619 329.894 204.462 329.894 204.27C329.894 204.077 329.738 203.92 329.545 203.92H273.779C272.441 203.92 271.192 204.582 270.442 205.693C269.691 206.802 269.538 208.209 270.033 209.454L287.074 252.298C287.843 254.234 289.686 255.485 291.767 255.485L291.765 255.488Z" fill="#155263"/>
<path d="M290.125 248.382H348.78C348.972 248.382 349.129 248.226 349.129 248.033C349.129 247.841 348.972 247.684 348.78 247.684H290.125C289.932 247.684 289.776 247.841 289.776 248.033C289.776 248.226 289.932 248.382 290.125 248.382Z" fill="#155263"/>
<path d="M367.903 212.767C372.121 207.601 368.076 206.148 369.349 202.32C370.46 198.983 372.666 197.957 374.734 198.035C372.761 195.998 372.008 192.677 373.061 189.447C374.11 186.222 376.665 183.983 379.452 183.492C377.855 181.46 377.122 178.57 377.694 175.583C378.659 170.544 382.973 167.138 387.327 167.972C391.682 168.806 394.43 173.569 393.463 178.607C392.657 182.814 389.517 185.881 385.97 186.295C387.357 188.331 387.782 191.172 386.88 193.945C385.649 197.725 382.353 200.152 379.035 199.994C379.169 200.165 379.277 200.337 379.345 200.504C379.345 200.504 381.446 203.107 379.318 208.335C377.777 212.121 371.387 213.355 368.433 213.73C367.903 213.796 367.565 213.183 367.903 212.769V212.767Z" fill="#155263"/>
<path d="M97.9847 211.014L96.1154 204.429C96.1154 204.429 91.835 179.655 75.7355 179.671C53.7564 179.691 25.9453 180.233 17.3322 182.684C5.36143 186.091 2.07645 202.721 0.526382 218.558C-1.02368 234.397 -0.0551224 252.538 16.1345 256.534C32.3241 260.529 48.3746 239.822 48.3746 239.822H77.2097C77.2097 239.822 112.725 239.744 115.952 239.678C120.482 234.731 118.616 222.97 121.95 215.877L97.9847 211.014Z" fill="#FF725E"/>
<path d="M19.7339 230.793C19.8114 230.793 19.8904 230.766 19.9552 230.714C25.013 226.539 30.3664 222.61 35.8635 219.034C36.0247 218.93 36.0705 218.713 35.9662 218.552C35.8619 218.391 35.6455 218.345 35.4843 218.449C29.9651 222.039 24.5912 225.985 19.5128 230.177C19.3642 230.299 19.3437 230.52 19.4653 230.667C19.5349 230.75 19.6344 230.793 19.7339 230.793Z" fill="#155263"/>
<path d="M26.345 225.237C26.5267 225.237 26.68 225.097 26.6926 224.913L27.7387 210.049C27.8066 209.087 27.8841 207.997 28.3391 207.106C28.4276 206.935 28.3596 206.725 28.1874 206.636C28.0168 206.548 27.8066 206.616 27.7181 206.788C27.1967 207.806 27.1145 208.972 27.0418 210L25.9958 224.864C25.9816 225.056 26.127 225.223 26.3182 225.236C26.3261 225.236 26.3356 225.236 26.3435 225.236L26.345 225.237Z" fill="#155263"/>
<path d="M95.7947 235.353H62.0139C60.0878 235.353 58.74 233.451 59.3768 231.633L73.2531 192.06C73.6466 190.94 74.7036 190.191 75.8903 190.191H109.671C111.597 190.191 112.945 192.093 112.308 193.91L98.4318 233.484C98.0384 234.604 96.9813 235.353 95.7947 235.353Z" fill="white"/>
<path d="M105.915 212.491C106.059 212.491 106.193 212.401 106.244 212.257L112.637 194.024C112.978 193.05 112.833 192.008 112.235 191.166C111.638 190.324 110.704 189.84 109.671 189.84H90.7779C90.5851 189.84 90.4287 189.997 90.4287 190.19C90.4287 190.382 90.5851 190.539 90.7779 190.539H109.671C110.475 190.539 111.202 190.915 111.667 191.571C112.131 192.226 112.245 193.037 111.98 193.795L105.586 212.03C105.523 212.211 105.618 212.41 105.8 212.474C105.838 212.486 105.877 212.493 105.915 212.493V212.491Z" fill="#155263"/>
<path d="M92.0356 197.624C92.6787 198.267 92.6787 199.311 92.0356 199.956C91.3925 200.599 90.3481 200.599 89.7034 199.956C89.0603 199.313 89.0603 198.269 89.7034 197.624C90.3465 196.981 91.3909 196.981 92.0356 197.624Z" fill="#E2EAFF"/>
<path d="M74.7922 214.012C74.7922 214.012 77.1133 213.508 76.1889 211.22C75.3562 209.161 63.3681 204.213 42.7764 214.869C40.6749 215.956 38.7819 216.954 37.0738 217.872C38.6097 223.136 42.1617 233.183 48.3762 239.82C53.2081 234.327 58.4714 229.257 64.7096 228.352C75.7291 226.751 66.3813 224.425 66.3813 224.425C66.3813 224.425 74.6104 224.335 74.6104 222.442C74.6104 219.925 67.9614 219.723 65.1378 219.751C64.3699 219.778 63.8927 219.783 63.8927 219.783C63.8927 219.783 64.3778 219.759 65.1378 219.751C68.2664 219.645 76.279 219.184 77.0359 217.255C77.9792 214.851 74.7922 214.011 74.7922 214.011V214.012Z" fill="white"/>
<path d="M59.2172 230.61C59.2741 230.61 59.331 230.595 59.3847 230.567C61.2066 229.57 62.9652 228.96 64.7602 228.699C69.7217 227.979 70.3963 227.13 70.4295 226.471C70.4659 225.73 69.4467 225.127 68.3991 224.705C71.1058 224.544 74.9596 224.037 74.9596 222.444C74.9596 221.965 74.7685 221.534 74.394 221.162C73.6466 220.423 72.196 219.985 70.5765 219.732C73.9689 219.352 76.8637 218.653 77.3614 217.384C77.6395 216.678 77.6268 216.019 77.3266 215.425C76.9711 214.723 76.2758 214.267 75.7181 213.997C76.0167 213.812 76.328 213.543 76.5318 213.156C76.8384 212.575 76.8336 211.881 76.5144 211.091C76.0309 209.892 72.7633 208.12 67.0197 207.932C66.8443 207.927 66.6673 208.076 66.661 208.269C66.6547 208.462 66.8048 208.623 66.9976 208.629C72.4947 208.808 75.5332 210.519 75.8698 211.352C76.1068 211.939 76.1242 212.436 75.9187 212.826C75.579 213.472 74.7289 213.67 74.721 213.671C74.5646 213.706 74.4524 213.843 74.4493 214.005C74.4461 214.166 74.552 214.306 74.7068 214.349C74.721 214.354 76.2111 214.76 76.7072 215.741C76.9158 216.155 76.9189 216.609 76.7151 217.128C76.2537 218.304 71.8137 219.176 65.1299 219.404C64.3809 219.412 63.899 219.434 63.8785 219.435C63.6889 219.445 63.5419 219.604 63.5466 219.794C63.553 219.984 63.7173 220.14 63.899 220.132C63.899 220.132 64.381 220.127 65.152 220.101C67.2852 220.08 72.422 220.189 73.9041 221.657C74.1459 221.897 74.2644 222.153 74.2644 222.444C74.2644 223.4 70.172 224.037 66.3798 224.078C66.2044 224.079 66.0574 224.212 66.0369 224.386C66.0163 224.56 66.1285 224.722 66.2992 224.765C67.9441 225.174 69.758 225.961 69.7359 226.435C69.7311 226.522 69.5526 227.298 64.6622 228.009C62.7835 228.282 60.949 228.919 59.0529 229.956C58.8838 230.047 58.8222 230.259 58.9138 230.428C58.9771 230.543 59.0971 230.61 59.2204 230.61H59.2172Z" fill="#155263"/>
<path d="M62.6965 214.728C62.7171 214.728 62.7392 214.727 62.7597 214.722C66.7747 213.979 71.1342 214.126 74.0858 214.379C74.2849 214.395 74.4461 214.253 74.4635 214.062C74.4808 213.87 74.3386 213.701 74.1459 213.684C71.1532 213.426 66.7258 213.278 62.6333 214.035C62.4437 214.07 62.3189 214.251 62.3536 214.441C62.3852 214.608 62.5306 214.725 62.6965 214.725V214.728Z" fill="#155263"/>
<path d="M122.124 215.836C122.124 215.836 146.662 222.166 149.374 223.153C151.253 224.417 151.417 226.156 150.407 226.865C149.394 227.574 147.506 227.434 147.506 227.434C147.506 227.434 152.469 230.354 148.656 232.082C148.656 232.082 150.834 234.171 147.301 235.608C147.301 235.608 149.53 238.201 146.004 239.235C142.603 240.234 116.075 239.661 116.075 239.661C116.075 239.661 115.639 223.536 122.122 215.838L122.124 215.836Z" fill="white"/>
<path d="M131.197 240.172C137.83 240.172 144.477 240.044 146.103 239.567C147.307 239.213 148.036 238.637 148.268 237.853C148.513 237.028 148.126 236.209 147.835 235.751C148.889 235.247 149.494 234.615 149.638 233.868C149.77 233.171 149.462 232.561 149.203 232.194C150.184 231.641 150.513 230.986 150.611 230.507C150.75 229.823 150.504 229.075 149.933 228.453C149.654 228.148 149.3 227.895 148.95 227.693L149.41 227.668C149.423 227.668 149.437 227.666 149.45 227.663C150.51 227.481 151.194 226.787 151.283 225.809C151.381 224.717 150.646 223.237 148.803 222.567C146.106 221.586 123.184 215.746 122.209 215.498C122.023 215.45 121.833 215.562 121.786 215.749C121.738 215.935 121.85 216.125 122.037 216.172C122.275 216.232 145.901 222.253 148.565 223.221C150.061 223.766 150.662 224.912 150.587 225.748C150.529 226.396 150.079 226.841 149.35 226.972L147.46 227.075C147.291 227.084 147.154 227.214 147.133 227.382C147.113 227.549 147.217 227.709 147.38 227.756C147.392 227.761 148.724 228.167 149.42 228.922C149.837 229.377 150.023 229.903 149.928 230.366C149.818 230.91 149.328 231.392 148.513 231.762C148.407 231.809 148.333 231.907 148.314 232.021C148.295 232.134 148.333 232.251 148.416 232.33C148.423 232.337 149.096 233.002 148.952 233.74C148.838 234.321 148.222 234.854 147.17 235.282C147.065 235.325 146.988 235.413 146.963 235.522C146.936 235.631 146.963 235.747 147.037 235.832C147.045 235.841 147.852 236.802 147.598 237.657C147.437 238.199 146.866 238.616 145.906 238.899C142.597 239.871 116.348 239.314 116.083 239.31C115.885 239.302 115.731 239.458 115.727 239.651C115.723 239.844 115.876 240.003 116.069 240.006C116.636 240.019 123.908 240.172 131.197 240.172Z" fill="#155263"/>
<path d="M145.313 229.338C146.168 229.338 146.79 228.897 146.893 228.819C147.375 228.454 147.645 228.043 147.696 227.598C147.767 226.96 147.373 226.41 147.07 226.053C146.154 224.967 145.283 224.441 144.441 223.932C143.605 223.426 142.816 222.949 141.971 221.936C141.848 221.789 141.628 221.769 141.48 221.892C141.333 222.015 141.312 222.235 141.435 222.384C142.355 223.486 143.232 224.016 144.081 224.529C144.91 225.032 145.694 225.506 146.538 226.503C146.887 226.915 147.034 227.239 147.002 227.522C146.974 227.77 146.795 228.02 146.473 228.265C146.277 228.413 145.239 229.102 144.03 228.154C143.902 228.055 143.777 227.953 143.651 227.852C143.202 227.492 142.737 227.121 142.224 226.819C141.099 226.158 139.768 225.981 138.61 225.868L138.226 225.831C137.188 225.733 136.114 225.632 135.156 225.258C134.257 224.904 133.21 224.126 132.969 223.003C132.93 222.815 132.745 222.695 132.555 222.734C132.367 222.774 132.247 222.96 132.287 223.148C132.54 224.332 133.518 225.364 134.9 225.906C135.949 226.318 137.073 226.422 138.16 226.525L138.541 226.561C139.625 226.667 140.865 226.83 141.87 227.419C142.341 227.696 142.764 228.036 143.215 228.396C143.343 228.499 143.472 228.601 143.6 228.702C144.213 229.183 144.804 229.338 145.313 229.338Z" fill="#155263"/>
<path d="M145.83 232.53C146.912 232.53 147.963 232.46 148.901 232.378C149.093 232.36 149.235 232.193 149.219 232C149.202 231.809 149.036 231.667 148.841 231.683C146.609 231.877 143.741 232.003 141.371 231.253C140.933 231.114 140.299 230.878 139.862 230.433C139.465 230.027 139.291 229.478 139.422 229.036C139.569 228.535 140.072 228.213 140.494 228.077C140.9 227.946 141.559 227.886 142.452 227.898H142.456C142.647 227.898 142.802 227.745 142.805 227.554C142.809 227.361 142.654 227.203 142.461 227.201C141.475 227.187 140.766 227.258 140.28 227.413C139.516 227.66 138.945 228.192 138.756 228.838C138.555 229.519 138.795 230.336 139.366 230.919C139.912 231.477 140.652 231.755 141.162 231.916C142.632 232.381 144.265 232.528 145.831 232.528L145.83 232.53Z" fill="#155263"/>
<path d="M145.027 236.206C145.906 236.206 146.756 236.097 147.552 235.877C147.737 235.827 147.846 235.634 147.795 235.449C147.743 235.263 147.549 235.155 147.367 235.206C145.498 235.723 143.287 235.577 141.143 234.797C140.674 234.626 139.996 234.342 139.522 233.842C139.086 233.383 138.89 232.785 139.01 232.281C139.133 231.763 139.671 231.371 140.124 231.458C140.314 231.494 140.495 231.369 140.532 231.181C140.568 230.992 140.443 230.81 140.255 230.774C139.424 230.616 138.546 231.232 138.334 232.12C138.16 232.85 138.422 233.695 139.018 234.323C139.593 234.928 140.371 235.256 140.906 235.452C142.282 235.953 143.69 236.208 145.03 236.208L145.027 236.206Z" fill="#155263"/>
<path d="M141.595 240.011C141.957 240.011 142.331 239.99 142.764 239.957C142.956 239.943 143.099 239.776 143.085 239.583C143.071 239.392 142.911 239.248 142.711 239.262C141.8 239.332 141.298 239.333 140.717 239.262C140.094 239.188 139.607 238.978 139.227 238.617C138.817 238.229 138.628 237.672 138.746 237.202C138.85 236.781 139.2 236.397 139.702 236.148C140.247 235.879 141.247 235.707 141.575 235.652C141.764 235.618 141.892 235.438 141.859 235.249C141.827 235.059 141.647 234.931 141.456 234.964C140.843 235.069 139.963 235.241 139.392 235.524C138.705 235.863 138.223 236.413 138.068 237.034C137.891 237.745 138.157 238.567 138.746 239.125C139.239 239.592 139.855 239.864 140.633 239.956C140.965 239.995 141.274 240.011 141.593 240.011H141.595Z" fill="#155263"/>
<path d="M31.3855 150.702C31.2465 150.569 31.1185 150.42 31.019 150.24C30.7788 149.812 30.6824 149.302 30.7977 148.821C30.921 148.309 31.316 147.932 31.7758 147.706C31.9575 147.616 32.1487 147.549 32.343 147.492C32.1835 147.32 32.0444 147.126 31.9385 146.9C31.6984 146.391 31.632 145.806 31.8453 145.276C32.0555 144.751 32.4473 144.294 32.9688 144.059C33.22 143.945 33.4854 143.874 33.7541 143.844C33.6909 143.646 33.6482 143.439 33.6466 143.223C33.6403 142.632 33.9232 142.107 34.3008 141.671C34.6516 141.264 35.1319 140.88 35.6755 140.785C35.7687 140.769 35.8635 140.761 35.9583 140.76C36.0879 140.197 36.4671 139.709 36.9364 139.387C37.6048 138.93 38.4517 138.922 39.1817 139.214C39.4661 138.603 39.9591 138.103 40.6385 137.873C41.438 137.603 42.3371 137.87 42.8617 138.487C43.3895 138.007 44.08 137.704 44.7957 137.702C45.4183 137.702 46.0235 137.928 46.5196 138.303C47.2796 137.923 48.1076 137.734 48.9498 138.051C50.0148 138.453 50.4809 139.448 50.6942 140.486C51.0861 140.562 51.4574 140.769 51.7465 141.041C52.407 141.665 52.5397 142.608 52.1684 143.417C52.1289 143.504 52.0784 143.586 52.0246 143.667C52.4449 144.089 52.7341 144.643 52.8068 145.245C52.9379 146.326 52.3012 147.459 51.3199 147.924C51.2425 147.96 51.1619 147.976 51.0813 147.979C51.1761 148.488 51.1066 149.049 50.9786 149.543C50.7274 150.517 49.9911 151.275 49.0067 151.515C48.8882 151.544 48.7665 151.564 48.6448 151.578C48.5611 152.16 48.3225 152.724 47.9764 153.171C47.5546 153.716 46.9478 153.969 46.2652 153.933C46.2178 154.9 45.8686 155.842 45.0533 156.346C44.505 156.684 43.8255 156.768 43.1967 156.655C42.9249 157.362 42.3434 157.994 41.7477 158.363C41.4807 158.529 41.1789 158.648 40.8692 158.698C40.7807 158.894 40.678 159.082 40.5611 159.261C40.5074 159.408 40.4442 159.552 40.3652 159.689C39.9559 160.399 39.2607 160.817 38.4406 160.839C37.758 160.858 36.979 160.664 36.4576 160.193C36.2949 160.218 36.1305 160.236 35.9646 160.237C35.8572 160.256 35.7497 160.269 35.6407 160.277C34.8838 160.329 34.0005 160.252 33.359 159.811C32.7017 159.36 32.3415 158.634 32.2751 157.85C32.2751 157.836 32.2751 157.82 32.2751 157.806C32.1203 157.765 31.9701 157.708 31.8295 157.625C31.3397 157.335 31.0426 156.775 30.9225 156.233C30.8009 155.68 30.842 155.067 31.1517 154.578C31.2101 154.486 31.2781 154.401 31.3507 154.32C31.1343 154.092 30.9526 153.83 30.8293 153.533C30.4469 152.607 30.6413 151.395 31.3902 150.703L31.3855 150.702Z" fill="#155263"/>
<path d="M40.0334 162.366L38.0203 178.112C37.8607 179.355 36.9016 180.346 35.6644 180.545C35.6644 180.545 38.2431 187.075 46.9652 187.045C55.6889 187.015 54.9952 179.914 54.9952 179.914C53.5242 179.826 52.0389 178.382 51.9836 176.909L51.636 167.58C51.636 167.58 43.1651 160.408 40.0334 162.364V162.366Z" fill="white"/>
<path d="M35.6628 180.894C35.6817 180.894 35.6991 180.894 35.7181 180.889C37.0991 180.666 38.1878 179.543 38.3647 178.155L40.3556 162.584C42.8095 161.364 48.9402 165.782 51.293 167.747L51.6343 176.921C51.6944 178.538 53.3171 180.162 54.973 180.262C55.1595 180.276 55.3301 180.127 55.3412 179.935C55.3523 179.742 55.2069 179.578 55.0141 179.566C53.7058 179.487 52.3769 178.163 52.3295 176.895L51.9819 167.566C51.9788 167.468 51.9329 167.376 51.8587 167.313C51.5047 167.013 43.1555 160 39.8453 162.069C39.7568 162.124 39.6983 162.215 39.6841 162.32L37.6711 178.065C37.5336 179.148 36.6835 180.026 35.6043 180.2C35.4147 180.23 35.2851 180.41 35.3152 180.6C35.342 180.77 35.4905 180.892 35.6596 180.894H35.6628Z" fill="#155263"/>
<path d="M35.816 157.322C34.9438 157.788 33.98 159.215 34.9581 161.364C35.3373 162.198 36.0041 162.893 36.8668 163.203C37.7217 163.511 38.6729 163.499 39.5561 163.281C41.5565 169.01 50.4271 170.389 54.3789 167.292C58.5804 164.001 56.1439 157.802 54.8719 154.513C53.9539 152.135 52.8178 149.607 51.3989 146.247C50.928 145.593 49.7761 146.023 49.3385 146.364C48.8502 146.745 48.5326 147.36 47.9622 147.478C46.8814 147.703 46.4974 146.745 45.4119 146.856C44.5429 146.944 44.23 148.29 43.5142 148.753C42.6357 149.321 41.6545 148.644 40.934 149.199C40.0333 149.891 41.1962 152.041 39.5672 152.953C38.9288 153.31 38.6112 154.056 38.7598 154.773C38.9446 155.671 39.0252 155.671 39.2148 156.567C39.6004 158.393 37.7027 156.317 35.8176 157.324L35.816 157.322Z" fill="white"/>
<path d="M48.9435 169.249C51.1335 169.249 53.1907 168.666 54.5939 167.566C58.966 164.14 56.5326 157.844 55.2259 154.462L55.1959 154.386C54.5749 152.781 53.856 151.105 53.0217 149.163C52.6156 148.218 52.1827 147.208 51.7197 146.11C51.7102 146.086 51.6976 146.062 51.6818 146.042C51.4953 145.784 51.2172 145.622 50.8759 145.573C50.2028 145.476 49.4443 145.837 49.1236 146.088C48.9292 146.239 48.7665 146.415 48.6101 146.584C48.3636 146.851 48.1503 147.082 47.8896 147.135C47.4519 147.225 47.1706 147.074 46.8119 146.879C46.4327 146.676 46.0013 146.443 45.374 146.506C44.7009 146.574 44.3154 147.161 43.9725 147.677C43.7687 147.985 43.5569 148.305 43.3215 148.458C42.9755 148.682 42.5852 148.657 42.1712 148.63C41.7066 148.6 41.1789 148.565 40.7175 148.919C40.2008 149.316 40.1898 149.998 40.1787 150.659C40.1661 151.462 40.1534 152.22 39.3918 152.645C38.6239 153.075 38.2305 153.957 38.4122 154.84C38.5086 155.309 38.5797 155.545 38.6476 155.774C38.714 155.996 38.7772 156.205 38.8672 156.635C38.9099 156.837 38.9131 156.946 38.9083 157C38.7914 156.998 38.5497 156.937 38.3664 156.891C37.6917 156.722 36.6709 156.466 35.6455 157.012C34.7954 157.466 33.4886 158.991 34.6342 161.506C35.0719 162.467 35.8398 163.205 36.742 163.529C37.521 163.808 38.409 163.861 39.3286 163.684C40.2703 166.046 42.4698 167.879 45.412 168.741C46.5702 169.081 47.7726 169.246 48.9356 169.246L48.9435 169.249ZM51.0971 146.423C51.5553 147.507 51.9836 148.504 52.3833 149.438C53.2145 151.372 53.9318 153.043 54.548 154.638L54.578 154.713C55.82 157.927 58.1317 163.911 54.1657 167.018C52.1858 168.569 48.7507 168.993 45.6174 168.075C42.7732 167.242 40.6859 165.452 39.8864 163.165C39.8279 162.996 39.6494 162.898 39.474 162.943C38.8514 163.096 37.9129 163.21 36.9854 162.876C36.2585 162.615 35.636 162.012 35.2757 161.22C34.345 159.176 35.3294 157.978 35.9804 157.63C36.7673 157.21 37.5637 157.409 38.2036 157.57C38.6966 157.694 39.1232 157.801 39.4108 157.523C39.6778 157.267 39.6273 156.837 39.5546 156.493C39.4582 156.036 39.3887 155.802 39.3207 155.576C39.2544 155.352 39.1896 155.138 39.0995 154.699C38.981 154.124 39.2417 153.53 39.7363 153.253C40.8471 152.632 40.8645 151.545 40.8787 150.67C40.8882 150.13 40.8945 149.663 41.1457 149.471C41.3859 149.286 41.675 149.295 42.1285 149.324C42.6136 149.355 43.1619 149.392 43.7023 149.043C44.061 148.81 44.3122 148.429 44.5571 148.061C44.8384 147.636 45.1038 147.233 45.4467 147.199C45.8639 147.156 46.1499 147.311 46.4817 147.491C46.8878 147.711 47.3476 147.959 48.0333 147.816C48.5121 147.717 48.8376 147.366 49.1236 147.055C49.2674 146.898 49.4033 146.751 49.5534 146.634C49.803 146.44 50.3703 146.202 50.7779 146.26C50.9186 146.281 51.0213 146.333 51.0955 146.42L51.0971 146.423Z" fill="#155263"/>
<path d="M38.8372 161.037C38.9004 161.037 38.9636 161.019 39.0221 160.983C39.1848 160.88 39.2354 160.665 39.1327 160.503C38.4469 159.404 37.0502 158.987 36.3549 159.374C36.1859 159.468 36.1258 159.679 36.219 159.848C36.3122 160.016 36.5256 160.078 36.693 159.984C37.0312 159.796 38.0203 160.038 38.5417 160.872C38.6081 160.978 38.7219 161.037 38.8372 161.037Z" fill="#155263"/>
<path d="M195.189 319.997C195.383 319.997 195.541 319.745 195.541 319.433V239.6C195.541 239.289 195.383 239.036 195.189 239.036H144.809C144.614 239.036 144.457 239.289 144.457 239.6C144.457 239.912 144.614 240.164 144.809 240.164H194.838V319.436C194.838 319.747 194.996 320 195.19 320L195.189 319.997Z" fill="#155263"/>
<path d="M66.0653 47.1455H76.5287V59.3327H66.0653V47.1455Z" fill="white"/>
<path d="M66.0653 59.6806H76.5287C76.7214 59.6806 76.8779 59.5241 76.8779 59.3313V47.1441C76.8779 46.9513 76.7214 46.7949 76.5287 46.7949H66.0653C65.8725 46.7949 65.7161 46.9513 65.7161 47.1441V59.3313C65.7161 59.5241 65.8725 59.6806 66.0653 59.6806ZM76.181 58.9837H66.4145V47.4933H76.181V58.9837Z" fill="#155263"/>
<path d="M71.2701 51.2364C63.2425 51.2364 56.7349 44.0262 56.7349 35.1321C56.7349 26.238 63.2425 19.0278 71.2701 19.0278C79.2977 19.0278 85.8054 26.238 85.8054 35.1321C85.8054 44.0262 79.2977 51.2364 71.2701 51.2364Z" fill="white"/>
<path d="M71.2701 51.5856C79.4771 51.5856 86.153 44.205 86.153 35.1322C86.153 26.0593 79.4755 18.6787 71.2701 18.6787C63.0647 18.6787 56.3872 26.0593 56.3872 35.1322C56.3872 44.205 63.0647 51.5856 71.2701 51.5856ZM71.2701 19.3771C79.0931 19.3771 85.4561 26.4448 85.4561 35.1322C85.4561 43.8195 79.0915 50.8872 71.2701 50.8872C63.4487 50.8872 57.0841 43.8195 57.0841 35.1322C57.0841 26.4448 63.4487 19.3771 71.2701 19.3771Z" fill="#155263"/>
<path d="M80.2845 37.1388C80.3951 37.1388 80.5041 37.0867 80.5721 36.9871C80.6811 36.8291 80.6416 36.6111 80.4821 36.502C76.0404 33.4461 72.9766 28.4294 72.2877 23.0823C72.2624 22.8911 72.0886 22.7568 71.8974 22.7805C71.7062 22.8058 71.5719 22.9796 71.5956 23.1708C72.3098 28.7122 75.4842 33.9091 80.087 37.0756C80.1471 37.1167 80.2166 37.1372 80.2845 37.1372V37.1388Z" fill="#155263"/>
<path d="M80.147 35.5602C80.226 35.5602 80.3066 35.5334 80.3714 35.4781C80.5183 35.3532 80.5357 35.1336 80.4125 34.9867C78.232 32.4111 76.8652 29.1403 76.5634 25.7779C76.546 25.5867 76.3817 25.4445 76.1857 25.4619C75.9946 25.4793 75.8523 25.6483 75.8697 25.8395C76.1842 29.3442 77.6094 32.7508 79.8816 35.437C79.9511 35.5192 80.0491 35.5602 80.1486 35.5602H80.147Z" fill="#155263"/>
<path d="M62.5512 37.3173C62.6239 37.3173 62.6966 37.2952 62.7598 37.2478C66.7116 34.2851 69.7406 30.0694 71.2875 25.3781C71.3475 25.1949 71.248 24.9989 71.0663 24.9389C70.8814 24.8788 70.6871 24.9784 70.6254 25.1601C69.1244 29.7171 66.1822 33.8127 62.3426 36.69C62.1878 36.8054 62.1577 37.0234 62.2731 37.1783C62.341 37.2699 62.4453 37.3173 62.5528 37.3173H62.5512Z" fill="#155263"/>
<path d="M62.3662 35.3044C62.4452 35.3044 62.5258 35.2775 62.5906 35.2222C64.0332 34.0008 65.2278 32.544 66.1411 30.8896C66.2343 30.7206 66.1727 30.5088 66.0052 30.4156C65.8361 30.3224 65.6244 30.384 65.5312 30.5515C64.6574 32.13 63.5166 33.5221 62.1387 34.6882C61.9918 34.813 61.9744 35.0326 62.0976 35.1796C62.1672 35.2617 62.2651 35.3028 62.3647 35.3028L62.3662 35.3044Z" fill="#155263"/>
<path d="M62.7344 39.2893C62.7344 39.2893 60.8273 38.0332 60.0499 40.2879C59.4431 42.0466 60.535 44.1307 62.7344 44.9271V39.2893Z" fill="white"/>
<path d="M62.736 45.2762C62.8071 45.2762 62.8766 45.2541 62.9367 45.213C63.0299 45.1482 63.0852 45.0407 63.0852 44.927V39.2892C63.0852 39.1723 63.0267 39.0633 62.9288 38.9985C62.8893 38.9732 61.9523 38.3664 61.0169 38.684C60.4306 38.8831 59.9945 39.3856 59.7228 40.1741C59.0291 42.1839 60.3011 44.4166 62.6191 45.2541C62.6586 45.2683 62.6981 45.2746 62.7376 45.2746L62.736 45.2762ZM62.3868 39.4946V44.4024C60.7293 43.5886 59.8586 41.9122 60.3801 40.4032C60.5776 39.8296 60.8668 39.4741 61.2365 39.3461C61.6726 39.196 62.1466 39.3777 62.3868 39.4946Z" fill="#155263"/>
<path d="M79.5529 39.2893C79.5529 39.2893 81.4601 38.0332 82.2375 40.2879C82.8442 42.0466 81.7524 44.1307 79.5529 44.9271V39.2893Z" fill="white"/>
<path d="M79.5529 45.2764C79.5924 45.2764 79.6335 45.27 79.6714 45.2558C81.9878 44.4168 83.2598 42.1857 82.5677 40.1758C82.2959 39.3874 81.8598 38.8849 81.2736 38.6858C80.3382 38.3666 79.4012 38.9734 79.3617 39.0002C79.2637 39.065 79.2053 39.174 79.2053 39.291V44.9287C79.2053 45.0425 79.2606 45.1484 79.3538 45.2147C79.4138 45.2558 79.4834 45.2779 79.5545 45.2779L79.5529 45.2764ZM80.6969 39.2894C80.8154 39.2894 80.9355 39.3052 81.0524 39.3463C81.4237 39.4743 81.7113 39.8298 81.9088 40.4034C82.4302 41.9139 81.558 43.5904 79.9021 44.4026V39.4948C80.0775 39.4079 80.3777 39.2894 80.6969 39.2894Z" fill="#155263"/>
<path d="M62.3552 38.3317C63.2417 38.1011 64.0728 37.7977 64.8486 37.4185V42.4258C64.8486 44.295 66.3639 45.8103 68.2332 45.8103H74.0558C75.925 45.8103 77.4404 44.295 77.4404 42.4258V37.4706C78.2304 37.8925 79.0615 38.1785 79.9337 38.3317V49.1206C79.9337 52.6 77.1133 55.422 73.6323 55.422H68.6582C65.1789 55.422 62.3568 52.6015 62.3568 49.1206V38.3317H62.3552Z" fill="#155263"/>
<path d="M74.0558 45.8119H68.2332C66.3639 45.8119 64.8486 44.2966 64.8486 42.4274V37.4201C67.8366 35.9648 70.0013 33.4067 71.3191 29.7124C72.9639 33.601 75.0086 36.175 77.4388 37.4722V42.4274C77.4388 44.2966 75.9235 45.8119 74.0542 45.8119H74.0558Z" fill="white"/>
<path d="M68.2332 46.1597H74.0558C76.1146 46.1597 77.788 44.4848 77.788 42.4275V37.4724C77.788 37.3444 77.7168 37.2259 77.6031 37.1643C75.244 35.9065 73.2373 33.3531 71.6398 29.5767C71.5829 29.444 71.4534 29.3602 71.308 29.3634C71.1642 29.3681 71.0378 29.4598 70.9904 29.5941C69.7169 33.1619 67.5995 35.69 64.6953 37.1042C64.5752 37.1627 64.4994 37.2844 64.4994 37.4171V42.4244C64.4994 44.4832 66.1743 46.1566 68.2332 46.1566V46.1597ZM77.0911 37.6778V42.4275C77.0911 44.1009 75.7291 45.4629 74.0558 45.4629H68.2332C66.5599 45.4629 65.1978 44.1009 65.1978 42.4275V37.6351C67.9503 36.2336 70.0139 33.8793 71.3428 30.629C72.9071 34.0389 74.8379 36.4074 77.0927 37.6778H77.0911Z" fill="#155263"/>
<path d="M70.2572 37.5764C70.2572 38.0662 70.6539 38.4628 71.1437 38.4628C71.6335 38.4628 72.0301 38.0662 72.0301 37.5764C72.0301 37.0865 71.6335 36.6899 71.1437 36.6899C70.6539 36.6899 70.2572 37.0865 70.2572 37.5764Z" fill="#FF725E"/>
<path d="M80.8945 125.044L84.6677 63.6687L79.3918 60.4722H61.7406L57.9278 64.563L61.9286 125.044H80.8945Z" fill="white"/>
<path d="M61.9286 125.393H80.8929C81.0777 125.393 81.2294 125.249 81.2405 125.066L85.0153 63.6908C85.0232 63.5612 84.9585 63.438 84.8478 63.3716L79.5719 60.1751C79.5182 60.1419 79.455 60.1245 79.3918 60.1245H61.7406C61.6442 60.1245 61.551 60.164 61.4862 60.2351L57.6735 64.3244C57.6071 64.3955 57.5739 64.4887 57.5802 64.5851L61.5826 125.066C61.5953 125.249 61.7469 125.392 61.9302 125.392L61.9286 125.393ZM80.5658 124.696H62.2542L58.2834 64.691L61.8907 60.8213H79.2938L84.3059 63.8583L80.5642 124.696H80.5658Z" fill="#155263"/>
<path d="M95.229 126.395C95.229 126.395 110.919 131.998 118.777 126.054C126.635 120.11 120.09 101.675 118.136 95.8615C116.179 90.0484 112.114 73.9489 104.896 69.542C97.6781 65.1351 85.2444 62.223 85.2444 62.223L78.8056 58.7231L80.5642 125.046L95.229 126.397V126.395Z" fill="#FF725E"/>
<path d="M86.5164 107.796H113.038C113.231 107.796 113.387 107.64 113.387 107.447C113.387 107.254 113.231 107.098 113.038 107.098H86.5164C86.3236 107.098 86.1672 107.254 86.1672 107.447C86.1672 107.64 86.3236 107.796 86.5164 107.796Z" fill="#155263"/>
<path d="M97.8236 107.796C97.8473 107.796 97.871 107.793 97.8947 107.788C98.0827 107.748 98.2044 107.564 98.1649 107.376L96.2419 98.1067C96.2024 97.9187 96.0191 97.797 95.8295 97.8365C95.6414 97.876 95.5198 98.0609 95.5593 98.2489L97.4822 107.518C97.517 107.682 97.6624 107.796 97.8236 107.796Z" fill="#155263"/>
<path d="M81.1662 115.633C81.3463 115.633 81.498 115.494 81.5138 115.313L85.592 63.6974C85.6063 63.5063 85.464 63.3372 85.2729 63.323C85.0753 63.3072 84.9126 63.451 84.8984 63.6421L80.8202 115.257C80.806 115.449 80.9482 115.618 81.1394 115.632C81.1488 115.632 81.1583 115.632 81.1678 115.632L81.1662 115.633Z" fill="#155263"/>
<path d="M48.1218 126.267C48.1218 126.267 31.6747 131.998 23.8169 126.054C15.9591 120.11 22.5038 101.675 24.4584 95.8616C26.4146 90.0484 30.4801 73.9489 37.698 69.542C44.9158 65.1351 57.3495 62.223 57.3495 62.223L63.7884 58.7231L62.0298 125.046L48.1218 126.269V126.267Z" fill="#FF725E"/>
<path d="M29.5558 107.796H56.0792C56.2719 107.796 56.4283 107.64 56.4283 107.447C56.4283 107.254 56.2719 107.098 56.0792 107.098H29.5558C29.363 107.098 29.2066 107.254 29.2066 107.447C29.2066 107.64 29.363 107.796 29.5558 107.796Z" fill="#155263"/>
<path d="M44.7705 107.796C44.9317 107.796 45.077 107.682 45.1118 107.518L47.0363 98.2489C47.0758 98.0609 46.9542 97.876 46.7661 97.8365C46.5797 97.797 46.3932 97.9187 46.3537 98.1067L44.4292 107.376C44.3897 107.564 44.5113 107.748 44.6994 107.788C44.7231 107.793 44.7468 107.796 44.7705 107.796Z" fill="#155263"/>
<path d="M61.4293 115.633C61.4388 115.633 61.4483 115.633 61.4578 115.633C61.649 115.617 61.7928 115.45 61.7769 115.259L57.6987 63.6436C57.6829 63.4524 57.517 63.3086 57.3243 63.3244C57.1331 63.3402 56.9893 63.5077 57.0051 63.6989L61.0833 115.314C61.0975 115.496 61.2508 115.635 61.4309 115.635L61.4293 115.633Z" fill="#155263"/>
<path d="M68.4149 99.9886H74.1807L71.8295 61.2796C71.7884 60.6112 70.8056 60.6112 70.7645 61.2796L68.4133 99.9886H68.4149Z" fill="#FF725E"/>
<path d="M67.0955 62.4821L69.9492 66.4639C70.6112 67.3883 71.9859 67.3883 72.6464 66.4639L75.5001 62.4821L71.2986 59.9429L67.0971 62.4821H67.0955Z" fill="#FF725E"/>
<path d="M64.7065 55.8237L71.297 58.1812L77.8875 55.8237L78.8451 58.7232V61.8597L74.5378 65.9094L71.297 62.2073L68.0578 65.9094L63.7489 61.8597V58.7232L64.7065 55.8237Z" fill="white"/>
<path d="M78.8451 59.0706C78.8814 59.0706 78.9178 59.0643 78.9541 59.0533C79.1374 58.9932 79.237 58.7957 79.1754 58.6124L78.2178 55.713C78.1878 55.6245 78.1246 55.5502 78.0392 55.5091C77.9555 55.468 77.8575 55.4617 77.7691 55.4949L71.2954 57.8113L64.8218 55.4949C64.7333 55.4633 64.6354 55.468 64.5516 55.5091C64.4679 55.5502 64.4031 55.6245 64.3731 55.713L63.4155 58.6124C63.3555 58.7957 63.455 58.9916 63.6367 59.0533C63.8185 59.1133 64.016 59.0138 64.076 58.8321L64.9213 56.2723L71.1753 58.5113C71.2512 58.5382 71.3333 58.5382 71.4108 58.5113L77.6648 56.2723L78.5101 58.8321C78.5591 58.979 78.695 59.0706 78.8404 59.0706H78.8451Z" fill="#155263"/>
<path d="M74.5377 66.2585C74.6262 66.2585 74.7116 66.2253 74.7763 66.1637L78.5116 62.6527C78.6523 62.5216 78.6586 62.3004 78.5275 62.1597C78.3947 62.0191 78.1751 62.0128 78.0345 62.1439L74.5614 65.4084L71.5593 61.978C71.4265 61.8263 71.1674 61.8263 71.0347 61.978L68.0325 65.4084L64.5374 62.1218C64.3967 61.9907 64.1755 61.997 64.0444 62.1376C63.9132 62.2782 63.9195 62.4979 64.0602 62.6306L67.8192 66.1637C67.8871 66.2285 67.9804 66.2616 68.0752 66.2585C68.17 66.2537 68.2585 66.2111 68.3201 66.14L71.2986 62.738L74.2755 66.14C74.3371 66.2111 74.4271 66.2537 74.5203 66.2585C74.5267 66.2585 74.5314 66.2585 74.5377 66.2585Z" fill="#155263"/>
<path d="M50.4003 95.002H92.486C93.7469 95.002 94.7202 96.1128 94.5543 97.3626L90.9564 124.527H51.9314L48.3335 97.3626C48.1676 96.1128 49.141 95.002 50.4019 95.002H50.4003Z" fill="#155263"/>
<path d="M47.9164 123.104H95.2069C95.6616 123.104 96.0302 123.472 96.0302 123.927V126.373C96.0302 126.827 95.6616 127.196 95.2069 127.196H47.9164C47.4618 127.196 47.0932 126.827 47.0932 126.373V123.927C47.0932 123.472 47.4618 123.104 47.9164 123.104Z" fill="#155263"/>
<path d="M276.83 125.58C277.023 125.58 277.179 125.423 277.179 125.23V107.612H433.189C433.382 107.612 433.539 107.456 433.539 107.263C433.539 107.07 433.382 106.914 433.189 106.914H276.83C276.637 106.914 276.481 107.07 276.481 107.263V125.229C276.481 125.422 276.637 125.578 276.83 125.578V125.58Z" fill="#155263"/>
<path d="M335.372 81.2141C335.372 81.2141 339.914 70.5469 343.54 62.4489C345.956 57.0545 350.745 53.0916 356.495 51.7233L369.412 48.6484H376.475C376.475 48.6484 383.905 50.1606 390.266 51.7707C394.111 52.744 397.407 55.2058 399.434 58.6141C402.697 64.1017 408.079 73.2662 413.141 82.4181C419.274 93.4993 411.267 107.094 398.603 107.094H385.801L362.351 103.596L335.372 81.2141Z" fill="white"/>
<path d="M385.801 107.444H398.603C404.672 107.444 410.136 104.323 413.219 99.0943C416.303 93.8627 416.388 87.566 413.448 82.249C408.493 73.2946 403.256 64.3576 399.734 58.4355C397.645 54.9214 394.313 52.4359 390.353 51.4325C384.057 49.8398 376.621 48.3229 376.546 48.3071C376.524 48.3024 376.501 48.3008 376.477 48.3008H369.416C369.389 48.3008 369.362 48.3039 369.335 48.3103L356.418 51.3851C350.598 52.7693 345.667 56.8538 343.224 62.3067C339.639 70.3162 335.101 80.9723 335.055 81.0781C334.995 81.2204 335.034 81.3847 335.153 81.4827L362.131 103.865C362.18 103.906 362.239 103.931 362.302 103.94L385.752 107.439C385.769 107.442 385.787 107.442 385.804 107.442L385.801 107.444ZM376.441 48.9992C376.997 49.1129 384.12 50.5761 390.181 52.1104C393.961 53.0663 397.14 55.4396 399.134 58.7942C402.653 64.7116 407.886 73.6423 412.836 82.5887C415.657 87.6861 415.575 93.7252 412.617 98.742C409.662 103.756 404.422 106.748 398.601 106.748H385.825L362.496 103.269L335.793 81.1145C336.486 79.4886 340.571 69.929 343.856 62.5943C346.21 57.3357 350.965 53.3997 356.574 52.0661L369.452 49.0008H376.437L376.441 48.9992Z" fill="#155263"/>
<path d="M363.816 97.9235C363.843 97.9235 363.868 97.9204 363.895 97.9141L400.45 89.3895C400.636 89.3452 400.753 89.1588 400.711 88.9708C400.666 88.7827 400.482 88.6658 400.292 88.71L363.737 97.2346C363.55 97.2789 363.433 97.4653 363.476 97.6533C363.514 97.8145 363.656 97.9235 363.816 97.9235Z" fill="#155263"/>
<path d="M392.374 90.7343C392.414 90.7343 392.453 90.728 392.493 90.7137C392.674 90.649 392.768 90.4499 392.703 90.2682L387.648 76.1659C387.378 75.4122 387.043 74.4752 386.346 73.8289C385.63 73.1653 384.401 72.8793 383.581 73.5508C383.432 73.6725 383.41 73.8921 383.532 74.0407C383.654 74.1892 383.873 74.2113 384.022 74.0896C384.54 73.6646 385.385 73.889 385.872 74.3393C386.444 74.8702 386.735 75.6839 386.992 76.4013L392.047 90.5036C392.098 90.6458 392.232 90.7343 392.376 90.7343H392.374Z" fill="#155263"/>
<path d="M331.166 107.094H385.801C386.168 107.094 386.534 107.001 386.836 106.792C387.544 106.306 387.789 105.437 387.509 104.689C386.779 103.16 385.272 102.623 383.044 102.623H327.11L327.93 104.849C328.436 106.2 329.727 107.094 331.169 107.094H331.166Z" fill="#155263"/>
<path d="M330.817 107.094C329.58 107.094 328.468 106.341 328.011 105.192L313.439 77.7253C313.149 76.9968 313.239 76.1704 313.679 75.521C314.12 74.8716 314.853 74.4829 315.639 74.4829H353.651C355.942 74.4829 357.984 75.9255 358.748 78.0839L372.648 107.094H330.817Z" fill="#155263"/>
<path d="M329.928 103.24H367.616C367.809 103.24 367.965 103.084 367.965 102.891C367.965 102.698 367.809 102.542 367.616 102.542H329.928C329.735 102.542 329.578 102.698 329.578 102.891C329.578 103.084 329.735 103.24 329.928 103.24Z" fill="white"/>
<path d="M361.425 47.4587C361.425 47.4587 356.84 40.2677 359.745 30.3273C362.651 20.3854 363.389 17.2063 377.79 15.4792C392.191 13.7522 396.413 28.4265 385.893 46.0792C385.893 46.0792 387.128 45.3982 393.387 52.3396C396.241 55.5045 387.512 64.0701 376.085 63.5155C364.658 62.9609 350.777 53.4124 350.777 53.4124C350.777 53.4124 354.863 50.0974 361.427 47.4587H361.425Z" fill="#FF725E"/>
<path d="M376.461 54.7713C379.06 54.7713 381.649 54.2909 384.034 53.2892C384.211 53.2149 384.295 53.0111 384.221 52.8325C384.147 52.654 383.941 52.5718 383.764 52.6461C376.504 55.6925 367.316 53.749 361.912 48.0243C361.779 47.8837 361.559 47.8774 361.419 48.0101C361.278 48.1428 361.272 48.3625 361.404 48.5031C365.224 52.5497 370.871 54.7713 376.461 54.7713Z" fill="#155263"/>
<path d="M365.135 25.7734C364.544 26.2712 359.064 39.5961 365.265 44.2336C371.465 48.8728 377.46 40.8428 377.46 40.8428C377.46 40.8428 379.18 29.2149 370.079 22.9214L365.135 25.7734Z" fill="white"/>
<path d="M374.589 49.7815C374.704 49.7815 374.816 49.7246 374.883 49.6203C376.362 47.3055 377.378 44.6494 377.822 41.9364C377.853 41.7467 377.724 41.5666 377.534 41.5366C377.343 41.5066 377.164 41.6346 377.134 41.8242C376.708 44.444 375.726 47.01 374.296 49.2443C374.194 49.407 374.239 49.6219 374.402 49.7262C374.461 49.7641 374.525 49.7815 374.59 49.7815H374.589Z" fill="#155263"/>
<path d="M352.638 45.3302C352.831 45.3302 352.987 45.1738 352.987 44.981V28.7867C352.987 28.5939 352.831 28.4375 352.638 28.4375H233.942C233.749 28.4375 233.593 28.5939 233.593 28.7867C233.593 28.9795 233.749 29.1359 233.942 29.1359H352.29V44.981C352.29 45.1738 352.447 45.3302 352.64 45.3302H352.638Z" fill="#155263"/>
<path d="M308.609 14.5735C308.609 14.5735 303.968 9.67365 302.807 4.38825C301.647 -0.897149 306.03 -0.769162 310.284 3.48602C310.284 3.48602 311.058 0.649758 312.99 0.779326C314.925 0.908893 314.667 6.58141 314.667 6.58141C314.667 6.58141 319.05 0.134649 322.403 0.779326C325.754 1.424 321.758 6.83897 321.758 6.83897C321.758 6.83897 324.208 6.83897 323.563 9.16012C322.918 11.4813 319.695 15.6069 319.695 15.6069L308.607 14.5751L308.609 14.5735Z" fill="white"/>
<path d="M319.696 15.953C319.804 15.953 319.905 15.904 319.971 15.8187C320.104 15.6481 323.245 11.6109 323.901 9.25186C324.119 8.46339 324.042 7.81556 323.67 7.32573C323.323 6.8675 322.79 6.66051 322.375 6.56571C323.083 5.50705 324.543 3.04843 323.955 1.5426C323.724 0.953232 323.225 0.58033 322.469 0.434962C319.69 -0.0975276 316.404 3.70575 315.029 5.49599C314.997 3.72787 314.706 0.542408 313.016 0.430222C311.361 0.321196 310.489 1.96765 310.135 2.85408C307.588 0.457083 305.009 -0.547853 303.475 0.292754C302.834 0.643534 301.851 1.65163 302.467 4.46261C303.635 9.78119 308.163 14.6099 308.356 14.8122C308.415 14.8738 308.492 14.9117 308.577 14.9196L319.665 15.9514C319.676 15.9514 319.687 15.9514 319.696 15.9514V15.953ZM321.907 1.07964C322.052 1.07964 322.196 1.09228 322.338 1.11914C322.85 1.21711 323.166 1.43832 323.305 1.79542C323.8 3.05949 322.155 5.71246 321.479 6.62891C321.401 6.73478 321.389 6.8754 321.449 6.99233C321.507 7.10926 321.629 7.18352 321.76 7.18352C321.768 7.18352 322.7 7.19458 323.117 7.74761C323.35 8.05415 323.387 8.49658 323.229 9.06225C322.678 11.0468 320.115 14.4804 319.538 15.2372L308.776 14.2355C308.136 13.5323 304.188 9.04171 303.15 4.31092C302.764 2.55702 303 1.34509 303.812 0.901088C305.106 0.193209 307.667 1.35615 310.04 3.72945C310.127 3.81635 310.255 3.85111 310.375 3.81951C310.496 3.78791 310.589 3.69469 310.622 3.5746C310.628 3.54932 311.333 1.01485 312.97 1.1223C314.174 1.20289 314.4 4.82129 314.321 6.56097C314.313 6.7174 314.411 6.85802 314.56 6.90701C314.706 6.95599 314.869 6.90069 314.958 6.7727C314.999 6.71266 318.87 1.07648 321.909 1.07648L321.907 1.07964Z" fill="#155263"/>
<path d="M311.832 15.3163C311.88 15.3163 311.927 15.3068 311.973 15.2863C312.148 15.2089 312.229 15.0019 312.15 14.8265L308.154 5.80258C308.076 5.62719 307.871 5.54661 307.694 5.62561C307.519 5.70304 307.438 5.91003 307.517 6.08542L311.513 15.1093C311.57 15.2389 311.698 15.3163 311.832 15.3163Z" fill="#155263"/>
<path d="M314.152 15.5737C314.281 15.5737 314.405 15.501 314.466 15.3778C316.881 10.4226 319.962 5.4011 319.993 5.35212C320.095 5.18779 320.042 4.9729 319.88 4.87335C319.715 4.77223 319.5 4.82279 319.401 4.98712C319.369 5.03768 316.269 10.0876 313.841 15.0728C313.757 15.2466 313.828 15.4552 314.002 15.539C314.051 15.5627 314.103 15.5737 314.153 15.5737H314.152Z" fill="#155263"/>
<path d="M306.981 28.6978H320.15L321.796 13.9351H305.335L306.981 28.6978Z" fill="white"/>
<path d="M306.981 29.0454H320.15C320.327 29.0454 320.477 28.9127 320.496 28.7357L322.142 13.9745C322.153 13.8766 322.122 13.777 322.055 13.7027C321.989 13.6285 321.894 13.5874 321.796 13.5874H305.335C305.235 13.5874 305.141 13.6301 305.076 13.7027C305.009 13.777 304.978 13.875 304.989 13.9745L306.635 28.7357C306.654 28.9127 306.804 29.0454 306.981 29.0454ZM319.839 28.3486H307.294L305.727 14.2842H321.408L319.84 28.3486H319.839Z" fill="#155263"/>
<path d="M281.101 21.9577C281.273 21.9577 281.422 21.8313 281.446 21.6559L283.699 5.28456C283.726 5.09337 283.591 4.91798 283.402 4.89112C283.209 4.86426 283.035 4.99856 283.008 5.18817L280.755 21.5595C280.728 21.7507 280.863 21.9261 281.052 21.9529C281.068 21.9545 281.084 21.9561 281.1 21.9561L281.101 21.9577Z" fill="#155263"/>
<path d="M271.494 22.1516C271.534 22.1516 271.575 22.1453 271.614 22.1311C271.794 22.0647 271.888 21.8657 271.823 21.6839C271.809 21.646 270.415 17.7811 269.533 11.5429C269.506 11.3533 269.329 11.219 269.14 11.2475C268.949 11.2743 268.816 11.4513 268.843 11.6409C269.737 17.9581 271.154 21.8846 271.169 21.9241C271.221 22.0647 271.354 22.1532 271.496 22.1532L271.494 22.1516Z" fill="#155263"/>
<path d="M283.092 6.1677L287.997 16.206C287.997 16.206 290.073 13.8406 290.131 10.8985C290.19 7.95636 284.419 5.30181 284.419 5.30181C284.419 5.30181 288.458 5.93701 291.169 4.43592C293.881 2.93642 293.881 0.455679 293.881 0.455679C293.881 0.455679 287.303 2.12899 283.9 3.68696L281.36 0.340332C281.36 0.340332 279.861 1.95518 282.457 4.6682C282.457 4.6682 276.688 3.28404 275.245 8.64844C275.245 8.64844 279.456 9.51433 283.092 6.1677Z" fill="#FF725E"/>
<path d="M269.36 13.4946L274.321 18.8021C274.321 18.8021 275.59 17.3595 275.474 14.1867C275.359 11.0138 270.455 10.2633 270.455 10.2633L274.493 7.03201C274.493 7.03201 272.474 5.41716 269.532 9.39741C269.532 9.39741 268.724 1.66603 266.531 0.454102C266.531 0.454102 266.3 8.41617 266.416 8.81909C266.416 8.81909 265.147 7.83786 261.627 6.39524C258.03 4.92101 255.858 4.54969 255.858 4.54969C255.858 4.54969 258.166 8.81909 263.935 11.0123C263.935 11.0123 261.224 15.2817 261.916 18.5129L269.358 13.493L269.36 13.4946Z" fill="#FF725E"/>
<path d="M285.789 21.8008L283.211 28.7627H258.974L256.524 21.8008H285.789Z" fill="white"/>
<path d="M258.974 29.1105H283.211C283.356 29.1105 283.487 29.0204 283.538 28.8829L286.116 21.9211C286.156 21.8136 286.142 21.6951 286.075 21.6003C286.01 21.5071 285.903 21.4502 285.789 21.4502H256.524C256.411 21.4502 256.305 21.5055 256.24 21.5971C256.175 21.6888 256.158 21.8073 256.196 21.9147L258.645 28.8766C258.694 29.0157 258.825 29.1089 258.974 29.1089V29.1105ZM282.969 28.4136H259.22L257.016 22.1486H285.288L282.969 28.4136Z" fill="#155263"/>
<path d="M260.399 22.0174C260.416 22.0174 260.432 22.0174 260.449 22.0143C260.639 21.9858 260.772 21.8104 260.743 21.6192C260.702 21.3301 259.653 14.4915 254.263 10.3595C254.11 10.2426 253.892 10.271 253.775 10.4243C253.658 10.5776 253.687 10.7956 253.84 10.9126C258.999 14.8675 260.043 21.6508 260.054 21.7188C260.08 21.8926 260.228 22.0174 260.399 22.0174Z" fill="#155263"/>
<path d="M254.216 10.6109C254.216 10.6109 258.25 11.5605 259.377 11.0264C259.377 11.0264 258.19 8.35765 253.563 8.23914C253.563 8.23914 255.166 2.60454 252.14 0.468262C252.14 0.468262 249.599 2.44179 250.075 7.12834C250.075 7.12834 247.428 4.26048 243.667 6.58479C243.667 6.58479 246.85 9.01654 249.578 9.61066C249.578 9.61066 248.095 9.96618 247.918 12.458C247.918 12.458 249.994 12.3395 250.647 10.2032C250.647 10.2032 250.005 15.1789 255.344 18.0863C255.344 18.0863 256.589 13.6968 254.218 10.6124L254.216 10.6109Z" fill="#FF725E"/>
<path d="M325.352 90.1073H298.363C298.168 90.1073 298.01 89.9485 298.01 89.7545V61.8474C298.01 61.6518 298.168 61.4946 298.363 61.4946H325.352C325.547 61.4946 325.704 61.6534 325.704 61.8474V89.7545C325.704 89.9501 325.547 90.1073 325.352 90.1073ZM298.716 89.4018H324.999V62.2001H298.716V89.4018Z" fill="#155263"/>
<path d="M329.763 65.9746H302.774V93.0304H329.763V65.9746Z" fill="#E6EAEB"/>
<path d="M311.145 76.168C311.591 76.5415 311.814 77.1155 311.814 77.8931C311.814 78.6707 311.586 79.2383 311.132 79.599C310.678 79.9598 309.981 80.141 309.042 80.141H307.906V82.0216H306.826V75.6084H309.022C309.992 75.6084 310.699 75.7944 311.145 76.168ZM310.38 78.815C310.597 78.5857 310.706 78.249 310.706 77.8065C310.706 77.364 310.568 77.0498 310.294 76.8654C310.02 76.6826 309.588 76.5896 309.003 76.5896H307.905V79.1581H309.159C309.757 79.1581 310.164 79.0427 310.38 78.8134V78.815Z" fill="#155263"/>
<path d="M313.085 82.0216V75.6084H314.165V78.3885H317.342V75.6084H318.421V82.0216H317.342V79.397H314.165V82.0216H313.085Z" fill="#155263"/>
<path d="M324.515 76.168C324.96 76.5415 325.183 77.1155 325.183 77.8931C325.183 78.6707 324.956 79.2383 324.502 79.599C324.048 79.9598 323.351 80.141 322.411 80.141H321.276V82.0216H320.195V75.6084H322.392C323.362 75.6084 324.069 75.7944 324.515 76.168ZM323.75 78.815C323.966 78.5857 324.075 78.249 324.075 77.8065C324.075 77.364 323.938 77.0498 323.663 76.8654C323.389 76.6826 322.958 76.5896 322.373 76.5896H321.274V79.1581H322.528C323.126 79.1581 323.533 79.0427 323.75 78.8134V78.815Z" fill="#155263"/>
<path d="M140.079 59.3424H113.076C112.889 59.3424 112.739 59.1909 112.739 59.0056V31.0843C112.739 30.8976 112.891 30.7476 113.076 30.7476H140.079C140.266 30.7476 140.416 30.8991 140.416 31.0843V59.0072C140.416 59.1939 140.264 59.3439 140.079 59.3439V59.3424ZM113.413 58.6689H139.742V31.4211H113.413V58.6689Z" fill="#155263"/>
<path d="M144.494 35.2129H117.491V62.2831H144.494V35.2129Z" fill="#E6EAEB"/>
<path d="M124.694 44.5459V43.1284H129.23V49.2928C129.23 50.3812 128.955 51.1956 128.403 51.739C127.852 52.2824 127.145 52.5549 126.283 52.5549C125.198 52.5549 124.273 52.1722 123.51 51.4053L124.404 50.1623C125.008 50.7425 125.599 51.0318 126.178 51.0318C126.586 51.0318 126.935 50.894 127.225 50.617C127.514 50.3414 127.658 49.9266 127.658 49.374V44.5474H124.697L124.694 44.5459Z" fill="#155263"/>
<path d="M134.558 44.3591C134.1 44.3591 133.723 44.4525 133.431 44.6392C133.137 44.826 132.992 45.1092 132.992 45.4888C132.992 45.8684 133.139 46.1577 133.431 46.3583C133.725 46.5588 134.349 46.7746 135.305 47.0073C136.26 47.2385 136.981 47.5645 137.466 47.984C137.951 48.4034 138.193 49.0203 138.193 49.8362C138.193 50.6521 137.887 51.3134 137.273 51.8216C136.659 52.3298 135.854 52.5839 134.859 52.5839C133.4 52.5839 132.107 52.0803 130.977 51.0731L131.965 49.8836C132.907 50.7041 133.886 51.1144 134.899 51.1144C135.406 51.1144 135.808 51.0057 136.107 50.7868C136.405 50.5679 136.554 50.2786 136.554 49.9173C136.554 49.5561 136.414 49.2759 136.134 49.0754C135.854 48.8749 135.372 48.6927 134.688 48.5274C134.004 48.3621 133.483 48.2105 133.126 48.0727C132.771 47.935 132.454 47.7543 132.179 47.5308C131.628 47.1114 131.352 46.47 131.352 45.6051C131.352 44.7403 131.666 44.0744 132.292 43.6059C132.92 43.1375 133.694 42.9033 134.619 42.9033C135.214 42.9033 135.807 43.0013 136.393 43.1972C136.979 43.3932 137.488 43.6702 137.913 44.0269L137.073 45.2163C136.797 44.9668 136.424 44.7617 135.952 44.6009C135.481 44.4402 135.017 44.3606 134.559 44.3606L134.558 44.3591Z" fill="#155263"/>
<path d="M176.34 161.011H149.312C149.142 161.011 149.005 160.873 149.005 160.705V132.756C149.005 132.586 149.143 132.45 149.312 132.45H176.34C176.509 132.45 176.646 132.588 176.646 132.756V160.705C176.646 160.874 176.509 161.011 176.34 161.011ZM149.618 160.398H176.033V133.062H149.618V160.398Z" fill="#155263"/>
<path d="M180.756 136.889H153.728V163.985H180.756V136.889Z" fill="#E6EAEB"/>
<path d="M162.206 152.244C162.664 152.244 163.059 152.167 163.39 152.013C163.72 151.858 164.067 151.612 164.427 151.272L165.284 152.153C164.45 153.079 163.437 153.543 162.247 153.543C161.056 153.543 160.067 153.159 159.282 152.39C158.497 151.621 158.104 150.649 158.104 149.474C158.104 148.299 158.504 147.32 159.304 146.536C160.105 145.752 161.115 145.361 162.336 145.361C163.557 145.361 164.578 145.813 165.396 146.717L164.551 147.643C164.175 147.281 163.82 147.029 163.486 146.886C163.152 146.742 162.759 146.671 162.308 146.671C161.511 146.671 160.843 146.929 160.301 147.445C159.76 147.962 159.49 148.621 159.49 149.423C159.49 150.225 159.758 150.896 160.296 151.433C160.833 151.972 161.47 152.241 162.206 152.241V152.244Z" fill="#155263"/>
<path d="M168.507 151.759V149.612H166.354V148.55H168.507V146.425H169.521V148.55H171.673V149.612H169.521V151.759H168.507Z" fill="#155263"/>
<path d="M174.91 151.759V149.612H172.757V148.55H174.91V146.425H175.924V148.55H178.077V149.612H175.924V151.759H174.91Z" fill="#155263"/>
<path d="M336.38 204.354H309.339C309.177 204.354 309.048 204.224 309.048 204.064V176.102C309.048 175.94 309.177 175.811 309.339 175.811H336.38C336.542 175.811 336.671 175.941 336.671 176.102V204.064C336.671 204.225 336.542 204.354 336.38 204.354ZM309.631 203.773H336.089V176.392H309.631V203.771V203.773Z" fill="#155263"/>
<path d="M340.8 180.237H313.758V207.346H340.8V180.237Z" fill="#E6EAEB"/>
<path d="M317.315 193.964V192.461L322.921 189.859V191.22L318.732 193.118V193.249L322.921 195.194V196.555L317.315 193.966V193.964Z" fill="#155263"/>
<path d="M329.313 188.272H330.503L325.349 199.347H324.159L329.313 188.272Z" fill="#155263"/>
<path d="M337.325 192.461V193.964L331.719 196.554V195.193L335.909 193.248V193.117L331.719 191.219V189.858L337.325 192.459V192.461Z" fill="#155263"/>
</svg>
