<svg width="40" height="40" viewBox="0 0 44 40" fill="none" xmlns="http://www.w3.org/2000/svg">
<path d="M17.3597 29.0988C17.1935 29.0988 17.0261 29.0399 16.8895 28.92L12.1889 24.7958C12.0267 24.6534 11.9335 24.4454 11.9335 24.2257C11.9335 24.0064 12.0271 23.7984 12.1889 23.656L16.8895 19.5317C17.1947 19.2636 17.6532 19.3016 17.9134 19.6161C18.1733 19.9311 18.1368 20.4035 17.8311 20.6712L13.7803 24.2257L17.8311 27.7802C18.1368 28.0483 18.1733 28.5207 17.9134 28.8353C17.7695 29.0094 17.5652 29.0988 17.3597 29.0988Z" fill="#FF725E"/>
<path d="M26.6401 29.0988C26.4346 29.0988 26.2303 29.0094 26.0868 28.8353C25.8265 28.5207 25.8634 28.0483 26.1687 27.7802L30.2195 24.2257L26.1687 20.6712C25.8634 20.4035 25.8265 19.9311 26.0868 19.6161C26.3466 19.3016 26.8055 19.2636 27.1103 19.5317L31.8109 23.656C31.9731 23.7984 32.0663 24.0064 32.0663 24.2257C32.0663 24.4454 31.9731 24.6534 31.8109 24.7958L27.1103 28.92C26.9737 29.0399 26.8063 29.0988 26.6401 29.0988Z" fill="#FF725E"/>
<path d="M20.3363 32.1921C20.2865 32.1921 20.2362 32.1867 20.1855 32.1759C19.7931 32.0906 19.5418 31.6934 19.6245 31.2891L22.5541 16.9571C22.6368 16.5528 23.0219 16.2938 23.4147 16.379C23.8071 16.4642 24.0584 16.861 23.9757 17.2658L21.0461 31.5978C20.974 31.9503 20.6724 32.1921 20.3363 32.1921Z" fill="#FF725E"/>
<path d="M39.1226 40H4.87736C2.18816 40 0 37.7458 0 34.9744V5.02558C0 2.25466 2.18816 0 4.87736 0H39.1226C41.8118 0 44 2.25466 44 5.02558V34.9744C44 37.7458 41.8118 40 39.1226 40ZM4.87736 1.49698C2.98917 1.49698 1.45283 3.08001 1.45283 5.02558V34.9744C1.45283 36.92 2.98917 38.503 4.87736 38.503H39.1226C41.0108 38.503 42.5472 36.92 42.5472 34.9744V5.02558C42.5472 3.08001 41.0108 1.49698 39.1226 1.49698H4.87736Z" fill="#4F5B5E"/>
<path d="M43.2736 11.9858H0.726415C0.325103 11.9858 0 11.6508 0 11.2373C0 10.8242 0.325103 10.4888 0.726415 10.4888H43.2736C43.6749 10.4888 44 10.8242 44 11.2373C44 11.6508 43.6749 11.9858 43.2736 11.9858Z" fill="#4F5B5E"/>
<path d="M12.4115 8.40389C11.1443 8.40389 10.1127 7.34088 10.1127 6.03519C10.1127 4.72909 11.1443 3.6665 12.4115 3.6665C13.6791 3.6665 14.7103 4.72909 14.7103 6.03519C14.7103 7.34088 13.6791 8.40389 12.4115 8.40389ZM12.4115 5.16349C11.9453 5.16349 11.5655 5.55444 11.5655 6.03519C11.5655 6.51595 11.9453 6.9069 12.4115 6.9069C12.8781 6.9069 13.2575 6.51595 13.2575 6.03519C13.2575 5.55444 12.8781 5.16349 12.4115 5.16349Z" fill="#FF725E"/>
<path d="M5.34851 8.38118C4.08093 8.38118 3.04968 7.31859 3.04968 6.01249C3.04968 4.70639 4.08093 3.6438 5.34851 3.6438C6.61609 3.6438 7.64734 4.70639 7.64734 6.01249C7.64734 7.31859 6.61609 8.38118 5.34851 8.38118ZM5.34851 5.14078C4.88234 5.14078 4.50251 5.53215 4.50251 6.01249C4.50251 6.49324 4.88234 6.8842 5.34851 6.8842C5.81509 6.8842 6.19451 6.49324 6.19451 6.01249C6.19451 5.53215 5.81509 5.14078 5.34851 5.14078Z" fill="#FF725E"/>
<path d="M19.4741 8.42666C18.2069 8.42666 17.1757 7.36407 17.1757 6.05797C17.1757 4.75229 18.2069 3.6897 19.4741 3.6897C20.7417 3.6897 21.7729 4.75229 21.7729 6.05797C21.7729 7.36407 20.7417 8.42666 19.4741 8.42666ZM19.4741 5.18626C19.0079 5.18626 18.6285 5.57721 18.6285 6.05797C18.6285 6.53873 19.0079 6.92968 19.4741 6.92968C19.9407 6.92968 20.3201 6.53873 20.3201 6.05797C20.3201 5.57721 19.9407 5.18626 19.4741 5.18626Z" fill="#FF725E"/>
</svg>
