<svg width="41" height="42" viewBox="0 0 41 42" fill="none" xmlns="http://www.w3.org/2000/svg">
<g clip-path="url(#clip0_1794_5406)">
<mask id="mask0_1794_5406" style="mask-type:luminance" maskUnits="userSpaceOnUse" x="0" y="0" width="41" height="42">
<path d="M0.651367 0H40.3545V42H0.651367V0Z" fill="white"/>
</mask>
<g mask="url(#mask0_1794_5406)">
<mask id="mask1_1794_5406" style="mask-type:luminance" maskUnits="userSpaceOnUse" x="0" y="0" width="41" height="42">
<path d="M0.651367 0H40.3545V42H0.651367V0Z" fill="white"/>
</mask>
<g mask="url(#mask1_1794_5406)">
<path d="M40.1904 7.05469L38.7139 29.3672L25.0967 0L40.1904 7.05469ZM30.6748 35.9297L20.5029 41.8359L10.167 35.9297L12.1357 30.8438H28.7061L30.6748 35.9297ZM20.5029 11.1562L25.7529 24.2812H15.0889L20.5029 11.1562ZM2.12793 29.3672L0.651367 7.05469L15.7451 0L2.12793 29.3672Z" fill="url(#paint0_linear_1794_5406)"/>
<path d="M40.1904 7.05469L38.7139 29.3672L25.0967 0L40.1904 7.05469ZM30.6748 35.9297L20.5029 41.8359L10.167 35.9297L12.1357 30.8438H28.7061L30.6748 35.9297ZM20.5029 11.1562L25.7529 24.2812H15.0889L20.5029 11.1562ZM2.12793 29.3672L0.651367 7.05469L15.7451 0L2.12793 29.3672Z" fill="url(#paint1_linear_1794_5406)"/>
</g>
</g>
</g>
<defs>
<linearGradient id="paint0_linear_1794_5406" x1="9.37949" y1="38.0461" x2="40.8467" y2="23.0836" gradientUnits="userSpaceOnUse">
<stop stop-color="#E40035"/>
<stop offset="0.2" stop-color="#F60A48"/>
<stop offset="0.4" stop-color="#F20755"/>
<stop offset="0.5" stop-color="#DC087D"/>
<stop offset="0.7" stop-color="#9717E7"/>
<stop offset="1" stop-color="#6C00F5"/>
</linearGradient>
<linearGradient id="paint1_linear_1794_5406" x1="7.95215" y1="5.03672" x2="28.542" y2="28.5469" gradientUnits="userSpaceOnUse">
<stop stop-color="#FF31D9"/>
<stop offset="1" stop-color="#FF5BE1" stop-opacity="0"/>
</linearGradient>
<clipPath id="clip0_1794_5406">
<rect width="39.7031" height="42" fill="white" transform="translate(0.651367)"/>
</clipPath>
</defs>
</svg>
