<svg width="62" height="38" viewBox="0 0 62 38" fill="none" xmlns="http://www.w3.org/2000/svg">
<g clip-path="url(#clip0_1794_5417)">
<path d="M17.5377 13.4605L17.9456 15.296C17.9456 15.9079 18.1496 16.3158 18.5575 16.9276V17.3355L18.3535 17.9474L16.9259 18.7631L16.518 18.9671L15.9061 18.7631L15.0904 17.7434L14.4785 16.5197C12.8469 18.3553 10.8075 19.375 8.56404 19.375C6.72852 19.375 5.30088 18.7631 4.48509 17.7434C3.46536 16.9276 2.85352 15.5 2.85352 13.8684C2.85352 12.2368 3.46536 10.8092 4.68904 9.78947C5.91273 8.56578 7.5443 8.15789 9.78773 8.15789C11.3047 8.14959 12.8152 8.35557 14.2746 8.76973V7.3421C14.2746 5.71052 13.8667 4.69078 13.2548 4.07894C12.643 3.26315 11.6233 3.0592 9.99167 3.0592L7.74825 3.26315C6.76691 3.51371 5.81103 3.85509 4.89299 4.28289H4.48509C4.28115 4.28289 4.0772 4.07894 4.0772 3.67105V2.65131L4.28115 2.03947C4.28115 1.83552 4.48509 1.63157 4.89299 1.63157L7.34036 0.611837L10.6035 0.203942C13.0509 0.203942 14.6825 0.815784 15.9061 1.83552C16.9259 3.0592 17.5377 4.69078 17.5377 6.9342V13.4605ZM9.37983 16.7237L11.4193 16.3158C12.2351 16.1118 12.8469 15.5 13.4588 14.8882L14.0706 13.6645L14.2746 11.8289V11.0132C13.0026 10.7303 11.7025 10.5934 10.3996 10.6053C9.17588 10.6053 8.15615 10.8092 7.34036 11.421C6.72852 11.8289 6.52457 12.6447 6.52457 13.6645C6.52457 14.6842 6.72852 15.296 7.13641 15.9079C7.74825 16.3158 8.36009 16.7237 9.37983 16.7237ZM25.6956 18.7631L24.8798 18.5592L24.4719 17.9474L19.7811 2.03947L19.5772 1.22368L19.9851 0.815784H22.0246L22.8404 1.01973L23.2483 1.83552L26.7154 15.296L29.7746 1.83552L30.1825 1.01973L30.9982 0.815784H32.6298L33.4456 1.01973L33.8535 1.83552L37.1167 15.5L40.5838 1.83552L40.9917 1.01973L41.8075 0.815784H43.643C44.0509 0.815784 44.2548 1.01973 44.2548 1.22368V1.63157L44.0509 2.03947L39.1561 17.9474L38.7482 18.7631L37.9325 18.9671H36.0969L35.2811 18.7631L35.0772 17.9474L31.814 4.69078L28.7548 17.7434L28.3469 18.5592L27.5311 18.7631H25.6956ZM52.0048 19.375C50.1035 19.3606 48.2267 18.9435 46.4982 18.1513L45.8864 17.5395L45.6825 17.1316V16.1118C45.6825 15.7039 45.8864 15.5 46.0904 15.5H46.4982L47.1101 15.7039C48.5797 16.3846 50.1813 16.7328 51.8009 16.7237C53.0246 16.7237 54.0443 16.3158 54.6561 15.9079C55.4719 15.5 55.6759 14.8882 55.6759 14.0724L55.268 12.6447L53.2285 11.625L50.1693 10.6053C48.7417 10.1974 47.518 9.38157 46.9061 8.56578C46.5098 8.0466 46.2214 7.45334 46.058 6.82098C45.8945 6.18861 45.8592 5.52992 45.9543 4.88371C46.0493 4.23751 46.2727 3.61686 46.6113 3.05833C46.9499 2.4998 47.3969 2.01469 47.9259 1.63157L49.9654 0.611837C51.2753 0.162981 52.6714 0.0233738 54.0443 0.203942C54.8709 0.361824 55.688 0.566095 56.4917 0.815784L57.3075 1.22368L57.9193 1.63157L58.1232 2.44736V3.26315C58.1232 3.87499 57.9193 4.07894 57.7154 4.07894L56.8996 3.67105C55.6759 3.26315 54.4522 3.0592 53.0246 3.0592C51.8009 3.0592 50.7811 3.0592 50.1693 3.4671C49.5575 3.87499 49.3535 4.48684 49.3535 5.30263C49.3535 5.91447 49.5575 6.32236 49.9654 6.73026C50.3732 7.13815 50.9851 7.54605 52.2088 7.95394L55.064 8.76973C56.4917 9.38157 57.5114 9.99341 58.1232 10.8092C58.7351 11.625 59.143 12.6447 59.143 13.6645L58.5311 16.1118L57.1035 17.7434C56.4917 18.3553 55.6759 18.7631 54.8601 18.9671L52.0048 19.375Z" fill="#252F3E"/>
<path fill-rule="evenodd" clip-rule="evenodd" d="M55.8794 29.3684C47.5599 34.925 37.6219 37.5416 27.6447 36.8026C17.6676 36.0635 8.22364 32.0112 0.813605 25.2895C-0.00218469 24.6776 0.609657 24.0658 1.2215 24.4737C9.32424 29.0637 18.3678 31.7436 27.6632 32.3091C36.9585 32.8746 46.2602 31.3108 54.8597 27.7368C55.8794 27.3289 56.8991 28.5526 55.8794 29.3684Z" fill="#FF9900"/>
<path fill-rule="evenodd" clip-rule="evenodd" d="M58.5307 26.1053C57.7149 25.0856 52.8202 25.4934 50.7807 25.9013C49.9649 25.9013 49.9649 25.2895 50.5768 24.8816C54.4518 22.2303 60.7741 23.0461 61.386 23.8619C62.2018 24.8816 61.182 31.204 57.7149 34.2632C57.1031 34.6711 56.4912 34.4671 56.6952 33.8553C57.7149 31.8158 59.3465 27.125 58.5307 26.1053Z" fill="#FF9900"/>
</g>
<defs>
<clipPath id="clip0_1794_5417">
<rect width="62" height="37.1184" fill="white" transform="translate(-0.00195312)"/>
</clipPath>
</defs>
</svg>
