<svg width="37" height="42" viewBox="0 0 37 42" fill="none" xmlns="http://www.w3.org/2000/svg">
<g clip-path="url(#clip0_1794_5373)">
<path d="M3.80177 37.1538L0.490234 0H36.9172L33.6056 37.1538L18.6633 41.3538" fill="#0C73B8"/>
<path d="M18.7441 38.1231L30.7788 34.8115L33.6057 2.98846H18.7441" fill="#30A9DC"/>
<path d="M18.7441 16.8H8.08259L8.48644 21.4038H18.7441V16.8ZM18.7441 7.59229H7.2749L7.67875 12.1154H18.7441V7.59229ZM18.7441 28.6731L8.72875 26.0077L9.29413 30.8538L18.7441 33.4384V28.6731Z" fill="#ECEDEE"/>
<path d="M18.7441 21.4038H24.3172L23.7518 27.3L18.7441 28.6731V33.4384L28.0326 30.8538L30.1326 7.59229H18.7441V12.1154H25.2057L24.7211 16.8H18.7441V21.4038Z" fill="white"/>
</g>
<defs>
<clipPath id="clip0_1794_5373">
<rect width="36.5077" height="42" fill="white" transform="translate(0.490234)"/>
</clipPath>
</defs>
</svg>
