<svg width="47" height="24" viewBox="0 0 47 24" fill="none" xmlns="http://www.w3.org/2000/svg">
<path d="M3.54578 8.39746C3.48131 8.39746 3.41684 8.33299 3.48131 8.26852L3.93262 7.6238C3.99709 7.55933 4.06156 7.49485 4.1905 7.49485H12.314C12.3784 7.49485 12.4429 7.55933 12.3784 7.6238L11.9916 8.20404C11.9271 8.26852 11.8627 8.33299 11.7337 8.33299L3.54578 8.39746ZM0.128775 10.4606C0.064303 10.4606 -0.000169151 10.3961 0.0643027 10.3316L0.515606 9.6869C0.580078 9.62243 0.64455 9.55795 0.773494 9.55795H11.1535C11.2179 9.55795 11.2824 9.62243 11.2824 9.6869L11.089 10.3316C11.089 10.3961 10.9601 10.4606 10.8956 10.4606H0.128775ZM5.60888 12.5881C5.54441 12.5881 5.47994 12.5237 5.54441 12.4592L5.86677 11.8789C5.93124 11.8145 5.99572 11.75 6.12466 11.75H10.6377C10.7022 11.75 10.7666 11.8145 10.7666 11.8789L10.7022 12.3947C10.7022 12.4592 10.6377 12.5237 10.5732 12.5237L5.60888 12.5881ZM29.2056 7.94616L25.4018 8.91324C25.0794 8.97771 25.0149 9.04218 24.757 8.65535C24.4347 8.26852 24.1768 8.01063 23.661 7.81721C22.2426 7.10802 20.8242 7.30144 19.5348 8.13957C17.9875 9.10665 17.2138 10.5895 17.2138 12.4592C17.2138 14.2644 18.5033 15.7473 20.3085 16.0051C21.8558 16.1986 23.1452 15.6828 24.1768 14.5223C24.3702 14.2644 24.5636 14.0065 24.8215 13.6842H20.4374C19.9861 13.6842 19.8572 13.3618 19.9861 12.975C20.3085 12.2658 20.8242 11.1053 21.1466 10.525C21.2111 10.3961 21.4045 10.1382 21.7269 10.1382H29.9793C29.9148 10.7829 29.9148 11.3632 29.8503 12.0079C29.5924 13.6197 29.0122 15.167 27.9806 16.4564C26.3688 18.584 24.2413 19.9379 21.5334 20.3248C19.2769 20.6471 17.2138 20.1958 15.4086 18.8419C13.7323 17.5525 12.7653 15.8762 12.5074 13.8131C12.185 11.3632 12.9587 9.10665 14.4415 7.17249C16.0533 5.04492 18.1809 3.69101 20.8242 3.23971C22.9518 2.85288 25.0149 3.11077 26.8201 4.33573C28.0451 5.10939 28.8832 6.20542 29.4635 7.55933C29.528 7.81721 29.4635 7.88169 29.2056 7.94616Z" fill="#00ACD7"/>
<path d="M36.6843 20.5182C34.6212 20.4537 32.7515 19.8734 31.1397 18.5195C29.7858 17.359 28.9477 15.8762 28.6898 14.1355C28.303 11.5566 29.0122 9.30006 30.5595 7.30143C32.2357 5.10939 34.2344 4.01337 36.9422 3.49759C39.2632 3.11076 41.4552 3.30418 43.3894 4.65809C45.1946 5.88305 46.2906 7.55932 46.613 9.75136C46.9998 12.846 46.0972 15.2959 44.0341 17.4235C42.5513 18.9708 40.6816 19.8734 38.6185 20.3248C37.9093 20.4537 37.2646 20.4537 36.6843 20.5182ZM42.0999 11.3632C42.0999 11.0408 42.0999 10.8474 42.0355 10.5895C41.6486 8.33298 39.5855 7.04354 37.3935 7.55932C35.2659 8.01062 33.912 9.36453 33.3962 11.4921C33.0094 13.2328 33.8476 15.0381 35.4593 15.8117C36.6843 16.3275 37.9737 16.263 39.1342 15.6828C41.0039 14.7802 41.971 13.2973 42.0999 11.3632Z" fill="#00ACD7"/>
</svg>
