<svg width="32" height="42" viewBox="0 0 32 42" fill="none" xmlns="http://www.w3.org/2000/svg">
<g clip-path="url(#clip0_1794_5434)">
<path d="M10.6541 32.4104C10.6541 32.4104 8.95472 33.3815 11.7466 33.7457C15.0241 34.1098 16.7235 33.9884 20.3651 33.3815C20.3651 33.3815 21.3362 33.9884 22.6715 34.474C14.5385 37.9942 4.09923 34.2312 10.6541 32.4104ZM9.56166 27.9191C9.56166 27.9191 7.74085 29.2543 10.5328 29.4971C14.053 29.8613 16.8449 29.8613 21.7004 29.0116C21.7004 29.0116 22.4287 29.6185 23.5212 29.9827C13.5674 32.8959 2.52119 30.2254 9.56166 27.9191Z" fill="#5382A1"/>
<path d="M18.0588 20.1503C20.1224 22.4567 17.5733 24.5202 17.5733 24.5202C17.5733 24.5202 22.6715 21.8497 20.2438 18.5723C18.0588 15.4162 16.3594 13.9595 25.5848 8.6185C25.5848 8.6185 11.1397 12.1387 18.0588 20.1503Z" fill="#E76F00"/>
<path d="M28.8621 35.8093C28.8621 35.8093 30.076 36.7804 27.6483 37.6301C22.9142 39.0867 7.86213 39.4509 3.73497 37.6301C2.27832 37.0231 5.07023 36.052 5.91994 35.9306L7.37659 35.6879C5.67716 34.5954 -3.42688 37.9942 2.76387 39.0867C19.5153 41.7572 33.2321 37.8728 28.8621 35.8093ZM11.3824 23.0636C11.3824 23.0636 3.73497 24.8844 8.71185 25.6127C10.7754 25.8555 14.9026 25.8555 18.787 25.4913C21.9431 25.2486 25.0991 24.6416 25.0991 24.6416L23.1569 25.7341C15.3881 27.6763 0.45751 26.7052 4.82745 24.6416C8.46907 22.9422 11.3824 23.0636 11.3824 23.0636ZM25.0991 30.711C32.8679 26.7052 29.2263 22.6994 26.6772 23.3064L25.8275 23.5491C25.8275 23.5491 26.0702 23.185 26.5558 22.9422C31.5327 21.2428 35.417 28.1619 24.8564 30.9538L25.0991 30.711Z" fill="#5382A1"/>
<path d="M20.2439 0C20.2439 0 24.6139 4.36994 16.1168 11.0462C9.31907 16.5087 14.6601 19.5434 16.1168 23.0636C12.2324 19.422 9.31907 16.2659 11.2613 13.3526C14.0532 9.10405 22.0647 6.91908 20.2439 0Z" fill="#E76F00"/>
<path d="M12.1111 41.8786C19.6371 42.3641 31.2903 41.5144 31.533 37.9942C31.533 37.9942 31.0475 39.3295 25.3423 40.4219C18.9088 41.6358 10.8972 41.5144 6.16309 40.6647C6.16309 40.6647 7.13418 41.5144 12.1111 41.8786Z" fill="#5382A1"/>
</g>
<defs>
<clipPath id="clip0_1794_5434">
<rect width="31.0751" height="42" fill="white" transform="translate(0.579102)"/>
</clipPath>
</defs>
</svg>
