<svg width="43" height="42" viewBox="0 0 43 42" fill="none" xmlns="http://www.w3.org/2000/svg">
<g clip-path="url(#clip0_1794_5401)">
<path d="M0.0698242 0H42.0698V42H0.0698242V0Z" fill="#F0DB4F"/>
<path d="M38.6325 31.9831C38.325 30.0667 37.0754 28.4578 33.3745 26.9566C32.0889 26.3658 30.6557 25.9426 30.2285 24.9684C30.0768 24.4015 30.0568 24.0821 30.1526 23.7388C30.4281 22.6249 31.7576 22.2775 32.8115 22.5969C33.4903 22.8245 34.133 23.3475 34.5203 24.1819C36.3328 23.0082 36.3288 23.0161 37.5944 22.2097C37.1313 21.4911 36.8838 21.1597 36.5804 20.8523C35.4904 19.6346 34.0053 19.0078 31.6298 19.0557C31.2186 19.1076 30.8034 19.1635 30.3922 19.2154C29.2065 19.5148 28.0766 20.1377 27.4138 20.9721C25.4256 23.2278 25.9925 27.1762 28.4119 28.8012C30.7954 30.5897 34.2967 30.997 34.7439 32.6698C35.179 34.7179 33.2388 35.3806 31.3104 35.1451C29.8891 34.8496 29.0987 34.127 28.2442 32.8135C26.6713 33.7238 26.6713 33.7238 25.0544 34.654C25.4376 35.4924 25.8408 35.8717 26.4836 36.5983C29.5258 39.6844 37.1393 39.5327 38.5047 34.8616C38.5606 34.7019 38.9279 33.6319 38.6325 31.9831ZM22.9024 19.3032H18.9739C18.9739 22.6967 18.958 26.0663 18.958 29.4599C18.958 31.6197 19.0698 33.6 18.7184 34.2068C18.1435 35.4005 16.6544 35.2528 15.9757 35.0212C15.285 34.6819 14.9336 34.1988 14.5264 33.5161C14.4146 33.3205 14.3308 33.1688 14.3028 33.1568C13.2369 33.8076 12.1749 34.4623 11.1089 35.1131C11.6399 36.203 12.4224 37.1492 13.4245 37.764C14.9216 38.6623 16.9338 38.9378 19.0378 38.4547C20.4072 38.0554 21.5889 37.2291 22.2077 35.9715C23.102 34.3226 22.9104 32.3264 22.9024 30.1186C22.9224 26.5175 22.9024 22.9163 22.9024 19.3032Z" fill="#323330"/>
</g>
<defs>
<clipPath id="clip0_1794_5401">
<rect width="42" height="42" fill="white" transform="translate(0.0698242)"/>
</clipPath>
</defs>
</svg>
