<svg width="42" height="42" viewBox="0 0 42 42" fill="none" xmlns="http://www.w3.org/2000/svg">
<g clip-path="url(#clip0_1805_5841)">
<path d="M41.9999 0H21.0874L1.11816 21H20.9632L21.0559 20.9055L41.9999 0Z" fill="url(#paint0_linear_1805_5841)"/>
<path d="M21.056 20.9055L20.9632 21H21.1505L21.056 20.9055Z" fill="url(#paint1_linear_1805_5841)"/>
<path d="M21.0875 0H0V22.176V21H1.11825L21.0875 0Z" fill="url(#paint2_linear_1805_5841)"/>
<path d="M20.9632 21H1.11825L0 22.176V42L20.9632 21Z" fill="url(#paint3_linear_1805_5841)"/>
<path d="M21.1505 21H20.9632L0 42H42L21.1505 21Z" fill="url(#paint4_linear_1805_5841)"/>
<path d="M1.11825 21H0V22.176L1.11825 21Z" fill="url(#paint5_linear_1805_5841)"/>
</g>
<defs>
<linearGradient id="paint0_linear_1805_5841" x1="-7.49624" y1="38.3822" x2="31.587" y2="-0.700981" gradientUnits="userSpaceOnUse">
<stop stop-color="#C757BC"/>
<stop offset="0.108" stop-color="#C757BC"/>
<stop offset="0.173" stop-color="#CD5CA9"/>
<stop offset="0.492" stop-color="#E8744F"/>
<stop offset="0.716" stop-color="#F88316"/>
<stop offset="0.823" stop-color="#FF8900"/>
<stop offset="1" stop-color="#FF8900"/>
</linearGradient>
<linearGradient id="paint1_linear_1805_5841" x1="13.5676" y1="49.5654" x2="32.6175" y2="30.5156" gradientUnits="userSpaceOnUse">
<stop stop-color="#00AFFF"/>
<stop offset="0.296" stop-color="#00AFFF"/>
<stop offset="0.694" stop-color="#5282FF"/>
<stop offset="1" stop-color="#945DFF"/>
</linearGradient>
<linearGradient id="paint2_linear_1805_5841" x1="-0.442956" y1="11.6072" x2="12.9207" y2="-1.75684" gradientUnits="userSpaceOnUse">
<stop stop-color="#00AFFF"/>
<stop offset="0.296" stop-color="#00AFFF"/>
<stop offset="0.694" stop-color="#5282FF"/>
<stop offset="1" stop-color="#945DFF"/>
</linearGradient>
<linearGradient id="paint3_linear_1805_5841" x1="-7.26165" y1="38.6167" x2="31.8216" y2="-0.466484" gradientUnits="userSpaceOnUse">
<stop stop-color="#AD4CA4"/>
<stop offset="0.108" stop-color="#AD4CA4"/>
<stop offset="0.173" stop-color="#B25093"/>
<stop offset="0.492" stop-color="#CA6545"/>
<stop offset="0.716" stop-color="#D87213"/>
<stop offset="0.823" stop-color="#DE7700"/>
<stop offset="1" stop-color="#DE7700"/>
</linearGradient>
<linearGradient id="paint4_linear_1805_5841" x1="13.5676" y1="49.5655" x2="32.6175" y2="30.5156" gradientUnits="userSpaceOnUse">
<stop stop-color="#0098DE"/>
<stop offset="0.296" stop-color="#0098DE"/>
<stop offset="0.694" stop-color="#4771DE"/>
<stop offset="1" stop-color="#8151DE"/>
</linearGradient>
<linearGradient id="paint5_linear_1805_5841" x1="4.80912" y1="16.8591" x2="18.1728" y2="3.49509" gradientUnits="userSpaceOnUse">
<stop stop-color="#0098DE"/>
<stop offset="0.296" stop-color="#0098DE"/>
<stop offset="0.694" stop-color="#4771DE"/>
<stop offset="1" stop-color="#8151DE"/>
</linearGradient>
<clipPath id="clip0_1805_5841">
<rect width="42" height="42" fill="white"/>
</clipPath>
</defs>
</svg>
