<svg width="38" height="42" viewBox="0 0 38 42" fill="none" xmlns="http://www.w3.org/2000/svg">
<g clip-path="url(#clip0_1794_5391)">
<path d="M20.3457 0.263299C19.7209 -0.0880917 18.979 -0.0880917 18.3542 0.263299L1.91518 9.75199C1.29036 10.1034 0.938965 10.7672 0.938965 11.47V30.4862C0.938965 31.1891 1.32948 31.8529 1.91518 32.2043L18.3542 41.6928C18.979 42.0444 19.7209 42.0444 20.3457 41.6928L36.7847 32.2043C37.4095 31.8529 37.7609 31.1891 37.7609 30.4862V11.47C37.7609 10.7672 37.3704 10.1034 36.7847 9.75199L20.3457 0.263299Z" fill="url(#paint0_linear_1794_5391)"/>
<mask id="mask0_1794_5391" style="mask-type:luminance" maskUnits="userSpaceOnUse" x="0" y="-1" width="38" height="43">
<path d="M20.3457 0.263299C19.7209 -0.0880917 18.979 -0.0880917 18.3542 0.263299L1.91518 9.75199C1.29036 10.1034 0.938965 10.7672 0.938965 11.47V30.4862C0.938965 31.1891 1.32948 31.8529 1.91518 32.2043L18.3542 41.6928C18.979 42.0444 19.7209 42.0444 20.3457 41.6928L36.7847 32.2043C37.4095 31.8529 37.7609 31.1891 37.7609 30.4862V11.47C37.7609 10.7672 37.3704 10.1034 36.7847 9.75199L20.3457 0.263299Z" fill="white"/>
</mask>
<g mask="url(#mask0_1794_5391)">
<path d="M36.824 9.75207L20.3066 0.263666C20.1504 0.185707 19.9552 0.107605 19.799 0.0684814L1.29053 31.775C1.44673 31.9702 1.64206 32.1264 1.8371 32.2436L18.3543 41.7322C18.8229 42.0055 19.3697 42.0836 19.8773 41.9274L37.2533 10.1426C37.1361 9.98638 36.98 9.8693 36.8238 9.75222L36.824 9.75207Z" fill="url(#paint1_linear_1794_5391)"/>
</g>
<mask id="mask1_1794_5391" style="mask-type:luminance" maskUnits="userSpaceOnUse" x="0" y="-1" width="38" height="43">
<path d="M20.3457 0.263299C19.7209 -0.0880917 18.979 -0.0880917 18.3542 0.263299L1.91518 9.75199C1.29036 10.1034 0.938965 10.7672 0.938965 11.47V30.4862C0.938965 31.1891 1.32948 31.8529 1.91518 32.2043L18.3542 41.6928C18.979 42.0444 19.7209 42.0444 20.3457 41.6928L36.7847 32.2043C37.4095 31.8529 37.7609 31.1891 37.7609 30.4862V11.47C37.7609 10.7672 37.3704 10.1034 36.7847 9.75199L20.3457 0.263299Z" fill="white"/>
</mask>
<g mask="url(#mask1_1794_5391)">
<path d="M36.8628 32.2045C37.3314 31.9312 37.6828 31.4626 37.839 30.955L19.7209 0.029356C19.2523 -0.0487467 18.7447 -0.00976728 18.3152 0.26352L1.91504 9.71323L19.6038 41.9666C19.838 41.9275 20.1114 41.8494 20.3457 41.7322L36.8628 32.2047V32.2045Z" fill="url(#paint2_linear_1794_5391)"/>
</g>
</g>
<defs>
<linearGradient id="paint0_linear_1794_5391" x1="2511.75" y1="733.697" x2="709.832" y2="3564.97" gradientUnits="userSpaceOnUse">
<stop stop-color="#41873F"/>
<stop offset="0.3288" stop-color="#418B3D"/>
<stop offset="0.6352" stop-color="#419637"/>
<stop offset="0.9319" stop-color="#3FA92D"/>
<stop offset="1" stop-color="#3FAE2A"/>
</linearGradient>
<linearGradient id="paint1_linear_1794_5391" x1="1557.65" y1="2313.77" x2="6070.3" y2="-137.96" gradientUnits="userSpaceOnUse">
<stop offset="0.1376" stop-color="#41873F"/>
<stop offset="0.4032" stop-color="#54A044"/>
<stop offset="0.7136" stop-color="#66B848"/>
<stop offset="0.9081" stop-color="#6CC04A"/>
</linearGradient>
<linearGradient id="paint2_linear_1794_5391" x1="-155.755" y1="2098.51" x2="3648.16" y2="2098.51" gradientUnits="userSpaceOnUse">
<stop offset="0.09192" stop-color="#6CC04A"/>
<stop offset="0.2864" stop-color="#66B848"/>
<stop offset="0.5968" stop-color="#54A044"/>
<stop offset="0.8624" stop-color="#41873F"/>
</linearGradient>
<clipPath id="clip0_1794_5391">
<rect width="36.8219" height="42" fill="white" transform="translate(0.938965)"/>
</clipPath>
</defs>
</svg>
