<svg width="60" height="32" viewBox="0 0 60 32" fill="none" xmlns="http://www.w3.org/2000/svg">
<g clip-path="url(#clip0_1805_5834)">
<path d="M30 31.2328C46.5685 31.2328 60 24.2411 60 15.6164C60 6.9917 46.5685 0 30 0C13.4315 0 0 6.9917 0 15.6164C0 24.2411 13.4315 31.2328 30 31.2328Z" fill="#8993BE"/>
<path fill-rule="evenodd" clip-rule="evenodd" d="M8.4248 24.863L11.7126 8.21905H19.315C22.6026 8.4246 24.2465 10.0683 24.2465 12.9452C24.2465 17.8767 20.3425 20.7534 16.8492 20.5479H13.151L12.329 24.863H8.4248ZM13.9727 17.4658L15.0002 11.3013H17.6714C19.1097 11.3013 20.137 11.9177 20.137 13.1505C19.9317 16.6439 18.2878 17.2603 16.4386 17.4658H13.9727ZM23.4827 20.5479L26.7703 3.90421H30.6745L29.8525 8.21905H33.551C36.8388 8.4246 38.0716 10.0683 37.6607 12.1233L36.2224 20.5479H32.1129L33.5512 12.9452C33.7565 11.9177 33.7565 11.3013 32.3184 11.3013H29.2361L27.3869 20.5479H23.4827ZM35.9592 24.863L39.2468 8.21905H46.8494C50.1372 8.4246 51.7811 10.0683 51.7811 12.9452C51.7811 17.8767 47.8769 20.7534 44.3838 20.5479H40.6851L39.8632 24.863H35.9592ZM41.5068 17.4658L42.5343 11.3013H45.2057C46.6441 11.3013 47.6714 11.9177 47.6714 13.1505C47.4661 16.6439 45.8221 17.2603 43.9729 17.4658H41.5071H41.5068Z" fill="#232531"/>
</g>
<defs>
<clipPath id="clip0_1805_5834">
<rect width="60" height="31.416" fill="white"/>
</clipPath>
</defs>
</svg>
