<svg width="43" height="42" viewBox="0 0 43 42" fill="none" xmlns="http://www.w3.org/2000/svg">
<path d="M20.9584 0C10.2397 0 10.9087 4.64819 10.9087 4.64819L10.9219 9.46395H21.1497V10.9087H6.85684C6.85684 10.9087 0 10.1302 0 20.9466C0 31.7602 5.98605 31.3776 5.98605 31.3776H9.55894V26.3587C9.55894 26.3587 9.36631 20.3726 15.45 20.3726H25.5934C25.5934 20.3726 31.2932 20.465 31.2932 14.8642V5.60343C31.2932 5.60343 32.1587 0 20.9584 0ZM15.3181 3.23777C15.8062 3.23777 16.2743 3.43169 16.6195 3.77685C16.9647 4.12202 17.1586 4.59017 17.1586 5.07831C17.1586 5.56646 16.9647 6.03461 16.6195 6.37977C16.2743 6.72494 15.8062 6.91885 15.3181 6.91885C15.0763 6.9192 14.8368 6.87183 14.6133 6.77946C14.3898 6.68709 14.1868 6.55153 14.0158 6.38055C13.8448 6.20957 13.7093 6.00653 13.6169 5.78307C13.5245 5.55961 13.4772 5.32012 13.4775 5.07831C13.4775 4.06107 14.3008 3.23777 15.3181 3.23777Z" fill="url(#paint0_linear_1805_5840)"/>
<path d="M21.2619 42C31.9806 42 31.3116 37.3518 31.3116 37.3518L31.2984 32.5361H21.0706V31.0913H35.3621C35.3621 31.0913 42.2203 31.8698 42.2203 21.0548C42.2203 10.2398 36.2343 10.6237 36.2343 10.6237H32.6614V15.6413C32.6614 15.6413 32.854 21.6274 26.7703 21.6274H16.6269C16.6269 21.6274 10.9271 21.535 10.9271 27.1358V36.3966C10.9271 36.3966 10.0616 42 21.2619 42ZM26.9022 38.7623C26.6604 38.7626 26.421 38.7152 26.1975 38.6229C25.974 38.5305 25.771 38.3949 25.6 38.2239C25.429 38.053 25.2935 37.8499 25.2011 37.6265C25.1087 37.403 25.0614 37.1635 25.0617 36.9217C25.062 36.5581 25.17 36.2026 25.3722 35.9004C25.5744 35.5981 25.8617 35.3626 26.1977 35.2236C26.5337 35.0845 26.9034 35.0482 27.2601 35.1192C27.6167 35.1902 27.9443 35.3654 28.2015 35.6225C28.4586 35.8796 28.6337 36.2072 28.7047 36.5639C28.7757 36.9205 28.7394 37.2902 28.6004 37.6263C28.4614 37.9623 28.2258 38.2495 27.9236 38.4517C27.6213 38.6539 27.2659 38.762 26.9022 38.7623Z" fill="url(#paint1_linear_1805_5840)"/>
<defs>
<linearGradient id="paint0_linear_1805_5840" x1="4.05711" y1="3.67053" x2="24.9337" y2="24.6171" gradientUnits="userSpaceOnUse">
<stop stop-color="#387EB8"/>
<stop offset="1" stop-color="#366994"/>
</linearGradient>
<linearGradient id="paint1_linear_1805_5840" x1="16.9" y1="16.9964" x2="39.3216" y2="38.4773" gradientUnits="userSpaceOnUse">
<stop stop-color="#FFE052"/>
<stop offset="1" stop-color="#FFC331"/>
</linearGradient>
</defs>
</svg>
