<svg width="48" height="42" viewBox="0 0 48 42" fill="none" xmlns="http://www.w3.org/2000/svg">
<g clip-path="url(#clip0_1794_5440)">
<path d="M39.4275 13.5991C38.9256 13.4269 38.4195 13.2674 37.9096 13.1207C37.9952 12.7707 38.0741 12.425 38.1441 12.0853C39.2932 6.50721 38.542 2.01339 35.9761 0.53381C33.516 -0.884611 29.4926 0.594415 25.4293 4.1307C25.0289 4.47985 24.6373 4.83905 24.255 5.20797C23.999 4.96265 23.7386 4.72209 23.4737 4.48642C19.2152 0.70531 14.9466 -0.888295 12.3835 0.595521C9.92561 2.01836 9.1978 6.24286 10.2323 11.5293C10.3352 12.0529 10.4515 12.5738 10.5808 13.0914C9.97664 13.2631 9.39361 13.4459 8.83564 13.6404C3.8428 15.3812 0.654297 18.1092 0.654297 20.9388C0.654297 23.8613 4.0773 26.7927 9.27756 28.5701C9.69915 28.7136 10.1243 28.8466 10.5525 28.9689C10.4134 29.5265 10.2899 30.0878 10.1822 30.6522C9.19595 35.847 9.96614 39.9716 12.4174 41.3854C14.9492 42.8455 19.1986 41.3449 23.3361 37.7279C23.6716 37.4339 23.9998 37.1315 24.3202 36.8211C24.7342 37.2205 25.1593 37.6084 25.5949 37.9842C29.603 41.433 33.5613 42.8256 36.0102 41.4079C38.5396 39.9436 39.3617 35.5126 38.2944 30.1217C38.2103 29.6994 38.116 29.2791 38.0116 28.8613C38.3101 28.7729 38.603 28.6819 38.8885 28.5872C44.2947 26.7962 47.8122 23.9004 47.8122 20.9388C47.8122 18.0988 44.5207 15.3524 39.4275 13.5991ZM38.255 26.6751C37.9971 26.7604 37.7326 26.8428 37.4629 26.9229C36.866 25.0334 36.0607 23.0244 35.075 20.9486C36.0155 18.9223 36.79 16.9389 37.37 15.0618C37.8525 15.2014 38.3206 15.3486 38.7719 15.5039C43.1358 17.0063 45.7977 19.2273 45.7977 20.9388C45.7977 22.7618 42.9229 25.1283 38.255 26.6751ZM36.3182 30.513C36.7901 32.8967 36.8574 35.0519 36.5448 36.7369C36.264 38.2509 35.6992 39.2602 35.0007 39.6645C33.5147 40.5248 30.3365 39.4067 26.9089 36.4571C26.5037 36.1077 26.1083 35.7471 25.7231 35.3758C27.052 33.9225 28.38 32.2331 29.6761 30.3568C31.9559 30.1545 34.1097 29.8237 36.0629 29.3722C36.159 29.7603 36.2445 30.1409 36.3182 30.513ZM16.7315 39.5159C15.2795 40.0285 14.123 40.0433 13.424 39.6402C11.9365 38.7824 11.3181 35.4704 12.1616 31.028C12.2618 30.5031 12.3766 29.981 12.5058 29.4624C14.4375 29.8898 16.5756 30.197 18.8607 30.3824C20.1657 32.2184 21.532 33.9059 22.909 35.3837C22.6163 35.6668 22.3168 35.9427 22.0106 36.2112C20.1808 37.8105 18.3473 38.9452 16.7315 39.5159ZM9.9293 26.6639C7.6298 25.8779 5.73077 24.8564 4.42914 23.7418C3.2594 22.7402 2.66901 21.7457 2.66901 20.9388C2.66901 19.2216 5.22898 17.0313 9.4988 15.5427C10.017 15.3622 10.5593 15.1918 11.1221 15.0319C11.7123 16.9514 12.4863 18.9584 13.4205 20.9878C12.4742 23.0473 11.6891 25.0863 11.0931 27.0284C10.7023 26.9165 10.3142 26.7949 9.9293 26.6639ZM12.2095 11.1423C11.3232 6.61313 11.9118 3.19657 13.393 2.33907C14.9706 1.42576 18.4592 2.72794 22.1362 5.99289C22.376 6.20627 22.6119 6.42399 22.8437 6.64592C21.4736 8.1172 20.1198 9.79223 18.8265 11.6174C16.6086 11.823 14.4856 12.1531 12.5337 12.5954C12.4134 12.1139 12.3053 11.6292 12.2095 11.1423ZM32.5513 16.1654C32.0902 15.369 31.6121 14.5827 31.1172 13.8069C32.6218 13.9972 34.0635 14.2498 35.4172 14.5585C35.0108 15.8612 34.5043 17.2231 33.908 18.6194C33.4721 17.7924 33.0198 16.9743 32.5513 16.1654ZM24.2559 8.0857C25.1851 9.09241 26.1157 10.2163 27.031 11.4358C25.1742 11.3481 23.3143 11.3477 21.4574 11.4347C22.3736 10.2264 23.3122 9.10402 24.2559 8.0857ZM15.9073 16.1792C15.4446 16.9816 15.0007 17.7947 14.576 18.6178C13.9895 17.2264 13.4875 15.8583 13.0776 14.5371C14.4231 14.2361 15.8579 13.99 17.353 13.8032C16.8526 14.5837 16.3705 15.3761 15.9073 16.1792ZM17.3959 28.2177C15.8513 28.0453 14.3949 27.8119 13.0498 27.519C13.4661 26.1743 13.9792 24.777 14.5784 23.3558C15.0048 24.1796 15.4505 24.9931 15.9152 25.7959C16.3931 26.6212 16.8878 27.4295 17.3959 28.2177ZM24.3115 33.9338C23.3566 32.9037 22.4042 31.7639 21.4741 30.5382C22.3771 30.5736 23.2976 30.5916 24.2332 30.5916C25.1945 30.5916 26.1446 30.5701 27.0798 30.5284C26.1616 31.7763 25.2344 32.9177 24.3115 33.9338ZM33.927 23.2833C34.5573 24.7201 35.0886 26.11 35.5104 27.4317C34.1432 27.7437 32.667 27.995 31.1115 28.1816C31.6099 27.3914 32.0926 26.5914 32.5592 25.7821C33.0336 24.9594 33.4896 24.1262 33.927 23.2833ZM30.8142 24.7755C30.0998 26.0165 29.3453 27.2338 28.5519 28.4257C27.1146 28.5275 25.6741 28.578 24.2332 28.5773C22.7656 28.5773 21.3382 28.5316 19.9636 28.4424C19.1494 27.2533 18.3806 26.0338 17.6586 24.7866C16.94 23.546 16.269 22.2785 15.6466 20.9869C16.2674 19.695 16.9366 18.4269 17.6527 17.1853L17.6525 17.1855C18.3683 15.9436 19.1311 14.7293 19.9391 13.5453C21.3415 13.4392 22.7796 13.384 24.2331 13.384C25.6931 13.384 27.1333 13.4398 28.5353 13.5466C29.3352 14.7289 30.093 15.939 30.8075 17.1747C31.526 18.4135 32.204 19.6754 32.8405 20.9583C32.2106 22.2544 31.5347 23.5276 30.8142 24.7755ZM34.97 2.27902C36.549 3.18976 37.1632 6.86236 36.171 11.6785C36.1076 11.9858 36.0365 12.2988 35.9592 12.6162C34.0025 12.1645 31.878 11.8287 29.6536 11.62C28.3579 9.77473 27.0152 8.09713 25.6673 6.64481C26.0206 6.3043 26.3822 5.97262 26.752 5.65007C30.2335 2.62036 33.4874 1.4241 34.97 2.27902ZM24.2332 16.7278C26.5589 16.7278 28.4443 18.6132 28.4443 20.9388C28.4443 23.2645 26.5589 25.1499 24.2332 25.1499C21.9076 25.1499 20.0222 23.2645 20.0222 20.9388C20.0222 18.6132 21.9076 16.7278 24.2332 16.7278Z" fill="#00D8FF"/>
</g>
<defs>
<clipPath id="clip0_1794_5440">
<rect width="47.1579" height="42" fill="white" transform="translate(0.654297)"/>
</clipPath>
</defs>
</svg>
