<svg width="43" height="42" viewBox="0 0 43 42" fill="none" xmlns="http://www.w3.org/2000/svg">
<g clip-path="url(#clip0_1794_5348)">
<path d="M9.91406 -3.86732e-06H33.1781C34.4445 -0.0215298 35.7019 0.216706 36.8727 0.699999C38.0434 1.18329 39.1027 1.90139 39.9851 2.80997C40.8676 3.71856 41.5545 4.79835 42.0034 5.9827C42.4523 7.16706 42.6538 8.43085 42.5953 9.69609V32.3859C42.64 33.6452 42.4279 34.9005 41.972 36.0752C41.5161 37.2499 40.8258 38.3195 39.9433 39.219C39.0607 40.1184 38.0044 40.8288 36.8385 41.3069C35.6726 41.785 34.4216 42.0208 33.1617 42L9.50391 41.9836C7.11567 41.8577 4.8664 40.8216 3.21858 39.0884C1.57075 37.3551 0.649608 35.0564 0.644531 32.6648V9.33515C0.6442 6.96284 1.54865 4.67972 3.1735 2.95122C4.79835 1.22272 7.02126 0.17899 9.38906 0.0328086C9.55313 -3.8679e-06 9.73359 -3.86732e-06 9.91406 -3.86732e-06Z" fill="url(#paint0_linear_1794_5348)"/>
<path d="M36.0166 34.3547C35.5299 33.5747 34.8808 32.9088 34.1135 32.4023C33.4572 31.9594 32.6861 31.6805 31.8986 31.6477C31.3408 31.6148 30.783 31.7133 30.258 31.9102C29.7317 32.1049 29.2215 32.3408 28.7322 32.6156C28.158 32.9109 27.5838 33.2062 26.9768 33.4523C26.2549 33.7477 25.5002 33.9773 24.7291 34.1414C23.7658 34.3157 22.7875 34.3926 21.8088 34.3711C17.1374 34.2813 12.6494 32.5373 9.14318 29.4492C7.73996 28.2272 6.48455 26.8451 5.40255 25.3312C5.22325 25.0843 5.05889 24.8268 4.91037 24.5602L0.579116 19.8844V9.30234C0.576959 8.08152 0.815555 6.87225 1.28125 5.74373C1.74695 4.61521 2.4306 3.5896 3.2931 2.72559C4.15559 1.86157 5.17999 1.1761 6.30769 0.708416C7.43538 0.240729 8.64423 -1.90541e-06 9.86505 0L18.1502 0L24.2861 6.23438C38.133 15.6516 33.6541 26.0367 33.6541 26.0367C33.6541 26.0367 37.5916 30.4664 36.0166 34.3547Z" fill="url(#paint1_linear_1794_5348)"/>
<path d="M24.3187 6.23438C38.1656 15.6516 33.6867 26.0367 33.6867 26.0367C33.6867 26.0367 37.6242 30.4828 36.0328 34.3711C36.0328 34.3711 34.4086 31.6477 31.6852 31.6477C29.0602 31.6477 27.518 34.3711 22.2352 34.3711C10.4719 34.3711 4.91016 24.5438 4.91016 24.5438C15.5086 31.5164 22.7438 26.5781 22.7438 26.5781C17.9695 23.8055 7.81406 10.5492 7.81406 10.5492C16.657 18.0797 20.4797 20.0648 20.4797 20.0648C18.1992 18.1781 11.8008 8.95781 11.8008 8.95781C16.9195 14.1422 27.0914 21.3773 27.0914 21.3773C29.9789 13.3711 24.3187 6.23438 24.3187 6.23438Z" fill="white"/>
</g>
<defs>
<linearGradient id="paint0_linear_1794_5348" x1="25.5656" y1="-1.47657" x2="17.625" y2="43.5258" gradientUnits="userSpaceOnUse">
<stop stop-color="#FAAE42"/>
<stop offset="1" stop-color="#EF3E31"/>
</linearGradient>
<linearGradient id="paint1_linear_1794_5348" x1="22.0057" y1="0.672656" x2="16.1979" y2="33.6164" gradientUnits="userSpaceOnUse">
<stop stop-color="#E39F3A"/>
<stop offset="1" stop-color="#D33929"/>
</linearGradient>
<clipPath id="clip0_1794_5348">
<rect width="42" height="42" fill="white" transform="translate(0.579102)"/>
</clipPath>
</defs>
</svg>
