<svg width="43" height="42" viewBox="0 0 43 42" fill="none" xmlns="http://www.w3.org/2000/svg">
<g clip-path="url(#clip0_1794_5361)">
<path d="M3.35107 0H38.7886C40.6008 0 42.0698 1.46902 42.0698 3.28125V38.7188C42.0698 40.531 40.6008 42 38.7886 42H3.35107C1.53884 42 0.0698242 40.531 0.0698242 38.7188V3.28125C0.0698242 1.46902 1.53884 0 3.35107 0Z" fill="#3178C6"/>
<path d="M24.7642 32.8904V37.4218C25.5012 37.7995 26.3728 38.0827 27.379 38.2715C28.3852 38.4604 29.4457 38.5547 30.5607 38.5547C31.6471 38.5547 32.6794 38.4508 33.6572 38.2431C34.635 38.0354 35.4926 37.6932 36.2294 37.2166C36.9663 36.7398 37.5497 36.1167 37.9797 35.3473C38.4096 34.578 38.6245 33.6269 38.6245 32.4941C38.6245 31.6728 38.5016 30.9529 38.256 30.3345C38.0131 29.7203 37.652 29.1598 37.1931 28.6849C36.7302 28.2033 36.1751 27.7715 35.528 27.3891C34.8808 27.0068 34.1509 26.6457 33.3383 26.3059C32.743 26.0603 32.2093 25.8221 31.7368 25.5908C31.2645 25.3595 30.8629 25.1235 30.5323 24.8827C30.2015 24.642 29.9464 24.3871 29.7669 24.118C29.5875 23.8489 29.4977 23.5446 29.4977 23.2047C29.4977 22.8931 29.5779 22.6124 29.7386 22.3622C29.8992 22.112 30.1261 21.8973 30.4189 21.7179C30.7118 21.5385 31.0707 21.3993 31.496 21.3001C31.9211 21.201 32.3936 21.1514 32.9132 21.1514C33.2912 21.1514 33.6903 21.1798 34.1107 21.2364C34.5312 21.293 34.9539 21.3803 35.3792 21.4984C35.8031 21.6159 36.2176 21.765 36.6192 21.9445C37.0086 22.1171 37.381 22.3256 37.7317 22.5675V18.3335C37.042 18.0692 36.2884 17.8733 35.4712 17.7458C34.654 17.6183 33.7163 17.5547 32.6581 17.5547C31.581 17.5547 30.5607 17.6704 29.597 17.9017C28.6333 18.1328 27.7852 18.4939 27.053 18.9848C26.3208 19.4759 25.7422 20.1013 25.3169 20.8612C24.8918 21.6211 24.6792 22.5297 24.6792 23.5871C24.6792 24.937 25.0688 26.0887 25.8485 27.0423C26.6279 27.9956 27.8112 28.8028 29.3985 29.4637C29.9844 29.7023 30.5656 29.9525 31.1416 30.2142C31.6802 30.4597 32.1455 30.7145 32.5376 30.9788C32.9297 31.2431 33.2392 31.531 33.4659 31.8426C33.6926 32.1541 33.806 32.5082 33.806 32.9047C33.8079 33.1901 33.7345 33.4709 33.5934 33.7189C33.4518 33.969 33.2367 34.1862 32.9486 34.3703C32.6605 34.5543 32.3014 34.6982 31.8715 34.8021C31.4417 34.9059 30.9385 34.9579 30.3622 34.9579C29.3796 34.9579 28.4065 34.7857 27.4428 34.441C26.479 34.0965 25.5861 33.5797 24.7642 32.8904ZM17.2114 21.6139H23.0386V17.8828H6.79639V21.6139H12.5952V38.2266H17.2114V21.6139Z" fill="white"/>
</g>
<defs>
<clipPath id="clip0_1794_5361">
<rect width="42" height="42" fill="white" transform="translate(0.0698242)"/>
</clipPath>
</defs>
</svg>
