<svg width="334" height="320" viewBox="0 0 334 320" fill="none" xmlns="http://www.w3.org/2000/svg">
<path d="M77.0397 91.853L69.6427 79.8366C73.6804 72.6885 74.8989 64.2889 73.0588 56.2882C71.2186 48.2874 66.4528 41.2642 59.6979 36.5985C52.943 31.9328 44.6874 29.962 36.5533 31.0734C28.4193 32.1848 20.995 36.298 15.7393 42.6048C10.4837 48.9116 7.77665 56.956 8.15025 65.1571C8.52385 73.3582 11.951 81.1231 17.7584 86.9259C23.5657 92.7287 31.3332 96.1499 39.5346 96.5172C47.736 96.8844 55.7782 94.1712 62.081 88.9106L77.0397 91.853Z" fill="#FFF3F1"/>
<path d="M57.0723 76.0332C56.8805 76.0495 56.6876 76.0495 56.4958 76.0332L54.8487 76.0707L48.7843 76.1306L28.8019 76.2204H27.1698V76.0332C27.1698 68.5464 27.1698 61.8606 27.2222 56.9867C27.2222 54.5909 27.2671 52.6518 27.2821 51.2592C27.2821 50.6154 27.2821 50.0988 27.2821 49.7095C27.2614 49.5304 27.2614 49.3495 27.2821 49.1704C27.2932 49.3499 27.2932 49.5299 27.2821 49.7095C27.2821 50.0988 27.2821 50.6154 27.2821 51.2592C27.2821 52.6518 27.2821 54.5909 27.342 56.9867C27.342 61.8606 27.342 68.5614 27.4019 76.0332L27.2147 75.8461H28.8019L48.7993 75.8985L54.8637 75.9584H56.5108C56.7001 75.963 56.8884 75.9881 57.0723 76.0332Z" fill="#263238"/>
<path d="M28.802 76.4077H27.1698C27.1224 76.4064 27.0772 76.3877 27.0426 76.3553C27.024 76.3381 27.0091 76.3173 26.9988 76.2941C26.9885 76.2709 26.983 76.2459 26.9827 76.2206L27.0426 56.9868L27.1399 49.7096C27.1399 49.0807 27.1399 48.9609 27.3645 48.9609C27.5891 48.9609 27.5666 49.0583 27.5891 49.7096L27.634 52.8616L27.6789 56.9943L27.7388 75.6665H28.802L48.7994 75.7189L56.5183 75.8163C57.1846 75.8163 57.267 75.8163 57.267 76.0409C57.267 76.2655 57.1771 76.243 56.5183 76.2655L54.8712 76.3029L48.8068 76.3628L28.802 76.4077Z" fill="#FF725E"/>
<path d="M53.7706 55.6914C53.495 55.9925 53.1999 56.2751 52.8871 56.5374L50.379 58.7386C48.2453 60.5803 45.288 63.1184 42.0087 65.896L41.5146 66.3153L41.3873 66.4201L41.2601 66.3078L37.5166 62.8488H37.7862L32.3208 67.341L30.7336 68.6062C30.5534 68.7706 30.3549 68.9138 30.1421 69.033C30.3003 68.8471 30.4758 68.6766 30.6662 68.5239L32.1635 67.1762L37.5391 62.5643L37.6589 62.467L37.7712 62.5718L41.5146 66.0083H41.2676L41.7617 65.589C45.0484 62.8114 48.0282 60.3108 50.2069 58.5214L52.7599 56.4251C53.0742 56.1509 53.4125 55.9054 53.7706 55.6914Z" fill="#263238"/>
<path d="M30.1121 69.2578C30.0672 69.2578 30.0298 69.2578 29.9848 69.1754C29.9399 69.0931 29.9249 68.9434 30.5239 68.4268L32.0213 67.0791L37.5166 62.3699C37.552 62.3393 37.5971 62.3225 37.6439 62.3225C37.6906 62.3225 37.7358 62.3393 37.7712 62.3699L41.4023 65.7015L41.6419 65.4919C44.8238 62.8041 47.8185 60.2511 50.087 58.4168L52.67 56.3055C53.7481 55.4446 53.7706 55.4371 53.9128 55.5569C54.0551 55.7216 54.0326 55.7365 53.0069 56.6574L50.4988 58.9035C48.2528 60.8201 45.3104 63.3956 42.1285 66.0609L41.5071 66.585C41.4729 66.615 41.429 66.6315 41.3836 66.6315C41.3381 66.6315 41.2942 66.615 41.26 66.585L37.6439 63.2309L30.8383 68.8086C30.4041 69.1156 30.2244 69.2578 30.1121 69.2578ZM41.6718 65.9262L41.8814 65.7465L43.4986 64.3689L41.8814 65.739L41.6718 65.9262Z" fill="#FF725E"/>
<path d="M53.7706 61.913C53.664 61.3001 53.6213 60.6779 53.6433 60.0562C53.6059 58.9107 53.5834 57.316 53.5834 55.5641L53.7706 55.7513H53.4487C51.5994 55.7513 49.9298 55.7513 48.717 55.6989C48.0646 55.7078 47.4129 55.6551 46.7704 55.5417C47.4185 55.4348 48.0753 55.3896 48.7319 55.4069C49.9448 55.4069 51.6144 55.3545 53.4636 55.3545H53.9727V55.5417C53.9727 57.316 53.9727 58.9107 53.9128 60.0338C53.9314 60.6634 53.8838 61.2933 53.7706 61.913Z" fill="#263238"/>
<path d="M53.7706 62.1003C53.561 62.1003 53.516 62.1003 53.4561 60.0639C53.4187 58.9558 53.4037 57.4959 53.3962 55.9162C51.6293 55.9162 49.9673 55.9162 48.7095 55.8638C46.5682 55.8039 46.5682 55.7589 46.5682 55.5418C46.5682 55.3247 46.5682 55.2798 48.7095 55.2199C49.9822 55.2199 51.7042 55.1675 53.4486 55.1675H53.9578C54.0073 55.169 54.0549 55.1875 54.0925 55.2199C54.1101 55.2375 54.1239 55.2586 54.1329 55.2818C54.1419 55.305 54.146 55.3298 54.1449 55.3547V55.5418C54.1449 57.2638 54.1449 58.866 54.085 60.0339C54.0326 62.1003 53.9877 62.1003 53.7706 62.1003Z" fill="#FF725E"/>
<path d="M263.028 59.5475C262.958 53.8543 264.576 48.268 267.678 43.4939C270.781 38.7198 275.228 34.972 280.459 32.7237C285.69 30.4754 291.47 29.8274 297.068 30.8616C302.667 31.8958 307.834 34.5658 311.917 38.5344C315.999 42.5031 318.814 47.5924 320.006 53.1598C321.198 58.7272 320.714 64.5229 318.614 69.8153C316.515 75.1076 312.894 79.6592 308.21 82.8952C303.525 86.1313 297.987 87.9068 292.294 87.9975C284.644 88.0936 277.268 85.153 271.782 79.8201C266.296 74.4873 263.148 67.1972 263.028 59.5475ZM305.606 58.8587C305.549 56.1374 304.688 53.4939 303.13 51.2618C301.573 49.0296 299.389 47.3089 296.854 46.3168C294.32 45.3247 291.548 45.1057 288.889 45.6874C286.23 46.2691 283.803 47.6254 281.914 49.5852C280.025 51.545 278.759 54.0204 278.276 56.699C277.793 59.3776 278.114 62.1393 279.199 64.6356C280.284 67.1319 282.084 69.2509 284.372 70.7251C286.66 72.1994 289.333 72.9628 292.055 72.919C295.714 72.8462 299.196 71.3252 301.736 68.6896C304.276 66.054 305.668 62.5187 305.606 58.8587Z" fill="#FFF3F1"/>
<path d="M263.028 59.5475C262.894 51.8921 265.802 44.4961 271.115 38.9826C276.428 33.4692 283.711 30.2887 291.366 30.1392L291.59 45.2401C287.917 45.2987 284.417 46.8142 281.861 49.4531C279.305 52.092 277.902 55.6382 277.961 59.3117C278.019 62.9851 279.535 66.4848 282.173 69.0409C284.812 71.597 288.359 73.0001 292.032 72.9415L292.272 88.0425C284.617 88.1344 277.239 85.1857 271.756 79.8434C266.274 74.5011 263.135 67.2018 263.028 59.5475Z" fill="#FFCEC7"/>
<path d="M288.783 27.8181C307.365 27.5186 322.189 41.9383 322.474 60.6105L304.887 60.895C304.745 51.9632 297.954 46.348 289.067 46.4903L288.783 27.8181Z" fill="#FFF3F1"/>
<path d="M333.869 169.709C333.869 169.709 333.689 169.41 333.36 168.803C333.03 168.197 332.566 167.306 331.907 166.108C330.582 163.772 328.59 160.336 325.663 156.151C324.203 154.062 322.474 151.801 320.46 149.412C318.288 146.838 315.937 144.421 313.422 142.18C310.552 139.583 307.421 137.289 304.078 135.337C303.188 134.828 302.282 134.319 301.331 133.84C300.38 133.361 299.399 132.941 298.411 132.515C296.351 131.677 294.225 131.013 292.055 130.531C289.777 130.042 287.458 129.771 285.129 129.722C282.699 129.71 280.274 129.961 277.897 130.471C275.419 131 273.011 131.82 270.725 132.911C268.404 134.019 266.135 135.397 263.739 136.655C258.863 139.333 253.715 141.487 248.384 143.078C242.674 144.615 236.766 145.284 230.857 145.062C230.108 145.062 229.36 145.003 228.611 144.973C227.845 144.956 227.08 144.899 226.32 144.8C225.938 144.748 225.571 144.726 225.175 144.651L224.037 144.419C223.288 144.284 222.539 144.029 221.79 143.82C218.806 142.853 215.902 141.654 213.106 140.233L204.541 135.936C201.643 134.454 198.613 133.249 195.489 132.335C189.155 130.748 182.455 129.647 175.724 130.358C172.333 130.714 169.025 131.635 165.939 133.084C162.857 134.602 160.034 136.598 157.576 138.998C152.56 143.82 148.786 149.652 145.035 155.282C141.284 160.912 137.683 166.587 133.805 171.903C130.061 177.178 125.816 182.08 121.13 186.54C118.832 188.675 116.377 190.635 113.785 192.402C111.239 194.115 108.557 195.617 105.767 196.894C103.049 198.15 100.212 199.131 97.2991 199.821C95.8691 200.203 94.4092 200.405 92.9717 200.645C91.5348 200.809 90.0904 200.899 88.6443 200.914C83.0426 200.952 77.5149 199.634 72.5326 197.074C67.6886 194.715 63.3238 191.885 58.8541 189.692C50.2624 185.246 40.3816 183.962 30.9388 186.062C21.4959 188.163 13.0917 193.515 7.19486 201.184C4.78471 204.277 2.81908 207.691 1.35512 211.329L0.726224 212.991C0.554026 213.47 0.434236 213.882 0.32942 214.204L0 215.199C0 215.199 0.0898418 214.855 0.291987 214.196C0.389316 213.867 0.501619 213.447 0.666329 212.968C0.83104 212.489 1.04816 211.928 1.28025 211.299C5.03105 201.763 12.1266 193.919 21.2402 189.235C28.6818 185.562 37.0417 184.166 45.273 185.222C50.0429 185.823 54.673 187.244 58.959 189.422C63.4511 191.616 67.8159 194.446 72.6449 196.782C77.5827 199.312 83.0588 200.611 88.6069 200.57C90.0406 200.555 91.4725 200.465 92.8969 200.3C94.3268 200.061 95.7643 199.859 97.1868 199.484C100.077 198.793 102.891 197.815 105.587 196.565C108.357 195.285 111.019 193.783 113.546 192.072C116.12 190.312 118.56 188.363 120.845 186.24C125.51 181.791 129.737 176.904 133.468 171.648C137.331 166.34 140.955 160.71 144.698 155.042C148.442 149.375 152.215 143.565 157.276 138.714C159.773 136.279 162.641 134.257 165.774 132.724C168.901 131.277 172.25 130.366 175.679 130.029C182.492 129.28 189.223 130.418 195.586 132.02C198.727 132.941 201.772 134.157 204.683 135.652L213.241 139.949C216.021 141.363 218.907 142.56 221.873 143.528C222.622 143.73 223.37 143.984 224.119 144.112L225.242 144.344C225.616 144.419 225.991 144.441 226.365 144.493C227.114 144.598 227.862 144.628 228.611 144.666C229.36 144.703 230.108 144.763 230.857 144.756C236.731 144.986 242.607 144.333 248.286 142.816C253.599 141.237 258.728 139.099 263.59 136.438C265.978 135.21 268.239 133.847 270.59 132.694C275.137 130.549 280.109 129.459 285.137 129.505C287.484 129.555 289.82 129.831 292.114 130.328C294.298 130.818 296.436 131.49 298.508 132.335C299.504 132.777 300.507 133.181 301.443 133.675C302.379 134.169 303.307 134.648 304.206 135.172C307.558 137.138 310.697 139.446 313.572 142.06C316.083 144.318 318.432 146.75 320.602 149.337C322.616 151.711 324.345 153.979 325.783 156.076C328.02 159.299 330.087 162.638 331.974 166.078C332.618 167.261 333.075 168.182 333.397 168.788L333.869 169.709Z" fill="#263238"/>
<path d="M175.986 135.172C178.81 135.172 181.099 132.883 181.099 130.059C181.099 127.235 178.81 124.945 175.986 124.945C173.162 124.945 170.872 127.235 170.872 130.059C170.872 132.883 173.162 135.172 175.986 135.172Z" fill="#FF725E"/>
<path d="M175.986 139.537C174.148 139.537 172.351 138.992 170.823 137.971C169.295 136.949 168.104 135.498 167.401 133.8C166.698 132.101 166.515 130.233 166.874 128.43C167.233 126.628 168.119 124.972 169.419 123.673C170.719 122.374 172.375 121.49 174.178 121.132C175.981 120.775 177.849 120.96 179.547 121.664C181.244 122.368 182.695 123.56 183.715 125.089C184.735 126.618 185.279 128.415 185.277 130.253C185.273 132.716 184.293 135.076 182.551 136.816C180.809 138.556 178.448 139.535 175.986 139.537ZM175.986 121.711C174.296 121.711 172.645 122.212 171.24 123.15C169.835 124.089 168.74 125.423 168.094 126.984C167.447 128.545 167.278 130.263 167.608 131.92C167.937 133.577 168.751 135.099 169.945 136.294C171.14 137.488 172.662 138.302 174.319 138.632C175.976 138.961 177.694 138.792 179.255 138.146C180.816 137.499 182.15 136.404 183.089 134.999C184.027 133.594 184.528 131.943 184.528 130.253C184.526 127.988 183.626 125.817 182.024 124.215C180.423 122.613 178.251 121.713 175.986 121.711Z" fill="#FF725E"/>
<path d="M178.442 112.42L178.172 101.946L180.785 101.99L175.904 96.0234L171.022 102.043L173.725 102.058L173.994 112.39L178.442 112.42Z" fill="#FFF3F1"/>
<path d="M168.567 118.027V119.951H166.845V118.11C165.322 118.06 163.844 117.586 162.577 116.74L163.52 114.643C164.503 115.333 165.649 115.753 166.845 115.864V112.996C164.943 112.532 162.817 111.896 162.817 109.447C162.817 107.628 164.134 106.063 166.845 105.756V103.847H168.567V105.719C169.793 105.79 170.986 106.149 172.048 106.767L171.187 108.878C170.38 108.413 169.49 108.11 168.567 107.987V110.9C170.468 111.349 172.564 111.985 172.564 114.404C172.55 116.156 171.254 117.705 168.567 118.027ZM166.845 110.443V108.01C165.939 108.212 165.579 108.714 165.579 109.275C165.579 109.837 166.096 110.204 166.845 110.443ZM169.839 114.576C169.839 113.977 169.338 113.655 168.604 113.393V115.766C169.42 115.572 169.802 115.115 169.802 114.576H169.839Z" fill="#FFCEC7"/>
<path d="M18.0583 198.264C20.8825 198.264 23.1719 195.974 23.1719 193.15C23.1719 190.326 20.8825 188.037 18.0583 188.037C15.2342 188.037 12.9448 190.326 12.9448 193.15C12.9448 195.974 15.2342 198.264 18.0583 198.264Z" fill="#FF725E"/>
<path d="M18.0583 202.629C16.2207 202.629 14.4243 202.084 12.8964 201.063C11.3684 200.042 10.1776 198.591 9.47434 196.893C8.77112 195.195 8.58712 193.327 8.94562 191.525C9.30412 189.723 10.189 188.067 11.4884 186.768C12.7878 185.468 14.4433 184.583 16.2457 184.225C18.048 183.866 19.9161 184.05 21.6139 184.754C23.3116 185.457 24.7627 186.648 25.7836 188.176C26.8045 189.704 27.3495 191.5 27.3495 193.338C27.3475 195.801 26.368 198.163 24.6259 199.905C22.8839 201.647 20.5218 202.627 18.0583 202.629ZM18.0583 184.803C16.3684 184.803 14.7165 185.304 13.3115 186.243C11.9066 187.182 10.8117 188.516 10.1653 190.078C9.51898 191.639 9.35025 193.357 9.68047 195.014C10.0107 196.672 10.825 198.194 12.0205 199.388C13.2159 200.583 14.7387 201.396 16.3963 201.724C18.0539 202.053 19.7717 201.883 21.3325 201.235C22.8933 200.587 24.227 199.491 25.1647 198.086C26.1025 196.68 26.6023 195.027 26.6008 193.338C26.5968 191.074 25.6953 188.904 24.0939 187.304C22.4925 185.704 20.322 184.805 18.0583 184.803Z" fill="#FF725E"/>
<path d="M15.5128 163.405L15.7898 173.872L13.1769 173.827L18.0583 179.794L22.9397 173.775L20.2295 173.76L19.96 163.428L15.5128 163.405Z" fill="#FFF3F1"/>
<path d="M9.48584 182.437V184.361H7.77135V182.497C6.2483 182.45 4.76918 181.975 3.50385 181.126L4.44719 179.03C5.42996 179.72 6.57588 180.14 7.77135 180.25V177.383C5.86969 176.926 3.74342 176.29 3.74342 173.834C3.74342 172.015 5.06111 170.45 7.77135 170.143V168.271H9.48584V170.143C10.7151 170.207 11.9113 170.564 12.9747 171.184L12.1137 173.295C11.3047 172.829 10.4118 172.526 9.48584 172.404V175.324C11.395 175.766 13.4838 176.402 13.4838 178.82C13.4838 180.572 12.1811 182.115 9.48584 182.437ZM7.77135 174.852V172.419C6.86544 172.621 6.50607 173.123 6.50607 173.692C6.50607 174.261 7.01518 174.613 7.77135 174.852ZM10.7212 178.993C10.7212 178.394 10.227 178.064 9.48584 177.81V180.176C10.3468 179.988 10.7212 179.539 10.7212 178.993Z" fill="#FFCEC7"/>
<path d="M310.42 126.922V128.846H308.705V126.974C307.179 126.926 305.698 126.448 304.43 125.596L305.374 123.508C306.36 124.196 307.508 124.617 308.705 124.728V121.853C306.804 121.389 304.67 120.752 304.67 118.297C304.67 116.485 305.995 114.92 308.705 114.613V112.704H310.42V114.576C311.647 114.646 312.84 115.005 313.901 115.624L313.048 117.735C312.242 117.262 311.347 116.959 310.42 116.844V119.757C312.322 120.206 314.418 120.842 314.418 123.261C314.418 125.05 313.115 126.592 310.42 126.922ZM308.705 119.337V116.904C307.792 117.106 307.433 117.601 307.433 118.17C307.433 118.739 307.949 119.098 308.705 119.337ZM311.655 123.47C311.655 122.871 311.161 122.549 310.42 122.287V124.653C311.281 124.466 311.655 124.024 311.655 123.47Z" fill="#FFCEC7"/>
<path d="M321.066 128.479C321.848 128.136 322.512 127.57 322.975 126.853C323.438 126.135 323.681 125.298 323.672 124.444C323.708 123.885 323.63 123.325 323.443 122.798C323.255 122.271 322.961 121.788 322.58 121.378C322.199 120.969 321.738 120.642 321.225 120.417C320.713 120.192 320.16 120.075 319.6 120.072C319.041 120.069 318.486 120.18 317.971 120.399C317.457 120.618 316.992 120.94 316.606 121.346C316.22 121.751 315.921 122.231 315.728 122.756C315.534 123.281 315.45 123.84 315.481 124.399C315.463 125.26 315.701 126.108 316.165 126.834C316.629 127.56 317.297 128.133 318.086 128.479C311.783 129.43 312.097 136.28 312.097 136.28L327.011 136.355C327.011 136.355 327.318 129.423 321.066 128.479Z" fill="#FFF3F1"/>
<path d="M324.637 148.012C324.637 149.023 324.338 150.012 323.776 150.853C323.214 151.694 322.415 152.349 321.481 152.736C320.546 153.123 319.518 153.225 318.526 153.027C317.534 152.83 316.623 152.343 315.908 151.628C315.193 150.913 314.706 150.001 314.509 149.01C314.311 148.018 314.413 146.989 314.8 146.055C315.187 145.121 315.842 144.322 316.683 143.76C317.524 143.198 318.513 142.898 319.524 142.898C320.88 142.898 322.181 143.437 323.14 144.396C324.099 145.355 324.637 146.656 324.637 148.012Z" fill="#FF725E"/>
<path d="M319.524 157.491C317.686 157.491 315.889 156.945 314.361 155.924C312.833 154.903 311.642 153.451 310.939 151.753C310.236 150.055 310.053 148.187 310.412 146.384C310.771 144.581 311.657 142.926 312.957 141.627C314.257 140.328 315.913 139.443 317.716 139.086C319.519 138.728 321.387 138.913 323.085 139.618C324.782 140.322 326.233 141.514 327.253 143.043C328.273 144.572 328.817 146.369 328.815 148.207C328.811 150.669 327.831 153.029 326.089 154.77C324.347 156.51 321.986 157.489 319.524 157.491ZM319.524 139.664C317.834 139.664 316.183 140.165 314.778 141.104C313.373 142.043 312.278 143.377 311.632 144.938C310.985 146.499 310.816 148.216 311.145 149.873C311.475 151.531 312.289 153.053 313.483 154.247C314.678 155.442 316.2 156.256 317.857 156.585C319.514 156.915 321.232 156.746 322.793 156.099C324.354 155.453 325.688 154.358 326.627 152.953C327.565 151.548 328.066 149.896 328.066 148.207C328.064 145.942 327.164 143.77 325.562 142.169C323.961 140.567 321.789 139.666 319.524 139.664Z" fill="#FF725E"/>
<path d="M202.736 284.055C202.736 284.055 202.265 310.132 202.265 319.805H284.53V292.298L281.925 285.066L280.989 279.196L202.736 284.055Z" fill="#263238"/>
<path d="M224.426 318.757C224.144 316.462 223.992 314.152 223.969 311.839C223.82 309.529 223.798 307.212 223.902 304.899C224.183 307.197 224.335 309.509 224.359 311.824C224.508 314.132 224.53 316.447 224.426 318.757Z" fill="#6A797C"/>
<path d="M227.241 293.182C227.241 293.182 227.391 293.07 227.72 293.025C228.19 292.967 228.666 293.047 229.09 293.257C229.42 293.407 229.707 293.637 229.925 293.926C230.143 294.215 230.286 294.553 230.34 294.911C230.402 295.35 230.333 295.798 230.141 296.197C229.95 296.597 229.644 296.931 229.262 297.157C228.854 297.356 228.391 297.416 227.945 297.328C227.5 297.24 227.095 297.01 226.792 296.671C226.521 296.374 226.372 295.987 226.372 295.585C226.372 295.244 226.473 294.91 226.664 294.627C226.79 294.421 226.956 294.244 227.153 294.106C227.351 293.969 227.574 293.873 227.81 293.826C228.147 293.781 228.326 293.863 228.319 293.878C228.312 293.893 228.132 293.878 227.847 293.975C227.443 294.112 227.103 294.395 226.897 294.769C226.738 295.026 226.668 295.328 226.698 295.628C226.728 295.928 226.856 296.21 227.061 296.431C227.314 296.699 227.644 296.88 228.006 296.949C228.368 297.018 228.742 296.97 229.075 296.813C229.366 296.635 229.604 296.384 229.765 296.084C229.927 295.784 230.006 295.447 229.994 295.107C229.983 294.767 229.881 294.435 229.7 294.147C229.519 293.859 229.265 293.624 228.963 293.466C228.426 293.215 227.83 293.117 227.241 293.182Z" fill="#6A797C"/>
<path d="M272.536 294.949C271.972 294.708 271.439 294.398 270.949 294.028C270.006 293.406 268.703 292.493 267.385 291.415C266.068 290.337 264.877 289.281 264.069 288.495C263.6 288.099 263.183 287.647 262.826 287.147C263.338 287.482 263.817 287.866 264.256 288.293C265.109 289.042 266.292 290.037 267.625 291.108C268.958 292.179 270.208 293.122 271.106 293.803C271.617 294.14 272.096 294.524 272.536 294.949Z" fill="#6A797C"/>
<path d="M280.974 303.514C280.864 303.598 280.743 303.666 280.615 303.716L279.537 304.233L278.788 304.6C278.503 304.727 278.174 304.839 277.83 304.966C277.141 305.213 276.332 305.543 275.464 305.775L274.056 306.172C273.57 306.307 273.046 306.389 272.514 306.509C271.451 306.763 270.268 306.89 269.07 307.055C263.733 307.609 258.339 307.004 253.258 305.281C252.156 304.907 251.074 304.477 250.016 303.993C249.522 303.768 249.028 303.566 248.579 303.334L247.298 302.638C246.564 302.24 245.851 301.803 245.165 301.328C244.858 301.126 244.566 300.946 244.304 300.766C244.041 300.587 243.832 300.399 243.622 300.235L242.686 299.486C242.477 299.314 242.372 299.224 242.379 299.209C242.503 299.27 242.621 299.343 242.731 299.426L243.712 300.107L244.408 300.602C244.67 300.774 244.97 300.946 245.284 301.141C245.913 301.515 246.602 301.987 247.433 302.383L248.713 303.057C249.163 303.282 249.649 303.469 250.143 303.694C251.124 304.158 252.225 304.517 253.37 304.929C258.4 306.591 263.723 307.181 268.995 306.658C270.208 306.509 271.361 306.396 272.417 306.157C272.948 306.044 273.465 305.97 273.951 305.842L275.352 305.468C276.25 305.258 277.021 304.951 277.717 304.719C278.062 304.6 278.391 304.495 278.683 304.382L279.477 304.053L280.577 303.604C280.705 303.558 280.839 303.528 280.974 303.514Z" fill="#6A797C"/>
<path d="M217.568 108.706C216.28 108.774 215.012 108.364 214.007 107.556C213.002 106.747 212.33 105.596 212.121 104.324C211.911 103.051 212.178 101.745 212.871 100.657C213.564 99.5692 214.634 98.7749 215.876 98.4265C215.117 97.5689 214.648 96.494 214.536 95.3545C214.423 94.2151 214.673 93.0691 215.249 92.0798C215.826 91.0904 216.699 90.308 217.746 89.8439C218.793 89.3798 219.959 89.2575 221.079 89.4946C221.183 88.3721 221.576 87.2956 222.221 86.3704C222.865 85.4451 223.738 84.7026 224.754 84.2154C225.771 83.7282 226.897 83.5129 228.021 83.5905C229.146 83.6681 230.231 84.0359 231.172 84.6581C232.49 83.6899 234.095 83.191 235.73 83.2412C237.365 83.2915 238.937 83.8878 240.193 84.9351C241.293 84.8076 242.405 85.0317 243.37 85.5753C244.334 86.1189 245.102 86.954 245.563 87.9609C246.023 88.9677 246.153 90.0946 245.934 91.1798C245.714 92.2651 245.157 93.2529 244.341 94.0017" fill="#263238"/>
<path d="M216.774 109.395C217.5 103.855 220.286 98.7921 224.578 95.2149C228.869 91.6378 234.351 89.8093 239.931 90.0938L241.084 90.1537C253.437 91.4863 259.202 102.732 257.518 115.04L253.677 156.218L253.467 158.217L224.598 162.529L225.16 152.047C225.16 152.047 213.308 149.554 213.727 137.643C213.967 131.885 215.374 120.071 216.774 109.395Z" fill="#FFBE9D"/>
<path d="M225.032 151.98C230.562 152.26 236.056 150.945 240.859 148.191C240.859 148.191 236.764 156.577 224.935 154.93L225.032 151.98Z" fill="#EB996E"/>
<path d="M218.751 118.753C218.726 119.195 218.873 119.63 219.162 119.965C219.452 120.3 219.86 120.51 220.301 120.55C220.516 120.578 220.735 120.563 220.945 120.505C221.155 120.448 221.351 120.349 221.522 120.214C221.693 120.079 221.835 119.912 221.94 119.721C222.046 119.531 222.112 119.322 222.135 119.105C222.16 118.661 222.012 118.225 221.721 117.888C221.43 117.552 221.02 117.341 220.578 117.301C220.362 117.275 220.143 117.292 219.935 117.351C219.726 117.41 219.531 117.51 219.361 117.645C219.191 117.78 219.049 117.948 218.945 118.138C218.84 118.328 218.774 118.537 218.751 118.753Z" fill="#263238"/>
<path d="M219.043 115.354C219.245 115.587 220.54 114.696 222.412 114.793C224.284 114.89 225.534 115.864 225.744 115.654C225.848 115.557 225.654 115.145 225.085 114.696C224.323 114.106 223.397 113.768 222.434 113.73C221.479 113.686 220.535 113.948 219.739 114.478C219.155 114.853 218.968 115.25 219.043 115.354Z" fill="#263238"/>
<path d="M236.03 120.401C236.001 120.843 236.148 121.28 236.438 121.616C236.728 121.952 237.138 122.161 237.58 122.197C237.796 122.225 238.015 122.209 238.224 122.15C238.433 122.092 238.629 121.993 238.8 121.859C238.97 121.724 239.113 121.557 239.218 121.367C239.324 121.177 239.39 120.968 239.415 120.752C239.441 120.309 239.294 119.872 239.002 119.536C238.711 119.2 238.3 118.992 237.857 118.956C237.642 118.927 237.423 118.943 237.214 119.001C237.005 119.058 236.809 119.158 236.639 119.292C236.468 119.427 236.327 119.595 236.222 119.785C236.118 119.975 236.053 120.185 236.03 120.401Z" fill="#263238"/>
<path d="M237.011 116.612C237.213 116.844 238.554 115.961 240.38 116.058C242.207 116.155 243.502 117.129 243.712 116.919C243.817 116.822 243.622 116.41 243.061 115.961C242.296 115.371 241.367 115.033 240.403 114.995C239.448 114.954 238.505 115.216 237.708 115.743C237.131 116.088 236.936 116.485 237.011 116.612Z" fill="#263238"/>
<path d="M229.697 129.826C229.697 129.722 228.581 129.467 226.754 129.145C226.29 129.07 225.848 128.958 225.788 128.636C225.771 128.151 225.904 127.672 226.17 127.266C226.664 126.158 227.181 125.02 227.728 123.777C229.899 118.806 231.471 114.71 231.291 114.621C231.112 114.531 229.173 118.499 227.001 123.463L225.504 126.981C225.181 127.529 225.064 128.174 225.175 128.801C225.229 128.977 225.325 129.138 225.456 129.268C225.586 129.399 225.747 129.495 225.923 129.549C226.177 129.637 226.441 129.688 226.709 129.699C228.536 129.864 229.689 129.931 229.697 129.826Z" fill="#263238"/>
<path d="M235.02 131.361C234.728 131.361 234.623 133.315 232.849 134.64C231.074 135.965 228.978 135.643 228.948 135.92C228.948 136.04 229.405 136.325 230.296 136.392C231.457 136.468 232.608 136.132 233.545 135.441C234.444 134.777 235.051 133.789 235.237 132.686C235.357 131.855 235.155 131.353 235.02 131.361Z" fill="#263238"/>
<path d="M236.936 109.395C237.094 109.896 238.928 109.754 241.062 110.143C243.195 110.533 244.902 111.177 245.209 110.742C245.352 110.54 245.075 110.054 244.393 109.537C243.489 108.899 242.451 108.476 241.358 108.301C240.266 108.126 239.148 108.203 238.089 108.526C237.251 108.781 236.832 109.125 236.936 109.395Z" fill="#263238"/>
<path d="M219.979 110.091C220.278 110.518 221.566 110.151 223.078 110.203C224.591 110.256 225.863 110.623 226.185 110.203C226.32 110.001 226.14 109.575 225.601 109.155C224.871 108.645 224.006 108.363 223.116 108.346C222.225 108.329 221.349 108.577 220.6 109.058C220.046 109.462 219.851 109.874 219.979 110.091Z" fill="#263238"/>
<path d="M218.219 103.996C218.219 103.996 221.731 96.6893 225.414 95.132C229.869 93.2379 231.508 98.1268 235.716 97.161C239.924 96.1952 244.176 94.3908 248.256 97.8048C252.749 101.548 250.428 103.899 250.45 109.2C250.547 130.68 254.156 136.901 255.773 126.899C255.953 125.798 259.06 125.072 259.749 120.423C260.64 114.396 261.246 107.051 260.101 102.686C259.142 99.0102 257.196 96.4048 253.632 93.4625C248.002 88.8131 239.976 88.319 234.496 88.6035C229.015 88.888 218.159 94.6304 218.219 103.996Z" fill="#263238"/>
<path d="M255.002 126.532C255.038 126.095 255.162 125.671 255.367 125.283C255.572 124.896 255.854 124.554 256.195 124.279C256.536 124.004 256.929 123.801 257.351 123.683C257.772 123.564 258.214 123.532 258.648 123.59C260.857 123.912 263.268 125.297 262.893 129.879C262.227 138.009 254.201 135.666 254.209 135.434C254.216 135.202 254.695 129.931 255.002 126.532Z" fill="#FFBE9D"/>
<path d="M256.223 132.514C256.26 132.514 256.357 132.626 256.589 132.754C256.914 132.925 257.292 132.965 257.645 132.866C258.529 132.619 259.367 131.316 259.524 129.871C259.604 129.176 259.524 128.472 259.292 127.812C259.238 127.552 259.121 127.309 258.951 127.104C258.782 126.899 258.565 126.739 258.319 126.637C258.159 126.585 257.986 126.589 257.829 126.647C257.671 126.706 257.538 126.816 257.45 126.959C257.323 127.176 257.361 127.341 257.316 127.348C257.271 127.356 257.151 127.198 257.248 126.869C257.308 126.672 257.435 126.502 257.608 126.39C257.845 126.238 258.133 126.187 258.409 126.248C258.737 126.34 259.036 126.515 259.277 126.756C259.519 126.998 259.694 127.297 259.786 127.625C260.076 128.357 260.179 129.15 260.086 129.931C259.906 131.563 258.94 133.031 257.735 133.27C257.512 133.317 257.282 133.312 257.061 133.256C256.841 133.2 256.636 133.095 256.462 132.948C256.223 132.716 256.193 132.529 256.223 132.514Z" fill="#5E483F"/>
<path d="M255.654 110.757C254.614 111.515 253.402 112.001 252.127 112.172C250.847 112.24 249.424 111.423 249.275 110.158C249.207 109.589 249.38 108.938 249.028 108.481C248.676 108.024 247.777 108.062 247.096 108.099C245.897 108.133 244.722 107.755 243.768 107.027C242.815 106.3 242.139 105.267 241.855 104.101C241.204 104.977 239.804 104.85 238.913 104.236C238.101 103.51 237.395 102.673 236.817 101.75C236.143 100.897 235.177 100.118 234.091 100.216C233.509 100.387 232.908 100.49 232.302 100.523C231.239 100.373 230.805 99.0926 230.67 98.022C230.535 96.9513 230.498 95.7085 229.622 95.0871C228.746 94.4657 227.705 94.7652 226.709 94.8625C225.714 94.9598 224.463 94.6679 224.261 93.6871C224.231 93.4282 224.253 93.1657 224.328 92.9159C224.403 92.6661 224.528 92.4342 224.695 92.2346C225.406 91.2826 226.417 90.5978 227.565 90.2909C228.713 89.9839 229.931 90.0725 231.022 90.5426C231.488 89.2071 232.339 88.0397 233.469 87.1883C234.599 86.3369 235.955 85.8397 237.367 85.7595C238.78 85.6794 240.184 86.0199 241.403 86.7381C242.621 87.4562 243.6 88.5197 244.214 89.7939C245.119 89.0596 246.188 88.5537 247.33 88.3191C248.472 88.0845 249.653 88.1279 250.775 88.4457C251.897 88.7636 252.925 89.3465 253.774 90.1454C254.623 90.9442 255.268 91.9355 255.654 93.0357C256.666 92.8124 257.721 92.8941 258.687 93.2706C259.652 93.6471 260.484 94.3013 261.078 95.1507C261.672 96.0001 262.001 97.0065 262.022 98.0426C262.044 99.0787 261.759 100.098 261.201 100.972C262.624 101.885 263.807 103.398 263.754 105.09C263.702 106.782 261.972 108.369 260.37 107.845C260.655 108.523 260.674 109.284 260.422 109.976C260.17 110.667 259.666 111.238 259.011 111.574C258.356 111.91 257.599 111.986 256.89 111.788C256.182 111.589 255.574 111.13 255.189 110.503" fill="#263238"/>
<path d="M230.296 92.9087C230.288 92.9583 230.288 93.0088 230.296 93.0584C230.296 93.1558 230.296 93.3055 230.296 93.5002C230.38 94.0563 230.554 94.595 230.812 95.0949C231.219 95.8883 231.803 96.5774 232.519 97.1088C233.464 97.8289 234.618 98.2206 235.806 98.2244L235.679 98.0372C235.404 98.7643 235.423 99.5697 235.731 100.283C236.06 101.032 236.496 101.728 237.026 102.35C237.277 102.707 237.566 103.036 237.887 103.33C238.267 103.619 238.712 103.809 239.182 103.884C239.659 103.976 240.151 103.95 240.615 103.809C241.079 103.668 241.502 103.416 241.848 103.076L241.548 102.971C241.619 103.822 241.867 104.649 242.277 105.399C242.687 106.148 243.25 106.803 243.929 107.321C244.676 107.932 245.6 108.287 246.564 108.332C247.469 108.334 248.368 108.182 249.222 107.882L249.013 107.778C249.388 108.785 250.008 109.683 250.817 110.39C251.185 110.741 251.627 111.004 252.11 111.162C252.593 111.32 253.105 111.369 253.61 111.304C254.475 111.162 255.279 110.771 255.925 110.177C256.57 109.584 257.027 108.815 257.241 107.965L257.054 108.04C257.885 108.54 258.865 108.733 259.824 108.586C260.54 108.501 261.226 108.244 261.823 107.837C262.196 107.58 262.521 107.258 262.781 106.887C262.874 106.76 262.95 106.622 263.006 106.475C262.668 106.967 262.241 107.391 261.748 107.725C261.161 108.103 260.495 108.339 259.801 108.414C258.889 108.531 257.965 108.333 257.181 107.852L257.039 107.755L256.994 107.927C256.783 108.72 256.347 109.434 255.738 109.982C255.129 110.531 254.374 110.892 253.565 111.019C253.104 111.074 252.637 111.025 252.198 110.876C251.759 110.727 251.359 110.482 251.027 110.158C250.267 109.487 249.686 108.638 249.335 107.688L249.282 107.531L249.125 107.575C248.306 107.859 247.446 108.004 246.579 108.002C245.688 107.964 244.833 107.635 244.146 107.066C243.507 106.576 242.977 105.958 242.59 105.252C242.203 104.545 241.968 103.766 241.9 102.964L241.863 102.574L241.593 102.859C241.135 103.3 240.536 103.567 239.901 103.612C239.266 103.657 238.636 103.478 238.119 103.106C237.817 102.827 237.543 102.519 237.303 102.185C236.789 101.588 236.363 100.919 236.038 100.201C235.889 99.8825 235.806 99.5376 235.794 99.1865C235.781 98.8355 235.838 98.4854 235.963 98.157L236.038 97.9698H235.828C234.695 97.9801 233.589 97.6228 232.676 96.9516C231.975 96.4496 231.394 95.7974 230.977 95.0424C230.625 94.3771 230.395 93.6547 230.296 92.9087Z" fill="#6A797C"/>
<path d="M269.938 215.491L280.75 225.92L277.253 205.998L299.19 199.065C299.19 199.065 305.014 226.399 306.033 232.868C307.844 244.473 305.613 260.966 294.802 262.127C283.108 263.377 274.273 251.84 268.651 244.271C264.331 238.453 257.361 228.279 257.361 228.279L269.938 215.506" fill="#FFACA0"/>
<path d="M186.37 197.777C182.851 208.857 177.933 210.504 175.986 242.286C175.604 248.478 180.253 256.414 185.786 259.214C191.319 262.014 200.97 258.578 204.099 253.224L207.206 229.738L186.37 197.777Z" fill="#FFACA0"/>
<path d="M200.91 244.15C200.275 242.558 199.555 241.001 198.754 239.486C197.831 238.036 196.831 236.637 195.759 235.293C196.187 235.574 196.568 235.92 196.889 236.319C198.561 238.142 199.818 240.305 200.573 242.661C200.764 243.136 200.877 243.639 200.91 244.15Z" fill="#263238"/>
<path d="M181.07 210.549C181.257 209.898 192.083 180.43 195.534 173.976C199.667 166.257 208.352 162.851 213.742 162.514C219.133 162.177 276.841 166.774 276.841 166.774C276.841 166.774 293.005 170.832 296.27 185.491C300.373 203.826 303.674 221.914 303.674 221.914L274.753 228.166L271.376 219.564L217.029 231.692L203.762 212.062L181.07 210.549Z" fill="#FFACA0"/>
<path d="M280.989 279.159L279.611 230.038L280.682 168.459L258.117 158.539L255.586 148.806L229.277 161.241L223.767 155.155L221.461 162.012L215.696 163.899L204.354 186.24L203.859 225.471C203.859 225.471 201.112 271.71 202.736 284.026C202.736 284.026 206.989 291.078 220.061 291.393C246.564 292.029 280.989 279.129 280.989 279.129" fill="#FFACA0"/>
<path d="M258.094 211.95C258.094 212.054 256.762 211.95 254.635 211.8L246.347 211.104L238.052 210.49C235.926 210.325 234.615 210.198 234.615 210.093C235.76 209.92 236.92 209.875 238.074 209.958C240.208 209.958 243.158 210.1 246.407 210.362C249.657 210.624 252.584 210.961 254.695 211.268C256.807 211.575 258.102 211.845 258.094 211.95Z" fill="white"/>
<path d="M257.727 215.985C257.727 216.09 256.395 215.985 254.268 215.835L245.981 215.147L237.685 214.525C235.559 214.361 234.249 214.241 234.249 214.128C235.393 213.956 236.553 213.91 237.708 213.994C239.841 213.994 242.791 214.143 246.04 214.398C249.29 214.652 252.217 214.997 254.328 215.304C255.483 215.404 256.623 215.633 257.727 215.985Z" fill="white"/>
<path d="M257.361 220.021C257.361 220.125 256.028 220.021 253.902 219.871L245.614 219.182L237.318 218.561C235.192 218.403 233.882 218.276 233.882 218.171C233.882 218.067 235.207 218.007 237.341 218.029C239.475 218.052 242.424 218.179 245.674 218.433C248.923 218.688 251.85 219.032 253.962 219.347C255.117 219.441 256.257 219.667 257.361 220.021Z" fill="white"/>
<path d="M256.994 224.056C256.994 224.161 255.661 224.056 253.535 223.906L245.247 223.217L236.936 222.596C234.81 222.439 233.5 222.311 233.5 222.206C233.5 222.102 234.825 222.042 236.959 222.072C239.093 222.102 242.042 222.214 245.292 222.468C248.541 222.723 251.468 223.067 253.58 223.382C254.74 223.475 255.885 223.701 256.994 224.056Z" fill="white"/>
<path d="M220.039 292.681C220.009 292.578 219.994 292.472 219.994 292.366C219.994 292.112 219.949 291.805 219.919 291.43C219.874 290.539 219.807 289.341 219.717 287.822C219.574 284.625 219.38 280.11 219.133 274.562C218.713 263.332 218.182 247.872 218.384 230.749C218.489 222.184 218.773 214.016 219.597 206.619C220.42 199.222 221.716 192.671 222.861 187.153C224.007 181.636 225.107 177.263 225.856 174.216C226.223 172.719 226.522 171.581 226.732 170.72C226.837 170.353 226.912 170.061 226.979 169.814C227 169.706 227.038 169.602 227.091 169.507C227.1 169.614 227.1 169.722 227.091 169.829C227.039 170.083 226.979 170.383 226.912 170.75C226.724 171.618 226.47 172.794 226.163 174.283C225.504 177.346 224.516 181.77 223.415 187.258C222.315 192.746 221.117 199.319 220.308 206.672C219.5 214.024 219.26 222.184 219.155 230.727C218.975 247.827 219.432 263.31 219.724 274.517C219.874 280.073 220.001 284.587 220.084 287.784C220.121 289.282 220.143 290.509 220.158 291.4V292.336C220.142 292.458 220.101 292.575 220.039 292.681Z" fill="#263238"/>
<path d="M236.996 196.347C237.496 196.328 237.996 196.343 238.494 196.392L242.941 196.662L259.165 197.77H259.472V198.077C258.91 205.511 258.244 214.405 257.518 224.019V224.191L257.383 224.288C256.634 224.842 255.803 225.396 254.957 225.943C253.487 226.906 251.965 227.788 250.398 228.586C248.868 229.435 247.187 229.977 245.449 230.18C243.744 230.23 242.054 229.838 240.545 229.042C239.128 228.308 237.798 227.419 236.577 226.392C235.986 225.898 235.409 225.396 234.863 224.895C234.556 224.636 234.302 224.32 234.114 223.966C233.925 223.621 233.779 223.254 233.68 222.873C233.367 221.471 233.233 220.034 233.283 218.598C233.356 216.061 233.583 213.531 233.964 211.021C234.638 206.424 235.462 202.786 236.008 200.233C236.293 198.968 236.54 197.987 236.712 197.335C236.785 196.994 236.89 196.661 237.026 196.34C237 196.685 236.944 197.029 236.862 197.365C236.719 198.114 236.525 199.08 236.293 200.293C235.806 202.831 235.095 206.514 234.496 211.096C234.149 213.578 233.952 216.078 233.904 218.583C233.867 219.96 234.006 221.336 234.316 222.678C234.465 223.341 234.825 223.937 235.342 224.378C235.881 224.88 236.45 225.366 237.041 225.875C238.223 226.864 239.511 227.718 240.882 228.421C242.281 229.158 243.846 229.519 245.427 229.469C247.061 229.274 248.642 228.765 250.083 227.972C251.629 227.188 253.128 226.318 254.575 225.366C255.407 224.827 256.23 224.273 256.971 223.734L256.814 224.011C257.563 214.405 258.311 205.511 258.903 198.084L259.187 198.414L243.166 197.006L238.673 196.579L237.476 196.444C237.312 196.433 237.151 196.4 236.996 196.347Z" fill="#263238"/>
<path d="M255.586 148.806C255.586 148.806 252.644 149.659 245.105 153.687C237.708 157.633 229.292 161.241 229.292 161.241L229.936 173.123L257.9 159.07" fill="#FFCEC7"/>
<path d="M223.767 155.154L229.277 161.241L226.335 173.976L221.424 162.469" fill="#FFCEC7"/>
<path d="M259 204.8C259 205.009 253.722 204.762 247.246 204.261C240.77 203.759 235.529 203.175 235.544 202.973C235.559 202.771 240.822 202.973 247.298 203.512C253.774 204.051 259.015 204.598 259 204.8Z" fill="#263238"/>
<g opacity="0.3">
<path d="M234.421 223.906C235.686 225.995 236.869 228.855 238.599 230.577C240.281 232.378 242.556 233.513 245.007 233.774C247.172 233.812 249.296 233.179 251.087 231.962C254.029 230.12 255.841 227.223 257.151 224.011C257.338 223.771 252.943 226.706 250.555 227.979C248.529 229.188 246.161 229.696 243.817 229.424C240.283 229.14 237.116 226.227 234.436 223.906" fill="black"/>
</g>
<g opacity="0.3">
<path d="M229.18 162.559C228.933 162.739 227.406 177.256 227.406 177.256L255.466 160.298L229.921 173.123L229.18 162.559Z" fill="black"/>
</g>
<path d="M224.381 176.716C219.722 196.874 216.584 217.353 214.993 237.981C213.914 252.296 213.106 271.268 213.106 271.268L219.492 279.174L229.277 270.512C229.277 270.512 228.858 230.217 229.367 216.726C229.787 205.623 228.035 177.3 228.035 177.3L224.381 176.716Z" fill="#FF725E"/>
<path d="M273.989 194.632C274.107 195.007 274.194 195.39 274.251 195.778C274.393 196.594 274.588 197.657 274.82 198.93C275.292 201.662 275.913 205.309 276.609 209.337C277.306 213.364 277.919 217.093 278.316 219.766C278.518 221.098 278.668 222.184 278.766 222.933C278.834 223.321 278.872 223.714 278.878 224.108C278.755 223.733 278.667 223.347 278.616 222.955C278.466 222.147 278.279 221.083 278.047 219.811C277.568 217.078 276.931 213.432 276.22 209.404C275.509 205.376 274.947 201.648 274.55 198.975C274.363 197.687 274.214 196.624 274.101 195.808C274.028 195.42 273.99 195.027 273.989 194.632Z" fill="#263238"/>
<path d="M282.329 170.181C282.374 170.233 281.581 170.862 280.435 172.03C277.453 175.093 275.38 178.924 274.446 183.095C274.101 184.69 274.019 185.701 273.951 185.701C273.912 185.453 273.912 185.2 273.951 184.952C273.986 184.301 274.063 183.654 274.184 183.013C274.575 180.888 275.295 178.837 276.317 176.934C277.337 175.03 278.651 173.299 280.21 171.805C280.68 171.35 281.18 170.927 281.708 170.54C281.897 170.391 282.106 170.27 282.329 170.181Z" fill="#263238"/>
<path d="M229.367 166.924L226.859 165.943L224.486 170.023L224.059 176.716L227.406 177.256L229.921 173.123L229.367 166.924Z" fill="#FF725E"/>
<path d="M202.265 186.839C202.37 186.839 202.46 203.31 202.46 223.674C202.46 244.038 202.37 260.517 202.265 260.517C202.16 260.517 202.07 244.046 202.07 223.674C202.07 203.302 202.153 186.839 202.265 186.839Z" fill="#263238"/>
<path d="M229.547 161.136C229.592 161.174 229 162.072 228.117 163.562C226.953 165.503 225.889 167.502 224.927 169.551L224.665 170.12L224.486 170.502L224.306 170.128C223.391 168.205 222.611 166.221 221.97 164.191C221.723 163.442 221.551 162.791 221.446 162.357C221.365 162.136 221.322 161.903 221.319 161.668C221.371 161.668 221.671 162.596 222.217 164.109C222.764 165.621 223.58 167.702 224.658 169.956H224.306L224.576 169.379C225.539 167.31 226.642 165.309 227.877 163.39C228.356 162.641 228.761 162.087 229.053 161.698C229.191 161.489 229.357 161.3 229.547 161.136Z" fill="#263238"/>
<path d="M258.117 158.539C257.996 158.63 257.865 158.707 257.727 158.771L256.597 159.362L252.412 161.533C248.885 163.368 244.049 165.981 238.696 168.84C235.432 170.577 232.347 172.187 229.659 173.535L229.412 173.662V173.385C229.412 169.896 229.352 166.961 229.33 164.835C229.33 163.839 229.33 163.038 229.33 162.432C229.317 162.144 229.329 161.856 229.367 161.571C229.413 161.853 229.436 162.138 229.435 162.424C229.435 163.031 229.487 163.839 229.524 164.835C229.584 166.961 229.659 169.896 229.749 173.378L229.502 173.228C232.175 171.858 235.252 170.233 238.486 168.496C243.839 165.636 248.698 163.061 252.262 161.286C254.044 160.395 255.496 159.699 256.507 159.227L257.675 158.703C257.816 158.633 257.964 158.578 258.117 158.539Z" fill="#263238"/>
<path d="M205.649 167.68C205.701 167.68 205.267 168.428 204.698 169.731C203.962 171.385 203.422 173.118 203.088 174.897C202.772 176.678 202.659 178.489 202.751 180.295C202.834 181.68 202.976 182.541 202.916 182.541C202.824 182.355 202.763 182.155 202.736 181.95C202.619 181.406 202.535 180.856 202.482 180.302C202.296 178.472 202.371 176.624 202.707 174.815C203.038 172.994 203.625 171.23 204.451 169.574C204.692 169.074 204.968 168.591 205.274 168.129C205.492 167.837 205.626 167.665 205.649 167.68Z" fill="#263238"/>
<path d="M226.792 177.682C226.732 177.78 226.095 177.48 225.369 177.016C224.643 176.552 224.096 176.11 224.156 176.02C224.216 175.93 224.853 176.23 225.579 176.687C226.305 177.143 226.852 177.593 226.792 177.682Z" fill="#263238"/>
<path d="M227.997 176.05C227.311 174.982 226.739 173.845 226.29 172.658C225.723 171.527 225.274 170.34 224.95 169.117C225.631 170.186 226.201 171.323 226.649 172.509C227.216 173.641 227.668 174.827 227.997 176.05Z" fill="#263238"/>
<path d="M298.224 243.589C298.179 243.538 298.144 243.48 298.119 243.417C298.052 243.29 297.969 243.118 297.857 242.908C297.745 242.698 297.602 242.399 297.438 242.077C297.273 241.755 296.996 241.403 296.726 241.006C295.079 238.777 293.196 236.731 291.111 234.904C288.491 232.501 285.174 229.791 281.438 226.669C279.582 225.104 277.605 223.472 275.628 221.645C273.53 219.776 271.578 217.749 269.789 215.581H270.073L258.806 227.418C258.289 227.957 257.772 228.488 257.308 228.99V228.743C261.568 234.972 265.446 240.999 269.519 246.052C271.432 248.45 273.48 250.737 275.651 252.903C277.503 254.829 279.506 256.604 281.64 258.211C285.534 261.153 289.442 262.411 292.159 262.344C292.504 262.344 292.826 262.344 293.125 262.344L293.956 262.254L294.705 262.179L295.289 262.044L296.083 261.872L296.352 261.827C296.268 261.863 296.18 261.891 296.09 261.91L295.304 262.119L294.72 262.269L293.971 262.366L293.133 262.471C292.826 262.471 292.504 262.471 292.159 262.471C289.412 262.591 285.421 261.341 281.476 258.406C279.342 256.8 277.339 255.028 275.486 253.105C273.3 250.94 271.238 248.652 269.31 246.255C265.207 241.193 261.314 235.159 257.054 228.937L256.964 228.81L257.076 228.698L258.573 227.126L269.804 215.364L269.953 215.207L270.088 215.379C271.86 217.538 273.792 219.56 275.868 221.428C277.837 223.247 279.806 224.895 281.655 226.459C285.399 229.566 288.678 232.307 291.276 234.74C293.36 236.591 295.226 238.673 296.839 240.946C297.101 241.351 297.325 241.695 297.528 242.032L297.924 242.893L298.156 243.417C298.182 243.473 298.204 243.531 298.224 243.589Z" fill="#263238"/>
<g opacity="0.3">
<path d="M243.847 235.323C243.772 234.688 243.463 234.103 242.978 233.684C242.05 233.077 240.882 233.878 239.931 234.433C237.423 235.93 234.323 235.877 231.404 235.75C222.606 235.459 213.835 234.627 205.14 233.257C200.895 232.546 196.605 231.617 192.809 229.581C189.013 227.545 185.696 224.273 184.476 220.14L182.44 219.04C184.019 222.401 183.855 231.909 184.416 235.571C184.978 239.232 186.61 241.852 190.136 242.99C191.582 243.361 193.084 243.467 194.568 243.304C209.04 242.556 223.64 243.237 238.112 242.556C240.186 242.451 242.604 242.166 243.69 240.422C244.625 238.932 244.251 237.015 243.847 235.323Z" fill="black"/>
</g>
<path d="M252.981 202.471C252.981 202.471 246.123 194.625 244.895 195.494C243.667 196.362 241.9 196.834 243.6 199.986C245.299 203.138 248.167 204.95 248.706 207.652C249.245 210.355 248.638 216.869 251.656 219.077C254.673 221.286 258.873 227.021 258.873 227.021L269.355 216.09L265.207 212.968C265.207 212.968 267.715 206.709 267.692 203.437C267.67 200.165 265.446 196.078 265.446 196.078C265.176 194.451 264.389 192.954 263.2 191.81C263.011 190.404 262.733 189.011 262.369 187.64C261.808 185.566 254.291 178.319 254.291 178.319C253.61 178.797 253.141 179.521 252.984 180.338C252.826 181.155 252.991 182.001 253.445 182.699C254.475 184.371 255.624 185.967 256.881 187.475L250.016 186.652C249.897 187.133 249.878 187.634 249.961 188.123C250.045 188.612 250.228 189.078 250.5 189.493C250.772 189.908 251.127 190.262 251.542 190.533C251.958 190.804 252.424 190.987 252.913 191.069C256.694 192.035 257.585 193.42 257.585 193.42L252.906 194.97C252.906 194.97 253.123 197.732 255.152 197.8L257.196 197.86L252.981 202.471Z" fill="#FFBE9D"/>
<path d="M254.763 197.777L259.3 197.627H259.397L259.442 197.68C260.342 198.711 260.961 199.956 261.239 201.296C261.483 202.938 261.155 204.614 260.31 206.043C259.318 207.485 258.108 208.766 256.724 209.838C255.639 210.718 254.728 211.792 254.036 213.005C253.599 213.834 253.393 214.765 253.437 215.701C253.482 216.367 253.647 216.711 253.61 216.726C253.572 216.741 253.557 216.644 253.482 216.479C253.386 216.239 253.321 215.987 253.288 215.731C253.179 214.759 253.353 213.776 253.789 212.901C254.463 211.632 255.379 210.508 256.485 209.591C257.824 208.52 258.999 207.259 259.973 205.848C260.772 204.495 261.091 202.913 260.879 201.356C260.627 200.072 260.056 198.872 259.217 197.867L259.337 197.919C256.507 197.942 254.755 197.882 254.763 197.777Z" fill="#5E483F"/>
<path d="M264.331 195.973C264.271 195.973 264.076 195.606 263.634 195.074C263.042 194.396 262.26 193.91 261.388 193.682C260.513 193.463 259.609 193.377 258.708 193.427C258.326 193.479 257.938 193.479 257.555 193.427C257.91 193.262 258.294 193.168 258.686 193.15C259.623 193.017 260.577 193.07 261.493 193.308C262.005 193.453 262.488 193.684 262.923 193.989C263.273 194.243 263.576 194.554 263.822 194.91C264.086 195.211 264.262 195.578 264.331 195.973Z" fill="#5E483F"/>
<path d="M262.459 190.829C262.377 190.912 261.358 189.886 259.846 189.003C258.334 188.119 256.941 187.715 256.971 187.603C258.054 187.749 259.097 188.11 260.04 188.664C260.982 189.218 261.804 189.954 262.459 190.829Z" fill="#5E483F"/>
<path d="M178.636 201.214L187.658 235.294C187.901 236.211 188.445 237.02 189.202 237.592C189.96 238.163 190.887 238.464 191.836 238.446L238.546 237.525C239.169 237.513 239.782 237.363 240.341 237.087C240.9 236.811 241.391 236.415 241.779 235.928C242.167 235.44 242.443 234.873 242.587 234.266C242.731 233.66 242.739 233.029 242.612 232.419L235.731 199.776C235.53 198.825 235.008 197.972 234.253 197.36C233.498 196.748 232.555 196.414 231.583 196.415H182.335C181.75 196.415 181.172 196.549 180.647 196.808C180.122 197.066 179.663 197.441 179.306 197.905C178.949 198.369 178.703 198.908 178.587 199.481C178.47 200.055 178.487 200.648 178.636 201.214Z" fill="#263238"/>
<path d="M174.713 208.903C174.238 208.3 173.979 207.555 173.979 206.788C173.979 206.02 174.238 205.275 174.713 204.672C175.202 204.083 175.814 203.609 176.506 203.281C177.198 202.954 177.953 202.782 178.719 202.778C180.263 202.784 181.791 203.1 183.211 203.707C184.973 204.382 186.665 205.227 188.264 206.23C189.395 206.941 190.563 207.862 190.78 209.172C190.997 210.482 189.575 211.987 188.414 211.328C189.227 211.672 189.946 212.203 190.514 212.878C191.081 213.554 191.48 214.354 191.678 215.214C191.925 216.884 191.035 217.774 189.432 218.254C190.027 218.503 190.503 218.972 190.761 219.563C191.019 220.155 191.039 220.822 190.817 221.428C190.226 222.678 188.504 223.023 187.216 222.529C185.966 221.924 184.886 221.019 184.072 219.893C184.995 221.488 185.313 223.361 184.97 225.171C183.197 224.536 181.631 223.427 180.443 221.964C179.255 220.502 178.491 218.742 178.232 216.876C177.375 216.195 176.778 215.24 176.541 214.172C176.304 213.103 176.441 211.986 176.929 211.006C175.499 210.565 173.875 208.371 173.987 206.874" fill="#FFBE9D"/>
<path d="M189.342 218.269C188.799 217.917 188.283 217.524 187.8 217.093C186.621 216.109 185.238 215.4 183.75 215.019C182.936 214.839 182.093 214.839 181.279 215.019C180.62 215.184 180.006 215.493 179.482 215.925C179.01 216.355 178.613 216.862 178.307 217.423C178.316 217.242 178.364 217.066 178.449 216.906C178.649 216.461 178.94 216.064 179.303 215.738C179.839 215.245 180.486 214.888 181.189 214.697C182.055 214.474 182.961 214.461 183.832 214.66C185.38 215.047 186.804 215.82 187.972 216.906C188.486 217.299 188.947 217.757 189.342 218.269Z" fill="#5E483F"/>
<path d="M188.946 211.493C188.297 211.316 187.672 211.065 187.081 210.744C186.434 210.418 185.769 210.128 185.09 209.876C184.256 209.585 183.4 209.362 182.529 209.209C181.673 209.052 180.795 209.052 179.939 209.209C179.243 209.338 178.585 209.622 178.015 210.04C177.499 210.449 177.071 210.959 176.757 211.538C176.757 211.538 176.757 211.328 176.907 211.006C177.124 210.543 177.444 210.136 177.843 209.816C178.428 209.335 179.122 209.003 179.864 208.85C180.766 208.674 181.694 208.674 182.597 208.85C183.49 209.006 184.367 209.244 185.217 209.561C185.9 209.835 186.563 210.155 187.201 210.52C187.806 210.799 188.39 211.125 188.946 211.493Z" fill="#5E483F"/>
<g opacity="0.3">
<path d="M280.233 258.623C279.859 257.275 280.345 257.267 279.275 256.377C275.323 252.925 271.701 249.112 268.456 244.989C265.132 240.826 259.944 232.381 259.944 232.381L258.716 232.007C259.779 238.094 262.841 243.611 265.858 249.009C267.39 252.007 269.24 254.83 271.376 257.432C273.622 259.955 276.512 262.029 279.821 262.673C280.155 262.059 280.363 261.384 280.433 260.689C280.504 259.994 280.436 259.291 280.233 258.623Z" fill="black"/>
</g>
<path d="M48.7244 179.359C48.7638 179.607 48.7813 179.857 48.7768 180.108C48.7768 180.657 48.7918 181.376 48.8217 182.264C48.8217 182.736 48.8217 183.26 48.8217 183.822C48.8217 184.383 48.9116 185.004 48.9565 185.671C49.0688 186.988 49.1287 188.501 49.3832 190.163C49.4955 190.994 49.6079 191.862 49.7276 192.768C49.8474 193.674 50.0421 194.603 50.2068 195.568C50.5212 197.515 51.0004 199.559 51.4646 201.723C52.4678 206.028 53.7106 210.707 55.0658 215.671C56.4209 220.634 57.6188 225.329 58.5546 229.664C58.9814 231.85 59.4306 233.909 59.6926 235.87C59.8349 236.843 59.9996 237.787 60.1044 238.693C60.2092 239.599 60.2841 240.482 60.3665 241.321C60.5686 242.983 60.5686 244.51 60.621 245.813C60.621 246.479 60.6734 247.1 60.6659 247.669C60.6584 248.238 60.621 248.755 60.5986 249.234C60.5536 250.128 60.5162 250.846 60.4862 251.39C60.4789 251.641 60.4539 251.892 60.4114 252.139C60.3864 251.89 60.3864 251.639 60.4114 251.39C60.4114 250.844 60.4114 250.125 60.4114 249.234C60.4114 248.763 60.4114 248.246 60.4114 247.677C60.4114 247.108 60.3515 246.494 60.3215 245.828C60.2392 244.502 60.2167 242.99 59.9846 241.336C59.8948 240.502 59.7975 239.634 59.6926 238.73C59.5803 237.824 59.4007 236.896 59.2509 235.923C58.9739 233.976 58.5022 231.925 58.0755 229.753C57.1097 225.441 55.8893 220.724 54.5492 215.79C53.209 210.857 52.0111 206.155 51.0004 201.827C50.5512 199.656 50.0795 197.597 49.7875 195.643C49.6303 194.67 49.4506 193.734 49.3308 192.828C49.211 191.922 49.1212 191.046 49.0239 190.208C48.7843 188.546 48.7544 187.026 48.672 185.716C48.672 185.049 48.5896 184.428 48.5822 183.859V182.294C48.5822 181.396 48.6196 180.685 48.6346 180.138C48.6372 179.876 48.6673 179.615 48.7244 179.359Z" fill="#263238"/>
<path d="M151.676 215.236L162.27 177.555L175.305 179.928C175.305 179.928 172.183 183.484 172.183 186.756C172.183 190.028 170.011 220.866 170.011 220.866C170.011 220.866 157.052 224.669 151.811 215.895" fill="#FFBE9D"/>
<path d="M162.27 177.555C162.27 177.555 160.818 173.624 161.963 170.225C163.109 166.826 167.024 164.191 166.777 162.147C166.53 160.103 168.611 155.214 170.521 155.596C172.43 155.978 173.77 157.842 172.19 160.971C171.176 163.028 170.34 165.167 169.689 167.365C169.689 167.365 189.155 157.22 190.75 157.003C192.345 156.786 193.932 156.562 194.344 157.834C194.755 159.107 190.87 160.724 190.87 160.724L185.629 167.53C184.76 170.125 183.538 172.589 181.998 174.852C179.752 177.892 175.327 179.928 175.327 179.928L169.652 186.756C169.652 186.756 161.02 183.821 162.27 177.555Z" fill="#FFBE9D"/>
<path d="M190.518 160.994C190.518 160.994 190.346 160.882 190.039 160.732C189.605 160.537 189.121 160.479 188.654 160.567C187.103 161.022 185.733 161.952 184.738 163.225C183.697 164.496 182.815 165.889 182.11 167.373C181.845 168.013 181.503 168.619 181.092 169.177C181.225 168.493 181.452 167.83 181.766 167.208C182.392 165.639 183.258 164.176 184.334 162.873C185.636 161.376 187.239 160.343 188.609 160.193C189.147 160.127 189.691 160.254 190.144 160.552C190.443 160.784 190.518 160.979 190.518 160.994Z" fill="#EB996E"/>
<path d="M183.368 163.547C183.443 163.674 182.185 164.528 180.568 165.456C178.951 166.384 177.573 167.036 177.498 166.909C177.423 166.781 178.674 165.92 180.298 164.992C181.923 164.064 183.293 163.412 183.368 163.547Z" fill="#EB996E"/>
<path d="M173.051 167.919C172.984 167.792 174.548 167.275 176.323 167.919C178.097 168.563 179.041 169.858 178.913 169.918C178.786 169.978 177.798 168.96 176.151 168.421C174.503 167.882 173.074 168.076 173.051 167.919Z" fill="#EB996E"/>
<path d="M132.375 217.415C132.278 217.976 147.124 238.011 151.938 241.769C163.752 250.986 172.437 238.52 171.569 227.971C170.7 217.422 140.012 167.844 140.012 167.844L130.077 191.256L132.375 217.415Z" fill="#FF725E"/>
<path d="M54.6765 162.536L81.6741 156.195L84.2196 151.89L111.3 152.324L117.589 159.055L135.632 167.919L120.486 231.505L69.6652 234.118L54.6765 162.536Z" fill="#263238"/>
<path d="M85.5672 151.051L75.4675 157.318L54.2572 161.937L60.9954 247.152C60.9954 247.152 41.0953 285.882 38.0557 319.505H91.6166C91.6166 319.505 96.6852 276.733 96.1536 259.611C95.6221 242.488 95.9515 212.443 95.9515 212.443L82.1308 160.784L85.5672 151.051Z" fill="#FF725E"/>
<path d="M113.186 157.363L111.3 151.545L118.352 158.643C118.352 158.643 122.53 160.095 123.428 160.425C130.443 163.045 140.012 167.844 140.012 167.844L128.033 243.589C128.033 243.589 144.099 286.354 142.789 319.505C142.789 319.505 106.104 320.112 91.6166 319.505L95.5322 210.759C95.5322 210.759 108.26 195.733 110.379 180.609C112.497 165.486 113.186 157.363 113.186 157.363Z" fill="#FF725E"/>
<path d="M94.8809 222.738C94.7103 222.598 94.5524 222.442 94.4092 222.274L93.129 220.889L88.4048 215.648L72.4503 197.68L72.3455 197.567L72.3904 197.425C73.199 194.498 74.0525 191.436 74.9284 188.284C75.3028 186.921 75.6771 185.573 76.0515 184.241L76.306 184.593L65.7196 184.188H65.3602L65.4875 183.851C68.355 176.118 70.8181 169.499 72.5776 164.752C73.4535 162.447 74.1573 160.605 74.6664 159.28C74.8985 158.681 75.0931 158.201 75.2354 157.827C75.2939 157.654 75.3718 157.488 75.4675 157.333C75.4331 157.512 75.383 157.687 75.3177 157.857L74.8236 159.354L72.8845 164.88C71.1625 169.649 68.7667 176.297 65.9742 184.054L65.7421 183.702L76.3285 184.076H76.6803L76.583 184.413C76.2162 185.738 75.8343 187.093 75.46 188.456C74.584 191.6 73.7305 194.67 72.9145 197.59L72.8546 197.343L88.6967 215.438C90.6209 217.685 92.1781 219.489 93.2937 220.777L94.5065 222.229C94.6489 222.385 94.7744 222.556 94.8809 222.738Z" fill="#263238"/>
<path d="M91.6915 319.505C91.5417 319.505 92.2455 294.956 93.2712 264.694C94.2969 234.432 95.2477 209.89 95.3975 209.898C95.5472 209.905 94.8434 234.44 93.8252 264.709C92.807 294.979 91.8487 319.505 91.6915 319.505Z" fill="#263238"/>
<path d="M118.285 158.358C118.341 158.557 118.381 158.76 118.405 158.965C118.472 159.414 118.554 159.998 118.659 160.732C118.869 162.326 119.161 164.55 119.528 167.305C120.224 172.965 121.19 180.782 122.298 189.766L122.343 190.125L121.983 190.065L116.114 189.055L116.42 188.665L117.536 191.166L119.737 196.092L119.805 196.249L119.692 196.384L103.423 215.251L98.5494 220.806C98.0028 221.42 97.5611 221.914 97.2167 222.304C96.8723 222.693 94.8958 224.153 94.8808 224.145C94.8658 224.138 96.8574 222.596 97.1269 222.236L98.4296 220.679L103.176 215.011L119.303 196.025L119.258 196.317L117.057 191.398L115.941 188.89L115.724 188.418L116.241 188.508L122.111 189.526L121.789 189.826C120.755 180.841 119.857 172.995 119.206 167.365C118.914 164.595 118.674 162.364 118.502 160.762C118.434 160.013 118.382 159.444 118.337 158.995C118.294 158.786 118.276 158.572 118.285 158.358Z" fill="#263238"/>
<path d="M88.3224 284.879C87.2443 283.449 85.0656 282.566 83.9501 283.966H83.9875C83.4348 284.396 83.0273 284.986 82.8198 285.655C82.6123 286.325 82.6148 287.041 82.8271 287.709C82.9939 288.119 83.2412 288.492 83.5544 288.805C83.8676 289.119 84.2403 289.366 84.6507 289.533C85.061 289.699 85.5006 289.782 85.9435 289.776C86.3863 289.771 86.8236 289.676 87.2293 289.498C87.6225 289.284 87.9661 288.989 88.2378 288.633C88.5095 288.278 88.7032 287.868 88.8063 287.433C88.9095 286.997 88.9197 286.544 88.8363 286.104C88.7529 285.664 88.5778 285.247 88.3224 284.879Z" fill="#263238"/>
<path d="M89.992 256.077C88.9139 254.654 86.7277 253.771 85.6122 255.171H85.6571C85.1027 255.6 84.6938 256.19 84.4862 256.86C84.2786 257.529 84.2822 258.247 84.4967 258.915C84.6627 259.325 84.9092 259.697 85.2217 260.01C85.5342 260.323 85.9064 260.571 86.3161 260.737C86.7258 260.904 87.1648 260.987 87.6072 260.982C88.0495 260.976 88.4862 260.881 88.8914 260.704C89.2854 260.489 89.6299 260.194 89.9024 259.838C90.1749 259.482 90.3694 259.072 90.4732 258.636C90.577 258.199 90.5878 257.746 90.5049 257.305C90.422 256.864 90.2472 256.446 89.992 256.077Z" fill="#263238"/>
<g opacity="0.3">
<path d="M65.7271 183.934C65.9067 184.51 69.7101 185.094 70.3764 186.696C71.0427 188.298 70.7133 190.133 70.2416 191.81C69.7699 193.487 69.156 195.164 69.2758 196.901C69.4854 200.008 71.9337 202.434 74.2321 204.545C80.6409 210.437 88.4571 216.838 94.8808 222.738C89.1983 215.491 81.7938 207.989 75.5124 201.258C74.5196 200.33 73.7515 199.188 73.2663 197.919C72.7722 196.279 73.2663 194.527 73.7455 192.895L75.6771 186.389C75.8418 185.828 76.2012 184.892 76.2835 184.585C75.4999 184.419 74.7033 184.321 73.9027 184.293C73.9027 184.293 68.2501 183.694 65.7645 183.934" fill="black"/>
</g>
<path d="M139.008 180.669C139.017 180.886 138.997 181.102 138.948 181.313C138.874 181.792 138.776 182.399 138.664 183.155C138.38 184.817 137.998 187.108 137.533 189.893C136.568 195.658 135.287 203.497 133.79 212.167C132.293 220.836 130.953 228.728 129.897 234.41C129.365 237.255 128.924 239.546 128.594 241.148C128.439 241.892 128.312 242.498 128.212 242.968C128.182 243.184 128.125 243.395 128.04 243.596C128.042 243.378 128.065 243.16 128.108 242.945C128.182 242.473 128.272 241.859 128.392 241.111C128.669 239.449 129.051 237.158 129.523 234.373L133.266 212.107C134.726 203.407 136.103 195.546 137.159 189.863C137.691 187.018 138.132 184.72 138.454 183.125C138.612 182.376 138.739 181.777 138.844 181.306C138.875 181.088 138.93 180.875 139.008 180.669Z" fill="#263238"/>
<path d="M54.6316 161.855C50.6454 163.2 47.2207 165.834 44.8986 169.342C40.4065 175.975 32.6502 240.325 32.9197 244.787C33.1892 249.249 37.1123 260.569 47.519 259.079C57.9258 257.589 85.6121 238.251 85.6121 238.251L76.0889 219.803L55.8744 229.326L58.622 197.47L54.6316 161.855Z" fill="#FF725E"/>
<g opacity="0.3">
<path d="M115.994 252.873C115.335 249.975 111.749 249.047 108.806 248.673L60.8156 242.548L56.653 256.025C57.0797 259.117 57.5139 262.269 58.8316 265.099C60.1493 267.929 62.4927 270.452 65.5249 271.193C68.2052 271.844 71.0053 271.058 73.6481 270.272L108.941 259.791C110.732 259.381 112.428 258.637 113.942 257.597C115.38 256.556 116.398 254.685 115.994 252.873Z" fill="black"/>
</g>
<g opacity="0.3">
<path d="M56.9076 197.215C56.3311 194.969 55.4551 192.349 53.2615 191.488C50.9256 190.575 48.2154 192.274 47.1747 194.558C46.134 196.841 46.3586 199.484 46.7255 201.962C47.9982 210.587 51.0379 220.155 53.853 228.406L63.6982 224.789C62.3955 215.655 59.1761 206.162 56.9076 197.215Z" fill="black"/>
</g>
<path d="M158.601 189.362L148.913 218.561L161.491 227.694L171.629 231.767C171.629 231.715 173.523 217.183 173.044 222.259L175.29 192.274L158.601 189.362Z" fill="#FF725E"/>
<path d="M158.601 189.362C158.563 189.8 158.486 190.233 158.369 190.657C158.205 191.488 157.92 192.678 157.538 194.138C156.79 197.073 155.502 201.056 153.945 205.369C152.387 209.681 151.07 213.664 150.246 216.599C149.834 218.051 149.497 219.227 149.295 220.05C149.206 220.48 149.078 220.901 148.913 221.308C148.961 220.872 149.039 220.439 149.146 220.013C149.318 219.182 149.602 217.992 149.984 216.524C150.733 213.597 152.021 209.614 153.578 205.294C155.135 200.974 156.445 196.998 157.276 194.064C157.688 192.611 158.025 191.428 158.227 190.612C158.322 190.187 158.447 189.769 158.601 189.362Z" fill="#263238"/>
<path d="M155.442 233.339C154.981 232.872 154.576 232.352 154.237 231.79C153.345 230.486 152.528 229.134 151.788 227.739C151.051 226.346 150.389 224.914 149.804 223.449C149.536 222.851 149.333 222.226 149.198 221.585C149.535 222.143 149.823 222.729 150.059 223.337C150.561 224.43 151.272 225.935 152.133 227.559C152.994 229.184 153.84 230.614 154.469 231.64C154.838 232.179 155.164 232.748 155.442 233.339Z" fill="#263238"/>
<path d="M54.6316 227.417C53.5837 227.173 52.5591 226.837 51.5694 226.414C50.5388 226.12 49.5366 225.734 48.5747 225.261C49.6566 225.363 50.7168 225.628 51.7192 226.047C52.7536 226.354 53.7355 226.816 54.6316 227.417Z" fill="#263238"/>
<path d="M57.6787 186.015C57.5453 185.818 57.4442 185.6 57.3792 185.371C57.207 184.944 56.9824 184.323 56.7353 183.537C55.4552 179.449 54.8039 175.19 54.8037 170.907C54.8037 170.09 54.8037 169.409 54.8636 168.967C54.8604 168.729 54.8933 168.492 54.9609 168.264C55.0208 168.264 55.0133 169.274 55.0807 170.907C55.2357 175.152 55.8814 179.365 57.0048 183.462C57.4241 185.034 57.7386 186 57.6787 186.015Z" fill="#263238"/>
<g opacity="0.3">
<path d="M119.52 191.959L123.061 192.199C122.299 191.197 121.269 190.431 120.09 189.988C118.911 189.546 117.631 189.445 116.398 189.698C116.48 191.832 118.704 193.494 118.569 195.628C118.368 196.76 117.828 197.804 117.019 198.623L110.409 206.761L110.873 210.834C113.576 206.978 116.301 203.347 119.003 199.529C119.907 198.406 120.567 197.109 120.943 195.718C121.242 194.303 120.778 192.648 119.52 191.959Z" fill="black"/>
</g>
<g opacity="0.3">
<path d="M154.663 202.778L155.734 199.626C153.93 205.039 147.805 209.194 145.791 214.532C144.974 216.796 144.752 219.231 145.145 221.605C145.538 223.979 146.534 226.212 148.038 228.091C148.734 228.944 149.932 229.768 150.845 229.147C151.188 228.945 151.458 228.638 151.614 228.271C151.771 227.905 151.805 227.498 151.714 227.11C151.429 226.362 149.325 221.997 148.951 221.308C148.674 220.784 149.303 219.279 150.141 216.464C151.586 211.493 153.181 207.742 154.663 202.778Z" fill="black"/>
</g>
<path d="M76.7178 117.173C76.6082 121.982 77.5198 126.759 79.3924 131.19C81.265 135.62 84.0561 139.603 87.5812 142.876L92.4402 128.808" fill="#263238"/>
<path d="M113.299 89.195C109.128 86.949 104.097 86.5896 99.4404 87.518C94.7836 88.4463 90.4562 90.5651 86.3309 92.9384C84.0175 94.2786 81.719 95.746 80.0644 97.8274C77.0322 101.638 74.0749 107.89 73.753 112.749C73.5134 116.672 75.0183 126.502 76.6804 130.066C78.1777 133.337 85.3277 135.831 88.8465 136.639L121.13 99.1001C120.546 97.0126 119.553 95.0619 118.208 93.3615C116.864 91.6611 115.195 90.2448 113.299 89.195Z" fill="#263238"/>
<path d="M118.861 94.2562L111.157 92.8711C115.387 102.948 116.533 125.985 118.951 136.639C121.804 132.499 128.429 119.891 128.078 114.882C127.726 109.874 128.055 93.4027 118.861 94.2562Z" fill="#263238"/>
<path d="M123.286 110.682C122.784 102.949 117.641 93.4627 109.937 94.3087L92.1182 98.8532C89.3771 99.5526 86.9325 101.112 85.143 103.303C83.3536 105.494 82.3136 108.201 82.1757 111.027C82.1757 111.319 82.1233 110.959 82.1307 111.184L86.1063 157.326L99.4853 183.874L111.292 156.03C111.292 152.287 111.292 149.292 111.292 149.292C111.292 149.292 121.167 147.63 123.181 134.738C124.192 128.329 123.885 119.27 123.286 110.682Z" fill="#FFBE9D"/>
<path d="M120.179 120.415C120.185 120.847 120.021 121.264 119.723 121.576C119.425 121.888 119.016 122.071 118.584 122.085C118.373 122.101 118.161 122.075 117.961 122.008C117.76 121.941 117.575 121.835 117.415 121.696C117.256 121.556 117.127 121.386 117.034 121.196C116.942 121.006 116.889 120.799 116.877 120.587C116.871 120.157 117.034 119.741 117.33 119.429C117.627 119.117 118.034 118.934 118.464 118.918C118.676 118.901 118.889 118.926 119.09 118.992C119.292 119.059 119.478 119.165 119.638 119.304C119.798 119.444 119.928 119.614 120.021 119.805C120.114 119.996 120.168 120.203 120.179 120.415Z" fill="#263238"/>
<path d="M121.354 115.729C121.152 115.946 119.857 115.025 118.12 115.032C116.383 115.04 115.035 115.931 114.841 115.714C114.751 115.616 114.953 115.227 115.522 114.815C116.291 114.281 117.206 113.997 118.142 113.999C119.067 113.993 119.969 114.281 120.718 114.823C121.265 115.242 121.452 115.631 121.354 115.729Z" fill="#263238"/>
<path d="M104.749 120.415C104.755 120.847 104.591 121.264 104.293 121.576C103.994 121.888 103.585 122.071 103.154 122.085C102.943 122.101 102.731 122.075 102.53 122.008C102.329 121.941 102.144 121.835 101.985 121.696C101.826 121.556 101.697 121.386 101.604 121.196C101.512 121.006 101.458 120.799 101.447 120.587C101.441 120.157 101.603 119.741 101.9 119.429C102.197 119.117 102.604 118.934 103.034 118.918C103.246 118.901 103.458 118.926 103.66 118.992C103.862 119.059 104.048 119.165 104.208 119.304C104.367 119.444 104.498 119.614 104.591 119.805C104.684 119.996 104.737 120.203 104.749 120.415Z" fill="#263238"/>
<path d="M104.464 115.729C104.262 115.946 103.004 115.025 101.23 115.032C99.4554 115.04 98.1452 115.931 97.9505 115.714C97.8607 115.616 98.0628 115.227 98.6318 114.815C99.4012 114.281 100.316 113.996 101.252 113.999C102.176 113.996 103.077 114.284 103.828 114.823C104.374 115.242 104.561 115.631 104.464 115.729Z" fill="#263238"/>
<path d="M110.027 129.699C110.027 129.594 111.12 129.399 112.909 129.167C113.366 129.122 113.793 129.033 113.867 128.718C113.91 128.251 113.805 127.782 113.568 127.378C113.134 126.28 112.682 125.127 112.213 123.919C110.341 119 108.979 114.935 109.218 114.882C109.458 114.83 111.097 118.738 112.962 123.657C113.418 124.87 113.845 126.023 114.257 127.131C114.544 127.678 114.629 128.309 114.496 128.913C114.43 129.073 114.328 129.217 114.199 129.332C114.069 129.448 113.915 129.532 113.748 129.579C113.503 129.644 113.252 129.68 112.999 129.684C112.013 129.815 111.014 129.82 110.027 129.699Z" fill="#263238"/>
<path d="M94.207 144.71C94.207 144.71 98.3997 153.559 111.292 152.324V149.329C105.279 149.403 99.3638 147.804 94.207 144.71Z" fill="#EB996E"/>
<path d="M103.903 109.305C103.73 109.784 101.956 109.559 99.8671 109.821C97.7783 110.083 96.1237 110.645 95.8167 110.211C95.6969 110.008 95.9889 109.552 96.6702 109.08C97.5777 108.505 98.6037 108.144 99.671 108.023C100.738 107.903 101.819 108.026 102.832 108.384C103.596 108.691 103.977 109.073 103.903 109.305Z" fill="#263238"/>
<path d="M120.77 110.293C120.463 110.697 119.236 110.293 117.776 110.293C116.316 110.293 115.058 110.57 114.781 110.143C114.661 109.941 114.856 109.537 115.395 109.155C116.127 108.697 116.978 108.465 117.841 108.489C118.704 108.513 119.541 108.792 120.246 109.29C120.741 109.679 120.89 110.091 120.77 110.293Z" fill="#263238"/>
<path d="M119.79 98.913C119.333 97.9671 118.623 97.1661 117.739 96.5992C116.855 96.0322 115.831 95.7214 114.781 95.7012C112.674 95.6996 110.611 96.3025 108.836 97.4381C101.162 101.87 97.2168 112.584 89.6326 117.173C87.7684 118.304 85.3426 117.271 83.7554 118.768C82.1682 120.266 81.1425 122.646 82.0185 124.645C80.9342 123.296 80.0492 121.799 79.3906 120.198C79.0637 119.395 78.9133 118.53 78.9495 117.664C78.9856 116.797 79.2076 115.948 79.6002 115.174C80.2591 114.036 81.412 113.168 81.734 111.895C82.011 110.772 81.5693 109.604 81.6217 108.451C81.7474 107.278 82.1503 106.151 82.7971 105.165C85.7918 99.9238 89.8572 95.1546 95.1205 92.2048C98.5521 90.2181 102.461 89.2059 106.426 89.2775C110.406 89.369 114.223 90.8829 117.184 93.545C118.884 95.1322 120.666 96.7643 119.79 98.913Z" fill="#263238"/>
<path d="M83.9426 120.355C83.8078 119.989 77.0846 117.563 76.9948 124.705C76.9049 131.646 83.9126 130.276 83.9276 130.081C83.9426 129.886 83.9426 120.355 83.9426 120.355Z" fill="#FFBE9D"/>
<path d="M81.8089 127.438C81.8089 127.438 81.6891 127.52 81.4794 127.61C81.1912 127.726 80.8693 127.726 80.581 127.61C79.8323 127.333 79.2409 126.165 79.2184 124.908C79.2058 124.314 79.326 123.726 79.5703 123.186C79.6377 122.969 79.7567 122.772 79.9171 122.612C80.0776 122.451 80.2745 122.332 80.4912 122.265C80.6355 122.218 80.7919 122.227 80.9301 122.29C81.0683 122.352 81.1787 122.463 81.2399 122.602C81.3297 122.796 81.2848 122.931 81.3222 122.946C81.3596 122.961 81.472 122.834 81.4195 122.542C81.3834 122.37 81.288 122.216 81.15 122.107C80.9603 121.962 80.7208 121.897 80.4837 121.928C80.1976 121.979 79.9298 122.105 79.7067 122.291C79.4836 122.477 79.3127 122.719 79.2109 122.991C78.9089 123.589 78.7573 124.252 78.7692 124.922C78.8066 126.315 79.5179 127.633 80.5061 127.917C80.6917 127.975 80.8881 127.99 81.0802 127.96C81.2722 127.93 81.4549 127.856 81.6142 127.745C81.7939 127.603 81.8313 127.453 81.8089 127.438Z" fill="#EB996E"/>
<path d="M81.2098 116.792C81.3588 116.732 81.4996 116.654 81.6291 116.559C81.8911 116.395 82.3029 116.17 82.7896 115.811C84.1563 114.813 85.4114 113.671 86.533 112.404C88.1704 110.508 89.7001 108.52 91.1149 106.452C92.8225 103.919 94.7383 101.532 96.8424 99.3173C97.9656 98.2127 99.2058 97.2336 100.541 96.3974C101.791 95.6304 103.131 95.0218 104.531 94.5856C106.903 93.824 109.398 93.5167 111.883 93.6797C113.561 93.7823 115.218 94.1071 116.81 94.6455C117.379 94.8177 117.806 95.0123 118.098 95.1246C118.242 95.1918 118.392 95.2445 118.547 95.2819C118.41 95.1983 118.268 95.1257 118.12 95.0647C117.71 94.8617 117.287 94.6842 116.855 94.5332C115.261 93.943 113.593 93.5801 111.898 93.4551C109.371 93.2538 106.829 93.5436 104.412 94.3086C102.987 94.7449 101.621 95.3559 100.346 96.1279C98.9935 96.9874 97.7383 97.9915 96.6028 99.1226C94.4832 101.347 92.5618 103.752 90.8604 106.31C89.4709 108.385 87.9714 110.385 86.3683 112.299C85.2663 113.569 84.0426 114.727 82.7147 115.758C82.2355 116.118 81.8387 116.357 81.5842 116.545C81.4536 116.618 81.3285 116.7 81.2098 116.792Z" fill="#6A797C"/>
<path d="M81.0227 128.666C80.6784 128.599 80.3217 128.666 80.0251 128.853C79.7286 129.04 79.5146 129.334 79.4267 129.673C79.3389 130.013 79.3838 130.373 79.5524 130.68C79.721 130.988 80.0005 131.22 80.3339 131.328C80.6674 131.437 81.0297 131.414 81.347 131.265C81.6643 131.115 81.9127 130.851 82.0416 130.525C82.1704 130.198 82.1701 129.835 82.0406 129.509C81.9111 129.184 81.6622 128.919 81.3446 128.771" fill="white"/>
<path d="M81.3446 128.771C81.6433 129.008 81.8605 129.332 81.966 129.699C82.0155 129.889 82.0167 130.089 81.9697 130.28C81.9226 130.47 81.8287 130.646 81.6965 130.792C81.5416 130.975 81.336 131.108 81.1057 131.174C80.8753 131.24 80.6306 131.236 80.4023 131.163C80.1741 131.09 79.9725 130.951 79.8231 130.764C79.6737 130.577 79.5831 130.349 79.5628 130.111C79.5375 129.915 79.562 129.717 79.634 129.534C79.706 129.35 79.8231 129.188 79.9745 129.062C80.2735 128.823 80.6403 128.684 81.0227 128.666C81.0227 128.666 80.9104 128.591 80.6933 128.591C80.4963 128.593 80.3019 128.636 80.122 128.717C79.9422 128.797 79.7806 128.913 79.6474 129.059C79.5142 129.204 79.412 129.375 79.3473 129.561C79.2825 129.747 79.2565 129.944 79.2708 130.141C79.2933 130.438 79.404 130.721 79.5886 130.955C79.7733 131.189 80.0236 131.363 80.3074 131.453C80.5912 131.544 80.8956 131.548 81.1818 131.465C81.4679 131.382 81.7227 131.215 81.9136 130.987C82.0719 130.805 82.1801 130.585 82.2273 130.349C82.2746 130.112 82.2594 129.868 82.1832 129.639C82.0921 129.338 81.9055 129.075 81.6516 128.89C81.4719 128.771 81.3521 128.748 81.3446 128.771Z" fill="#263238"/>
<path d="M82.9244 118.761C82.8196 120.655 82.7297 122.654 83.6057 124.338C84.4816 126.023 86.6903 127.176 88.3374 126.232C89.685 125.484 90.0893 123.739 90.3139 122.205C90.9727 117.787 91.2722 113.318 91.9685 108.9L82.9244 118.761Z" fill="#263238"/>
<path d="M105.654 133.083C105.317 133.522 105.091 134.036 104.996 134.582C104.9 135.127 104.938 135.688 105.107 136.216C105.275 136.743 105.569 137.222 105.963 137.611C106.357 138.001 106.839 138.289 107.369 138.451C107.789 138.593 108.244 138.593 108.664 138.451C109.002 138.261 109.299 138.004 109.536 137.697C109.772 137.389 109.944 137.037 110.042 136.662L110.79 134.865C110.861 134.773 110.903 134.662 110.913 134.546C110.922 134.431 110.898 134.315 110.844 134.213C110.79 134.11 110.707 134.025 110.606 133.969C110.505 133.912 110.39 133.885 110.274 133.891L105.819 132.821" fill="#EB996E"/>
<path d="M108.567 138.249C107.882 138.341 107.186 138.253 106.545 137.994C105.794 137.751 105.162 137.235 104.771 136.549C104.543 136.128 104.447 135.648 104.494 135.172C104.527 134.68 104.649 134.198 104.853 133.749C105.051 133.311 105.334 132.917 105.684 132.589L105.804 132.484L105.954 132.536C108.904 133.577 111.195 134.101 111.195 134.228C111.195 134.356 108.799 134.034 105.789 133.03L106.051 132.971C105.755 133.259 105.514 133.599 105.34 133.974C105.154 134.334 105.046 134.73 105.024 135.136C105.002 135.541 105.066 135.946 105.213 136.325C105.542 136.926 106.072 137.392 106.71 137.642C107.788 138.092 108.589 138.151 108.567 138.249Z" fill="#263238"/>
<path d="M118.075 95.6486C118.075 95.686 117.469 95.5288 116.353 95.4988C114.78 95.4697 113.217 95.7548 111.756 96.3374C110.746 96.7299 109.782 97.2321 108.881 97.8347C107.837 98.5205 106.837 99.2706 105.887 100.081C103.709 101.933 101.759 104.036 100.077 106.347C99.1933 107.59 98.4147 108.863 97.5687 110.038C96.7701 111.19 95.8349 112.241 94.7835 113.168C92.9852 114.694 91.0184 116.011 88.9213 117.091C87.147 118.034 85.6571 118.686 84.6389 119.142L83.4559 119.606C83.3198 119.672 83.1766 119.722 83.0292 119.756C83.1532 119.668 83.2862 119.592 83.426 119.532L84.579 118.963C85.5822 118.461 87.0496 117.772 88.7941 116.806C90.855 115.704 92.7883 114.379 94.5589 112.853C95.5798 111.935 96.4894 110.899 97.2692 109.769C98.1002 108.608 98.8788 107.328 99.7698 106.078C101.466 103.739 103.445 101.619 105.662 99.7663C106.614 98.9579 107.614 98.2079 108.657 97.5203C109.596 96.9114 110.601 96.4092 111.651 96.0229C113.147 95.4489 114.746 95.1939 116.346 95.2742C116.777 95.2994 117.205 95.3595 117.626 95.4539C117.785 95.4937 117.937 95.5595 118.075 95.6486Z" fill="#6A797C"/>
<path d="M82.7073 114.471C82.5186 114.63 82.3127 114.768 82.0933 114.882L80.3339 115.916L79.7425 116.26C79.5132 116.394 79.258 116.478 78.9938 116.507C78.8284 116.523 78.6625 116.483 78.5221 116.395C78.4467 116.344 78.3843 116.276 78.3401 116.197C78.2958 116.117 78.271 116.029 78.2676 115.938C78.284 115.619 78.3991 115.313 78.597 115.062L80.6334 111.798L80.9104 112.052C80.2313 112.55 79.4715 112.928 78.6644 113.168C77.8581 113.404 77.0178 113.503 76.1787 113.46C75.9647 113.454 75.7527 113.416 75.5498 113.348C75.4305 113.314 75.3201 113.254 75.2269 113.173C75.1336 113.091 75.0598 112.99 75.0108 112.876C74.9719 112.759 74.9625 112.634 74.9834 112.513C75.0043 112.391 75.0548 112.277 75.1306 112.18C75.2451 112.022 75.3755 111.876 75.5199 111.745C76.4372 110.856 77.2328 109.849 77.8857 108.751C78.458 107.721 78.9583 106.653 79.3831 105.554C79.3506 105.871 79.2776 106.183 79.166 106.482C78.8983 107.316 78.5471 108.122 78.1178 108.885C77.4823 110.023 76.6911 111.066 75.7669 111.985C75.5049 112.232 75.2504 112.516 75.3552 112.734C75.46 112.951 75.8268 113.056 76.1937 113.063C77.7996 113.147 79.3854 112.676 80.6858 111.73L81.5094 111.124L80.9553 111.985L78.874 115.227C78.7165 115.42 78.6155 115.653 78.582 115.901C78.582 116.103 78.7542 116.215 78.9788 116.2C79.4251 116.11 79.8497 115.935 80.2291 115.683L82.0409 114.755C82.2511 114.634 82.4747 114.539 82.7073 114.471Z" fill="#6A797C"/>
<path d="M48.1254 195.224L60.7483 261.595C60.8677 262.227 61.1108 262.829 61.4636 263.367C61.8165 263.904 62.2721 264.367 62.8043 264.728C63.3365 265.089 63.9349 265.342 64.5649 265.471C65.195 265.6 65.8444 265.603 66.4757 265.481L114.953 256.152C115.586 256.03 116.188 255.784 116.726 255.429C117.263 255.074 117.725 254.616 118.086 254.082C118.446 253.548 118.697 252.948 118.825 252.316C118.953 251.685 118.955 251.034 118.831 250.402L105.475 182.871C105.347 182.233 105.094 181.626 104.73 181.087C104.366 180.547 103.898 180.086 103.354 179.729C102.81 179.372 102.2 179.127 101.56 179.009C100.921 178.89 100.263 178.9 99.6275 179.037L51.8838 189.519C50.6375 189.793 49.5473 190.542 48.8453 191.608C48.1433 192.673 47.885 193.971 48.1254 195.224Z" fill="#FFCEC7"/>
<path d="M80.4612 219.721L84.4966 217.722C84.4966 217.722 85.8068 210.804 87.9331 208.363C90.0593 205.922 93.1739 203.122 93.1739 202.456C93.1739 201.79 94.1621 197.215 94.1621 197.215C94.1621 197.215 96.0413 195.575 96.4082 198.855C96.6374 200.759 96.6374 202.685 96.4082 204.59L109.031 201.445C110.341 201.116 111.981 201.243 111.816 202.553C111.651 203.863 110.948 204.545 109.944 205.361C109.584 205.66 109.177 205.898 108.739 206.065C108.739 206.065 110.843 208.004 110.843 209.905C110.843 211.807 112.999 216.224 111.037 218.35C109.076 220.477 100.062 226.87 95.3151 227.687C90.5684 228.503 89.4005 229.933 87.1993 232.733L80.4612 219.721Z" fill="#FFBE9D"/>
<path d="M97.4489 204.365C97.5013 204.47 96.0039 205.346 94.3119 206.649C92.6199 207.951 91.377 209.149 91.3171 209.074C92.9496 207.019 95.0668 205.401 97.4788 204.365H97.4489Z" fill="#EB996E"/>
<path d="M109.473 205.706C108.532 206.272 107.509 206.691 106.441 206.948C105.419 207.326 104.367 207.614 103.296 207.809C104.239 207.247 105.261 206.83 106.328 206.574C107.352 206.201 108.403 205.911 109.473 205.706Z" fill="#EB996E"/>
<path d="M52.3181 229.192L80.1168 217.407L90.546 238.198L52.3181 257.694V229.192Z" fill="#FF725E"/>
<path d="M79.5852 218.051C79.6301 218.156 72.0983 221.248 62.8071 224.969C53.516 228.69 45.9243 231.617 45.8869 231.52C45.8494 231.423 53.3737 228.323 62.6649 224.602C71.9561 220.881 79.5477 217.954 79.5852 218.051Z" fill="#263238"/>
<g opacity="0.3">
<path d="M54.1524 227.912C50.7717 228.589 47.4646 229.592 44.2772 230.906C42.9554 231.384 41.7191 232.072 40.6161 232.943C40.0668 233.382 39.6099 233.926 39.272 234.543C38.934 235.159 38.7216 235.837 38.6471 236.536C39.5593 236.145 40.4194 235.642 41.2076 235.039C44.367 231.872 49.81 230.03 54.4219 228.301L54.1524 227.912Z" fill="black"/>
</g>
</svg>
