<svg width="66" height="70" viewBox="0 0 66 70" fill="none" xmlns="http://www.w3.org/2000/svg">
<path fill-rule="evenodd" clip-rule="evenodd" d="M60.9893 33.7804C60.3323 33.8913 59.8887 34.5141 59.9996 35.1723C60.2615 36.7198 60.3936 38.2769 60.3936 39.8032C60.3936 48.3169 56.5989 56.0016 50.485 61.1184C49.4172 54.1853 44.4949 48.6247 37.9585 46.6348C40.5572 44.9013 42.2755 41.9477 42.2755 38.5954C42.2755 33.2661 37.9406 28.9324 32.6125 28.9324C27.2844 28.9324 22.9495 33.2661 22.9495 38.5954C22.9495 41.9477 24.6679 44.9013 27.2666 46.6348C20.7302 48.6247 15.8079 54.1853 14.7401 61.1184C8.62611 56.0016 4.83146 48.3169 4.83146 39.8032C4.83146 38.2769 4.96357 36.7198 5.22543 35.1723C5.33631 34.5141 4.89279 33.8913 4.23578 33.7804C3.56343 33.6671 2.95477 34.113 2.84271 34.7712C2.55962 36.4485 2.41571 38.1424 2.41571 39.8032C2.41571 54.6374 13.0105 67.1573 27.6076 69.573C27.6737 69.5848 27.7409 69.5896 27.8058 69.5896C28.3862 69.5896 28.8981 69.1696 28.996 68.5799C29.1057 67.9217 28.6598 67.2988 28.0016 67.1903C23.9314 66.5166 20.2078 64.9778 16.9832 62.7948C17.5659 54.5978 24.3027 48.2583 32.6125 48.2583C40.9224 48.2583 47.6592 54.5978 48.2419 62.7948C45.0173 64.9778 41.2937 66.5166 37.2234 67.1903C36.5652 67.2988 36.1194 67.9217 36.2291 68.5799C36.327 69.1696 36.8389 69.5896 37.4193 69.5896C37.4841 69.5896 37.5514 69.5848 37.6174 69.573C52.2145 67.1573 62.8093 54.6374 62.8093 39.8032C62.8093 38.1424 62.6654 36.4485 62.3823 34.7712C62.2703 34.113 61.6546 33.6648 60.9893 33.7804ZM25.3653 38.5954C25.3653 34.599 28.6162 31.3481 32.6125 31.3481C36.6089 31.3481 39.8598 34.599 39.8598 38.5954C39.8598 42.5917 36.6089 45.8426 32.6125 45.8426C28.6162 45.8426 25.3653 42.5917 25.3653 38.5954Z" fill="white"/>
<path fill-rule="evenodd" clip-rule="evenodd" d="M45.8402 9.55446C45.6974 9.11566 45.32 8.79718 44.8647 8.73113L37.1468 7.61054L33.6954 0.615732C33.2896 -0.205244 31.9355 -0.205244 31.5297 0.615732L28.0783 7.61054L20.3604 8.73113C19.9051 8.79718 19.5276 9.11566 19.3849 9.55446C19.2434 9.9909 19.3613 10.4722 19.6904 10.793L25.2757 16.2355L23.9569 23.9215C23.8791 24.3769 24.0654 24.8345 24.437 25.1035C24.8109 25.3748 25.3028 25.4149 25.7097 25.1955L32.6125 21.5648L39.5153 25.1955C39.6923 25.2898 39.8857 25.3347 40.078 25.3347C40.3281 25.3347 40.5769 25.2568 40.7881 25.1035C41.1597 24.8345 41.346 24.3769 41.2682 23.9215L39.9494 16.2355L45.5347 10.793C45.8637 10.4722 45.9817 9.9909 45.8402 9.55446ZM37.8085 14.9474C37.5242 15.2258 37.3945 15.6245 37.4617 16.0185L38.4738 21.9186L33.1752 19.1325C32.9983 19.0405 32.806 18.9933 32.6125 18.9933C32.4191 18.9933 32.2268 19.0405 32.0499 19.1325L26.7513 21.9186L27.7634 16.0185C27.8306 15.6245 27.7008 15.2258 27.4166 14.9474L23.13 10.7718L29.0538 9.91069C29.4478 9.85171 29.7875 9.60636 29.9632 9.25013L32.6125 3.88076L35.2618 9.25013C35.4376 9.60636 35.7773 9.85171 36.1713 9.91069L42.095 10.7718L37.8085 14.9474Z" fill="#842518"/>
<path fill-rule="evenodd" clip-rule="evenodd" d="M3.70849 28.989C3.63064 29.4444 3.81701 29.902 4.18858 30.171C4.56368 30.4423 5.05674 30.48 5.46133 30.263L10.8708 27.4179L16.2803 30.263C16.4572 30.3573 16.6507 30.4022 16.8429 30.4022C17.093 30.4022 17.3419 30.3243 17.553 30.171C17.9246 29.902 18.111 29.4444 18.0331 28.989L16.9998 22.9662L21.3772 18.7009C21.7063 18.3801 21.8242 17.8988 21.6827 17.4624C21.54 17.0236 21.1625 16.7051 20.7072 16.639L14.6584 15.7614L11.9536 10.2788C11.5479 9.45784 10.1937 9.45784 9.78796 10.2788L7.08323 15.7614L1.03443 16.639C0.579114 16.7051 0.201653 17.0236 0.0589263 17.4624C-0.0826214 17.8988 0.0353352 18.3801 0.364433 18.7009L4.74179 22.9662L3.70849 28.989ZM3.80404 18.6797L8.05872 18.0616C8.4527 18.0026 8.79241 17.7572 8.96817 17.401L10.8708 13.5438L12.7734 17.401C12.9492 17.7572 13.2889 18.0026 13.6829 18.0616L17.9376 18.6797L14.8589 21.6781C14.5746 21.9565 14.4449 22.3552 14.5121 22.7492L15.2387 26.9862L11.4335 24.9856C11.2565 24.8936 11.0643 24.8464 10.8708 24.8464C10.6774 24.8464 10.4851 24.8936 10.3082 24.9856L6.50288 26.9862L7.22949 22.7492C7.29673 22.3552 7.16697 21.9565 6.8827 21.6781L3.80404 18.6797Z" fill="white"/>
<path fill-rule="evenodd" clip-rule="evenodd" d="M64.1906 16.639L58.1418 15.7614L55.437 10.2788C55.0313 9.45784 53.6771 9.45784 53.2714 10.2788L50.5666 15.7614L44.5178 16.639C44.0625 16.7051 43.6851 17.0236 43.5423 17.4624C43.4008 17.8988 43.5187 18.3801 43.8478 18.7009L48.2252 22.9662L47.1919 28.989C47.114 29.4444 47.3004 29.902 47.672 30.171C48.0459 30.4423 48.5378 30.48 48.9447 30.263L54.3542 27.4179L59.7637 30.263C59.9406 30.3573 60.1341 30.4022 60.3263 30.4022C60.5764 30.4022 60.8253 30.3243 61.0364 30.171C61.408 29.902 61.5944 29.4444 61.5165 28.989L60.4832 22.9662L64.8606 18.7009C65.1897 18.3801 65.3076 17.8988 65.1661 17.4624C65.0233 17.0236 64.6459 16.7051 64.1906 16.639ZM58.3423 21.6781C58.058 21.9565 57.9283 22.3552 57.9955 22.7492L58.7221 26.9862L54.9169 24.9856C54.7399 24.8936 54.5477 24.8464 54.3542 24.8464C54.1608 24.8464 53.9685 24.8936 53.7915 24.9856L49.9863 26.9862L50.7129 22.7492C50.7801 22.3552 50.6504 21.9565 50.3661 21.6781L47.2874 18.6797L51.5421 18.0616C51.9361 18.0026 52.2758 17.7572 52.4516 17.401L54.3542 13.5438L56.2568 17.401C56.4326 17.7572 56.7723 18.0026 57.1663 18.0616L61.421 18.6797L58.3423 21.6781Z" fill="white"/>
<path d="M32.6125 70C33.2796 70 33.8204 69.4592 33.8204 68.7921C33.8204 68.125 33.2796 67.5842 32.6125 67.5842C31.9454 67.5842 31.4047 68.125 31.4047 68.7921C31.4047 69.4592 31.9454 70 32.6125 70Z" fill="white"/>
</svg>
