<svg width="54" height="54" viewBox="0 0 53 54" fill="none" xmlns="http://www.w3.org/2000/svg">
<g id="Frame 1000002399">
<g id="Layer_1">
<g id="Group">
<path id="Vector" fill-rule="evenodd" clip-rule="evenodd" d="M28.2354 46.12C28.1277 46.12 28.0182 46.0999 27.9122 46.0574C27.4656 45.8787 27.2484 45.3718 27.4272 44.9253L28.6343 41.9082L27.3122 39.9251L24.9828 39.1486C24.8546 39.1058 24.738 39.0338 24.6425 38.9381L22.9005 37.1962C22.6872 36.9827 22.5993 36.6739 22.6687 36.3803C22.7381 36.0865 22.9545 35.8495 23.2411 35.7541L27.5141 34.3297L27.0922 33.486C26.9696 33.2407 26.9696 32.9522 27.0922 32.7069L27.6193 31.6527L25.8656 30.4835H23.5161C23.0351 30.4835 22.6451 30.0936 22.6451 29.6126V26.9997H19.1613C18.6803 26.9997 18.2903 26.6097 18.2903 26.1287V23.982L16.0653 22.4986C15.665 22.2317 15.5569 21.691 15.8236 21.2908L17.5656 18.6778C17.7697 18.3716 18.1444 18.2266 18.5015 18.316L21.39 19.038L22.4693 17.4189L21.0494 15.2891C20.876 15.029 20.8553 14.696 20.9951 14.4165L21.6577 13.0914L20.0211 10.227C19.7824 9.8094 19.9276 9.27745 20.3452 9.03869C20.7629 8.80008 21.295 8.94524 21.5336 9.36288L23.4015 12.6319C23.5459 12.8847 23.5545 13.193 23.4243 13.4536L22.7794 14.7434L24.241 16.9358C24.4361 17.2284 24.4361 17.6096 24.241 17.902L22.4991 20.5149C22.2949 20.8211 21.9202 20.966 21.5631 20.8767L18.6747 20.1547L17.7564 21.5322L19.6445 22.7911C19.8869 22.9525 20.0324 23.2244 20.0324 23.5157V25.2576H23.5163C23.9973 25.2576 24.3872 25.6476 24.3872 26.1286V28.7415H26.1292C26.3011 28.7415 26.4692 28.7923 26.6123 28.8877L29.2252 30.6296C29.5907 30.8734 29.7175 31.3509 29.5211 31.7437L28.8449 33.0961L29.5211 34.4486C29.6341 34.6745 29.6434 34.9382 29.5468 35.1714C29.4502 35.4047 29.2571 35.5845 29.0176 35.6643L25.1288 36.9606L25.7289 37.5608L28.1468 38.3667C28.3305 38.4279 28.4886 38.5488 28.596 38.71L30.3379 41.3229C30.497 41.5615 30.5285 41.8631 30.4219 42.1296L29.0446 45.572C28.9081 45.9128 28.581 46.12 28.2354 46.12Z" fill="#FF725E"/>
<path id="Vector_2" fill-rule="evenodd" clip-rule="evenodd" d="M39.9756 40.7607C39.8291 40.7607 39.6806 40.7236 39.5442 40.6458L35.2775 38.2078C35.0061 38.0528 34.8387 37.7642 34.8387 37.4516V34.8387C34.8387 34.5088 35.025 34.2073 35.3201 34.0597L36.5806 33.4294V30.4839C36.5806 30.1539 36.7669 29.8524 37.0621 29.7048L38.5444 28.9638L39.2855 27.4815C39.433 27.1864 39.7346 27 40.0645 27H45.2699C45.7509 27 46.1409 27.39 46.1409 27.871C46.1409 28.352 45.7509 28.7419 45.2699 28.7419H40.6028L39.9726 30.0024C39.8883 30.171 39.7516 30.3076 39.583 30.3919L38.3226 31.0223V33.9679C38.3226 34.2978 38.1363 34.5993 37.8411 34.7469L36.5806 35.3772V36.9463L40.4085 39.1335C40.8261 39.3721 40.9713 39.9042 40.7327 40.3219C40.5718 40.603 40.2779 40.7607 39.9756 40.7607Z" fill="#FF725E" stroke="#FF725E" stroke-width="0.216" stroke-miterlimit="2.613"/>
<path id="Vector_3" fill-rule="evenodd" clip-rule="evenodd" d="M41.8064 23.5162C41.5754 23.5162 41.3539 23.4244 41.1906 23.2611L39.7037 21.7743H36.5806C36.2507 21.7743 35.9492 21.588 35.8016 21.2928L34.3721 18.4339L31.5661 19.1353C31.1245 19.2457 30.6726 18.9976 30.5286 18.5657L29.6945 16.0635L28.0173 13.5477C27.8223 13.2551 27.8223 12.8739 28.0173 12.5815L29.7593 9.96856C29.7682 9.9551 29.7776 9.94195 29.7872 9.9291L30.6956 8.71806C30.9842 8.33323 31.5301 8.25521 31.9149 8.54402C32.2997 8.83268 32.3776 9.37854 32.089 9.76337L31.1952 10.9549L29.7888 13.0646L31.2086 15.1944C31.2516 15.2588 31.2857 15.3286 31.3102 15.4021L31.9261 17.2499L34.6275 16.5746C35.0236 16.4756 35.4351 16.6649 35.6177 17.0301L37.1189 20.0325H40.0645C40.2956 20.0325 40.5171 20.1243 40.6804 20.2876L41.8064 21.4136L43.4442 19.7759C43.7844 19.4358 44.3357 19.4358 44.6759 19.7759C45.016 20.1161 45.016 20.6676 44.6759 21.0076L42.4223 23.2613C42.259 23.4244 42.0375 23.5162 41.8064 23.5162Z" fill="#FF725E"/>
<g id="Group_2">
<path id="Vector_4" fill-rule="evenodd" clip-rule="evenodd" d="M27 46.1613C24.4136 46.1613 21.9041 45.6546 19.5413 44.6551C17.2595 43.6899 15.2103 42.3084 13.4509 40.549C11.6914 38.7895 10.3099 36.7404 9.34476 34.4585C8.34526 32.0957 7.83856 29.5863 7.83856 26.9998C7.83856 24.4134 8.34526 21.9041 9.34476 19.5411C10.3098 17.2593 11.6914 15.2102 13.4509 13.4507C15.2103 11.6912 17.2594 10.3098 19.5413 9.34458C21.9041 8.34508 24.4136 7.83838 27 7.83838C29.5864 7.83838 32.0958 8.34508 34.4587 9.34458C36.7405 10.3098 38.7897 11.6912 40.5491 13.4507C42.3086 15.2102 43.6901 17.2592 44.6552 19.5411C45.6546 21.9039 46.1614 24.4134 46.1614 26.9998C46.1614 29.5863 45.6547 32.0957 44.6552 34.4585C43.6901 36.7403 42.3086 38.7895 40.5491 40.549C38.7897 42.3084 36.7406 43.6899 34.4587 44.6551C32.0959 45.6544 29.5864 46.1613 27 46.1613ZM27 9.58062C17.3949 9.58062 9.58065 17.3948 9.58065 27C9.58065 36.6051 17.3949 44.4193 27 44.4193C36.6051 44.4193 44.4194 36.6051 44.4194 27C44.4194 17.3948 36.6051 9.58062 27 9.58062Z" fill="#B4BEC1"/>
<path id="Vector_5" fill-rule="evenodd" clip-rule="evenodd" d="M6.09679 6.96774C4.17582 6.96774 2.61292 5.40484 2.61292 3.48387C2.61292 1.5629 4.17582 0 6.09679 0C8.01775 0 9.58066 1.5629 9.58066 3.48387C9.58066 5.40484 8.01791 6.96774 6.09679 6.96774ZM6.09679 1.74194C5.1363 1.74194 4.35485 2.52339 4.35485 3.48387C4.35485 4.44436 5.1363 5.22581 6.09679 5.22581C7.05727 5.22581 7.83872 4.44436 7.83872 3.48387C7.83872 2.52339 7.05727 1.74194 6.09679 1.74194Z" fill="#B4BEC1"/>
<path id="Vector_6" fill-rule="evenodd" clip-rule="evenodd" d="M11.3226 12.1933H0.870968C0.38997 12.1933 0 11.8034 0 11.3224C0 7.96052 2.73493 5.22559 6.09677 5.22559C9.45862 5.22559 12.1936 7.96052 12.1936 11.3224C12.1936 11.8034 11.8036 12.1933 11.3226 12.1933ZM1.82949 10.4514H10.3642C9.95958 8.46616 8.1998 6.96752 6.09693 6.96752C3.99405 6.96752 2.23412 8.46616 1.82949 10.4514Z" fill="#B4BEC1"/>
<path id="Vector_7" fill-rule="evenodd" clip-rule="evenodd" d="M49.6451 52.2582C48.9467 52.2582 48.2904 51.9863 47.7972 51.4924C47.4573 51.1522 47.4576 50.6008 47.7978 50.2607C48.138 49.9208 48.6895 49.9211 49.0296 50.2613C49.1936 50.4255 49.4123 50.5161 49.6451 50.5161C50.1254 50.5161 50.5161 50.1254 50.5161 49.6451C50.5161 49.1649 50.1254 48.7742 49.6451 48.7742C48.2044 48.7742 47.0322 47.602 47.0322 46.1612C47.0322 44.7205 48.2044 43.5483 49.6451 43.5483C50.3436 43.5483 50.9998 43.8202 51.4931 44.3141C51.833 44.6543 51.8327 45.2058 51.4925 45.5458C51.1521 45.8857 50.6008 45.8854 50.2607 45.5452C50.0966 45.381 49.878 45.2904 49.6453 45.2904C49.165 45.2904 48.7743 45.6812 48.7743 46.1614C48.7743 46.6416 49.165 47.0324 49.6453 47.0324C51.086 47.0324 52.2582 48.2045 52.2582 49.6453C52.258 51.086 51.0859 52.2582 49.6451 52.2582Z" fill="#B4BEC1"/>
<path id="Vector_8" fill-rule="evenodd" clip-rule="evenodd" d="M49.6451 45.2903C49.1641 45.2903 48.7742 44.9003 48.7742 44.4193V42.6774C48.7742 42.1964 49.1641 41.8064 49.6451 41.8064C50.1261 41.8064 50.5161 42.1964 50.5161 42.6774V44.4193C50.5161 44.9003 50.1261 45.2903 49.6451 45.2903Z" fill="#B4BEC1"/>
<path id="Vector_9" fill-rule="evenodd" clip-rule="evenodd" d="M49.6451 54C49.1641 54 48.7742 53.61 48.7742 53.129V51.3871C48.7742 50.9061 49.1641 50.5161 49.6451 50.5161C50.1261 50.5161 50.5161 50.9061 50.5161 51.3871V53.129C50.5161 53.61 50.1261 54 49.6451 54Z" fill="#B4BEC1"/>
<path id="Vector_10" fill-rule="evenodd" clip-rule="evenodd" d="M7.83874 17.4194C7.61586 17.4194 7.39297 17.3344 7.22286 17.1643L6.09681 16.0382L4.97075 17.1643C4.63052 17.5044 4.07921 17.5044 3.73899 17.1643C3.39877 16.8241 3.39877 16.2726 3.73899 15.9325L5.48093 14.1906C5.82115 13.8505 6.37246 13.8505 6.71268 14.1906L8.45462 15.9325C8.79484 16.2728 8.79484 16.8242 8.45462 17.1643C8.28451 17.3344 8.06162 17.4194 7.83874 17.4194Z" fill="#B4BEC1"/>
<path id="Vector_11" fill-rule="evenodd" clip-rule="evenodd" d="M12.1936 23.5162H9.97261C7.35532 23.5162 5.22583 21.3867 5.22583 18.7694V14.8065C5.22583 14.3255 5.6158 13.9355 6.0968 13.9355C6.5778 13.9355 6.96777 14.3255 6.96777 14.8065V18.7694C6.96777 20.4262 8.3158 21.7743 9.97261 21.7743H12.1936C12.6746 21.7743 13.0645 22.1642 13.0645 22.6452C13.0645 23.1262 12.6746 23.5162 12.1936 23.5162Z" fill="#B4BEC1"/>
<path id="Vector_12" fill-rule="evenodd" clip-rule="evenodd" d="M49.6452 40.0645C49.4223 40.0645 49.1994 39.9795 49.0293 39.8094L47.2874 38.0675C46.9473 37.7273 46.9473 37.176 47.2874 36.8357C47.6276 36.4955 48.1789 36.4955 48.5192 36.8357L49.6452 37.9618L50.7713 36.8357C51.1115 36.4955 51.6628 36.4955 52.003 36.8357C52.3431 37.176 52.3431 37.7273 52.003 38.0675L50.2611 39.8094C50.091 39.9795 49.8681 40.0645 49.6452 40.0645Z" fill="#B4BEC1"/>
<path id="Vector_13" fill-rule="evenodd" clip-rule="evenodd" d="M49.6452 40.0645C49.1642 40.0645 48.7743 39.6746 48.7743 39.1936V35.2307C48.7743 33.5739 47.4262 32.2258 45.7694 32.2258H42.6775C42.1965 32.2258 41.8065 31.8359 41.8065 31.3549C41.8065 30.8739 42.1965 30.4839 42.6775 30.4839H45.7694C48.3867 30.4839 50.5162 32.6132 50.5162 35.2307V39.1936C50.5162 39.6746 50.1262 40.0645 49.6452 40.0645Z" fill="#B4BEC1"/>
</g>
</g>
</g>
</g>
</svg>
