<svg width="54" height="54" viewBox="0 0 61 54" fill="none" xmlns="http://www.w3.org/2000/svg">
<g id="Frame 1000002400">
<path id="Vector" d="M9.05483 18.2589C8.92646 18.2589 8.79872 18.2285 8.68216 18.1672L0.538423 15.2108C0.275927 15.1156 0.0801734 14.8927 0.0194993 14.62C-0.0411749 14.3473 0.0418528 14.0625 0.239203 13.8648L6.8118 7.2858C8.3194 5.77884 10.4673 5.14592 12.5576 5.59267L14.8665 6.09467C14.9421 6.10393 15.0165 6.12341 15.0884 6.15406C15.3889 6.28308 15.585 6.58134 15.585 6.90834C15.585 7.35988 15.219 7.72584 14.7675 7.72584C14.7649 7.72552 14.763 7.7252 14.7608 7.72584C14.7029 7.72584 14.6448 7.71978 14.587 7.707L12.2131 7.19063C10.67 6.86204 9.08197 7.32827 7.96813 8.44148L2.30308 14.112L9.33042 16.6631C9.44282 16.7037 9.54469 16.7688 9.62932 16.8535C9.94866 17.1728 9.95504 17.6968 9.63602 18.0162C9.47476 18.1774 9.26432 18.2589 9.05483 18.2589Z" fill="#FF725E"/>
<path id="Vector_2" d="M18.8812 33.3239C18.8224 33.3239 18.7633 33.3175 18.7046 33.3047C18.4318 33.2444 18.209 33.0489 18.1132 32.7864L15.1047 24.5396C15.0718 24.4498 15.0552 24.355 15.0552 24.2595C15.0552 23.808 15.4211 23.4388 15.8727 23.4388C16.2479 23.4388 16.564 23.6892 16.6602 24.0328L19.2098 31.0218L24.8825 25.3491C25.9963 24.2352 26.4613 22.651 26.1263 21.1108L25.616 18.735C25.5211 18.2933 25.8022 17.8587 26.2435 17.7639C26.6835 17.6712 27.1197 17.9497 27.2146 18.3914L27.7246 20.7653C28.1777 22.8496 27.5477 24.9962 26.0385 26.5051L19.4592 33.0844C19.3043 33.2396 19.0954 33.3239 18.8812 33.3239Z" fill="#FF725E"/>
<path id="Vector_3" d="M4.12617 30.0139C3.90998 30.0139 3.70177 29.9284 3.54817 29.7744C3.38148 29.6077 3.29494 29.3775 3.31058 29.1425C3.48207 26.5514 4.48575 23.5531 6.21336 20.4725C6.43402 20.0787 6.93219 19.9385 7.32625 20.1592C7.71999 20.3802 7.86018 20.8783 7.63952 21.2721C6.24785 23.7536 5.36201 26.1525 5.04746 28.2751C7.17041 27.9609 9.56896 27.0751 12.0505 25.6831C12.444 25.4621 12.9428 25.6026 13.1634 25.9964C13.3841 26.3901 13.2439 26.8883 12.8501 27.1092C9.7695 28.8372 6.77124 29.8409 4.18014 30.012C4.16194 30.0133 4.14405 30.0139 4.12617 30.0139Z" fill="#FF725E"/>
<path id="Vector_4" d="M16.839 26.0411C16.626 26.0411 16.4171 25.9577 16.261 25.8016L7.52103 17.0616C7.29334 16.834 7.22053 16.4939 7.33517 16.1927C8.56845 12.9534 10.5991 9.86219 13.2078 7.25384C17.3352 3.12576 22.4874 0.558611 27.7146 0.0253172C29.2299 -0.126687 30.7266 0.410757 31.8191 1.50353C32.9119 2.59598 33.4506 4.09176 33.2973 5.60733C32.764 10.8352 30.1968 15.9871 26.0691 20.1148C23.4601 22.7238 20.3689 24.7545 17.1299 25.9878C17.0354 26.0235 16.9367 26.0411 16.839 26.0411ZM9.0564 16.285L17.0376 24.2662C19.8848 23.1006 22.5982 21.2734 24.9131 18.9588C28.7755 15.0964 31.1753 10.2958 31.6706 5.44192C31.7744 4.41812 31.4071 3.40359 30.6631 2.65953C29.9187 1.91547 28.9023 1.5476 27.8801 1.65202C23.0265 2.14731 18.2262 4.54713 14.3638 8.40984C12.0495 10.7244 10.2223 13.4375 9.0564 16.285Z" fill="#FF725E"/>
<path id="Vector_5" d="M20.9501 17.4986C19.6367 17.4986 18.3236 16.9985 17.3237 15.9987C15.3244 13.9993 15.3241 10.7456 17.3237 8.74586C19.3234 6.74617 22.5768 6.74617 24.5765 8.74586C26.5762 10.7456 26.5759 13.9993 24.5765 15.9987C23.5767 16.9985 22.2636 17.4986 20.9501 17.4986ZM20.9501 8.8803C20.0554 8.8803 19.1609 9.22072 18.4797 9.90186C17.1178 11.2642 17.1178 13.4807 18.4797 14.8426C19.842 16.2049 22.0582 16.2049 23.4205 14.8426C24.7825 13.4807 24.7825 11.2642 23.4205 9.90186C22.7394 9.22104 21.8446 8.8803 20.9501 8.8803Z" fill="#FF725E"/>
<path id="Vector_6" d="M31.5036 10.7848C31.329 10.7848 31.153 10.7293 31.0042 10.614C29.4899 9.44331 28.0072 8.13466 26.598 6.72479C25.1852 5.31204 23.8766 3.82936 22.7085 2.31793C22.4325 1.96092 22.4983 1.44742 22.8557 1.17119C23.2133 0.895606 23.7265 0.961708 24.0024 1.31841C25.1281 2.77491 26.3904 4.2049 27.754 5.56879C29.1147 6.9298 30.5447 8.19214 32.0044 9.32068C32.3614 9.59691 32.4272 10.1101 32.1509 10.4674C31.99 10.6756 31.7483 10.7848 31.5036 10.7848Z" fill="#FF725E"/>
<path id="Vector_7" d="M59.6778 54H2.43658C1.98504 54 1.61908 53.634 1.61908 53.1825C1.61908 52.7309 1.98504 52.365 2.43658 52.365H59.6778C60.1293 52.365 60.4953 52.7309 60.4953 53.1825C60.4953 53.634 60.1293 54 59.6778 54Z" fill="#B4BEC1"/>
<path id="Vector_8" d="M43.9626 54H37.7735C37.322 54 36.956 53.634 36.956 53.1825V32.0714C36.956 31.6199 37.322 31.2539 37.7735 31.2539H43.9626C44.4141 31.2539 44.7801 31.6199 44.7801 32.0714V53.1825C44.7801 53.634 44.4141 54 43.9626 54ZM38.591 52.365H43.1451V32.8889H38.591V52.365Z" fill="#B4BEC1"/>
<path id="Vector_9" d="M31.7782 54.0001H25.5888C25.1373 54.0001 24.7713 53.6342 24.7713 53.1826V38.2067C24.7713 37.7551 25.1373 37.3892 25.5888 37.3892H31.7782C32.2297 37.3892 32.5957 37.7551 32.5957 38.2067V53.1826C32.5957 53.6342 32.2297 54.0001 31.7782 54.0001ZM26.4063 52.3651H30.9607V39.0242H26.4063V52.3651Z" fill="#B4BEC1"/>
<path id="Vector_10" d="M19.5936 54H13.4042C12.9527 54 12.5867 53.6341 12.5867 53.1825V42.6268C12.5867 42.1753 12.9527 41.8093 13.4042 41.8093H19.5936C20.0452 41.8093 20.4111 42.1753 20.4111 42.6268V53.1825C20.4111 53.6341 20.0452 54 19.5936 54ZM14.2217 52.365H18.7761V43.4443H14.2217V52.365Z" fill="#B4BEC1"/>
<path id="Vector_11" d="M55.7612 53.9997H50.35C49.8984 53.9997 49.5325 53.6337 49.5325 53.1822V25.0128H46.5323C46.2123 25.0128 45.9217 24.826 45.7889 24.5351C45.6557 24.2439 45.7049 23.9022 45.9144 23.6601L52.4375 16.1257C52.7479 15.7674 53.3629 15.7674 53.6733 16.1257L60.19 23.6607C60.3992 23.9028 60.4481 24.2445 60.3149 24.5354C60.1817 24.8263 59.8915 25.0128 59.5715 25.0128H56.5787V53.1822C56.5787 53.6337 56.2127 53.9997 55.7612 53.9997ZM51.1675 52.3647H54.9437V24.1953C54.9437 23.7438 55.3096 23.3778 55.7612 23.3778H57.7851L53.0554 17.9098L48.3216 23.3778H50.35C50.8015 23.3778 51.1675 23.7438 51.1675 24.1953V52.3647Z" fill="#B4BEC1"/>
<path id="Vector_12" d="M35.0681 17.8581C34.8589 17.8581 34.6497 17.7782 34.4901 17.6186C34.1707 17.2992 34.1707 16.7819 34.4901 16.4626L37.4931 13.4595C37.6464 13.3062 37.8543 13.22 38.0711 13.22H45.5698L53.7633 5.02612C54.0827 4.70679 54.6 4.70679 54.9193 5.02612C55.2387 5.34514 55.2387 5.86279 54.9193 6.18213L46.4863 14.6155C46.333 14.7688 46.1251 14.855 45.9083 14.855H38.4096L35.6461 17.6186C35.4864 17.7782 35.2772 17.8581 35.0681 17.8581Z" fill="#B4BEC1"/>
<path id="Vector_13" d="M31.8437 21.0822C31.6345 21.0822 31.425 21.0024 31.2653 20.8427C30.9463 20.5234 30.9463 20.0057 31.2657 19.6864L31.9286 19.0238C32.2479 18.7051 32.7656 18.7048 33.0849 19.0241C33.4039 19.3434 33.4039 19.8611 33.0846 20.1804L32.4217 20.843C32.262 21.0024 32.0528 21.0822 31.8437 21.0822Z" fill="#B4BEC1"/>
</g>
</svg>
