<svg width="54" height="54" viewBox="0 0 54 54" fill="none" xmlns="http://www.w3.org/2000/svg">
<path d="M29.0355 27.3675C29.8982 26.9159 30.5845 26.1881 30.9848 25.3006C31.3851 24.413 31.4763 23.4168 31.2437 22.4713C31.0112 21.5258 30.4684 20.6855 29.7021 20.0848C28.9358 19.4841 27.9902 19.1577 27.0165 19.1577C26.0429 19.1577 25.0973 19.4841 24.331 20.0848C23.5647 20.6855 23.0219 21.5258 22.7893 22.4713C22.5568 23.4168 22.648 24.413 23.0483 25.3006C23.4486 26.1881 24.1349 26.9159 24.9975 27.3675C23.8075 27.7863 22.7765 28.5638 22.0466 29.5929C21.3167 30.622 20.9239 31.852 20.9221 33.1137C20.9221 33.3446 21.0139 33.566 21.1771 33.7293C21.3404 33.8926 21.5619 33.9843 21.7928 33.9843H32.2403C32.4712 33.9843 32.6927 33.8926 32.856 33.7293C33.0192 33.566 33.111 33.3446 33.111 33.1137C33.1092 31.852 32.7164 30.622 31.9865 29.5929C31.2566 28.5638 30.2256 27.7863 29.0355 27.3675ZM27.0165 20.9248C27.5331 20.9248 28.0381 21.078 28.4676 21.365C28.8972 21.652 29.2319 22.0599 29.4296 22.5372C29.6273 23.0145 29.679 23.5396 29.5782 24.0463C29.4775 24.5529 29.2287 25.0183 28.8634 25.3836C28.4981 25.7489 28.0328 25.9976 27.5261 26.0984C27.0194 26.1992 26.4943 26.1475 26.017 25.9498C25.5398 25.7521 25.1318 25.4173 24.8448 24.9878C24.5578 24.5583 24.4046 24.0533 24.4046 23.5367C24.4046 22.844 24.6798 22.1797 25.1697 21.6898C25.6595 21.2 26.3238 20.9248 27.0165 20.9248ZM22.7505 32.243C22.9503 31.259 23.4842 30.3742 24.2616 29.7388C25.0391 29.1033 26.0124 28.7561 27.0165 28.7561C28.0207 28.7561 28.994 29.1033 29.7714 29.7388C30.5489 30.3742 31.0828 31.259 31.2826 32.243H22.7505Z" fill="#FF725E"/>
<path d="M45.2998 36.5961C43.2919 36.5945 41.3457 37.2903 39.7939 38.5646L35.6027 34.3734C37.2591 32.4447 38.214 30.0123 38.3121 27.4719L47.203 27.1428C47.4509 27.9465 47.9833 28.6323 48.7003 29.0718C49.4174 29.5113 50.2701 29.6744 51.0988 29.5306C51.9275 29.3868 52.6754 28.9459 53.2024 28.2904C53.7295 27.6349 53.9996 26.8099 53.9622 25.9696C53.9248 25.1294 53.5825 24.3316 52.9993 23.7255C52.4161 23.1195 51.632 22.7468 50.7938 22.6771C49.9557 22.6075 49.1208 22.8457 48.4456 23.3471C47.7704 23.8486 47.3011 24.579 47.1255 25.4015L38.2555 25.7297C38.0655 24.0811 37.5153 22.4944 36.6439 21.0821C35.7725 19.6698 34.6011 18.4664 33.2128 17.5571L34.8766 14.5326C36.115 14.9648 37.4706 14.916 38.6747 14.3959C39.8788 13.8757 40.8436 12.9221 41.3777 11.7241C41.9119 10.5261 41.9765 9.17121 41.5587 7.92786C41.1408 6.68451 40.2712 5.64351 39.122 5.01119C37.9728 4.37887 36.6279 4.20138 35.354 4.51391C34.0802 4.82644 32.9702 5.60616 32.2441 6.69855C31.518 7.79093 31.2289 9.11623 31.4339 10.4118C31.639 11.7073 32.3233 12.8785 33.3513 13.6933L31.6866 16.7196C29.729 15.8231 27.555 15.5079 25.4233 15.8113C23.2917 16.1148 21.2921 17.0241 19.6623 18.4313L15.4711 14.24C16.8873 12.508 17.5836 10.2979 17.416 8.06689C17.2483 5.83587 16.2296 3.75463 14.5705 2.25365C12.9114 0.752677 10.7389 -0.0531948 8.50227 0.00272733C6.26567 0.0586495 4.13611 0.972087 2.5541 2.5541C0.972087 4.13611 0.0586495 6.26567 0.00272733 8.50227C-0.0531948 10.7389 0.752677 12.9114 2.25365 14.5705C3.75463 16.2296 5.83587 17.2483 8.06689 17.416C10.2979 17.5836 12.508 16.8873 14.24 15.4711L18.4313 19.6623C17.3222 20.9428 16.5181 22.4582 16.0797 24.0945C15.6413 25.7308 15.58 27.4452 15.9003 29.1087L8.25358 31.1668C7.76887 30.2263 6.95575 29.4963 5.96851 29.1156C4.98127 28.7348 3.8886 28.7297 2.89783 29.1012C1.90706 29.4726 1.08712 30.1949 0.5936 31.1309C0.100077 32.0669 -0.0326951 33.1515 0.220477 34.1788C0.473649 35.2062 1.09515 36.1049 1.96705 36.7045C2.83896 37.304 3.9006 37.5626 4.95053 37.4312C6.00047 37.2998 6.96565 36.7876 7.66294 35.9917C8.36023 35.1958 8.7411 34.1717 8.7333 33.1136C8.7333 33.0265 8.71241 32.9394 8.70631 32.8524L16.3583 30.7925C17.2392 33.2658 18.9494 35.3577 21.1981 36.7128L19.355 40.392C17.8907 39.9017 16.2951 39.9841 14.8892 40.6229C13.4833 41.2616 12.3715 42.4091 11.7777 43.8346C11.1838 45.26 11.152 46.8575 11.6885 48.3055C12.225 49.7534 13.2902 50.9444 14.6695 51.6387C16.0488 52.333 17.6399 52.479 19.1225 52.0474C20.6052 51.6158 21.8693 50.6386 22.6604 49.3125C23.4516 47.9864 23.711 46.4098 23.3866 44.9001C23.0621 43.3903 22.1778 42.0596 20.9117 41.1756L22.7505 37.4963C24.6732 38.2846 26.7767 38.5251 28.8277 38.1912C30.8788 37.8572 32.7973 36.9619 34.3708 35.6044L38.562 39.7957C37.3127 41.3263 36.6214 43.2365 36.6019 45.2122C36.5824 47.1878 37.2358 49.1113 38.4547 50.6663C39.6735 52.2213 41.3852 53.3152 43.3084 53.7682C45.2315 54.2212 47.2515 54.0062 49.0363 53.1587C50.821 52.3112 52.2642 50.8816 53.1285 49.1049C53.9929 47.3283 54.2269 45.3104 53.7921 43.383C53.3573 41.4557 52.2796 39.7337 50.7362 38.5003C49.1928 37.2668 47.2755 36.5953 45.2998 36.5961ZM50.5236 24.4073C50.868 24.4073 51.2046 24.5094 51.491 24.7007C51.7773 24.892 52.0005 25.164 52.1323 25.4822C52.2641 25.8003 52.2986 26.1505 52.2314 26.4882C52.1642 26.826 51.9983 27.1363 51.7548 27.3798C51.5113 27.6233 51.201 27.7891 50.8633 27.8563C50.5255 27.9235 50.1754 27.889 49.8572 27.7572C49.539 27.6254 49.2671 27.4023 49.0758 27.1159C48.8844 26.8296 48.7823 26.4929 48.7823 26.1485C48.7823 25.6867 48.9658 25.2438 49.2923 24.9173C49.6189 24.5907 50.0618 24.4073 50.5236 24.4073ZM36.5935 6.12402C37.2823 6.12402 37.9556 6.32827 38.5283 6.71093C39.101 7.0936 39.5473 7.63749 39.8109 8.27384C40.0745 8.91019 40.1435 9.61041 40.0091 10.286C39.8747 10.9615 39.543 11.582 39.056 12.0691C38.569 12.5561 37.9484 12.8878 37.2729 13.0222C36.5973 13.1565 35.8971 13.0876 35.2608 12.824C34.6244 12.5604 34.0805 12.114 33.6979 11.5413C33.3152 10.9686 33.111 10.2953 33.111 9.60654C33.111 8.68292 33.4779 7.79713 34.131 7.14403C34.7841 6.49093 35.6699 6.12402 36.5935 6.12402ZM4.38015 35.7255C3.86357 35.7255 3.35858 35.5723 2.92906 35.2853C2.49954 34.9983 2.16476 34.5904 1.96708 34.1131C1.76939 33.6358 1.71766 33.1107 1.81844 32.604C1.91922 32.0974 2.16798 31.632 2.53326 31.2667C2.89854 30.9014 3.36394 30.6526 3.87059 30.5519C4.37725 30.4511 4.90242 30.5028 5.37968 30.7005C5.85694 30.8982 6.26486 31.233 6.55186 31.6625C6.83886 32.092 6.99204 32.597 6.99204 33.1136C6.99204 33.8063 6.71686 34.4706 6.22704 34.9605C5.73721 35.4503 5.07287 35.7255 4.38015 35.7255ZM21.7928 46.173C21.7928 47.034 21.5375 47.8756 21.0591 48.5915C20.5808 49.3074 19.9009 49.8653 19.1055 50.1948C18.3101 50.5243 17.4348 50.6105 16.5903 50.4425C15.7459 50.2746 14.9703 49.86 14.3615 49.2512C13.7527 48.6424 13.3381 47.8667 13.1701 47.0223C13.0021 46.1779 13.0883 45.3026 13.4178 44.5071C13.7473 43.7117 14.3053 43.0318 15.0211 42.5535C15.737 42.0752 16.5786 41.8199 17.4396 41.8199C18.5937 41.8213 19.7001 42.2803 20.5162 43.0964C21.3323 43.9125 21.7914 45.0189 21.7928 46.173ZM1.76826 8.73591C1.76555 7.60423 2.03864 6.48894 2.5639 5.48653C3.08916 4.48413 3.85076 3.62481 4.7828 2.98293C5.71485 2.34106 6.78926 1.93596 7.91307 1.80269C9.03688 1.66942 10.1762 1.812 11.2326 2.21808C12.2889 2.62416 13.2303 3.28152 13.9755 4.13327C14.7206 4.98503 15.247 6.00552 15.509 7.10644C15.7711 8.20737 15.7609 9.35557 15.4794 10.4517C15.1979 11.5478 14.6536 12.5588 13.8935 13.3973C13.9337 13.2994 13.9553 13.1949 13.9571 13.0891C13.9593 12.4028 13.8253 11.7229 13.5629 11.0888C13.3004 10.4547 12.9148 9.87898 12.4283 9.39498C12.0813 9.04806 11.6874 8.75148 11.2581 8.5139C11.7287 8.02056 12.0441 7.39995 12.1652 6.72903C12.2863 6.05811 12.2079 5.36639 11.9395 4.73965C11.6712 4.1129 11.2248 3.57871 10.6557 3.20329C10.0866 2.82788 9.41986 2.62777 8.73809 2.62777C8.05632 2.62777 7.38955 2.82788 6.82045 3.20329C6.25136 3.57871 5.80497 4.1129 5.53664 4.73965C5.26831 5.36639 5.18985 6.05811 5.31097 6.72903C5.4321 7.39995 5.7475 8.02056 6.21805 8.5139C5.39837 8.96422 4.71461 9.62634 4.23817 10.4311C3.76173 11.2359 3.51009 12.1538 3.50952 13.0891C3.51129 13.1938 3.53194 13.2973 3.57046 13.3947C2.41157 12.1197 1.76908 10.4588 1.76826 8.73591ZM8.7333 7.86528C8.38891 7.86528 8.05226 7.76316 7.76591 7.57183C7.47956 7.3805 7.25638 7.10855 7.12459 6.79037C6.99279 6.4722 6.95831 6.12209 7.0255 5.78432C7.09269 5.44655 7.25853 5.13628 7.50205 4.89276C7.74556 4.64924 8.05583 4.48341 8.3936 4.41622C8.73137 4.34903 9.08148 4.38351 9.39965 4.51531C9.71783 4.6471 9.98978 4.87028 10.1811 5.15663C10.3724 5.44298 10.4746 5.77963 10.4746 6.12402C10.4746 6.58583 10.2911 7.02873 9.96456 7.35528C9.63801 7.68183 9.19511 7.86528 8.7333 7.86528ZM8.7333 9.60654C9.50537 9.60654 10.2555 9.8631 10.8659 10.3359C11.4763 10.8087 11.9122 11.4709 12.1053 12.2184H5.36048C5.55448 11.4713 5.99081 10.8095 6.60115 10.3369C7.21149 9.86425 7.96136 9.60739 8.7333 9.60654ZM4.07543 13.8988C4.17246 13.9374 4.27572 13.958 4.38015 13.9597H13.0865C13.1925 13.9582 13.2973 13.937 13.3955 13.897C12.1212 15.0563 10.4604 15.6988 8.73766 15.6988C7.0149 15.6988 5.35407 15.0563 4.07978 13.897L4.07543 13.8988ZM17.4396 27.0192C17.4396 25.125 18.0013 23.2734 19.0536 21.6985C20.1059 20.1236 21.6017 18.8961 23.3516 18.1712C25.1016 17.4464 27.0272 17.2567 28.8849 17.6262C30.7427 17.9958 32.4491 18.9079 33.7885 20.2472C35.1278 21.5866 36.0399 23.293 36.4095 25.1508C36.779 27.0085 36.5893 28.9341 35.8645 30.6841C35.1396 32.434 33.9121 33.9298 32.3372 34.9821C30.7623 36.0344 28.9107 36.5961 27.0165 36.5961C24.4775 36.5931 22.0433 35.5831 20.2479 33.7878C18.4526 31.9924 17.4426 29.5582 17.4396 27.0192ZM40.6419 50.4652C40.7389 50.5039 40.8422 50.5245 40.9466 50.5262H49.6529C49.759 50.5247 49.8638 50.5035 49.962 50.4635C48.6877 51.6228 47.0269 52.2653 45.3041 52.2653C43.5814 52.2653 41.9206 51.6228 40.6463 50.4635L40.6419 50.4652ZM45.2998 44.4318C44.9554 44.4318 44.6187 44.3296 44.3324 44.1383C44.046 43.947 43.8229 43.675 43.6911 43.3569C43.5593 43.0387 43.5248 42.6886 43.592 42.3508C43.6592 42.013 43.825 41.7028 44.0685 41.4592C44.312 41.2157 44.6223 41.0499 44.9601 40.9827C45.2979 40.9155 45.648 40.95 45.9661 41.0818C46.2843 41.2136 46.5563 41.4368 46.7476 41.7231C46.9389 42.0095 47.041 42.3461 47.041 42.6905C47.041 43.1523 46.8576 43.5952 46.531 43.9218C46.2045 44.2483 45.7616 44.4318 45.2998 44.4318ZM45.2998 46.173C46.0718 46.173 46.822 46.4296 47.4324 46.9024C48.0428 47.3752 48.4787 48.0374 48.6717 48.7849H41.927C42.121 48.0377 42.5573 47.376 43.1676 46.9034C43.778 46.4307 44.5278 46.1739 45.2998 46.173ZM50.4591 49.9637C50.4996 49.8659 50.5215 49.7614 50.5236 49.6555C50.5258 48.9693 50.3918 48.2894 50.1293 47.6553C49.8669 47.0212 49.4813 46.4455 48.9947 45.9615C48.6478 45.6145 48.2539 45.318 47.8246 45.0804C48.2952 44.587 48.6106 43.9664 48.7317 43.2955C48.8528 42.6246 48.7744 41.9329 48.506 41.3061C48.2377 40.6794 47.7913 40.1452 47.2222 39.7698C46.6531 39.3944 45.9863 39.1942 45.3046 39.1942C44.6228 39.1942 43.956 39.3944 43.3869 39.7698C42.8178 40.1452 42.3714 40.6794 42.1031 41.3061C41.8348 41.9329 41.7563 42.6246 41.8775 43.2955C41.9986 43.9664 42.314 44.587 42.7845 45.0804C41.9648 45.5307 41.2811 46.1928 40.8047 46.9976C40.3282 47.8024 40.0766 48.7203 40.076 49.6555C40.0778 49.7602 40.0984 49.8638 40.1369 49.9611C39.2316 48.9619 38.6358 47.7214 38.4217 46.3902C38.2077 45.0589 38.3847 43.6941 38.9312 42.4615C39.4777 41.2289 40.3703 40.1814 41.5005 39.4461C42.6308 38.7109 43.9501 38.3195 45.2985 38.3195C46.6468 38.3195 47.9662 38.7109 49.0964 39.4461C50.2267 40.1814 51.1192 41.2289 51.6658 42.4615C52.2123 43.6941 52.3892 45.0589 52.1752 46.3902C51.9612 47.7214 51.3653 48.9619 50.46 49.9611L50.4591 49.9637Z" fill="#B4BEC1"/>
</svg>
