<svg width="63" height="70" viewBox="0 0 63 70" fill="none" xmlns="http://www.w3.org/2000/svg">
<path d="M62.6052 60.3203C62.5354 57.4769 61.5533 54.7312 59.8039 52.4885C58.0544 50.2458 55.6303 48.625 52.8894 47.8652C51.3643 47.4962 49.808 47.2712 48.2409 47.1931C47.5404 47.1384 46.5763 47.0515 45.2911 46.9558C45.0138 46.9317 44.7787 46.9164 43.9124 46.8338L43.4941 46.7791C42.9618 46.7265 42.4353 46.6256 41.9212 46.4778C41.2984 46.2927 40.7654 45.8849 40.4239 45.3321C40.3763 45.2566 40.3282 45.1812 40.285 45.1035C40.1237 44.8107 40.0174 44.4908 39.9716 44.1596L39.4434 40.0307C41.15 38.6543 42.4786 36.8665 43.3043 34.8354C43.8623 33.3207 44.2756 31.7566 44.5386 30.164C44.5643 30.0322 44.5933 29.9031 44.6184 29.7713C44.866 29.815 45.1168 29.8381 45.3682 29.8402C46.5514 29.8458 47.6928 29.4028 48.5624 28.6005C49.4321 27.7981 49.9654 26.6961 50.0549 25.5162C50.1444 24.3364 49.7835 23.1664 49.0449 22.2421C48.3062 21.3177 47.2447 20.7076 46.0742 20.5346C46.9279 19.2377 47.4083 17.731 47.4627 16.1793L49.7875 12.7608C50.2603 12.0604 50.5269 11.2414 50.5569 10.3969C50.5869 9.5524 50.379 8.71648 49.957 7.98438L48.2141 4.98313C47.3321 3.46937 46.0691 2.2129 44.5508 1.33867C43.0325 0.464447 41.3118 0.00292293 39.5598 0L23.0573 0C21.3054 0.00292188 19.5848 0.464387 18.0665 1.33851C16.5482 2.21263 15.2852 3.46896 14.403 4.98258L12.6602 7.98711C12.2389 8.71902 12.0316 9.55446 12.0618 10.3984C12.092 11.2423 12.3584 12.0608 12.8308 12.7608L15.1555 16.1793C15.2101 17.7232 15.6861 19.2228 16.532 20.5155C15.351 20.6641 14.271 21.2573 13.512 22.1743C12.753 23.0913 12.372 24.263 12.4466 25.451C12.5212 26.639 13.0457 27.754 13.9134 28.5688C14.7812 29.3836 15.9268 29.8371 17.1172 29.837C17.4133 29.8351 17.7085 29.8047 17.9987 29.7462C18.0266 29.8851 18.0562 30.0196 18.0835 30.1607C18.3466 31.7546 18.7601 33.32 19.3184 34.8359C20.1435 36.8671 21.4718 38.6549 23.1782 40.0312L22.6521 44.1509C22.5882 44.567 22.4308 44.9632 22.1916 45.3097C21.8019 45.8759 21.2403 46.3015 20.5898 46.5238C20.1379 46.6808 19.6634 46.7631 19.1849 46.7677C18.6927 46.8125 18.1349 46.877 17.1937 46.9432C16.8197 46.9702 16.4456 46.9953 16.0716 47.0187C13.9338 47.0867 11.8084 47.3707 9.72781 47.8663C7.4121 48.503 5.31475 49.7613 3.66297 51.5047C2.10123 53.1476 0.982017 55.1601 0.410156 57.3535C0.13777 58.418 -2.4213e-05 59.5125 1.56443e-07 60.6113V69.043C-7.17334e-05 69.1687 0.0246336 69.2932 0.0727034 69.4093C0.120773 69.5254 0.191265 69.631 0.280148 69.7199C0.369031 69.8087 0.474562 69.8792 0.590706 69.9273C0.706851 69.9754 0.831332 70.0001 0.957031 70H61.6602C61.7859 70.0001 61.9103 69.9754 62.0265 69.9273C62.1426 69.8792 62.2482 69.8087 62.337 69.7199C62.4259 69.631 62.4964 69.5254 62.5445 69.4093C62.5926 69.2932 62.6173 69.1687 62.6172 69.043V60.6113C62.6172 60.5139 62.6073 60.4188 62.6052 60.3203ZM59.3266 55.2229C60.0214 56.5126 60.463 57.9234 60.6277 59.3791H56.875C56.6937 59.3791 56.5198 59.3071 56.3916 59.1789C56.2634 59.0507 56.1914 58.8769 56.1914 58.6955C56.1905 58.0069 55.9166 57.3467 55.4296 56.8597C54.9426 56.3727 54.2824 56.0988 53.5938 56.0979H52.2605C52.0792 56.0977 51.9054 56.0257 51.7773 55.8975C51.6491 55.7693 51.577 55.5956 51.5769 55.4143V55.3459C51.5772 55.1647 51.6493 54.991 51.7774 54.8629C51.9056 54.7347 52.0793 54.6626 52.2605 54.6623H58.9969C59.1112 54.8483 59.2233 55.0337 59.3266 55.2245V55.2229ZM43.5504 48.7151L38.0565 57.1687L33.1095 54.9024L41.8162 48.4356C42.2879 48.5419 42.7649 48.6226 43.2452 48.6773L43.5504 48.7151ZM22.6762 47.5431C22.9277 47.3508 23.1603 47.1349 23.3707 46.8984L24.185 47.0624C25.1694 47.2637 26.1576 47.413 27.1469 47.5305C28.5279 47.6978 29.9175 47.7834 31.3086 47.787C32.7394 47.7827 34.1687 47.6914 35.5884 47.5136C36.5384 47.3977 37.4866 47.2544 38.4322 47.0608L39.2115 46.9022C39.4002 47.1276 39.6107 47.3338 39.8398 47.518L36.1512 50.2578L31.2397 53.9055L28.3155 51.7344L22.6762 47.5431ZM43.5258 20.6216C42.2959 21.8003 40.6602 22.4615 38.9566 22.4684H23.6605C22.7219 22.4644 21.7947 22.2616 20.9401 21.8732C20.0855 21.4849 19.3229 20.9198 18.7026 20.2152C17.8572 19.26 17.3079 18.0794 17.1216 16.8175H45.4956C45.3093 18.0794 44.76 19.26 43.9146 20.2152C43.7905 20.3569 43.6603 20.492 43.5258 20.6216ZM48.1305 25.1562C48.1296 25.8899 47.8378 26.5932 47.319 27.112C46.8003 27.6307 46.0969 27.9226 45.3633 27.9234C45.2444 27.9234 45.1256 27.9152 45.0078 27.8988C45.3857 25.9793 45.8686 24.6367 45.9473 22.4514C46.5652 22.5855 47.1186 22.927 47.5157 23.419C47.9129 23.911 48.1298 24.524 48.1305 25.1562ZM14.315 8.94797L16.0584 5.94344C16.7719 4.71902 17.7934 3.70272 19.0215 2.99562C20.2495 2.28852 21.6413 1.91526 23.0584 1.91297H39.5598C40.977 1.91526 42.3689 2.28858 43.5969 2.99578C44.825 3.70299 45.8465 4.71943 46.5598 5.94398L48.3033 8.94742C48.5443 9.36676 48.6629 9.84527 48.6456 10.3286C48.6283 10.812 48.4758 11.2808 48.2054 11.6818L46.0179 14.9007H16.6015L14.414 11.6818C14.1436 11.2809 13.9909 10.8123 13.9734 10.329C13.9559 9.84581 14.0743 9.36734 14.315 8.94797ZM17.1172 27.9245C16.4222 27.9246 15.7527 27.6631 15.2417 27.1922C14.7307 26.7212 14.4156 26.0752 14.359 25.3826C14.3025 24.6899 14.5086 24.0014 14.9364 23.4538C15.3642 22.9061 15.9825 22.5395 16.6682 22.4268C16.6102 23.5654 17.2905 26.4819 17.6045 27.8802C17.4437 27.9093 17.2806 27.9235 17.1172 27.9229V27.9245ZM21.0919 34.1162C20.4323 32.4133 20.1266 30.5709 19.6585 28.3084L19.2177 26.2948C18.8814 24.5071 18.8092 25.0545 18.5943 22.7095C20.0599 23.7964 21.8359 24.3834 23.6605 24.3841H29.9523L29.5898 27.0484C29.5497 27.3154 29.5677 27.5878 29.6426 27.8472C29.7175 28.1065 29.8474 28.3466 30.0235 28.5512C30.1997 28.7557 30.4179 28.9199 30.6633 29.0324C30.9086 29.1449 31.1754 29.2031 31.4453 29.2031H32.5155C32.7694 29.2031 33.0128 29.1023 33.1923 28.9228C33.3717 28.7433 33.4726 28.4999 33.4726 28.2461C33.4726 27.9923 33.3717 27.7488 33.1923 27.5694C33.0128 27.3899 32.7694 27.2891 32.5155 27.2891L31.4847 27.318L31.8839 24.3813H38.9566C40.7778 24.3629 42.5481 23.778 44.0218 22.7079C44.1787 22.7795 43.0921 27.8009 42.9587 28.3062C42.9587 28.3062 42.9587 28.3106 42.9472 28.3609C42.6475 29.7538 42.2133 32.3695 41.5253 34.1102C40.774 35.9617 39.5329 37.5737 37.9351 38.7734C36.011 40.1826 33.6934 40.9529 31.3086 40.9757C28.9246 40.9416 26.6096 40.1712 24.6805 38.7702C23.0841 37.5726 21.8436 35.9633 21.0919 34.1146V34.1162ZM27.9103 42.4337C29.0184 42.7331 30.1608 42.8868 31.3086 42.8909C33.5306 42.8678 35.7128 42.299 37.6633 41.2344L38.0674 44.3991C38.1 44.6554 38.1549 44.9083 38.2315 45.1549L38.0472 45.1927C33.6002 46.107 29.0137 46.107 24.5667 45.1927L24.3748 45.1533C24.4541 44.9079 24.5121 44.6561 24.5481 44.4008L24.9523 41.2344C25.8847 41.7554 26.8783 42.1582 27.9103 42.4337ZM19.2648 48.6806C19.7575 48.6699 20.2473 48.6031 20.7249 48.4816L23.112 50.2545L29.3699 54.903L24.4234 57.1687L18.9345 48.7162L19.2648 48.6806ZM2.7743 56.315C3.25388 55.1669 3.9143 54.1031 4.73047 53.1639H6.32187C6.37849 53.1639 6.4328 53.1864 6.47288 53.2263C6.51297 53.2663 6.53556 53.3206 6.5357 53.3772C6.53686 53.9412 6.7614 54.4819 7.16019 54.8807C7.55898 55.2796 8.09955 55.5043 8.66359 55.5056H12.9484C12.9764 55.5056 13.0042 55.5112 13.0301 55.5219C13.056 55.5327 13.0796 55.5484 13.0994 55.5683C13.1192 55.5882 13.1349 55.6117 13.1456 55.6377C13.1562 55.6636 13.1617 55.6914 13.1616 55.7195V56.3855C13.1617 56.4136 13.1563 56.4414 13.1456 56.4674C13.1349 56.4934 13.1192 56.517 13.0994 56.5369C13.0796 56.5568 13.0561 56.5726 13.0301 56.5834C13.0042 56.5942 12.9764 56.5998 12.9484 56.5999H2.66328C2.69992 56.5048 2.73547 56.4091 2.7743 56.315ZM1.91406 60.6113C1.91627 59.9078 1.98475 59.2062 2.11859 58.5156H12.9467C13.5107 58.5142 14.0511 58.2894 14.4498 57.8906C14.8484 57.4917 15.0729 56.9511 15.0741 56.3872V55.7211C15.0726 55.1577 14.8483 54.6178 14.4502 54.2192C14.052 53.8206 13.5123 53.5958 12.9489 53.5938H8.66414C8.63557 53.5938 8.60727 53.5882 8.58091 53.5772C8.55455 53.5662 8.53065 53.55 8.51063 53.5296C8.49061 53.5092 8.47486 53.4851 8.46431 53.4585C8.45377 53.432 8.44864 53.4036 8.44922 53.375C8.44816 52.8962 8.28563 52.4317 7.98792 52.0567C7.6902 51.6817 7.2747 51.418 6.80859 51.3084C7.85186 50.5866 9.0097 50.0465 10.2331 49.7109C12.1886 49.2492 14.1857 48.9864 16.1941 48.9267L16.765 48.8884L23.2695 58.9039C23.3984 59.0927 23.5889 59.2308 23.8084 59.2944C24.028 59.3581 24.2628 59.3434 24.4727 59.2528L30.2859 56.5895V68.0859H25.1836C25.1945 68.0151 25.2018 67.9437 25.2055 67.8721V67.206C25.2042 66.6424 24.9799 66.1023 24.5816 65.7036C24.1833 65.3049 23.6433 65.08 23.0798 65.0781H18.7955C18.7388 65.0781 18.6843 65.0556 18.6442 65.0155C18.604 64.9754 18.5813 64.9211 18.5812 64.8643C18.5799 64.3004 18.3553 63.76 17.9567 63.3613C17.558 62.9625 17.0177 62.7379 16.4538 62.7364H11.7578V61.0455C11.7578 60.7916 11.657 60.5482 11.4775 60.3687C11.298 60.1893 11.0546 60.0884 10.8008 60.0884C10.547 60.0884 10.3035 60.1893 10.1241 60.3687C9.94458 60.5482 9.84375 60.7916 9.84375 61.0455V68.0859H1.91406V60.6113ZM11.7578 68.0859V64.6499H16.4538C16.5104 64.6501 16.5647 64.6727 16.6047 64.7127C16.6447 64.7528 16.6671 64.8071 16.6671 64.8638C16.6684 65.4278 16.8931 65.9684 17.292 66.3671C17.6909 66.7659 18.2315 66.9905 18.7955 66.9916H23.0798C23.1365 66.9918 23.1909 67.0144 23.231 67.0546C23.2711 67.0948 23.2936 67.1493 23.2936 67.206V67.8721C23.2936 67.9288 23.2711 67.9832 23.231 68.0233C23.1909 68.0634 23.1365 68.0859 23.0798 68.0859H11.7578ZM39.0009 68.0859V66.377C39.0012 66.1867 39.077 66.0042 39.2116 65.8697C39.3462 65.7352 39.5287 65.6596 39.719 65.6595H39.7852C40.4829 65.6584 41.1517 65.3808 41.645 64.8874C42.1383 64.394 42.4158 63.7251 42.4167 63.0273C42.417 62.837 42.4928 62.6546 42.6274 62.5201C42.762 62.3856 42.9445 62.31 43.1348 62.3098H43.2031C43.3934 62.31 43.5758 62.3856 43.7103 62.5202C43.8448 62.6547 43.9205 62.8371 43.9206 63.0273V68.0859H39.0009ZM52.7734 68.0859V61.0449C52.7734 60.7911 52.6726 60.5477 52.4931 60.3682C52.3136 60.1887 52.0702 60.0879 51.8164 60.0879C51.5626 60.0879 51.3192 60.1887 51.1397 60.3682C50.9602 60.5477 50.8594 60.7911 50.8594 61.0449V68.0859H45.8347V63.0273C45.8338 62.3297 45.5563 61.6608 45.063 61.1675C44.5696 60.6742 43.9008 60.3967 43.2031 60.3958H43.1348C42.437 60.3967 41.7681 60.6742 41.2747 61.1675C40.7813 61.6608 40.5037 62.3296 40.5027 63.0273C40.5025 63.2176 40.4269 63.4001 40.2924 63.5347C40.1579 63.6693 39.9755 63.7451 39.7852 63.7454H39.719C39.0213 63.7463 38.3524 64.0238 37.859 64.5171C37.3655 65.0104 37.0879 65.6792 37.0869 66.377V68.0859H32.1967V56.5895L38.0105 59.2528C38.2197 59.3474 38.4558 59.3643 38.6763 59.3004C38.8969 59.2366 39.0874 59.0962 39.2137 58.9045L45.7084 48.9098H45.7537C46.2459 48.948 46.7321 48.9852 47.2139 49.0273C47.5037 49.053 47.7941 49.076 48.0856 49.0995C49.5343 49.169 50.9733 49.3734 52.3841 49.7098C54.3305 50.2449 56.097 51.2938 57.4984 52.7466H52.2605C51.5718 52.7475 50.9116 53.0215 50.4246 53.5084C49.9376 53.9954 49.6637 54.6556 49.6628 55.3443V55.4127C49.6637 56.1013 49.9376 56.7616 50.4246 57.2485C50.9116 57.7355 51.5718 58.0094 52.2605 58.0103H53.5938C53.775 58.0106 53.9487 58.0827 54.0768 58.2109C54.2049 58.339 54.2771 58.5127 54.2773 58.6939C54.2782 59.3826 54.5522 60.0428 55.0391 60.5298C55.5261 61.0167 56.1863 61.2907 56.875 61.2916H60.7031V68.0859H52.7734Z" fill="white"/>
<path d="M31.2402 34.7265C32.0605 34.7576 32.8777 34.6102 33.6354 34.2946C34.3932 33.9789 35.0733 33.5025 35.6289 32.8983C35.7088 32.8013 35.7688 32.6896 35.8054 32.5695C35.8421 32.4493 35.8548 32.3232 35.8427 32.1981C35.8306 32.0731 35.794 31.9517 35.735 31.8408C35.676 31.7299 35.5957 31.6317 35.4988 31.5519C35.4018 31.472 35.2901 31.412 35.1699 31.3754C35.0498 31.3387 34.9236 31.326 34.7986 31.3381C34.6736 31.3502 34.5522 31.3868 34.4413 31.4458C34.3304 31.5048 34.2322 31.5851 34.1523 31.682C33.774 32.065 33.3189 32.3636 32.8171 32.5584C32.3152 32.7532 31.7779 32.8398 31.2402 32.8124C30.7024 32.8396 30.1649 32.7528 29.6629 32.5577C29.161 32.3626 28.7059 32.0637 28.3276 31.6804C28.2477 31.5834 28.1496 31.5032 28.0387 31.4442C27.9278 31.3852 27.8064 31.3486 27.6813 31.3365C27.5563 31.3244 27.4301 31.337 27.31 31.3737C27.1899 31.4104 27.0781 31.4704 26.9812 31.5502C26.8842 31.6301 26.804 31.7283 26.7449 31.8392C26.6859 31.95 26.6493 32.0715 26.6373 32.1965C26.6252 32.3215 26.6378 32.4477 26.6745 32.5678C26.7112 32.688 26.7712 32.7997 26.851 32.8966C27.4066 33.5011 28.0868 33.9778 28.8446 34.2937C29.6024 34.6096 30.4198 34.7573 31.2402 34.7265Z" fill="white"/>
<path d="M27.7539 9.65623L30.7448 11.8437C30.9089 11.9638 31.1069 12.0285 31.3102 12.0285C31.5136 12.0285 31.7116 11.9638 31.8757 11.8437L34.8666 9.65623C34.9879 9.56732 35.0866 9.45107 35.1546 9.31692C35.2226 9.18276 35.2581 9.03446 35.2581 8.88404V4.57959C35.2581 4.32577 35.1573 4.08234 34.9778 3.90287C34.7984 3.72339 34.5549 3.62256 34.3011 3.62256H28.3177C28.192 3.62249 28.0676 3.64719 27.9514 3.69526C27.8353 3.74333 27.7297 3.81382 27.6409 3.90271C27.552 3.99159 27.4815 4.09712 27.4334 4.21326C27.3854 4.32941 27.3606 4.45389 27.3607 4.57959V8.88404C27.3609 9.0346 27.3967 9.18299 27.465 9.31716C27.5333 9.45133 27.6323 9.56749 27.7539 9.65623ZM29.2764 5.53662H33.3441V8.39842L31.3086 9.88756L29.2748 8.39842L29.2764 5.53662Z" fill="#842518"/>
</svg>
