<svg width="24" height="25" viewBox="0 0 24 25" fill="none" xmlns="http://www.w3.org/2000/svg">
<path d="M0 21.9286C0 23.3467 1.15329 24.5 2.57143 24.5H21.4286C22.8467 24.5 24 23.3467 24 21.9286V8.89786C24 8.55629 23.7733 8.35871 23.5607 8.288C23.3481 8.21643 23.049 8.23871 22.8437 8.51129C22.7601 8.62186 22.7143 8.75943 22.7143 8.89786V21.5C22.7143 22.4454 21.9454 23.2143 21 23.2143H3C2.05457 23.2143 1.28571 22.4454 1.28571 21.5V3.5C1.28571 2.55457 2.05457 1.78571 3 1.78571H17.1223C17.3233 1.78571 17.5153 1.68971 17.6361 1.529C17.7857 1.33014 17.8084 1.07857 17.6974 0.855714C17.5864 0.632857 17.3713 0.5 17.1223 0.5H2.57143C1.15329 0.5 0 1.65329 0 3.07143V21.9286Z" fill="#FF725E"/>
<path d="M10.8359 14.0724C10.7579 14.1624 10.6469 14.216 10.5278 14.2207C10.4082 14.2323 10.2942 14.1804 10.2098 14.0969L6.23009 10.1489C6.03337 9.95388 5.71452 9.95388 5.5178 10.1489L4.85995 10.8016C4.76652 10.8946 4.71509 11.018 4.71509 11.15C4.71509 11.282 4.76652 11.4059 4.85995 11.4984L9.90466 16.5046C10.0975 16.6966 10.3478 16.7964 10.6272 16.7862C10.8998 16.7759 11.1479 16.6559 11.3262 16.4497L23.8804 1.9173C23.9665 1.81745 24.0089 1.68973 23.9982 1.55816C23.9884 1.42659 23.9275 1.30702 23.8272 1.2213L23.1209 0.620448C22.9092 0.440448 22.5904 0.465733 22.4099 0.675305L10.8359 14.0724Z" fill="#FF725E"/>
</svg>
