<svg width="98" height="40" viewBox="0 0 98 40" fill="none" xmlns="http://www.w3.org/2000/svg">
<g clip-path="url(#clip0_1468_16827)">
<path d="M10.2152 18.4301L2.31644 13.9744L10.2152 9.46812V8.25293L0.265808 13.9491L10.2152 19.6453V18.4301Z" fill="#F8523B"/>
<path d="M87.7848 18.4301L95.6835 13.9744L87.7848 9.46812V8.25293L97.7342 13.9491L87.7848 19.6453V18.4301Z" fill="#F8523B"/>
<path d="M15.8101 12.557H18.4937C19.5316 12.557 20.3418 11.7215 20.3418 10.7089V2.86076C20.3418 1.8481 19.5063 1.01266 18.4937 1.01266H15.2278V21.443H13.8101V1.01266L12.7975 0H18.4937C20.2658 0 21.7342 1.44304 21.7342 3.21519V10.6582C21.7342 12.2785 20.4177 13.5949 18.7721 13.5949L26.6962 21.4684H24.7215L15.8101 12.557Z" fill="white"/>
<path d="M30.7468 21.4939H28.7721L27.6835 20.4053H29.6582L30.7468 21.4939Z" fill="white"/>
<path d="M25.557 20.4051H25.5063V20.3545L25.557 20.4051Z" fill="white"/>
<path d="M25.557 20.4051H25.5063V20.3545L25.557 20.4051Z" fill="white"/>
<path d="M30.9494 9.74705V15.0129H27.0759L26.038 13.9496H29.6835V9.64578C29.6835 9.0635 29.4557 8.55717 29.0759 8.17743C28.6962 7.79768 28.1645 7.56983 27.6076 7.56983C26.8481 7.56983 26.1645 7.97489 25.8101 8.60781C25.6329 8.9116 25.5316 9.26603 25.5316 9.6711V18.4053L24.2658 17.1395V9.74705C24.2658 9.3673 24.3418 8.98755 24.443 8.65844C24.6962 7.94958 25.1772 7.34198 25.8101 6.93692C26.3418 6.60781 26.9494 6.40527 27.6076 6.40527C28.5443 6.40527 29.3797 6.78502 29.9873 7.39262C30.5949 7.97489 30.9494 8.81034 30.9494 9.74705Z" fill="white"/>
<path d="M29.7088 13.9497V15.013H27.0759L26.0633 13.9497H29.7088Z" fill="white"/>
<path d="M33.8101 15.013H27.0759L26.0633 13.9497H32.7721L33.8101 15.013Z" fill="white"/>
<path d="M77.1772 14.987H70.3164L69.2785 13.8984H76.1139L77.1772 14.987Z" fill="white"/>
<path d="M73.0506 13.8986V9.59485C73.0506 9.01257 72.8228 8.48093 72.443 8.10118C72.0633 7.72143 71.557 7.46827 70.9747 7.46827C70.2152 7.46827 69.5316 7.89865 69.1772 8.50624C69.0506 8.73409 68.9494 8.98725 68.924 9.26574V18.1518C68.924 18.5569 69.0253 18.9113 69.2278 19.2151C69.6076 19.848 70.2911 20.2784 71.0759 20.2784H72.9747L73.3038 20.6328L74.038 21.4429H71.1013C70.4177 21.4429 69.7848 21.2404 69.2532 20.9113C68.9747 20.7341 68.7215 20.5316 68.519 20.2784C68.2405 19.9493 68.0126 19.5695 67.8608 19.1645C67.7342 18.81 67.6835 18.4303 67.6835 18.0505V9.69612C67.6835 9.29105 67.7595 8.93662 67.8608 8.58219C68.1139 7.84802 68.5949 7.24042 69.2278 6.83536C69.7342 6.50624 70.3671 6.30371 71.0253 6.30371C71.9367 6.30371 72.7721 6.68346 73.3797 7.29105C73.9873 7.89865 74.3671 8.75941 74.3671 9.69612V13.8986H73.0506Z" fill="white"/>
<path d="M39.481 7.46856H33.7342L32.8481 6.40527H38.5949L39.481 7.46856Z" fill="white"/>
<path d="M39.481 1.06329H37.2025C36.0886 1.06329 35.1772 1.97468 35.1772 3.06329V21.4684H33.9114V3.13924C33.9114 1.41772 35.3291 0 37.0506 0H38.5949L39.481 1.06329Z" fill="white"/>
<path d="M53.8354 7.46849H52.2911C51.1772 7.46849 50.2658 8.37988 50.2658 9.46849V21.4685H49V9.51912C49 7.7976 50.4177 6.37988 52.1392 6.37988H52.9241L53.8354 7.46849Z" fill="white"/>
<path d="M44.6962 7.39262C44.0886 6.78502 43.2278 6.40527 42.3164 6.40527C40.443 6.40527 38.9493 7.92426 38.9493 9.77236V18.1268C38.9493 19.9749 40.4683 21.4939 42.3164 21.4939C44.1645 21.4939 45.6835 19.9749 45.6835 18.1268V9.77236C45.6835 8.83565 45.3038 8.00021 44.6962 7.39262ZM44.4177 18.4559C44.4177 19.5192 43.5569 20.4053 42.4683 20.4053H42.1392C41.0506 20.4053 40.1898 19.5445 40.1898 18.4559V9.41793C40.1898 8.35464 41.0506 7.46856 42.1392 7.46856H42.4683C43.5569 7.46856 44.4177 8.32932 44.4177 9.41793V18.4559Z" fill="white"/>
<path d="M60.3418 9.26624V21.4941H59V7.9751L60.3418 9.26624Z" fill="white"/>
<path d="M64.6203 9.72173V21.4939H63.2025V9.41793C63.2025 8.35464 62.3418 7.49388 61.2785 7.49388H57.9873C56.924 7.49388 56.0633 8.35464 56.0633 9.41793V21.4939H54.6456V9.72173C54.6456 7.89894 56.1392 6.40527 57.962 6.40527H61.2785C63.1266 6.40527 64.6203 7.87363 64.6203 9.72173Z" fill="white"/>
<path d="M83.9873 0.0761719H82.7215V21.4433H83.9873V0.0761719Z" fill="white"/>
<path d="M82.7215 20.4052V21.4431H80.3418C78.6962 21.4431 77.3797 20.1267 77.3797 18.4811V9.36718C77.3797 7.79756 78.6455 6.53174 80.2152 6.53174H81.5823L82.5443 7.51908H80.3924C79.4557 7.51908 78.6709 8.27857 78.6709 9.21528V18.5824C78.6709 19.5697 79.481 20.3798 80.4683 20.3798H82.7215V20.4052Z" fill="white"/>
<path d="M54.9747 25.3417H46.3671L45.0759 23.9746H53.6835L54.9747 25.3417Z" fill="white"/>
<path d="M49.7341 40H51.1012V24.5063H49V39.2405C48.9746 39.6709 49.3038 40 49.7341 40Z" fill="white"/>
<path d="M59.3291 38.6329V25.3671H65.8354L64.5443 24H55.9367L57.2278 25.3671H57.2784V38.6329V39.2658C57.2784 39.6709 57.6076 40.0253 58.0126 40.0253H59.3544H64.3164L63.0253 38.6582H59.3291V38.6329Z" fill="white"/>
<path d="M59.5316 31.0884L60.8228 32.4808H64.2911L62.9747 31.0884H59.5316Z" fill="white"/>
<path d="M82.6202 39.9999H83.9873V23.9746H81.886V39.2404C81.886 39.6455 82.2152 39.9999 82.6202 39.9999Z" fill="white"/>
<path d="M76.2911 39.9999H77.6582V23.9746H75.5569V39.2404C75.5316 39.6455 75.8607 39.9999 76.2911 39.9999Z" fill="white"/>
<path d="M77.6835 31.0884L78.9747 32.4808H83.5823L82.2911 31.0884H77.6835Z" fill="white"/>
<path d="M73 38.6074H70.2405C69.1266 38.6074 68.2152 37.696 68.2152 36.5821V27.3415C68.2152 26.2276 69.1266 25.3162 70.2405 25.3162H73.7088L72.3164 23.9238H69.3291C67.5569 23.9238 66.1392 25.3415 66.1392 27.1137V36.6074C66.1392 38.3795 67.5823 39.7972 69.3291 39.7972H74.2405L73 38.6074Z" fill="white"/>
</g>
<defs>
<clipPath id="clip0_1468_16827">
<rect width="97.4684" height="40" fill="white" transform="translate(0.265808)"/>
</clipPath>
</defs>
</svg>
