<svg width="74" height="30" viewBox="0 0 74 30" fill="none" xmlns="http://www.w3.org/2000/svg">
<path d="M7.46203 13.8229L1.53797 10.4811L7.46203 7.10133V6.18994L0 10.4621L7.46203 14.7342V13.8229Z" fill="#FF725E"/>
<path d="M65.6393 13.8229L71.5633 10.4811L65.6393 7.10133V6.18994L73.1013 10.4621L65.6393 14.7342V13.8229Z" fill="#FF725E"/>
<path d="M11.6582 9.41772H13.6709C14.4494 9.41772 15.057 8.79114 15.057 8.03165V2.14557C15.057 1.38608 14.4304 0.759494 13.6709 0.759494H11.2215V16.0823H10.1582V0.759494L9.39874 0H13.6709C15 0 16.1013 1.08228 16.1013 2.41139V7.99367C16.1013 9.20886 15.1139 10.1962 13.8798 10.1962L19.8228 16.1013H18.3418L11.6582 9.41772Z" fill="#03141A"/>
<path d="M22.8608 16.1202H21.3797L20.5633 15.3037H22.0443L22.8608 16.1202Z" fill="#03141A"/>
<path d="M18.9683 15.3036H18.9304V15.2656L18.9683 15.3036Z" fill="#03141A"/>
<path d="M18.9683 15.3036H18.9304V15.2656L18.9683 15.3036Z" fill="#03141A"/>
<path d="M23.0127 7.31004V11.2594H20.1076L19.3291 10.4619H22.0633V7.23409C22.0633 6.79738 21.8924 6.41764 21.6076 6.13282C21.3228 5.84801 20.9241 5.67713 20.5063 5.67713C19.9367 5.67713 19.4241 5.98093 19.1582 6.45561C19.0253 6.68346 18.9494 6.94928 18.9494 7.25308V13.8037L18 12.8543V7.31004C18 7.02523 18.057 6.74042 18.1329 6.49358C18.3228 5.96194 18.6835 5.50624 19.1582 5.20245C19.557 4.95561 20.0127 4.80371 20.5063 4.80371C21.2089 4.80371 21.8354 5.08852 22.2911 5.54422C22.7468 5.98093 23.0127 6.60751 23.0127 7.31004Z" fill="#03141A"/>
<path d="M22.0823 10.4619V11.2594H20.1076L19.3481 10.4619H22.0823Z" fill="#03141A"/>
<path d="M25.1582 11.2594H20.1076L19.3481 10.4619H24.3797L25.1582 11.2594Z" fill="#03141A"/>
<path d="M57.6836 11.2408H52.538L51.7595 10.4243H56.8861L57.6836 11.2408Z" fill="#03141A"/>
<path d="M54.5886 10.4242V7.19638C54.5886 6.75967 54.4177 6.36094 54.1329 6.07613C53.8481 5.79132 53.4684 5.60145 53.0316 5.60145C52.462 5.60145 51.9494 5.92423 51.6836 6.37993C51.5886 6.55081 51.5127 6.74069 51.4937 6.94955V13.6141C51.4937 13.9179 51.5696 14.1837 51.7215 14.4116C52.0063 14.8863 52.519 15.209 53.1076 15.209H54.5317L54.7785 15.4749L55.3291 16.0825H53.1266C52.6139 16.0825 52.1392 15.9306 51.7405 15.6837C51.5317 15.5508 51.3418 15.3989 51.1899 15.209C50.981 14.9622 50.8101 14.6774 50.6962 14.3736C50.6013 14.1078 50.5633 13.823 50.5633 13.5382V7.27233C50.5633 6.96853 50.6203 6.70271 50.6962 6.43689C50.8861 5.88626 51.2468 5.43056 51.7215 5.12676C52.1013 4.87993 52.576 4.72803 53.0696 4.72803C53.7532 4.72803 54.3798 5.01284 54.8354 5.46853C55.2911 5.92423 55.576 6.5698 55.576 7.27233V10.4242H54.5886Z" fill="#03141A"/>
<path d="M29.4114 5.60118H25.1013L24.4367 4.80371H28.7468L29.4114 5.60118Z" fill="#03141A"/>
<path d="M29.4114 0.797468H27.7025C26.8671 0.797468 26.1836 1.48101 26.1836 2.29747V16.1013H25.2342V2.35443C25.2342 1.06329 26.2975 0 27.5886 0H28.7468L29.4114 0.797468Z" fill="#03141A"/>
<path d="M40.1772 5.60112H39.019C38.1836 5.60112 37.5 6.28467 37.5 7.10112V16.1011H36.5507V7.1391C36.5507 5.84796 37.614 4.78467 38.9051 4.78467H39.4937L40.1772 5.60112Z" fill="#03141A"/>
<path d="M33.3228 5.54422C32.8671 5.08852 32.2216 4.80371 31.538 4.80371C30.1329 4.80371 29.0127 5.94295 29.0127 7.32903V13.5948C29.0127 14.9809 30.1519 16.1202 31.538 16.1202C32.9241 16.1202 34.0633 14.9809 34.0633 13.5948V7.32903C34.0633 6.6265 33.7785 5.99991 33.3228 5.54422ZM33.114 13.8417C33.114 14.6392 32.4684 15.3037 31.6519 15.3037H31.4051C30.5886 15.3037 29.9431 14.6581 29.9431 13.8417V7.0632C29.9431 6.26574 30.5886 5.60118 31.4051 5.60118H31.6519C32.4684 5.60118 33.114 6.24675 33.114 7.0632V13.8417Z" fill="#03141A"/>
<path d="M45.0569 6.94931V16.1202H44.0506V5.98096L45.0569 6.94931Z" fill="#03141A"/>
<path d="M48.2658 7.29105V16.1202H47.2025V7.0632C47.2025 6.26574 46.5569 5.62017 45.7595 5.62017H43.2911C42.4937 5.62017 41.8481 6.26574 41.8481 7.0632V16.1202H40.7848V7.29105C40.7848 5.92396 41.905 4.80371 43.2721 4.80371H45.7595C47.1455 4.80371 48.2658 5.90498 48.2658 7.29105Z" fill="#03141A"/>
<path d="M62.7911 0.0571289H61.8418V16.0824H62.7911V0.0571289Z" fill="#03141A"/>
<path d="M61.8418 15.304V16.0825H60.057C58.8228 16.0825 57.8354 15.0951 57.8354 13.861V7.02551C57.8354 5.84829 58.7848 4.89893 59.962 4.89893H60.9873L61.7089 5.63943H60.0949C59.3924 5.63943 58.8038 6.20905 58.8038 6.91158V13.9369C58.8038 14.6774 59.4114 15.285 60.1519 15.285H61.8418V15.304Z" fill="#03141A"/>
<path d="M41.0317 19.0063H34.576L33.6076 17.981H40.0633L41.0317 19.0063Z" fill="#03141A"/>
<path d="M37.1013 30.0001H38.1266V18.3799H36.5506V29.4305C36.5317 29.7533 36.7785 30.0001 37.1013 30.0001Z" fill="#03141A"/>
<path d="M44.2975 28.9747V19.0253H49.1772L48.2089 18H41.7532L42.7215 19.0253H42.7595V28.9747V29.4494C42.7595 29.7532 43.0063 30.019 43.3101 30.019H44.3165H48.038L47.0696 28.9937H44.2975V28.9747Z" fill="#03141A"/>
<path d="M44.4494 23.3164L45.4178 24.3607H48.019L47.0317 23.3164H44.4494Z" fill="#03141A"/>
<path d="M61.7658 29.9999H62.7912V17.981H61.2152V29.4303C61.2152 29.7341 61.462 29.9999 61.7658 29.9999Z" fill="#03141A"/>
<path d="M57.019 29.9999H58.0443V17.981H56.4684V29.4303C56.4494 29.7341 56.6962 29.9999 57.019 29.9999Z" fill="#03141A"/>
<path d="M58.0633 23.3164L59.0316 24.3607H62.4873L61.519 23.3164H58.0633Z" fill="#03141A"/>
<path d="M54.5507 28.9555H52.481C51.6456 28.9555 50.962 28.272 50.962 27.4365V20.5062C50.962 19.6707 51.6456 18.9872 52.481 18.9872H55.0823L54.038 17.9429H51.7975C50.4684 17.9429 49.4051 19.0062 49.4051 20.3353V27.4555C49.4051 28.7846 50.4874 29.8479 51.7975 29.8479H55.481L54.5507 28.9555Z" fill="#03141A"/>
</svg>
