<svg width="60" height="60" viewBox="0 0 60 60" fill="none" xmlns="http://www.w3.org/2000/svg">
<g id="Frame 9914">
<path id="Vector" d="M53.9998 32.9999V30.9999C54.5518 30.9999 54.9998 30.5523 54.9998 29.9999V23.9999C54.9998 23.4476 54.5518 22.9999 53.9998 22.9999H48.5999L48.4061 22.2488C47.9639 20.5308 47.2772 18.8851 46.3659 17.3628L45.9659 16.6937L49.7999 12.8531C50.1858 12.4664 50.1858 11.8398 49.7999 11.4531L45.553 7.19998C45.1608 6.82615 44.5448 6.82615 44.1526 7.19998L40.3116 11.041L39.6429 10.641C38.1183 9.72927 36.471 9.04255 34.7507 8.59997L33.9999 8.40466V2.99999C33.9999 2.44765 33.5523 1.99999 32.9999 1.99999H26.9999C26.4476 1.99999 25.9999 2.44765 25.9999 2.99999V8.39997L25.2488 8.59411C23.5308 9.03591 21.8851 9.72263 20.3621 10.6328L19.6929 11.0332L15.8531 7.19998C15.4605 6.82303 14.8406 6.82303 14.448 7.19998L10.2 11.4468C10.0133 11.6332 9.90818 11.8863 9.90818 12.15C9.90818 12.414 10.0133 12.6668 10.2 12.8531L14.041 16.6937L13.641 17.3628C12.73 18.8851 12.0429 20.5308 11.6011 22.2488L11.4051 22.9999H5.99999C5.44765 22.9999 4.99999 23.4476 4.99999 23.9999V29.9999C4.99999 30.5523 5.44765 30.9999 5.99999 30.9999V32.9999C4.34336 32.9999 3 31.6565 3 29.9999V23.9999C3 22.3433 4.34336 20.9999 5.99999 20.9999H9.86912C10.2816 19.6171 10.8394 18.282 11.5332 17.0171L8.78319 14.2671C8.22069 13.7058 7.90467 12.9441 7.90467 12.15C7.90467 11.3558 8.22069 10.5941 8.78319 10.0332L13.0332 5.78319C14.2172 4.64999 16.0839 4.64999 17.2679 5.78319L20.0171 8.53201C21.282 7.83865 22.6175 7.28201 23.9999 6.8699V2.99999C23.9999 1.34336 25.3433 0 26.9999 0H32.9999C34.6565 0 35.9999 1.34336 35.9999 2.99999V6.8699C37.3827 7.28201 38.7175 7.83982 39.9827 8.53318L42.7327 5.78319C43.9171 4.64999 45.7835 4.64999 46.9678 5.78319L51.217 10.032C51.7792 10.5933 52.0948 11.3543 52.0948 12.1488C52.0948 12.9433 51.7792 13.705 51.217 14.266L48.4671 17.016C49.1604 18.2816 49.7178 19.6171 50.1307 20.9999H53.9998C55.6565 20.9999 56.9998 22.3433 56.9998 23.9999V29.9999C56.9998 31.6565 55.6565 32.9999 53.9998 32.9999Z" fill="#FF725E"/>
<path id="Vector_2" d="M43.9999 27H41.9999C41.9999 20.3726 36.6273 15 30 15C23.3726 15 18 20.3726 18 27H16C16 19.268 22.268 13 30 13C37.7316 13 43.9999 19.268 43.9999 27Z" fill="#FF725E"/>
<path id="Vector_3" d="M30 35C26.6863 35 24 32.3133 24 29C24 25.6863 26.6863 23 30 23C33.314 23 36 25.6863 36 29C35.9964 32.3125 33.3125 34.9964 30 35ZM30 25C27.791 25 26 26.791 26 29C26 31.209 27.791 33 30 33C32.209 33 34 31.209 34 29C34 26.791 32.209 25 30 25Z" fill="#4F5B5E"/>
<path id="Vector_4" d="M47 39C43.6863 39 41 36.3133 41 33C41 29.6863 43.6863 27 47 27C50.3136 27 53 29.6863 53 33C52.9964 36.3125 50.3125 38.9964 47 39ZM47 29C44.791 29 43 30.791 43 33C43 35.209 44.791 37 47 37C49.209 37 51 35.209 51 33C51 30.791 49.209 29 47 29Z" fill="#4F5B5E"/>
<path id="Vector_5" d="M13 39C9.68632 39 7 36.3133 7 33C7 29.6863 9.68632 27 13 27C16.314 27 19 29.6863 19 33C18.9964 36.3125 16.3125 38.9964 13 39ZM13 29C10.791 29 8.99999 30.791 8.99999 33C8.99999 35.209 10.791 37 13 37C15.209 37 17 35.209 17 33C17 30.791 15.209 29 13 29Z" fill="#4F5B5E"/>
<path id="Vector_6" d="M56.0655 41.5657C54.5752 40.5414 52.8084 39.995 50.9999 40H42.9999C42.5135 40.0043 42.028 40.0485 41.5487 40.1317C40.9089 39.1309 40.0764 38.2676 39.0999 37.5907C38.9534 37.4801 38.7995 37.3797 38.639 37.2911C37.2401 36.4438 35.6351 35.9977 33.9999 36.0001H25.9999C22.9417 35.9891 20.0921 37.5497 18.4539 40.1317C17.9734 40.0485 17.4871 40.0043 17 40H8.99997C7.19295 39.995 5.42655 40.5407 3.9371 41.5637C1.47539 43.2387 0.0015625 46.0227 0 49V53C0.00351559 55.7305 1.59218 58.2101 4.07225 59.3539C4.98788 59.7851 5.98826 60.0058 6.99998 60H17V58H7.99998V47H5.99998V57.8996C5.62342 57.8242 5.2578 57.7023 4.91092 57.5379C3.13944 56.7211 2.0039 54.9504 1.99999 53V49C2.00234 46.6828 3.15038 44.5168 5.066 43.2137C6.22342 42.4192 7.59568 41.9961 8.99997 42H17C17.1761 42 17.346 42.0188 17.5179 42.0305C17.1796 42.9844 17.0042 43.9883 17 45V55C17.0035 57.7601 19.2402 59.9965 21.9999 60H24.9999V44H22.9999V58H21.9999C20.3433 58 18.9999 56.6566 18.9999 55V45C18.9999 41.1336 22.1343 38.0001 25.9999 38.0001H33.9999C35.2866 38.0008 36.5476 38.3571 37.6448 39.029C37.7464 39.0844 37.844 39.1469 37.9366 39.2157C38.8737 39.8575 39.6429 40.7149 40.1788 41.7157C40.7175 42.7266 40.9999 43.8543 40.9999 45V55C40.9999 56.6566 39.6565 58 37.9999 58H36.9999V44H34.9999V60H37.9999C40.76 59.9965 42.9964 57.7601 42.9999 55V45C42.9952 43.9883 42.8206 42.9848 42.4827 42.0305C42.655 42.0188 42.8249 42 42.9999 42H50.9999C52.4049 41.9961 53.7784 42.4204 54.9366 43.2157C56.8506 44.5196 57.9971 46.684 57.9998 49V53C57.9963 54.9574 56.8522 56.7332 55.0721 57.5457C54.7303 57.7074 54.3702 57.8262 53.9998 57.8996V47H51.9999V58H42.9999V60H52.9998C54.0057 60.0062 55.0002 59.7883 55.9108 59.3617C58.3991 58.2215 59.9959 55.7371 59.9998 53V49C59.9983 46.0239 58.5256 43.2411 56.0655 41.5657Z" fill="#4F5B5E"/>
<path id="Vector_7" d="M26 57.9998H34V59.9997H26V57.9998Z" fill="#4F5B5E"/>
</g>
</svg>
