<svg width="61" height="60" viewBox="0 0 61 60" fill="none" xmlns="http://www.w3.org/2000/svg">
<g id="005-layers" clip-path="url(#clip0_1266_8648)">
<path id="Vector" d="M30.5 25C32.28 25 34.0201 24.4722 35.5001 23.4832C36.9802 22.4943 38.1337 21.0887 38.8149 19.4442C39.4961 17.7996 39.6743 15.99 39.3271 14.2442C38.9798 12.4984 38.1226 10.8947 36.864 9.63604C35.6053 8.37737 34.0016 7.5202 32.2558 7.17294C30.51 6.82567 28.7004 7.0039 27.0558 7.68509C25.4113 8.36628 24.0057 9.51983 23.0168 10.9999C22.0278 12.4799 21.5 14.22 21.5 16C21.5026 18.3861 22.4517 20.6738 24.139 22.361C25.8262 24.0483 28.1139 24.9974 30.5 25ZM30.5 9C31.8845 9 33.2378 9.41055 34.389 10.1797C35.5401 10.9489 36.4373 12.0421 36.9672 13.3212C37.497 14.6003 37.6356 16.0078 37.3655 17.3656C37.0954 18.7235 36.4287 19.9708 35.4497 20.9498C34.4708 21.9287 33.2235 22.5954 31.8656 22.8655C30.5078 23.1356 29.1003 22.997 27.8212 22.4672C26.5421 21.9373 25.4489 21.0401 24.6797 19.889C23.9105 18.7379 23.5 17.3845 23.5 16C23.5021 14.1441 24.2403 12.3649 25.5526 11.0526C26.8649 9.7403 28.6441 9.00212 30.5 9Z" fill="#FF725E"/>
<path id="Vector_2" d="M30.5 21C31.4889 21 32.4556 20.7068 33.2779 20.1574C34.1001 19.6079 34.741 18.8271 35.1194 17.9134C35.4978 16.9998 35.5969 15.9945 35.4039 15.0246C35.211 14.0546 34.7348 13.1637 34.0355 12.4645C33.3363 11.7652 32.4454 11.289 31.4755 11.0961C30.5055 10.9031 29.5002 11.0022 28.5866 11.3806C27.673 11.759 26.8921 12.3999 26.3427 13.2222C25.7932 14.0444 25.5 15.0111 25.5 16C25.5016 17.3256 26.0289 18.5964 26.9662 19.5338C27.9036 20.4711 29.1744 20.9984 30.5 21ZM30.5 13C31.0933 13 31.6734 13.176 32.1667 13.5056C32.6601 13.8352 33.0446 14.3038 33.2716 14.852C33.4987 15.4001 33.5581 16.0033 33.4424 16.5853C33.3266 17.1672 33.0409 17.7018 32.6213 18.1213C32.2018 18.5409 31.6672 18.8266 31.0853 18.9424C30.5033 19.0581 29.9001 18.9987 29.3519 18.7716C28.8038 18.5446 28.3352 18.1601 28.0056 17.6667C27.6759 17.1734 27.5 16.5933 27.5 16C27.5 15.2044 27.8161 14.4413 28.3787 13.8787C28.9413 13.3161 29.7044 13 30.5 13Z" fill="#FF725E"/>
<path id="Vector_3" d="M60.5009 37.9999C60.4997 37.5842 60.3685 37.1792 60.1257 36.8418C59.8829 36.5043 59.5407 36.2512 59.1469 36.1179L49.0299 32.4999L59.1479 28.8809C59.5421 28.7487 59.8848 28.496 60.1275 28.1585C60.3703 27.821 60.5009 27.4157 60.5009 26.9999C60.5009 26.5842 60.3703 26.1789 60.1275 25.8414C59.8848 25.5039 59.5421 25.2511 59.1479 25.1189L43.4479 19.4989C43.4749 19.3989 43.5089 19.2989 43.5329 19.1989L45.3799 18.6339C45.6682 18.5476 45.9241 18.3768 46.1145 18.1437C46.3048 17.9105 46.421 17.6257 46.4479 17.3259C46.4879 16.8889 46.5069 16.4459 46.5069 15.9999C46.5069 15.5539 46.4879 15.1109 46.4479 14.6739C46.4208 14.3739 46.3045 14.0889 46.114 13.8556C45.9235 13.6223 45.6674 13.4514 45.3789 13.3649L43.5269 12.7999C43.2044 11.4784 42.6799 10.2145 41.9719 9.05292L42.8789 7.35292C43.0227 7.08766 43.0836 6.78535 43.0536 6.48511C43.0236 6.18487 42.9043 5.90054 42.7109 5.66892C42.4296 5.33225 42.1296 5.00625 41.8109 4.69092C41.4922 4.37558 41.1659 4.07558 40.8319 3.79092C40.6004 3.59843 40.3167 3.47957 40.0171 3.44963C39.7175 3.41969 39.4159 3.48004 39.1509 3.62292L37.4429 4.53092C36.2828 3.82284 35.0207 3.29736 33.7009 2.97292L33.1369 1.12592C33.0494 0.837892 32.878 0.582476 32.6447 0.392258C32.4113 0.202039 32.1266 0.0856416 31.8269 0.0579171C30.9447 -0.0215843 30.0571 -0.0215843 29.1749 0.0579171C28.875 0.085383 28.5902 0.201822 28.357 0.392293C28.1237 0.582765 27.9527 0.838581 27.8659 1.12692L27.3009 2.97292C25.9798 3.29635 24.7163 3.82116 23.5549 4.52892L21.8489 3.62192C21.5832 3.47871 21.2808 3.41827 20.9805 3.44839C20.6802 3.47851 20.3958 3.5978 20.1639 3.79092C19.8279 4.07092 19.5019 4.37092 19.1869 4.69092C18.8719 5.01092 18.5709 5.33192 18.2869 5.66792C18.0934 5.89924 17.9738 6.18328 17.9435 6.48332C17.9132 6.78335 17.9736 7.08558 18.1169 7.35092L19.0249 9.05792C18.3198 10.2186 17.797 11.4806 17.4749 12.7999L15.6279 13.3649C15.3395 13.4513 15.0837 13.622 14.8933 13.8552C14.703 14.0883 14.5868 14.3731 14.5599 14.6729C14.5199 15.1099 14.5009 15.5529 14.5009 15.9989C14.5009 16.4449 14.5199 16.8879 14.5599 17.3229C14.5867 17.6232 14.7029 17.9086 14.8934 18.1423C15.084 18.376 15.3401 18.5472 15.6289 18.6339L17.4749 19.1979C17.4989 19.2979 17.5329 19.3979 17.5599 19.4979L1.85389 25.1189C1.45971 25.2511 1.11702 25.5039 0.874238 25.8414C0.631453 26.1789 0.500837 26.5842 0.500837 26.9999C0.500837 27.4157 0.631453 27.821 0.874238 28.1585C1.11702 28.496 1.45971 28.7487 1.85389 28.8809L11.9719 32.4999L1.85389 36.1179C1.45947 36.2502 1.11657 36.503 0.873637 36.8407C0.6307 37.1784 0.5 37.5839 0.5 37.9999C0.5 38.4159 0.6307 38.8214 0.873637 39.1591C1.11657 39.4968 1.45947 39.7497 1.85389 39.8819L10.5729 42.9999L1.85389 46.1189C1.45947 46.2512 1.11657 46.504 0.873637 46.8417C0.6307 47.1794 0.5 47.5849 0.5 48.0009C0.5 48.4169 0.6307 48.8224 0.873637 49.1601C1.11657 49.4978 1.45947 49.7507 1.85389 49.8829L29.7819 59.8739C30.2455 60.0419 30.7533 60.0419 31.2169 59.8739L59.1469 49.8829C59.5413 49.7507 59.8842 49.4978 60.1271 49.1601C60.3701 48.8224 60.5008 48.4169 60.5008 48.0009C60.5008 47.5849 60.3701 47.1794 60.1271 46.8417C59.8842 46.504 59.5413 46.2512 59.1469 46.1189L50.4299 42.9999L59.1479 39.8819C59.5415 39.7485 59.8835 39.4953 60.1261 39.1578C60.3687 38.8204 60.4998 38.4155 60.5009 37.9999ZM16.5259 16.8169C16.5089 16.5469 16.5009 16.2739 16.5009 15.9999C16.5009 15.7259 16.5089 15.4539 16.5259 15.1829L18.6159 14.5439C18.7891 14.4913 18.9448 14.3926 19.0663 14.2584C19.1878 14.1242 19.2706 13.9595 19.3059 13.7819C19.5964 12.3067 20.1785 10.9043 21.0179 9.65692C21.1187 9.50649 21.1769 9.33149 21.186 9.15061C21.1952 8.96974 21.155 8.78977 21.0699 8.62992L20.0409 6.69992C20.2209 6.49992 20.4069 6.29992 20.6019 6.10492C20.7969 5.90992 20.9939 5.72292 21.2019 5.54392L23.1369 6.57292C23.2968 6.65792 23.4768 6.69788 23.6577 6.68855C23.8386 6.67921 24.0136 6.62093 24.1639 6.51992C25.4088 5.67896 26.8087 5.09426 28.2819 4.79992C28.4592 4.76483 28.6237 4.68232 28.7579 4.56117C28.8921 4.44002 28.9909 4.28476 29.0439 4.11192L29.6839 2.02092C30.228 1.98692 30.7738 1.98692 31.3179 2.02092L31.9579 4.11192C32.0109 4.28476 32.1097 4.44002 32.2439 4.56117C32.378 4.68232 32.5426 4.76483 32.7199 4.79992C34.1945 5.09049 35.5962 5.67253 36.8429 6.51192C36.9932 6.61293 37.1682 6.67121 37.3491 6.68055C37.5299 6.68988 37.71 6.64992 37.8699 6.56492L39.8009 5.53992C40.0009 5.71892 40.2009 5.90692 40.3959 6.10092C40.5909 6.29492 40.7769 6.49292 40.9569 6.69592L39.9319 8.62992C39.8466 8.78989 39.8063 8.97005 39.8155 9.15112C39.8246 9.3322 39.8829 9.50738 39.9839 9.65792C40.8254 10.9044 41.4092 12.3065 41.7009 13.7819C41.7362 13.9595 41.819 14.1242 41.9405 14.2584C42.062 14.3926 42.2177 14.4913 42.3909 14.5439L44.4809 15.1829C44.4979 15.4529 44.5059 15.7259 44.5059 15.9999C44.5059 16.2739 44.4979 16.5459 44.4809 16.8169L42.3909 17.4559C42.2177 17.5086 42.062 17.6073 41.9405 17.7415C41.819 17.8757 41.7362 18.0403 41.7009 18.2179C41.4103 19.6931 40.8283 21.0955 39.9889 22.3429C39.888 22.4934 39.8299 22.6683 39.8208 22.8492C39.8116 23.0301 39.8517 23.2101 39.9369 23.3699L40.9609 25.2999C40.7809 25.4999 40.5949 25.6999 40.3999 25.8999C40.2049 26.0999 40.0079 26.2819 39.8049 26.4609L37.8699 25.4319C37.71 25.3469 37.5299 25.307 37.3491 25.3163C37.1682 25.3256 36.9932 25.3839 36.8429 25.4849C35.5964 26.3254 34.1947 26.9084 32.7199 27.1999C32.5426 27.235 32.378 27.3175 32.2439 27.4387C32.1097 27.5598 32.0109 27.7151 31.9579 27.8879L31.3179 29.9789C30.7738 30.0129 30.228 30.0129 29.6839 29.9789L29.0439 27.8879C28.9909 27.7151 28.8921 27.5598 28.7579 27.4387C28.6237 27.3175 28.4592 27.235 28.2819 27.1999C26.8069 26.9092 25.4048 26.3269 24.1579 25.4869C24.0075 25.3861 23.8325 25.328 23.6516 25.3188C23.4707 25.3096 23.2907 25.3498 23.1309 25.4349L21.2009 26.4589C21.0009 26.2809 20.8009 26.0929 20.6009 25.8989C20.4009 25.7049 20.2199 25.5069 20.0399 25.2989L21.0689 23.3649C21.1542 23.205 21.1945 23.0248 21.1853 22.8437C21.1762 22.6626 21.1179 22.4875 21.0169 22.3369C20.1771 21.0901 19.5951 19.6879 19.3049 18.2129C19.2696 18.0353 19.1868 17.8707 19.0653 17.7365C18.9438 17.6023 18.7881 17.5036 18.6149 17.4509L16.5259 16.8169ZM18.2259 21.3849C18.4601 21.9223 18.7294 22.4438 19.0319 22.9459L18.1249 24.6459C17.9811 24.9112 17.9202 25.2135 17.9502 25.5137C17.9801 25.814 18.0995 26.0983 18.2929 26.3299C18.5742 26.6666 18.8742 26.9926 19.1929 27.3079C19.5116 27.6233 19.8379 27.9233 20.1719 28.2079C20.4035 28.4 20.6873 28.5187 20.9867 28.5486C21.2862 28.5785 21.5878 28.5184 21.8529 28.3759L23.5599 27.4679C24.7197 28.176 25.9814 28.7018 27.3009 29.0269L27.8649 30.8739C27.9521 31.1619 28.1232 31.4173 28.3564 31.6074C28.5896 31.7975 28.8743 31.9136 29.1739 31.9409C29.6109 31.9809 30.0539 31.9999 30.4999 31.9999C30.9459 31.9999 31.3889 31.9809 31.8259 31.9409C32.1258 31.9136 32.4107 31.7972 32.644 31.6067C32.8772 31.4162 33.0482 31.1603 33.1349 30.8719L33.6989 29.0269C35.02 28.7035 36.2834 28.1787 37.4449 27.4709L39.1509 28.3779C39.4165 28.5214 39.719 28.582 40.0193 28.5519C40.3197 28.5217 40.6041 28.4023 40.8359 28.2089C41.1719 27.9289 41.4979 27.6289 41.8129 27.3089C42.1279 26.9889 42.4289 26.6679 42.7129 26.3319C42.9064 26.1006 43.026 25.8166 43.0563 25.5165C43.0866 25.2165 43.0262 24.9143 42.8829 24.6489L41.9749 22.9419C42.2771 22.4398 42.546 21.9183 42.7799 21.3809L58.4739 26.9999L30.4579 36.9879L2.52789 26.9999L18.2259 21.3849ZM58.4739 47.9999L30.4579 57.9909L2.52789 47.9999L13.5409 44.0599L29.7829 49.8689C30.2465 50.0369 30.7543 50.0369 31.2179 49.8689L47.4609 44.0619L58.4739 47.9999ZM30.4579 47.9879L2.52789 37.9999L14.9409 33.5619L29.7829 38.8709C30.2465 39.0389 30.7543 39.0389 31.2179 38.8709L46.0609 33.5619L58.4739 37.9999L30.4579 47.9879Z" fill="#4F5B5E"/>
<path id="Vector_4" d="M27.8504 43.0591L16.6674 39.0591C16.4201 38.9791 16.1514 38.9984 15.9182 39.1131C15.685 39.2277 15.5055 39.4287 15.4179 39.6733C15.3303 39.918 15.3414 40.1872 15.4488 40.4238C15.5562 40.6605 15.7515 40.846 15.9934 40.9411L27.1764 44.9411C27.2844 44.9802 27.3985 45.0002 27.5134 45.0001C27.7487 44.9998 27.9763 44.9165 28.1563 44.7649C28.3362 44.6132 28.457 44.403 28.4972 44.1712C28.5375 43.9393 28.4947 43.7007 28.3764 43.4973C28.258 43.2939 28.0718 43.1387 27.8504 43.0591Z" fill="#4F5B5E"/>
<path id="Vector_5" d="M27.8504 53.0591L16.6674 49.0591C16.4201 48.9791 16.1514 48.9984 15.9182 49.1131C15.685 49.2277 15.5055 49.4287 15.4179 49.6733C15.3303 49.918 15.3414 50.1872 15.4488 50.4238C15.5562 50.6605 15.7515 50.846 15.9934 50.9411L27.1764 54.9411C27.2844 54.9802 27.3985 55.0002 27.5134 55.0001C27.7487 54.9998 27.9763 54.9165 28.1563 54.7649C28.3362 54.6132 28.457 54.403 28.4972 54.1712C28.5375 53.9393 28.4947 53.7007 28.3764 53.4973C28.258 53.2939 28.0718 53.1387 27.8504 53.0591Z" fill="#4F5B5E"/>
</g>
<defs>
<clipPath id="clip0_1266_8648">
<rect width="60" height="60" fill="white" transform="translate(0.5)"/>
</clipPath>
</defs>
</svg>
