<svg width="60" height="60" viewBox="0 0 60 60" fill="none" xmlns="http://www.w3.org/2000/svg">
<g id="013-group">
<g id="Group_x2C__leader_x2C__leadership_x2C__people_x2C__team_x2C__teamwork_x2C__nation">
<g id="XMLID_5987_">
<g id="XMLID_6191_">
<g id="XMLID_6192_">
<g id="XMLID_6193_">
<g id="Group">
<path id="Vector" d="M36.5625 11.25C33.9787 11.25 31.875 9.14812 31.875 6.5625C31.875 3.97688 33.9787 1.875 36.5625 1.875C39.1463 1.875 41.25 3.97688 41.25 6.5625C41.25 9.14812 39.1463 11.25 36.5625 11.25ZM36.5625 3.75C35.0119 3.75 33.75 5.01187 33.75 6.5625C33.75 8.11312 35.0119 9.375 36.5625 9.375C38.1131 9.375 39.375 8.11312 39.375 6.5625C39.375 5.01187 38.1131 3.75 36.5625 3.75Z" fill="#4F5B5E"/>
</g>
</g>
</g>
</g>
</g>
<g id="XMLID_6206_">
<g id="XMLID_6209_">
<g id="XMLID_6210_">
<g id="XMLID_6215_">
<g id="Group_2">
<path id="Vector_2" d="M21.5625 11.25C18.9787 11.25 16.875 9.14812 16.875 6.5625C16.875 3.97688 18.9787 1.875 21.5625 1.875C24.1463 1.875 26.25 3.97688 26.25 6.5625C26.25 9.14812 24.1463 11.25 21.5625 11.25ZM21.5625 3.75C20.0119 3.75 18.75 5.01187 18.75 6.5625C18.75 8.11312 20.0119 9.375 21.5625 9.375C23.1131 9.375 24.375 8.11312 24.375 6.5625C24.375 5.01187 23.1131 3.75 21.5625 3.75Z" fill="#4F5B5E"/>
</g>
</g>
</g>
</g>
</g>
<g id="XMLID_5945_">
<g id="XMLID_5948_">
<g id="XMLID_5958_">
<path id="Vector_3" d="M49.6875 58.125C49.17 58.125 48.75 57.705 48.75 57.1875V45.9375C48.75 45.42 49.17 45 49.6875 45C50.205 45 50.625 45.42 50.625 45.9375C50.625 46.4531 51.045 46.875 51.5625 46.875C52.08 46.875 52.5 46.4531 52.5 45.9375V32.8125C52.5 30.7031 50.7694 28.125 48.75 28.125H42.1875C41.67 28.125 41.25 27.705 41.25 27.1875C41.25 26.67 41.67 26.25 42.1875 26.25H48.75C51.9169 26.25 54.375 29.7787 54.375 32.8125V45.9375C54.375 47.4881 53.1131 48.75 51.5625 48.75C51.2344 48.75 50.9175 48.6937 50.625 48.5887V57.1875C50.625 57.705 50.205 58.125 49.6875 58.125Z" fill="#4F5B5E"/>
</g>
<g id="XMLID_5953_">
<path id="XMLID_5954_" d="M38.4375 18.75C38.4375 15.6487 40.9612 13.125 44.0625 13.125C47.1637 13.125 49.6875 15.6487 49.6875 18.75C49.6875 21.8512 47.1637 24.375 44.0625 24.375C40.9612 24.375 38.4375 21.8512 38.4375 18.75ZM40.3125 18.75C40.3125 20.82 41.9925 22.5 44.0625 22.5C46.1325 22.5 47.8125 20.82 47.8125 18.75C47.8125 16.6819 46.1325 15 44.0625 15C41.9925 15 40.3125 16.6819 40.3125 18.75Z" fill="#4F5B5E"/>
</g>
<g id="XMLID_5949_">
<path id="XMLID_5951_" d="M49.6875 46.875C50.205 46.875 50.625 46.455 50.625 45.9375V34.6875C50.625 34.17 50.205 33.75 49.6875 33.75C49.17 33.75 48.75 34.17 48.75 34.6875V45.9375C48.75 46.455 49.17 46.875 49.6875 46.875Z" fill="#4F5B5E"/>
<path id="XMLID_5950_" d="M44.0625 58.125C44.58 58.125 45 57.705 45 57.1875V49.6875C45 49.17 44.58 48.75 44.0625 48.75C43.545 48.75 43.125 49.17 43.125 49.6875V57.1875C43.125 57.705 43.545 58.125 44.0625 58.125Z" fill="#4F5B5E"/>
</g>
</g>
</g>
<g id="XMLID_6263_">
<g id="XMLID_6266_">
<g id="XMLID_6390_">
<path id="Vector_4" d="M8.4375 58.125C7.92 58.125 7.5 57.705 7.5 57.1875V48.5887C7.2075 48.6937 6.89062 48.75 6.5625 48.75C5.01187 48.75 3.75 47.4881 3.75 45.9375V32.8125C3.75 29.7787 6.20812 26.25 9.375 26.25H15.9375C16.455 26.25 16.875 26.67 16.875 27.1875C16.875 27.705 16.455 28.125 15.9375 28.125H9.375C7.35562 28.125 5.625 30.7031 5.625 32.8125V45.9375C5.625 46.4531 6.045 46.875 6.5625 46.875C7.08 46.875 7.5 46.4531 7.5 45.9375C7.5 45.42 7.92 45 8.4375 45C8.955 45 9.375 45.42 9.375 45.9375V57.1875C9.375 57.705 8.955 58.125 8.4375 58.125Z" fill="#4F5B5E"/>
</g>
<g id="XMLID_6379_">
<path id="XMLID_6380_" d="M14.0625 24.375C10.9612 24.375 8.4375 21.8512 8.4375 18.75C8.4375 15.6487 10.9612 13.125 14.0625 13.125C17.1637 13.125 19.6875 15.6487 19.6875 18.75C19.6875 21.8512 17.1637 24.375 14.0625 24.375ZM14.0625 15C11.9925 15 10.3125 16.6819 10.3125 18.75C10.3125 20.82 11.9925 22.5 14.0625 22.5C16.1325 22.5 17.8125 20.82 17.8125 18.75C17.8125 16.6819 16.1325 15 14.0625 15Z" fill="#4F5B5E"/>
</g>
<g id="XMLID_6267_">
<path id="XMLID_6202_" d="M8.4375 46.875C7.92 46.875 7.5 46.455 7.5 45.9375V34.6875C7.5 34.17 7.92 33.75 8.4375 33.75C8.955 33.75 9.375 34.17 9.375 34.6875V45.9375C9.375 46.455 8.955 46.875 8.4375 46.875Z" fill="#4F5B5E"/>
<path id="XMLID_6268_" d="M14.0625 58.125C13.545 58.125 13.125 57.705 13.125 57.1875V49.6875C13.125 49.17 13.545 48.75 14.0625 48.75C14.58 48.75 15 49.17 15 49.6875V57.1875C15 57.705 14.58 58.125 14.0625 58.125Z" fill="#4F5B5E"/>
</g>
</g>
</g>
<g id="XMLID_6363_">
<g id="XMLID_6368_">
<path id="Vector_5" d="M34.6875 58.125C34.17 58.125 33.75 57.705 33.75 57.1875V36.5625C33.75 36.045 34.17 35.625 34.6875 35.625C35.6869 35.625 36.6188 35.0869 37.1213 34.2206C37.3688 33.795 37.5 33.3094 37.5 32.8125V30.9375C37.5 28.3519 35.3962 26.25 32.8125 26.25H24.375C22.3069 26.25 20.625 27.9319 20.625 30V32.8125C20.625 34.3631 21.8869 35.625 23.4375 35.625C23.955 35.625 24.375 36.045 24.375 36.5625V57.1875C24.375 57.705 23.955 58.125 23.4375 58.125C22.92 58.125 22.5 57.705 22.5 57.1875V37.4063C20.3625 36.9713 18.75 35.0756 18.75 32.8125V30C18.75 26.8987 21.2737 24.375 24.375 24.375H32.8125C36.4312 24.375 39.375 27.3188 39.375 30.9375V32.8125C39.375 33.6375 39.1575 34.4513 38.7431 35.1619C38.0662 36.3281 36.9206 37.1381 35.625 37.4044V57.1875C35.625 57.705 35.205 58.125 34.6875 58.125Z" fill="#FF725E"/>
<path id="XMLID_6371_" d="M29.0625 22.5C25.9612 22.5 23.4375 19.9762 23.4375 16.875C23.4375 13.7737 25.9612 11.25 29.0625 11.25C32.1637 11.25 34.6875 13.7737 34.6875 16.875C34.6875 19.9762 32.1637 22.5 29.0625 22.5ZM29.0625 13.125C26.9925 13.125 25.3125 14.8069 25.3125 16.875C25.3125 18.945 26.9925 20.625 29.0625 20.625C31.1325 20.625 32.8125 18.945 32.8125 16.875C32.8125 14.8069 31.1325 13.125 29.0625 13.125Z" fill="#FF725E"/>
</g>
<path id="Vector_6" d="M34.6875 34.6875C34.17 34.6875 33.75 34.2675 33.75 33.75V33.1519C33.75 32.8725 33.6319 32.6175 33.4181 32.4356C33.2044 32.2538 32.9325 32.1825 32.6606 32.2275L25.7756 33.3731C24.9544 33.5044 24.1275 33.2794 23.4956 32.745C22.8619 32.2106 22.5 31.4269 22.5 30.5981C22.5 30.0806 22.92 29.6606 23.4375 29.6606C23.955 29.6606 24.375 30.0806 24.375 30.5981C24.375 30.8775 24.4931 31.1325 24.7069 31.3144C24.9206 31.4944 25.1944 31.5731 25.4681 31.5225L32.3512 30.3769C33.1669 30.2419 33.9975 30.4669 34.6294 31.0031C35.2612 31.5375 35.625 32.3213 35.625 33.1519V33.75C35.625 34.2675 35.205 34.6875 34.6875 34.6875Z" fill="#FF725E"/>
<path id="Vector_7" d="M29.0625 58.125C28.545 58.125 28.125 57.705 28.125 57.1875V45C28.125 44.4825 28.545 44.0625 29.0625 44.0625C29.58 44.0625 30 44.4825 30 45V57.1875C30 57.705 29.58 58.125 29.0625 58.125Z" fill="#FF725E"/>
<path id="Vector_8" d="M34.6875 37.5H27.1875C26.67 37.5 26.25 37.08 26.25 36.5625C26.25 36.045 26.67 35.625 27.1875 35.625H34.6875C35.205 35.625 35.625 36.045 35.625 36.5625C35.625 37.08 35.205 37.5 34.6875 37.5Z" fill="#FF725E"/>
</g>
</g>
</g>
</svg>
