<svg width="11" height="11" viewBox="0 0 11 11" fill="none" xmlns="http://www.w3.org/2000/svg">
<path id="icon" d="M7.31864 2.40613L1.7325 2.40613C1.47033 2.40157 1.22044 2.29423 1.03665 2.10722C0.852863 1.9202 0.749877 1.66849 0.749877 1.40628C0.749877 1.14407 0.852863 0.892356 1.03665 0.705344C1.22044 0.518332 1.47033 0.410987 1.7325 0.406431L9.7327 0.406431C9.86411 0.406054 9.9943 0.43166 10.1158 0.481774C10.2373 0.531887 10.3476 0.605522 10.4405 0.698441C10.5335 0.791361 10.6071 0.901732 10.6572 1.02321C10.7073 1.14469 10.7329 1.27487 10.7326 1.40628L10.7326 9.40648C10.7349 9.53925 10.7107 9.67114 10.6615 9.79447C10.6123 9.9178 10.539 10.0301 10.4459 10.1248C10.3529 10.2195 10.2419 10.2947 10.1194 10.3461C9.99694 10.3974 9.86549 10.4239 9.7327 10.4239C9.59992 10.4239 9.46847 10.3974 9.34601 10.3461C9.22356 10.2947 9.11255 10.2195 9.01948 10.1248C8.92641 10.0301 8.85313 9.9178 8.80392 9.79447C8.75471 9.67114 8.73055 9.53925 8.73286 9.40649V3.82034L1.95453 10.5987C1.76699 10.7862 1.51264 10.8916 1.24742 10.8916C0.982208 10.8916 0.727854 10.7862 0.540317 10.5987C0.352781 10.4111 0.247424 10.1568 0.247424 9.89156C0.247424 9.62634 0.352781 9.37199 0.540317 9.18445L7.31864 2.40613Z" fill="#F8523B"/>
</svg>
