<svg width="453" height="320" viewBox="0 0 453 320" fill="none" xmlns="http://www.w3.org/2000/svg">
<g clip-path="url(#clip0_1165_6210)">
<path d="M206.697 49.0117L178.866 63.7625L174.166 42.6062L206.697 49.0117Z" fill="white"/>
<path d="M178.524 64.2638C178.552 64.2828 178.58 64.2981 178.611 64.3129C178.783 64.3932 178.982 64.3858 179.15 64.2979L206.98 49.5462C207.208 49.4252 207.334 49.1763 207.297 48.9221C207.259 48.6679 207.065 48.4642 206.814 48.4159L174.283 42.0104C174.081 41.971 173.874 42.0346 173.731 42.1821C173.589 42.3283 173.528 42.538 173.573 42.7384L178.274 63.8957C178.306 64.0463 178.398 64.1783 178.524 64.2638ZM204.9 49.2767L179.285 62.8539L174.959 43.3816L204.9 49.2767Z" fill="#FF725E"/>
<path d="M170.18 24.7113L206.697 49.0117L172.985 36.8899L170.18 24.7113Z" fill="white"/>
<path d="M172.644 37.3912C172.686 37.4197 172.731 37.4427 172.78 37.4614L206.492 49.5808C206.78 49.6852 207.101 49.5562 207.238 49.2821C207.377 49.009 207.289 48.6817 207.033 48.5055L170.517 24.2051C170.309 24.0682 170.039 24.0699 169.835 24.2108C169.63 24.3517 169.532 24.6036 169.588 24.8458L172.393 37.0245C172.428 37.177 172.518 37.3057 172.644 37.3912ZM202.206 46.7518L173.502 36.4309L171.114 26.0617L202.206 46.7518Z" fill="#FF725E"/>
<path d="M165.425 45.4297L174.166 42.6062L206.697 49.0117L172.939 36.7832L165.425 45.4297Z" fill="white"/>
<path d="M165.084 45.9309C165.236 46.0345 165.429 46.0658 165.612 46.0067L174.203 43.23L206.58 49.6064C206.892 49.6675 207.198 49.4793 207.282 49.1728C207.367 48.8674 207.202 48.5487 206.904 48.44L173.146 36.2129C172.909 36.1277 172.646 36.1959 172.481 36.3854L164.968 45.0329C164.789 45.2382 164.768 45.5387 164.92 45.7664C164.963 45.8324 165.021 45.8882 165.084 45.9309ZM199.052 46.8869L174.284 42.0102C174.183 41.9905 174.078 41.997 173.98 42.0279L167.314 44.1809L173.125 37.4941L199.052 46.8869Z" fill="#FF725E"/>
<path d="M175.405 48.1836L165.425 45.4294L174.166 42.6059L175.405 48.1836Z" fill="white"/>
<path d="M165.085 45.9317C165.139 45.9688 165.199 45.9975 165.265 46.0154L175.244 48.7687C175.449 48.8245 175.669 48.7704 175.823 48.6234C175.976 48.4764 176.043 48.2606 175.997 48.0518L174.758 42.4741C174.721 42.3074 174.616 42.1645 174.467 42.0797C174.318 41.995 174.141 41.9764 173.978 42.0292L165.238 44.8536C164.984 44.936 164.812 45.1765 164.818 45.444C164.823 45.6435 164.926 45.8234 165.085 45.9317ZM174.593 47.3293L167.541 45.3833L173.718 43.3877L174.593 47.3293Z" fill="#FF725E"/>
<path d="M151.814 47.9828C151.958 48.0806 152.137 48.1268 152.323 48.1024C153.869 47.89 155.477 47.7302 157.104 47.6263C157.505 47.6011 157.81 47.2551 157.785 46.8526C157.76 46.4514 157.414 46.1465 157.012 46.1707C155.351 46.2762 153.706 46.4394 152.126 46.657C151.727 46.7122 151.448 47.08 151.504 47.4777C151.532 47.6925 151.651 47.8716 151.814 47.9828Z" fill="#FF725E"/>
<path d="M81.4853 124.336C81.6905 124.476 81.9614 124.507 82.2027 124.395C82.5678 124.225 82.7274 123.792 82.5571 123.427C81.1263 120.344 79.9567 117.272 79.0816 114.299C78.9682 113.914 78.5629 113.693 78.1773 113.806C77.7917 113.92 77.5709 114.325 77.6844 114.711C78.5798 117.753 79.7755 120.891 81.2357 124.039C81.2912 124.165 81.3792 124.264 81.4853 124.336ZM76.0725 105.425C76.2079 105.517 76.3737 105.565 76.5504 105.548C76.9517 105.511 77.2464 105.156 77.209 104.755C76.8997 101.446 76.9758 98.1884 77.4322 95.0717C77.4904 94.6742 77.2157 94.3034 76.8168 94.2443C76.4192 94.1862 76.0485 94.4609 75.9894 94.8598C75.5159 98.0916 75.4378 101.466 75.7568 104.89C75.7776 105.114 75.8994 105.307 76.0725 105.425ZM78.9686 86.0823C79.0077 86.1089 79.0496 86.1314 79.0935 86.151C79.4638 86.3091 79.8917 86.1366 80.0498 85.7662C81.0515 83.4209 82.3156 81.1194 83.81 78.9235C84.1615 78.407 84.5308 77.8883 84.9075 77.3828C85.1476 77.0601 85.0803 76.6037 84.7585 76.3622C84.4334 76.1226 83.978 76.1885 83.738 76.5113C83.3485 77.0326 82.9668 77.5694 82.6039 78.1027C81.0563 80.3767 79.745 82.7626 78.7073 85.1937C78.5712 85.5198 78.6866 85.8904 78.9686 86.0823ZM90.6252 70.3199C90.8891 70.4995 91.2507 70.4903 91.5071 70.2726C94.0484 68.1172 96.7985 66.4082 99.6783 65.1899C100.048 65.0333 100.222 64.6064 100.067 64.2349C99.9101 63.8648 99.4833 63.6907 99.1118 63.8464C96.0956 65.121 93.2206 66.9084 90.5651 69.1597C90.2573 69.42 90.2206 69.8791 90.4808 70.1869C90.5234 70.2384 90.5708 70.2829 90.6252 70.3199ZM124.676 88.1335C124.941 88.314 125.303 88.3034 125.558 88.0848C125.865 87.8236 125.9 87.3635 125.639 87.0571C123.576 84.6403 122.204 81.7024 121.668 78.5603C121.601 78.1634 121.225 77.897 120.828 77.964C120.431 78.0309 120.165 78.4073 120.232 78.8041C120.812 82.2052 122.299 85.3864 124.532 88.0029C124.574 88.0543 124.622 88.0974 124.676 88.1335ZM132.752 93.6258C132.806 93.6628 132.867 93.6938 132.933 93.7141C136.605 94.9327 140.222 94.7959 143.118 93.3277C143.477 93.1452 143.62 92.7072 143.438 92.3481C143.255 91.989 142.817 91.8462 142.458 92.0287C139.913 93.3195 136.692 93.4274 133.392 92.3313C133.01 92.2044 132.598 92.4117 132.471 92.7932C132.366 93.1097 132.489 93.4471 132.752 93.6258ZM108.542 62.7867C108.676 62.878 108.841 62.9245 109.014 62.9097C112.052 62.6484 115.305 62.7933 118.682 63.3412C119.079 63.4054 119.453 63.135 119.518 62.7375C119.582 62.3401 119.311 61.9661 118.914 61.9019C115.418 61.3341 112.044 61.1852 108.888 61.4571C108.487 61.4908 108.189 61.8439 108.224 62.2456C108.245 62.4739 108.366 62.667 108.542 62.7867ZM121.206 69.5059C121.266 69.5467 121.335 69.5788 121.408 69.6024C121.794 69.7176 122.2 69.4981 122.316 69.1128C123.003 66.809 124.066 64.5893 125.476 62.5177C125.894 61.9035 126.35 61.2943 126.826 60.7092C127.08 60.3983 127.034 59.9379 126.721 59.6839C126.412 59.4327 125.949 59.4756 125.695 59.7888C125.192 60.406 124.713 61.0487 124.271 61.6992C122.776 63.8951 121.647 66.2499 120.918 68.6966C120.825 69.0072 120.951 69.332 121.206 69.5059ZM147.488 85.3517C147.593 85.423 147.717 85.4687 147.852 85.477C148.255 85.5014 148.6 85.1975 148.625 84.7954C148.826 81.5727 147.694 78.239 145.353 75.1545C145.111 74.8347 144.652 74.7713 144.333 75.0155C144.012 75.2588 143.949 75.7167 144.193 76.0361C146.322 78.8389 147.351 81.8373 147.172 84.7057C147.153 84.9706 147.283 85.2121 147.488 85.3517ZM127.951 65.6788C128.004 65.7149 128.062 65.744 128.125 65.7662L128.455 65.8808C131.644 66.9932 134.507 68.3085 136.964 69.7946C137.309 70.0026 137.757 69.8931 137.965 69.5485C138.173 69.2039 138.062 68.7546 137.719 68.5476C135.176 67.011 132.221 65.6498 128.936 64.5047L128.601 64.3886C128.22 64.2581 127.806 64.4607 127.674 64.8406C127.564 65.1557 127.686 65.4983 127.951 65.6788ZM133.251 54.3588C133.484 54.5175 133.799 54.5317 134.052 54.3707C136.651 52.7184 139.602 51.3383 142.823 50.2679C143.204 50.1418 143.41 49.7284 143.284 49.3464C143.158 48.9644 142.746 48.7572 142.363 48.8847C139.029 49.9924 135.97 51.4234 133.27 53.1399C132.93 53.3563 132.83 53.8068 133.045 54.1452C133.101 54.2342 133.172 54.3047 133.251 54.3588Z" fill="#FF725E"/>
<path d="M88.8806 137.268C89.1193 137.431 89.4447 137.442 89.6988 137.27C90.0316 137.045 90.1193 136.592 89.8953 136.257C88.9823 134.907 88.1055 133.542 87.2856 132.202C87.0757 131.859 86.6262 131.751 86.2832 131.961C85.9403 132.171 85.8311 132.619 86.0423 132.963C86.8742 134.322 87.763 135.705 88.6881 137.074C88.7407 137.153 88.8066 137.218 88.8806 137.268Z" fill="#FF725E"/>
</g>
<path d="M235.821 319.806C236.234 319.806 236.596 319.502 236.655 319.079L250.726 219.632C250.732 219.588 250.734 219.544 250.734 219.5C250.734 219.446 250.716 213.978 254.623 210.132C258.743 206.081 262.862 206.903 263.034 206.94C263.488 207.038 263.937 206.75 264.037 206.295C264.136 205.841 263.851 205.394 263.399 205.292C263.191 205.245 258.242 204.208 253.439 208.93C249.209 213.094 249.049 218.727 249.047 219.456L234.986 318.843C234.921 319.304 235.243 319.731 235.704 319.797C235.741 319.802 235.782 319.806 235.821 319.806Z" fill="#FF725E"/>
<path d="M355.699 121.167C355.699 121.167 346.67 128.972 342.543 152.046C338.418 175.122 337.192 184.04 337.192 184.04L338.975 187.052L355.363 181.59C355.363 181.59 353.803 167.21 353.914 158.068C354.028 148.926 355.699 121.167 355.699 121.167Z" fill="#FF725E"/>
<path d="M352.191 278.347L347.517 319.034L309.673 318.877C309.673 318.877 307.868 316.508 311.076 314.978C313.366 313.887 315.321 314.061 317.532 312.948C319.742 311.837 325.402 280.232 325.402 280.232L352.191 278.347Z" fill="white"/>
<path d="M347.517 320C348.009 320 348.422 319.632 348.478 319.142L353.152 278.455C353.184 278.17 353.09 277.885 352.89 277.675C352.691 277.468 352.411 277.358 352.124 277.38L325.334 279.262C324.892 279.293 324.527 279.62 324.449 280.058C324.436 280.134 323.08 287.69 321.461 295.437C318.563 309.301 317.357 311.707 317.018 312.119C316.03 312.602 315.08 312.813 314.073 313.034C312.997 313.272 311.885 313.517 310.659 314.101C309.338 314.731 308.54 315.587 308.283 316.646C307.925 318.122 308.801 319.328 308.903 319.459C309.085 319.699 309.367 319.839 309.669 319.841L347.514 319.998C347.514 320 347.516 320 347.517 320ZM351.097 279.394L346.656 318.061L310.247 317.909C310.161 317.685 310.093 317.389 310.167 317.092C310.313 316.518 310.968 316.099 311.493 315.849C312.52 315.359 313.477 315.148 314.492 314.925C315.595 314.682 316.736 314.431 317.967 313.811C318.639 313.473 319.765 312.908 323.244 296.371C324.622 289.825 325.827 283.3 326.221 281.144L351.097 279.394Z" fill="#FF725E"/>
<path d="M308.153 319.517L349.074 319.706L348.625 304.76C341.913 305.387 335.751 313.119 328.97 311.319C325.078 310.309 321.66 306.182 317.918 306.341C317.636 309.676 317.243 311.971 316.662 312.315C314.266 313.649 312.145 313.468 309.673 314.758C306.196 316.651 308.153 319.517 308.153 319.517Z" fill="#FF725E"/>
<path d="M311.883 278.347L307.209 319.034L269.364 318.877C269.364 318.877 267.559 316.508 270.767 314.978C273.057 313.887 275.013 314.061 277.223 312.948C279.433 311.837 285.093 280.232 285.093 280.232L311.883 278.347Z" fill="white"/>
<path d="M307.211 320C307.702 320 308.116 319.632 308.171 319.142L312.845 278.455C312.878 278.17 312.783 277.885 312.584 277.675C312.384 277.468 312.104 277.358 311.817 277.38L285.028 279.262C284.585 279.293 284.221 279.62 284.143 280.058C284.129 280.134 282.773 287.69 281.154 295.437C278.256 309.301 277.051 311.707 276.713 312.119C275.725 312.602 274.775 312.813 273.768 313.034C272.693 313.272 271.58 313.517 270.354 314.101C269.033 314.731 268.233 315.587 267.978 316.646C267.62 318.122 268.496 319.328 268.598 319.459C268.78 319.699 269.062 319.839 269.364 319.841L307.209 319.998C307.207 320 307.209 320 307.211 320ZM310.789 279.394L306.348 318.061L269.938 317.909C269.852 317.685 269.785 317.389 269.859 317.092C270.004 316.518 270.659 316.099 271.185 315.849C272.211 315.359 273.169 315.148 274.184 314.925C275.286 314.682 276.428 314.431 277.659 313.811C278.331 313.473 279.457 312.908 282.936 296.371C284.313 289.825 285.519 283.3 285.912 281.144L310.789 279.394Z" fill="#FF725E"/>
<path d="M267.848 319.517L308.77 319.706L308.32 304.76C301.608 305.387 295.448 313.119 288.665 311.319C284.773 310.309 281.355 306.182 277.613 306.341C277.331 309.676 276.938 311.971 276.359 312.315C273.963 313.649 271.842 313.468 269.368 314.758C265.891 316.651 267.848 319.517 267.848 319.517Z" fill="#FF725E"/>
<path d="M355.346 181.611C355.346 181.611 351.786 161.549 352.339 150.121C352.894 138.693 356.366 121.45 356.366 121.45L368.134 114.527L384.874 109.531L408.432 114.147L419.678 190.274L361.98 193.038L355.346 181.611Z" fill="white"/>
<path d="M361.981 193.952C361.997 193.952 362.01 193.952 362.025 193.95L419.723 191.186C419.979 191.174 420.221 191.052 420.385 190.853C420.548 190.654 420.619 190.396 420.582 190.141L409.336 114.014C409.28 113.633 408.988 113.327 408.608 113.253L385.051 108.636C384.906 108.607 384.757 108.614 384.615 108.658L367.875 113.654C367.804 113.676 367.736 113.705 367.674 113.742L355.906 120.665C355.683 120.797 355.526 121.017 355.474 121.272C355.438 121.444 351.982 138.713 351.429 150.077C350.879 161.477 354.303 180.948 354.45 181.772C354.469 181.877 354.506 181.978 354.56 182.071L361.196 193.498C361.357 193.78 361.657 193.952 361.981 193.952ZM418.63 189.411L362.493 192.101L356.218 181.294C355.887 179.388 352.736 160.828 353.251 150.165C353.751 139.895 356.664 124.678 357.182 122.03L368.501 115.37L384.921 110.47L407.624 114.919L418.63 189.411Z" fill="#FF725E"/>
<path d="M373.954 105.827C371.807 106.713 367.978 107.988 367.978 107.988C367.981 108.815 369.862 117.587 369.862 117.587C369.862 117.587 372.427 121.676 378.802 118.742C385.176 115.811 384.958 111.13 384.958 111.13L380.428 100.68C380.428 100.678 376.103 104.943 373.954 105.827Z" fill="white"/>
<path d="M374.525 120.708C375.804 120.708 377.355 120.411 379.182 119.57C386.036 116.417 385.879 111.303 385.869 111.086C385.864 110.977 385.839 110.867 385.795 110.766L381.264 100.315C381.145 100.038 380.896 99.8387 380.601 99.7813C380.305 99.7239 380.001 99.8168 379.787 100.028C378.618 101.179 375.233 104.314 373.607 104.982H373.605C371.513 105.847 367.727 107.108 367.69 107.12C367.315 107.245 367.063 107.596 367.065 107.99C367.069 108.846 368.524 115.696 368.97 117.777C368.992 117.881 369.032 117.981 369.09 118.07C369.171 118.199 369.924 119.345 371.564 120.093C372.296 120.426 373.281 120.708 374.525 120.708ZM384.044 111.314C384.008 112.071 383.563 115.546 378.419 117.912C373.426 120.21 371.153 117.773 370.714 117.211C369.99 113.83 369.232 110.121 368.977 108.613C370.194 108.199 372.688 107.336 374.299 106.671C375.979 105.98 378.666 103.598 380.111 102.245L384.044 111.314Z" fill="#FF725E"/>
<path d="M277.926 297.523L311.697 301.913L331.886 224.551C331.886 224.551 354.089 222.948 369.091 216.949C384.092 210.949 390.49 190.548 390.49 190.548L306.481 198.548C306.481 198.548 308.084 194.349 299.281 206.35C290.482 218.349 277.926 297.523 277.926 297.523Z" fill="#FF725E"/>
<path d="M404.813 113.92C419.082 109.462 432.342 133.261 434.465 141.903C439.261 161.411 440.486 178.689 431.233 185.269C416.389 195.821 362.693 195.532 362.693 195.532L354.532 180.362C354.532 180.362 400.352 173.562 405.815 168.1C414.68 159.236 390.543 118.381 404.813 113.92Z" fill="#FF725E"/>
<path d="M336.476 189.345C337.831 187.632 355.497 181.583 355.497 181.583L362.02 194.298C362.02 194.298 346.012 194.735 343.925 193.97C341.838 193.202 353.666 191.238 353.666 191.238C353.666 191.238 339.764 193.874 338.866 193.172C337.966 192.473 350.069 188.435 350.069 188.435C350.069 188.435 335.119 191.059 336.476 189.345Z" fill="white"/>
<path d="M353.019 195.341C356.889 195.341 360.739 195.247 362.044 195.211C362.359 195.203 362.646 195.034 362.804 194.764C362.963 194.494 362.975 194.161 362.831 193.883L356.308 181.167C356.101 180.764 355.63 180.575 355.201 180.72C355.157 180.735 350.719 182.257 346.173 183.969C336.765 187.511 336.062 188.401 335.762 188.781C335.434 189.195 335.385 189.69 335.632 190.103C336 190.72 336.679 191.125 341.472 190.605C341.025 190.789 340.625 190.96 340.274 191.118C338.576 191.882 338.028 192.3 337.923 192.913C337.861 193.285 338.007 193.661 338.31 193.894C338.629 194.144 338.983 194.421 342.784 193.947C342.833 194.225 343.017 194.61 343.612 194.83C344.718 195.233 348.88 195.341 353.019 195.341ZM360.545 193.422C356.271 193.518 350.711 193.56 347.269 193.42C348.193 193.205 349.264 192.979 350.381 192.76C352.362 192.413 353.816 192.138 353.838 192.133C354.329 192.04 354.654 191.569 354.566 191.076C354.478 190.583 354.01 190.254 353.517 190.336C353.497 190.34 351.874 190.61 349.951 190.985C347.205 191.464 344.551 191.88 342.558 192.131C344.703 191.269 347.659 190.2 350.359 189.3C350.812 189.148 351.072 188.673 350.956 188.211C350.839 187.748 350.383 187.454 349.914 187.535C345.863 188.246 341.246 188.872 338.723 188.999C341.743 187.532 348.553 184.943 355.044 182.701L360.545 193.422Z" fill="#FF725E"/>
<path d="M319.987 299.284L352.189 303.965L372.485 229.304C372.485 229.304 395.994 227.496 410.648 220.692C428.04 212.619 420.948 190.973 420.948 190.973L347.086 199.347C347.086 199.347 348.688 195.147 339.886 207.148C331.088 219.151 319.987 299.284 319.987 299.284Z" fill="#FF725E"/>
<path d="M240.661 196.934H436.041V205.238H240.663V196.934H240.661Z" fill="white"/>
<path d="M240.662 206.15H436.041C436.544 206.15 436.953 205.741 436.953 205.238V196.934C436.953 196.431 436.544 196.022 436.041 196.022H240.663C240.16 196.022 239.752 196.431 239.752 196.934V205.238C239.75 205.741 240.159 206.15 240.662 206.15ZM435.129 204.325H241.575V197.846H435.129V204.325Z" fill="#FF725E"/>
<path d="M392.043 231.236C392.879 231.236 393.734 231.227 394.6 231.211C407.793 230.939 417.566 228.661 423.649 224.443C434.758 216.739 437.679 204.374 440.504 192.417C441.407 188.589 442.262 184.974 443.373 181.529C444.543 177.904 446.102 173.986 447.611 170.195C451.301 160.928 454.485 152.924 452.093 149.579C451.299 148.472 449.999 147.953 448.226 148.043C440.367 148.438 430.872 148.046 430.778 148.043C430.276 148.016 429.849 148.412 429.827 148.916C429.805 149.419 430.197 149.844 430.7 149.866C430.796 149.87 440.374 150.265 448.317 149.866C449.994 149.782 450.457 150.429 450.608 150.641C451.372 151.709 451.257 154.042 450.266 157.578C449.302 161.014 447.657 165.146 445.916 169.52C444.396 173.338 442.824 177.286 441.637 180.968C440.504 184.482 439.641 188.133 438.728 191.996C435.982 203.619 433.143 215.638 422.608 222.942C408.759 232.546 377.196 228.597 376.878 228.556C376.38 228.492 375.921 228.845 375.856 229.345C375.792 229.844 376.145 230.302 376.645 230.366C376.718 230.376 383.462 231.236 392.043 231.236Z" fill="#FF725E"/>
<path d="M442.234 318.955C442.274 318.955 442.315 318.951 442.357 318.946C442.818 318.879 443.139 318.45 443.071 317.989L428.585 218.599C428.581 217.859 428.414 212.228 424.058 208.069C419.124 203.356 414.049 204.389 413.837 204.435C413.381 204.533 413.092 204.984 413.19 205.439C413.29 205.895 413.739 206.184 414.195 206.086C414.37 206.049 418.632 205.222 422.892 209.289C426.916 213.131 426.898 218.592 426.896 218.646C426.896 218.69 426.898 218.735 426.905 218.779L441.401 318.23C441.46 318.652 441.82 318.955 442.234 318.955Z" fill="#FF725E"/>
<path d="M263.708 191.954H333.901C334.171 191.954 334.426 191.835 334.6 191.629C334.774 191.423 334.847 191.149 334.801 190.884L325.894 140.073C325.818 139.635 325.438 139.318 324.996 139.318C324.994 139.318 324.994 139.318 324.992 139.318L251.92 139.58C251.642 139.581 251.38 139.708 251.208 139.926C251.035 140.144 250.971 140.429 251.035 140.699L262.823 191.249C262.916 191.662 263.284 191.954 263.708 191.954ZM332.815 190.129H264.433L253.07 141.402L324.227 141.147L332.815 190.129Z" fill="#FF725E"/>
<path d="M263.735 196.492H338.162C338.666 196.492 339.074 196.083 339.074 195.58V191.154C339.074 190.651 338.666 190.242 338.162 190.242H263.735C263.231 190.242 262.823 190.651 262.823 191.154V195.58C262.823 196.083 263.231 196.492 263.735 196.492ZM337.249 194.666H264.646V192.066H337.249V194.666Z" fill="#FF725E"/>
<path d="M292.833 172.066C296.498 172.066 299.48 169.707 299.48 166.808C299.48 163.91 296.498 161.553 292.833 161.553C289.165 161.553 286.181 163.91 286.181 166.808C286.183 169.707 289.167 172.066 292.833 172.066ZM292.833 163.379C295.492 163.379 297.655 164.917 297.655 166.808C297.655 168.701 295.492 170.241 292.833 170.241C290.171 170.241 288.007 168.701 288.007 166.808C288.008 164.917 290.173 163.379 292.833 163.379Z" fill="#FF725E"/>
<path d="M418.218 172.576C418.34 172.576 418.461 172.549 418.578 172.492C418.976 172.292 419.137 171.81 418.939 171.411C417.76 169.054 415.552 167.164 412.877 166.225C410.087 165.248 407.171 165.4 404.665 166.653C404.267 166.852 404.106 167.335 404.306 167.733C404.505 168.132 404.988 168.292 405.386 168.093C407.5 167.036 409.971 166.913 412.345 167.745C414.628 168.545 416.507 170.145 417.5 172.13C417.639 172.412 417.922 172.576 418.218 172.576Z" fill="white"/>
<path d="M332.513 224.608C332.841 224.608 333.129 224.368 333.18 224.034C334.09 218.013 338.364 206.321 344.564 205.247C344.932 205.183 345.179 204.833 345.115 204.467C345.051 204.1 344.701 203.852 344.335 203.916C341.15 204.469 338.151 207.332 335.662 212.202C333.504 216.425 332.256 221.106 331.844 223.833C331.789 224.201 332.042 224.546 332.412 224.602C332.445 224.607 332.479 224.608 332.513 224.608Z" fill="white"/>
<path d="M382.092 100.278C382.717 93.3394 376.999 87.1508 369.321 86.4584C361.643 85.7712 354.909 90.8353 354.288 97.7787C353.663 104.72 359.38 110.906 367.058 111.596C374.736 112.289 381.471 107.221 382.092 100.278Z" fill="white"/>
<path d="M368.466 112.574C371.873 112.574 375.131 111.515 377.768 109.53C380.816 107.235 382.674 103.978 382.998 100.361C383.324 96.7436 382.078 93.2094 379.487 90.4063C376.921 87.6303 373.339 85.9046 369.4 85.55C365.46 85.197 361.625 86.2558 358.606 88.5286C355.557 90.8234 353.699 94.0807 353.377 97.6976C352.708 105.127 358.809 111.772 366.975 112.507C367.475 112.552 367.973 112.574 368.466 112.574ZM367.917 87.3095C368.354 87.3095 368.795 87.3297 369.238 87.3686C372.725 87.6826 375.891 89.2007 378.148 91.6458C380.382 94.0638 381.46 97.1016 381.181 100.197C380.904 103.294 379.302 106.09 376.671 108.071C374.011 110.072 370.627 111.002 367.139 110.688C359.974 110.043 354.616 104.288 355.194 97.8597C355.471 94.7629 357.073 91.9666 359.704 89.9859C362.026 88.2399 364.901 87.3095 367.917 87.3095Z" fill="#FF725E"/>
<path d="M383.914 95.8802C384.057 94.0093 382.671 92.3342 380.813 92.1417C378.956 91.9492 377.33 93.3102 377.186 95.1811C377.039 97.0521 378.426 98.7272 380.287 98.9197C382.144 99.1122 383.767 97.7512 383.914 95.8802Z" fill="white"/>
<path d="M380.639 99.8502C381.62 99.8502 382.559 99.5125 383.319 98.8792C384.198 98.1464 384.732 97.1062 384.823 95.9495V95.9478C385.004 93.5889 383.248 91.4748 380.907 91.2316C379.764 91.1134 378.653 91.4511 377.777 92.1823C376.897 92.9168 376.365 93.9553 376.277 95.1103C376.093 97.4676 377.849 99.5851 380.193 99.8265C380.342 99.8434 380.49 99.8502 380.639 99.8502ZM383.003 95.8094C382.951 96.4696 382.648 97.0623 382.15 97.4777C381.657 97.888 381.029 98.0788 380.38 98.0113C379.013 97.8711 377.989 96.6334 378.098 95.2522C378.148 94.5919 378.45 93.9992 378.947 93.5838C379.442 93.1718 380.07 92.981 380.72 93.0485C382.084 93.1904 383.108 94.4281 383.003 95.8094Z" fill="#FF725E"/>
<path d="M376.945 96.6557C378.581 97.1234 375.476 95.9718 374.579 95.857C371.57 95.4618 368.293 95.2187 365.238 95.0684C358.016 94.7121 339.73 91.2049 347.548 79.0184C351.771 72.4363 355.696 80.5465 360.295 79.0572C363.308 78.0795 364.135 74.1046 366.847 73.3464C374.407 71.2306 375.064 78.115 380.827 79.9961C383.672 80.9248 387.598 79.2835 388.726 83.3057C389.858 87.3549 387.012 98.8069 383.627 101.181C381.811 102.454 384.359 94.6462 382.44 93.2261C378.917 90.6207 376.065 96.4041 376.945 96.6557Z" fill="#FF725E"/>
<path d="M352.28 296.386C352.613 296.386 352.901 296.142 352.949 295.804C352.999 295.434 352.741 295.093 352.373 295.042L323.307 291.018C322.938 290.966 322.596 291.224 322.546 291.594C322.495 291.964 322.753 292.305 323.122 292.356L352.187 296.38C352.218 296.385 352.25 296.386 352.28 296.386Z" fill="white"/>
<path d="M311.884 292.363C312.217 292.363 312.507 292.116 312.553 291.777C312.602 291.407 312.343 291.068 311.973 291.017L279.716 286.679C279.348 286.629 279.007 286.889 278.957 287.258C278.908 287.628 279.166 287.968 279.536 288.018L311.793 292.356C311.823 292.361 311.854 292.363 311.884 292.363Z" fill="white"/>
<g clip-path="url(#clip1_1165_6210)">
<path d="M0.5 187.859V150.592H71.1433V187.859H0.5Z" stroke="#FFE5E1"/>
<path d="M33.7441 120.2V82.9336H92.9743V120.2H33.7441Z" fill="#FFE5E1" stroke="#FFE5E1"/>
<path d="M40.799 90.5654H85.918V88.0309H40.799V90.5654Z" fill="white"/>
<path d="M40.799 95.1353H85.918V92.6007H40.799V95.1353Z" fill="white"/>
<path d="M40.799 99.8481H85.918V97.3136H40.799V99.8481Z" fill="white"/>
<path d="M40.799 105.299H85.918V102.765H40.799V105.299Z" fill="white"/>
<path d="M40.799 109.869H85.918V107.335H40.799V109.869Z" fill="white"/>
<path d="M40.799 114.582H85.918V112.047H40.799V114.582Z" fill="white"/>
<path d="M124.866 283.558L129.588 318.083L156.191 318.383C156.191 318.383 157.571 316.629 155.183 315.445C153.48 314.601 152.012 314.707 150.367 313.848C148.723 312.988 145.839 288.332 145.839 288.332L124.866 283.558Z" fill="white"/>
<path d="M156.191 318.985C156.375 318.985 156.549 318.9 156.662 318.755C156.734 318.662 157.373 317.811 157.135 316.757C156.964 315.999 156.397 315.376 155.449 314.907C154.549 314.461 153.725 314.265 152.928 314.076C152.163 313.895 151.439 313.723 150.686 313.336C149.728 312.213 147.778 299.748 146.434 288.261C146.405 288.009 146.22 287.801 145.971 287.746L124.997 282.972C124.807 282.928 124.604 282.982 124.459 283.114C124.314 283.247 124.243 283.443 124.27 283.637L128.991 318.162C129.031 318.458 129.281 318.677 129.579 318.681L156.182 318.981C156.186 318.985 156.189 318.985 156.191 318.985ZM145.294 288.823C145.473 290.321 146.115 295.579 146.893 300.856C148.791 313.701 149.636 314.143 150.09 314.38C150.992 314.851 151.836 315.052 152.653 315.244C153.418 315.425 154.141 315.597 154.917 315.982C155.52 316.281 155.873 316.629 155.963 317.014C156.032 317.304 155.942 317.588 155.853 317.779L130.11 317.488L125.577 284.335L145.294 288.823Z" fill="#FF725E"/>
<path d="M157.325 318.883L129.064 318.724L128.085 307.509C133.11 308.056 136.709 313.765 141.813 312.493C144.743 311.781 147.352 308.726 150.155 308.89C150.327 311.393 150.596 313.118 151.026 313.383C152.808 314.412 154.398 314.3 156.239 315.297C158.826 316.757 157.325 318.883 157.325 318.883Z" fill="#FF725E"/>
<path d="M124.865 296.991H147.752L137.58 178.324L114.149 179.379L124.865 296.991Z" fill="#FF725E"/>
<path d="M178.396 131.507C178.396 131.507 184.551 127.039 183.104 120.785C182.981 120.253 181.1 124.28 181.1 124.28C181.1 124.28 186.903 114.637 185.72 114.098C184.534 113.558 181.128 119.422 181.128 119.422L177.226 118.727C177.226 118.727 172.875 117.948 171.944 119.475C171.012 120.999 169.379 127.566 169.379 127.566L167.034 134.331L174.349 140.989L178.396 131.507Z" fill="white"/>
<path d="M174.347 141.641C174.393 141.641 174.44 141.636 174.486 141.626C174.692 141.582 174.862 141.44 174.945 141.246L178.927 131.921C179.897 131.168 185.012 126.874 183.791 120.885C183.931 120.628 184.073 120.366 184.213 120.103C186.826 115.204 186.589 114.441 186.474 114.073C186.393 113.815 186.221 113.614 185.99 113.507C185.119 113.111 184.094 113.886 182.452 116.18C181.748 117.165 181.125 118.17 180.801 118.705L177.341 118.088C176.541 117.945 172.496 117.325 171.39 119.137C170.446 120.68 168.957 126.577 168.756 127.382L166.419 134.12C166.335 134.365 166.404 134.638 166.595 134.812L173.91 141.47C174.031 141.582 174.187 141.641 174.347 141.641ZM182.668 122.884C182.54 127.622 178.065 130.945 178.013 130.983C177.918 131.052 177.844 131.145 177.799 131.253L174.107 139.897L167.784 134.14L169.989 127.779C169.996 127.761 170.001 127.742 170.006 127.724C170.453 125.924 171.774 120.993 172.495 119.813C172.971 119.032 175.529 119.083 177.11 119.365L181.012 120.061C181.28 120.108 181.551 119.983 181.687 119.748C182.913 117.638 184.352 115.677 185.146 114.978C184.86 115.979 183.891 117.98 182.699 120.177C182.378 120.373 182.045 120.922 181.392 122.202C180.938 123.092 180.514 123.997 180.51 124.005C180.363 124.318 180.488 124.691 180.794 124.853C181.098 125.015 181.478 124.91 181.655 124.615C181.664 124.603 182.082 123.906 182.668 122.884Z" fill="#FF725E"/>
<path d="M123.857 128.267C132.389 122.752 145.32 149.803 151.141 151.441C153.547 152.118 161.056 140.615 167.277 133.459C168.461 135.99 170.87 137.903 174.511 137.903C175.087 137.903 175.625 137.846 176.139 137.757C174.379 150.911 165.367 167.217 154.417 168.644C135.884 171.059 115.324 133.783 123.857 128.267Z" fill="white"/>
<path d="M152.637 169.453C153.255 169.453 153.88 169.414 154.508 169.333C159.726 168.654 164.983 164.62 169.307 157.979C173.111 152.137 175.923 144.612 176.828 137.851C176.857 137.632 176.781 137.412 176.62 137.259C176.462 137.105 176.239 137.037 176.021 137.076C175.497 137.167 175.004 137.213 174.513 137.213C170.411 137.213 168.615 134.68 167.907 133.169C167.808 132.956 167.608 132.809 167.375 132.775C167.142 132.743 166.909 132.829 166.756 133.007C164.726 135.342 162.573 138.118 160.493 140.805C158.328 143.598 156.283 146.235 154.569 148.13C152.077 150.885 151.4 150.796 151.33 150.776C149.372 150.225 146.158 145.997 142.756 141.521C139.816 137.652 136.484 133.268 133.261 130.357C129.357 126.83 126.159 125.957 123.481 127.686C120.649 129.518 120.424 134.385 122.868 141.041C125.367 147.849 130.076 155.147 135.464 160.563C139.61 164.727 145.817 169.453 152.637 169.453ZM175.322 138.564C174.324 144.893 171.674 151.801 168.145 157.221C164.044 163.518 159.138 167.331 154.329 167.957C141.976 169.566 128.654 152.78 124.169 140.561C122.001 134.655 122.027 130.276 124.234 128.849C129.028 125.751 136.027 134.96 141.651 142.358C145.353 147.226 148.548 151.431 150.954 152.108C152.935 152.665 156.121 148.702 161.587 141.651C163.434 139.268 165.336 136.815 167.147 134.675C168.697 137.181 171.327 138.596 174.511 138.596C174.781 138.598 175.05 138.588 175.322 138.564Z" fill="#FF725E"/>
<path d="M84.5802 283.749L78.6093 318.079L105.627 318.385C105.627 318.385 107.006 316.63 104.62 315.447C102.917 314.602 101.449 314.709 99.8045 313.849C98.1598 312.99 103.636 288.088 103.636 288.088L84.5802 283.749Z" fill="white"/>
<path d="M105.626 318.984C105.81 318.984 105.984 318.9 106.097 318.755C106.17 318.662 106.808 317.811 106.57 316.757C106.4 315.999 105.832 315.376 104.885 314.906C103.985 314.461 103.161 314.265 102.364 314.076C101.618 313.898 100.91 313.731 100.175 313.365C100.022 312.936 99.8242 310.795 101.797 300.182C102.921 294.132 104.206 288.274 104.22 288.215C104.291 287.892 104.088 287.575 103.767 287.501L84.7131 283.163C84.5527 283.125 84.3838 283.158 84.247 283.249C84.1102 283.34 84.0174 283.483 83.9887 283.646L78.0178 317.976C77.9874 318.15 78.0347 318.327 78.1479 318.462C78.261 318.598 78.4265 318.677 78.6021 318.679L105.619 318.984C105.623 318.984 105.625 318.984 105.626 318.984ZM102.921 288.539C102.555 290.234 101.459 295.378 100.511 300.536C99.8344 304.226 99.3632 307.206 99.1116 309.391C98.6338 313.549 99.034 314.123 99.5254 314.379C100.427 314.851 101.271 315.052 102.089 315.244C102.854 315.425 103.576 315.597 104.353 315.982C104.956 316.281 105.309 316.629 105.398 317.014C105.467 317.306 105.378 317.588 105.288 317.779L79.3197 317.485L85.0609 284.471L102.921 288.539Z" fill="#FF725E"/>
<path d="M106.762 318.883L77.6541 318.55L79.5639 307.646C84.5891 308.193 86.146 313.765 91.2506 312.495C94.1803 311.783 96.7891 308.728 99.5939 308.892C99.7661 311.394 100.035 313.12 100.465 313.385C102.247 314.413 103.837 314.302 105.678 315.298C108.263 316.757 106.762 318.883 106.762 318.883Z" fill="#FF725E"/>
<path d="M103.064 295.818L82.3345 294.376L94.2678 208.206C94.2678 208.206 95.2623 188.668 98.7645 184.097C100.865 181.354 129.064 179.38 129.064 179.38L103.064 295.818Z" fill="#FF725E"/>
<path d="M122.363 108.102C123.413 111.419 122.723 115.28 120.208 118.212C116.446 122.639 110.011 123.281 105.84 119.657C101.679 116.045 101.352 109.531 105.114 105.103C105.896 104.181 106.789 103.437 107.763 102.859C111.461 100.6 116.193 100.796 119.481 103.658C120.885 104.874 121.848 106.414 122.363 108.102Z" fill="white"/>
<path d="M112.161 122.7C112.433 122.7 112.707 122.69 112.982 122.67C115.979 122.442 118.733 121.02 120.736 118.663C123.303 115.672 124.179 111.545 123.026 107.896C122.46 106.039 121.391 104.392 119.936 103.133C116.494 100.137 111.456 99.7893 107.4 102.266C106.344 102.891 105.394 103.697 104.581 104.654C100.583 109.36 100.942 116.327 105.382 120.182C107.27 121.82 109.651 122.7 112.161 122.7ZM113.166 102.015C115.294 102.015 117.372 102.746 119.024 104.183C120.284 105.272 121.207 106.697 121.697 108.305C121.697 108.307 121.699 108.31 121.699 108.312C122.71 111.506 121.937 115.127 119.679 117.758C117.918 119.831 115.503 121.081 112.877 121.28C110.441 121.466 108.104 120.701 106.295 119.13C102.428 115.772 102.135 109.681 105.644 105.552C106.356 104.712 107.189 104.007 108.117 103.457C109.7 102.491 111.449 102.015 113.166 102.015Z" fill="#FF725E"/>
<path d="M101.838 118.169C99.2548 115.91 97.5713 111.822 99.3274 107.241C101.783 100.834 111.245 97.6582 113.829 99.9192C116.413 102.179 110.359 116.825 108.128 119.465C105.896 122.104 104.422 120.43 101.838 118.169Z" fill="#FF725E"/>
<path d="M122.361 106.574C118.945 107.352 106.877 103.87 103.944 101.439C107.921 96.1434 116.529 97.9232 119.573 101.045C121.78 103.305 122.096 104.537 122.361 106.574Z" fill="#FF725E"/>
<path d="M114.827 121.511C116.475 120.888 118.287 120.273 118.287 120.273C118.745 120.745 119.547 124.348 119.547 124.348C119.547 124.348 124.317 132.094 122.735 133.243C118.424 136.377 109.632 130.601 109.632 130.601L108.492 121.977C108.492 121.976 113.179 122.133 114.827 121.511Z" fill="white"/>
<path d="M119.495 134.863C120.829 134.863 122.092 134.565 123.141 133.804C124.147 133.073 123.906 131.301 122.359 128.064C121.476 126.219 120.458 124.513 120.198 124.084C119.813 122.372 119.264 120.285 118.785 119.79C118.599 119.598 118.317 119.53 118.063 119.616C118.045 119.623 116.221 120.243 114.582 120.863C113.337 121.332 109.779 121.325 108.515 121.283C108.309 121.276 108.114 121.359 107.978 121.511C107.841 121.661 107.777 121.866 107.804 122.068L108.943 130.692C108.97 130.891 109.082 131.07 109.251 131.18C109.541 131.371 114.924 134.863 119.495 134.863ZM117.949 121.123C118.21 121.828 118.595 123.264 118.871 124.496C118.888 124.572 118.916 124.643 118.957 124.709C118.967 124.728 120.063 126.511 121.008 128.451C122.746 132.019 122.32 132.683 122.317 132.689C118.845 135.212 111.736 131.082 110.277 130.184L109.286 122.683C110.757 122.7 113.726 122.666 115.073 122.156C116.139 121.758 117.285 121.354 117.949 121.123Z" fill="#FF725E"/>
<path d="M101.032 119.258C99.7573 118.139 99.6323 116.151 100.754 114.819C101.875 113.488 103.818 113.316 105.095 114.436C106.371 115.554 106.496 117.541 105.375 118.872C104.251 120.206 102.307 120.378 101.032 119.258Z" fill="white"/>
<path d="M102.989 120.69C103.084 120.69 103.177 120.687 103.271 120.68C104.294 120.602 105.23 120.12 105.905 119.319C107.268 117.702 107.109 115.277 105.552 113.914C104.806 113.259 103.847 112.94 102.854 113.014C101.831 113.092 100.897 113.573 100.223 114.373C98.8622 115.989 99.0192 118.414 100.574 119.78C101.25 120.371 102.099 120.69 102.989 120.69ZM103.134 114.39C103.69 114.39 104.217 114.588 104.637 114.958C105.63 115.827 105.723 117.382 104.845 118.426C104.413 118.939 103.816 119.248 103.168 119.297C102.55 119.344 101.954 119.145 101.49 118.737C100.498 117.865 100.406 116.308 101.284 115.267C101.714 114.755 102.309 114.446 102.957 114.397C103.016 114.392 103.075 114.39 103.134 114.39Z" fill="#FF725E"/>
<path d="M95.4766 104.637C97.5839 106.81 101.056 106.861 103.227 104.754C105.399 102.646 105.451 99.1762 103.344 97.0029C101.236 94.8297 97.7663 94.7791 95.5931 96.8864C93.4199 98.9955 93.3675 102.466 95.4766 104.637Z" fill="#FF725E"/>
<path d="M94.9968 135.393C97.6563 131.185 109.35 127.195 109.35 127.195C109.35 127.195 119.383 133.46 122.733 133.242C124.652 133.162 120.947 126.44 120.947 126.44C120.947 126.44 123.915 124.819 131.208 130.109C137.436 138.297 141.181 142.372 142.188 150.261C142.373 153.268 140.592 160.541 140.003 163.812C138.436 172.49 137.895 184.379 137.895 184.379L97.7424 185.348C97.7407 185.346 87.746 146.862 94.9968 135.393Z" fill="white"/>
<path d="M97.7403 186.04C97.7453 186.04 97.7521 186.04 97.7572 186.04L137.91 185.071C138.275 185.063 138.57 184.774 138.585 184.409C138.591 184.291 139.143 172.466 140.683 163.933C140.828 163.126 141.044 162.09 141.294 160.887C142.064 157.181 143.023 152.568 142.878 150.219C142.876 150.204 142.876 150.188 142.873 150.173C141.951 142.946 138.835 138.899 133.675 132.191C133.065 131.398 132.426 130.567 131.757 129.689C131.716 129.635 131.667 129.588 131.612 129.547C124.178 124.155 120.953 125.643 120.61 125.831C120.448 125.918 120.328 126.069 120.278 126.246C120.225 126.423 120.247 126.612 120.337 126.774C121.686 129.226 122.694 131.827 122.593 132.553C119.937 132.615 112.419 128.294 109.714 126.606C109.537 126.496 109.321 126.471 109.123 126.538C108.637 126.704 97.1679 130.657 94.4087 135.022C91.3118 139.922 90.8238 149.93 92.9616 164.769C94.5404 175.735 97.0429 185.424 97.0682 185.52C97.1493 185.828 97.4262 186.04 97.7403 186.04ZM137.233 183.7L98.2772 184.641C97.1172 179.975 89.0306 146.129 95.5823 135.763C97.8483 132.176 107.423 128.618 109.265 127.958C111.111 129.095 119.177 133.939 122.569 133.939C122.64 133.939 122.709 133.937 122.777 133.932C123.208 133.915 123.571 133.699 123.78 133.326C124.062 132.826 124.222 131.881 122.958 128.971C122.615 128.183 122.252 127.445 121.98 126.913C123.186 126.827 125.957 127.175 130.717 130.608C131.363 131.457 131.983 132.264 132.577 133.034C137.589 139.547 140.617 143.481 141.495 150.322C141.62 152.497 140.647 157.179 139.936 160.602C139.685 161.814 139.467 162.86 139.318 163.685C137.971 171.157 137.373 181.095 137.233 183.7Z" fill="#FF725E"/>
<path d="M98.6061 133.247C108.221 136.53 93.157 160.624 91.4464 167.608C91.4464 169.383 116.596 179.911 119.055 187.224C123.383 200.096 75.9925 181.443 73.6471 176.747C69.0558 167.559 87.3297 129.397 98.6061 133.247Z" fill="white"/>
<path d="M114.145 192.374C115.607 192.374 116.88 192.2 117.859 191.793C118.994 191.322 120.744 190.073 119.712 187.003C118.033 182.013 107.074 176.007 99.0722 171.622C96.1442 170.017 92.8464 168.211 92.1845 167.523C92.6877 165.695 94.0352 162.743 95.5853 159.351C99.3998 151.001 104.148 140.609 101.904 135.398C101.315 134.03 100.281 133.086 98.8308 132.592C95.506 131.457 91.4618 133.476 87.1323 138.429C82.7487 143.444 78.3584 151.144 75.3848 159.023C72.2761 167.263 71.4166 173.835 73.0258 177.055C74.2332 179.474 84.0286 184.063 93.0795 187.347C97.7146 189.031 107.735 192.373 114.145 192.374ZM96.9311 133.667C97.4208 133.667 97.9054 133.742 98.3816 133.904C99.4606 134.272 100.195 134.94 100.629 135.947C102.63 140.592 97.8294 151.102 94.3239 158.775C92.6725 162.39 91.2456 165.512 90.7728 167.442C90.7593 167.496 90.7526 167.552 90.7526 167.608C90.7526 168.555 92.1051 169.386 98.4053 172.839C105.767 176.873 116.892 182.969 118.396 187.445C119.082 189.485 118.185 190.156 117.328 190.512C116.576 190.824 115.522 190.976 114.21 190.976C109.761 190.976 102.331 189.23 93.5523 186.044C82.9682 182.202 75.0352 177.974 74.2669 176.436C72.8519 173.602 73.7553 167.277 76.6833 159.513C79.5995 151.779 83.8969 144.24 88.1775 139.341C90.5398 136.636 93.8393 133.667 96.9311 133.667Z" fill="#FF725E"/>
<path d="M137.424 195.201C138.071 194.058 128.21 189.568 126.887 189.146C127.988 189.392 138.078 192.53 137.892 191.447C137.76 190.679 125.001 186.28 125.001 186.28C125.001 186.28 130.754 188.413 130.78 186.614C130.791 185.772 120.885 183.717 120.885 183.717C120.885 183.717 115.49 182.906 113.1 181.479C112.864 181.746 111.077 187.374 108.924 190.289C116.236 193.381 123.179 194.384 123.179 194.384C123.179 194.384 129.618 199.068 130.462 198.33C131.22 197.67 125.589 193.033 125.589 193.033C125.589 193.033 134.729 197.494 135.162 196.653C135.766 195.481 126.666 191.054 126.666 191.054C126.666 191.054 137.147 195.689 137.424 195.201Z" fill="white"/>
<path d="M130.212 199.039C130.506 199.039 130.711 198.95 130.876 198.805C131.064 198.641 131.165 198.406 131.161 198.146C131.155 197.714 130.893 197.07 129.174 195.39C129.436 195.507 129.699 195.622 129.964 195.736C131.34 196.331 132.458 196.77 133.289 197.04C134.363 197.391 135.358 197.648 135.722 196.94C135.802 196.785 135.874 196.532 135.766 196.204C135.667 195.907 135.369 195.556 134.935 195.174C135.104 195.237 135.265 195.296 135.415 195.35C136.979 195.91 137.649 196.081 137.972 195.508C138.105 195.272 138.118 194.99 138.012 194.716C137.899 194.426 137.612 193.693 133.811 191.672C136.975 192.442 137.867 192.403 138.269 192.042C138.466 191.864 138.557 191.601 138.512 191.338C138.434 190.888 138.368 190.5 131.617 187.984C131.346 187.883 131.074 187.781 130.805 187.684C130.827 187.67 130.849 187.657 130.871 187.641C131.214 187.407 131.405 187.045 131.411 186.621C131.42 185.983 131.06 185.505 125.993 184.237C123.534 183.622 121.042 183.104 121.016 183.099C121.005 183.097 120.995 183.094 120.983 183.092C120.93 183.084 115.682 182.283 113.426 180.938C113.166 180.782 112.834 180.835 112.633 181.061C112.503 181.208 112.435 181.37 112.025 182.44C111.3 184.327 109.955 187.839 108.421 189.914C108.306 190.07 108.269 190.269 108.32 190.455C108.371 190.64 108.504 190.792 108.681 190.868C115.382 193.702 121.859 194.811 122.936 194.982C123.35 195.279 124.731 196.26 126.172 197.165C128.389 198.563 129.537 199.039 130.212 199.039ZM125.591 192.405C125.383 192.405 125.181 192.508 125.061 192.694C124.888 192.962 124.944 193.317 125.191 193.519C126.881 194.911 128.721 196.621 129.515 197.587C128.237 197.04 125.684 195.426 123.551 193.874C123.468 193.813 123.372 193.774 123.271 193.761C123.205 193.751 116.768 192.798 109.885 190.005C111.321 187.787 112.523 184.653 113.198 182.893C113.269 182.707 113.342 182.52 113.406 182.353C115.995 183.589 120.405 184.279 120.775 184.337C124.397 185.088 128.526 186.125 129.87 186.704C129.196 186.792 127.632 186.493 126.006 185.963C125.511 185.789 125.216 185.688 125.206 185.684C124.88 185.571 124.525 185.743 124.409 186.068C124.292 186.392 124.459 186.75 124.782 186.87C125.002 186.951 125.324 187.066 125.711 187.192C129.211 188.413 132.796 189.74 135.062 190.677C132.891 190.188 129.949 189.35 128.679 188.989C127.828 188.746 127.266 188.587 127.024 188.531C126.695 188.457 126.368 188.656 126.28 188.98C126.192 189.305 126.374 189.642 126.695 189.744C127.284 189.933 129.73 191.005 132.073 192.19C133.558 192.942 134.583 193.523 135.288 193.965C133.22 193.187 129.941 191.815 126.921 190.48C126.607 190.341 126.241 190.48 126.096 190.791C125.952 191.101 126.082 191.471 126.391 191.621C129.316 193.043 132.539 194.852 133.912 195.926C132.208 195.39 128.803 193.903 125.864 192.469C125.777 192.427 125.684 192.405 125.591 192.405Z" fill="#FF725E"/>
<path d="M126.398 176.746H66.168V215.013H126.398V176.746Z" fill="white"/>
<path d="M126.398 215.614H66.1675C65.8349 215.614 65.5664 215.346 65.5664 215.013V176.746C65.5664 176.414 65.8349 176.145 66.1675 176.145H126.398C126.73 176.145 126.999 176.414 126.999 176.746V215.013C126.999 215.344 126.73 215.614 126.398 215.614ZM66.7687 214.412H125.797V177.347H66.7687V214.412Z" fill="#FF725E"/>
<path d="M73.7228 184.876H118.842V182.342H73.7228V184.876Z" fill="#FFE5E1"/>
<path d="M73.7228 189.446H118.842V186.912H73.7228V189.446Z" fill="#FFE5E1"/>
<path d="M73.7228 194.159H118.842V191.625H73.7228V194.159Z" fill="#FFE5E1"/>
<path d="M73.7228 199.61H118.842V197.076H73.7228V199.61Z" fill="#FFE5E1"/>
<path d="M73.7228 204.18H118.842V201.646H73.7228V204.18Z" fill="#FFE5E1"/>
<path d="M73.7228 208.893H118.842V206.358H73.7228V208.893Z" fill="#FFE5E1"/>
<path d="M18.5215 163.144V112.389H52.3958V163.144H18.5215Z" stroke="#FFE5E1"/>
<path d="M52.8954 164.246H18.0211C17.6884 164.246 17.4199 163.977 17.4199 163.644V111.889C17.4199 111.557 17.6884 111.288 18.0211 111.288H52.8954C53.2281 111.288 53.4966 111.557 53.4966 111.889V163.644C53.4966 163.977 53.2264 164.246 52.8954 164.246ZM18.6222 163.043H52.2943V112.49H18.6222V163.043Z" fill="#FFE5E1"/>
<path d="M9.84476 120.033H35.2715V117.499H9.84476V120.033Z" fill="#FFE5E1"/>
<path d="M9.84476 124.603H35.2715V122.068H9.84476V124.603Z" fill="#FFE5E1"/>
<path d="M9.84476 129.314H35.2715V126.779H9.84476V129.314Z" fill="#FFE5E1"/>
<path d="M23.1065 134.767H48.5332V132.232H23.1065V134.767Z" fill="#FFE5E1"/>
<path d="M23.1065 139.336H48.5332V136.802H23.1065V139.336Z" fill="#FFE5E1"/>
<path d="M23.1065 144.047H48.5332V141.513H23.1065V144.047Z" fill="#FFE5E1"/>
</g>
<defs>
<clipPath id="clip0_1165_6210">
<rect width="86.8254" height="139.857" fill="white" transform="matrix(-0.826712 -0.562625 -0.562625 0.826712 207.541 48.8501)"/>
</clipPath>
<clipPath id="clip1_1165_6210">
<rect width="186.538" height="272.041" fill="white" transform="translate(0 46.9429)"/>
</clipPath>
</defs>
</svg>
