<svg width="12" height="11" viewBox="0 0 12 11" fill="none" xmlns="http://www.w3.org/2000/svg">
<path id="icon" d="M7.81864 2.40637L2.2325 2.40637C1.97033 2.40182 1.72044 2.29447 1.53665 2.10746C1.35286 1.92045 1.24988 1.66873 1.24988 1.40652C1.24988 1.14432 1.35286 0.8926 1.53665 0.705588C1.72044 0.518576 1.97033 0.411231 2.2325 0.406675L10.2327 0.406675C10.3641 0.406299 10.4943 0.431904 10.6158 0.482018C10.7373 0.532132 10.8476 0.605766 10.9405 0.698685C11.0335 0.791605 11.1071 0.901977 11.1572 1.02345C11.2073 1.14493 11.2329 1.27512 11.2326 1.40652L11.2326 9.40673C11.2349 9.53949 11.2107 9.67139 11.1615 9.79472C11.1123 9.91804 11.039 10.0303 10.9459 10.125C10.8529 10.2197 10.7419 10.295 10.6194 10.3463C10.4969 10.3977 10.3655 10.4241 10.2327 10.4241C10.0999 10.4241 9.96847 10.3977 9.84601 10.3463C9.72356 10.295 9.61255 10.2197 9.51948 10.125C9.42641 10.0303 9.35313 9.91804 9.30392 9.79472C9.25471 9.67139 9.23055 9.53949 9.23286 9.40673V3.82059L2.45453 10.5989C2.26699 10.7864 2.01264 10.8918 1.74742 10.8918C1.48221 10.8918 1.22785 10.7864 1.04032 10.5989C0.852781 10.4114 0.747424 10.157 0.747424 9.8918C0.747424 9.62659 0.852781 9.37223 1.04032 9.1847L7.81864 2.40637Z" fill="white"/>
</svg>
