<svg width="31" height="30" viewBox="0 0 31 30" fill="none" xmlns="http://www.w3.org/2000/svg">
<path d="M16.6428 0H16.9504V0.0292969L17.0823 0.102539L17.1848 0.219727L17.2434 0.366211L17.2581 2.37305L17.551 2.46094L17.7708 2.54883L18.0198 2.68066L18.2249 2.82715L18.386 2.97363L18.4739 3.04688L18.5764 3.16406L18.7229 3.35449L18.8547 3.57422L18.9573 3.79395L19.0598 4.10156L19.1038 4.30664L19.1184 4.42383V4.95117L19.0745 5.2002L18.9866 5.50781L18.8547 5.80078L18.6936 6.0498L18.6057 6.16699L18.4739 6.32812L18.3567 6.43066L18.1663 6.5918L17.9026 6.75293L17.6536 6.87012L17.2581 7.00195L17.2434 8.8916H18.635V7.45605L18.6643 7.33887L18.7229 7.22168L18.8401 7.0752L18.9866 6.88477L19.1477 6.67969L19.2942 6.48926L19.4993 6.22559L19.5579 6.1377H19.5872L19.6165 6.0791L19.7922 5.84473L19.9534 5.63965L19.968 5.61035H19.9973L20.0266 5.55176L20.2024 5.31738L20.3635 5.1123L20.554 4.86328L20.7444 4.62891L20.8323 4.51172L20.9495 4.35059L20.8469 4.18945L20.7004 3.92578L20.5979 3.64746L20.5393 3.39844L20.51 3.14941V2.92969L20.554 2.60742L20.6418 2.2998L20.7883 1.99219L20.9202 1.78711L21.0813 1.59668L21.2571 1.4209L21.4768 1.25977L21.7112 1.12793L22.0042 1.01074L22.2532 0.952148L22.5315 0.922852H22.7512L23.0149 0.952148L23.2932 1.02539L23.5715 1.14258L23.8059 1.27441L24.011 1.43555L24.0989 1.50879V1.53809H24.1282V1.56738H24.1575L24.26 1.68457L24.4211 1.9043L24.5383 2.10938L24.6555 2.40234L24.7141 2.63672L24.7434 2.8125V3.2666L24.6995 3.53027L24.6262 3.7793L24.5383 3.98438L24.3918 4.2334L24.2454 4.42383L24.011 4.6582H23.9817V4.6875L23.7913 4.81934L23.5569 4.95117L23.3372 5.03906L23.1467 5.09766L22.927 5.1416L22.7805 5.15625H22.4729L22.1799 5.1123L21.887 5.02441L21.7112 4.95117L21.594 5.09766L21.4036 5.34668L21.2278 5.56641L20.9348 5.94727L19.7043 7.5293L19.6165 7.64648L19.6018 7.85156V8.9502L19.719 8.99414L19.9534 9.09668L20.1145 9.18457L20.3196 9.33105L20.4954 9.49219L20.6272 9.65332L20.759 9.8584L20.8762 10.0928L20.9495 10.3418L20.9934 10.5762V10.7666H21.9163L21.9016 9.93164L21.8284 9.90234L21.6086 9.69727L21.4768 9.56543L21.3157 9.3457L21.1692 9.08203L21.0667 8.80371L21.0081 8.55469L20.9788 8.29102V8.14453L21.0081 7.85156L21.0667 7.60254L21.1692 7.32422L21.301 7.0752L21.4329 6.89941L21.5647 6.73828L21.6965 6.60645L21.9309 6.43066L22.1506 6.29883L22.429 6.18164L22.7219 6.1084L23.0149 6.0791H23.1614L23.4543 6.1084L23.5569 6.12305L25.9592 3.7207L26.1057 3.63281L26.2229 3.60352H26.3401L26.4866 3.64746L26.5745 3.70605L26.6477 3.7793L26.7356 3.91113L26.7649 4.02832V4.13086L26.7209 4.27734L26.6331 4.40918L24.4944 6.54785L24.4651 6.60645L24.5237 6.63574L24.7288 6.84082L24.8899 7.06055L24.9778 7.20703L25.095 7.4707L25.1682 7.71973L25.2122 7.9834V8.4375L25.1682 8.68652L25.095 8.93555L24.9778 9.19922L24.8313 9.43359L24.7141 9.58008L24.5383 9.77051L24.3333 9.93164L24.1428 10.0488L23.9084 10.166L23.6301 10.2539L23.425 10.2979L23.2786 10.3125H22.8831L22.8684 11.3525L22.8098 11.499L22.678 11.6455L22.5461 11.7041L22.4729 11.7188L21.0081 11.7334L20.9934 12.6416H21.9456L22.092 12.6709L22.2092 12.7295L22.3118 12.832L22.385 12.9639L22.3997 13.0078V13.2422L22.3118 13.418L22.1799 13.5352L22.0774 13.5791L21.9895 13.5938L21.0081 13.6084L20.9934 14.9854H22.8538L23.0295 15.0146L23.176 15.1025L23.2786 15.2197L23.425 15.4834L23.5129 15.6299L23.6008 15.791L23.7327 16.04L23.9231 16.377L24.0549 16.626L24.2454 16.9629L24.4358 17.3145L24.6262 17.6514L24.6995 17.7832V17.8271L25.0071 17.7686L25.1536 17.7539H25.5491L25.8567 17.7979L26.1057 17.8711L26.3694 17.9736L26.6038 18.1055L26.8088 18.252L26.9846 18.4131L27.0579 18.4863L27.2043 18.6475L27.3362 18.8379L27.468 19.0723L27.5852 19.3652L27.6584 19.6436L27.7024 20.0098V20.2002L27.6584 20.5518L27.5852 20.8301L27.468 21.123L27.3655 21.3135L27.2483 21.4893L27.1165 21.6504L27.0432 21.7383H27.0139L26.9846 21.7969L26.8674 21.8994L26.677 22.0459L26.3987 22.207L26.1057 22.3242L25.9153 22.3828L25.6956 22.4268L25.5491 22.4414H25.1682L25.051 22.9688L24.9338 23.5547L24.8606 24.0381L24.802 24.5361L24.7581 25.0049L24.7288 25.7227V26.3525L24.7581 27.041L24.8313 27.8027L24.9045 28.3154L25.0217 28.9746L25.1096 29.4287V29.6338L25.0217 29.8096L24.9485 29.8975L24.8459 29.9561L24.7727 30H12.2776L12.1018 29.8975L12.0139 29.7949L11.9407 29.6484L11.926 29.502L12.1018 28.5645L12.3508 27.2754L12.512 26.4258L12.717 25.3711L12.8489 24.6826L12.8782 24.5068L12.1604 24.624L11.5159 24.7119L10.8127 24.7852L10.1975 24.8291L9.93384 24.8438H9.43579L9.08423 24.7998L8.73267 24.7119L8.36646 24.5654L8.02954 24.3896L7.82446 24.2432L7.57544 24.0381L7.35571 23.8184L7.22388 23.6572L7.07739 23.4668L6.91626 23.2178L6.76978 22.9541L6.57935 22.5586L6.43286 22.1631L6.33032 21.8408L6.22778 21.4453L6.12524 20.9473L6.03735 20.332L5.99341 19.8779L5.96411 19.3359L5.94946 18.7646L4.49927 18.75L4.27954 18.7207L4.04517 18.6621L3.81079 18.5596L3.59106 18.4424L3.40063 18.2959L3.22485 18.1348L3.06372 17.9297L2.93188 17.7246L2.82935 17.5049L2.74146 17.2119L2.69751 16.9043V16.6992L2.72681 16.4502L2.7854 16.2012L2.87329 15.9814L3.00513 15.7324L3.18091 15.498L3.50317 15.0879L3.67896 14.8535L3.79614 14.6924H3.82544L3.85474 14.6191L4.00122 14.4287L4.2063 14.1504L4.35278 13.9453L4.52856 13.6963L4.6311 13.5498L4.95337 13.0664L5.1731 12.7295L5.36353 12.4072L5.53931 12.0996L5.71509 11.7627L5.86157 11.4551L5.97876 11.1475L6.03735 10.9131L6.1106 10.5615L6.18384 10.0635L6.22778 9.50684L6.27173 8.55469L6.33032 7.74902L6.40356 7.10449L6.5061 6.47461L6.63794 5.87402L6.79907 5.33203L6.94556 4.92188L7.12134 4.51172L7.29712 4.16016L7.48755 3.83789L7.66333 3.57422L7.80981 3.36914L7.97095 3.16406L8.07349 3.03223H8.10278L8.13208 2.97363L8.36646 2.72461L8.54224 2.54883L8.65942 2.44629L8.80591 2.31445L9.01099 2.15332L9.20142 2.00684L9.3772 1.88965L9.50903 1.59668L9.64087 1.37695L9.78735 1.18652L9.91919 1.04004L10.0803 0.908203L10.2415 0.791016L10.4465 0.673828L10.6809 0.571289L10.9446 0.498047L11.1204 0.46875L11.4426 0.454102L11.7502 0.483398L11.9993 0.541992L12.2922 0.65918L12.5559 0.805664L12.761 0.966797L12.9368 1.12793L13.0686 1.28906L13.2151 1.50879L13.3323 1.74316L13.4348 2.02148L13.4788 2.22656L13.4934 2.34375V2.8125L13.4495 3.06152L13.3762 3.31055L13.2151 3.64746L13.0979 3.82324L13.0247 3.92578H12.9954L12.9661 3.98438L12.8928 4.05762L12.9221 4.14551L13.0979 4.48242L13.2737 4.80469L13.8889 5.94727L14.0793 6.29883L14.2991 6.70898L14.7092 7.4707L14.8704 7.77832L14.8997 7.86621V8.8916H16.2913L16.2766 6.9873L16.1008 6.94336L15.8225 6.84082L15.5881 6.72363L15.3684 6.57715L15.2073 6.44531L14.9729 6.21094L14.7825 5.94727L14.6653 5.74219L14.5627 5.50781L14.4895 5.27344L14.4309 4.98047L14.4163 4.81934V4.57031L14.4456 4.29199L14.5188 3.98438L14.636 3.69141L14.7678 3.44238L14.8704 3.2959L14.929 3.20801H14.9583L14.9875 3.14941L15.1487 2.97363L15.2952 2.8418L15.5442 2.66602L15.7639 2.54883L16.0715 2.43164L16.2473 2.3877H16.2913V0.439453L16.3206 0.307617L16.4084 0.161133L16.5256 0.0585938L16.6428 0ZM11.3694 1.40625L11.1204 1.43555L10.9299 1.49414L10.7249 1.61133L10.5637 1.74316L10.4465 1.875L10.3293 2.08008L10.2561 2.28516L10.2122 2.56348L10.2268 2.75391L10.2854 2.98828L10.3879 3.19336L10.5344 3.38379L10.6809 3.51562L10.9153 3.64746L11.0764 3.70605L11.2229 3.73535H11.5305L11.7649 3.67676L12.0139 3.55957L12.1604 3.44238L12.2922 3.31055L12.4241 3.10547L12.4973 2.91504L12.5413 2.70996V2.44629L12.4827 2.18262L12.3655 1.94824L12.2483 1.78711L12.0872 1.64062L11.8674 1.50879L11.6477 1.43555L11.4133 1.40625H11.3694ZM22.5608 1.875L22.3557 1.9043L22.1506 1.97754L21.9895 2.06543L21.8284 2.19727L21.6965 2.34375L21.6086 2.49023L21.5354 2.63672L21.4768 2.88574L21.4622 3.09082L21.4915 3.2959L21.55 3.48633L21.6672 3.70605L21.7991 3.86719L21.9602 3.99902L22.1653 4.11621L22.3997 4.18945L22.4729 4.2041H22.7805L23.0295 4.14551L23.2639 4.02832L23.3958 3.92578L23.4543 3.88184V3.85254H23.4836L23.6008 3.70605L23.6887 3.55957L23.762 3.33984L23.7913 3.19336V2.90039L23.7473 2.69531L23.6741 2.51953L23.5715 2.34375L23.4104 2.16797L23.22 2.03613L23.0295 1.94824L22.7952 1.88965L22.5608 1.875ZM9.33325 3.13477L9.18677 3.25195V3.28125L9.12817 3.31055L8.98169 3.45703V3.48633H8.95239L8.84985 3.60352L8.67407 3.80859L8.49829 4.04297L8.35181 4.2627L8.16138 4.58496L7.9856 4.92188L7.82446 5.30273L7.69263 5.66895L7.57544 6.06445L7.4729 6.50391L7.39966 6.88477L7.32642 7.41211L7.26782 7.99805L7.22388 8.61328L7.17993 9.65332L7.13599 10.166L7.06274 10.6641L6.97485 11.1182L6.88696 11.4404L6.78442 11.7188L6.65259 12.0117L6.49146 12.3486L6.31567 12.6709L6.0813 13.0664L5.96411 13.2568L5.77368 13.5498L5.53931 13.916L5.39282 14.1211L5.23169 14.3555L5.05591 14.6045L4.93872 14.7656L4.76294 15L4.55786 15.2783L4.41138 15.4688L4.22095 15.7178L4.01587 15.9668L3.89868 16.1279L3.76685 16.3184L3.6936 16.5088L3.64966 16.7578L3.66431 16.9629L3.7229 17.168L3.82544 17.3584L3.92798 17.4902L4.05981 17.6074L4.26489 17.7246L4.46997 17.7832L4.54321 17.7979L6.44751 17.8125L6.62329 17.8418L6.76978 17.9297L6.85767 18.0322L6.91626 18.1787V19.1162L6.93091 19.5996L6.9895 20.2734L7.06274 20.7715L7.13599 21.1523L7.23853 21.5625L7.39966 22.0459L7.51685 22.3242L7.63403 22.5586L7.72192 22.7197L7.86841 22.9395L8.02954 23.1445L8.29321 23.4082L8.51294 23.5693L8.82056 23.7305L9.12817 23.833L9.3479 23.877L9.46509 23.8916H9.90454L10.6956 23.833L11.5159 23.7451L12.3508 23.6279L13.3616 23.4521H13.6106L13.7864 23.54L13.8889 23.6572L13.9475 23.7891V24.0234L13.5374 26.1621L13.3762 26.9824L13.2151 27.832L13.01 28.8867L12.9807 29.0479H24.0549L24.0403 28.916L23.9231 28.1836L23.8499 27.583L23.8059 27.0703L23.7766 26.499V25.5469L23.8059 24.9609L23.8645 24.3164L23.9524 23.6572L24.0696 22.998L24.1868 22.4561L24.2454 22.2217L24.2307 22.1484L24.0549 22.0459L23.8792 21.9141L23.7034 21.7529L23.5715 21.6211L23.425 21.4307L23.3079 21.2402L23.1907 21.0059L23.1028 20.7715L23.0295 20.4492L23.0002 20.1562L23.0149 19.8486L23.0735 19.5264L23.176 19.2188L23.2932 18.9697L23.4397 18.7354L23.5715 18.5742L23.7327 18.3984L23.7766 18.3691V18.3398L23.8352 18.3105L23.8645 18.252L23.718 17.9736L23.5862 17.7393L23.3665 17.3438L23.1907 17.0215L23.0002 16.6846L22.7805 16.2744L22.6047 15.9521L22.5754 15.9375H20.9348L20.8909 16.0547L20.7883 16.3037L20.6711 16.5088L20.5247 16.6992L20.4661 16.7578V16.7871H20.4368V16.8164L20.3782 16.8457L20.261 16.9482L20.0413 17.0947L19.8215 17.1973L19.5872 17.2705L19.3967 17.3145L19.1477 17.3438L19.1184 17.3584L19.1038 18.8525L19.0452 18.999L18.9426 19.1162L18.7961 19.1895L18.7229 19.2041H18.5618L18.4006 19.1455L18.2834 19.043L18.1956 18.8672L18.1809 18.7646L18.1663 17.3438H17.2581L17.2434 17.7246L17.2288 19.79L17.1702 19.9365L17.0676 20.0537L16.9211 20.127L16.8479 20.1416H16.6868L16.5256 20.083L16.4084 19.9805L16.3206 19.8047L16.3059 19.6875L16.2913 17.3438H15.3831L15.3684 17.5928L15.3538 18.8525L15.2952 18.999L15.1926 19.1162L15.0461 19.1895L14.9729 19.2041H14.8118L14.6506 19.1455L14.5334 19.043L14.4456 18.8672L14.4309 18.75L14.4163 17.3438L14.05 17.2998L13.7864 17.2266L13.5227 17.1094L13.303 16.9629L13.1125 16.8018L12.9661 16.6406L12.8342 16.4502L12.6877 16.1719L12.6145 15.9375L12.5706 15.6885L12.5413 15.4688L10.593 15.4541L10.4319 15.3955L10.3147 15.293L10.2268 15.1172V14.8828L10.2854 14.7363L10.3 14.6924H10.3293L10.4026 14.6191L10.5198 14.5605L10.6516 14.5312L12.5413 14.5166V13.5938L9.65552 13.5791L9.49438 13.5205L9.3772 13.418L9.28931 13.2422V13.0078L9.3479 12.8613L9.42114 12.7734L9.53833 12.7002L9.71411 12.6562L12.5413 12.6416V11.7188L10.593 11.7041L10.4319 11.6455L10.3147 11.543L10.2268 11.3672V11.1328L10.2854 10.9863L10.3586 10.8984L10.4905 10.8252L10.5637 10.7959L10.6516 10.7812L12.5413 10.7666L12.5999 10.3857L12.6584 10.1807L12.7463 9.96094L12.8928 9.71191L13.0393 9.52148L13.2004 9.36035L13.4495 9.18457L13.6692 9.06738L13.9475 8.96484V8.07129L13.7131 7.61719L13.5667 7.35352L13.3469 6.94336L12.3215 5.03906L12.0872 4.59961L12.0725 4.58496L11.9553 4.59961L11.6917 4.6582L11.5598 4.67285H11.1643L10.9006 4.62891L10.6516 4.55566L10.3586 4.42383L10.095 4.24805L9.91919 4.08691L9.78735 3.95508L9.64087 3.76465L9.50903 3.53027L9.39185 3.25195L9.3479 3.13477H9.33325ZM16.7161 3.28125L16.4817 3.31055L16.2473 3.38379L16.0422 3.48633L15.8811 3.60352L15.8079 3.66211V3.69141H15.7786L15.6467 3.85254L15.5295 4.04297L15.4417 4.24805L15.3831 4.51172L15.3684 4.76074L15.4124 5.03906L15.5149 5.31738L15.6467 5.52246L15.7786 5.66895L15.8958 5.78613L16.1301 5.93262L16.2913 6.00586L16.511 6.06445L16.5989 6.0791H16.9211L17.1555 6.03516L17.3752 5.94727L17.5803 5.83008L17.7268 5.71289L17.844 5.5957L17.9758 5.40527L18.0784 5.2002L18.137 5.00977L18.1663 4.84863V4.54102L18.1223 4.30664L18.0491 4.10156L17.9172 3.86719L17.7708 3.69141L17.6096 3.55957L17.4485 3.45703L17.2581 3.36914L17.0676 3.31055L16.804 3.28125H16.7161ZM23.0295 7.03125L22.7805 7.0752L22.5608 7.16309L22.3997 7.26562L22.2385 7.41211L22.1067 7.58789L21.9895 7.83691L21.9456 8.07129V8.34961L22.0042 8.59863L22.1213 8.83301L22.2532 9.00879H22.2825L22.2971 9.05273L22.4729 9.18457L22.7073 9.30176L22.9417 9.36035H23.2346L23.4397 9.31641L23.6741 9.21387L23.8792 9.06738L23.9963 8.9502L24.0989 8.80371L24.1868 8.62793L24.2454 8.42285L24.26 8.32031V8.08594L24.2014 7.82227L24.1282 7.64648L24.011 7.4707L23.8792 7.32422L23.6887 7.19238L23.5129 7.10449L23.2932 7.0459L23.176 7.03125H23.0295ZM14.4016 9.84375L14.1819 9.87305L13.9915 9.94629L13.8303 10.0635L13.6838 10.21L13.5667 10.415L13.5081 10.6348L13.4934 10.8105V15.4834L13.5227 15.7031L13.5959 15.8936L13.6985 16.0547L13.8303 16.1865L13.9915 16.2891L14.1526 16.3623L14.2991 16.3916H19.2356L19.47 16.333L19.6311 16.2451L19.7776 16.1279L19.9094 15.9668L19.9973 15.791L20.0413 15.6006V10.6494L19.9973 10.459L19.8801 10.2393L19.7483 10.0928L19.6018 9.97559L19.4114 9.8877L19.1624 9.84375H14.4016ZM25.1536 18.7061L24.9045 18.7646L24.7288 18.8379L24.5676 18.9258L24.4065 19.0576L24.2747 19.1895L24.1428 19.3799L24.0403 19.585L23.9817 19.7754L23.9524 19.9512V20.2441L23.9963 20.4785L24.0696 20.6689L24.1868 20.8887L24.3186 21.0498L24.4211 21.1523L24.5823 21.2695L24.7581 21.3721L25.0217 21.46L25.1829 21.4893H25.5198L25.7834 21.4307L26.0178 21.3281L26.1936 21.2109L26.3547 21.0791L26.4866 20.918L26.6038 20.7275L26.6917 20.4932L26.7356 20.2881V19.9219L26.677 19.6582L26.5745 19.4238L26.4426 19.2188L26.3108 19.0723L26.1643 18.9551L25.9592 18.8379L25.7834 18.7646L25.6223 18.7207L25.5344 18.7061H25.1536Z" fill="#4F5B5E"/>
<path d="M27.8928 7.11914H28.0833L28.2151 7.16309L28.3469 7.26562L28.4348 7.39746L28.4641 7.48535L28.4788 7.60254L28.4348 7.77832L28.3323 7.93945L28.2297 8.04199L28.1272 8.15918L27.9514 8.34961L27.9368 8.37891H27.9075L27.8782 8.4375L27.6584 8.67188L27.5266 8.81836L27.3362 9.02344L27.2336 9.14062L27.1897 9.19922H27.1604L27.1311 9.25781L26.8967 9.50684L26.7649 9.65332L26.7356 9.69727H26.7063L26.677 9.75586L26.4573 9.99023L26.3547 10.1074L26.1497 10.3271L26.0178 10.4736L25.6956 10.8252L25.5198 11.0156L25.4172 11.1328L24.9338 11.6602L24.9192 11.6895H24.8899L24.8606 11.748L24.6262 11.9971L24.3625 12.29L24.304 12.3633L24.2747 12.6416H25.2268L25.2415 12.5098L25.3147 12.2168L25.4172 11.9678L25.5198 11.7773L25.6516 11.5869L25.7395 11.4697H25.7688L25.7981 11.4111L25.9153 11.2939L26.1497 11.1182L26.3694 10.9863L26.6184 10.8838L26.8821 10.8105L27.0579 10.7812L27.2336 10.7666H27.4241L27.7756 10.8105L28.0247 10.8838L28.2883 11.001L28.5081 11.1328L28.6985 11.2793L28.7864 11.3525L28.8889 11.4697L29.0061 11.6016L29.1526 11.8213L29.2698 12.041L29.387 12.3926L29.4309 12.6562V13.125L29.387 13.374L29.3137 13.623L29.1526 13.96L29.0354 14.1357L28.9182 14.2822L28.7424 14.458L28.5667 14.6045L28.3323 14.751L28.0686 14.8682L27.7756 14.9561L27.4973 15H27.1165L26.8528 14.9561L26.6038 14.8828L26.3694 14.7803L26.1643 14.6631L25.9885 14.5312L25.7981 14.3555L25.6516 14.1943L25.4758 13.9307L25.3293 13.623V13.5938H23.718L23.5569 13.5352L23.4104 13.4033L23.3372 13.2422L23.3225 13.125V12.1582L23.3518 12.0264L23.4104 11.9092L23.7327 11.5576L23.8352 11.4404L23.9963 11.2646L24.0989 11.1475L24.2014 11.0449L24.304 10.9277L24.3333 10.8838H24.3625L24.3918 10.8252L24.6116 10.5908L24.7727 10.415L24.8167 10.3564H24.8459L24.8752 10.2979L25.095 10.0635L25.1975 9.94629L25.2415 9.8877H25.2708L25.3 9.8291L25.4319 9.69727L25.5344 9.58008L25.5637 9.53613H25.593L25.6223 9.47754L25.8127 9.27246L25.9153 9.15527L26.0178 9.05273L26.1204 8.93555L26.1497 8.8916H26.179L26.2083 8.83301L26.428 8.59863L26.7502 8.24707L26.8967 8.08594L26.9993 7.96875L27.0579 7.89551H27.0872L27.1165 7.83691L27.2483 7.70508L27.3508 7.58789L27.4827 7.44141L27.5852 7.32422L27.6145 7.28027H27.6438V7.25098L27.7756 7.16309L27.8928 7.11914ZM27.2629 11.7188L27.0579 11.748L26.8674 11.8066L26.677 11.9092L26.4866 12.0703L26.384 12.1875L26.2961 12.334L26.2229 12.4805L26.1643 12.7295L26.1497 12.9199L26.1936 13.1982L26.2668 13.3887L26.3401 13.5205L26.4426 13.6523L26.4719 13.6963H26.5012V13.7256L26.6917 13.8721L26.926 13.9893L27.175 14.0479H27.4534L27.6584 14.0039L27.8342 13.9307L28.01 13.8281L28.1565 13.6963L28.2737 13.5645L28.3616 13.418L28.4348 13.2422L28.4788 13.0225V12.7441L28.4348 12.5391L28.3616 12.3633L28.2883 12.2314L28.1858 12.0996L28.0833 11.9971L27.9368 11.8945L27.7317 11.792L27.512 11.7334L27.3948 11.7188H27.2629Z" fill="#FF725E"/>
<path d="M14.8704 10.7666H16.76L16.9358 10.7959L17.0823 10.8838L17.1848 11.001L17.2434 11.1328V11.3672L17.1555 11.543L17.0237 11.6602L16.9211 11.7041L16.8333 11.7188L15.3831 11.7334L15.3684 15.1025L15.3098 15.249L15.1926 15.3809L15.0461 15.4541L14.9729 15.4688H14.8118L14.6506 15.4102L14.5188 15.293L14.4309 15.1172L14.4163 15.0146V11.2061L14.4456 11.0889L14.5042 10.9717L14.5774 10.8838L14.7239 10.7959L14.8704 10.7666Z" fill="#FF725E"/>
<path d="M18.5325 10.7812H18.7668L18.8987 10.8398L19.0159 10.9424L19.0891 11.0449L19.1184 11.1475V15.1025L19.0598 15.249L18.928 15.3955L18.7961 15.4541L18.7083 15.4688H16.6868L16.5256 15.4102L16.3938 15.293L16.3059 15.1172L16.2913 15L16.3206 14.8389L16.3938 14.6924H16.4231L16.4524 14.6338L16.5842 14.5605L16.6575 14.5312L16.7454 14.5166H18.1663V11.2207L18.1956 11.0889L18.2542 10.9717L18.3274 10.8838L18.4739 10.7959L18.5325 10.7812Z" fill="#FF725E"/>
<path d="M24.2307 14.0479L24.3918 14.0625L24.5237 14.1211L24.6409 14.2236L24.7727 14.3848L24.9192 14.5898L25.0657 14.7803L25.9006 15.8936L25.9153 15.9082L27.3215 15.9229L27.4827 15.9521L27.6438 16.0547L27.7463 16.2012L27.7903 16.333V16.4795L27.7317 16.6406L27.6438 16.7578L27.4973 16.8457L27.3801 16.875H25.593L25.4319 16.8164L25.3 16.6992L25.0803 16.4062L24.8459 16.0986L24.6409 15.8203L24.4065 15.5127L24.2014 15.2344L23.967 14.9268L23.8352 14.7217L23.8059 14.6484L23.7913 14.5312L23.8206 14.3701L23.8792 14.2529L23.9524 14.165L24.0989 14.0771L24.2307 14.0479Z" fill="#FF725E"/>
<path d="M22.5461 23.7451H22.7952L22.9709 23.833L23.0881 23.9648L23.1467 24.0967V24.3164L23.0588 24.7266L23.0002 25.0928L22.9563 25.5908L22.9417 25.8252V26.2793L22.9856 26.8359L23.0588 27.3486L23.0735 27.4365V27.5684L23.0295 27.7002L22.9124 27.8613L22.7952 27.9346L22.7073 27.9639H22.4729L22.3411 27.9053L22.2239 27.8027L22.1506 27.6709L22.1067 27.4951L22.0334 27.0264L21.9895 26.5723L21.9749 26.3086V25.752L22.0042 25.2979L22.0481 24.917L22.1213 24.4775L22.2092 24.0967L22.2678 23.9502L22.3704 23.833L22.5461 23.7451Z" fill="#FF725E"/>
<path d="M18.5764 0H18.7083L18.884 0.0732422L19.0305 0.205078L19.1038 0.336914L19.1184 0.395508L19.1331 1.20117L19.2063 1.28906L19.2356 1.30371V1.33301H19.2649L19.3674 1.4502L19.4993 1.58203L19.5872 1.65527L19.6458 1.71387V1.74316L19.7043 1.77246L19.8948 1.96289L20.012 2.12402L20.0559 2.25586V2.43164L19.9973 2.57812L19.8655 2.72461L19.719 2.79785L19.6458 2.8125H19.4993L19.3381 2.75391L19.1917 2.62207L18.2688 1.69922L18.2102 1.59668L18.1809 1.52344L18.1663 1.43555V0.46875L18.2102 0.292969L18.2981 0.161133L18.4153 0.0732422L18.5764 0Z" fill="#FF725E"/>
<path d="M27.2483 5.34668H27.468L27.5999 5.40527L27.717 5.50781L27.7756 5.58105L27.8342 5.72754V5.91797L27.7756 6.0498L27.6877 6.16699L26.4426 7.41211L26.2961 7.48535L26.2375 7.5H26.0471L25.9006 7.44141L25.7688 7.32422L25.6956 7.17773L25.6809 7.13379V6.91406L25.7395 6.76758L25.9153 6.57715L27.0286 5.46387L27.1604 5.37598L27.2483 5.34668Z" fill="#FF725E"/>
<path d="M14.8264 0.131836H14.9583L15.1047 0.175781L15.2512 0.27832L15.3391 0.410156L15.3684 0.512695V1.97754L15.3098 2.12402L15.178 2.27051L15.0461 2.3291L14.9875 2.34375H14.7971L14.6506 2.28516L14.5042 2.15332L14.4456 2.03613L14.4163 1.88965V0.585938L14.4602 0.410156L14.5627 0.263672L14.6799 0.175781L14.8264 0.131836Z" fill="#FF725E"/>
</svg>
