<svg width="30" height="30" viewBox="0 0 30 30" fill="none" xmlns="http://www.w3.org/2000/svg">
<g clip-path="url(#clip0_1716_20735)">
<path d="M10.9615 0H2.88462C1.29231 0.00216346 0.00216346 1.29231 0 2.88462V10.9615C0.00216346 12.5538 1.29231 13.844 2.88462 13.8462H10.9615C12.5538 13.844 13.844 12.5538 13.8462 10.9615V2.88462C13.844 1.29231 12.5538 0.00216346 10.9615 0Z" fill="#4F5B5E"/>
<path d="M12.6923 10.9615C12.6923 11.917 11.917 12.6923 10.9615 12.6923H2.88458C1.92905 12.6923 1.15381 11.917 1.15381 10.9615V2.88458C1.15381 1.92905 1.92905 1.15381 2.88458 1.15381H10.9615C11.917 1.15381 12.6923 1.92905 12.6923 2.88458V10.9615Z" fill="white"/>
<path d="M27.1153 0H19.0384C17.4461 0.00216346 16.156 1.29231 16.1538 2.88462V10.9615C16.156 12.5538 17.4461 13.844 19.0384 13.8462H27.1153C28.7077 13.844 29.9978 12.5538 30 10.9615V2.88462C29.9978 1.29231 28.7077 0.00216346 27.1153 0Z" fill="#4F5B5E"/>
<path d="M28.8461 10.9615C28.8461 11.917 28.0708 12.6923 27.1153 12.6923H19.0384C18.0829 12.6923 17.3076 11.917 17.3076 10.9615V2.88458C17.3076 1.92905 18.0829 1.15381 19.0384 1.15381H27.1153C28.0708 1.15381 28.8461 1.92905 28.8461 2.88458V10.9615Z" fill="white"/>
<path d="M10.9615 16.1538H2.88462C1.29231 16.156 0.00216346 17.4461 0 19.0384V27.1153C0.00216346 28.7077 1.29231 29.9978 2.88462 30H10.9615C12.5538 29.9978 13.844 28.7077 13.8462 27.1153V19.0384C13.844 17.4461 12.5538 16.156 10.9615 16.1538Z" fill="#4F5B5E"/>
<path d="M12.6923 27.1153C12.6923 28.0708 11.917 28.8461 10.9615 28.8461H2.88458C1.92905 28.8461 1.15381 28.0708 1.15381 27.1153V19.0384C1.15381 18.0829 1.92905 17.3076 2.88458 17.3076H10.9615C11.917 17.3076 12.6923 18.0829 12.6923 19.0384V27.1153Z" fill="white"/>
<path d="M23.0769 16.1538C19.2533 16.1538 16.1538 19.2533 16.1538 23.0769C16.1538 26.9004 19.2533 30 23.0769 30C26.9004 30 30 26.9004 30 23.0769C29.9956 19.2548 26.899 16.1581 23.0769 16.1538Z" fill="#FF725E"/>
<path d="M23.0768 28.8461C19.8908 28.8461 17.3076 26.2629 17.3076 23.0768C17.3076 19.8908 19.8908 17.3076 23.0768 17.3076C26.2629 17.3076 28.8461 19.8908 28.8461 23.0768C28.8425 26.2615 26.2615 28.8425 23.0768 28.8461Z" fill="white"/>
</g>
<defs>
<clipPath id="clip0_1716_20735">
<rect width="30" height="30" fill="white"/>
</clipPath>
</defs>
</svg>
