<svg width="32" height="30" viewBox="0 0 32 30" fill="none" xmlns="http://www.w3.org/2000/svg">
<path d="M2.30221 0H29.6188L29.9766 0.0178891L30.2807 0.0715564L30.5849 0.178891L30.8532 0.322004L31.1394 0.536673L31.3362 0.733453L31.5151 0.9839L31.6761 1.28801L31.7834 1.61002L31.8192 1.82469L31.8371 2.14669V27.8712L31.8192 28.1932L31.7476 28.5331L31.6403 28.8014L31.4793 29.0877L31.3362 29.2665L31.1752 29.4454L30.9784 29.6064L30.7459 29.7496L30.4775 29.8748L30.1555 29.9642L29.8872 30H2.06965L1.76554 29.9463L1.47931 29.8569L1.19308 29.7138L0.942637 29.5349L0.710079 29.3202L0.531188 29.0877L0.405965 28.8909L0.280741 28.5868L0.209185 28.3184L0.173407 28.068L0.155518 26.9767L0.173407 1.91413L0.227074 1.61002L0.316519 1.32379L0.459632 1.03757L0.602745 0.822898L0.763747 0.644007L0.924748 0.483005L1.1752 0.304114L1.46142 0.161002L1.71187 0.0715564L1.99809 0.0178891L2.30221 0ZM2.21276 0.858676L1.92654 0.894454L1.69398 0.9839L1.46142 1.1449L1.30042 1.3059L1.1752 1.50268L1.06786 1.75313L1.03208 1.91413V5.00894H30.9784V1.93202L30.9247 1.69946L30.7816 1.41324L30.6564 1.25224L30.5312 1.12701L30.2986 0.9839L30.0661 0.894454L29.8156 0.858676H2.21276ZM1.03208 5.84973L1.01419 7.85331V27.0662L1.03208 28.1038L1.08575 28.3184L1.22886 28.6047L1.37198 28.7835L1.53298 28.9267L1.83709 29.0877L2.06965 29.1413L2.30221 29.1592H29.6188L29.9408 29.1413L30.1555 29.0877L30.4417 28.9445L30.6385 28.7835L30.7816 28.6047L30.9069 28.3542L30.9605 28.1753L30.9784 28.0322V5.84973H1.03208Z" fill="#4F5B5E"/>
<path d="M8.47388 10.4116H11.8191L12.0159 10.4474L12.159 10.5547L12.2664 10.7694L12.4453 11.4134L12.8388 12.8624L14.1268 17.5851L14.6456 19.4814L14.6635 19.5708H21.9444L21.9623 19.4456L22.1769 18.6943L22.4274 17.8535L22.7494 16.7622L23.4649 14.3293L23.6796 13.5959L23.7512 13.3454H13.8227L13.6975 13.2918L13.6081 13.2202L13.5186 13.0771L13.5007 13.0234V12.8266L13.5902 12.6478L13.7333 12.5404L13.8227 12.5046L16.1483 12.4868H24.1626L24.4309 12.5046L24.5741 12.5762L24.6993 12.7014L24.753 12.8266V13.0055L24.6277 13.4528L24.3236 14.4903L22.8925 19.3562L22.6778 20.0717L22.5705 20.2864L22.4631 20.3758L22.3021 20.4295L11.3361 20.4474L11.2109 20.5011L11.1036 20.5905L11.032 20.7873L11.0499 20.9662L11.1394 21.1093L11.2646 21.1987L11.3361 21.2166L23.7869 21.2345L24.0374 21.2524L24.1447 21.3061L24.2342 21.3776L24.3236 21.5207L24.3415 21.5923V21.7533L24.2521 21.9322L24.1268 22.0395L24.0553 22.0753L23.9479 22.0932L22.0517 22.1111L22.1769 22.3973L22.2485 22.7014L22.2664 22.9698L22.2127 23.3454L22.1054 23.6317L21.9623 23.8821L21.7476 24.1326L21.4971 24.3293L21.2109 24.4724L20.9784 24.544L20.8174 24.5798L20.549 24.5977L20.227 24.5619L19.905 24.4546L19.6188 24.2936L19.3862 24.0968L19.2073 23.8821L19.0642 23.6317L18.9748 23.417L18.9211 23.1844L18.9032 23.0592V22.8266L18.939 22.5762L19.0284 22.29L19.1358 22.0932L16.2199 22.1111L16.3451 22.3973L16.4166 22.6656L16.4345 22.8266V23.0234L16.3987 23.2739L16.3272 23.5064L16.1841 23.7927L16.0052 24.0431L15.8621 24.1862L15.6116 24.3651L15.3791 24.4724L15.0928 24.5619L15.0034 24.5798L14.7172 24.5977L14.3952 24.5619L14.0732 24.4546L13.7869 24.2936L13.5723 24.0968L13.4292 23.9537L13.2682 23.7032L13.1608 23.4528L13.0893 23.1665L13.0714 23.0055V22.8445L13.1072 22.5941L13.1966 22.3079L13.286 22.1111L11.3182 22.0932L11.032 22.0395L10.8531 21.968L10.6385 21.8249L10.5311 21.7354L10.388 21.5565L10.2628 21.3419L10.1912 21.1451L10.1555 20.9125L10.1733 20.6263L10.2449 20.3758L10.3522 20.1612L10.4775 20.0002L10.6385 19.8392L10.871 19.6961L11.1036 19.6066L11.3898 19.5708H13.7691L13.6438 19.1057L13.3218 17.925L13.0177 16.8159L12.6778 15.5637L12.4274 14.6513L12.2127 13.8642L11.8191 12.4152L11.5866 11.5565L11.515 11.2882L8.4381 11.2703L8.25921 11.1987L8.13399 11.0556L8.08032 10.9304V10.7694L8.15188 10.6084L8.22343 10.519L8.38444 10.4295L8.47388 10.4116ZM14.6277 22.0932L14.3952 22.1648L14.2163 22.29L14.0911 22.4152L13.9658 22.6656L13.9301 22.8266V23.0234L14.0016 23.2739L14.1089 23.4349L14.2521 23.578L14.4131 23.6674L14.5562 23.7211L14.6635 23.739H14.8424L15.0571 23.6853L15.2002 23.6138L15.3791 23.4707L15.5043 23.2739L15.558 23.1308L15.5759 23.0234V22.8088L15.5222 22.612L15.4327 22.4331L15.3254 22.3079L15.1286 22.1826L14.9497 22.1111L14.8603 22.0932H14.6277ZM20.4596 22.0932L20.227 22.1648L20.0481 22.29L19.9229 22.4152L19.8335 22.5583L19.7798 22.7193L19.7619 22.8088V23.0413L19.8335 23.2739L19.9945 23.5064L20.1912 23.6495L20.388 23.7211L20.4953 23.739H20.6564L20.8889 23.6853L21.0857 23.578L21.2467 23.417L21.3361 23.2739L21.3898 23.1129L21.4077 22.9876V22.8445L21.354 22.612L21.2467 22.4152L21.1036 22.2721L20.9247 22.1648L20.6921 22.0932H20.4596Z" fill="#FF725E"/>
<path d="M20.4954 2.50439H28.9391L29.118 2.55806L29.2611 2.68329L29.3326 2.84429V3.02318L29.279 3.1484L29.1716 3.27363L29.0285 3.34518L28.7423 3.36307H20.6385L20.406 3.32729L20.245 3.20207L20.1734 3.05896L20.1555 3.00529V2.86218L20.2271 2.68329L20.3702 2.55806L20.4954 2.50439Z" fill="#4F5B5E"/>
<path d="M3.73343 1.68164H4.10911L4.39533 1.7532L4.64578 1.89631L4.84256 2.05731L5.00356 2.27198L5.12878 2.52243L5.18245 2.7371V3.11277L5.11089 3.3811L4.98567 3.63155L4.82467 3.82833L4.771 3.84622V3.882L4.52055 4.043L4.32377 4.13245L4.10911 4.18611H3.75132L3.48299 4.11456L3.23254 3.98933L3.03576 3.82833L2.85687 3.59577L2.73165 3.34533L2.67798 3.13066V2.75499L2.74953 2.48665L2.87476 2.2362L3.03576 2.03942L3.17887 1.9142L3.42932 1.77109L3.64399 1.69953L3.73343 1.68164ZM3.87655 2.52243L3.71555 2.5761L3.60821 2.66554L3.53665 2.80865L3.51877 2.96965L3.57243 3.13066L3.69766 3.27377L3.80499 3.32744H4.03755L4.18066 3.25588L4.288 3.13066L4.32377 3.0591V2.80865L4.21644 2.62976L4.07333 2.54032L3.87655 2.52243Z" fill="#4F5B5E"/>
<path d="M10.4059 1.68164H10.7815L11.0499 1.7532L11.2824 1.87842L11.4613 2.02153L11.6223 2.20042L11.7475 2.41509L11.837 2.70132L11.8549 2.84443V3.00543L11.8012 3.29166L11.7118 3.52422L11.5508 3.75677L11.3898 3.91778L11.1214 4.07878L10.8352 4.16822L10.7636 4.18611H10.4059L10.1375 4.11456L9.92286 4.00722L9.74397 3.86411L9.61874 3.73889L9.49352 3.55999L9.40408 3.36321L9.35041 3.18432L9.33252 3.0591V2.82654L9.38619 2.55821L9.47563 2.34354L9.60086 2.14676L9.6903 2.03942L9.86919 1.89631L10.0839 1.77109L10.3164 1.69953L10.4059 1.68164ZM10.5311 2.52243L10.3701 2.5761L10.2806 2.66554L10.2091 2.77287L10.1912 2.84443V3.02332L10.2806 3.20221L10.4238 3.30955L10.4774 3.32744H10.71L10.8889 3.2201L10.9783 3.07699L10.9962 2.98754V2.86232L10.9246 2.68343L10.7994 2.5761L10.6563 2.52243H10.5311Z" fill="#4F5B5E"/>
<path d="M7.06083 1.68164H7.4365L7.72272 1.7532L7.95528 1.87842L8.13417 2.02153L8.27729 2.18254L8.4204 2.43298L8.49195 2.64765L8.52773 2.91599L8.49195 3.2201L8.4204 3.45266L8.2594 3.70311L8.09839 3.882L7.9195 4.00722L7.70483 4.11456L7.41861 4.18611H7.07872L6.81038 4.11456L6.59571 4.00722L6.43471 3.882L6.27371 3.721L6.14848 3.52422L6.05904 3.32744L6.00537 3.11277V2.75499L6.07693 2.48665L6.18426 2.27198L6.2916 2.12887L6.36315 2.03942L6.55993 1.87842L6.84616 1.73531L7.06083 1.68164ZM7.18605 2.52243L7.04294 2.5761L6.95349 2.64765L6.86405 2.80865V3.04121L6.9356 3.18432L7.06083 3.29166L7.15027 3.32744H7.38283L7.52594 3.23799L7.63328 3.11277L7.66906 2.98754L7.65117 2.80865L7.57961 2.66554L7.4365 2.55821L7.32916 2.52243H7.18605Z" fill="#4F5B5E"/>
<path d="M5.09282 12.916H9.40409L9.56509 12.9697L9.70821 13.1128L9.76187 13.2201V13.4527L9.65454 13.6316L9.51143 13.7389L9.43987 13.7568L8.83164 13.7747H5.20016L5.00338 13.7389L4.84238 13.6137L4.77082 13.4706L4.75293 13.4169V13.2738L4.82449 13.0949L4.98549 12.9518L5.09282 12.916Z" fill="#FF725E"/>
<path d="M6.81031 14.9912H10.567L10.7638 15.027L10.9069 15.1343L10.9964 15.2774L11.0142 15.3311V15.51L10.9427 15.671L10.8175 15.7962L10.6386 15.8499H6.77453L6.59564 15.7783L6.47042 15.6352L6.41675 15.51V15.349L6.4883 15.1701L6.61353 15.0628L6.72086 15.0091L6.81031 14.9912Z" fill="#FF725E"/>
<path d="M8.58122 17.0664H11.5866L11.9444 17.0843L12.0875 17.1559L12.1769 17.2453L12.2485 17.3526L12.2664 17.4242V17.5852L12.1769 17.7641L12.0338 17.8893L11.9265 17.9251H8.40233L8.25921 17.8535L8.13399 17.7104L8.08032 17.5852V17.4421L8.13399 17.2811L8.22343 17.1916L8.31288 17.1201L8.40233 17.0843L8.58122 17.0664Z" fill="#FF725E"/>
</svg>
