<svg width="38" height="38" viewBox="0 0 38 38" fill="none" xmlns="http://www.w3.org/2000/svg">
<path d="M1.31695 19.1831C1.22955 19.0957 1.11818 19.0361 0.996938 19.012C0.875697 18.9879 0.750026 19.0003 0.63582 19.0476C0.521613 19.0949 0.424 19.175 0.355324 19.2778C0.286649 19.3806 0.249995 19.5014 0.25 19.625V37.125C0.25 37.2908 0.315848 37.4498 0.433058 37.567C0.550268 37.6842 0.70924 37.75 0.875 37.75H18.375C18.4986 37.75 18.6195 37.7134 18.7222 37.6447C18.825 37.576 18.9051 37.4784 18.9524 37.3642C18.9998 37.25 19.0121 37.1243 18.988 37.0031C18.9639 36.8818 18.9044 36.7705 18.817 36.6831L1.31695 19.1831ZM1.5 36.5V21.1339L16.8662 36.5H1.5Z" fill="#4F5B5E"/>
<path d="M4.625 34H9.625C9.74862 34 9.86946 33.9634 9.97224 33.8947C10.075 33.826 10.1551 33.7284 10.2024 33.6142C10.2498 33.5 10.2621 33.3743 10.238 33.2531C10.2139 33.1318 10.1544 33.0205 10.067 32.9331L5.06695 27.9331C4.97955 27.8457 4.86818 27.7861 4.74694 27.762C4.6257 27.7379 4.50003 27.7503 4.38582 27.7976C4.27161 27.8449 4.174 27.925 4.10532 28.0278C4.03665 28.1306 4 28.2514 4 28.375V33.375C4 33.5408 4.06585 33.6998 4.18306 33.817C4.30027 33.9342 4.45924 34 4.625 34ZM5.25 29.8839L8.11617 32.75H5.25V29.8839Z" fill="#4F5B5E"/>
<path d="M7.125 2.75H8.375V4H7.125V2.75Z" fill="#4F5B5E"/>
<path d="M9.625 2.75H10.875V4H9.625V2.75Z" fill="#4F5B5E"/>
<path d="M12.125 2.75H13.375V4H12.125V2.75Z" fill="#4F5B5E"/>
<path d="M13.1216 11.5547C13.0105 11.6027 12.9159 11.6824 12.8499 11.7839C12.7838 11.8853 12.7491 12.0039 12.75 12.125V19C12.75 19.1209 12.7851 19.2392 12.851 19.3406C12.9168 19.442 13.0107 19.5221 13.1212 19.5712L18.7462 22.0712C18.8261 22.1068 18.9126 22.1252 19.0001 22.1251C19.0876 22.125 19.1741 22.1065 19.254 22.0707V22.0712L24.879 19.5712C24.9895 19.522 25.0833 19.4419 25.1491 19.3406C25.215 19.2392 25.25 19.1209 25.25 19V12.125C25.251 12.0039 25.2163 11.8853 25.1502 11.7839C25.0841 11.6824 24.9896 11.6027 24.8785 11.5547V11.5538L19.2535 9.05382C19.1735 9.01834 19.087 9 18.9996 9C18.9121 9 18.8256 9.01834 18.7456 9.05382L13.1206 11.5538L13.1216 11.5547ZM18.375 20.5383L14 18.5937V13.0867L18.375 15.0312V20.5383ZM24 18.5937L19.625 20.5383V15.0312L24 13.0868V18.5937ZM19 10.3089L23.086 12.125L19 13.941L14.9141 12.125L19 10.3089Z" fill="#FF725E"/>
<path d="M18.375 24H19.625V27.125H18.375V24Z" fill="#4F5B5E"/>
<path d="M18.375 4.625H19.625V7.75H18.375V4.625Z" fill="#FF725E"/>
<path d="M8.10211 10.8179L8.64086 9.69037L11.257 10.9404L10.7183 12.0679L8.10211 10.8179Z" fill="#FF725E"/>
<path d="M26.7286 10.9314L29.3448 9.68133L29.8835 10.8088L27.2674 12.0589L26.7286 10.9314Z" fill="#FF725E"/>
<path d="M8.10193 20.9292L10.7181 19.6791L11.2568 20.8066L8.64068 22.0567L8.10193 20.9292Z" fill="#FF725E"/>
<path d="M37.125 29H33.375V19.2589L37.0492 15.5847C37.2714 15.3625 37.4477 15.0987 37.5679 14.8084C37.6881 14.5181 37.75 14.207 37.75 13.8927C37.75 13.5785 37.6881 13.2674 37.5679 12.9771C37.4476 12.6868 37.2714 12.423 37.0492 12.2008C36.827 11.9786 36.5632 11.8024 36.2729 11.6821C35.9826 11.5619 35.6715 11.5 35.3572 11.5C35.043 11.5 34.7319 11.5619 34.4416 11.6822C34.1513 11.8024 33.8875 11.9787 33.6653 12.2009L33.375 12.4912V7.125C33.375 7.04292 33.3588 6.96165 33.3274 6.88582C33.296 6.80999 33.25 6.74109 33.192 6.68305L26.942 0.433047C26.8839 0.375011 26.815 0.328975 26.7392 0.297568C26.6634 0.266161 26.5821 0.249997 26.5 0.25H7.125C6.46219 0.250744 5.82674 0.514376 5.35806 0.983055C4.88938 1.45173 4.62574 2.08719 4.625 2.75V20.875H5.875V2.75C5.87539 2.4186 6.00722 2.10089 6.24155 1.86655C6.47589 1.63222 6.7936 1.50039 7.125 1.5H25.875V5.25C25.8757 5.91281 26.1394 6.54826 26.6081 7.01694C27.0767 7.48562 27.7122 7.74926 28.375 7.75H32.125V13.7411L22.308 23.558C22.2208 23.6453 22.1613 23.7564 22.1371 23.8774L21.5121 27.0024C21.4919 27.1033 21.497 27.2076 21.5268 27.3061C21.5566 27.4046 21.6103 27.4942 21.683 27.567C21.7558 27.6397 21.8454 27.6934 21.9439 27.7232C22.0424 27.753 22.1467 27.7581 22.2476 27.7379L25.3726 27.1129C25.4936 27.0887 25.6047 27.0292 25.692 26.942L32.125 20.5089V29H19.625C19.4592 29 19.3003 29.0658 19.1831 29.1831C19.0658 29.3003 19 29.4592 19 29.625V31.5H15.875V32.75H19V34.625C19 34.7908 19.0658 34.9497 19.1831 35.0669C19.3003 35.1842 19.4592 35.25 19.625 35.25H37.125C37.2908 35.25 37.4497 35.1842 37.5669 35.0669C37.6842 34.9497 37.75 34.7908 37.75 34.625V29.625C37.75 29.4592 37.6842 29.3003 37.5669 29.1831C37.4497 29.0658 37.2908 29 37.125 29ZM27.125 5.25V2.38391L31.2411 6.5H28.375C28.0436 6.49961 27.7259 6.36778 27.4916 6.13345C27.2572 5.89911 27.1254 5.5814 27.125 5.25ZM23.6339 24L33.375 14.2589L34.9911 15.875L25.25 25.6161L23.6339 24ZM35.3573 12.75C35.5833 12.75 35.8042 12.8171 35.9921 12.9426C36.1801 13.0682 36.3265 13.2467 36.413 13.4555C36.4995 13.6643 36.5221 13.8941 36.478 14.1157C36.4339 14.3374 36.3251 14.541 36.1653 14.7009L35.875 14.9911L34.2589 13.375L34.5492 13.0847C34.6551 12.9782 34.781 12.8938 34.9197 12.8364C35.0584 12.7789 35.2071 12.7496 35.3573 12.75ZM23.1338 25.2677L23.9823 26.1162L22.9219 26.3281L23.1338 25.2677ZM36.5 34H20.25V30.25H21.5V31.5H22.75V30.25H24V31.5H25.25V30.25H26.5V31.5H27.75V30.25H29V31.5H30.25V30.25H31.5V31.5H32.75V30.25H34V31.5H35.25V30.25H36.5V34Z" fill="#4F5B5E"/>
</svg>
