<svg width="30" height="30" viewBox="0 0 30 30" fill="none" xmlns="http://www.w3.org/2000/svg">
<path d="M2.09473 0H29.3115V0.0292969L29.3848 0.0439453L29.5898 0.146484L29.7656 0.307617L29.8682 0.439453L29.9707 0.644531L30 0.717773V25.1074H29.9707L29.8975 25.2832L29.8096 25.415L29.6777 25.5615L29.5312 25.6641L29.3701 25.7373L29.1504 25.7812L11.9385 25.7959L12.0264 26.0156L12.0703 26.1768L12.0996 26.4111L12.085 26.6455L12.041 26.8652L11.9531 27.0996L11.8213 27.3047L11.6895 27.4658L11.5283 27.6123L11.3379 27.7295L10.6641 28.0664L10.3271 28.2275L9.69727 28.5352L9.36035 28.6963L8.78906 28.9746L8.55469 29.0918L8.12988 29.2969L7.79297 29.458L7.13379 29.7803L6.84082 29.9121L6.57715 30H6.06445L5.72754 29.8828L5.53711 29.7803L5.34668 29.6338L5.21484 29.502L5.06836 29.2969L4.95117 29.0479L4.84863 28.6816L4.45312 27.0557L3.82324 24.4775L3.64746 23.7451L3.63281 23.7012L3.10547 23.6426L2.72461 23.5547L2.37305 23.4375L2.08008 23.3057L1.80176 23.1592L1.58203 23.0127L1.34766 22.8369L1.09863 22.6025L0.9375 22.4414L0.805664 22.2803L0.65918 22.0898L0.46875 21.7822L0.336914 21.5332L0.19043 21.167L0.102539 20.874L0.0146484 20.4639L0 20.4346V19.4678L0.131836 18.8965L0.249023 18.5596L0.410156 18.208L0.585938 17.9004L0.74707 17.6807L0.908203 17.4756L1.08398 17.2852L1.20117 17.168L1.3623 17.0361L1.37695 17.0215L1.3916 0.893555L1.4209 0.688477L1.52344 0.454102L1.66992 0.263672L1.83105 0.131836L2.03613 0.0292969L2.09473 0ZM2.3584 0.9375L2.34375 0.966797V5.61035L2.41699 5.625H25.2539L25.4736 5.6543L25.6201 5.74219L25.708 5.84473L25.7666 5.97656V6.21094L25.6787 6.38672L25.5615 6.48926L25.4443 6.5332L25.3564 6.54785L2.3584 6.5625L2.34375 6.84082V16.3916L2.3584 16.4209L2.44629 16.3916L2.7832 16.2012L3.16406 15.9814L3.36914 15.8496L3.70605 15.6299L3.95508 15.4541L4.21875 15.2637L4.58496 14.9707L4.83398 14.7656L4.98047 14.6338L5.00977 14.6191V14.5898L5.06836 14.5605L5.31738 14.3262L5.40527 14.2529V14.2236L5.46387 14.1943V14.165L5.52246 14.1357L5.74219 13.916L5.84473 13.7988L6.06445 13.5645L6.19629 13.4033L6.32812 13.2568L6.45996 13.0957L6.66504 12.832L6.81152 12.6416L6.91406 12.4951L7.06055 12.29L7.33887 11.8652L7.51465 11.5723L7.69043 11.2646L7.91016 10.8545L8.05664 10.5469L8.17383 10.3125L8.64258 9.30176L8.8916 8.77441L9.06738 8.39355L9.27246 7.9541L9.36035 7.79297L9.47754 7.63184L9.60938 7.48535L9.75586 7.36816L9.94629 7.25098L10.1074 7.17773L10.3271 7.11914L10.4297 7.10449H10.8252L11.0596 7.14844L11.2793 7.23633L11.4844 7.35352L11.6309 7.4707L11.792 7.63184L11.9385 7.85156L12.0557 8.07129L12.2168 8.4082L12.5098 9.00879L12.6855 9.375L12.832 9.68262L12.9492 9.91699L13.2715 10.5762L13.5498 11.1475L13.7549 11.5723L14.0479 12.1729L14.209 12.5098L14.5752 13.2568L14.7363 13.5938L15.1025 14.3408L15.2637 14.6777L15.3809 14.9268L15.498 15.1611L15.8643 15.9082L16.0986 16.3916L16.2598 16.7285L16.626 17.4756L16.7871 17.8125L17.1533 18.5596L17.3145 18.8965L17.4316 19.1455L17.5488 19.3799L17.915 20.127L18.0762 20.4639L18.2959 20.918L18.3838 21.167L18.4277 21.416V21.6797L18.3691 21.958L18.2812 22.1924L18.1641 22.3975L18.0469 22.5439L17.9004 22.6904L17.71 22.8223L17.4756 22.9395L17.2852 22.998L17.0215 23.042H16.8311L16.4795 22.9834L13.7256 22.3389L13.125 22.2217L12.5244 22.1338L11.8799 22.0752L11.6455 22.0605L11.1914 22.0459H10.7227L10.0781 22.0752L9.43359 22.1338L9.38965 22.1631L9.58008 22.4268L9.74121 22.6611L9.78516 22.7197L9.8584 22.7051L10.2686 22.5L10.5469 22.3828L10.7666 22.3389H11.0596L11.2354 22.3682L11.4258 22.4414L11.5869 22.5293L11.7188 22.6318L11.8213 22.7197L11.9385 22.8809L12.0557 23.0859L12.334 23.6572L12.4365 23.9062L12.4951 24.1406V24.4189L12.4365 24.6826L12.3779 24.8291L29.0039 24.8438L29.0479 24.8291V6.5625L27.5684 6.54785L27.4072 6.48926L27.29 6.38672L27.2021 6.21094L27.1875 6.09375L27.2168 5.93262L27.2754 5.81543L27.334 5.74219L27.5244 5.63965L27.627 5.625L29.0479 5.61035V0.9375H2.3584ZM10.5029 8.04199L10.3564 8.10059L10.2393 8.18848L10.1367 8.32031L9.90234 8.81836L9.87305 8.8916L9.8877 8.96484L10.0342 9.28711L10.1514 9.52148L10.3125 9.8584L10.4297 10.0928L10.752 10.752L10.9863 11.2354L11.2646 11.8066L11.4697 12.2314L11.7188 12.7441L12.0557 13.4326L12.2168 13.7695L12.583 14.5166L12.7441 14.8535L12.8613 15.1025L12.9785 15.3369L13.3447 16.084L13.5059 16.4209L13.623 16.6699L13.7402 16.9043L14.0039 17.4463L14.0479 17.5635V17.7979L13.9746 17.9443L13.9014 18.0322L13.7695 18.1055L13.6816 18.1348H13.4912L13.3447 18.0762L13.2422 17.9883L13.1543 17.8418L12.9346 17.4023L12.7734 17.0654L12.4365 16.377L12.2314 15.9521L11.9971 15.4688L11.8652 15.1904L11.748 14.9561L11.4551 14.3555L11.1768 13.7842L10.9717 13.3594L10.6787 12.7588L10.4004 12.1875L10.166 11.7041L9.96094 11.2793L9.62402 10.5908L9.43359 10.1807L9.3457 10.0342L9.31641 10.0781L9.11133 10.5176L9.00879 10.752L8.59863 11.5723L8.42285 11.8799L8.23242 12.2021L8.02734 12.5244L7.82227 12.832L7.64648 13.0811L7.5293 13.2422L7.38281 13.4326L7.17773 13.6963L7.0166 13.8867L6.84082 14.0918L6.69434 14.2529L6.5918 14.3701L6.45996 14.502L6.35742 14.6191L5.99121 14.9854L5.87402 15.0879L5.81543 15.1465L5.84473 15.2197L6.00586 15.4541L6.32812 15.9375L6.50391 16.2158L6.70898 16.5527L6.91406 16.9043L7.06055 17.168L7.26562 17.5488L7.4707 17.9443L7.64648 18.3105L7.83691 18.7207L8.08594 19.3066L8.30566 19.8779L8.42285 20.1855L8.59863 20.7129L8.77441 21.2695L8.97949 21.2549L9.56543 21.1816L10.0781 21.1377L10.8105 21.1084H11.2061L11.6895 21.123L12.4365 21.1816L13.0078 21.2549L13.6084 21.3574L14.2236 21.4893L14.9707 21.665L15 21.6504L14.707 21.0498L14.5459 20.7129L14.2969 20.2002L14.0625 19.7168L13.916 19.4092L13.8867 19.3213V19.1162L13.9453 18.9697L14.0039 18.8965V18.8672L14.0625 18.8379L14.165 18.7793L14.3555 18.75L14.502 18.7793L14.6191 18.8379L14.7217 18.9404L14.8975 19.2773L15.0586 19.6143L15.293 20.0977L15.6152 20.7568L15.791 21.123L15.9082 21.3721L16.0254 21.6064L16.1719 21.9141L16.2158 21.958L16.7139 22.0752L16.8896 22.1045H16.9922L17.1387 22.0605L17.2705 21.9873L17.373 21.8848L17.4463 21.7676L17.4902 21.5625L17.4756 21.416L17.4023 21.2256L17.2705 20.9473L17.1533 20.7129L16.7725 19.9365L16.6113 19.5996L16.4941 19.3506L16.377 19.1162L16.0107 18.3691L15.8496 18.0322L15.5566 17.4316L15.3223 16.9482L15.0293 16.3477L14.751 15.7764L14.5898 15.4395L14.4434 15.1318L14.3262 14.8975L14.0332 14.2969L13.7549 13.7256L13.5498 13.3008L13.2568 12.7002L12.9785 12.1289L12.7441 11.6455L12.5391 11.2207L12.3926 10.9131L12.2754 10.6787L11.9824 10.0781L11.7041 9.50684L11.499 9.08203L11.2061 8.48145L11.1035 8.27637L10.9863 8.14453L10.8105 8.05664L10.7666 8.04199H10.5029ZM5.06836 15.791L4.6875 16.084L4.43848 16.2598L4.2334 16.4062L3.94043 16.5967L3.66211 16.7725L3.36914 16.9482L3.19336 17.0508V17.0947L3.41309 17.4316L3.58887 17.71L3.86719 18.1787L4.04297 18.4863L4.21875 18.8086L4.39453 19.1455L4.58496 19.5117L4.77539 19.9219L4.96582 20.3467L5.21484 20.9473L5.47852 21.6504L5.6543 22.1631L5.80078 22.1191L6.28418 21.9287L6.81152 21.7529L7.29492 21.6064L7.80762 21.4746L7.83691 21.46L7.79297 21.2988L7.58789 20.6543L7.32422 19.9365L7.10449 19.4092L6.97266 19.1016L6.76758 18.6475L6.65039 18.4131L6.51855 18.1641L6.40137 17.9297L6.24023 17.6221L5.88867 17.0068L5.71289 16.7285L5.49316 16.377L5.18555 15.9229L5.09766 15.8057L5.06836 15.791ZM2.34375 17.5342L2.18262 17.6221L2.00684 17.7539L1.80176 17.9297L1.64062 18.0908L1.47949 18.2959L1.37695 18.4424L1.24512 18.6768L1.14258 18.8965L1.04004 19.2041L0.981445 19.4531L0.9375 19.8779V20.0391L0.981445 20.4346L1.05469 20.7422L1.17188 21.0645L1.31836 21.3574L1.46484 21.5771L1.61133 21.7676L1.66992 21.8408H1.69922L1.72852 21.8994L1.8457 22.0166L2.00684 22.1484L2.21191 22.2949L2.46094 22.4414L2.75391 22.5732L3.03223 22.6611L3.31055 22.7197L3.57422 22.749H3.91113L4.2334 22.7051L4.55566 22.6318L4.76074 22.5586L4.77539 22.5L4.57031 21.8994L4.29199 21.167L4.02832 20.5518L3.83789 20.1416L3.66211 19.7754L3.42773 19.3066L3.2373 18.9697L3.03223 18.6035L2.7832 18.1934L2.63672 17.959L2.47559 17.71L2.3584 17.5342H2.34375ZM8.29102 22.3242L7.83691 22.4268L7.29492 22.5732L6.70898 22.7637L6.24023 22.9395L5.78613 23.1299L5.49316 23.2617L5.27344 23.3643L4.98047 23.4814L4.59961 23.5986L4.70215 24.0527L5.05371 25.4883L5.30273 26.5137L5.53711 27.4805L5.74219 28.3154L5.83008 28.667L5.88867 28.8135L6.02051 28.96L6.16699 29.0332L6.22559 29.0479H6.41602L6.63574 28.96L7.38281 28.5938L8.32031 28.1396L8.56934 28.0225L9.03809 27.7881L9.4043 27.6123L10.0635 27.29L10.4297 27.1143L10.7373 26.9678L10.9424 26.8506L11.0156 26.792V26.7627H11.0449L11.1182 26.6162L11.1328 26.5576V26.3525L11.0742 26.1914L10.9131 25.957L10.7373 25.708L10.5322 25.415L10.3418 25.1514L10.1514 24.873L10.0342 24.7119L9.62402 24.126L8.74512 22.8809L8.54004 22.5879L8.37891 22.3535L8.36426 22.3242H8.29102ZM10.8398 23.2764L10.3711 23.4961V23.5547L10.5176 23.7598L10.6787 23.9941L11.0303 24.4922L11.1475 24.6533H11.2207L11.4551 24.5215L11.543 24.4189L11.5576 24.3604V24.2432L11.4551 23.9941L11.1475 23.3789L11.0596 23.3057L11.001 23.2764H10.8398Z" fill="#4F5B5E"/>
<path d="M26.1475 9.24316H26.5576L26.8066 9.28711L27.1143 9.38965L27.3633 9.52148L27.5391 9.65332L27.6855 9.78516L27.8027 9.90234L27.9492 10.1074L28.0371 10.2539L28.1543 10.5469L28.2129 10.7666L28.2422 10.9863V11.2646L28.2129 11.4697L28.1543 11.7041L28.0078 12.0557L27.7295 12.627L27.5977 12.9199L27.4951 13.125L27.4805 13.1982L27.876 13.3887L28.0078 13.4912L28.0664 13.5645L28.125 13.6816L28.1396 13.7402V13.9014L28.0371 14.209L27.832 14.7217L27.5684 15.3955L27.2754 16.1426L27.1143 16.5527L26.8945 17.1094L26.6895 17.6367L26.5283 18.0469L26.2646 18.7207L26.0449 19.2773L25.8105 19.8779L25.6787 20.1855L25.5469 20.332L25.4004 20.4053L25.2686 20.4346L25.1074 20.4053L24.6094 20.1709L24.1553 19.9512L23.2324 19.5117L22.7344 19.2773L22.2217 19.0283L21.8115 18.8379L21.5332 18.7061L21.2988 18.5889L20.874 18.3838L20.4639 18.1934L19.9512 17.9443L19.834 17.8564L19.7314 17.6953L19.7021 17.5781V17.4756L19.7461 17.3291L19.9219 17.0068L20.127 16.6553L20.3467 16.2598L20.7568 15.542L20.9619 15.1758L21.3721 14.458L21.5771 14.0918L21.7529 13.7842L21.9727 13.4033L22.1777 13.0371L22.3535 12.7295L22.5586 12.3633L22.7637 12.0117L22.9834 11.6162L23.1006 11.4551L23.2324 11.3672L23.3643 11.3232H23.4814L23.6719 11.3818L24.0381 11.5576L24.082 11.499L24.3604 10.9277L24.5068 10.6055L24.624 10.3711L24.7559 10.1221L24.873 9.94629H24.9023L24.9316 9.8877L25.0488 9.75586H25.0781V9.72656L25.2832 9.56543L25.5029 9.43359L25.752 9.33105L25.957 9.27246L26.1475 9.24316ZM26.2207 10.1953L26.001 10.2539L25.8398 10.3418L25.6787 10.4736L25.5615 10.6348L25.4443 10.8691L25.1953 11.3818L25.0342 11.7188L24.917 11.9531L24.9316 11.9971L25.415 12.2314L25.8252 12.4219L26.3086 12.6562L26.5576 12.7734H26.6016L26.7188 12.5391L26.9531 12.0557L27.1143 11.7188L27.2461 11.4111L27.29 11.2061V11.0596L27.2607 10.8838L27.1875 10.6934L27.085 10.5322L27.0117 10.4443L26.8506 10.3271L26.6748 10.2393L26.4844 10.1953H26.2207ZM23.6279 12.4219L23.4961 12.6562L23.2764 13.0371L23.0713 13.4033L22.4854 14.4287L22.2949 14.7656L22.0898 15.1318L21.7383 15.7471L21.5479 16.084L21.3135 16.4941L21.123 16.8311L20.918 17.1826L20.8594 17.2852V17.3291L21.1963 17.4902L21.46 17.6074L21.6943 17.7246L22.1777 17.959L22.4414 18.0762L22.6758 18.1934L23.042 18.3691L23.54 18.6035L24.9756 19.292L25.0195 19.2773L25.3125 18.5303L25.5029 18.0469L25.7666 17.373L26.0596 16.626L26.2793 16.0693L26.543 15.3955L26.8359 14.6484L27.0557 14.0918L27.041 14.0479L26.4404 13.7549L26.1035 13.5938L25.6055 13.3594L24.8438 12.9932L24.3457 12.7588L23.8623 12.5244L23.6279 12.4219Z" fill="#FF725E"/>
<path d="M20.2881 7.13379L20.625 7.16309L20.8447 7.22168L21.0791 7.30957L21.3281 7.44141L21.4746 7.55859L21.6357 7.71973L21.7383 7.88086L21.8408 8.08594L21.8994 8.30566L21.9287 8.49609V8.9209L21.8994 9.18457L21.8262 9.52148L21.709 9.91699L21.5625 10.2979L21.4014 10.6641L21.2695 10.9424L21.123 11.2207L20.9766 11.4844L20.8594 11.6455L20.8008 11.7188L20.625 11.8506L20.4639 11.9238L20.2441 11.9824H20.0244L19.7461 11.9092L19.3359 11.748L18.8965 11.5576L18.4277 11.3232L18.1494 11.1621L17.8857 10.9863L17.71 10.8545L17.5488 10.7227L17.3584 10.5469L17.1826 10.3418L17.0361 10.1221L16.9189 9.87305L16.8604 9.65332L16.8457 9.53613V9.33105L16.9043 9.03809L17.0068 8.78906L17.1533 8.54004L17.3145 8.33496L17.373 8.26172L17.4902 8.15918L17.6807 8.02734L17.9004 7.9248L18.1641 7.86621H18.4863L18.7207 7.91016L18.9404 7.9834L19.0576 8.02734L19.0869 7.93945L19.1895 7.74902L19.292 7.61719L19.4092 7.48535L19.5996 7.33887L19.8193 7.22168L20.0098 7.16309L20.2881 7.13379ZM20.2002 8.10059L20.1123 8.14453L20.0244 8.21777L19.9365 8.34961L19.8047 8.58398L19.7021 8.70117V8.73047L19.6436 8.75977L19.4971 8.8623L19.3213 8.93555L19.1162 8.97949H18.9697L18.7646 8.93555L18.5303 8.84766L18.4277 8.81836H18.252L18.1494 8.8623L18.0029 8.99414L17.8711 9.19922L17.8125 9.3457L17.7979 9.44824L17.8564 9.63867L17.959 9.78516L18.0908 9.93164L18.2373 10.0635L18.501 10.2539L18.6914 10.3711L18.999 10.5469L19.3945 10.7373L19.7754 10.8984L20.083 11.0156L20.1562 11.001L20.376 10.5908L20.5518 10.2393L20.7568 9.74121L20.8594 9.43359L20.9473 9.06738L20.9766 8.90625V8.54004L20.9326 8.39355L20.8594 8.27637L20.7129 8.18848L20.5078 8.11523L20.4199 8.10059H20.2002Z" fill="#FF725E"/>
<path d="M21.6357 20.0391H21.9727L22.251 20.083L22.4854 20.1709L22.6465 20.2588L22.7783 20.3613L22.9248 20.5078L23.0566 20.7129L23.1445 20.9619L23.1885 21.1816V21.2256L23.3789 21.2402L23.6572 21.3135L23.8916 21.4307L24.0381 21.5479L24.1699 21.6797L24.3018 21.8848L24.3896 22.0898L24.4482 22.3242L24.4775 22.5293V22.7783L24.4336 23.0127L24.3164 23.2764L24.1699 23.4668L24.0527 23.584L23.8623 23.7158L23.6133 23.8477L23.2617 23.9648L22.8662 24.0527L22.3975 24.1113L22.1924 24.126H21.3574L21.1377 24.0967L20.9473 24.0234L20.8008 23.9355L20.6543 23.8037L20.5518 23.6572L20.4785 23.5107L20.4346 23.3643L20.3906 22.9688L20.376 22.7637V21.958L20.4199 21.5332L20.4785 21.2549L20.5518 21.0059L20.6543 20.7568L20.7861 20.5371L20.918 20.376L21.0791 20.2441L21.2842 20.127L21.5186 20.0537L21.6357 20.0391ZM21.709 20.9912L21.6064 21.0352L21.5039 21.1816L21.416 21.4307L21.3721 21.6357L21.3281 22.0166V22.6904L21.3721 23.1592L21.3867 23.1738H22.1338L22.5 23.1445L22.8662 23.0859L23.1738 22.998L23.4082 22.8809L23.5107 22.7637L23.5254 22.6611L23.4961 22.4268L23.4375 22.2949L23.3496 22.2217L23.2324 22.1924L22.9834 22.1631L22.8076 22.1045L22.6465 22.0166L22.5 21.8848L22.3828 21.7383L22.2949 21.5479L22.207 21.1523L22.1777 21.0938L22.0605 21.0205L21.9141 20.9912H21.709Z" fill="#FF725E"/>
<path d="M8.4082 1.86035L8.62793 1.875L8.84766 1.91895L9.06738 2.00684L9.25781 2.12402L9.41895 2.25586L9.55078 2.40234L9.68262 2.60742L9.77051 2.79785L9.8291 3.00293L9.84375 3.09082V3.47168L9.78516 3.7207L9.66797 3.98438L9.53613 4.1748L9.4043 4.32129L9.22852 4.45312L9.02344 4.57031L8.75977 4.6582L8.58398 4.6875H8.27637L8.04199 4.64355L7.82227 4.55566L7.66113 4.46777L7.51465 4.35059L7.32422 4.16016L7.19238 3.95508L7.11914 3.80859L7.0459 3.57422L7.0166 3.3252L7.03125 3.07617L7.08984 2.82715L7.19238 2.59277L7.32422 2.40234L7.45605 2.25586L7.58789 2.13867L7.77832 2.02148L7.93945 1.94824L8.12988 1.88965L8.4082 1.86035ZM8.4082 2.8125L8.27637 2.8418L8.18848 2.88574L8.05664 3.00293L7.99805 3.12012L7.9834 3.19336V3.38379L8.04199 3.51562L8.11523 3.61816L8.24707 3.70605L8.33496 3.73535H8.52539L8.70117 3.66211L8.81836 3.54492L8.87695 3.42773L8.8916 3.38379V3.17871L8.81836 3.00293L8.71582 2.90039L8.55469 2.82715L8.4082 2.8125Z" fill="#FF725E"/>
<path d="M4.6582 1.86035L4.89258 1.875L5.1416 1.93359L5.37598 2.03613L5.52246 2.13867L5.66895 2.25586L5.80078 2.40234L5.93262 2.60742L6.02051 2.79785L6.0791 3.00293L6.09375 3.09082V3.47168L6.03516 3.7207L5.91797 3.98438L5.78613 4.1748L5.6543 4.32129L5.47852 4.45312L5.27344 4.57031L5.00977 4.6582L4.83398 4.6875H4.52637L4.29199 4.64355L4.07227 4.55566L3.91113 4.46777L3.76465 4.35059L3.57422 4.16016L3.44238 3.95508L3.36914 3.80859L3.2959 3.57422L3.2666 3.3252L3.28125 3.06152L3.35449 2.7832L3.47168 2.54883L3.61816 2.34375L3.7793 2.18262L3.92578 2.08008L4.14551 1.96289L4.37988 1.88965L4.6582 1.86035ZM4.64355 2.8125L4.52637 2.8418L4.43848 2.88574L4.30664 3.00293L4.24805 3.12012L4.2334 3.19336V3.38379L4.29199 3.51562L4.36523 3.61816L4.49707 3.70605L4.58496 3.73535H4.77539L4.92188 3.67676L5.03906 3.57422L5.1123 3.47168L5.1416 3.38379V3.17871L5.06836 3.00293L4.96582 2.90039L4.80469 2.82715L4.64355 2.8125Z" fill="#FF725E"/>
<path d="M12.1582 1.86035L12.3926 1.875L12.6416 1.93359L12.8467 2.02148L13.0078 2.12402L13.1689 2.25586L13.3008 2.40234L13.4326 2.60742L13.5059 2.75391L13.5645 2.94434L13.5938 3.09082V3.47168L13.5352 3.7207L13.418 3.98438L13.2715 4.18945L13.1982 4.27734H13.1689L13.1543 4.32129L12.9785 4.45312L12.7734 4.57031L12.5098 4.6582L12.334 4.6875H12.0264L11.792 4.64355L11.5723 4.55566L11.4111 4.46777L11.2646 4.35059L11.0742 4.16016L10.9424 3.95508L10.8691 3.80859L10.7959 3.57422L10.7666 3.3252L10.7812 3.07617L10.8398 2.82715L10.9424 2.59277L11.0742 2.40234L11.2061 2.25586L11.3379 2.13867L11.5283 2.02148L11.6895 1.94824L11.8799 1.88965L12.1582 1.86035ZM12.1582 2.8125L12.0264 2.8418L11.9385 2.88574L11.8066 3.00293L11.748 3.12012L11.7334 3.19336V3.38379L11.792 3.51562L11.8652 3.61816L11.9971 3.70605L12.085 3.73535H12.2754L12.4512 3.66211L12.5684 3.54492L12.627 3.42773L12.6416 3.38379V3.17871L12.5684 3.00293L12.4658 2.90039L12.3047 2.82715L12.1582 2.8125Z" fill="#FF725E"/>
</svg>
