<svg width="30" height="30" viewBox="0 0 30 30" fill="none" xmlns="http://www.w3.org/2000/svg">
<g clip-path="url(#clip0_1716_20694)">
<path d="M15 15C14.915 15 14.83 14.9825 14.7512 14.9475L0.37625 8.6975C0.1475 8.59875 0 8.37375 0 8.125C0 7.87625 0.1475 7.65125 0.37625 7.5525L14.7512 1.3025C14.91 1.2325 15.09 1.2325 15.2488 1.3025L29.6237 7.5525C29.8525 7.65125 30 7.87625 30 8.125C30 8.37375 29.8525 8.59875 29.6237 8.6975L15.2488 14.9475C15.17 14.9825 15.085 15 15 15ZM2.1925 8.125L15 13.6938L27.8075 8.125L15 2.55625L2.1925 8.125Z" fill="#4F5B5E"/>
<path d="M15 19.9999C14.915 19.9999 14.83 19.9824 14.7512 19.9474L0.37625 13.6974C0.1475 13.5987 0 13.3737 0 13.1249C0 12.8762 0.1475 12.6512 0.37625 12.5524L6.12625 10.0524C6.44375 9.91493 6.81 10.0587 6.94875 10.3762C7.08625 10.6924 6.94125 11.0612 6.625 11.1987L2.1925 13.1249L15 18.6937L27.8075 13.1249L23.3763 11.1974C23.06 11.0599 22.9137 10.6912 23.0525 10.3749C23.19 10.0574 23.5562 9.91243 23.875 10.0512L29.625 12.5512C29.8525 12.6512 30 12.8762 30 13.1249C30 13.3737 29.8525 13.5987 29.6237 13.6974L15.2488 19.9474C15.17 19.9824 15.085 19.9999 15 19.9999Z" fill="#4F5B5E"/>
<path d="M15 24.9998C14.915 24.9998 14.83 24.9823 14.7512 24.9473L0.37625 18.6973C0.1475 18.5985 0 18.3735 0 18.1248C0 17.876 0.1475 17.651 0.37625 17.5523L6.12625 15.0523C6.44375 14.9148 6.81 15.0598 6.94875 15.376C7.08625 15.6923 6.94125 16.061 6.625 16.1985L2.1925 18.1248L15 23.6935L27.8075 18.1248L23.3763 16.1973C23.06 16.0598 22.9137 15.691 23.0525 15.3748C23.19 15.0585 23.5562 14.911 23.875 15.051L29.625 17.551C29.8525 17.651 30 17.876 30 18.1248C30 18.3735 29.8525 18.5985 29.6237 18.6973L15.2488 24.9473C15.17 24.9823 15.085 24.9998 15 24.9998Z" fill="#FF725E"/>
<path d="M15 29.9998C14.915 29.9998 14.83 29.9823 14.7512 29.9473L0.37625 23.6973C0.1475 23.5985 0 23.3735 0 23.1248C0 22.876 0.1475 22.651 0.37625 22.5523L6.12625 20.0523C6.44375 19.9135 6.81 20.0598 6.94875 20.376C7.08625 20.6923 6.94125 21.061 6.625 21.1985L2.1925 23.1248L15 28.6935L27.8075 23.1248L23.3763 21.1973C23.06 21.0598 22.9137 20.691 23.0525 20.3748C23.19 20.0585 23.5562 19.911 23.875 20.051L29.625 22.551C29.8525 22.651 30 22.876 30 23.1248C30 23.3735 29.8525 23.5985 29.6237 23.6973L15.2488 29.9473C15.17 29.9823 15.085 29.9998 15 29.9998Z" fill="#4F5B5E"/>
</g>
<defs>
<clipPath id="clip0_1716_20694">
<rect width="30" height="30" fill="white"/>
</clipPath>
</defs>
</svg>
