<svg width="27" height="30" viewBox="0 0 27 30" fill="none" xmlns="http://www.w3.org/2000/svg">
<path d="M2.62198 0H17.8391L17.9839 0.0482574L18.1448 0.160858L18.3539 0.369973V0.402145L18.4182 0.434316L19.2225 1.23861L19.2547 1.25469V1.28686L19.319 1.31903L20.252 2.25201L20.3807 2.36461L21.2172 3.20107L21.3137 3.2815V3.31367L21.378 3.34584L22.0536 4.02145L22.1823 4.13405L23.0188 4.97051L23.0509 4.9866V5.01877L23.1153 5.05094L23.7748 5.71046L23.9035 5.82306L24.0161 5.98391L24.0483 6.09651V17.8874L25.1099 17.9035L25.3512 17.9357L25.5603 18.0161L25.7534 18.1448L25.8338 18.2091L25.9946 18.4182L26.0912 18.6113L26.1394 18.8043L26.1555 19.126V25.6086L26.1394 25.9946L26.0751 26.2198L25.9625 26.429L25.7855 26.622L25.6086 26.7507L25.3834 26.8472L25.2386 26.8794L25.0456 26.8954H24.0483V29.0831L24.0322 29.5979L23.9678 29.7587L23.8391 29.9035L23.7105 29.9678L23.5657 30H2.54155L2.36461 29.9357L2.21984 29.807L2.13941 29.6783L2.10724 29.5335V26.8954H1.02949L0.80429 26.8633L0.563003 26.7668L0.386059 26.6381L0.241287 26.4933L0.0965147 26.2681L0.0321716 26.0912L0 25.882V18.8847L0.0482574 18.6595L0.128686 18.4665L0.241287 18.3056L0.386059 18.1448L0.595174 18.0161L0.788204 17.9357L0.981233 17.9035H2.10724V0.466488L2.1555 0.30563L2.25201 0.176944L2.36461 0.080429L2.44504 0.0321716L2.62198 0ZM3.15281 1.04558V17.9196H22.9705L22.9866 17.9035V6.72386L17.7105 6.70777L17.5335 6.65952L17.437 6.59517L17.3566 6.51475L17.2761 6.38606L17.244 6.27346L17.2279 1.04558H3.15281ZM18.2735 1.78552V5.67828H22.1501L22.2145 5.6622L22.1984 5.61394L22.0697 5.50134L21.0885 4.52011L20.9598 4.40751L20.1716 3.6193L20.0429 3.5067L19.4477 2.91153L19.319 2.79893L18.5308 2.01072L18.4021 1.89812L18.2895 1.78552H18.2735ZM1.06166 18.9491L1.04558 19.0134V25.8499H25.0777L25.0938 25.8338V18.9491H1.06166ZM3.1689 26.8954L3.15281 26.9598V28.9705H22.9544L22.9866 28.9544V26.8954H3.1689Z" fill="#4F5B5E"/>
<path d="M6.80422 20.043H7.01333L7.1581 20.0912L7.30288 20.2038L7.46373 20.4451L7.72111 20.8794L8.25194 21.7641L8.5254 22.2146L8.62191 22.0698L8.7506 21.8446L8.95971 21.5068L9.12057 21.2333L9.69966 20.2682L9.79617 20.1556L9.92486 20.0751L10.0214 20.043H10.2466L10.4396 20.1234L10.5683 20.2521L10.6487 20.4129L10.6648 20.4934V24.4183L10.6326 24.5631L10.52 24.7239L10.3753 24.8365L10.2144 24.8848H10.0535L9.8766 24.8204L9.74792 24.7078L9.68357 24.6274L9.61923 24.4666L9.60314 22.5041L9.50663 22.6489L9.201 23.1636L8.9758 23.5336L8.89537 23.6301L8.7506 23.7266L8.65408 23.7588L8.49323 23.7749L8.3002 23.7266L8.17151 23.6301L8.05891 23.5014L7.78545 23.0349L7.52808 22.6167L7.44765 22.488L7.43156 24.4666L7.36722 24.6274L7.22245 24.7883L7.06159 24.8687L6.98116 24.8848H6.83639L6.67553 24.8365L6.54684 24.74L6.45033 24.6113L6.40207 24.4987L6.38599 24.4022V20.5095L6.45033 20.3003L6.5951 20.1395L6.75596 20.0591L6.80422 20.043Z" fill="#FF725E"/>
<path d="M16.7615 19.8979L18.4022 19.914L18.6757 19.9623L18.8848 20.0427L19.11 20.1714L19.2869 20.3162L19.4156 20.4449L19.5604 20.654L19.6891 20.9274L19.7534 21.1848L19.7695 21.4422L19.7373 21.7317L19.673 21.9408L19.5443 22.1982L19.4156 22.3752L19.2548 22.5521L19.0296 22.713L18.7883 22.8256L18.5631 22.8899L18.2414 22.9221L17.3888 22.9382L17.3727 24.3376L17.3084 24.4985L17.228 24.6111L17.0832 24.7076L16.9223 24.7559H16.7776L16.6167 24.7076L16.4719 24.595L16.3593 24.4181L16.3271 24.2733V20.3323L16.3915 20.1553L16.5202 20.0105L16.6971 19.914L16.7615 19.8979ZM17.3888 20.9596L17.3727 21.024V21.8765H18.2574L18.4344 21.8443L18.5792 21.7478L18.6757 21.6191L18.7078 21.5226V21.3135L18.6435 21.1526L18.5148 21.024L18.354 20.9596H17.3888Z" fill="#FF725E"/>
<path d="M11.646 20.043H11.8551L12.0482 20.1234L12.1768 20.2521L12.3055 20.5095L12.5629 21.0725L12.7559 21.5068L13.335 22.7936L13.4476 23.051L13.4959 22.9867L13.7854 22.3432L14.0911 21.6676L14.3484 21.0885L14.6058 20.5255L14.7345 20.2682L14.8471 20.1395L14.9919 20.0591L15.0562 20.043H15.2653L15.4101 20.0912L15.5388 20.1877L15.6192 20.2843L15.6835 20.4451V20.6703L15.6192 20.8473L15.3457 21.4585L15.0401 22.1341L14.7184 22.858L14.4449 23.4532L14.1876 24.0322L14.0428 24.37L13.8819 24.6757L13.7533 24.8044L13.6085 24.8687L13.5441 24.8848H13.3672L13.1902 24.8204L13.0455 24.6918L12.949 24.5309L12.5307 23.5979L12.2251 22.9223L12.016 22.4558L11.7264 21.8124L11.5334 21.3781L11.3243 20.9116L11.2278 20.6542V20.4612L11.3082 20.2682L11.3726 20.1877L11.5173 20.0912L11.646 20.043Z" fill="#FF725E"/>
<path d="M17.0993 9.66748H17.2441L17.421 9.73182L17.5819 9.86051L17.7266 10.0053L17.8392 10.134L18.0323 10.327L18.1449 10.4557L18.354 10.6648L18.4666 10.7935L18.6757 11.0026L18.7883 11.1313L18.9974 11.3404L19.11 11.4691L19.3835 11.7425L19.4961 11.8712L19.6248 12.016L19.7052 12.1929V12.4342L19.6087 12.6273L19.2548 13.0133L19.0296 13.2385L18.917 13.3672L18.724 13.5602L18.7079 13.5924H18.6757L18.6435 13.6568L18.3701 13.9302L18.2575 14.0589L18.0484 14.268L17.9358 14.3967L17.6784 14.6541L17.6623 14.6862H17.6301L17.598 14.7506L17.4693 14.8632L17.3406 14.9275L17.2762 14.9436H17.035L16.9063 14.8954L16.7454 14.7506L16.6489 14.5576L16.6328 14.3967L16.6972 14.1876L16.8098 14.0428L16.8741 13.9624H16.9063V13.9302H16.9384L16.9706 13.8659L17.1476 13.6889L17.2602 13.5602L17.5336 13.2868L17.5497 13.2546H17.5819L17.614 13.1903L17.9036 12.9007L17.9197 12.8686H17.9518L17.984 12.8042L18.1449 12.6434L18.161 12.6112H18.1931L18.2253 12.5468L18.4344 12.3377L18.4183 12.2734L18.2575 12.1125L18.1449 11.9838L17.9036 11.7265L17.7427 11.5656V11.5334H17.7106L17.598 11.4047L17.3406 11.1474L17.228 11.0187L16.9706 10.7613L16.858 10.6326L16.7293 10.4879L16.665 10.3592L16.6328 10.2466L16.6489 10.0696L16.7132 9.90877L16.8098 9.79617L16.9706 9.69965L17.0993 9.66748Z" fill="#FF725E"/>
<path d="M8.91154 9.66748H9.05631L9.21717 9.71574L9.34585 9.81225L9.44237 9.92485L9.50671 10.0696V10.3109L9.44237 10.4557L9.31368 10.6165L9.28151 10.6648H9.24934V10.697H9.21717L9.185 10.7613L8.9598 10.9865L8.94371 11.0187H8.91154L8.87937 11.083L8.65417 11.3082L8.54156 11.4369L8.28419 11.6943L8.26811 11.7265H8.23593V11.7586H8.20376L8.17159 11.823L7.94639 12.0482L7.9303 12.0803H7.89813V12.1125H7.86596L7.83379 12.1769L7.7051 12.3056L7.68902 12.3377L7.75336 12.3699L7.80162 12.4182V12.4503H7.83379V12.4825H7.86596L7.97856 12.6112L8.18768 12.8203L8.30028 12.949L8.52548 13.1742L8.63808 13.3029L8.86328 13.5281L8.97588 13.6568L9.15282 13.8337V13.8659H9.185V13.898H9.21717L9.32977 14.0267L9.44237 14.1715L9.50671 14.3163L9.5228 14.4289L9.47454 14.6541L9.36194 14.7988L9.23325 14.8954L9.10457 14.9436H8.86328L8.70242 14.8793L8.54156 14.7345L8.42896 14.6058L8.21985 14.3967V14.3645H8.18768L8.07508 14.2358L7.84988 14.0106V13.9785H7.8177L7.7051 13.8498L7.4799 13.6246L7.3673 13.4959L7.23862 13.3672L7.12602 13.2385L6.93299 13.0455V13.0133H6.90081L6.78821 12.8846L6.59518 12.6916L6.49867 12.5629L6.45041 12.4342L6.43433 12.3056L6.4665 12.1447L6.54693 11.9838L6.72387 11.8069L6.8043 11.7104H6.83647L6.86864 11.646L7.09384 11.4208L7.20644 11.2921L7.39947 11.0991L7.41556 11.0669H7.44773L7.4799 11.0026L7.68902 10.7935L7.80162 10.6648L8.07508 10.3913L8.09116 10.3592H8.12333L8.15551 10.2948L8.38071 10.0696L8.49331 9.94094L8.65417 9.78008L8.83111 9.68357L8.91154 9.66748Z" fill="#FF725E"/>
<path d="M13.8498 9.21729H14.0911L14.2358 9.28163L14.3645 9.39423L14.461 9.539L14.4932 9.6516V9.81246L14.3967 10.1342L14.2519 10.5363L14.0911 11.0028L13.8337 11.7588L13.5924 12.4505L13.2385 13.48L12.9972 14.1717L12.772 14.8151L12.6755 15.0886L12.5629 15.2655L12.4181 15.3621L12.2734 15.4103H12.0803L11.9356 15.3621L11.7908 15.2495L11.6943 15.0886L11.6621 14.9921V14.8151L11.7425 14.5417L12.2251 13.1422L12.386 12.6918L12.5629 12.161L12.7559 11.6141L13.1098 10.5846L13.3511 9.89289L13.4798 9.539L13.5763 9.37814L13.6889 9.28163L13.8498 9.21729Z" fill="#FF725E"/>
</svg>
