<svg width="30" height="30" viewBox="0 0 30 30" fill="none" xmlns="http://www.w3.org/2000/svg">
<g clip-path="url(#clip0_1716_20914)">
<path d="M15 12.5C15.89 12.5 16.76 12.2361 17.5001 11.7416C18.2401 11.2471 18.8169 10.5443 19.1575 9.72208C19.4981 8.89981 19.5872 7.99501 19.4135 7.1221C19.2399 6.24918 18.8113 5.44736 18.182 4.81802C17.5526 4.18868 16.7508 3.7601 15.8779 3.58647C15.005 3.41283 14.1002 3.50195 13.2779 3.84254C12.4557 4.18314 11.7529 4.75991 11.2584 5.49994C10.7639 6.23996 10.5 7.10999 10.5 8C10.5013 9.19307 10.9759 10.3369 11.8195 11.1805C12.6631 12.0241 13.8069 12.4987 15 12.5ZM15 4.5C15.6922 4.5 16.3689 4.70527 16.9445 5.08986C17.5201 5.47444 17.9687 6.02107 18.2336 6.66061C18.4985 7.30015 18.5678 8.00388 18.4327 8.68282C18.2977 9.36175 17.9644 9.98539 17.4749 10.4749C16.9854 10.9644 16.3618 11.2977 15.6828 11.4328C15.0039 11.5678 14.3001 11.4985 13.6606 11.2336C13.0211 10.9687 12.4744 10.5201 12.0899 9.9445C11.7053 9.36893 11.5 8.69224 11.5 8C11.5011 7.07207 11.8701 6.18245 12.5263 5.5263C13.1824 4.87015 14.0721 4.50106 15 4.5Z" fill="#FF725E"/>
<path d="M15 10.5C15.4945 10.5 15.9778 10.3534 16.3889 10.0787C16.8 9.80397 17.1205 9.41353 17.3097 8.95671C17.4989 8.4999 17.5484 7.99723 17.452 7.51228C17.3555 7.02732 17.1174 6.58187 16.7678 6.23223C16.4181 5.8826 15.9727 5.6445 15.4877 5.54804C15.0028 5.45157 14.5001 5.50108 14.0433 5.6903C13.5865 5.87952 13.196 6.19995 12.9213 6.61108C12.6466 7.0222 12.5 7.50555 12.5 8C12.5008 8.6628 12.7644 9.29822 13.2331 9.76689C13.7018 10.2356 14.3372 10.4992 15 10.5ZM15 6.5C15.2967 6.5 15.5867 6.58798 15.8334 6.7528C16.08 6.91762 16.2723 7.15189 16.3858 7.42598C16.4993 7.70007 16.5291 8.00167 16.4712 8.29264C16.4133 8.58361 16.2704 8.85088 16.0607 9.06066C15.8509 9.27044 15.5836 9.4133 15.2926 9.47118C15.0017 9.52906 14.7001 9.49935 14.426 9.38582C14.1519 9.27229 13.9176 9.08003 13.7528 8.83336C13.588 8.58668 13.5 8.29667 13.5 8C13.5 7.60218 13.658 7.22065 13.9393 6.93934C14.2206 6.65804 14.6022 6.5 15 6.5Z" fill="#FF725E"/>
<path d="M30 19.0001C29.9994 18.7922 29.9338 18.5897 29.8124 18.421C29.691 18.2523 29.5199 18.1257 29.323 18.0591L24.2645 16.2501L29.3235 14.4406C29.5205 14.3745 29.6919 14.2481 29.8133 14.0794C29.9347 13.9106 30 13.708 30 13.5001C30 13.2922 29.9347 13.0896 29.8133 12.9208C29.6919 12.7521 29.5205 12.6257 29.3235 12.5596L21.4735 9.74958C21.487 9.69958 21.504 9.64958 21.516 9.59958L22.4395 9.31708C22.5836 9.27392 22.7116 9.18854 22.8067 9.07197C22.9019 8.95539 22.96 8.81297 22.9735 8.66308C22.9935 8.44458 23.003 8.22308 23.003 8.00008C23.003 7.77708 22.9935 7.55558 22.9735 7.33708C22.9599 7.18708 22.9018 7.04457 22.8065 6.92792C22.7112 6.81127 22.5832 6.72582 22.439 6.68258L21.513 6.40008C21.3517 5.7393 21.0895 5.10736 20.7355 4.52658L21.189 3.67658C21.2609 3.54395 21.2913 3.39279 21.2763 3.24268C21.2613 3.09256 21.2016 2.95039 21.105 2.83458C20.9643 2.66625 20.8143 2.50325 20.655 2.34558C20.4956 2.18791 20.3325 2.03791 20.1655 1.89558C20.0497 1.79934 19.9078 1.73991 19.7581 1.72494C19.6083 1.70997 19.4575 1.74014 19.325 1.81158L18.471 2.26558C17.8909 1.91154 17.2599 1.6488 16.6 1.48658L16.318 0.563081C16.2742 0.419068 16.1885 0.29136 16.0718 0.196251C15.9552 0.101141 15.8128 0.0429429 15.663 0.0290806C15.2219 -0.0106701 14.7781 -0.0106701 14.337 0.0290806C14.187 0.0428136 14.0446 0.101033 13.928 0.196269C13.8114 0.291505 13.7259 0.419412 13.6825 0.563581L13.4 1.48658C12.7394 1.6483 12.1077 1.9107 11.527 2.26458L10.674 1.81108C10.5411 1.73947 10.3899 1.70926 10.2398 1.72432C10.0896 1.73938 9.94742 1.79902 9.83146 1.89558C9.66346 2.03558 9.50046 2.18558 9.34296 2.34558C9.18546 2.50558 9.03496 2.66608 8.89296 2.83408C8.79622 2.94974 8.73641 3.09176 8.72125 3.24178C8.7061 3.3918 8.7363 3.54291 8.80796 3.67558L9.26196 4.52908C8.90939 5.10941 8.64801 5.74043 8.48696 6.40008L7.56346 6.68258C7.41928 6.72575 7.29135 6.81112 7.19617 6.9277C7.10099 7.04427 7.04292 7.18669 7.02946 7.33658C7.00946 7.55508 6.99996 7.77658 6.99996 7.99958C6.99996 8.22258 7.00946 8.44408 7.02946 8.66158C7.04287 8.81174 7.10095 8.95443 7.19622 9.07127C7.29149 9.1881 7.41957 9.27372 7.56396 9.31708L8.48696 9.59908C8.49896 9.64908 8.51596 9.69908 8.52946 9.74908L0.676456 12.5596C0.479365 12.6257 0.308023 12.7521 0.186631 12.9208C0.0652383 13.0896 -6.98939e-05 13.2922 -6.98939e-05 13.5001C-6.98939e-05 13.708 0.0652383 13.9106 0.186631 14.0794C0.308023 14.2481 0.479365 14.3745 0.676456 14.4406L5.73546 16.2501L0.676456 18.0591C0.479247 18.1252 0.307799 18.2516 0.18633 18.4205C0.0648616 18.5893 -0.000488281 18.7921 -0.000488281 19.0001C-0.000488281 19.2081 0.0648616 19.4108 0.18633 19.5797C0.307799 19.7485 0.479247 19.875 0.676456 19.9411L5.03596 21.5001L0.676456 23.0596C0.479247 23.1257 0.307799 23.2521 0.18633 23.421C0.0648616 23.5898 -0.000488281 23.7926 -0.000488281 24.0006C-0.000488281 24.2086 0.0648616 24.4113 0.18633 24.5802C0.307799 24.749 0.479247 24.8755 0.676456 24.9416L14.6405 29.9371C14.8722 30.0211 15.1262 30.0211 15.358 29.9371L29.323 24.9416C29.5202 24.8755 29.6916 24.749 29.8131 24.5802C29.9346 24.4113 29.9999 24.2086 29.9999 24.0006C29.9999 23.7926 29.9346 23.5898 29.8131 23.421C29.6916 23.2521 29.5202 23.1257 29.323 23.0596L24.9645 21.5001L29.3235 19.9411C29.5203 19.8744 29.6913 19.7478 29.8126 19.579C29.9339 19.4103 29.9994 19.2079 30 19.0001ZM8.01246 8.40858C8.00396 8.27358 7.99996 8.13708 7.99996 8.00008C7.99996 7.86308 8.00396 7.72708 8.01246 7.59158L9.05746 7.27208C9.14407 7.24575 9.2219 7.19641 9.28266 7.12931C9.34342 7.06221 9.38483 6.97987 9.40246 6.89108C9.54773 6.15348 9.83875 5.45229 10.2585 4.82858C10.3089 4.75337 10.3379 4.66587 10.3425 4.57543C10.3471 4.48499 10.327 4.395 10.2845 4.31508L9.76996 3.35008C9.85996 3.25008 9.95296 3.15008 10.0505 3.05258C10.148 2.95508 10.2465 2.86158 10.3505 2.77208L11.318 3.28658C11.3979 3.32908 11.4879 3.34906 11.5784 3.3444C11.6688 3.33973 11.7563 3.31059 11.8315 3.26008C12.4539 2.8396 13.1538 2.54725 13.8905 2.40008C13.9791 2.38253 14.0614 2.34128 14.1285 2.28071C14.1956 2.22013 14.245 2.1425 14.2715 2.05608L14.5915 1.01058C14.8635 0.99358 15.1364 0.99358 15.4085 1.01058L15.7285 2.05608C15.7549 2.1425 15.8044 2.22013 15.8714 2.28071C15.9385 2.34128 16.0208 2.38253 16.1095 2.40008C16.8467 2.54537 17.5476 2.83639 18.171 3.25608C18.2461 3.30659 18.3336 3.33573 18.424 3.3404C18.5145 3.34506 18.6045 3.32508 18.6845 3.28258L19.65 2.77008C19.75 2.85958 19.85 2.95358 19.9475 3.05058C20.045 3.14758 20.138 3.24658 20.228 3.34808L19.7155 4.31508C19.6728 4.39507 19.6527 4.48515 19.6572 4.57568C19.6618 4.66622 19.6909 4.75381 19.7415 4.82908C20.1622 5.45232 20.4541 6.15339 20.6 6.89108C20.6176 6.97987 20.659 7.06221 20.7198 7.12931C20.7805 7.19641 20.8583 7.24575 20.945 7.27208L21.99 7.59158C21.9985 7.72658 22.0025 7.86308 22.0025 8.00008C22.0025 8.13708 21.9985 8.27308 21.99 8.40858L20.945 8.72808C20.8583 8.75441 20.7805 8.80376 20.7198 8.87086C20.659 8.93796 20.6176 9.02029 20.6 9.10908C20.4547 9.84668 20.1637 10.5479 19.744 11.1716C19.6935 11.2468 19.6645 11.3343 19.6599 11.4247C19.6553 11.5152 19.6754 11.6052 19.718 11.6851L20.23 12.6501C20.14 12.7501 20.047 12.8501 19.9495 12.9501C19.852 13.0501 19.7535 13.1411 19.652 13.2306L18.6845 12.7161C18.6045 12.6736 18.5145 12.6536 18.424 12.6583C18.3336 12.6629 18.2461 12.6921 18.171 12.7426C17.5477 13.1628 16.8469 13.4543 16.1095 13.6001C16.0208 13.6176 15.9385 13.6589 15.8714 13.7195C15.8044 13.78 15.7549 13.8577 15.7285 13.9441L15.4085 14.9896C15.1364 15.0066 14.8635 15.0066 14.5915 14.9896L14.2715 13.9441C14.245 13.8577 14.1956 13.78 14.1285 13.7195C14.0614 13.6589 13.9791 13.6176 13.8905 13.6001C13.1529 13.4547 12.4519 13.1635 11.8285 12.7436C11.7532 12.6932 11.6657 12.6641 11.5753 12.6595C11.4849 12.6549 11.3949 12.675 11.315 12.7176L10.35 13.2296C10.25 13.1406 10.15 13.0466 10.05 12.9496C9.94996 12.8526 9.85946 12.7536 9.76946 12.6496L10.284 11.6826C10.3266 11.6026 10.3467 11.5125 10.3422 11.422C10.3376 11.3314 10.3085 11.2439 10.258 11.1686C9.83809 10.5451 9.54705 9.84408 9.40196 9.10658C9.38433 9.01779 9.34292 8.93546 9.28216 8.86836C9.2214 8.80126 9.14357 8.75191 9.05696 8.72558L8.01246 8.40858ZM8.86246 10.6926C8.97957 10.9613 9.1142 11.222 9.26546 11.4731L8.81196 12.3231C8.74006 12.4557 8.70963 12.6069 8.7246 12.757C8.73958 12.9071 8.79927 13.0493 8.89596 13.1651C9.03662 13.3334 9.18662 13.4964 9.34596 13.6541C9.50529 13.8117 9.66846 13.9617 9.83546 14.1041C9.95129 14.2001 10.0931 14.2595 10.2429 14.2744C10.3926 14.2894 10.5434 14.2593 10.676 14.1881L11.5295 13.7341C12.1094 14.0881 12.7402 14.351 13.4 14.5136L13.682 15.4371C13.7255 15.5811 13.8111 15.7088 13.9277 15.8038C14.0443 15.8989 14.1866 15.9569 14.3365 15.9706C14.555 15.9906 14.7765 16.0001 14.9995 16.0001C15.2225 16.0001 15.444 15.9906 15.6625 15.9706C15.8124 15.9569 15.9549 15.8987 16.0715 15.8035C16.1881 15.7082 16.2736 15.5803 16.317 15.4361L16.599 14.5136C17.2595 14.3519 17.8912 14.0895 18.472 13.7356L19.325 14.1891C19.4578 14.2608 19.609 14.2911 19.7592 14.2761C19.9093 14.261 20.0516 14.2013 20.1675 14.1046C20.3355 13.9646 20.4985 13.8146 20.656 13.6546C20.8135 13.4946 20.964 13.3341 21.106 13.1661C21.2027 13.0504 21.2625 12.9084 21.2777 12.7584C21.2928 12.6084 21.2626 12.4573 21.191 12.3246L20.737 11.4711C20.8881 11.22 21.0225 10.9593 21.1395 10.6906L28.9865 13.5001L14.9785 18.4941L1.01346 13.5001L8.86246 10.6926ZM28.9865 24.0001L14.9785 28.9956L1.01346 24.0001L6.51996 22.0301L14.641 24.9346C14.8727 25.0186 15.1267 25.0186 15.3585 24.9346L23.48 22.0311L28.9865 24.0001ZM14.9785 23.9941L1.01346 19.0001L7.21996 16.7811L14.641 19.4356C14.8727 19.5196 15.1267 19.5196 15.3585 19.4356L22.78 16.7811L28.9865 19.0001L14.9785 23.9941Z" fill="#4F5B5E"/>
<path d="M13.6749 21.5294L8.08343 19.5294C7.95981 19.4894 7.82546 19.4991 7.70885 19.5564C7.59224 19.6137 7.50253 19.7142 7.45872 19.8365C7.41491 19.9589 7.42044 20.0935 7.47415 20.2118C7.52785 20.3301 7.62551 20.4229 7.74643 20.4704L13.3379 22.4704C13.392 22.49 13.449 22.5 13.5064 22.4999C13.6241 22.4998 13.7379 22.4581 13.8279 22.3823C13.9179 22.3065 13.9782 22.2014 13.9984 22.0855C14.0185 21.9695 13.9971 21.8502 13.9379 21.7485C13.8788 21.6468 13.7857 21.5692 13.6749 21.5294Z" fill="#4F5B5E"/>
<path d="M13.6749 26.5294L8.08343 24.5294C7.95981 24.4894 7.82546 24.4991 7.70885 24.5564C7.59224 24.6137 7.50253 24.7142 7.45872 24.8365C7.41491 24.9589 7.42044 25.0935 7.47415 25.2118C7.52785 25.3301 7.62551 25.4229 7.74643 25.4704L13.3379 27.4704C13.392 27.49 13.449 27.5 13.5064 27.4999C13.6241 27.4998 13.7379 27.4581 13.8279 27.3823C13.9179 27.3065 13.9782 27.2014 13.9984 27.0855C14.0185 26.9695 13.9971 26.8502 13.9379 26.7485C13.8788 26.6468 13.7857 26.5692 13.6749 26.5294Z" fill="#4F5B5E"/>
</g>
<defs>
<clipPath id="clip0_1716_20914">
<rect width="30" height="30" fill="white"/>
</clipPath>
</defs>
</svg>
