<svg width="30" height="30" viewBox="0 0 30 30" fill="none" xmlns="http://www.w3.org/2000/svg">
<g clip-path="url(#clip0_1716_20709)">
<path d="M14.9999 6.0415C10.0603 6.0415 6.0415 10.0603 6.0415 15.0001C6.0415 19.9399 10.0603 23.9587 14.9999 23.9587C17.7858 23.9587 20.3653 22.6955 22.0771 20.4931C22.2058 20.3277 22.1758 20.0891 22.0104 19.9606C21.8448 19.832 21.6065 19.8621 21.478 20.0273C19.911 22.0435 17.5499 23.1997 15 23.1997C10.4788 23.1997 6.80047 19.5214 6.80047 15.0001C6.80047 10.4788 10.4787 6.80047 14.9999 6.80047C19.5212 6.80047 23.1995 10.4788 23.1995 15.0001C23.1995 15.4248 23.1669 15.8505 23.1025 16.2654C23.0705 16.4725 23.2124 16.6664 23.4195 16.6985C23.6279 16.7305 23.8206 16.5887 23.8526 16.3816C23.9229 15.9283 23.9584 15.4636 23.9584 15.0001C23.9585 10.0603 19.9396 6.0415 14.9999 6.0415Z" fill="#FF725E"/>
<path d="M18.0592 10.4761L13.2933 16.2629L11.9171 14.6761C11.4024 14.0825 10.4967 14.0048 9.88911 14.532C9.28906 15.0524 9.22413 15.96 9.74503 16.56L12.407 19.6289C12.407 19.6291 12.407 19.6291 12.4072 19.6291C12.9009 20.1983 13.7873 20.1857 14.2655 19.605L20.2784 12.3038C20.7822 11.6921 20.6946 10.7844 20.0828 10.2804C19.4697 9.77546 18.5644 9.86259 18.0592 10.4761ZM19.6002 10.8662C19.889 11.1041 19.9305 11.5326 19.6926 11.8213L13.6795 19.1226C13.511 19.3271 13.1806 19.3624 12.9803 19.1317L10.3184 16.0626C10.0729 15.7801 10.1024 15.3516 10.3863 15.1053C10.6684 14.8608 11.0969 14.8887 11.3437 15.1732L13.0142 17.0992C13.0872 17.1836 13.1912 17.2284 13.3057 17.2301C13.4173 17.2286 13.5227 17.1781 13.5938 17.0918L18.645 10.9586C18.8806 10.6724 19.3072 10.6247 19.6002 10.8662Z" fill="#4F5B5E"/>
<path d="M28.0883 10.184C28.4567 8.40861 27.4356 6.64166 25.7131 6.07418C24.8713 5.79714 24.2032 5.12906 23.9261 4.28707C23.359 2.5647 21.5919 1.54488 19.8127 1.9125C18.9482 2.09185 18.037 1.84845 17.3708 1.25525C16.0191 0.0509726 13.9807 0.0505625 12.623 1.26046C11.9634 1.84804 11.053 2.09209 10.1837 1.91179C8.40827 1.543 6.64132 2.56464 6.07413 4.28695C5.79681 5.12877 5.12854 5.79685 4.28673 6.07406C2.56436 6.64136 1.54337 8.40814 1.91227 10.1873C2.09181 11.0527 1.84794 11.9631 1.25485 12.6292C0.0505748 13.9809 0.0505748 16.0195 1.26007 17.3771C1.84794 18.0371 2.09181 18.9479 1.91157 19.8163C1.54307 21.5917 2.56413 23.3586 4.28661 23.9262C5.1286 24.2032 5.79669 24.8713 6.07372 25.7133C6.64102 27.4356 8.40827 28.4569 10.1869 28.0878C11.0523 27.9082 11.9628 28.152 12.629 28.7451C13.9803 29.949 16.0187 29.9498 17.3767 28.7399C18.0369 28.1521 18.9479 27.9084 19.8159 28.0885C21.591 28.4566 23.3583 27.4357 23.9256 25.7134C24.2029 24.8716 24.8712 24.2035 25.713 23.9263C27.4354 23.359 28.4565 21.5923 28.0875 19.8131C27.9079 18.9477 28.1518 18.0372 28.7415 17.3752L28.7459 17.37C29.949 16.0182 29.9487 13.9805 28.7397 12.6232C28.1518 11.9633 27.908 11.0525 28.0883 10.184ZM28.1782 16.8663C27.372 17.8107 27.1283 18.9258 27.345 19.971C27.6349 21.3684 26.8312 22.759 25.4755 23.2055C24.4059 23.5577 23.5572 24.4065 23.2048 25.476C22.7586 26.8319 21.3682 27.6368 19.967 27.3446C18.8673 27.1171 17.7103 27.4264 16.8659 28.1786C15.8023 29.1261 14.1976 29.1262 13.1278 28.1731C12.2868 27.4242 11.1294 27.117 10.0292 27.3453C8.63134 27.6359 7.24108 26.8314 6.79472 25.4757C6.44251 24.4062 5.59354 23.5574 4.52403 23.2053C3.16829 22.7585 2.36468 21.3679 2.65536 19.9672C2.88347 18.8679 2.57386 17.7108 1.8214 16.8663C0.873758 15.8024 0.873758 14.198 1.82673 13.128C2.57368 12.2896 2.88347 11.1326 2.65477 10.0296C2.36485 8.63203 3.16858 7.24148 4.52432 6.795C5.59384 6.44279 6.44263 5.594 6.79501 4.52449C7.24132 3.16875 8.6321 2.36543 10.0328 2.65582C11.1322 2.88351 12.2893 2.57402 13.1339 1.82185C14.1975 0.874332 15.8022 0.874215 16.872 1.82736C17.7104 2.57431 18.8674 2.88351 19.9706 2.65511C21.3677 2.36531 22.7586 3.16892 23.2051 4.52466C23.5573 5.59435 24.4061 6.44314 25.4758 6.79517C26.8315 7.24195 27.6351 8.63255 27.3444 10.0332C27.1163 11.1326 27.4261 12.2897 28.1783 13.1341C29.126 14.1979 29.126 15.8024 28.1782 16.8663Z" fill="#4F5B5E"/>
</g>
<defs>
<clipPath id="clip0_1716_20709">
<rect width="30" height="30" fill="white"/>
</clipPath>
</defs>
</svg>
