<svg width="30" height="30" viewBox="0 0 30 30" fill="none" xmlns="http://www.w3.org/2000/svg">
<path d="M18.2812 5.625C16.9894 5.625 15.9375 4.57406 15.9375 3.28125C15.9375 1.98844 16.9894 0.9375 18.2812 0.9375C19.5731 0.9375 20.625 1.98844 20.625 3.28125C20.625 4.57406 19.5731 5.625 18.2812 5.625ZM18.2812 1.875C17.5059 1.875 16.875 2.50594 16.875 3.28125C16.875 4.05656 17.5059 4.6875 18.2812 4.6875C19.0566 4.6875 19.6875 4.05656 19.6875 3.28125C19.6875 2.50594 19.0566 1.875 18.2812 1.875Z" fill="#4F5B5E"/>
<path d="M10.7812 5.625C9.48937 5.625 8.4375 4.57406 8.4375 3.28125C8.4375 1.98844 9.48937 0.9375 10.7812 0.9375C12.0731 0.9375 13.125 1.98844 13.125 3.28125C13.125 4.57406 12.0731 5.625 10.7812 5.625ZM10.7812 1.875C10.0059 1.875 9.375 2.50594 9.375 3.28125C9.375 4.05656 10.0059 4.6875 10.7812 4.6875C11.5566 4.6875 12.1875 4.05656 12.1875 3.28125C12.1875 2.50594 11.5566 1.875 10.7812 1.875Z" fill="#4F5B5E"/>
<path d="M24.8438 29.0625C24.585 29.0625 24.375 28.8525 24.375 28.5938V22.9688C24.375 22.71 24.585 22.5 24.8438 22.5C25.1025 22.5 25.3125 22.71 25.3125 22.9688C25.3125 23.2266 25.5225 23.4375 25.7812 23.4375C26.04 23.4375 26.25 23.2266 26.25 22.9688V16.4062C26.25 15.3516 25.3847 14.0625 24.375 14.0625H21.0938C20.835 14.0625 20.625 13.8525 20.625 13.5938C20.625 13.335 20.835 13.125 21.0938 13.125H24.375C25.9584 13.125 27.1875 14.8894 27.1875 16.4062V22.9688C27.1875 23.7441 26.5566 24.375 25.7812 24.375C25.6172 24.375 25.4587 24.3469 25.3125 24.2944V28.5938C25.3125 28.8525 25.1025 29.0625 24.8438 29.0625Z" fill="#4F5B5E"/>
<path d="M19.2188 9.375C19.2188 7.82437 20.4806 6.5625 22.0312 6.5625C23.5819 6.5625 24.8438 7.82437 24.8438 9.375C24.8438 10.9256 23.5819 12.1875 22.0312 12.1875C20.4806 12.1875 19.2188 10.9256 19.2188 9.375ZM20.1562 9.375C20.1562 10.41 20.9963 11.25 22.0312 11.25C23.0663 11.25 23.9062 10.41 23.9062 9.375C23.9062 8.34094 23.0663 7.5 22.0312 7.5C20.9963 7.5 20.1562 8.34094 20.1562 9.375Z" fill="#4F5B5E"/>
<path d="M24.8438 23.4375C25.1025 23.4375 25.3125 23.2275 25.3125 22.9688V17.3438C25.3125 17.085 25.1025 16.875 24.8438 16.875C24.585 16.875 24.375 17.085 24.375 17.3438V22.9688C24.375 23.2275 24.585 23.4375 24.8438 23.4375Z" fill="#4F5B5E"/>
<path d="M22.0312 29.0625C22.29 29.0625 22.5 28.8525 22.5 28.5938V24.8438C22.5 24.585 22.29 24.375 22.0312 24.375C21.7725 24.375 21.5625 24.585 21.5625 24.8438V28.5938C21.5625 28.8525 21.7725 29.0625 22.0312 29.0625Z" fill="#4F5B5E"/>
<path d="M4.21875 29.0625C3.96 29.0625 3.75 28.8525 3.75 28.5938V24.2944C3.60375 24.3469 3.44531 24.375 3.28125 24.375C2.50594 24.375 1.875 23.7441 1.875 22.9688V16.4062C1.875 14.8894 3.10406 13.125 4.6875 13.125H7.96875C8.2275 13.125 8.4375 13.335 8.4375 13.5938C8.4375 13.8525 8.2275 14.0625 7.96875 14.0625H4.6875C3.67781 14.0625 2.8125 15.3516 2.8125 16.4062V22.9688C2.8125 23.2266 3.0225 23.4375 3.28125 23.4375C3.54 23.4375 3.75 23.2266 3.75 22.9688C3.75 22.71 3.96 22.5 4.21875 22.5C4.4775 22.5 4.6875 22.71 4.6875 22.9688V28.5938C4.6875 28.8525 4.4775 29.0625 4.21875 29.0625Z" fill="#4F5B5E"/>
<path d="M7.03125 12.1875C5.48062 12.1875 4.21875 10.9256 4.21875 9.375C4.21875 7.82437 5.48062 6.5625 7.03125 6.5625C8.58187 6.5625 9.84375 7.82437 9.84375 9.375C9.84375 10.9256 8.58187 12.1875 7.03125 12.1875ZM7.03125 7.5C5.99625 7.5 5.15625 8.34094 5.15625 9.375C5.15625 10.41 5.99625 11.25 7.03125 11.25C8.06625 11.25 8.90625 10.41 8.90625 9.375C8.90625 8.34094 8.06625 7.5 7.03125 7.5Z" fill="#4F5B5E"/>
<path d="M4.21875 23.4375C3.96 23.4375 3.75 23.2275 3.75 22.9688V17.3438C3.75 17.085 3.96 16.875 4.21875 16.875C4.4775 16.875 4.6875 17.085 4.6875 17.3438V22.9688C4.6875 23.2275 4.4775 23.4375 4.21875 23.4375Z" fill="#4F5B5E"/>
<path d="M7.03125 29.0625C6.7725 29.0625 6.5625 28.8525 6.5625 28.5938V24.8438C6.5625 24.585 6.7725 24.375 7.03125 24.375C7.29 24.375 7.5 24.585 7.5 24.8438V28.5938C7.5 28.8525 7.29 29.0625 7.03125 29.0625Z" fill="#4F5B5E"/>
<path d="M17.3438 29.0625C17.085 29.0625 16.875 28.8525 16.875 28.5938V18.2812C16.875 18.0225 17.085 17.8125 17.3438 17.8125C17.8434 17.8125 18.3094 17.5434 18.5606 17.1103C18.6844 16.8975 18.75 16.6547 18.75 16.4062V15.4688C18.75 14.1759 17.6981 13.125 16.4062 13.125H12.1875C11.1534 13.125 10.3125 13.9659 10.3125 15V16.4062C10.3125 17.1816 10.9434 17.8125 11.7188 17.8125C11.9775 17.8125 12.1875 18.0225 12.1875 18.2812V28.5938C12.1875 28.8525 11.9775 29.0625 11.7188 29.0625C11.46 29.0625 11.25 28.8525 11.25 28.5938V18.7031C10.1813 18.4856 9.375 17.5378 9.375 16.4062V15C9.375 13.4494 10.6369 12.1875 12.1875 12.1875H16.4062C18.2156 12.1875 19.6875 13.6594 19.6875 15.4688V16.4062C19.6875 16.8187 19.5787 17.2256 19.3716 17.5809C19.0331 18.1641 18.4603 18.5691 17.8125 18.7022V28.5938C17.8125 28.8525 17.6025 29.0625 17.3438 29.0625Z" fill="#FF725E"/>
<path d="M14.5312 11.25C12.9806 11.25 11.7188 9.98812 11.7188 8.4375C11.7188 6.88687 12.9806 5.625 14.5312 5.625C16.0819 5.625 17.3438 6.88687 17.3438 8.4375C17.3438 9.98812 16.0819 11.25 14.5312 11.25ZM14.5312 6.5625C13.4963 6.5625 12.6562 7.40344 12.6562 8.4375C12.6562 9.4725 13.4963 10.3125 14.5312 10.3125C15.5663 10.3125 16.4062 9.4725 16.4062 8.4375C16.4062 7.40344 15.5663 6.5625 14.5312 6.5625Z" fill="#FF725E"/>
<path d="M17.3438 17.3438C17.085 17.3438 16.875 17.1338 16.875 16.875V16.5759C16.875 16.4363 16.8159 16.3088 16.7091 16.2178C16.6022 16.1269 16.4663 16.0913 16.3303 16.1138L12.8878 16.6866C12.4772 16.7522 12.0638 16.6397 11.7478 16.3725C11.4309 16.1053 11.25 15.7134 11.25 15.2991C11.25 15.0403 11.46 14.8303 11.7188 14.8303C11.9775 14.8303 12.1875 15.0403 12.1875 15.2991C12.1875 15.4388 12.2466 15.5663 12.3534 15.6572C12.4603 15.7472 12.5972 15.7866 12.7341 15.7613L16.1756 15.1884C16.5834 15.1209 16.9987 15.2334 17.3147 15.5016C17.6306 15.7688 17.8125 16.1606 17.8125 16.5759V16.875C17.8125 17.1338 17.6025 17.3438 17.3438 17.3438Z" fill="#FF725E"/>
<path d="M14.5312 29.0625C14.2725 29.0625 14.0625 28.8525 14.0625 28.5938V22.5C14.0625 22.2413 14.2725 22.0312 14.5312 22.0312C14.79 22.0312 15 22.2413 15 22.5V28.5938C15 28.8525 14.79 29.0625 14.5312 29.0625Z" fill="#FF725E"/>
<path d="M17.3438 18.75H13.5938C13.335 18.75 13.125 18.54 13.125 18.2812C13.125 18.0225 13.335 17.8125 13.5938 17.8125H17.3438C17.6025 17.8125 17.8125 18.0225 17.8125 18.2812C17.8125 18.54 17.6025 18.75 17.3438 18.75Z" fill="#FF725E"/>
</svg>
