<svg width="30" height="30" viewBox="0 0 30 30" fill="none" xmlns="http://www.w3.org/2000/svg">
<g clip-path="url(#clip0_1716_20704)">
<path d="M0.260109 21.8274L3.33511 20.2899L5.29214 15.1993C5.31518 15.1391 5.35038 15.0843 5.39554 15.0383C5.44071 14.9923 5.49487 14.9562 5.55464 14.9321L17.6976 10.0782C17.7825 10.0444 17.8754 10.0361 17.965 10.0544C18.0545 10.0728 18.1367 10.1169 18.2015 10.1813L19.821 11.8008C19.8846 11.8657 19.928 11.9476 19.9459 12.0366C19.9638 12.1257 19.9554 12.218 19.9218 12.3024L15.0679 24.4454C15.0438 24.5051 15.0077 24.5593 14.9617 24.6044C14.9157 24.6496 14.8609 24.6848 14.8007 24.7079L9.71011 26.6649L8.17261 29.7399C8.14023 29.8077 8.09204 29.8667 8.03208 29.912C7.97212 29.9573 7.90215 29.9875 7.82808 30C7.80313 30.0024 7.77802 30.0024 7.75308 30C7.62896 29.9995 7.51011 29.9498 7.42261 29.8618L0.138233 22.5774C0.0846195 22.5257 0.0441113 22.4619 0.0200634 22.3914C-0.00398445 22.3209 -0.0108795 22.2456 -4.76837e-05 22.1719C0.0125294 22.0978 0.0427303 22.0279 0.0880051 21.9679C0.133282 21.908 0.192307 21.8598 0.260109 21.8274ZM18.9398 12.2414L18.6796 11.9836L12.6351 18.0282C13.0335 18.5926 13.2055 19.286 13.1172 19.9713C13.0289 20.6565 12.6868 21.2836 12.1583 21.7287C11.6299 22.1737 10.9537 22.4043 10.2635 22.3748C9.57321 22.3453 8.91915 22.0579 8.43063 21.5694C7.9421 21.0808 7.65467 20.4268 7.62517 19.7365C7.59567 19.0463 7.82625 18.3701 8.27131 17.8417C8.71638 17.3132 9.34352 16.9711 10.0287 16.8828C10.714 16.7945 11.4074 16.9665 11.9718 17.3649L18.0164 11.3204L17.7585 11.0602L6.0937 15.7266L4.25386 20.5125L9.48745 25.7461L14.2734 23.9063L18.9398 12.2414ZM10.3828 17.7961C9.96148 17.7968 9.55344 17.9434 9.22817 18.2112C8.90289 18.4789 8.6805 18.8511 8.59888 19.2644C8.51726 19.6777 8.58147 20.1065 8.78055 20.4778C8.97963 20.8491 9.30129 21.1399 9.69071 21.3006C10.0801 21.4613 10.5132 21.482 10.9162 21.3593C11.3192 21.2365 11.6672 20.9778 11.9008 20.6272C12.1345 20.2767 12.2394 19.8559 12.1976 19.4367C12.1558 19.0175 11.97 18.6257 11.6718 18.3282C11.3296 17.987 10.866 17.7957 10.3828 17.7961ZM7.62417 28.7391L8.79605 26.3954L3.60933 21.2086L1.26558 22.3805L7.62417 28.7391Z" fill="#FF725E"/>
<path d="M21.0351 25.0781C21.1247 24.9934 21.2434 24.9461 21.3667 24.9461C21.49 24.9461 21.6087 24.9934 21.6983 25.0781L22.2937 25.6734C23.8823 23.5173 24.7587 20.9192 24.8007 18.2413C24.8427 15.5635 24.0482 12.9392 22.528 10.7343C22.0726 10.9849 21.5482 11.0812 21.0334 11.0087C20.5186 10.9362 20.0412 10.6988 19.6727 10.3322C19.3041 9.96549 19.0644 9.48927 18.9893 8.97486C18.9142 8.46046 19.0078 7.93557 19.2562 7.47886C17.0512 5.95863 14.427 5.16416 11.7491 5.20618C9.07127 5.24819 6.47322 6.12459 4.31709 7.71323L4.92178 8.30151C5.00895 8.3894 5.05781 8.5082 5.05771 8.63198C5.05807 8.69367 5.04625 8.75482 5.02292 8.81194C4.99959 8.86905 4.96522 8.92099 4.92178 8.96479L2.85459 11.0156C2.76676 11.1029 2.64796 11.1519 2.52412 11.1519C2.40028 11.1519 2.28148 11.1029 2.19365 11.0156L0.138182 8.9601C0.0945988 8.91657 0.0600262 8.86487 0.0364361 8.80797C0.0128479 8.75106 0.000701904 8.69006 0.000701904 8.62846C0.000701904 8.56686 0.0128479 8.50587 0.0364361 8.44896C0.0600262 8.39206 0.0945988 8.34036 0.138182 8.29682L2.19365 6.24135C2.28148 6.15405 2.40028 6.10505 2.52412 6.10505C2.64796 6.10505 2.76676 6.15405 2.85459 6.24135L3.64912 7.0312C5.60731 5.55767 7.92241 4.63189 10.3567 4.34892C12.791 4.06596 15.2567 4.43599 17.5007 5.42104L14.7983 2.72573C14.4919 2.87214 14.1436 2.90528 13.815 2.81927C13.4865 2.73327 13.1991 2.53367 13.0037 2.2559C12.8084 1.97813 12.7177 1.64014 12.7479 1.30189C12.778 0.963638 12.927 0.646998 13.1684 0.408141C13.4098 0.169284 13.728 0.0236523 14.0665 -0.00291786C14.4051 -0.029488 14.7421 0.064721 15.0178 0.262996C15.2935 0.461271 15.49 0.750793 15.5726 1.0802C15.6551 1.40961 15.6183 1.7576 15.4687 2.06245L20.0296 6.63042C20.4927 6.31978 21.0493 6.17956 21.6042 6.23372C22.1592 6.28787 22.6782 6.53304 23.0725 6.92734C23.4668 7.32164 23.712 7.84061 23.7661 8.39561C23.8203 8.9506 23.6801 9.50717 23.3694 9.97026L27.9374 14.5312C28.2434 14.3821 28.5924 14.3463 28.9224 14.4302C29.2523 14.5141 29.5418 14.7122 29.7395 14.9894C29.9371 15.2666 30.0301 15.6049 30.0019 15.9441C29.9737 16.2834 29.8261 16.6017 29.5853 16.8424C29.3446 17.0831 29.0263 17.2307 28.6871 17.259C28.3478 17.2872 28.0095 17.1942 27.7323 16.9966C27.4551 16.7989 27.257 16.5094 27.1731 16.1795C27.0892 15.8495 27.125 15.5005 27.2741 15.1945L24.5718 12.4992C25.5578 14.7425 25.929 17.2079 25.6473 19.6422C25.3656 22.0765 24.441 24.3919 22.9687 26.3507L23.7608 27.1453C23.8481 27.2331 23.8971 27.3519 23.8971 27.4757C23.8971 27.5996 23.8481 27.7184 23.7608 27.8062L21.7054 29.8617C21.6179 29.9497 21.499 29.9994 21.3749 29.9999C21.313 30 21.2518 29.9878 21.1947 29.9641C21.1376 29.9403 21.0857 29.9055 21.0421 29.8617L18.9843 27.8062C18.897 27.7184 18.848 27.5996 18.848 27.4757C18.848 27.3519 18.897 27.2331 18.9843 27.1453L21.0351 25.0781ZM2.51943 7.23042L1.12724 8.62261L2.51943 10.0148L3.91162 8.62261L2.51943 7.23042ZM14.5312 1.08511C14.4615 1.01488 14.3726 0.966933 14.2756 0.947341C14.1787 0.927749 14.0781 0.937398 13.9866 0.975063C13.8952 1.01273 13.8169 1.07671 13.7619 1.1589C13.7069 1.24108 13.6775 1.33776 13.6775 1.43667C13.6775 1.53558 13.7069 1.63226 13.7619 1.71444C13.8169 1.79662 13.8952 1.86061 13.9866 1.89827C14.0781 1.93594 14.1787 1.94559 14.2756 1.92599C14.3726 1.9064 14.4615 1.85845 14.5312 1.78823C14.5774 1.74208 14.614 1.68728 14.639 1.62696C14.664 1.56663 14.6769 1.50197 14.6769 1.43667C14.6769 1.37137 14.664 1.3067 14.639 1.24638C14.614 1.18606 14.5774 1.13125 14.5312 1.08511ZM22.4062 7.5937C22.27 7.45693 22.1082 7.3484 21.9301 7.27435C21.7519 7.20029 21.5608 7.16217 21.3679 7.16217C21.1749 7.16217 20.9839 7.20029 20.8057 7.27435C20.6275 7.3484 20.4657 7.45693 20.3296 7.5937C20.1238 7.79912 19.9836 8.06096 19.9267 8.34609C19.8699 8.63121 19.8988 8.92681 20.01 9.19547C20.1211 9.46413 20.3095 9.69378 20.5512 9.85535C20.7929 10.0169 21.0771 10.1032 21.3679 10.1032C21.6586 10.1032 21.9428 10.0169 22.1845 9.85535C22.4263 9.69378 22.6146 9.46413 22.7258 9.19547C22.8369 8.92681 22.8659 8.63121 22.809 8.34609C22.7521 8.06096 22.6119 7.79912 22.4062 7.5937ZM28.2093 16.1718C28.305 16.2516 28.4271 16.2928 28.5515 16.2871C28.676 16.2815 28.7939 16.2295 28.882 16.1414C28.9701 16.0533 29.0221 15.9354 29.0277 15.811C29.0333 15.6865 28.9922 15.5644 28.9124 15.4687C28.8186 15.3765 28.6924 15.3249 28.5608 15.3249C28.4293 15.3249 28.3031 15.3765 28.2093 15.4687C28.1631 15.5148 28.1264 15.5696 28.1014 15.63C28.0764 15.6903 28.0635 15.755 28.0635 15.8203C28.0635 15.8856 28.0764 15.9502 28.1014 16.0105C28.1264 16.0709 28.1631 16.1257 28.2093 16.1718ZM21.3679 28.8585L22.7601 27.4664L21.3679 26.0742L19.9757 27.4664L21.3679 28.8585Z" fill="#4F5B5E"/>
</g>
<defs>
<clipPath id="clip0_1716_20704">
<rect width="30" height="30" fill="white" transform="matrix(-1 0 0 1 30 0)"/>
</clipPath>
</defs>
</svg>
