<svg width="194" height="320" viewBox="0 0 194 320" fill="none" xmlns="http://www.w3.org/2000/svg">
<g clip-path="url(#clip0_1716_19015)">
<path d="M98.1772 67.6601C100.563 65.1207 104.224 62.936 107.836 63.7409C108.325 63.8559 108.775 64.0188 109.197 64.22C112.215 65.3124 114.103 68.8483 113.998 72.0296C113.93 73.9843 113.317 76.1979 111.956 77.6639C110.672 79.0534 108.823 79.0438 107.185 79.5804C107.577 81.8993 107.587 84.2757 107.74 86.6234C107.836 88.0799 107.788 89.3543 106.581 90.3509C104.444 92.1236 99.8637 92.9764 98.0622 90.3413C97.0656 88.8848 97.3723 87.8595 97.2764 85.5406C97.2094 83.8733 98.1293 80.9123 95.1013 78.6222C94.3634 78.0568 93.8652 77.0794 93.9897 76.2649C94.5455 72.3841 95.705 70.2856 98.1772 67.6601Z" fill="#E2B28F"/>
<path d="M94.6509 69.0975C94.7179 68.6951 95.1108 68.5418 95.4366 68.3597C96.6919 67.6698 98.0334 66.7882 99.4037 66.357C99.6336 66.2133 99.9978 66.4528 99.8157 66.7307C99.0204 67.9285 98.34 69.1167 97.2572 70.4295C96.7877 70.9948 96.1649 71.6368 95.5612 70.9278C95.3024 70.6594 94.5742 69.5287 94.6509 69.0975Z" fill="#E5361D"/>
<path d="M106.456 64.5747C105.134 63.8369 106.102 62.1025 107.415 62.3037C111.784 62.9649 116.642 64.9676 117.524 69.5383C117.572 69.7875 117.821 69.9312 118.061 69.8737C119.048 69.6437 120.504 70.2187 121.021 70.8799C121.874 71.9818 121.999 74.0133 121.069 75.211C120.178 76.3705 118.482 76.3609 117.419 75.4602C117.332 75.3835 117.246 75.2973 117.16 75.211C116.978 75.0098 116.662 75.029 116.527 75.2685C116.067 76.083 115.473 76.8209 114.764 77.4533C113.959 78.172 113.049 78.7277 112.062 79.1494C111.065 79.571 109.139 79.5614 108.459 80.3759C108.354 80.5005 108.229 80.5867 108.095 80.6442C108.066 80.6921 108.028 80.7304 107.999 80.7784C107.453 81.497 106.102 81.3437 106.169 80.2801C106.332 77.3862 109.58 75.7093 109.81 74.3678C110.069 72.8155 108.373 72.4226 107.74 71.2632C106.552 69.0976 108.967 65.9833 106.456 64.5747Z" fill="#052F33"/>
<path d="M106.408 75.3836C106.964 74.7416 107.558 74.0804 108.219 73.5342C108.708 72.8826 109.331 72.2215 110.069 72.4515C110.845 72.691 111.477 73.5055 111.401 74.32C111.19 76.5622 107.932 76.8018 106.456 75.8052C106.312 75.6998 106.293 75.5178 106.408 75.3836Z" fill="#E5361D"/>
<path d="M73.5604 68.8677C73.637 68.7911 73.7424 68.8677 73.7329 68.9635C73.637 69.5864 73.4837 70.1805 73.3304 70.7842C73.3687 70.8033 73.3975 70.8321 73.4071 70.88C73.4358 71.1291 73.4646 71.3783 73.4837 71.6274C73.5316 71.5412 73.57 71.4549 73.6179 71.3783C73.6466 71.3304 73.685 71.3016 73.7233 71.292C73.752 71.225 73.7999 71.177 73.8862 71.1579C75.4289 70.7746 77.4699 70.6788 78.9456 71.4645C79.0031 71.3783 79.1468 71.3495 79.2043 71.4645C79.2331 71.5316 79.2714 71.5987 79.3002 71.6657C79.3193 71.6753 79.3385 71.6849 79.3577 71.7041C79.4056 71.7328 79.4056 71.7999 79.3768 71.8478C79.4343 71.9628 79.4822 72.0682 79.5397 72.1832C79.6547 72.0107 79.7409 71.8095 79.8272 71.5795C79.8463 71.5412 79.8751 71.5124 79.9038 71.4933C79.9518 71.177 80.0092 70.88 80.1721 70.6021C80.2009 70.5063 80.2296 70.42 80.268 70.3242C80.3063 70.2188 80.4692 70.1805 80.5267 70.2859C80.5459 70.238 80.5554 70.1901 80.5746 70.1422C80.6129 70.0463 80.7662 70.0272 80.795 70.1422C81.1591 71.4741 81.0345 72.921 81.3029 74.2913C81.4849 75.2112 81.782 76.0736 82.0982 76.936C82.0982 76.9456 82.1078 76.9552 82.1173 76.9743C84.4938 80.8647 87.3876 84.3718 91.0001 87.3232C91.5751 87.7927 91.9488 88.406 92.6962 88.5018C93.1753 88.5593 95.3505 88.3197 95.3984 88.3197C96.3087 88.2335 96.4045 87.1603 96.462 86.2979C96.5003 85.7038 97.3436 85.6463 97.3244 86.2404C97.2861 87.5148 98.503 88.0706 98.9821 89.048C99.0492 89.1821 99.1163 89.3642 99.1738 89.575C99.3175 90.0541 99.9979 90.0924 100.161 89.6229C100.161 89.6133 100.161 89.6133 100.17 89.6038C100.237 89.4121 100.4 89.2684 100.611 89.2684C103.4 89.2684 105.891 88.0802 107.664 85.9242C107.922 85.6079 108.402 85.9529 108.315 86.3074C108.037 87.4477 109.159 88.2239 110.184 88.3964C111.746 88.703 113.681 89.2492 116.259 90.217C116.345 90.2458 116.412 90.2937 116.479 90.3416C120.964 91.616 122.162 97.8158 122.842 101.792C123.34 104.715 122.957 107.293 122.267 110.139C121.692 112.515 121.587 114.776 121.74 117.086C121.74 117.105 121.74 117.114 121.75 117.134C122.075 118.169 122.459 119.203 123.235 119.989C124.26 121.014 125.42 121.072 126.416 120.526C126.474 120.459 126.55 120.42 126.617 120.411C127.087 120.104 127.518 119.663 127.863 119.127C128.103 118.753 128.773 118.983 128.611 119.443C128.036 121.062 127.269 122.375 125.065 122.979C124.624 123.103 122.555 123.362 120.619 120.928C119.162 119.098 118.262 116.884 117.16 114.824C116.297 113.205 115.444 111.518 114.716 109.803C114.496 109.286 113.739 109.382 113.653 109.937C112.934 114.853 112.349 118.868 111.918 120.2C111.909 120.229 111.909 120.257 111.918 120.286C112.282 121.839 110.73 124.723 109.551 123.276C108.517 122.011 105.009 122.873 103.543 123.027C101.359 123.247 99.1738 123.611 97.0369 124.081C92.8782 124.991 90.0036 125.997 86.1802 127.895C85.2124 128.374 84.58 127.597 83.8901 126.582C82.4623 124.474 83.9284 116.99 85.1933 107.436C85.452 105.472 85.2699 103.45 84.7429 101.562C83.1714 95.9376 78.6198 91.7693 76.0326 86.7195C75.5247 85.7229 73.6083 82.6087 72.7938 79.5232C72.4584 78.2488 72.123 76.7635 72.1039 75.3166C72.1039 75.307 72.1039 75.307 72.1039 75.2974C71.7397 72.9402 72.0655 70.3434 73.5604 68.8677Z" fill="#FF725E"/>
<path d="M11.0522 226.721C10.8326 223.961 11.3416 221.483 11.9206 218.803C12.4396 216.426 12.8489 214.633 14.1266 212.739C16.7419 208.881 21.663 206.725 25.8754 205.526C27.6322 205.023 29.4888 204.579 31.066 203.592C32.9226 202.434 34.2702 200.651 35.2883 198.706C36.4263 196.541 37.2747 194.234 38.5924 192.159C39.6904 190.416 41.2775 188.925 43.1042 187.686C43.773 187.233 44.2422 186.699 44.5416 186.125C47.6759 184.976 50.8302 183.878 54.0145 182.861C60.7922 180.695 101.758 175.93 103.834 176.001C113.357 176.333 122.8 178.036 131.824 181.189C140.448 184.201 148.823 187.958 156.839 192.421C161.38 194.949 165.812 197.709 170.095 200.691C170.274 201.033 170.504 201.336 170.813 201.577C177.242 206.775 181.714 213.736 184.059 221.543C186.156 228.534 186.635 235.979 185.098 242.808C183.471 250.051 179.647 256.891 174.467 262.371C155.761 282.156 126.154 287.726 86.9051 287.998C64.4057 288.149 45.3402 278.65 37.145 275.185C17.8099 267.015 11.5513 232.946 11.0522 226.721Z" fill="#F8523B"/>
<path d="M45.4555 119.156C48.8956 119.501 53.3992 120.516 53.2555 120.497C60.1835 136.662 66.8911 152.933 73.4549 169.252C80.0858 185.733 86.5443 202.272 92.8494 218.878C96.3949 228.221 124.097 303.221 127.556 312.593C127.624 312.785 127.451 312.928 127.288 312.947C123.589 313.331 119.737 313.561 116.106 312.574C112.484 311.596 103.927 293.15 102.441 289.71C100.477 285.149 82.8168 231.134 81.1207 226.477C79.3576 221.638 77.6136 216.799 75.8888 211.95C68.9225 192.412 62.2245 172.778 55.7852 153.058C52.1535 141.913 48.6081 130.75 45.1393 119.558C45.0818 119.376 45.2447 119.127 45.4555 119.156Z" fill="#842518"/>
<path d="M112.685 287.746C114.18 287.89 115.665 288.043 117.16 288.187C117.351 288.206 117.553 288.34 117.533 288.561C117.514 288.944 117.485 289.164 117.428 289.538C117.418 289.596 117.399 289.643 117.371 289.682C117.591 292.566 117.294 295.575 117.236 298.459C117.227 298.785 116.728 298.977 116.575 298.641C115.042 295.22 113.633 291.742 112.33 288.225C112.244 288.005 112.455 287.717 112.685 287.746Z" fill="#E5361D"/>
<path d="M102.911 261.079C104.406 261.222 105.891 261.376 107.386 261.519C107.577 261.539 107.779 261.673 107.759 261.893C107.74 262.276 107.712 262.497 107.654 262.87C107.644 262.928 107.625 262.976 107.597 263.014C107.817 265.898 107.52 268.907 107.462 271.792C107.453 272.117 106.955 272.309 106.801 271.974C105.268 268.553 103.859 265.074 102.556 261.558C102.47 261.337 102.681 261.059 102.911 261.079Z" fill="#E5361D"/>
<path d="M92.7729 233.721C94.2677 233.865 95.753 234.018 97.2478 234.162C97.4395 234.181 97.6407 234.315 97.6215 234.536C97.6024 234.919 97.5736 235.139 97.5161 235.513C97.5065 235.571 97.4874 235.618 97.4586 235.657C97.679 238.541 97.382 241.55 97.3245 244.434C97.3149 244.76 96.8166 244.952 96.6633 244.616C95.1301 241.195 93.7215 237.717 92.4184 234.2C92.3321 233.98 92.5429 233.702 92.7729 233.721Z" fill="#E5361D"/>
<path d="M82.6827 208.558C83.2289 207.897 84.1488 206.508 85.1454 206.603C86.1611 206.69 86.4869 207.887 87.0714 208.549C87.1576 208.414 87.4068 208.434 87.3972 208.625C87.2151 210.944 86.439 213.292 85.8449 215.534C85.7682 215.812 85.3658 215.879 85.222 215.62C84.3979 214.106 83.5739 212.592 82.769 211.069C82.2707 210.13 81.9449 209.44 82.6827 208.558Z" fill="#E5361D"/>
<path d="M92.3032 228.547C95.1108 228.499 97.928 228.279 100.716 228.049C100.745 228.049 100.764 228.049 100.793 228.049C100.841 227.819 100.908 227.579 100.975 227.359C101.167 226.774 102.029 226.736 102.202 227.359C102.834 229.591 102.25 232.102 102.384 234.392C102.413 234.929 101.924 235.293 101.445 235.331C99.9882 235.456 98.5317 235.36 97.0752 235.369C96.1361 235.379 95.1683 235.408 94.2963 235.015C92.3032 234.114 92.6194 232.121 91.4408 230.626C90.818 229.821 91.1725 228.566 92.3032 228.547Z" fill="#D10B35"/>
<path d="M89.5436 226.496C90.6935 226.055 91.8434 225.634 92.8495 224.896C94.5647 223.622 94.7851 221.954 94.6414 219.942C94.4497 217.192 93.9515 214.394 94.1335 211.644C94.1719 210.983 95.1588 210.781 95.3409 211.481C95.4271 211.807 95.4942 212.132 95.5517 212.458C97.7652 211.864 100.362 211.519 102.633 211.625C102.882 211.117 103.754 211.27 103.745 211.893C103.649 217.153 102.508 222.52 101.828 227.732C101.78 228.096 101.617 228.355 101.263 228.48C97.8419 229.649 93.9611 229.524 90.4252 229.074C90.0611 229.026 89.8119 228.825 89.6682 228.556C88.7291 228.47 88.4704 226.908 89.5436 226.496Z" fill="#E2B28F"/>
<path d="M81.5232 202.215C84.3212 202.282 86.6305 201.716 89.1028 200.471C88.8728 200.145 89.2082 199.618 89.6585 199.714C92.3511 200.289 92.5715 205.463 92.8494 207.609C92.8782 207.849 92.6865 208.156 92.4757 208.261C90.2239 209.363 87.0042 210.12 84.5128 209.459C81.8394 208.75 81.7723 205.741 80.6608 203.719C80.2966 203.067 80.7374 202.195 81.5232 202.215Z" fill="#D10B35"/>
<path d="M77.5848 187.649C77.2878 186.797 78.1885 186.059 78.9839 186.25C81.274 186.806 83.2959 186.739 85.5765 186.203C86.1226 186.078 86.5538 186.298 86.803 186.653C87.0521 186.643 87.3109 186.768 87.4354 187.075C88.8536 190.745 87.675 196.858 90.6646 199.714C91.0575 200.087 91 200.873 90.4826 201.113C87.7229 202.425 84.7141 203.144 81.7244 203.69C81.2261 203.786 80.6799 203.556 80.5458 203.019C79.9708 200.777 78.0927 199.081 78.7347 196.619C79.2138 194.769 79.9708 194.05 79.3671 192.029C78.9072 190.543 78.0927 189.135 77.5848 187.649Z" fill="#E2B28F"/>
<path d="M67.5523 152.109C70.1299 147.701 75.1702 145.334 79.5685 142.776C80.9196 142.134 82.2898 141.511 83.6697 140.907C85.7778 139.987 88.6237 139.125 90.0706 137.218C90.1665 137.093 89.9652 136.95 89.8598 137.055C88.4321 138.435 86.3048 139.067 84.3021 139.719C84.2159 136.068 83.8901 126.735 83.8805 126.582C83.8613 125.921 89.3807 122.251 97.5352 120.852C102.058 120.075 107.347 119.481 111.889 120.238C112.436 120.325 117.131 132.839 116.93 138.205C116.729 143.485 114.419 148.477 110.596 152.109C108.746 153.862 106.658 155.271 104.425 156.421C105.335 175.911 106.389 211.337 106.389 211.337C106.389 211.337 103.562 212.468 99.8062 212.793C96.4716 213.081 92.5812 213.359 92.5812 213.359C92.5812 213.359 92.2362 209.028 91.69 206.172C90.4827 199.771 89.6299 193.428 88.7962 187.017C89.4957 185.522 88.4704 181.354 88.3267 180.712C87.6559 177.761 87.196 174.742 86.5923 171.762C85.8736 168.236 85.8353 164.7 85.3178 161.155C85.2699 160.8 84.695 160.896 84.7046 161.241C84.7908 167.105 86.1515 172.653 87.1576 178.383C87.4068 179.792 89.3616 185.973 87.8859 186.998C85.4424 187.142 76.8088 187.142 74.6815 186.72C74.4995 186.682 73.2154 186.327 73.0238 185.724C70.7815 178.805 68.7692 171.82 67.0349 164.757C66.067 160.79 64.6776 155.405 67.5523 152.109Z" fill="#E5361D"/>
<path d="M121.817 112.045C122.928 107.063 124.845 101.994 123.599 96.8766C123.57 96.7616 123.245 96.1675 122.804 95.3051C122.583 92.9191 122.603 90.6385 122.727 88.2046C122.756 88.1567 122.785 88.1184 122.823 88.0801C123.273 87.5722 124.145 87.5051 124.778 87.4764C125.774 87.4285 127.058 87.5722 128.036 88.0801C128.074 87.8788 128.112 87.6776 128.16 87.486C128.218 87.0548 128.266 86.6236 128.294 86.1828C128.323 85.7228 128.333 85.2629 128.342 84.7934C128.314 84.2663 128.256 83.7297 128.16 83.2123C128.084 82.7715 127.806 82.0432 128.266 81.6983C128.544 81.4875 128.821 81.6025 128.994 81.8324C129.157 82.0528 129.253 82.302 129.291 82.599C129.358 83.0973 130.086 87.0643 129.502 90.7823C129.435 91.2135 129.233 94.5194 129.004 95.6597C128.984 95.7459 128.975 95.8417 128.984 95.928C129.214 100.096 129.895 104.197 130.249 108.356C130.546 111.95 130.661 116.252 128.793 119.5C127.576 121.618 124.711 123.19 122.449 121.57C121.299 120.746 121.031 119.29 121.031 117.958C121.021 115.964 121.386 113.971 121.817 112.045Z" fill="#E5BA9C"/>
<path d="M120.197 83.8352C121.731 81.9379 125.257 81.4205 127.01 83.3369C127.087 83.4136 127.087 83.519 127.049 83.6052C127.595 84.1035 128.036 84.7168 128.285 85.4067C129.042 87.4669 128.074 89.9391 126.205 91.0411C124.27 92.1814 121.606 91.6256 120.178 89.9295C118.722 88.2143 118.808 85.5504 120.197 83.8352Z" fill="#FF725E"/>
<path d="M125.516 81.6982C126.014 81.3916 126.522 81.6119 126.924 81.9952C127.03 82.1006 127.116 82.2635 126.953 82.3689C126.349 82.7427 125.918 83.308 125.755 84.0075C125.678 84.3429 125.803 84.8987 125.535 85.1766C124.912 85.8377 124.615 84.592 124.596 84.2087C124.567 83.3655 124.72 82.1869 125.516 81.6982Z" fill="#E5BA9C"/>
<path d="M125.516 85.2247C125.391 84.0173 125.717 82.5895 126.503 82.2541C127.576 81.7846 128.361 83.2795 128.409 84.1994C128.438 84.4964 128.524 85.263 128.342 85.5984C128.294 85.6846 128.208 85.0809 127.47 84.3048C127.317 84.1419 127.173 84.046 127.077 84.0748C126.924 84.1227 126.905 84.3335 126.886 84.506C126.876 84.6689 126.867 84.8222 126.847 84.9851C126.809 85.3013 126.752 85.6559 126.55 85.905C126.368 86.135 126.014 86.25 125.774 86.1158C125.516 85.9625 125.535 85.378 125.516 85.2247Z" fill="#CE9C7A"/>
<path d="M122.545 81.6981C123.12 80.4908 124.375 80.8837 124.787 81.8898C124.806 81.9377 124.854 82.1389 124.864 82.1581C124.902 82.2827 124.145 82.0527 123.982 82.1581C123.292 82.5797 123.685 83.5571 123.628 84.3524C123.599 84.7166 123.494 85.2819 122.957 85.2819C122.487 85.2819 122.382 84.3141 122.305 83.9117C122.162 83.1834 122.229 82.3881 122.545 81.6981Z" fill="#CE9C7A"/>
<path d="M120.475 85.3204C120.514 85.2821 121.031 84.8892 121.328 85.2821C121.663 85.7229 121.261 86.6907 121.261 87.1698C121.261 87.8885 121.424 88.5113 121.683 89.1246C121.788 89.3833 121.97 89.6037 122.2 89.7666C122.42 89.9199 122.65 90.0732 122.88 90.2266C123.819 90.8686 124.471 91.7406 124.576 92.9096C124.653 93.8199 124.347 95.0848 123.292 95.286C122.67 95.401 122.277 95.0464 121.961 94.6057C121.002 93.2833 120.284 91.6064 119.824 90.1116C119.335 88.5113 119.258 86.6045 120.475 85.3204Z" fill="#CE9C7A"/>
<path d="M95.3506 105.184C96.1842 100.959 97.267 96.5796 98.9918 92.6221C99.0589 92.4688 99.2985 92.5837 99.2506 92.7275C98.0911 96.8383 96.8262 100.844 96.0597 105.06C95.6572 107.273 95.3218 109.496 95.0823 111.739C94.8523 113.904 94.8523 116.099 94.5648 118.255C94.5169 118.58 94.0665 118.6 94.0378 118.255C93.7216 113.991 94.5361 109.353 95.3506 105.184Z" fill="white"/>
<path d="M7.67271 301.592C7.59605 301.104 7.33733 300.366 7.4619 299.858C7.75895 298.612 9.32086 298.871 10.3078 298.852C11.4098 298.833 14.2078 298.402 15.0894 299.293C15.5685 299.772 14.8019 302.148 15.0511 305.253C15.1373 306.278 15.1756 306.748 14.2941 307.256C13.5754 307.668 12.4638 308.099 11.3331 308.281C11.2277 308.338 11.1032 308.367 10.9498 308.329C9.53167 308.482 8.14224 308.195 7.54814 306.949C7.43315 306.709 7.49064 306.393 7.65354 306.192C7.68229 305.473 7.80686 302.388 7.67271 301.592Z" fill="#E2B28F"/>
<path d="M7.3277 304.735C8.6788 304.17 8.05595 306.709 12.0709 306.537C13.0291 306.498 14.409 304.218 15.4151 303.787C15.5397 303.729 15.6739 303.806 15.7314 303.93C17.0345 306.757 24.7674 308.012 26.6839 309.028C28.6291 310.053 30.1623 311.797 29.7885 313.608C29.7311 313.886 22.621 315.189 17.1016 315.084C10.0491 314.95 6.35031 313.81 6.31198 313.637C5.91911 311.903 6.18741 309.478 6.44613 307.696C6.58986 306.661 7.07856 304.841 7.3277 304.735Z" fill="#E5361D"/>
<path d="M6.6954 313.484C8.52562 314.413 10.6241 314.413 12.6364 314.548C14.5912 314.682 16.5364 314.787 18.4912 314.806C19.4207 314.816 20.3597 314.806 21.2892 314.778C21.5958 313.752 22.4008 311.711 23.0044 310.763C23.4069 310.121 24.6909 308.808 25.4575 308.712C25.8887 308.655 26.4157 308.856 26.8853 309.114C28.1597 309.699 29.2042 310.83 29.7216 312.114C29.9132 312.583 30.2678 313.484 30.0666 314.088C30.1145 314.241 30.0857 314.413 29.9228 314.5C28.2651 315.381 26.1666 315.525 24.3172 315.726C22.1804 315.956 20.0243 316.004 17.8683 315.966C15.7123 315.927 13.5467 315.793 11.4003 315.64C9.55092 315.506 7.7782 315.353 6.10131 314.509C5.42097 314.155 6.01506 313.139 6.6954 313.484Z" fill="#770730"/>
<path d="M6.13001 306.604C6.28333 305.971 6.65704 304.045 7.67276 304.314C8.07522 304.419 8.24769 304.898 8.4585 305.195C8.48725 305.243 8.52557 305.281 8.5639 305.329C9.17717 305.866 9.87667 306.259 10.672 306.517C10.902 306.594 10.9403 306.968 10.672 307.025C9.2155 307.342 7.759 307.313 6.31208 306.939C6.16834 306.891 6.09168 306.738 6.13001 306.604Z" fill="#770730"/>
<path d="M19.8805 305.779C19.8038 305.291 19.5451 304.553 19.6697 304.045C19.9667 302.799 21.5286 303.058 22.5156 303.039C23.6175 303.02 26.4156 302.589 27.2971 303.48C27.7763 303.959 27.0097 306.335 27.2588 309.44C27.3451 310.465 27.3834 310.935 26.5018 311.443C25.7831 311.855 24.6716 312.286 23.5409 312.468C23.4355 312.525 23.3109 312.554 23.1576 312.516C21.7394 312.669 20.35 312.382 19.7559 311.136C19.6409 310.896 19.6984 310.58 19.8613 310.379C19.8996 309.66 20.0146 306.575 19.8805 305.779Z" fill="#E2B28F"/>
<path d="M5.58377 182.447C5.88083 178.173 9.50294 173.19 14.6678 172.519C14.7349 172.51 14.7923 172.51 14.8498 172.51C15.1469 172.318 15.4727 172.155 15.8272 172.031C18.0407 171.216 19.5452 170.593 21.8832 170.009C24.3938 169.386 28.1213 169.022 30.6989 168.753C35.8542 168.236 39.6392 164.049 40.2429 163.397C40.837 162.755 42.236 160.513 45.5514 162.218C48.4836 163.732 47.4487 166.818 46.8355 168.092C45.7622 170.296 44.0949 172.538 41.661 174.742C40.0608 176.189 36.1704 178.47 34.6276 180.051C32.6345 182.092 31.4942 183.548 31.8584 186.557C32.0692 187.602 33.1232 190.256 33.8323 192.441C34.2635 192.259 34.7905 192.163 35.4996 191.99C39.6008 190.984 41.8335 197.031 39.4475 199.829C38.8151 200.576 37.1478 201.496 36.3525 201.841C36.1033 201.946 33.1999 202.445 32.3854 202.368C25.8503 201.764 19.1523 197.558 16.728 195.287C16.2201 194.808 15.7314 194.309 15.2523 193.802C14.4378 192.939 13.6425 192.048 12.8184 191.205C12.8088 191.195 12.8088 191.195 12.7992 191.186C12.5693 190.956 12.3393 190.726 12.1093 190.496C12.0422 190.429 11.9656 190.361 11.8985 190.294C11.7069 190.112 11.5152 189.94 11.3236 189.767C11.2469 189.7 11.1798 189.633 11.1032 189.576C10.8445 189.355 10.5761 189.135 10.2983 188.924C10.2791 188.905 10.2599 188.895 10.2408 188.895C10.2312 188.895 10.2312 188.895 10.2216 188.895C10.212 188.895 10.2024 188.895 10.1928 188.895C10.1641 189.01 10.1258 189.116 10.1066 189.231C12.1764 191.396 14.0545 193.744 16.2201 195.814C18.2324 197.73 20.6184 199.196 23.081 200.461C25.5437 201.736 28.1788 202.838 30.9481 203.183C32.0692 203.326 33.0849 203.211 34.1964 203.096C34.7714 203.029 35.2601 203.02 35.6913 203.115C36.0171 203.183 36.2662 203.46 36.3141 203.786C36.8699 207.274 37.2532 210.8 37.4448 214.355C37.579 216.943 35.5092 219.012 33.1041 219.501C26.2815 220.9 22.094 221.053 16.6513 218.188C11.3811 215.41 10.6432 205.76 9.59875 200.892C8.28598 194.808 5.15257 188.665 5.58377 182.447Z" fill="#FF725E"/>
<path d="M22.1035 173.889C22.1514 172.883 22.2184 171.868 22.2759 170.861C22.2759 170.814 22.2951 170.775 22.3047 170.737C22.2951 170.727 22.2951 170.718 22.2855 170.718C22.1322 170.564 22.3047 170.085 22.4963 170.2C22.5442 170.229 22.8125 170.536 22.8796 170.612C24.2978 172.155 24.2786 174.148 24.1253 176.122C24.0966 176.505 23.6558 176.601 23.4354 176.314C22.9563 175.681 22.4772 175.049 21.9981 174.416C21.8735 174.254 21.9501 174.004 22.1035 173.889Z" fill="white"/>
<path d="M9.55092 150.643C16.2968 150.144 21.5575 155.529 25.2371 160.129C26.7224 161.988 26.8661 163.339 25.4096 165.236C24.6909 166.175 23.8956 167.086 23.0619 167.977C22.7266 168.331 22.5445 168.801 22.5349 169.29C22.4774 171.331 22.3528 173.391 22.1516 175.403C22.075 176.131 21.8833 176.783 21.203 177.195C20.3406 177.712 19.1044 177.799 18.1175 177.923C16.1148 178.172 13.815 177.942 12.4256 176.4C12.3969 176.371 12.3777 176.342 12.3489 176.304C12.3585 176.237 12.3681 176.16 12.3873 176.093C12.2723 176.285 12.1573 176.476 12.0327 176.658C11.4674 177.463 10.2121 176.764 10.6337 175.921C11.5057 174.186 11.8986 172.27 11.5728 171.34C10.4325 168.063 2.12466 169.28 1.15685 162.726C0.0069809 154.897 3.75364 151.064 9.55092 150.643Z" fill="#E2B28F"/>
<path d="M30.9288 203.182C32.0499 203.326 33.0656 203.211 34.1772 203.096C34.3688 203.077 34.5604 203.058 34.7329 203.048C34.4454 203.202 34.2346 203.297 34.2346 203.288C33.3627 203.585 32.3373 203.566 31.4558 203.403C31.3408 203.384 31.1204 203.297 30.8138 203.173C30.8617 203.173 30.9 203.182 30.9288 203.182Z" fill="#FF725E"/>
<path d="M19.2386 153.978C20.0147 154.39 20.8101 154.792 21.5958 155.195C22.602 155.549 23.5985 155.942 24.4992 156.421C25.6395 157.034 24.9784 157.82 24.2501 158.5C23.129 159.554 22.7553 159.353 21.7204 158.261C20.7047 157.188 18.9415 155.942 18.6541 154.409C18.5966 154.083 18.9224 153.805 19.2386 153.978Z" fill="#C12914"/>
<path d="M32.1075 244.521C32.1458 244.521 32.1458 244.578 32.1075 244.578C32.0692 244.568 32.0692 244.521 32.1075 244.521Z" fill="white"/>
<path d="M7.43322 286.587C8.62142 278.097 11.0457 269.779 11.9273 261.251C12.8568 252.359 12.5885 245.114 11.1416 236.414C10.9595 235.302 10.4804 232.935 10.9212 232.82C11.2565 232.734 11.6111 235.063 11.8123 235.973C12.8472 240.477 13.6138 245.009 14.2941 249.58C15.0224 254.428 15.6835 259.315 16.0093 264.212C16.316 268.792 16.3064 273.401 16.3831 277.991C16.3831 278.192 16.5364 278.298 16.6897 278.307C16.7376 278.307 16.7759 278.307 16.8143 278.298C16.8526 278.288 16.8813 278.269 16.9197 278.25C16.9292 278.25 16.9292 278.24 16.9388 278.24C16.9676 278.221 16.9867 278.192 17.0059 278.164C17.0155 278.154 17.0251 278.145 17.0251 278.135C17.0442 278.097 17.0538 278.049 17.0538 277.991C17.073 277.052 17.073 276.113 17.073 275.174C17.073 274.312 17.0634 273.44 17.0442 272.577C16.9292 265.228 16.3447 257.955 15.2715 250.624C14.6007 246.034 13.9204 241.425 12.828 236.922C12.3202 234.804 11.774 232.696 11.3428 230.569C11.0649 229.198 11.0745 228.163 11.0745 226.774C11.0745 225.231 11.2182 223.401 11.6207 221.849C11.8315 220.383 12.8568 216.971 13.288 215.591C13.3838 215.294 13.7 215.151 13.9875 215.285C15.9998 216.205 20.3214 217.68 24.6526 218.39C28.9837 219.099 34.2157 218.121 36.0267 217.7C36.3908 217.613 36.7454 217.882 36.7741 218.255C36.937 220.268 36.937 226.074 36.4963 230.032C36.4483 231.738 35.2122 252.771 34.2348 257.763C32.74 265.343 31.7147 272.74 30.1145 280.301C28.8017 286.51 28.4663 298.219 27.8339 304.87C27.7955 305.282 27.4602 305.598 27.0481 305.617C25.3521 305.684 22.554 305.943 21.2892 305.885C20.398 305.847 19.526 305.818 18.654 305.828C18.2324 305.828 17.8683 305.531 17.8204 305.109C17.6192 303.585 17.2167 300.098 17.0921 298.287C17.0921 298.277 17.0921 298.258 17.0921 298.248C17.073 297.913 17.0538 297.577 17.0347 297.232C16.9197 294.406 16.9292 291.56 16.6322 288.752C16.6322 288.723 16.613 288.704 16.6034 288.685C16.6034 288.675 16.5939 288.675 16.5843 288.675C16.5747 288.666 16.5651 288.666 16.546 288.666C16.5364 288.666 16.5268 288.666 16.5268 288.666C16.4885 288.666 16.4405 288.695 16.4405 288.762C16.1339 291.675 16.0668 294.617 16.1243 297.539C16.1435 298.478 16.1627 299.446 16.2202 300.423C16.2393 300.826 15.856 301.132 15.4632 301.017C13.4413 300.433 11.2278 300.232 9.15803 300.088C8.34353 300.03 7.50986 299.983 6.67621 299.963C6.33125 299.954 6.06294 299.666 6.09169 299.331C6.45581 294.339 7.10742 288.886 7.43322 286.587Z" fill="#E5361D"/>
<path d="M19.5355 308.923C20.8866 308.357 20.2637 310.897 24.2787 310.724C25.2369 310.686 26.6168 308.405 27.6229 307.974C27.7475 307.917 27.8816 307.993 27.9391 308.118C29.2423 310.945 36.9752 312.2 38.8917 313.216C40.8273 314.241 42.37 315.985 41.9963 317.796C41.9388 318.074 34.8288 319.377 29.3094 319.272C22.2569 319.137 18.5581 317.997 18.5198 317.825C18.1269 316.09 18.3952 313.666 18.6539 311.884C18.7976 310.849 19.2863 309.028 19.5355 308.923Z" fill="#D10B35"/>
<path d="M18.8648 317.508C20.6951 318.438 22.8031 318.438 24.8058 318.572C26.7606 318.706 28.7058 318.812 30.6606 318.831C31.5901 318.84 32.5292 318.831 33.4586 318.802C33.7653 317.777 34.5702 315.736 35.1739 314.787C35.5763 314.145 36.8603 312.832 37.6269 312.736C38.0581 312.679 38.5852 312.88 39.0547 313.129C40.3291 313.714 41.3736 314.845 41.891 316.129C42.0827 316.598 42.4372 317.499 42.236 318.103C42.2839 318.256 42.2552 318.428 42.0923 318.515C40.4345 319.396 38.336 319.54 36.4866 319.741C34.3498 319.971 32.1938 320.019 30.0378 319.981C27.8818 319.942 25.7162 319.808 23.5697 319.655C21.7204 319.521 19.9476 319.367 18.2707 318.524C17.6 318.179 18.1941 317.173 18.8648 317.508Z" fill="#770730"/>
<path d="M18.2994 310.81C18.4527 310.178 18.8265 308.252 19.8422 308.52C20.2446 308.625 20.4171 309.105 20.6279 309.402C20.6567 309.45 20.695 309.488 20.7333 309.536C21.3466 310.072 22.0461 310.465 22.8414 310.724C23.0714 310.801 23.1097 311.174 22.8414 311.232C21.3849 311.548 19.9284 311.519 18.4815 311.146C18.3473 311.098 18.2707 310.944 18.2994 310.81Z" fill="#770730"/>
<path d="M185.481 300.95C183.546 303.154 180.556 306.384 178.276 308.242C176.867 309.392 172.708 312.018 172.325 312.114C169.192 312.852 165.33 312.305 162.206 311.644C161.133 311.424 161.037 310.149 161.612 309.479C162.149 307.457 164.266 306.853 166.537 306.978C167.534 302.982 170.111 299.178 171.798 295.441C172.21 294.53 173.302 294.204 174.088 294.942C176.158 295.46 178.036 294.904 178.716 293.582C180.393 290.343 181.026 294.779 181.811 295.23C182.559 295.651 183.536 296.14 184.092 296.811C184.916 297.779 186.008 300.337 185.481 300.95Z" fill="#E5361D"/>
<path d="M162.158 307.706C163.164 306.719 164.946 306 166.307 306.652C167.716 307.322 168.674 309.823 168.894 311.347C169.124 311.357 169.354 311.366 169.584 311.366C172.181 311.405 174.145 310.6 176.119 308.942C177.767 307.552 179.329 306.029 180.843 304.496C182.367 302.953 183.737 301.18 185.395 299.781C185.75 299.484 186.277 299.887 186.027 300.299C184.782 302.349 182.913 304.084 181.227 305.77C179.454 307.552 177.633 309.45 175.554 310.887C171.721 313.532 166.451 312.641 162.129 311.749C161.727 311.702 161.363 311.596 161.133 311.366C160.194 310.427 161.449 308.405 162.158 307.706Z" fill="#770730"/>
<path d="M176.234 294.942C176.637 294.866 177.03 294.779 177.384 294.636C177.863 294.444 178.256 294.08 178.505 293.62C178.687 293.284 178.879 292.959 179.1 292.662C179.243 292.47 179.435 292.345 179.627 292.298C179.646 292.278 179.674 292.259 179.703 292.259C180.211 292.106 180.546 292.633 180.776 293.016C180.987 293.371 181.15 293.754 181.428 294.07C181.572 294.233 181.783 294.367 181.802 294.607C181.85 295.182 180.891 295.412 180.508 295.565C179.809 295.843 177.509 296.523 176.1 295.44C175.909 295.306 176.004 294.981 176.234 294.942Z" fill="#770730"/>
<path d="M184.868 145.267C185.117 145.018 185.491 145.305 185.414 145.612C185.376 145.756 185.337 145.909 185.309 146.053C185.405 146.11 185.481 146.216 185.481 146.359C185.472 147.212 185.222 147.988 184.743 148.697C184.6 148.908 184.35 148.908 184.188 148.784C184.14 148.841 184.082 148.899 184.015 148.947C183.766 149.157 183.469 149.033 183.373 148.803C183.354 148.784 183.335 148.765 183.325 148.736C183.028 147.5 184.063 146.091 184.868 145.267Z" fill="#052F33"/>
<path d="M191.231 157.81C189.966 163.033 185.108 165.649 180.144 167.019C180.135 167.038 180.115 167.057 180.106 167.076C180 168.744 180.345 170.315 181.112 172.059C181.476 172.912 180.288 173.564 179.79 172.749C179.646 172.519 179.531 172.28 179.406 172.05C178.86 172.73 177.547 172.672 177.135 171.609C177.097 171.523 177.068 171.436 177.03 171.34C176.637 171.283 176.302 171.015 176.235 170.497C176.225 170.468 176.225 170.44 176.215 170.411C175.832 170.449 175.43 170.325 175.104 169.932C174.96 169.836 174.836 169.702 174.759 169.529C172.392 166.741 169.699 164.01 167.668 161.011C166.365 159.085 166.547 157.753 167.994 155.951C171.568 151.505 177.231 146.772 183.498 147.471C188.883 148.065 192.467 152.684 191.231 157.81Z" fill="#E2B28F"/>
<path d="M177.509 164.767C177.921 163.933 178.678 163.588 179.492 163.234C180.633 162.736 181.648 162.189 182.511 161.27C186.42 157.101 182.722 151.132 185.424 146.695C185.74 145.823 186.267 145.008 187.005 144.28C187.254 144.031 187.618 144.319 187.551 144.625C187.34 145.555 187.35 146.436 187.551 147.299C187.762 146.542 188.193 145.861 188.864 145.296C189.209 145.008 189.611 145.325 189.544 145.727C189.353 146.867 189.381 147.96 189.621 149.033C189.63 148.995 189.64 148.947 189.65 148.908C189.745 148.506 190.33 148.487 190.512 148.822C191.528 150.719 192.304 152.646 192.591 154.591C192.62 154.754 192.745 154.888 192.908 154.907C193.09 154.936 193.272 154.964 193.454 154.993C193.914 155.051 194.115 155.204 193.904 155.482C193.712 155.731 193.55 155.98 193.396 156.239C193.243 156.565 193.109 156.9 192.975 157.235C192.62 159.142 192.352 161.49 191.221 162.908C190.368 163.972 189.046 164.48 187.752 164.959C187.35 165.208 186.928 165.447 186.497 165.658C184.226 166.751 181.6 167.383 179.952 169.434C179.732 169.702 179.339 169.807 179.071 169.52C177.95 168.255 176.637 166.521 177.509 164.767Z" fill="#052F33"/>
<path d="M136.736 122.356C136.861 121.934 137.091 120.784 137.742 120.919C138.183 121.005 138.193 121.513 138.097 122.001C138.068 122.998 138.011 123.975 138.154 124.981C138.336 126.275 138.806 127.367 139.285 128.556C139.515 129.111 139.553 129.993 138.796 130.156C138.078 130.309 137.704 129.456 137.464 128.948C136.506 126.907 136.104 124.55 136.736 122.356Z" fill="#CE9C7A"/>
<path d="M135.203 122.816C135.318 122.433 135.606 121.561 136.19 121.886C136.516 122.068 136.449 122.624 136.324 123.151C136.372 124.157 136.401 125.144 136.65 126.151C136.794 126.735 136.995 127.31 137.235 127.875C137.436 128.364 137.771 128.824 137.925 129.322C138.059 129.763 137.953 130.29 137.417 130.376C136.631 130.501 136.276 129.514 136.018 128.968C135.107 127.07 134.552 124.866 135.203 122.816Z" fill="#CE9C7A"/>
<path d="M134.092 124.972C134.417 124.847 134.504 125.125 134.532 125.278C134.734 126.773 135.347 128.124 135.96 129.485C136.094 129.782 136.41 129.964 136.736 129.916C136.755 129.916 136.765 129.916 136.775 129.907C137.148 129.839 137.522 129.744 137.886 129.629C137.953 129.609 138.02 129.581 138.087 129.562C138.595 129.379 138.864 128.833 138.72 128.316C138.509 127.578 138.375 126.821 138.279 126.093C138.126 124.972 137.934 123.63 138.135 122.48C138.135 122.375 138.145 122.269 138.174 122.183C138.279 121.867 138.605 121.618 138.931 121.79C139.295 121.982 139.323 122.595 139.276 123.151C139.371 124.148 139.4 125.154 139.64 126.141C139.831 126.936 140.598 128.44 140.646 128.507C142.093 130.865 143.616 133.155 143.741 135.915C143.75 136.231 143.837 136.413 143.875 136.499C144.105 137.055 144.335 137.62 144.555 138.186C144.9 139.048 145.293 139.91 145.523 140.811C145.629 140.907 145.677 141.07 145.609 141.194C145.609 141.204 145.609 141.204 145.609 141.214C145.638 141.348 145.494 141.405 145.408 141.348C144.517 141.721 143.588 142.009 142.668 142.287C142.083 142.459 140.981 143.418 140.876 142.718C140.655 141.147 140.56 140.466 140.464 139.747C140.378 139.125 140.263 138.492 140.013 137.917C139.707 137.189 136.621 134.343 135.701 132.206C135.586 131.948 135.395 131.564 135.28 131.191C135.136 130.903 135.04 130.577 134.954 130.357C134.657 129.609 134.398 128.843 134.178 128.067C133.977 127.406 133.037 125.365 134.092 124.972Z" fill="#E2B28F"/>
<path d="M172.756 283.559C169.326 273.708 164.975 264.365 162.426 254.198C162.417 254.179 162.417 254.16 162.407 254.131C162.522 253.873 162.58 253.566 162.532 253.221C161.909 248.88 160.979 244.559 160.117 240.256C159.762 238.503 159.456 236.72 159.101 234.938C158.775 231.134 158.545 227.272 157.606 223.641C157.348 222.644 156.016 222.912 155.862 223.813C155.68 224.905 155.604 226.027 155.575 227.167C155.498 227.282 155.69 232.284 156.044 234.622C156.246 236.203 156.466 237.765 156.667 239.269C157.156 242.939 157.808 246.581 158.545 250.212C158.775 251.477 159.005 252.732 159.274 253.988C159.312 254.16 159.37 254.313 159.446 254.448C159.475 254.591 159.504 254.735 159.542 254.869C161.794 264.835 164.486 275.691 169.546 284.737C170.456 286.347 173.388 285.389 172.756 283.559Z" fill="#E5361D"/>
<path d="M177.883 279.639C178.381 283.29 178.812 286.941 179.032 290.62C177.94 291.33 175.976 290.333 176.321 288.685C176.953 285.638 177.662 282.648 177.883 279.639Z" fill="#E5361D"/>
<path d="M176.608 270.517C175.506 267.604 174.04 264.634 174.471 261.606C174.548 261.079 175.056 260.676 175.554 260.647C175.784 263.944 176.177 267.23 176.608 270.517Z" fill="#E5361D"/>
<path d="M176.742 263.014C176.713 262.736 177.106 262.631 177.212 262.89C178.879 266.588 180.403 270.958 180.987 274.733C181.62 278.815 181.102 283.06 180.24 287.133C180.182 287.411 179.78 287.382 179.751 287.104C178.994 279.045 177.461 271.063 176.742 263.014Z" fill="#E5361D"/>
<path d="M145.849 140.591C146.932 143.092 152.25 155.184 155.47 159.544C156.025 160.426 156.6 161.317 157.166 162.218C157.817 163.368 158.45 164.527 159.063 165.706C160.922 169.28 161.324 171.618 161.066 176.419C160.931 178.958 160.337 182.216 159.81 184.171C159.226 186.317 158.718 188.492 158.277 190.677C156.591 199.158 158.536 218.82 157.903 219.29C155.326 221.245 151.905 223.037 148.8 223.976C147.593 224.34 146.692 223.889 146.251 223.132C145.523 222.395 145.715 221.063 145.839 220.104C146.05 218.581 146.395 217.096 146.855 215.649C149.471 201.841 156.38 181.488 155.393 174.138C155.182 172.538 154.099 171.273 153.841 170.928C150.889 167.047 148.599 162.812 146.386 158.519C144.45 154.763 141.23 146.81 140.349 142.728C140.31 142.536 140.445 142.354 140.636 142.335C142.39 142.181 144.124 141.683 145.322 140.514C145.494 140.332 145.763 140.38 145.849 140.591Z" fill="#C12914"/>
<path d="M161.123 175.193C161.267 173.813 164.161 170.708 164.199 170.689C164.324 170.469 177.049 168.495 177.451 168.562C182.243 169.395 182.683 190.86 181.265 196.858C180.134 201.659 179.406 208.299 174.404 210.896C169.239 213.579 163.413 210.082 158.411 212.19C156.275 213.091 153.352 211.864 153.563 209.306C154.099 202.761 160.27 183.548 161.123 175.193Z" fill="white"/>
<path d="M180.527 159.842C181.217 159.142 181.84 158.27 182.31 157.667C184.245 155.146 183.565 151.946 184.954 149.071C185.184 148.583 185.97 148.87 185.941 149.368C185.817 151.285 185.606 153.23 185.261 155.137C185.453 155.031 185.692 155.29 185.568 155.501C185.395 155.808 185.204 156.105 185.012 156.392C184.964 156.622 184.906 156.852 184.849 157.092C184.945 157.235 184.964 157.417 184.83 157.609C184.772 157.686 184.715 157.762 184.667 157.839C184.657 157.868 184.648 157.897 184.638 157.925C185.021 157.82 185.376 158.213 185.175 158.625C184.581 159.842 181.006 162.812 180.403 160.225C180.374 160.1 180.422 159.947 180.527 159.842Z" fill="#052F33"/>
<path d="M182.099 160.388C181.409 160.321 180.642 160.714 180 160.915C179.234 161.155 176.675 162.036 176.857 162.515C177.758 165.007 181.342 164.863 182.731 162.918C183.325 162.074 183.546 160.532 182.099 160.388Z" fill="#C12914"/>
<path d="M170.543 295.776C170.284 295.172 171.175 294.674 171.453 295.287C171.482 295.345 171.501 295.393 171.52 295.45C171.578 295.412 171.635 295.383 171.692 295.374C171.683 295.335 171.673 295.297 171.664 295.259C171.539 294.789 172.066 294.463 172.44 294.607C172.603 294.272 173.092 294.08 173.369 294.377C173.456 294.061 173.81 293.888 174.126 293.965C174.299 293.706 174.653 293.62 174.941 293.783C175.046 293.428 175.449 293.218 175.765 293.361C176.033 293.227 176.388 293.265 176.551 293.61C176.589 293.697 176.637 293.793 176.675 293.879C176.694 293.869 176.714 293.86 176.742 293.86C176.963 293.419 177.758 293.438 177.892 294.003C177.94 294.224 177.998 294.444 178.046 294.665C178.055 294.626 178.055 294.588 178.065 294.55C178.122 294.262 178.62 294.348 178.573 294.636C178.18 297.041 178.343 299.369 179.052 301.707C179.109 301.909 178.975 302.072 178.803 302.12C178.918 302.417 178.812 302.8 178.4 302.944C176.33 303.691 174.232 304.237 172.066 304.582C171.683 304.64 171.415 304.381 171.338 304.093C171.05 304.055 170.792 303.806 170.916 303.451C171.721 301.065 171.673 298.632 170.753 296.313C170.696 296.131 170.619 295.949 170.543 295.776ZM175.966 302.177C175.899 302.254 175.803 302.311 175.698 302.34C175.698 302.397 175.698 302.455 175.698 302.512C175.794 302.484 175.89 302.455 175.985 302.426C175.976 302.349 175.976 302.263 175.966 302.177ZM173.858 302.57C173.81 302.714 173.753 302.867 173.695 303.011C173.762 302.991 173.839 302.982 173.906 302.963C173.887 302.838 173.877 302.704 173.858 302.57ZM172.603 302.896C172.574 302.867 172.555 302.848 172.526 302.819C172.43 302.982 172.335 303.145 172.239 303.298C172.354 303.279 172.469 303.26 172.584 303.241C172.584 303.212 172.584 303.174 172.584 303.145C172.584 303.059 172.593 302.982 172.603 302.896ZM178.323 301.736C178.295 301.66 178.256 301.583 178.228 301.506C178.199 301.554 178.17 301.592 178.122 301.621C178.122 301.698 178.122 301.746 178.132 301.746C178.199 301.727 178.266 301.727 178.323 301.736Z" fill="#E2B28F"/>
<path d="M156.073 211.203C157.846 210.359 161.89 208.74 167.237 208.548C169.508 208.462 177.164 208.625 177.72 210.398C180.278 218.591 180.288 223.382 178.668 231.843C177.039 240.342 174.97 252.876 175.401 257.332C176.589 269.76 179.013 282.054 179.205 294.559C179.176 294.846 179.147 295.134 179.119 295.412C179.09 295.642 178.937 295.843 178.716 295.929C177.078 296.581 170.859 298.325 168.818 298.65C168.473 298.708 168.147 298.478 168.08 298.143C166.729 291.435 165.33 284.804 163.337 278.221C161.085 270.795 160.366 263.493 158.201 256.038C156.275 249.398 155.029 216.128 155.077 212.736C155.086 212.084 155.47 211.49 156.073 211.203Z" fill="#E5361D"/>
<path d="M184.197 307.198C182.262 309.402 179.272 312.631 176.992 314.49C175.583 315.64 171.424 318.265 171.041 318.361C167.908 319.099 164.046 318.553 160.922 317.892C159.849 317.671 159.753 316.397 160.328 315.726C160.865 313.704 162.982 313.101 165.253 313.225C166.25 309.229 168.827 305.425 170.514 301.688C170.926 300.778 172.018 300.452 172.804 301.19C174.874 301.707 176.752 301.152 177.432 299.829C179.109 296.59 179.742 301.027 180.527 301.477C181.275 301.899 182.252 302.388 182.808 303.058C183.632 304.036 184.734 306.594 184.197 307.198Z" fill="#D10B35"/>
<path d="M160.884 314.069C161.89 313.082 163.672 312.363 165.033 313.015C166.441 313.685 167.4 316.186 167.62 317.71C167.85 317.719 168.08 317.729 168.31 317.729C170.907 317.767 172.871 316.962 174.845 315.305C176.493 313.915 178.055 312.392 179.569 310.859C181.093 309.316 182.463 307.543 184.121 306.144C184.475 305.847 185.002 306.249 184.753 306.661C183.507 308.712 181.639 310.446 179.952 312.133C178.18 313.915 176.359 315.813 174.28 317.25C170.447 319.895 165.176 319.003 160.855 318.112C160.452 318.064 160.088 317.959 159.858 317.729C158.919 316.79 160.174 314.768 160.884 314.069Z" fill="#770730"/>
<path d="M174.96 301.305C175.362 301.228 175.755 301.142 176.11 300.998C176.589 300.807 176.982 300.443 177.231 299.983C177.413 299.647 177.605 299.321 177.825 299.024C177.969 298.833 178.16 298.708 178.352 298.66C178.371 298.641 178.4 298.622 178.429 298.622C178.937 298.469 179.272 298.996 179.502 299.379C179.713 299.724 179.876 300.117 180.154 300.433C180.297 300.596 180.508 300.73 180.527 300.97C180.575 301.545 179.617 301.775 179.234 301.928C178.534 302.206 176.234 302.886 174.826 301.803C174.634 301.669 174.73 301.343 174.96 301.305Z" fill="#770730"/>
<path d="M169.268 149.445C171.395 149.043 176.129 148.937 176.254 148.928C176.512 148.899 176.704 149.359 176.551 149.512C176.503 149.56 176.33 149.742 176.273 149.78C174.395 151.16 172.746 152.837 170.763 154.073C170.725 154.102 170.677 154.131 170.638 154.15C170.581 154.179 170.533 154.217 170.475 154.246C170.418 154.284 170.37 154.284 170.322 154.274C170.207 154.303 170.092 154.322 169.968 154.313C169.853 154.303 169.738 154.246 169.69 154.14C169.22 153.086 169.172 150.834 169.067 149.685C169.057 149.589 169.172 149.464 169.268 149.445Z" fill="#C12914"/>
<path d="M42.4181 161.748C43.635 160.004 44.8424 158.05 45.8198 156.804C45.9252 156.67 46.1743 156.689 46.2797 156.804C47.6404 158.232 51.0038 160.752 49.4036 162.975C49.1353 163.828 48.6657 164.566 48.2345 165.303C47.7171 166.185 47.305 167.105 46.4906 167.737C45.4365 168.552 43.9896 168.715 42.9451 167.987C42.0061 167.632 41.1436 166.817 40.8274 165.217C40.6358 164.24 41.3928 163.205 42.4181 161.748Z" fill="#E2B28F"/>
<path d="M30.7468 113.435C33.2766 113.54 45.5131 113.531 45.6856 113.924C49.4035 122.701 52.7669 131.641 56.2548 140.505C59.7619 149.416 63.2978 158.318 66.8241 167.23C73.8766 185.043 80.9292 202.857 87.9817 220.67C91.6901 230.032 120.753 307.064 124.116 315.956C124.318 316.483 123.925 317.039 123.369 317.039H106.284C105.948 317.039 105.642 316.828 105.527 316.512C103.591 311.108 81.4658 250.011 81.5424 249.992C74.6049 233.501 67.974 216.875 61.5443 200.174C54.8271 182.743 48.3207 165.237 42.0539 147.634C39.5913 140.706 37.1669 133.759 34.781 126.802C32.9507 122.643 31.4942 118.312 30.4114 113.885C30.354 113.665 30.5073 113.425 30.7468 113.435Z" fill="#C12914"/>
<path d="M141.307 130.108C141.307 129.179 141.068 128.403 140.694 127.559C140.617 127.377 140.406 127.128 140.454 126.908C140.723 125.834 141.671 127.119 142.189 127.971C143.051 129.38 143.645 130.98 143.358 132.628C143.147 133.864 141.872 134.401 141.307 133.05C140.933 132.111 141.307 131.076 141.307 130.108Z" fill="#CE9C7A"/>
<path d="M101.128 91.1082C101.138 91.089 101.157 91.0795 101.167 91.0603C101.301 90.8974 101.579 90.8687 101.761 90.9453C101.953 91.022 102.106 91.2232 102.096 91.4436C102.087 91.6352 101.991 91.8173 101.828 91.9131C101.636 92.0281 101.32 92.0089 101.176 91.8269L101.138 91.779C100.956 91.5682 100.946 91.3286 101.128 91.1082Z" fill="#00A6C1"/>
<path d="M97.6693 90.0541C97.9856 89.92 98.2634 90.102 98.388 90.3991C98.3976 90.4182 98.4072 90.4374 98.4072 90.4566C98.503 90.6961 98.3209 90.9836 98.1005 91.0794C97.861 91.1848 97.5831 91.089 97.449 90.8686C97.4394 90.8494 97.4298 90.8303 97.4202 90.8207C97.2477 90.5332 97.3819 90.1691 97.6693 90.0541Z" fill="#00A6C1"/>
<path d="M88.1063 44.6436C88.6141 44.4137 89.2562 44.4424 89.764 44.6724C89.8982 44.567 90.0994 44.7586 89.9748 44.9024C89.2178 45.7744 87.8667 45.9852 86.7839 46.1385C86.6689 46.1576 86.5827 46.0139 86.6402 45.9181C86.9277 45.3719 87.5505 44.9024 88.1063 44.6436Z" fill="#CE9C7A"/>
<path d="M88.5758 42.6603C89.0932 42.4494 89.8407 42.4494 90.2623 42.8807C90.3485 42.7944 90.5402 42.8232 90.5497 42.9861C90.5881 43.5322 90.5018 44.0401 90.291 44.5575C90.2431 44.663 90.0994 44.6725 90.0227 44.615C89.2753 44.0401 88.6525 44.4617 88.0584 44.9696C87.8571 45.1421 87.6942 45.2858 87.4068 45.2666C86.8893 45.2379 86.621 44.7204 86.8031 44.2605C87.0714 43.5706 87.9434 42.919 88.5758 42.6603Z" fill="#CE9C7A"/>
<path d="M87.7708 41.1268C88.4512 40.8298 89.189 40.6094 89.9364 40.6669C91.0096 40.7435 92.1403 41.558 91.987 42.7079C92.1403 42.6504 92.332 42.842 92.1883 42.9762C91.8241 43.3212 91.46 43.6661 91.0863 44.0015C90.933 44.1357 90.7222 44.3944 90.5018 44.4135C89.9843 44.471 90.1089 43.7619 90.0897 43.4649C89.9843 42.0371 88.4799 42.3246 87.4929 42.5354C87.1671 42.6025 86.7072 42.6504 86.688 42.1905C86.6593 41.6443 87.378 41.2993 87.7708 41.1268Z" fill="#CE9C7A"/>
<path d="M84.6854 37.0353C86.2186 35.138 89.6778 34.6877 91.4984 36.5371C91.8338 36.8724 92.5141 37.9169 92.7728 38.5972C93.5298 40.6574 92.562 43.1297 90.6935 44.2316C88.7579 45.3719 86.094 44.8161 84.6662 43.1201C83.2097 41.4144 83.3056 38.7506 84.6854 37.0353Z" fill="#FF725E"/>
<path d="M73.6467 68.5325C75.0169 64.5942 77.2208 62.1315 79.5877 58.7298C80.2201 57.8195 81.6862 55.7114 82.539 54.7628C84.3309 52.5876 84.6279 51.3994 84.5513 50.6807C84.465 49.8662 84.3788 49.0421 84.2926 48.2276C84.2351 47.6623 84.1393 46.9915 84.4938 46.4933C84.9154 45.88 86.7648 45.765 86.8702 45.8512C87.426 45.8992 88.2021 45.5159 88.71 45.2955C89.4957 44.7014 90.2336 44.0977 90.866 43.3503C91.4026 42.7178 92.0446 41.9608 92.2363 41.1559C92.4279 40.3127 92.2363 39.5653 92.2554 38.722C92.265 38.2238 92.265 37.4668 92.5525 37.0356C92.84 36.6044 93.4149 37.0356 93.6161 37.4093C93.8653 37.8788 93.9802 38.5016 94.1048 39.0191C94.2294 39.5557 94.3252 40.1019 94.3348 40.6481C94.3444 41.7404 93.9611 42.7274 93.4628 43.6761C93.1849 44.2031 92.8879 44.7301 92.6291 45.2667C92.6196 45.2955 92.61 45.3146 92.6004 45.3434C93.1466 46.7328 92.2459 47.9402 91.6038 49.1763C90.7798 50.7574 89.2274 53.3925 88.4034 54.9736C86.5348 59.1323 84.4171 63.1952 82.4049 67.2868C81.0921 69.9602 79.5973 74.4256 76.071 74.7705C74.9594 74.8759 73.6658 74.5118 73.1005 73.4769C72.3051 72.03 73.158 69.9315 73.6467 68.5325Z" fill="#E5BA9C"/>
<path d="M83.0181 41.0121C83.0181 41.0025 83.0181 40.9929 83.0181 40.9833C83.0181 40.9642 83.0277 40.9546 83.0373 40.945C83.0756 40.8492 83.1523 40.7629 83.2768 40.715C83.7655 40.4851 84.3979 40.9067 84.7142 41.2516C85.2124 41.7978 85.4041 42.5069 85.5957 43.2064C85.8353 44.0688 86.2377 44.7204 86.736 45.4487C87.4451 46.4836 87.7038 47.9305 86.5252 48.7737C85.1741 49.7415 84.4171 47.8155 84.0817 46.7998C83.7847 45.899 83.5739 44.9791 83.3918 44.0592C83.2098 43.1585 82.951 42.114 83.0085 41.175C82.9989 41.1175 83.0085 41.06 83.0181 41.0121Z" fill="#CE9C7A"/>
<path d="M10.2503 174.752C10.3365 173.63 10.5665 172.26 11.0648 171.264C11.2469 170.89 11.9559 171.829 12.2626 172.059C13.5083 173.008 20.5896 173.372 21.2412 173.468C21.2412 173.468 22.2473 173.592 22.3431 173.161C22.4006 172.902 22.7264 173.362 22.7168 173.64C22.6689 174.886 21.8065 176.131 21.5478 176.764C21.2795 177.415 21.0591 178.115 20.7333 178.738C20.3213 179.514 19.9955 179.744 19.1235 179.706C17.6286 179.639 16.038 179.226 14.5719 178.901C13.4891 178.661 12.3009 178.402 11.4289 177.674C10.7965 177.157 10.4611 176.543 10.3174 175.882C10.1928 175.528 10.1928 175.144 10.2503 174.752Z" fill="white"/>
<path d="M21.0303 176.227C21.337 175.557 21.6628 174.896 21.9886 174.234C22.1706 173.861 22.6785 173.947 22.9659 174.234C23.0618 174.33 23.8954 175.308 24.0008 175.767C24.1158 176.247 24.0679 176.697 23.9529 177.138C24.3362 178.221 24.662 179.313 25.1986 180.348C26.061 182.006 27.1438 183.529 28.3703 184.938C30.718 187.64 33.516 189.892 36.1032 192.354C40.4057 196.436 44.9573 202.205 43.6828 208.558C43.6349 208.778 42.073 210.427 41.4789 211.174C41.2106 211.509 40.7506 211.26 40.6165 210.944C40.0128 209.42 38.7863 206.709 38.7767 206.594C38.3742 203.24 37.8855 199.666 35.902 196.887C34.0239 194.252 31.7816 191.856 29.3573 189.738C23.8188 184.899 22.4677 178.738 22.4102 178.604C22.2856 178.297 21.5765 178.23 21.3274 178.029C21.0878 177.828 20.8866 177.588 20.8195 177.272C20.7429 176.908 20.8866 176.563 21.0303 176.227Z" fill="#E5361D"/>
<path d="M33.3053 192.46C36.5345 190.486 39.3038 192.93 40.3387 194.913C41.2106 196.58 40.7986 198.698 39.6487 199.973C37.9048 201.918 36.7836 202.234 32.3854 202.368C32.2608 202.368 29.6161 194.721 33.3053 192.46Z" fill="#FF725E"/>
<path d="M54.9036 175.816C55.5361 174.762 56.1398 173.794 56.4847 172.586C56.5805 172.261 56.638 171.925 56.6955 171.59C56.7243 171.552 56.7243 171.494 56.7147 171.446C56.8009 170.881 56.9063 170.306 56.9063 169.731C56.9159 169.242 56.9447 168.753 57.395 168.753C58.0658 168.744 58.152 169.894 58.2191 170.325C58.5736 172.558 57.8741 174.752 56.6572 176.544C56.3506 176.985 55.8715 177.742 55.1815 177.464C54.4533 177.148 54.6066 176.304 54.9036 175.816Z" fill="#CE9C7A"/>
<path d="M59.762 171.197C59.6853 170.813 59.5224 169.913 58.89 170.123C58.545 170.238 58.6121 170.775 58.6025 171.312C58.5738 172.289 58.2767 173.218 57.903 174.138C57.6826 174.675 57.4143 175.192 57.1077 175.691C56.8394 176.122 56.4465 176.505 56.2357 176.956C56.0441 177.358 56.0824 177.885 56.6094 178.067C57.376 178.326 57.8647 177.444 58.1905 176.975C59.3212 175.317 60.1549 173.295 59.762 171.197Z" fill="#CE9C7A"/>
<path d="M35.0779 193.581C36.1032 192.556 40.2811 192.096 43.5199 189.125C47.1612 185.8 49.9592 180.051 50.2467 179.476C50.2562 179.466 50.2658 179.457 50.2658 179.447C50.3521 179.275 50.4287 178.91 50.4096 178.757C50.3233 178.096 50.2083 177.54 50.3041 176.975C50.467 176.017 50.9174 175.183 51.5498 174.455C51.7223 174.253 51.8757 174.359 51.8852 174.608C51.9906 175.154 52.556 175.815 52.901 175.461C53.5525 174.656 54.2329 173.832 54.6162 172.874C54.9707 171.992 55.1336 171.063 55.3348 170.152C55.354 170.085 55.354 170.028 55.3636 169.961C55.3923 169.443 55.5073 168.916 55.8715 168.811C56.2164 168.715 56.5614 169.002 56.5805 169.328C56.6285 170.401 56.4368 171.992 56.1398 173.036C55.8715 173.995 55.4211 175.039 54.8749 175.921C55.2103 176.151 55.5552 176.371 55.929 176.563C56.2739 176.745 56.638 176.898 57.0022 177.032C57.213 177.109 57.4525 177.157 57.6921 177.224C58.4491 175.882 59.2157 174.56 59.5223 173.008C59.5511 172.854 59.666 172.787 59.781 172.787C59.8289 172.749 59.896 172.73 59.9823 172.759C61.0363 173.228 59.9631 175.145 59.7331 175.777C59.4648 176.505 58.5353 178.815 57.5196 179.888C57.5196 179.888 57.5196 179.888 57.51 179.888C56.6764 181.076 55.5552 182.13 54.3191 183.012C53.2747 184.209 51.3199 188.656 47.9948 192.335C42.3796 198.544 37.3202 200.777 35.3558 199.301C32.9123 197.49 33.9472 194.721 35.0779 193.581Z" fill="#E2B28F"/>
<path d="M4.72139 150.94C5.71795 150.259 6.7145 149.57 8.01769 149.311C8.19017 149.273 8.35307 149.311 8.47764 149.397C8.61179 149.483 8.78428 149.474 8.88968 149.368C9.08133 149.186 9.25381 148.975 9.34963 148.726C9.46462 148.429 9.75208 148.151 10.0683 148.381C12.2051 149.905 10.7678 152.483 10.2791 154.457C9.49336 157.647 8.8801 161.241 11.4481 162.918C11.9273 163.234 12.5309 163.627 12.3393 164.125C12.1189 164.71 11.7644 164.71 11.4481 164.671C8.47764 164.345 11.2852 167.881 11.6781 168.696C12.1189 169.597 12.3105 170.526 12.368 171.523C12.3968 171.992 11.726 172.145 11.5056 171.753C10.969 170.804 10.2695 170.152 9.38795 169.635C9.38795 169.683 9.38796 169.731 9.37837 169.788C9.37837 169.903 9.32088 170.076 9.24422 170.133C9.04299 170.277 8.73636 170.258 8.52555 170.066C7.40443 169.031 6.25455 168.581 4.83637 168.14C3.93564 167.862 3.02533 167.536 2.29708 166.904C0.783076 165.572 0.476447 163.426 0.399789 161.519C0.256055 158.136 1.53049 153.115 4.72139 150.94Z" fill="#052F33"/>
<path d="M9.96295 164.125C10.7008 164.077 15.904 166.108 15.5111 166.444C12.6077 168.926 10.6145 168.657 9.19637 166.655C8.59269 165.783 8.42021 164.221 9.96295 164.125Z" fill="#C12914"/>
<path d="M73.3975 0.028584C74.4899 -0.431365 80.2393 3.98606 81.2454 4.90596C82.0886 5.67254 71.8835 10.9811 71.9698 9.48629C72.2285 4.89638 72.2572 0.507698 73.3975 0.028584Z" fill="#E5361D"/>
<path d="M136.717 121.062C138.25 119.165 141.777 118.648 143.53 120.564C143.607 120.641 143.607 120.746 143.568 120.832C144.115 121.331 144.555 121.944 144.805 122.634C145.562 124.694 144.594 127.166 142.725 128.268C140.79 129.408 138.126 128.853 136.698 127.157C135.241 125.441 135.337 122.777 136.717 121.062Z" fill="#FF725E"/>
<path d="M147.938 122.327C149.164 123.803 150.266 126.39 149.299 128.268C149.241 128.383 149.078 128.316 149.069 128.201C149.059 128.124 149.059 128.048 149.059 127.981C149.03 127.952 148.992 127.923 148.982 127.875C148.666 127.022 148.551 126.103 148.302 125.231C148.053 124.349 147.727 123.506 147.382 122.653C147.248 122.346 147.727 122.078 147.938 122.327Z" fill="#CE9C7A"/>
<path d="M139.525 119.06C140.531 118.561 141.317 120.717 141.642 121.321C141.891 121.781 142.131 122.25 142.351 122.73C142.543 123.142 142.974 123.4 143.434 123.372H143.444C143.827 123.352 144.201 123.295 144.575 123.218C145.034 123.122 145.485 122.988 145.926 122.825C145.561 121.714 145.274 120.621 144.728 119.567C144.297 118.734 143.741 118.005 143.214 117.258C143.128 117.143 143.041 117.028 142.946 116.932C142.591 116.568 142.256 116.118 142.447 115.792C142.716 115.332 143.434 115.725 143.501 115.802C144.402 116.549 145.13 117.689 145.744 118.638C146.424 119.702 147.047 120.842 147.497 122.03C148.062 123.506 149.002 126.265 149.672 128.316C150.908 132.101 152.288 135.273 152.269 135.407C152.269 135.416 151.886 135.867 151.886 135.867C151.915 136.001 151.771 136.058 151.685 136.001C150.793 136.375 149.864 136.662 148.944 136.94C148.36 137.113 146.951 137.525 146.836 136.835C146.721 136.154 146.491 133.788 146.376 132.657C146.338 132.283 146.184 131.929 145.916 131.651C144.249 129.907 142.792 127.77 142.112 125.508C142.083 125.393 141.767 124.665 141.69 124.454C141.058 122.758 140.483 121.062 139.438 119.558C139.237 119.299 139.448 119.088 139.525 119.06Z" fill="#E2B28F"/>
<path d="M160.999 202.195C161.698 196.168 163.155 176.85 162.992 175.058C162.446 169.242 159.331 163.818 156.418 159.027C154.626 156.076 152.835 153.115 151.359 149.982C149.922 146.934 147.133 140.658 146.424 136.806C146.395 136.633 146.501 136.432 146.644 136.346C147.766 135.714 148.436 135.503 149.375 135.196C150.132 134.947 150.803 134.861 151.761 134.736C151.934 134.717 152.135 134.822 152.221 134.966C154.761 139.729 156.696 144.826 159.763 149.33C163.778 155.233 168.636 160.589 173.743 165.639C174.059 165.955 174.414 166.271 174.778 166.588C174.998 166.779 175.267 166.894 175.554 166.942C179.128 167.527 182.166 170.028 183.268 173.372C184.015 175.624 183.987 178.058 184.006 180.396C184.025 183.146 184.044 185.896 184.054 188.646C184.121 199.972 184.149 207.571 184.188 218.897C184.188 219.424 183.632 223.478 179.55 224.944C174.701 226.688 169.575 228.23 164.602 229.601C162.225 230.252 156.495 232.13 156.418 227.588C156.38 225.643 160.222 208.807 160.999 202.195Z" fill="#C12914"/>
<path d="M145.945 122.231C146.089 122.768 146.366 123.669 145.724 124.014C145.044 124.378 144.507 123.688 144.316 123.113C143.913 121.896 143.559 120.756 142.859 119.654C142.323 118.801 141.633 118.092 140.972 117.354C140.579 117.047 140.253 116.654 140.531 116.3C140.943 115.773 141.863 116.492 142.227 116.741C144.124 117.996 145.351 120.056 145.945 122.231Z" fill="#CE9C7A"/>
<path d="M144.527 122.797C144.68 123.381 145.044 124.359 144.373 124.78C143.914 125.068 143.482 124.732 143.3 124.311C143.089 123.832 143.051 123.266 142.888 122.758C142.706 122.183 142.486 121.618 142.217 121.072C141.757 120.152 141.135 119.376 140.521 118.581C140.081 118.264 139.678 117.881 139.803 117.536C140.033 116.904 140.818 117.392 141.154 117.603C142.984 118.743 143.99 120.775 144.527 122.797Z" fill="#CE9C7A"/>
<path d="M136.861 115.83C137.091 116.146 137.196 116.482 137.311 116.856C137.426 117.229 137.589 117.613 137.627 117.996C137.675 118.494 137.081 118.647 136.832 118.245C136.621 117.91 136.525 117.507 136.391 117.143C136.257 116.769 136.152 116.453 136.142 116.051C136.133 115.696 136.669 115.562 136.861 115.83Z" fill="#E5361D"/>
<path d="M134.36 108.778C134.724 109.238 134.877 109.87 135.088 110.416C135.26 110.867 135.605 111.403 135.433 111.882C135.385 112.007 135.222 112.093 135.098 112.036C134.628 111.806 134.513 111.231 134.312 110.771C134.082 110.244 133.737 109.669 133.679 109.094C133.641 108.73 134.111 108.452 134.36 108.778Z" fill="#E5361D"/>
<path d="M131.897 102.444C132.28 102.865 132.491 103.469 132.673 104.006C132.817 104.437 133.057 105.05 132.827 105.472C132.779 105.558 132.654 105.635 132.558 105.549C132.223 105.242 132.175 104.715 132.022 104.303C131.84 103.776 131.523 103.306 131.341 102.789C131.236 102.453 131.638 102.166 131.897 102.444Z" fill="#E5361D"/>
<path d="M129.703 97.0681C129.962 97.3556 130.048 97.7772 130.182 98.1318C130.316 98.4959 130.489 98.86 130.546 99.2529C130.594 99.617 130.086 99.9236 129.847 99.5787C129.617 99.2337 129.483 98.8409 129.329 98.4576C129.176 98.0839 128.975 97.7197 128.975 97.3077C128.965 96.9148 129.483 96.8286 129.703 97.0681Z" fill="#E5361D"/>
<path d="M127.585 92.0088C127.901 92.3154 128.035 92.7658 128.198 93.1587C128.361 93.5515 128.591 93.9636 128.658 94.3852C128.716 94.7589 128.217 95.0176 127.968 94.7014C127.681 94.3469 127.528 93.8773 127.336 93.4653C127.144 93.0533 126.933 92.67 126.924 92.2004C126.924 91.8555 127.384 91.8171 127.585 92.0088Z" fill="#E5361D"/>
<path d="M105.383 61.6614C105.086 61.4219 104.904 61.1344 104.703 60.8182C104.502 60.502 104.262 60.1858 104.128 59.8312C103.965 59.3808 104.473 59.0742 104.808 59.3904C105.086 59.6491 105.278 60.0037 105.498 60.3103C105.719 60.6265 105.891 60.9044 106.006 61.2685C106.102 61.5943 105.642 61.8626 105.383 61.6614Z" fill="#E5361D"/>
<path d="M109.475 67.6315C109.024 67.2961 108.718 66.7404 108.392 66.2804C108.114 65.8971 107.664 65.4851 107.702 64.9868C107.712 64.8622 107.846 64.7377 107.98 64.7568C108.478 64.8527 108.727 65.3605 109.024 65.7438C109.369 66.175 109.839 66.635 110.031 67.1524C110.155 67.4974 109.791 67.8711 109.475 67.6315Z" fill="#E5361D"/>
<path d="M113.356 72.9398C112.896 72.6427 112.541 72.1253 112.244 71.6749C112.005 71.3108 111.631 70.7934 111.736 70.343C111.755 70.2472 111.851 70.1514 111.957 70.1993C112.34 70.4005 112.522 70.8796 112.762 71.2341C113.068 71.6749 113.471 72.0391 113.768 72.4798C113.959 72.7769 113.662 73.141 113.356 72.9398Z" fill="#E5361D"/>
<path d="M116.738 77.4242C116.431 77.223 116.24 76.8493 116.029 76.5426C115.818 76.236 115.559 75.939 115.416 75.5844C115.282 75.2586 115.674 74.837 115.981 75.1053C116.288 75.364 116.508 75.709 116.748 76.0252C116.987 76.3414 117.265 76.6289 117.37 77.0122C117.457 77.3955 116.997 77.5967 116.738 77.4242Z" fill="#E5361D"/>
<path d="M119.967 81.6312C119.594 81.43 119.364 81.0371 119.105 80.7113C118.856 80.3855 118.54 80.0597 118.377 79.6764C118.223 79.3411 118.626 78.9769 118.933 79.2069C119.287 79.4656 119.546 79.8681 119.833 80.2035C120.111 80.5484 120.399 80.8455 120.523 81.2863C120.619 81.6121 120.197 81.7654 119.967 81.6312Z" fill="#E5361D"/>
<path d="M95.4752 47.8535C95.0248 47.5469 94.6798 47.0199 94.3924 46.5599C94.1624 46.1862 93.7983 45.6688 93.9133 45.2184C93.9324 45.1226 94.0378 45.0268 94.1432 45.0843C94.5265 45.2951 94.6894 45.7742 94.929 46.1383C95.2164 46.5887 95.6189 46.9624 95.9064 47.4127C96.0884 47.7002 95.7818 48.0643 95.4752 47.8535Z" fill="#E5361D"/>
<path d="M98.7426 52.4339C98.436 52.2231 98.254 51.8398 98.0527 51.5331C97.8419 51.2169 97.6024 50.9103 97.4586 50.5653C97.3245 50.2395 97.7365 49.8275 98.0336 50.1054C98.3306 50.3737 98.5414 50.7186 98.7714 51.0444C99.0014 51.3702 99.2697 51.6577 99.3655 52.0506C99.4613 52.4147 99.0014 52.6063 98.7426 52.4339Z" fill="#E5361D"/>
<path d="M101.857 56.7173C101.493 56.5065 101.272 56.1136 101.023 55.7686C100.774 55.4333 100.477 55.0979 100.314 54.7146C100.171 54.3696 100.583 54.0247 100.88 54.2546C101.225 54.5229 101.483 54.9254 101.752 55.2799C102.02 55.6249 102.307 55.9411 102.422 56.3723C102.518 56.7173 102.097 56.8514 101.857 56.7173Z" fill="#E5361D"/>
<path d="M81.8491 21.7898C81.6479 21.5023 81.5617 21.2053 81.4658 20.8603C81.37 20.5249 81.2359 20.18 81.2071 19.8254C81.1784 19.3846 81.715 19.2409 81.9258 19.6146C82.1079 19.9117 82.1845 20.2854 82.2995 20.6112C82.4145 20.9466 82.5007 21.2436 82.5007 21.5981C82.5007 21.9144 82.0216 22.0389 81.8491 21.7898Z" fill="#E5361D"/>
<path d="M83.938 28.1716C83.6218 27.7595 83.4973 27.175 83.3248 26.6863C83.181 26.2743 82.884 25.7952 83.0469 25.3544C83.0852 25.2394 83.2385 25.1627 83.3535 25.2202C83.7751 25.4406 83.8614 25.9485 84.0243 26.3701C84.2159 26.8492 84.513 27.3762 84.5609 27.8937C84.5896 28.2291 84.1584 28.4686 83.938 28.1716Z" fill="#E5361D"/>
<path d="M86.0173 33.9113C85.6819 33.528 85.4999 32.9722 85.3561 32.4931C85.2316 32.1098 85.0399 31.554 85.2507 31.1708C85.2987 31.0941 85.4041 31.027 85.4903 31.1037C85.7873 31.3816 85.8161 31.8607 85.9407 32.2344C86.094 32.7039 86.3623 33.1351 86.5156 33.6046C86.6114 33.9209 86.2377 34.17 86.0173 33.9113Z" fill="#E5361D"/>
<path d="M78.3229 11.8434C78.1025 11.5751 78.045 11.1918 77.9396 10.866C77.8342 10.5307 77.7 10.1953 77.6617 9.85032C77.6329 9.52453 78.1025 9.26581 78.3037 9.5916C78.4954 9.90782 78.6008 10.2719 78.7157 10.6265C78.8403 10.9714 79.0032 11.3068 78.984 11.6805C78.9745 12.0159 78.5049 12.0638 78.3229 11.8434Z" fill="#E5361D"/>
<path d="M79.99 16.4715C79.7217 16.184 79.6258 15.7719 79.4917 15.4078C79.3575 15.0437 79.1755 14.67 79.1371 14.2867C79.0988 13.9417 79.5588 13.7405 79.7696 14.028C80.0091 14.3634 80.1337 14.785 80.2774 15.1683C80.4308 15.5516 80.5937 15.8965 80.5841 16.3181C80.5745 16.6439 80.1624 16.6535 79.99 16.4715Z" fill="#E5361D"/>
</g>
<defs>
<clipPath id="clip0_1716_19015">
<rect width="193.61" height="320" fill="white" transform="matrix(-1 0 0 1 194 0)"/>
</clipPath>
</defs>
</svg>
