<svg width="60" height="60" viewBox="0 0 60 60" fill="none" xmlns="http://www.w3.org/2000/svg">
<g id="beach">
<path id="Vector" d="M51.0938 51.9141H8.90625C8.68873 51.914 8.48015 51.8275 8.32634 51.6737C8.17253 51.5199 8.08606 51.3113 8.08594 51.0938V48.1641C8.08596 47.9634 8.1595 47.7696 8.29266 47.6194C8.39812 47.5008 10.9247 44.7052 16.0364 43.2502C16.4714 43.1237 16.9167 43.0116 17.3555 42.9183C19.2417 42.5127 21.1702 42.3383 23.0986 42.399C24.1654 42.4306 25.2296 42.5225 26.2861 42.6741L26.5898 42.7177C27.2231 42.8091 27.8142 42.8944 28.3636 42.9802C28.7517 43.0374 29.1277 43.0955 29.4825 43.1504L29.6231 43.1724C32.9217 43.6946 34.5806 44.0654 36.1856 44.4244C37.6012 44.7408 38.9381 45.0399 41.317 45.413C41.8116 45.4922 42.3548 45.5762 42.9492 45.6596C45.5902 46.0399 48.2848 45.6416 50.7028 44.5135C50.8278 44.4461 50.9681 44.4122 51.1101 44.4152C51.2521 44.4182 51.3908 44.4579 51.5129 44.5305C51.6349 44.6032 51.736 44.7062 51.8063 44.8296C51.8766 44.9529 51.9137 45.0924 51.9141 45.2344V51.0938C51.9139 51.3113 51.8275 51.5199 51.6737 51.6737C51.5199 51.8275 51.3113 51.914 51.0938 51.9141ZM9.72656 50.2735H50.2734V46.4846C47.8594 47.3696 45.264 47.6444 42.7181 47.2843C42.1144 47.199 41.5608 47.1137 41.0592 47.0335C38.6316 46.6524 37.2694 46.3477 35.8275 46.0257C34.2478 45.6723 32.6147 45.3071 29.37 44.7933L29.2294 44.7718C28.8783 44.7174 28.5056 44.6597 28.1156 44.6021C27.5658 44.5168 26.9803 44.4324 26.3531 44.3415L26.0531 44.2969C25.0588 44.1545 24.0572 44.0681 23.0531 44.0382C21.2569 43.9805 19.4603 44.1425 17.7033 44.5205C17.2973 44.6072 16.8909 44.708 16.4902 44.8257C13.976 45.4961 11.6576 46.7553 9.72656 48.4993V50.2735Z" fill="#FF725E"/>
<path id="Vector_2" d="M16.2607 44.8593C16.153 44.8594 16.0463 44.8382 15.9468 44.797C15.8472 44.7558 15.7567 44.6954 15.6806 44.6192C15.6044 44.543 15.544 44.4525 15.5027 44.353C15.4615 44.2534 15.4404 44.1467 15.4404 44.039V42.5296C15.5262 40.1163 15.8021 37.7136 16.2654 35.3437C17.2172 30.8922 18.7177 26.5761 20.7326 22.4943C20.786 22.3916 20.8602 22.3012 20.9506 22.229L23.0464 20.5654C23.14 20.491 23.2489 20.438 23.3652 20.4101C23.4815 20.3822 23.6025 20.3801 23.7198 20.4039C23.837 20.4277 23.9476 20.4768 24.0438 20.5479C24.1401 20.6189 24.2196 20.7102 24.2768 20.8152L25.5565 23.1637C25.6146 23.2707 25.6482 23.3893 25.6549 23.5109C25.6615 23.6325 25.6411 23.7541 25.595 23.8668C25.5846 23.8921 24.4395 26.8152 23.7837 35.076C23.5517 37.7539 23.5882 40.4482 23.8925 43.1188C23.9069 43.2359 23.8958 43.3548 23.8601 43.4673C23.8243 43.5797 23.7647 43.6831 23.6853 43.7704C23.6069 43.8591 23.5098 43.9292 23.401 43.9756C23.2922 44.0221 23.1744 44.0437 23.0562 44.039C21.2595 43.9819 19.4625 44.1439 17.705 44.5213C17.299 44.608 16.8926 44.7088 16.4918 44.8265C16.4168 44.8484 16.3389 44.8595 16.2607 44.8593ZM22.1103 23.4004C20.2142 27.3077 18.791 31.4273 17.8709 35.6718C17.4273 37.9454 17.1629 40.2503 17.0801 42.5652V42.9782C17.1739 42.9571 17.2639 42.937 17.3548 42.9177C18.9342 42.5755 20.5449 42.3986 22.1609 42.3899C21.9416 39.9136 21.9366 37.4229 22.1459 34.9457C22.7009 27.9534 23.599 24.6712 23.9384 23.6259L23.3004 22.454L22.1103 23.4004Z" fill="#FF725E"/>
<g id="Group">
<path id="Vector_3" d="M38.2361 25.0111C38.1808 25.011 38.1257 25.0054 38.0716 24.9943L23.3913 22.0093C23.2857 21.9878 23.1853 21.9458 23.096 21.8856C23.0066 21.8254 22.93 21.7481 22.8705 21.6583C22.8111 21.5684 22.7699 21.4677 22.7494 21.3619C22.7289 21.2561 22.7294 21.1473 22.7509 21.0418C22.8736 20.5021 23.1031 19.9925 23.426 19.543C23.7488 19.0936 24.1584 18.7133 24.6306 18.4247C24.6484 18.4107 24.6667 18.3975 24.6859 18.3849C25.2783 18.0057 25.9249 17.719 26.6036 17.5346C26.628 17.5252 26.6505 17.5172 26.6772 17.5102C28.4094 17.0711 30.2199 17.039 31.9666 17.4165C33.939 17.7785 35.7769 18.6669 37.2859 19.9875C38.7175 21.3179 39.3395 22.869 39.0372 24.3558C38.9992 24.5404 38.8988 24.7063 38.753 24.8257C38.6071 24.945 38.4246 25.0105 38.2361 25.0111ZM24.6925 20.5993L37.4284 23.1896C37.2282 22.4076 36.7886 21.7076 36.1713 21.1875C34.8833 20.0718 33.3184 19.3238 31.6413 19.0224C30.1721 18.7031 28.6497 18.7203 27.1881 19.0725C27.1642 19.0815 27.1413 19.0894 27.1141 19.0965C26.5935 19.2313 26.0959 19.4431 25.638 19.725C25.6197 19.7391 25.6009 19.7522 25.5817 19.7649C25.2335 19.982 24.9313 20.2655 24.6925 20.5993Z" fill="#6A797C"/>
<path id="Vector_4" d="M25.1372 19.8916C25.0115 19.8917 24.8874 19.8628 24.7746 19.8073C24.6618 19.7518 24.5633 19.671 24.4867 19.5714C24.4101 19.4717 24.3574 19.3557 24.3328 19.2324C24.3081 19.1091 24.3122 18.9818 24.3446 18.8603C24.615 17.5903 24.5234 16.2699 24.0802 15.0494C24.0368 14.9158 24.0284 14.7732 24.0558 14.6354C24.0832 14.4976 24.1455 14.3692 24.2368 14.2624C24.5926 13.8492 24.9784 13.4627 25.3908 13.1059C28.5727 10.345 32.4797 9.80641 34.2858 11.882C34.3566 11.9633 34.4107 12.0578 34.4449 12.16C34.4792 12.2622 34.493 12.3701 34.4855 12.4777C34.478 12.5852 34.4494 12.6902 34.4013 12.7866C34.3532 12.8831 34.2866 12.9692 34.2052 13.0399L27.4693 18.8908C27.3695 18.989 27.2462 19.06 27.1111 19.097C26.5709 19.2364 26.0558 19.4594 25.5844 19.758C25.4515 19.845 25.2961 19.8914 25.1372 19.8916ZM25.779 15.0002C26.0276 15.8713 26.1499 16.7736 26.1422 17.6795C26.2566 17.6399 26.373 17.6024 26.4915 17.567L32.3611 12.4689C30.9394 11.8638 28.4879 12.5908 26.4661 14.3439C26.221 14.5581 25.9908 14.778 25.779 15.0002Z" fill="#6A797C"/>
<path id="Vector_5" d="M29.9648 33.7866C29.8174 33.7866 29.6727 33.747 29.5459 33.6717C29.4191 33.5965 29.3149 33.4885 29.2443 33.3591L22.836 21.5981C22.7614 21.461 22.7275 21.3053 22.7383 21.1496C22.749 20.9938 22.804 20.8443 22.8967 20.7187C22.9894 20.593 23.116 20.4964 23.2617 20.4403C23.4074 20.3841 23.5661 20.3706 23.7192 20.4014L27.9848 21.2686C28.1086 21.2939 28.2249 21.3475 28.3246 21.4252C29.4551 22.3302 30.3898 23.4557 31.072 24.7331C33.0876 28.4363 32.7754 32.3681 30.359 33.6863C30.2381 33.7523 30.1025 33.7868 29.9648 33.7866ZM25.1203 22.3594L30.1987 31.6809C31.0968 30.4238 30.9117 27.8714 29.6306 25.5188C29.0843 24.4956 28.3486 23.5855 27.4626 22.837L25.1203 22.3594Z" fill="#6A797C"/>
<path id="Vector_6" d="M23.5574 22.0262C23.5021 22.0261 23.447 22.0204 23.3928 22.0093L8.71441 19.0238C8.60886 19.0024 8.50855 18.9604 8.41924 18.9002C8.32993 18.84 8.25335 18.7628 8.19389 18.673C8.13442 18.5832 8.09324 18.4825 8.07268 18.3768C8.05213 18.2711 8.05261 18.1623 8.0741 18.0568C8.67691 15.0943 12.7283 13.5024 17.2939 14.4301C19.0502 14.7655 20.7043 15.505 22.1253 16.5901C22.7036 17.0357 23.2073 17.5705 23.6174 18.1745C23.9513 18.6287 24.1893 19.1462 24.3169 19.6954C24.4444 20.2446 24.4589 20.814 24.3594 21.369C24.3218 21.5541 24.2214 21.7205 24.0753 21.8403C23.9292 21.96 23.7463 22.0257 23.5574 22.0262ZM10.0105 17.6134L22.7478 20.2032C22.6585 19.8029 22.4914 19.424 22.2561 19.0881C21.9399 18.6248 21.5517 18.2149 21.1063 17.874C19.8883 16.9494 18.4719 16.3208 16.9691 16.0379C13.9124 15.4173 11.0122 16.1293 10.01 17.6134H10.0105Z" fill="#6A797C"/>
<path id="Vector_7" d="M23.5576 22.0262C23.4358 22.0266 23.3154 21.9998 23.2052 21.9478C23.0951 21.8958 22.9979 21.8199 22.9208 21.7256C22.8437 21.6313 22.7886 21.521 22.7595 21.4027C22.7304 21.2844 22.7281 21.1611 22.7527 21.0418C22.803 20.6996 22.7851 20.3509 22.6999 20.0157C22.6147 19.6806 22.4639 19.3656 22.2563 19.089C21.9402 18.6256 21.552 18.2157 21.1065 17.8749C21.0094 17.7985 20.9308 17.701 20.8768 17.5899L16.9435 9.52741C16.8962 9.43056 16.8685 9.32534 16.8619 9.21776C16.8553 9.11018 16.87 9.00235 16.905 8.90045C16.9401 8.79854 16.9949 8.70454 17.0664 8.62383C17.1378 8.54312 17.2244 8.47728 17.3213 8.43007C19.7945 7.22538 23.1807 9.2471 25.0313 13.0313C25.2715 13.5208 25.4751 14.0273 25.6407 14.5468C26.1806 16.0663 26.2801 17.7075 25.9276 19.2812C25.8752 19.4798 25.7509 19.6518 25.5788 19.764C25.2799 19.9377 25.0182 20.1688 24.8091 20.4441C24.5999 20.7194 24.4473 21.0334 24.3601 21.368C24.3226 21.5534 24.2223 21.7201 24.0761 21.84C23.9298 21.96 23.7467 22.0257 23.5576 22.0262ZM22.2709 16.7063C22.7901 17.1265 23.2442 17.6212 23.6185 18.1744C23.7738 18.4017 23.9108 18.6409 24.0282 18.8898C24.1473 18.7829 24.2735 18.6802 24.407 18.5818C24.5928 17.3953 24.4801 16.1812 24.0788 15.0493C23.9368 14.605 23.7621 14.1718 23.5562 13.7532C22.3815 11.3508 20.4104 9.72194 18.8663 9.72194H18.8621L22.2709 16.7063Z" fill="#6A797C"/>
<path id="Vector_8" d="M13.0631 30.3498C13.0318 30.3498 13.0005 30.3479 12.9694 30.3442C12.7533 30.3192 12.5561 30.2094 12.4209 30.0391C10.7114 27.8828 11.9587 24.1389 15.2601 21.5191C16.3875 20.6094 17.6879 19.938 19.0823 19.5456C19.2048 19.5132 19.3331 19.5093 19.4573 19.5344L23.723 20.4015C23.8761 20.4327 24.0171 20.507 24.1294 20.6156C24.2417 20.7242 24.3207 20.8626 24.357 21.0146C24.3934 21.1665 24.3856 21.3257 24.3345 21.4734C24.2835 21.621 24.1913 21.751 24.0689 21.8481L13.5731 30.1722C13.4279 30.2871 13.2483 30.3497 13.0631 30.3498ZM19.3233 21.1816C18.214 21.5249 17.1801 22.0757 16.2764 22.8048C14.1792 24.4694 13.0125 26.7466 13.3481 28.2545L21.6651 21.6564L19.3233 21.1816Z" fill="#6A797C"/>
</g>
<path id="Vector_9" d="M47.1561 17.6053C46.2147 17.6057 45.2944 17.3269 44.5114 16.8042C43.7285 16.2815 43.1182 15.5384 42.7576 14.6688C42.397 13.7992 42.3023 12.8423 42.4856 11.9189C42.6689 10.9955 43.1219 10.1473 43.7873 9.48135C44.4527 8.81543 45.3006 8.36178 46.2238 8.17776C47.147 7.99374 48.1041 8.08763 48.9739 8.44753C49.8438 8.80744 50.5874 9.41721 51.1107 10.1997C51.634 10.9822 51.9135 11.9024 51.9139 12.8438C51.9128 14.1056 51.4113 15.3155 50.5194 16.2081C49.6275 17.1007 48.4179 17.6032 47.1561 17.6053ZM47.1561 9.72656C46.539 9.72619 45.9357 9.90885 45.4225 10.2514C44.9093 10.594 44.5092 11.0811 44.2729 11.6511C44.0366 12.2212 43.9747 12.8485 44.095 13.4537C44.2153 14.0589 44.5124 14.6148 44.9487 15.0511C45.385 15.4875 45.941 15.7846 46.5462 15.9048C47.1514 16.0251 47.7787 15.9632 48.3487 15.7269C48.9187 15.4906 49.4058 15.0905 49.7484 14.5773C50.091 14.0641 50.2737 13.4608 50.2733 12.8438C50.2718 12.0175 49.9429 11.2255 49.3586 10.6412C48.7744 10.0569 47.9824 9.72805 47.1561 9.72656Z" fill="#FF725E"/>
</g>
</svg>
