<svg width="60" height="60" viewBox="0 0 60 60" fill="none" xmlns="http://www.w3.org/2000/svg">
<g id="bonus">
<g id="Group">
<path id="Vector" d="M20.25 16.2188H27.2301C27.372 16.2183 27.5113 16.1812 27.6346 16.1108C27.7578 16.0405 27.8607 15.9395 27.9332 15.8176L33.2672 6.8438C33.3604 6.68711 33.3987 6.50379 33.3761 6.32286C33.3534 6.14193 33.271 5.97373 33.142 5.84489C30.5625 3.26536 27.6689 2.93068 24.5479 4.85255C24.3046 5.00106 24.0251 5.07964 23.74 5.07964C23.455 5.07964 23.1755 5.00106 22.9322 4.85255C19.8112 2.93068 16.92 3.26583 14.3381 5.84677C14.2091 5.97561 14.1267 6.14381 14.104 6.32473C14.0813 6.50566 14.1197 6.68899 14.2129 6.84568L19.5468 15.8166C19.6193 15.9387 19.7221 16.0399 19.8454 16.1104C19.9686 16.1809 20.108 16.2183 20.25 16.2188ZM22.0715 6.25083C22.5743 6.55689 23.1515 6.71878 23.74 6.71878C24.3286 6.71878 24.9058 6.55689 25.4086 6.25083C27.7106 4.83193 29.6179 4.92568 31.5197 6.57614L26.7656 14.5782H20.7187L15.9604 6.57521C17.8593 4.92521 19.7686 4.83146 22.0715 6.24989V6.25083Z" fill="#FF725E"/>
<path id="Vector_2" d="M29.2584 49.3928C29.4759 49.3928 29.6846 49.3064 29.8384 49.1526C29.9922 48.9987 30.0787 48.7901 30.0787 48.5725C30.0787 48.3549 29.9922 48.1463 29.8384 47.9925C29.6846 47.8386 29.4759 47.7522 29.2584 47.7522H24.4434C24.2258 47.7522 24.0171 47.8386 23.8633 47.9925C23.7095 48.1463 23.623 48.3549 23.623 48.5725C23.623 48.7901 23.7095 48.9987 23.8633 49.1526C24.0171 49.3064 24.2258 49.3928 24.4434 49.3928H29.2584Z" fill="#FF725E"/>
<path id="Vector_3" d="M6.19944 44.0467C6.77955 43.5802 7.24965 42.9915 7.57625 42.3226C7.90285 41.6537 8.07791 40.921 8.08897 40.1767V30.3423C8.09282 27.4668 9.23725 24.7103 11.2711 22.6776C13.305 20.645 16.0622 19.5022 18.9377 19.5001H28.5471C31.1114 19.5014 33.5925 20.4108 35.5502 22.067C35.717 22.2009 35.9295 22.2643 36.1424 22.2438C36.3553 22.2233 36.5518 22.1204 36.69 21.9571C36.8281 21.7939 36.897 21.5831 36.882 21.3697C36.867 21.1563 36.7693 20.9573 36.6096 20.8149C34.3552 18.9093 31.499 17.8631 28.5471 17.8618H18.9377C15.6276 17.8643 12.4537 19.1797 10.1123 21.5195C7.77087 23.8592 6.45319 27.0322 6.44835 30.3423V40.1767C6.43692 40.6798 6.31482 41.1742 6.09073 41.6248C5.86665 42.0754 5.54607 42.4711 5.15178 42.7838C3.73194 43.9585 3.16053 45.6788 3.69866 47.1676C4.19975 48.5607 5.53569 49.3928 7.27053 49.3928H10.7665C10.984 49.3928 11.1927 49.3063 11.3465 49.1525C11.5004 48.9986 11.5868 48.79 11.5868 48.5724C11.5868 48.3549 11.5004 48.1462 11.3465 47.9924C11.1927 47.8386 10.984 47.7521 10.7665 47.7521H7.26866C6.24069 47.7521 5.501 47.3363 5.24038 46.6117C4.94178 45.7824 5.31772 44.776 6.19944 44.0467Z" fill="#FF725E"/>
<path id="Vector_4" d="M27.277 19.5C27.9297 19.5 28.5557 19.2407 29.0172 18.7792C29.4787 18.3177 29.738 17.6917 29.738 17.0391C29.738 16.3864 29.4787 15.7604 29.0172 15.2989C28.5557 14.8374 27.9297 14.5781 27.277 14.5781H20.2031C19.5504 14.5781 18.9245 14.8374 18.463 15.2989C18.0015 15.7604 17.7422 16.3864 17.7422 17.0391C17.7422 17.6917 18.0015 18.3177 18.463 18.7792C18.9245 19.2407 19.5504 19.5 20.2031 19.5H27.277ZM19.3828 17.0381C19.3833 16.8208 19.4699 16.6125 19.6237 16.459C19.7774 16.3054 19.9858 16.219 20.2031 16.2187H27.277C27.4946 16.2187 27.7032 16.3052 27.8571 16.459C28.0109 16.6129 28.0973 16.8215 28.0973 17.0391C28.0973 17.2566 28.0109 17.4653 27.8571 17.6191C27.7032 17.7729 27.4946 17.8594 27.277 17.8594H20.2031C19.9855 17.8591 19.7768 17.7725 19.623 17.6185C19.4692 17.4645 19.3828 17.2558 19.3828 17.0381Z" fill="#FF725E"/>
<path id="Vector_5" d="M20.0225 23.8594C20.0225 21.457 21.6903 19.5 23.7406 19.5C25.7909 19.5 27.4582 21.4547 27.4582 23.8594C27.4582 24.0769 27.5447 24.2856 27.6985 24.4394C27.8523 24.5933 28.061 24.6797 28.2786 24.6797C28.4961 24.6797 28.7048 24.5933 28.8586 24.4394C29.0124 24.2856 29.0989 24.0769 29.0989 23.8594C29.0989 20.5523 26.6951 17.8594 23.7406 17.8594C20.7861 17.8594 18.3818 20.55 18.3818 23.8594C18.3818 24.0769 18.4683 24.2856 18.6221 24.4394C18.7759 24.5933 18.9846 24.6797 19.2021 24.6797C19.4197 24.6797 19.6284 24.5933 19.7822 24.4394C19.936 24.2856 20.0225 24.0769 20.0225 23.8594Z" fill="#FF725E"/>
<g id="Group_2">
<path id="Vector_6" d="M25.266 32.4526C25.266 30.9377 24.8168 29.4568 23.9752 28.1972C23.1336 26.9376 21.9374 25.9558 20.5379 25.376C19.1383 24.7962 17.5983 24.6444 16.1125 24.9398C14.6267 25.2352 13.2618 25.9645 12.1905 27.0356C11.1191 28.1066 10.3895 29.4713 10.0937 30.9571C9.79793 32.4428 9.94936 33.9829 10.5288 35.3826C11.1083 36.7823 12.0898 37.9787 13.3492 38.8206C14.6086 39.6625 16.0894 40.112 17.6043 40.1124C19.6354 40.1106 21.5828 39.303 23.0192 37.867C24.4556 36.4309 25.2636 34.4837 25.266 32.4526ZM11.5869 32.4526C11.5869 31.262 11.94 30.0982 12.6015 29.1083C13.263 28.1184 14.2031 27.3469 15.3031 26.8914C16.4031 26.4358 17.6135 26.3167 18.7811 26.5491C19.9488 26.7816 21.0213 27.355 21.863 28.197C22.7048 29.039 23.2779 30.1117 23.5099 31.2794C23.742 32.4472 23.6225 33.6575 23.1666 34.7573C22.7108 35.8572 21.939 36.7971 20.9489 37.4583C19.9588 38.1195 18.7948 38.4722 17.6043 38.4718C16.0084 38.4699 14.4785 37.8352 13.3501 36.7067C12.2217 35.5783 11.5869 34.0484 11.585 32.4526H11.5869Z" fill="#6A797C"/>
<path id="Vector_7" d="M20.3444 32.4526C20.3444 32.6701 20.4308 32.8788 20.5847 33.0326C20.7385 33.1865 20.9472 33.2729 21.1647 33.2729C21.3823 33.2729 21.5909 33.1865 21.7448 33.0326C21.8986 32.8788 21.985 32.6701 21.985 32.4526C21.9837 31.2917 21.5219 30.1788 20.7011 29.3579C19.8802 28.5371 18.7673 28.0753 17.6064 28.074C17.3889 28.074 17.1802 28.1604 17.0264 28.3142C16.8726 28.4681 16.7861 28.6767 16.7861 28.8943C16.7861 29.1118 16.8726 29.3205 17.0264 29.4743C17.1802 29.6282 17.3889 29.7146 17.6064 29.7146C18.3323 29.7155 19.0282 30.0042 19.5415 30.5175C20.0548 31.0308 20.3435 31.7267 20.3444 32.4526Z" fill="#6A797C"/>
<path id="Vector_8" d="M23.0375 45.5353C23.6278 45.5345 24.1937 45.2997 24.6111 44.8823C25.0285 44.4649 25.2633 43.899 25.264 43.3087V40.6982C25.2633 40.1079 25.0285 39.542 24.6111 39.1246C24.1937 38.7072 23.6278 38.4724 23.0375 38.4717H12.1709C11.5806 38.4724 11.0147 38.7072 10.5973 39.1246C10.1799 39.542 9.94508 40.1079 9.94434 40.6982V43.3087C9.94508 43.899 10.1799 44.4649 10.5973 44.8823C11.0147 45.2997 11.5806 45.5345 12.1709 45.5353H23.0375ZM11.585 43.3087V40.6982C11.585 40.5428 11.6467 40.3938 11.7566 40.2839C11.8665 40.174 12.0155 40.1123 12.1709 40.1123H23.0375C23.1928 40.1124 23.3418 40.1742 23.4516 40.2841C23.5615 40.3939 23.6233 40.5429 23.6234 40.6982V43.3087C23.6231 43.464 23.5613 43.6129 23.4515 43.7228C23.3417 43.8326 23.1928 43.8944 23.0375 43.8946H12.1709C12.0155 43.8945 11.8666 43.8328 11.7567 43.7229C11.6469 43.613 11.5851 43.4641 11.585 43.3087Z" fill="#6A797C"/>
<path id="Vector_9" d="M14.9092 41.2425V39.292C14.9092 39.0744 14.8228 38.8658 14.6689 38.7119C14.5151 38.5581 14.3064 38.4717 14.0889 38.4717C13.8713 38.4717 13.6627 38.5581 13.5088 38.7119C13.355 38.8658 13.2686 39.0744 13.2686 39.292V41.2425C13.2686 41.46 13.355 41.6687 13.5088 41.8225C13.6627 41.9763 13.8713 42.0628 14.0889 42.0628C14.3064 42.0628 14.5151 41.9763 14.6689 41.8225C14.8228 41.6687 14.9092 41.46 14.9092 41.2425Z" fill="#6A797C"/>
<path id="Vector_10" d="M18.4248 41.2425V39.292C18.4248 39.0744 18.3384 38.8658 18.1845 38.7119C18.0307 38.5581 17.8221 38.4717 17.6045 38.4717C17.3869 38.4717 17.1783 38.5581 17.0244 38.7119C16.8706 38.8658 16.7842 39.0744 16.7842 39.292V41.2425C16.7842 41.46 16.8706 41.6687 17.0244 41.8225C17.1783 41.9763 17.3869 42.0628 17.6045 42.0628C17.8221 42.0628 18.0307 41.9763 18.1845 41.8225C18.3384 41.6687 18.4248 41.46 18.4248 41.2425Z" fill="#6A797C"/>
<path id="Vector_11" d="M21.9404 41.2425V39.292C21.9404 39.0744 21.854 38.8658 21.7002 38.7119C21.5463 38.5581 21.3377 38.4717 21.1201 38.4717C20.9026 38.4717 20.6939 38.5581 20.5401 38.7119C20.3862 38.8658 20.2998 39.0744 20.2998 39.292V41.2425C20.2998 41.46 20.3862 41.6687 20.5401 41.8225C20.6939 41.9763 20.9026 42.0628 21.1201 42.0628C21.3377 42.0628 21.5463 41.9763 21.7002 41.8225C21.854 41.6687 21.9404 41.46 21.9404 41.2425Z" fill="#6A797C"/>
<path id="Vector_12" d="M23.0375 50.9584C23.6278 50.9576 24.1937 50.7228 24.6111 50.3054C25.0285 49.888 25.2633 49.3221 25.264 48.7318V46.1213C25.2634 45.531 25.0286 44.965 24.6112 44.5476C24.1938 44.1302 23.6278 43.8954 23.0375 43.8948H12.1709C11.5806 43.8954 11.0146 44.1302 10.5972 44.5476C10.1797 44.965 9.94496 45.531 9.94434 46.1213V48.7318C9.94508 49.3221 10.1799 49.888 10.5973 50.3054C11.0147 50.7228 11.5806 50.9576 12.1709 50.9584H23.0375ZM11.585 48.7318V46.1213C11.585 45.9659 11.6467 45.8169 11.7566 45.707C11.8665 45.5971 12.0155 45.5354 12.1709 45.5354H23.0375C23.1928 45.5355 23.3418 45.5973 23.4516 45.7072C23.5615 45.817 23.6233 45.966 23.6234 46.1213V48.7318C23.6231 48.8871 23.5613 49.036 23.4515 49.1459C23.3417 49.2557 23.1928 49.3175 23.0375 49.3177H12.1709C12.0155 49.3176 11.8666 49.2558 11.7567 49.146C11.6469 49.0361 11.5851 48.8872 11.585 48.7318Z" fill="#6A797C"/>
<path id="Vector_13" d="M14.9092 46.6656V44.7151C14.9092 44.4975 14.8228 44.2889 14.6689 44.135C14.5151 43.9812 14.3064 43.8948 14.0889 43.8948C13.8713 43.8948 13.6627 43.9812 13.5088 44.135C13.355 44.2889 13.2686 44.4975 13.2686 44.7151V46.6656C13.2686 46.8831 13.355 47.0918 13.5088 47.2456C13.6627 47.3994 13.8713 47.4859 14.0889 47.4859C14.3064 47.4859 14.5151 47.3994 14.6689 47.2456C14.8228 47.0918 14.9092 46.8831 14.9092 46.6656Z" fill="#6A797C"/>
<path id="Vector_14" d="M18.4248 46.6656V44.7151C18.4248 44.4975 18.3384 44.2889 18.1845 44.135C18.0307 43.9812 17.8221 43.8948 17.6045 43.8948C17.3869 43.8948 17.1783 43.9812 17.0244 44.135C16.8706 44.2889 16.7842 44.4975 16.7842 44.7151V46.6656C16.7842 46.8831 16.8706 47.0918 17.0244 47.2456C17.1783 47.3994 17.3869 47.4859 17.6045 47.4859C17.8221 47.4859 18.0307 47.3994 18.1845 47.2456C18.3384 47.0918 18.4248 46.8831 18.4248 46.6656Z" fill="#6A797C"/>
<path id="Vector_15" d="M21.9404 46.6656V44.7151C21.9404 44.4975 21.854 44.2889 21.7002 44.135C21.5463 43.9812 21.3377 43.8948 21.1201 43.8948C20.9026 43.8948 20.6939 43.9812 20.5401 44.135C20.3862 44.2889 20.2998 44.4975 20.2998 44.7151V46.6656C20.2998 46.8831 20.3862 47.0918 20.5401 47.2456C20.6939 47.3994 20.9026 47.4859 21.1201 47.4859C21.3377 47.4859 21.5463 47.3994 21.7002 47.2456C21.854 47.0918 21.9404 46.8831 21.9404 46.6656Z" fill="#6A797C"/>
<path id="Vector_16" d="M23.0375 56.3812C23.6278 56.3805 24.1937 56.1457 24.6111 55.7283C25.0285 55.3109 25.2633 54.745 25.264 54.1547V51.5442C25.2633 50.9539 25.0285 50.388 24.6111 49.9706C24.1937 49.5532 23.6278 49.3184 23.0375 49.3176H12.1709C11.5806 49.3184 11.0147 49.5532 10.5973 49.9706C10.1799 50.388 9.94508 50.9539 9.94434 51.5442V54.1547C9.94508 54.745 10.1799 55.3109 10.5973 55.7283C11.0147 56.1457 11.5806 56.3805 12.1709 56.3812H23.0375ZM11.585 54.1547V51.5442C11.585 51.3888 11.6467 51.2398 11.7566 51.1299C11.8665 51.02 12.0155 50.9583 12.1709 50.9583H23.0375C23.1928 50.9584 23.3418 51.0201 23.4516 51.13C23.5615 51.2399 23.6233 51.3888 23.6234 51.5442V54.1547C23.6231 54.31 23.5613 54.4589 23.4515 54.5687C23.3417 54.6785 23.1928 54.7403 23.0375 54.7406H12.1709C12.0155 54.7405 11.8666 54.6787 11.7567 54.5688C11.6469 54.459 11.5851 54.31 11.585 54.1547Z" fill="#6A797C"/>
<path id="Vector_17" d="M14.9092 52.0884V50.1379C14.9092 49.9204 14.8228 49.7117 14.6689 49.5579C14.5151 49.4041 14.3064 49.3176 14.0889 49.3176C13.8713 49.3176 13.6627 49.4041 13.5088 49.5579C13.355 49.7117 13.2686 49.9204 13.2686 50.1379V52.0884C13.2686 52.306 13.355 52.5146 13.5088 52.6685C13.6627 52.8223 13.8713 52.9087 14.0889 52.9087C14.3064 52.9087 14.5151 52.8223 14.6689 52.6685C14.8228 52.5146 14.9092 52.306 14.9092 52.0884Z" fill="#6A797C"/>
<path id="Vector_18" d="M18.4248 52.0884V50.1379C18.4248 49.9204 18.3384 49.7117 18.1845 49.5579C18.0307 49.4041 17.8221 49.3176 17.6045 49.3176C17.3869 49.3176 17.1783 49.4041 17.0244 49.5579C16.8706 49.7117 16.7842 49.9204 16.7842 50.1379V52.0884C16.7842 52.306 16.8706 52.5146 17.0244 52.6685C17.1783 52.8223 17.3869 52.9087 17.6045 52.9087C17.8221 52.9087 18.0307 52.8223 18.1845 52.6685C18.3384 52.5146 18.4248 52.306 18.4248 52.0884Z" fill="#6A797C"/>
<path id="Vector_19" d="M21.9404 52.0884V50.1379C21.9404 49.9204 21.854 49.7117 21.7002 49.5579C21.5463 49.4041 21.3377 49.3176 21.1201 49.3176C20.9026 49.3176 20.6939 49.4041 20.5401 49.5579C20.3862 49.7117 20.2998 49.9204 20.2998 50.1379V52.0884C20.2998 52.306 20.3862 52.5146 20.5401 52.6685C20.6939 52.8223 20.9026 52.9087 21.1201 52.9087C21.3377 52.9087 21.5463 52.8223 21.7002 52.6685C21.854 52.5146 21.9404 52.306 21.9404 52.0884Z" fill="#6A797C"/>
</g>
<path id="Vector_20" d="M44.9212 31.6323H37.8473C32.6591 31.6323 28.4385 36.0447 28.4385 41.4681V49.0708C28.4328 49.4302 28.3505 49.7844 28.1969 50.1094C28.0433 50.4345 27.822 50.723 27.5479 50.9556C27.0135 51.3766 26.6213 51.9516 26.4244 52.6027C26.2275 53.2539 26.2353 53.9498 26.4468 54.5964C26.6673 55.1526 27.0581 55.6248 27.5633 55.9454C28.0685 56.2661 28.6621 56.4187 29.2593 56.3814H53.5101C54.1073 56.4188 54.701 56.2663 55.2062 55.9456C55.7114 55.625 56.1022 55.1527 56.3226 54.5964C56.5341 53.95 56.5421 53.2542 56.3453 52.6031C56.1486 51.952 55.7566 51.3771 55.2224 50.9561C54.9483 50.7234 54.727 50.4348 54.5734 50.1096C54.4198 49.7845 54.3374 49.4303 54.3318 49.0708V41.4681C54.3285 36.047 50.1098 31.6323 44.9212 31.6323ZM54.7851 54.0222C54.6772 54.2626 54.4952 54.4621 54.2656 54.5914C54.0361 54.7207 53.7711 54.7731 53.5096 54.7408H29.2588C28.9973 54.7731 28.7324 54.7207 28.5028 54.5914C28.2733 54.4621 28.0912 54.2626 27.9834 54.0222C27.8942 53.6883 27.9077 53.3352 28.0222 53.0091C28.1367 52.683 28.3468 52.399 28.6251 52.194C29.0759 51.8074 29.4387 51.3287 29.6893 50.7903C29.94 50.2519 30.0726 49.666 30.0782 49.0722V41.4681C30.0782 36.9494 33.5634 33.2729 37.8463 33.2729H44.9212C49.2046 33.2729 52.6893 36.9494 52.6893 41.4681V49.0708C52.6948 49.6647 52.8274 50.2505 53.078 50.7889C53.3287 51.3274 53.6916 51.806 54.1424 52.1926C54.4214 52.3974 54.632 52.6816 54.7466 53.008C54.8613 53.3345 54.8747 53.688 54.7851 54.0222Z" fill="#FF725E"/>
<path id="Vector_21" d="M37.8233 30.2644C37.8753 30.2644 37.9273 30.2595 37.9784 30.2498C38.0218 30.2411 38.0659 30.2364 38.1101 30.2358H44.6576C44.7017 30.2364 44.7457 30.2411 44.7889 30.2498C44.9502 30.2809 45.1172 30.2628 45.2681 30.1978C45.419 30.1327 45.5468 30.0238 45.635 29.8851L49.8069 23.3353C49.9098 23.1737 49.953 22.9813 49.9289 22.7912C49.9049 22.6011 49.8151 22.4255 49.6751 22.2947C47.3858 20.1562 44.824 19.8792 42.0608 21.4687C41.854 21.5848 41.621 21.6457 41.3839 21.6457C41.1468 21.6457 40.9137 21.5848 40.707 21.4687C37.9433 19.8792 35.3811 20.1562 33.0936 22.2947C32.9536 22.4254 32.8637 22.6011 32.8396 22.7911C32.8154 22.9812 32.8585 23.1737 32.9614 23.3353L37.1333 29.8851C37.2072 30.0012 37.3092 30.0967 37.4298 30.163C37.5504 30.2293 37.6857 30.2641 37.8233 30.2644ZM39.8905 22.8895C40.3455 23.1495 40.8605 23.2863 41.3846 23.2863C41.9087 23.2863 42.4237 23.1495 42.8787 22.8895C44.824 21.772 46.4412 21.8165 48.042 23.0545L44.5119 28.5937H38.255L34.7258 23.0531C36.328 21.8161 37.9451 21.772 39.8905 22.8895Z" fill="#FF725E"/>
<path id="Vector_22" d="M44.6579 33.2729C45.2725 33.2642 45.8589 33.0139 46.2904 32.5763C46.722 32.1386 46.9639 31.5487 46.9639 30.934C46.9639 30.3194 46.722 29.7295 46.2904 29.2918C45.8589 28.8541 45.2725 28.6039 44.6579 28.5952H38.1095C37.7996 28.5908 37.4918 28.6481 37.2042 28.7636C36.9166 28.8792 36.6549 29.0508 36.4341 29.2684C36.2134 29.486 36.0382 29.7453 35.9185 30.0313C35.7989 30.3172 35.7373 30.6241 35.7373 30.934C35.7373 31.244 35.7989 31.5509 35.9185 31.8368C36.0382 32.1227 36.2134 32.3821 36.4341 32.5997C36.6549 32.8173 36.9166 32.9889 37.2042 33.1044C37.4918 33.22 37.7996 33.2773 38.1095 33.2729H44.6579ZM37.412 30.9338C37.4119 30.7486 37.4852 30.5709 37.616 30.4398C37.7468 30.3087 37.9243 30.2348 38.1095 30.2344H44.6579C44.84 30.2391 45.013 30.3148 45.14 30.4452C45.2671 30.5756 45.3383 30.7505 45.3383 30.9326C45.3383 31.1147 45.2671 31.2896 45.14 31.4201C45.013 31.5505 44.84 31.6261 44.6579 31.6308H38.1095C37.9247 31.6303 37.7477 31.5568 37.617 31.4262C37.4863 31.2956 37.4126 31.1186 37.412 30.9338Z" fill="#FF725E"/>
<path id="Vector_23" d="M37.666 37.6299C37.666 35.2275 39.3338 33.2705 41.3837 33.2705C43.4335 33.2705 45.1023 35.2252 45.1023 37.6299C45.1023 37.8474 45.1887 38.0561 45.3425 38.2099C45.4964 38.3638 45.705 38.4502 45.9226 38.4502C46.1401 38.4502 46.3488 38.3638 46.5026 38.2099C46.6565 38.0561 46.7429 37.8474 46.7429 37.6299C46.7429 34.3229 44.3387 31.6299 41.3837 31.6299C38.4287 31.6299 36.0254 34.3205 36.0254 37.6299C36.0254 37.8474 36.1118 38.0561 36.2657 38.2099C36.4195 38.3638 36.6281 38.4502 36.8457 38.4502C37.0633 38.4502 37.2719 38.3638 37.4258 38.2099C37.5796 38.0561 37.666 37.8474 37.666 37.6299Z" fill="#FF725E"/>
<path id="Vector_24" d="M42.2051 42.105V40.4297C42.2051 40.2121 42.1187 40.0035 41.9648 39.8496C41.811 39.6958 41.6023 39.6094 41.3848 39.6094C41.1672 39.6094 40.9586 39.6958 40.8047 39.8496C40.6509 40.0035 40.5645 40.2121 40.5645 40.4297V42.105C40.5645 42.3226 40.6509 42.5312 40.8047 42.685C40.9586 42.8389 41.1672 42.9253 41.3848 42.9253C41.6023 42.9253 41.811 42.8389 41.9648 42.685C42.1187 42.5312 42.2051 42.3226 42.2051 42.105Z" fill="#6A797C"/>
<path id="Vector_25" d="M42.2051 51.2312V49.5605C42.2051 49.343 42.1187 49.1343 41.9648 48.9805C41.811 48.8267 41.6023 48.7402 41.3848 48.7402C41.1672 48.7402 40.9586 48.8267 40.8047 48.9805C40.6509 49.1343 40.5645 49.343 40.5645 49.5605V51.2312C40.5645 51.4487 40.6509 51.6574 40.8047 51.8112C40.9586 51.9651 41.1672 52.0515 41.3848 52.0515C41.6023 52.0515 41.811 51.9651 41.9648 51.8112C42.1187 51.6574 42.2051 51.4487 42.2051 51.2312Z" fill="#6A797C"/>
<path id="Vector_26" d="M42.0116 48.7382H38.8926C38.675 48.7382 38.4664 48.8247 38.3125 48.9785C38.1587 49.1323 38.0723 49.341 38.0723 49.5586C38.0723 49.7761 38.1587 49.9848 38.3125 50.1386C38.4664 50.2924 38.675 50.3789 38.8926 50.3789H42.0116C42.3671 50.3836 42.7199 50.3176 43.0496 50.1849C43.3794 50.0521 43.6794 49.8551 43.9324 49.6055C44.1854 49.3558 44.3863 49.0583 44.5235 48.7304C44.6606 48.4024 44.7312 48.0505 44.7312 47.695C44.7312 47.3396 44.6606 46.9877 44.5235 46.6597C44.3863 46.3318 44.1854 46.0343 43.9324 45.7846C43.6794 45.5349 43.3794 45.338 43.0496 45.2052C42.7199 45.0725 42.3671 45.0065 42.0116 45.0112H40.7559C40.483 45.0054 40.2233 44.893 40.0324 44.698C39.8415 44.503 39.7345 44.2409 39.7345 43.968C39.7345 43.6951 39.8415 43.4331 40.0324 43.238C40.2233 43.043 40.483 42.9306 40.7559 42.9248H43.8749C44.0925 42.9248 44.3011 42.8384 44.455 42.6845C44.6088 42.5307 44.6952 42.3221 44.6952 42.1045C44.6952 41.8869 44.6088 41.6783 44.455 41.5244C44.3011 41.3706 44.0925 41.2842 43.8749 41.2842H40.7559C40.0502 41.2935 39.3766 41.5804 38.8809 42.0827C38.3852 42.585 38.1073 43.2623 38.1073 43.968C38.1073 44.6737 38.3852 45.351 38.8809 45.8533C39.3766 46.3556 40.0502 46.6425 40.7559 46.6518H42.0116C42.1505 46.6489 42.2885 46.6737 42.4177 46.7248C42.5468 46.7759 42.6645 46.8523 42.7637 46.9494C42.863 47.0466 42.9418 47.1626 42.9956 47.2906C43.0495 47.4187 43.0772 47.5562 43.0772 47.695C43.0772 47.8339 43.0495 47.9714 42.9956 48.0994C42.9418 48.2275 42.863 48.3435 42.7637 48.4406C42.6645 48.5378 42.5468 48.6142 42.4177 48.6653C42.2885 48.7164 42.1505 48.7412 42.0116 48.7382Z" fill="#6A797C"/>
</g>
</g>
</svg>
