<svg xmlns="http://www.w3.org/2000/svg" xmlns:xlink="http://www.w3.org/1999/xlink" width="34" zoomAndPan="magnify" viewBox="0 0 25.5 20.999999" height="28" preserveAspectRatio="xMidYMid meet" version="1.0"><defs><g/><clipPath id="59afcc2898"><path d="M 8 0.203125 L 17 0.203125 L 17 3 L 8 3 Z M 8 0.203125 " clip-rule="nonzero"/></clipPath><clipPath id="cf5f024a9f"><path d="M 1 0.203125 L 7 0.203125 L 7 6 L 1 6 Z M 1 0.203125 " clip-rule="nonzero"/></clipPath><clipPath id="2de7f6b90a"><path d="M 18 0.203125 L 24 0.203125 L 24 6 L 18 6 Z M 18 0.203125 " clip-rule="nonzero"/></clipPath><clipPath id="ac2ab44a0c"><path d="M 16 5 L 24.273438 5 L 24.273438 11 L 16 11 Z M 16 5 " clip-rule="nonzero"/></clipPath><clipPath id="ca1b51cb16"><path d="M 8 15 L 16 15 L 16 20.792969 L 8 20.792969 Z M 8 15 " clip-rule="nonzero"/></clipPath></defs><path fill="#ff725e" d="M 20.644531 12.851562 L 19.574219 12.851562 C 19.109375 13.984375 18.390625 14.992188 17.488281 15.796875 C 17.5625 16.164062 17.632812 16.539062 17.695312 16.921875 C 19.03125 15.882812 20.0625 14.472656 20.644531 12.851562 Z M 20.644531 12.851562 " fill-opacity="1" fill-rule="nonzero"/><g clip-path="url(#59afcc2898)"><path fill="#ff725e" d="M 8 1.863281 L 8.539062 2.710938 C 9.628906 2.152344 10.859375 1.832031 12.164062 1.832031 C 13.269531 1.832031 14.320312 2.054688 15.277344 2.460938 C 15.625 2.265625 15.980469 2.0625 16.339844 1.863281 C 15.09375 1.207031 13.671875 0.832031 12.164062 0.832031 C 10.660156 0.832031 9.246094 1.207031 8 1.863281 Z M 8 1.863281 " fill-opacity="1" fill-rule="nonzero"/></g><path fill="#ff725e" d="M 4.757812 12.851562 L 3.6875 12.851562 C 4.269531 14.472656 5.300781 15.878906 6.632812 16.921875 C 6.699219 16.539062 6.765625 16.164062 6.84375 15.796875 C 5.941406 14.992188 5.222656 13.984375 4.757812 12.851562 Z M 4.757812 12.851562 " fill-opacity="1" fill-rule="nonzero"/><g clip-path="url(#cf5f024a9f)"><path fill="#ff725e" d="M 3.996094 0.199219 L 3.566406 0.199219 C 3.503906 0.199219 3.445312 0.203125 3.386719 0.207031 C 2.222656 0.300781 1.304688 1.273438 1.304688 2.460938 L 1.304688 3.335938 C 1.304688 4.582031 2.316406 5.59375 3.5625 5.59375 L 3.996094 5.59375 C 5.242188 5.59375 6.257812 4.582031 6.257812 3.335938 L 6.257812 2.460938 C 6.257812 2.28125 6.234375 2.113281 6.195312 1.949219 C 5.964844 0.945312 5.066406 0.199219 3.996094 0.199219 Z M 5.257812 3.335938 C 5.257812 4.03125 4.691406 4.597656 3.996094 4.597656 L 3.566406 4.597656 C 2.867188 4.597656 2.304688 4.03125 2.304688 3.335938 L 2.304688 2.460938 C 2.304688 1.765625 2.867188 1.199219 3.566406 1.199219 L 3.996094 1.199219 C 4.691406 1.199219 5.257812 1.765625 5.257812 2.460938 Z M 5.257812 3.335938 " fill-opacity="1" fill-rule="nonzero"/></g><path fill="#ff725e" d="M 4.75 5.941406 L 2.808594 5.941406 C 2.089844 5.941406 1.433594 6.21875 0.9375 6.671875 C 0.832031 6.765625 0.730469 6.867188 0.640625 6.980469 C 0.253906 7.457031 0.0195312 8.066406 0.0195312 8.730469 L 0.0195312 10.597656 L 7.539062 10.597656 L 7.539062 8.730469 C 7.539062 7.191406 6.289062 5.941406 4.75 5.941406 Z M 6.539062 9.597656 L 1.019531 9.597656 L 1.019531 8.730469 C 1.019531 7.742188 1.824219 6.941406 2.808594 6.941406 L 4.75 6.941406 C 5.738281 6.941406 6.539062 7.742188 6.539062 8.730469 Z M 6.539062 9.597656 " fill-opacity="1" fill-rule="nonzero"/><g clip-path="url(#2de7f6b90a)"><path fill="#ff725e" d="M 20.335938 5.59375 L 20.765625 5.59375 C 22.015625 5.59375 23.027344 4.582031 23.027344 3.335938 L 23.027344 2.460938 C 23.027344 1.210938 22.015625 0.199219 20.765625 0.199219 L 20.335938 0.199219 C 19.089844 0.199219 18.074219 1.210938 18.074219 2.460938 L 18.074219 3.335938 C 18.074219 4.582031 19.089844 5.59375 20.335938 5.59375 Z M 19.074219 2.460938 C 19.074219 1.765625 19.640625 1.199219 20.335938 1.199219 L 20.765625 1.199219 C 21.460938 1.199219 22.027344 1.765625 22.027344 2.460938 L 22.027344 3.335938 C 22.027344 4.03125 21.460938 4.597656 20.765625 4.597656 L 20.335938 4.597656 C 19.640625 4.597656 19.074219 4.03125 19.074219 3.335938 Z M 19.074219 2.460938 " fill-opacity="1" fill-rule="nonzero"/></g><g clip-path="url(#ac2ab44a0c)"><path fill="#ff725e" d="M 24.3125 10.597656 L 24.3125 8.730469 C 24.3125 8.066406 24.078125 7.457031 23.6875 6.980469 C 23.375 6.589844 22.957031 6.289062 22.480469 6.113281 C 22.183594 6.003906 21.859375 5.941406 21.523438 5.941406 L 19.582031 5.941406 C 18.042969 5.941406 16.792969 7.191406 16.792969 8.730469 L 16.792969 10.597656 Z M 17.792969 8.730469 C 17.792969 7.742188 18.59375 6.941406 19.582031 6.941406 L 21.523438 6.941406 C 22.507812 6.941406 23.3125 7.742188 23.3125 8.730469 L 23.3125 9.597656 L 17.792969 9.597656 Z M 17.792969 8.730469 " fill-opacity="1" fill-rule="nonzero"/></g><path fill="#ff725e" d="M 12.382812 15.546875 C 13.628906 15.546875 14.644531 14.535156 14.644531 13.285156 L 14.644531 12.414062 C 14.644531 11.164062 13.628906 10.152344 12.382812 10.152344 L 11.949219 10.152344 C 10.703125 10.152344 9.6875 11.164062 9.6875 12.414062 L 9.6875 13.285156 C 9.6875 14.535156 10.703125 15.546875 11.949219 15.546875 Z M 10.6875 13.285156 L 10.6875 12.414062 C 10.6875 11.714844 11.253906 11.152344 11.949219 11.152344 L 12.382812 11.152344 C 13.078125 11.152344 13.644531 11.714844 13.644531 12.414062 L 13.644531 13.285156 C 13.644531 13.984375 13.078125 14.550781 12.382812 14.550781 L 11.949219 14.550781 C 11.253906 14.550781 10.6875 13.984375 10.6875 13.285156 Z M 10.6875 13.285156 " fill-opacity="1" fill-rule="nonzero"/><g clip-path="url(#ca1b51cb16)"><path fill="#ff725e" d="M 8.40625 18.683594 L 8.40625 20.550781 L 15.925781 20.550781 L 15.925781 18.683594 C 15.925781 17.144531 14.675781 15.894531 13.136719 15.894531 L 11.195312 15.894531 C 9.65625 15.894531 8.40625 17.144531 8.40625 18.683594 Z M 9.40625 18.683594 C 9.40625 17.695312 10.207031 16.894531 11.195312 16.894531 L 13.136719 16.894531 C 14.125 16.894531 14.925781 17.695312 14.925781 18.683594 L 14.925781 19.550781 L 9.40625 19.550781 Z M 9.40625 18.683594 " fill-opacity="1" fill-rule="nonzero"/></g><g fill="#ffffff" fill-opacity="1"><g transform="translate(11.644811, 10.142969)"><g><path d="M 0.09375 0 L 0.09375 -0.140625 L 0.484375 -0.140625 L 0.484375 -1.21875 L 0.46875 -1.21875 C 0.40625 -1.1875 0.347656 -1.160156 0.296875 -1.140625 C 0.253906 -1.128906 0.195312 -1.113281 0.125 -1.09375 L 0.125 -1.25 C 0.195312 -1.269531 0.265625 -1.289062 0.328125 -1.3125 C 0.398438 -1.34375 0.46875 -1.375 0.53125 -1.40625 L 0.640625 -1.40625 L 0.640625 -0.140625 L 0.984375 -0.140625 L 0.984375 0 Z M 0.09375 0 "/></g></g></g></svg>