<svg width="60" height="60" viewBox="0 0 60 60" fill="none" xmlns="http://www.w3.org/2000/svg">
<g id="Frame">
<g id="Group">
<path id="Vector" d="M5.5305 56.0002C5.1061 55.733 5 55.3387 5 54.8681C5.01326 49.3857 5.01326 43.9033 5 38.4209C5 37.9248 5.17241 37.5559 5.54377 37.2125C6.6313 36.1694 7.69231 35.1137 8.75332 34.0706C8.43501 33.4982 8.03714 32.9131 7.74536 32.2771C6.90981 30.4072 6.65782 28.4865 7.69231 26.6039C8.40849 25.2937 9.58886 24.3906 10.809 23.551C14.2838 21.1469 18.1167 19.3534 21.9894 17.6235C22.2016 17.5344 22.5066 17.4072 22.5464 17.2418C22.626 16.8857 22.5729 16.5041 22.5464 16.1352C22.5464 16.0843 22.3607 16.008 22.2546 15.9953C18.7666 15.2321 16.7241 12.4718 17.1751 9.11367C17.4668 6.78588 19.4828 4.67433 21.8966 4.20369C22.1618 4.15281 22.5597 4.29273 22.7719 4.47081C23.0769 4.75065 22.9708 5.13226 22.7321 5.43754C21.9363 6.49331 21.7374 7.65085 22.1485 8.89742C22.9045 11.1362 25.7958 12.1411 27.8647 10.8563C28.3024 10.5892 28.7268 10.2458 29.244 10.6401C29.748 11.0217 29.5093 11.5051 29.3501 11.9503C28.5809 14.0364 27.0822 15.3593 24.8409 15.919C24.6154 15.9698 24.244 15.8426 24.191 16.2751C24.0849 17.1146 24.1645 17.369 24.6684 17.5853C28.2228 19.1372 31.7109 20.8035 34.947 22.8896C35.9284 23.5256 36.8568 24.2252 37.7321 24.9884C39.4032 26.4385 40.0133 28.2448 39.6286 30.3945C39.3767 31.7683 38.7666 32.9512 37.9841 34.0579C39.0584 35.1137 40.1061 36.1694 41.1804 37.187C41.5915 37.5687 41.7639 37.9757 41.7639 38.5354C41.7507 43.9669 41.7507 49.3984 41.7639 54.8299C41.7639 55.3133 41.6844 55.733 41.2334 56.0129C29.3369 56.0002 17.4271 56.0002 5.5305 56.0002ZM40.1061 54.4483C40.1194 54.3084 40.1326 54.2193 40.1326 54.143C40.1326 48.9914 40.1326 43.8524 40.1194 38.7007C40.1194 38.4972 39.9867 38.2555 39.8276 38.1029C38.8594 37.1616 37.8647 36.2458 36.9098 35.3045C36.618 35.0246 36.3263 34.9356 35.9284 34.9356C31.2467 34.9483 26.5782 34.9483 21.8966 34.9356C21.6446 34.9356 21.3528 34.9865 21.1671 34.872C20.9151 34.7193 20.6101 34.4268 20.6101 34.1851C20.5968 33.9434 20.8886 33.6381 21.1141 33.4728C21.2865 33.3456 21.5915 33.3837 21.8302 33.3837C26.5119 33.3837 31.1804 33.371 35.8621 33.3964C36.3395 33.3964 36.6048 33.2311 36.8435 32.8749C37.4934 31.9082 37.9178 30.8779 38.0637 29.7203C38.1963 28.69 37.9708 27.7614 37.3607 26.9346C36.4987 25.7644 35.2785 24.9757 34.0584 24.1871C30.7825 22.0882 27.2546 20.4219 23.6737 18.8573C23.4881 18.781 23.183 18.781 22.9973 18.87C20.5438 20.0276 18.0769 21.1597 15.6764 22.3935C13.7135 23.3984 11.8302 24.5305 10.1724 25.9806C9.13793 26.8837 8.51459 27.9777 8.59416 29.326C8.67374 30.6362 9.12467 31.8319 9.90716 32.9131C10.1326 33.2184 10.3448 33.3583 10.756 33.3583C12.9443 33.3328 15.1326 33.3456 17.321 33.3456C17.9841 33.3456 18.3554 33.6381 18.3687 34.1088C18.382 34.5794 17.9973 34.8847 17.3475 34.8974C17.2016 34.8974 17.069 34.8974 16.9231 34.8974C14.8408 34.8974 12.7586 34.8847 10.6764 34.9101C10.3979 34.9101 10.0663 35.0501 9.85411 35.2409C8.84615 36.144 7.89125 37.098 6.89655 38.0139C6.64456 38.2428 6.55172 38.4845 6.55172 38.8152C6.56499 43.8397 6.55172 48.8642 6.56499 53.9013C6.56499 54.0667 6.57825 54.2321 6.59151 54.4101C10.2918 54.4101 13.9523 54.4101 17.6658 54.4101C17.6658 54.1939 17.6658 54.0158 17.6658 53.8377C17.6658 51.37 17.679 48.8896 17.6525 46.4219C17.6525 45.9385 17.8117 45.5951 18.1565 45.2516C19.6154 43.8524 21.0477 42.4278 22.5066 41.0158C23.1565 40.3798 23.4881 40.3798 24.1379 41.0031C25.5968 42.4278 27.0557 43.8524 28.5279 45.2771C28.8594 45.5951 29.0053 45.9512 29.0053 46.4092C28.992 48.9023 28.992 51.3827 28.992 53.8759C28.992 54.054 28.992 54.2321 28.992 54.4356C32.7719 54.4483 36.4191 54.4483 40.1061 54.4483ZM19.3501 54.4356C22.0822 54.4356 24.7347 54.4356 27.4138 54.4356C27.4271 54.3211 27.4403 54.2448 27.4403 54.1685C27.4403 51.688 27.4536 49.1949 27.4271 46.7144C27.4271 46.5236 27.2944 46.2947 27.1618 46.1548C26.2202 45.2135 25.2653 44.2976 24.3103 43.3563C24.0053 43.0638 23.7135 42.7585 23.5146 42.5677C22.1883 43.7761 20.9284 44.9209 19.6552 46.0657C19.4032 46.2947 19.3103 46.5364 19.3103 46.8671C19.3236 49.2203 19.3236 51.5736 19.3236 53.9141C19.3236 54.0794 19.3369 54.2448 19.3501 54.4356ZM26.9231 12.9297C24.9867 13.2096 23.2891 12.7389 21.9231 11.416C20.557 10.1058 20.0928 8.47766 20.4377 6.51875C18.9788 7.82893 18.4218 9.27903 18.8064 10.9835C19.2308 12.8025 20.4509 13.9982 22.3475 14.4307C24.1379 14.8123 25.6764 14.2908 26.9231 12.9297Z" fill="#FF725E"/>
<path id="Vector_2" d="M43.3553 56.0001C42.9176 55.7457 42.7983 55.3513 42.8115 54.8807C42.838 54.0412 42.8115 53.1889 42.8248 52.3367C42.8248 51.459 43.0105 51.2682 43.9654 51.1918C43.9654 42.186 43.9654 33.1801 43.9654 24.1742C42.9176 23.9834 42.8248 23.8817 42.8248 22.8386C42.8248 22.0881 42.8248 21.3504 42.8248 20.5999C42.8248 19.5695 42.9441 19.4423 44.0052 19.2643C44.0052 17.8396 44.0317 16.4022 43.9919 14.9648C43.9786 14.3416 44.1378 13.8327 44.5224 13.3239C45.6497 11.8357 46.7505 10.322 47.8513 8.80828C47.9972 8.60476 48.09 8.32492 48.09 8.07051C48.1166 7.09106 48.1033 6.11161 48.1033 5.13216C48.1033 4.36895 48.3818 3.98734 48.9123 4.00006C49.4428 4.01278 49.7081 4.39439 49.7081 5.17032C49.7081 6.13705 49.6948 7.10378 49.7213 8.07051C49.7346 8.33764 49.8274 8.64292 49.9733 8.85916C51.0874 10.411 52.2147 11.9374 53.3553 13.4639C53.6736 13.8836 53.8195 14.3034 53.8062 14.8249C53.7797 16.3132 53.793 17.8014 53.793 19.277C54.907 19.5059 54.9866 19.6077 54.9866 20.6635C54.9866 21.3885 54.9866 22.1136 54.9866 22.8513C54.9866 23.8944 54.8805 24.0216 53.7797 24.1997C53.7797 24.7339 53.7929 25.2936 53.7797 25.8406C53.7664 26.2603 53.5277 26.6038 53.0768 26.5911C52.8115 26.5911 52.4932 26.4003 52.2943 26.2095C52.1617 26.0823 52.1749 25.8024 52.1617 25.5862C52.1484 25.1282 52.1617 24.6703 52.1617 24.1742C49.9733 24.1742 47.838 24.1742 45.6497 24.1742C45.6497 33.1674 45.6497 42.1733 45.6497 51.2046C47.8115 51.2046 49.9335 51.2046 52.1351 51.2046C52.1484 50.9883 52.1617 50.7721 52.1617 50.5558C52.1617 43.6997 52.1617 36.8435 52.1617 29.9873C52.1617 29.7457 52.1749 29.5167 52.2147 29.2877C52.2943 28.9061 52.5861 28.7026 52.9707 28.7026C53.3553 28.7026 53.6471 28.9061 53.7266 29.2877C53.7797 29.5167 53.7797 29.7584 53.7797 29.9873C53.7797 36.8308 53.7797 43.6615 53.7797 50.505C53.7797 50.7212 53.7797 50.9374 53.7797 51.141C54.8937 51.3572 54.9733 51.4462 54.9733 52.5275C54.9733 53.3034 54.9601 54.0793 54.9866 54.868C54.9998 55.3386 54.8805 55.7329 54.4561 56.0001C50.7691 56.0001 47.0556 56.0001 43.3553 56.0001ZM48.8991 10.0803C47.8248 11.5431 46.777 12.9678 45.7293 14.3924C45.6762 14.4688 45.6232 14.5832 45.6232 14.6723C45.6099 16.2114 45.6232 17.7506 45.6232 19.3024C45.8354 19.3024 46.0078 19.3024 46.2067 19.3024C46.2067 18.6537 46.1537 18.0304 46.2333 17.4071C46.2731 17.0891 46.4455 16.7202 46.6842 16.504C47.1749 16.0461 47.7585 15.6772 48.3022 15.2701C48.7001 14.9648 49.098 14.9648 49.5091 15.2701C50.0396 15.6644 50.5569 16.0588 51.1006 16.4531C51.4587 16.7075 51.6179 17.0255 51.6046 17.458C51.5914 18.0304 51.6046 18.6028 51.6179 19.1879C51.6179 19.2388 51.6577 19.277 51.6842 19.3406C51.8301 19.3279 51.9892 19.3151 52.1749 19.3024C52.1749 17.7378 52.1749 16.1987 52.1749 14.6596C52.1749 14.5832 52.1484 14.4942 52.0953 14.4179C51.0476 12.9932 49.9866 11.5558 48.8991 10.0803ZM53.3553 54.4355C53.3553 53.8631 53.3553 53.3288 53.3553 52.7819C50.3712 52.7819 47.4136 52.7819 44.4561 52.7819C44.4561 53.3416 44.4561 53.8758 44.4561 54.4355C47.4269 54.4355 50.3579 54.4355 53.3553 54.4355ZM44.4428 20.8924C44.4428 21.4776 44.4428 21.9991 44.4428 22.5588C47.4269 22.5588 50.3712 22.5588 53.3288 22.5588C53.3288 21.9864 53.3288 21.4521 53.3288 20.8924C50.3579 20.8924 47.4402 20.8924 44.4428 20.8924ZM49.9601 19.3151C50.0131 18.2848 50.2386 17.2417 48.846 16.8601C47.7452 17.5343 47.5993 17.865 47.8911 19.3151C48.5542 19.3151 49.2439 19.3151 49.9601 19.3151Z" fill="#6A797C"/>
<path id="Vector_3" d="M34.2835 45.9384C33.4347 45.9384 32.5858 45.9384 31.7503 45.9384C31.0076 45.9257 30.7423 45.6585 30.7291 44.9462C30.7291 43.6742 30.7423 42.4149 30.7158 41.1429C30.7158 40.7358 30.8484 40.4306 31.18 40.1762C32.0023 39.5656 32.8246 38.955 33.6469 38.3445C34.0713 38.0265 34.4691 38.0265 34.8935 38.3445C35.7158 38.955 36.5646 39.5402 37.3471 40.1889C37.5991 40.3924 37.798 40.774 37.8113 41.0793C37.8644 42.3767 37.8378 43.6869 37.8246 44.9844C37.8246 45.6458 37.5195 45.9257 36.8034 45.9257C35.9811 45.9511 35.1323 45.9384 34.2835 45.9384ZM32.3339 44.3738C33.6734 44.3738 34.9333 44.3738 36.2463 44.3738C36.2463 43.3816 36.2463 42.4276 36.2331 41.4609C36.2331 41.3591 36.1535 41.2319 36.0739 41.1683C35.4904 40.7231 34.8803 40.2779 34.2835 39.8327C33.6866 40.2779 33.1031 40.6977 32.5461 41.1302C32.4532 41.2065 32.3471 41.3464 32.3471 41.4482C32.3339 42.4149 32.3339 43.3816 32.3339 44.3738Z" fill="#6A797C"/>
<path id="Vector_4" d="M12.4671 45.9384C11.6182 45.9384 10.7694 45.9384 9.9339 45.9384C9.19119 45.9384 8.91268 45.6586 8.91268 44.9462C8.91268 43.6742 8.92594 42.4149 8.89941 41.1429C8.89941 40.7104 9.05857 40.4051 9.40339 40.1507C10.1991 39.5656 10.9949 38.9678 11.7907 38.3826C12.3079 38.001 12.5997 38.001 13.1169 38.3826C13.9127 38.9678 14.7084 39.5656 15.5042 40.1507C15.849 40.4051 16.0214 40.7104 16.0214 41.1429C16.0082 42.4149 16.0214 43.6742 16.0082 44.9462C16.0082 45.6713 15.7297 45.9384 14.9472 45.9384C14.1249 45.9511 13.3026 45.9384 12.4671 45.9384ZM12.4671 39.8455C11.857 40.2907 11.2602 40.7359 10.6766 41.1811C10.597 41.232 10.5307 41.3464 10.5307 41.4228C10.5175 42.4022 10.5307 43.3689 10.5307 44.3611C11.857 44.3611 13.1302 44.3611 14.4432 44.3611C14.4432 43.3817 14.4564 42.4404 14.4299 41.4991C14.4299 41.3719 14.3238 41.2192 14.2177 41.1302C13.6342 40.6977 13.0639 40.2779 12.4671 39.8455Z" fill="#6A797C"/>
</g>
</g>
</svg>
