<svg width="61" height="60" viewBox="0 0 61 60" fill="none" xmlns="http://www.w3.org/2000/svg">
<g id="group">
<g id="Group">
<g id="Group_2">
<path id="Vector" d="M13.1587 41.9172C9.54547 41.9192 6.05852 40.5883 3.36553 38.1794C3.06651 37.9142 2.85296 37.5662 2.75199 37.1794C2.65101 36.7927 2.66714 36.3847 2.79835 36.0072C3.5469 33.8562 4.94647 31.9916 6.8028 30.672C8.65914 29.3525 10.8802 28.6436 13.1577 28.6436C15.4352 28.6436 17.6563 29.3525 19.5126 30.672C21.369 31.9916 22.7685 33.8562 23.5171 36.0072C23.648 36.3847 23.6639 36.7926 23.5628 37.1792C23.4618 37.5658 23.2483 37.9137 22.9494 38.1789C20.2571 40.5875 16.7711 41.9185 13.1587 41.9172ZM13.1587 30.2833C11.2221 30.2845 9.33387 30.888 7.75558 32.0101C6.17729 33.1323 4.98709 34.7175 4.34991 36.5463C4.32642 36.618 4.32442 36.6951 4.34416 36.7679C4.3639 36.8408 4.40451 36.9063 4.461 36.9564C6.85437 39.0946 9.95137 40.2766 13.1608 40.2766C16.3702 40.2766 19.4672 39.0946 21.8605 36.9564C21.917 36.9063 21.9576 36.8408 21.9774 36.7679C21.9971 36.6951 21.9951 36.618 21.9716 36.5463C21.3346 34.7165 20.1439 33.1303 18.5647 32.0077C16.9855 30.8851 15.0962 30.2818 13.1587 30.2814V30.2833Z" fill="#FF725E"/>
<path id="Vector_2" d="M13.159 30.2836C11.9623 30.2836 10.7924 29.9287 9.79733 29.2638C8.80228 28.5989 8.02676 27.6538 7.56884 26.5482C7.11093 25.4425 6.99119 24.2258 7.22477 23.0521C7.45834 21.8783 8.03475 20.8002 8.88109 19.9541C9.72742 19.1079 10.8057 18.5318 11.9795 18.2985C13.1533 18.0652 14.3699 18.1852 15.4755 18.6434C16.5811 19.1015 17.5259 19.8773 18.1906 20.8725C18.8553 21.8677 19.2099 23.0376 19.2097 24.2344C19.2074 25.8383 18.5692 27.3759 17.4349 28.5099C16.3006 29.6439 14.7629 30.2818 13.159 30.2836ZM13.159 19.823C12.2869 19.823 11.4343 20.0816 10.7091 20.5661C9.98392 21.0506 9.41868 21.7393 9.08485 22.545C8.75103 23.3508 8.66361 24.2374 8.83366 25.0928C9.00371 25.9482 9.42358 26.734 10.0402 27.3508C10.6568 27.9677 11.4425 28.3878 12.2978 28.5581C13.1532 28.7284 14.0398 28.6413 14.8457 28.3077C15.6515 27.9741 16.3404 27.4091 16.8251 26.6841C17.3099 25.9591 17.5687 25.1066 17.569 24.2344C17.568 23.065 17.1031 21.9437 16.2764 21.1167C15.4496 20.2896 14.3285 19.8244 13.159 19.823Z" fill="#FF725E"/>
<path id="Vector_3" d="M47.0101 41.9171C43.397 41.9191 39.91 40.5882 37.217 38.1793C36.918 37.9141 36.7045 37.5661 36.6036 37.1794C36.5026 36.7927 36.5187 36.3847 36.6498 36.0071C37.3979 33.8553 38.7974 31.9898 40.654 30.6696C42.5106 29.3495 44.7322 28.6401 47.0104 28.6401C49.2885 28.6401 51.5101 29.3495 53.3668 30.6696C55.2234 31.9898 56.6229 33.8553 57.3709 36.0071C57.502 36.3848 57.5181 36.7929 57.417 37.1797C57.316 37.5665 57.1024 37.9145 56.8033 38.1798C54.1102 40.5886 50.6233 41.9193 47.0101 41.9171ZM47.0101 30.2832C45.0729 30.2836 43.1838 30.8867 41.6048 32.0089C40.0257 33.1311 38.835 34.7168 38.1976 36.5462C38.1739 36.6179 38.1718 36.695 38.1914 36.7679C38.2111 36.8408 38.2517 36.9063 38.3083 36.9564C40.7016 39.0946 43.7986 40.2765 47.008 40.2765C50.2174 40.2765 53.3144 39.0946 55.7078 36.9564C55.7643 36.9064 55.8048 36.8409 55.8245 36.7681C55.8442 36.6953 55.8421 36.6183 55.8184 36.5467C55.1817 34.7176 53.9918 33.1318 52.4135 32.0092C50.8353 30.8866 48.9469 30.2827 47.0101 30.2814V30.2832Z" fill="#FF725E"/>
<path id="Vector_4" d="M47.0101 30.2836C45.8134 30.2835 44.6435 29.9286 43.6486 29.2636C42.6536 28.5986 41.8781 27.6535 41.4203 26.5478C40.9624 25.4421 40.8428 24.2255 41.0764 23.0518C41.31 21.8781 41.8865 20.8 42.7328 19.9539C43.5792 19.1078 44.6574 18.5317 45.8312 18.2984C47.005 18.0652 48.2216 18.1852 49.3271 18.6434C50.4327 19.1016 51.3776 19.8773 52.0422 20.8725C52.7069 21.8677 53.0615 23.0377 53.0612 24.2344C53.059 25.8384 52.4207 27.376 51.2863 28.51C50.1519 29.6441 48.6141 30.2819 47.0101 30.2836ZM47.0101 19.823C46.1379 19.8231 45.2853 20.0818 44.5602 20.5664C43.835 21.0511 43.2699 21.7399 42.9361 22.5457C42.6024 23.3515 42.5152 24.2382 42.6854 25.0936C42.8556 25.9491 43.2756 26.7348 43.8924 27.3515C44.5092 27.9682 45.295 28.3882 46.1504 28.5583C47.0059 28.7284 47.8925 28.6411 48.6983 28.3073C49.5041 27.9735 50.1928 27.4082 50.6774 26.683C51.162 25.9578 51.4206 25.1052 51.4206 24.233C51.4192 23.0637 50.9541 21.9428 50.1273 21.116C49.3004 20.2892 48.1794 19.8242 47.0101 19.823Z" fill="#FF725E"/>
<path id="Vector_5" d="M30.0842 27.405C26.4709 27.4072 22.9837 26.0763 20.2906 23.6672C19.9916 23.402 19.7781 23.0539 19.6774 22.6671C19.5766 22.2803 19.5932 21.8724 19.7248 21.495C20.4734 19.344 21.873 17.4793 23.7293 16.1598C25.5856 14.8403 27.8067 14.1313 30.0842 14.1313C32.3617 14.1313 34.5828 14.8403 36.4391 16.1598C38.2955 17.4793 39.695 19.344 40.4436 21.495C40.5747 21.8725 40.5907 22.2805 40.4898 22.6672C40.3888 23.0539 40.1753 23.4019 39.8764 23.6672C37.1837 26.076 33.6971 27.4069 30.0842 27.405ZM30.0842 15.7711C28.147 15.7713 26.2579 16.3742 24.6788 17.4964C23.0998 18.6185 21.909 20.2042 21.2717 22.0336C21.2481 22.1053 21.246 22.1823 21.2657 22.2552C21.2853 22.3281 21.3259 22.3936 21.3823 22.4437C23.7758 24.5822 26.873 25.7643 30.0826 25.7643C33.2922 25.7643 36.3894 24.5822 38.7828 22.4437C38.8391 22.3936 38.8795 22.3281 38.8991 22.2553C38.9187 22.1826 38.9165 22.1056 38.893 22.034C38.256 20.2052 37.0658 18.6198 35.4875 17.4976C33.9092 16.3755 32.0208 15.7721 30.0842 15.7711Z" fill="#FF725E"/>
<path id="Vector_6" d="M30.0838 15.7717C28.8871 15.7717 27.7173 15.4168 26.7223 14.7519C25.7273 14.0871 24.9517 13.1421 24.4938 12.0365C24.0358 10.9309 23.916 9.71433 24.1495 8.54062C24.3829 7.36691 24.9592 6.28879 25.8054 5.4426C26.6516 4.5964 27.7297 4.02014 28.9034 3.78667C30.0771 3.55321 31.2937 3.67303 32.3993 4.13099C33.5049 4.58895 34.4499 5.36447 35.1147 6.35949C35.7796 7.35451 36.1345 8.52434 36.1345 9.72104C36.1326 11.3252 35.4945 12.8631 34.3602 13.9974C33.2259 15.1317 31.688 15.7698 30.0838 15.7717ZM30.0838 5.31104C29.2116 5.31104 28.359 5.56968 27.6338 6.05426C26.9085 6.53883 26.3433 7.22758 26.0095 8.0334C25.6757 8.83923 25.5884 9.72593 25.7586 10.5814C25.9287 11.4368 26.3487 12.2226 26.9655 12.8394C27.5822 13.4561 28.368 13.8761 29.2235 14.0463C30.0789 14.2165 30.9656 14.1291 31.7715 13.7953C32.5773 13.4616 33.266 12.8963 33.7506 12.1711C34.2352 11.4459 34.4938 10.5933 34.4938 9.72104C34.4925 8.55185 34.0274 7.43094 33.2007 6.6042C32.3739 5.77746 31.253 5.3124 30.0838 5.31104Z" fill="#FF725E"/>
</g>
<path id="Vector_7" d="M30.0846 56.3299C26.4715 56.3324 22.9844 55.0022 20.291 52.5939C19.992 52.3287 19.7786 51.9806 19.6777 51.5939C19.5768 51.2072 19.593 50.7992 19.7242 50.4217C20.4728 48.2707 21.8724 46.4061 23.7287 45.0866C25.585 43.7671 27.8061 43.0581 30.0836 43.0581C32.3611 43.0581 34.5822 43.7671 36.4385 45.0866C38.2949 46.4061 39.6944 48.2707 40.443 50.4217C40.574 50.7992 40.5901 51.207 40.4892 51.5936C40.3883 51.9802 40.175 52.3282 39.8763 52.5935C37.1834 55.0015 33.6971 56.3318 30.0846 56.3299ZM30.0846 44.696C28.1474 44.6961 26.2582 45.2991 24.6792 46.4213C23.1001 47.5434 21.9093 49.1291 21.2721 50.9585C21.2484 51.0302 21.2463 51.1072 21.266 51.1801C21.2857 51.253 21.3262 51.3185 21.3827 51.3686C23.7761 53.5071 26.8733 54.6892 30.0829 54.6892C33.2925 54.6892 36.3897 53.5071 38.7831 51.3686C38.8394 51.3185 38.8798 51.253 38.8994 51.1802C38.919 51.1074 38.9169 51.0305 38.8933 50.9589C38.2563 49.1301 37.0661 47.5447 35.4878 46.4225C33.9095 45.3003 32.0212 44.6969 30.0846 44.696Z" fill="#6A797C"/>
<path id="Vector_8" d="M30.0838 44.6965C28.8871 44.6965 27.7173 44.3416 26.7223 43.6768C25.7273 43.0119 24.9517 42.0669 24.4938 40.9613C24.0358 39.8557 23.916 38.6391 24.1495 37.4654C24.3829 36.2917 24.9592 35.2136 25.8054 34.3674C26.6516 33.5212 27.7297 32.9449 28.9034 32.7115C30.0771 32.478 31.2937 32.5978 32.3993 33.0558C33.5049 33.5138 34.4499 34.2893 35.1147 35.2843C35.7796 36.2793 36.1345 37.4491 36.1345 38.6458C36.1326 40.25 35.4945 41.7879 34.3602 42.9222C33.2259 44.0565 31.688 44.6946 30.0838 44.6965ZM30.0838 34.2358C29.2116 34.2358 28.359 34.4945 27.6338 34.9791C26.9085 35.4636 26.3433 36.1524 26.0095 36.9582C25.6757 37.764 25.5884 38.6507 25.7586 39.5062C25.9287 40.3616 26.3487 41.1474 26.9655 41.7642C27.5822 42.3809 28.368 42.8009 29.2235 42.9711C30.0789 43.1413 30.9656 43.0539 31.7715 42.7201C32.5773 42.3864 33.266 41.8211 33.7506 41.0959C34.2352 40.3707 34.4938 39.5181 34.4938 38.6458C34.4925 37.4767 34.0274 36.3557 33.2007 35.529C32.3739 34.7023 31.253 34.2372 30.0838 34.2358Z" fill="#6A797C"/>
</g>
</g>
</svg>
