<svg xmlns="http://www.w3.org/2000/svg" xmlns:xlink="http://www.w3.org/1999/xlink" width="30" zoomAndPan="magnify" viewBox="0 0 22.5 20.999999" height="28" preserveAspectRatio="xMidYMid meet" version="1.0"><defs><g/><clipPath id="f8cb9e802c"><path d="M 0 0.226562 L 22 0.226562 L 22 20.769531 L 0 20.769531 Z M 0 0.226562 " clip-rule="nonzero"/></clipPath></defs><path fill="#ff725e" d="M 12.078125 7.925781 C 12.003906 7.800781 11.90625 7.703125 11.78125 7.632812 C 11.660156 7.5625 11.488281 7.488281 11.269531 7.40625 C 11.070312 7.335938 10.941406 7.273438 10.882812 7.222656 C 10.824219 7.175781 10.792969 7.105469 10.792969 7.011719 C 10.792969 6.921875 10.824219 6.84375 10.886719 6.78125 C 10.949219 6.71875 11.03125 6.6875 11.132812 6.6875 C 11.339844 6.6875 11.492188 6.828125 11.589844 7.113281 L 12.09375 6.90625 C 12.003906 6.59375 11.832031 6.386719 11.582031 6.28125 C 11.523438 6.257812 11.460938 6.238281 11.394531 6.226562 L 11.394531 5.746094 L 10.835938 5.746094 L 10.835938 6.230469 C 10.617188 6.277344 10.449219 6.375 10.339844 6.523438 C 10.214844 6.695312 10.148438 6.890625 10.148438 7.101562 C 10.148438 7.265625 10.183594 7.410156 10.253906 7.53125 C 10.324219 7.65625 10.417969 7.75 10.53125 7.820312 C 10.644531 7.886719 10.804688 7.957031 11.003906 8.027344 C 11.226562 8.105469 11.371094 8.171875 11.4375 8.222656 C 11.5 8.273438 11.535156 8.347656 11.535156 8.449219 C 11.535156 8.546875 11.5 8.628906 11.4375 8.695312 C 11.371094 8.765625 11.269531 8.796875 11.132812 8.796875 C 10.835938 8.796875 10.664062 8.640625 10.613281 8.320312 L 10.046875 8.46875 C 10.152344 8.941406 10.417969 9.214844 10.835938 9.289062 L 10.835938 9.773438 L 11.394531 9.773438 L 11.394531 9.289062 C 11.398438 9.285156 11.402344 9.285156 11.40625 9.285156 C 11.410156 9.285156 11.414062 9.285156 11.414062 9.285156 C 11.648438 9.242188 11.828125 9.148438 11.960938 9 C 12.113281 8.828125 12.1875 8.617188 12.1875 8.363281 C 12.1875 8.195312 12.152344 8.050781 12.078125 7.925781 " fill-opacity="1" fill-rule="nonzero"/><path fill="#ff725e" d="M 11.117188 9.71875 C 10.035156 9.71875 9.160156 8.839844 9.160156 7.761719 C 9.160156 6.679688 10.035156 5.800781 11.117188 5.800781 C 12.199219 5.800781 13.074219 6.679688 13.074219 7.761719 C 13.074219 8.839844 12.199219 9.71875 11.117188 9.71875 Z M 11.117188 5.03125 C 9.609375 5.03125 8.390625 6.253906 8.390625 7.761719 C 8.390625 9.265625 9.609375 10.488281 11.117188 10.488281 C 12.625 10.488281 13.84375 9.265625 13.84375 7.761719 C 13.84375 6.253906 12.625 5.03125 11.117188 5.03125 " fill-opacity="1" fill-rule="nonzero"/><path fill="#ff725e" d="M 4.042969 13.613281 C 4 13.59375 3.964844 13.566406 3.929688 13.535156 C 3.964844 13.566406 4 13.59375 4.042969 13.613281 " fill-opacity="1" fill-rule="nonzero"/><path fill="#ff725e" d="M 16.769531 8.503906 C 16.261719 9.019531 15.753906 9.539062 15.242188 10.054688 C 14.203125 11.097656 13.160156 12.136719 12.121094 13.179688 C 11.765625 13.53125 11.640625 13.53125 11.289062 13.175781 C 10.8125 12.695312 10.335938 12.210938 9.804688 11.671875 C 9.519531 11.976562 9.269531 12.261719 9 12.53125 C 8.054688 13.488281 7.097656 14.441406 6.148438 15.394531 C 6.09375 15.449219 6.035156 15.503906 5.976562 15.554688 C 5.757812 15.746094 5.59375 15.746094 5.382812 15.542969 C 5.027344 15.191406 4.675781 14.835938 4.320312 14.480469 C 4.28125 14.441406 4.238281 14.410156 4.144531 14.328125 C 3.871094 14.621094 3.605469 14.914062 3.328125 15.199219 C 2.84375 15.691406 2.359375 16.179688 1.859375 16.652344 C 1.761719 16.746094 1.578125 16.816406 1.453125 16.792969 C 1.15625 16.734375 1.09375 16.398438 1.320312 16.167969 C 1.753906 15.722656 2.191406 15.289062 2.628906 14.851562 C 3.035156 14.445312 3.4375 14.042969 3.84375 13.640625 C 4.105469 13.386719 4.261719 13.382812 4.519531 13.640625 C 4.902344 14.023438 5.273438 14.414062 5.703125 14.851562 C 5.996094 14.535156 6.257812 14.242188 6.53125 13.96875 C 7.472656 13.015625 8.421875 12.070312 9.367188 11.125 C 9.410156 11.078125 9.457031 11.035156 9.503906 10.992188 C 9.75 10.761719 9.902344 10.753906 10.144531 10.992188 C 10.585938 11.425781 11.023438 11.867188 11.457031 12.304688 C 11.53125 12.375 11.59375 12.453125 11.640625 12.507812 C 13.175781 10.972656 14.691406 9.453125 16.191406 7.953125 C 15.933594 7.980469 15.628906 8.011719 15.324219 8.050781 C 15.027344 8.085938 14.734375 8.128906 14.441406 8.167969 C 14.203125 8.199219 14 8.0625 13.96875 7.851562 C 13.9375 7.644531 14.101562 7.464844 14.347656 7.433594 C 15.3125 7.3125 16.273438 7.1875 17.234375 7.066406 C 17.546875 7.027344 17.742188 7.230469 17.703125 7.542969 C 17.582031 8.492188 17.464844 9.4375 17.34375 10.382812 C 17.308594 10.667969 17.132812 10.84375 16.917969 10.804688 C 16.6875 10.765625 16.574219 10.558594 16.613281 10.28125 C 16.691406 9.703125 16.761719 9.121094 16.832031 8.539062 C 16.8125 8.527344 16.792969 8.515625 16.769531 8.503906 " fill-opacity="1" fill-rule="nonzero"/><path fill="#ff725e" d="M 14.714844 15.707031 C 14.714844 14.730469 14.714844 13.75 14.714844 12.773438 C 14.714844 12.582031 14.769531 12.410156 14.960938 12.367188 C 15.078125 12.339844 15.246094 12.375 15.335938 12.449219 C 15.414062 12.511719 15.453125 12.667969 15.453125 12.785156 C 15.464844 13.308594 15.460938 13.832031 15.460938 14.359375 C 15.460938 15.753906 15.460938 17.148438 15.460938 18.539062 C 15.460938 18.601562 15.464844 18.667969 15.457031 18.726562 C 15.433594 18.929688 15.265625 19.085938 15.082031 19.082031 C 14.898438 19.078125 14.726562 18.917969 14.71875 18.714844 C 14.707031 18.433594 14.714844 18.152344 14.714844 17.871094 C 14.714844 17.148438 14.714844 16.429688 14.714844 15.707031 " fill-opacity="1" fill-rule="nonzero"/><path fill="#ff725e" d="M 13.210938 16.257812 C 13.210938 15.484375 13.210938 14.707031 13.210938 13.933594 C 13.210938 13.640625 13.359375 13.457031 13.578125 13.453125 C 13.804688 13.453125 13.957031 13.636719 13.957031 13.925781 C 13.957031 15.484375 13.957031 17.042969 13.957031 18.601562 C 13.957031 18.890625 13.808594 19.078125 13.585938 19.082031 C 13.363281 19.085938 13.210938 18.894531 13.210938 18.609375 C 13.210938 17.824219 13.210938 17.042969 13.210938 16.257812 " fill-opacity="1" fill-rule="nonzero"/><path fill="#ff725e" d="M 10.203125 16.429688 C 10.203125 15.726562 10.203125 15.023438 10.203125 14.316406 C 10.203125 14.011719 10.355469 13.820312 10.585938 13.828125 C 10.808594 13.835938 10.949219 14.023438 10.949219 14.316406 C 10.949219 15.742188 10.949219 17.167969 10.949219 18.59375 C 10.949219 18.894531 10.792969 19.089844 10.5625 19.082031 C 10.34375 19.070312 10.203125 18.886719 10.203125 18.59375 C 10.203125 17.871094 10.203125 17.152344 10.203125 16.429688 " fill-opacity="1" fill-rule="nonzero"/><path fill="#ff725e" d="M 9.445312 16.644531 C 9.445312 17.292969 9.445312 17.941406 9.441406 18.59375 C 9.441406 18.898438 9.289062 19.089844 9.058594 19.082031 C 8.835938 19.070312 8.699219 18.890625 8.699219 18.59375 C 8.699219 17.292969 8.699219 15.992188 8.699219 14.691406 C 8.699219 14.398438 8.839844 14.214844 9.058594 14.207031 C 9.292969 14.199219 9.441406 14.390625 9.441406 14.691406 C 9.445312 15.34375 9.445312 15.992188 9.445312 16.644531 " fill-opacity="1" fill-rule="nonzero"/><path fill="#ff725e" d="M 11.707031 16.832031 C 11.707031 16.234375 11.707031 15.640625 11.707031 15.046875 C 11.707031 14.761719 11.867188 14.574219 12.089844 14.582031 C 12.304688 14.589844 12.449219 14.769531 12.449219 15.046875 C 12.453125 16.234375 12.453125 17.425781 12.449219 18.617188 C 12.449219 18.902344 12.292969 19.089844 12.066406 19.082031 C 11.855469 19.074219 11.707031 18.890625 11.707031 18.617188 C 11.707031 18.019531 11.707031 17.425781 11.707031 16.832031 " fill-opacity="1" fill-rule="nonzero"/><path fill="#ff725e" d="M 7.195312 17.582031 C 7.195312 17.230469 7.191406 16.878906 7.195312 16.527344 C 7.199219 16.261719 7.363281 16.078125 7.582031 16.085938 C 7.789062 16.09375 7.9375 16.269531 7.9375 16.527344 C 7.941406 17.230469 7.941406 17.9375 7.9375 18.640625 C 7.9375 18.90625 7.773438 19.089844 7.554688 19.082031 C 7.347656 19.074219 7.199219 18.890625 7.195312 18.640625 C 7.195312 18.289062 7.195312 17.933594 7.195312 17.582031 " fill-opacity="1" fill-rule="nonzero"/><path fill="#ff725e" d="M 4.933594 17.765625 C 4.933594 18.046875 4.933594 18.328125 4.929688 18.609375 C 4.929688 18.898438 4.777344 19.085938 4.554688 19.082031 C 4.339844 19.078125 4.1875 18.890625 4.1875 18.621094 C 4.1875 18.050781 4.1875 17.480469 4.1875 16.90625 C 4.191406 16.640625 4.347656 16.457031 4.566406 16.460938 C 4.78125 16.464844 4.929688 16.644531 4.929688 16.917969 C 4.933594 17.199219 4.933594 17.484375 4.933594 17.765625 " fill-opacity="1" fill-rule="nonzero"/><path fill="#ff725e" d="M 3.429688 17.960938 C 3.429688 18.195312 3.433594 18.429688 3.425781 18.667969 C 3.421875 18.902344 3.265625 19.074219 3.066406 19.082031 C 2.855469 19.085938 2.6875 18.910156 2.683594 18.660156 C 2.679688 18.191406 2.679688 17.722656 2.683594 17.25 C 2.6875 17.015625 2.847656 16.84375 3.046875 16.835938 C 3.257812 16.832031 3.417969 17.007812 3.425781 17.257812 C 3.429688 17.375 3.429688 17.492188 3.429688 17.609375 C 3.429688 17.726562 3.429688 17.84375 3.429688 17.960938 " fill-opacity="1" fill-rule="nonzero"/><path fill="#ff725e" d="M 5.691406 17.964844 C 5.691406 17.730469 5.6875 17.496094 5.691406 17.261719 C 5.699219 17.011719 5.859375 16.832031 6.070312 16.835938 C 6.269531 16.839844 6.429688 17.011719 6.433594 17.25 C 6.4375 17.726562 6.441406 18.203125 6.433594 18.679688 C 6.429688 18.914062 6.257812 19.085938 6.058594 19.082031 C 5.855469 19.078125 5.699219 18.902344 5.695312 18.667969 C 5.6875 18.433594 5.691406 18.199219 5.691406 17.964844 " fill-opacity="1" fill-rule="nonzero"/><path fill="#ff725e" d="M 1.921875 18.34375 C 1.921875 18.46875 1.929688 18.59375 1.921875 18.71875 C 1.902344 18.925781 1.742188 19.078125 1.554688 19.082031 C 1.371094 19.082031 1.195312 18.929688 1.183594 18.722656 C 1.171875 18.46875 1.171875 18.207031 1.183594 17.949219 C 1.195312 17.746094 1.363281 17.589844 1.550781 17.589844 C 1.734375 17.585938 1.902344 17.742188 1.917969 17.945312 C 1.929688 18.078125 1.921875 18.210938 1.921875 18.34375 " fill-opacity="1" fill-rule="nonzero"/><g clip-path="url(#f8cb9e802c)"><path fill="#ff725e" d="M 21.699219 9.519531 C 21.601562 9.808594 21.425781 9.972656 21.148438 10.046875 C 21.074219 10.0625 20.992188 10.074219 20.914062 10.074219 L 18.710938 10.074219 L 18.710938 11.882812 C 18.710938 13.285156 18.710938 14.6875 18.710938 15.878906 L 18.710938 17.132812 L 18.714844 17.132812 L 18.714844 19.542969 L 19.394531 19.542969 C 19.636719 19.542969 19.828125 19.738281 19.828125 19.980469 C 19.828125 20.222656 19.636719 20.414062 19.394531 20.414062 L 0 20.414062 L 0 19.542969 L 17.851562 19.542969 L 17.851562 9.214844 L 20.363281 9.214844 L 20.75 9.222656 L 20.042969 8.628906 L 19.011719 7.769531 C 18.144531 7.042969 17.28125 6.320312 16.414062 5.59375 L 15.527344 4.851562 C 14.121094 3.675781 12.65625 2.449219 11.199219 1.222656 C 11.109375 1.152344 11.078125 1.144531 11.074219 1.144531 C 11.074219 1.144531 11.042969 1.152344 10.957031 1.226562 C 9.328125 2.636719 7.691406 4.050781 6.0625 5.460938 C 4.761719 6.585938 3.460938 7.707031 2.160156 8.832031 L 1.710938 9.21875 L 2.121094 9.214844 L 5.15625 9.214844 C 5.394531 9.214844 5.589844 9.40625 5.589844 9.644531 C 5.589844 9.882812 5.394531 10.074219 5.15625 10.074219 L 4.675781 10.074219 L 4.675781 12.714844 C 4.535156 12.652344 4.371094 12.601562 4.183594 12.601562 C 4.042969 12.601562 3.910156 12.628906 3.796875 12.671875 C 3.796875 12.46875 3.796875 12.320312 3.796875 12.320312 L 3.796875 10.074219 L 1.574219 10.074219 C 1.164062 10.070312 0.871094 9.875 0.753906 9.53125 C 0.636719 9.1875 0.730469 8.925781 1.078125 8.628906 L 10.460938 0.527344 C 10.683594 0.332031 10.882812 0.238281 11.070312 0.238281 C 11.257812 0.238281 11.460938 0.332031 11.6875 0.519531 C 13.960938 2.414062 16.355469 4.417969 19.09375 6.707031 L 21.378906 8.617188 C 21.707031 8.890625 21.808594 9.1875 21.699219 9.519531 " fill-opacity="1" fill-rule="nonzero"/></g><g fill="#ffffff" fill-opacity="1"><g transform="translate(7.50187, 10.976226)"><g><path d="M 0.09375 0 L 0.09375 -0.140625 L 0.484375 -0.140625 L 0.484375 -1.203125 L 0.453125 -1.203125 C 0.390625 -1.171875 0.332031 -1.144531 0.28125 -1.125 C 0.238281 -1.113281 0.1875 -1.101562 0.125 -1.09375 L 0.125 -1.234375 C 0.1875 -1.253906 0.253906 -1.273438 0.328125 -1.296875 C 0.398438 -1.328125 0.460938 -1.359375 0.515625 -1.390625 L 0.640625 -1.390625 L 0.640625 -0.140625 L 0.984375 -0.140625 L 0.984375 0 Z M 0.09375 0 "/></g></g></g></svg>