<svg width="61" height="60" viewBox="0 0 61 60" fill="none" xmlns="http://www.w3.org/2000/svg">
<g id="planning">
<g id="Group">
<g id="Group_2">
<path id="Vector" d="M15.3851 17.6602C14.6386 17.6593 13.9229 17.3623 13.395 16.8345C12.8671 16.3066 12.5702 15.5909 12.5693 14.8444V10.9017C12.5693 10.1549 12.866 9.43872 13.3941 8.91066C13.9221 8.3826 14.6383 8.08594 15.3851 8.08594C16.1319 8.08594 16.8481 8.3826 17.3762 8.91066C17.9042 9.43872 18.2009 10.1549 18.2009 10.9017V14.8444C18.2 15.5909 17.9031 16.3066 17.3752 16.8345C16.8473 17.3623 16.1316 17.6593 15.3851 17.6602ZM15.3851 9.72656C15.0736 9.72693 14.7749 9.85087 14.5546 10.0712C14.3343 10.2915 14.2103 10.5902 14.21 10.9017V14.8444C14.21 14.9987 14.2404 15.1515 14.2994 15.2941C14.3585 15.4367 14.445 15.5662 14.5542 15.6753C14.6633 15.7845 14.7928 15.871 14.9354 15.9301C15.078 15.9891 15.2308 16.0195 15.3851 16.0195C15.5394 16.0195 15.6923 15.9891 15.8348 15.9301C15.9774 15.871 16.107 15.7845 16.2161 15.6753C16.3252 15.5662 16.4118 15.4367 16.4708 15.2941C16.5299 15.1515 16.5603 14.9987 16.5603 14.8444V10.9017C16.5606 10.7473 16.5304 10.5943 16.4712 10.4517C16.4121 10.309 16.3253 10.1795 16.2157 10.0706C15.9951 9.85085 15.6965 9.72718 15.3851 9.72656Z" fill="#FF725E"/>
<path id="Vector_2" d="M23.2411 17.6602C22.4946 17.6593 21.779 17.3623 21.2512 16.8344C20.7234 16.3066 20.4265 15.5909 20.4258 14.8444V10.9017C20.4258 10.1549 20.7224 9.43872 21.2505 8.91066C21.7786 8.3826 22.4948 8.08594 23.2416 8.08594C23.9884 8.08594 24.7046 8.3826 25.2326 8.91066C25.7607 9.43872 26.0573 10.1549 26.0573 10.9017V14.8444C26.0565 15.591 25.7595 16.3068 25.2315 16.8346C24.7035 17.3625 23.9877 17.6594 23.2411 17.6602ZM23.2411 9.72656C22.9296 9.72694 22.6309 9.85088 22.4107 10.0712C22.1905 10.2915 22.0667 10.5902 22.0664 10.9017V14.8444C22.0664 15.156 22.1902 15.455 22.4106 15.6753C22.631 15.8957 22.9299 16.0195 23.2416 16.0195C23.5532 16.0195 23.8521 15.8957 24.0725 15.6753C24.2929 15.455 24.4167 15.156 24.4167 14.8444V10.9017C24.4166 10.59 24.2927 10.2911 24.0722 10.0707C23.8518 9.85036 23.5528 9.72656 23.2411 9.72656Z" fill="#FF725E"/>
<path id="Vector_3" d="M31.1029 17.6602C30.3564 17.6593 29.6407 17.3623 29.1128 16.8345C28.5849 16.3066 28.288 15.5909 28.2871 14.8444V10.9017C28.2871 10.1549 28.5838 9.43872 29.1118 8.91066C29.6399 8.3826 30.3561 8.08594 31.1029 8.08594C31.8497 8.08594 32.5659 8.3826 33.0939 8.91066C33.622 9.43872 33.9187 10.1549 33.9187 10.9017V14.8444C33.9178 15.5909 33.6209 16.3066 33.093 16.8345C32.5651 17.3623 31.8494 17.6593 31.1029 17.6602ZM31.1029 9.72656C30.7913 9.72693 30.4926 9.85087 30.2723 10.0712C30.052 10.2915 29.9281 10.5902 29.9277 10.9017V14.8444C29.9277 15.156 30.0515 15.455 30.2719 15.6753C30.4923 15.8957 30.7912 16.0195 31.1029 16.0195C31.4146 16.0195 31.7135 15.8957 31.9339 15.6753C32.1542 15.455 32.278 15.156 32.278 14.8444V10.9017C32.2779 10.5901 32.1541 10.2913 31.9337 10.0709C31.7134 9.85054 31.4145 9.72669 31.1029 9.72656Z" fill="#FF725E"/>
<path id="Vector_4" d="M38.9596 17.6601C38.213 17.6592 37.4973 17.3623 36.9695 16.8344C36.4416 16.3066 36.1447 15.5909 36.1438 14.8443V10.9017C36.139 10.5289 36.2083 10.1588 36.3476 9.81301C36.4869 9.4672 36.6935 9.1525 36.9555 8.88717C37.2174 8.62184 37.5294 8.41117 37.8734 8.26739C38.2174 8.1236 38.5865 8.04956 38.9593 8.04956C39.3322 8.04956 39.7013 8.1236 40.0453 8.26739C40.3893 8.41117 40.7013 8.62184 40.9632 8.88717C41.2251 9.1525 41.4317 9.4672 41.5711 9.81301C41.7104 10.1588 41.7797 10.5289 41.7749 10.9017V14.8443C41.7741 15.5908 41.4773 16.3065 40.9495 16.8344C40.4217 17.3623 39.7061 17.6592 38.9596 17.6601ZM38.9596 9.72652C38.648 9.72689 38.3493 9.85082 38.129 10.0711C37.9087 10.2914 37.7848 10.5901 37.7844 10.9017V14.8443C37.7813 15.0006 37.8094 15.1559 37.867 15.3012C37.9247 15.4465 38.0107 15.5788 38.1201 15.6904C38.2295 15.802 38.3601 15.8907 38.5042 15.9512C38.6483 16.0118 38.803 16.043 38.9593 16.043C39.1156 16.043 39.2704 16.0118 39.4145 15.9512C39.5586 15.8907 39.6891 15.802 39.7986 15.6904C39.908 15.5788 39.994 15.4465 40.0517 15.3012C40.1093 15.1559 40.1374 15.0006 40.1343 14.8443V10.9017C40.1343 10.7474 40.104 10.5946 40.045 10.452C39.986 10.3094 39.8994 10.1799 39.7904 10.0707C39.6813 9.96161 39.5518 9.87504 39.4092 9.81598C39.2667 9.75691 39.1139 9.72652 38.9596 9.72652Z" fill="#FF725E"/>
<path id="Vector_5" d="M45.3125 20.6292H9.03125C8.81369 20.6292 8.60504 20.5428 8.4512 20.389C8.29736 20.2351 8.21094 20.0265 8.21094 19.8089V15.292C8.21193 14.4333 8.55351 13.61 9.16073 13.0028C9.76796 12.3955 10.5913 12.054 11.45 12.053H13.3906C13.6082 12.053 13.8168 12.1394 13.9707 12.2932C14.1245 12.4471 14.2109 12.6557 14.2109 12.8733V14.842C14.2109 15.1537 14.3347 15.4526 14.5551 15.673C14.7755 15.8934 15.0744 16.0172 15.3861 16.0172C15.6978 16.0172 15.9967 15.8934 16.2171 15.673C16.4374 15.4526 16.5612 15.1537 16.5612 14.842V12.8733C16.5612 12.6557 16.6477 12.4471 16.8015 12.2932C16.9554 12.1394 17.164 12.053 17.3816 12.053H21.2478C21.4654 12.053 21.674 12.1394 21.8279 12.2932C21.9817 12.4471 22.0681 12.6557 22.0681 12.8733V14.842C22.0681 15.1537 22.1919 15.4526 22.4123 15.673C22.6327 15.8934 22.9316 16.0172 23.2433 16.0172C23.555 16.0172 23.8539 15.8934 24.0742 15.673C24.2946 15.4526 24.4184 15.1537 24.4184 14.842V12.8733C24.4184 12.7655 24.4396 12.6589 24.4808 12.5593C24.522 12.4597 24.5824 12.3693 24.6586 12.2931C24.7347 12.2169 24.8252 12.1565 24.9248 12.1153C25.0243 12.0741 25.131 12.0529 25.2387 12.053H29.1087C29.3263 12.053 29.535 12.1394 29.6888 12.2932C29.8426 12.4471 29.9291 12.6557 29.9291 12.8733V14.842C29.9291 15.1537 30.0529 15.4526 30.2733 15.673C30.4936 15.8934 30.7925 16.0172 31.1042 16.0172C31.4159 16.0172 31.7148 15.8934 31.9352 15.673C32.1556 15.4526 32.2794 15.1537 32.2794 14.842V12.8733C32.2793 12.7655 32.3005 12.6589 32.3417 12.5593C32.3829 12.4597 32.4433 12.3693 32.5195 12.2931C32.5957 12.2169 32.6861 12.1565 32.7857 12.1153C32.8852 12.0741 32.9919 12.0529 33.0997 12.053H36.9659C37.0737 12.0529 37.1804 12.0741 37.2799 12.1153C37.3795 12.1565 37.4699 12.2169 37.5461 12.2931C37.6223 12.3693 37.6827 12.4597 37.7239 12.5593C37.7651 12.6589 37.7863 12.7655 37.7862 12.8733V14.842C37.7831 14.9983 37.8112 15.1536 37.8689 15.2989C37.9265 15.4442 38.0125 15.5765 38.122 15.6881C38.2314 15.7998 38.3619 15.8884 38.506 15.949C38.6501 16.0095 38.8049 16.0407 38.9612 16.0407C39.1175 16.0407 39.2722 16.0095 39.4163 15.949C39.5604 15.8884 39.691 15.7998 39.8004 15.6881C39.9098 15.5765 39.9958 15.4442 40.0535 15.2989C40.1111 15.1536 40.1392 14.9983 40.1361 14.842V12.8733C40.1361 12.6557 40.2225 12.4471 40.3764 12.2932C40.5302 12.1394 40.7388 12.053 40.9564 12.053H42.8956C43.7544 12.0538 44.5778 12.3954 45.185 13.0026C45.7923 13.6099 46.1338 14.4333 46.1347 15.292V19.8089C46.1347 19.9168 46.1135 20.0237 46.0722 20.1233C46.0309 20.223 45.9703 20.3136 45.8939 20.3898C45.8175 20.466 45.7268 20.5264 45.6271 20.5675C45.5273 20.6085 45.4204 20.6295 45.3125 20.6292ZM9.85109 18.9886H44.4917V15.292C44.4912 14.8683 44.3227 14.462 44.023 14.1623C43.7233 13.8627 43.3171 13.6941 42.8933 13.6936H41.7753V14.8444C41.7801 15.2172 41.7108 15.5872 41.5715 15.933C41.4322 16.2789 41.2256 16.5936 40.9636 16.8589C40.7017 17.1242 40.3897 17.3349 40.0457 17.4787C39.7017 17.6225 39.3326 17.6965 38.9598 17.6965C38.5869 17.6965 38.2178 17.6225 37.8738 17.4787C37.5298 17.3349 37.2178 17.1242 36.9559 16.8589C36.694 16.5936 36.4874 16.2789 36.348 15.933C36.2087 15.5872 36.1394 15.2172 36.1442 14.8444V13.6936H33.9186V14.8444C33.9186 15.5912 33.6219 16.3074 33.0939 16.8354C32.5658 17.3635 31.8496 17.6602 31.1028 17.6602C30.356 17.6602 29.6398 17.3635 29.1118 16.8354C28.5837 16.3074 28.287 15.5912 28.287 14.8444V13.6936H26.0577V14.8444C26.0577 15.5912 25.761 16.3074 25.2329 16.8354C24.7049 17.3635 23.9887 17.6602 23.2419 17.6602C22.4951 17.6602 21.7789 17.3635 21.2508 16.8354C20.7228 16.3074 20.4261 15.5912 20.4261 14.8444V13.6936H18.2005V14.8444C18.2005 15.5912 17.9038 16.3074 17.3757 16.8354C16.8477 17.3635 16.1315 17.6602 15.3847 17.6602C14.6379 17.6602 13.9217 17.3635 13.3936 16.8354C12.8656 16.3074 12.5689 15.5912 12.5689 14.8444V13.6936H11.45C11.0262 13.6941 10.6199 13.8627 10.3203 14.1623C10.0206 14.462 9.85206 14.8683 9.85156 15.292L9.85109 18.9886Z" fill="#FF725E"/>
<path id="Vector_6" d="M33.6594 46.0078H11.45C10.5912 46.0069 9.76785 45.6654 9.1606 45.0581C8.55334 44.4509 8.21181 43.6275 8.21094 42.7687V19.8093C8.21094 19.5918 8.29736 19.3831 8.4512 19.2293C8.60504 19.0754 8.81369 18.989 9.03125 18.989H45.3125C45.4202 18.989 45.5269 19.0101 45.6265 19.0513C45.726 19.0925 45.8165 19.153 45.8927 19.2291C45.9689 19.3053 46.0293 19.3958 46.0705 19.4953C46.1117 19.5949 46.1329 19.7016 46.1328 19.8093V33.5343C46.1328 33.6667 46.1009 33.797 46.0396 33.9143C45.9783 34.0316 45.8896 34.1323 45.7809 34.2079C45.6723 34.2835 45.547 34.3316 45.4157 34.3483C45.2845 34.365 45.1511 34.3496 45.027 34.3035C43.5475 33.7567 41.9422 33.6455 40.4013 33.9831C38.8605 34.3207 37.4487 35.0929 36.3333 36.2083C35.218 37.3237 34.4457 38.7354 34.1081 40.2763C33.7705 41.8171 33.8818 43.4224 34.4286 44.902C34.4746 45.026 34.49 45.1594 34.4733 45.2907C34.4567 45.422 34.4085 45.5473 34.333 45.6559C34.2574 45.7645 34.1567 45.8533 34.0394 45.9145C33.9221 45.9758 33.7917 46.0078 33.6594 46.0078ZM9.85156 20.6296V42.7687C9.85206 43.1925 10.0206 43.5988 10.3203 43.8984C10.6199 44.1981 11.0262 44.3666 11.45 44.3671H32.5527C32.155 42.7195 32.1873 40.9974 32.6464 39.3658C33.1055 37.7342 33.976 36.2479 35.1745 35.0494C36.373 33.851 37.8593 32.9804 39.4908 32.5213C41.1224 32.0622 42.8446 32.03 44.4922 32.4276V20.6296H9.85156Z" fill="#FF725E"/>
</g>
<path id="Vector_7" d="M42.1574 51.9141C40.2023 51.9147 38.2909 51.3354 36.665 50.2495C35.0392 49.1637 33.7719 47.62 33.0234 45.8138C32.275 44.0076 32.079 42.02 32.4603 40.1025C32.8416 38.1849 33.783 36.4235 35.1655 35.041C36.548 33.6585 38.3094 32.7171 40.227 32.3358C42.1446 31.9545 44.1322 32.1505 45.9383 32.8989C47.7445 33.6474 49.2882 34.9147 50.374 36.5405C51.4599 38.1664 52.0392 40.0778 52.0386 42.0329C52.0255 44.6495 50.9802 47.1552 49.1299 49.0054C47.2797 50.8557 44.774 51.9009 42.1574 51.9141ZM42.1574 33.7922C40.1024 33.796 38.1233 34.5687 36.6095 35.9584C35.0957 37.3481 34.1569 39.2541 33.9779 41.3013C33.7989 43.3484 34.3926 45.3885 35.6422 47.0198C36.8918 48.6512 38.7068 49.7557 40.7299 50.116C42.753 50.4764 44.8378 50.0664 46.5738 48.9668C48.3098 47.8672 49.5713 46.1576 50.1101 44.1745C50.6489 42.1914 50.4259 40.0785 49.485 38.2516C48.5441 36.4247 46.9534 35.0162 45.0261 34.3032C44.1078 33.964 43.1364 33.791 42.1574 33.7922Z" fill="#6A797C"/>
<path id="Vector_8" d="M42.1582 42.8531C42.0505 42.8531 41.9438 42.8319 41.8442 42.7907C41.7447 42.7495 41.6542 42.6891 41.578 42.6129C41.5018 42.5367 41.4414 42.4463 41.4002 42.3467C41.359 42.2472 41.3378 42.1405 41.3379 42.0327V36.3323C41.3379 36.1147 41.4243 35.9061 41.5782 35.7522C41.732 35.5984 41.9406 35.512 42.1582 35.512C42.3758 35.512 42.5844 35.5984 42.7383 35.7522C42.8921 35.9061 42.9785 36.1147 42.9785 36.3323V42.0327C42.9786 42.1405 42.9574 42.2472 42.9162 42.3467C42.875 42.4463 42.8146 42.5367 42.7384 42.6129C42.6622 42.6891 42.5717 42.7495 42.4722 42.7907C42.3726 42.8319 42.2659 42.8531 42.1582 42.8531Z" fill="#6A797C"/>
<path id="Vector_9" d="M47.989 42.853H42.1582C41.9406 42.853 41.732 42.7666 41.5782 42.6128C41.4243 42.4589 41.3379 42.2503 41.3379 42.0327C41.3379 41.8152 41.4243 41.6065 41.5782 41.4527C41.732 41.2988 41.9406 41.2124 42.1582 41.2124H47.989C48.2065 41.2124 48.4152 41.2988 48.569 41.4527C48.7229 41.6065 48.8093 41.8152 48.8093 42.0327C48.8093 42.2503 48.7229 42.4589 48.569 42.6128C48.4152 42.7666 48.2065 42.853 47.989 42.853Z" fill="#6A797C"/>
<g id="Group_3">
<path id="Vector_10" d="M16.7576 27.6788C16.5401 27.6786 16.3315 27.5921 16.1778 27.4383L14.1153 25.3758C14.0391 25.2996 13.9787 25.2092 13.9374 25.1096C13.8962 25.0101 13.875 24.9034 13.875 24.7957C13.875 24.688 13.8962 24.5813 13.9374 24.4818C13.9787 24.3822 14.0391 24.2918 14.1153 24.2156C14.1915 24.1395 14.2819 24.079 14.3814 24.0378C14.4809 23.9966 14.5876 23.9754 14.6954 23.9754C14.8031 23.9754 14.9098 23.9966 15.0093 24.0378C15.1088 24.079 15.1993 24.1395 15.2754 24.2156L16.7595 25.7002L18.9997 23.46C19.1535 23.3062 19.3622 23.2197 19.5797 23.2197C19.7973 23.2197 20.006 23.3062 20.1598 23.46C20.3137 23.6138 20.4001 23.8225 20.4001 24.0401C20.4001 24.2577 20.3137 24.4663 20.1598 24.6202L17.3379 27.4383C17.184 27.5922 16.9753 27.6787 16.7576 27.6788Z" fill="#FF725E"/>
<path id="Vector_11" d="M39.6521 26.2683H23.8389C23.6213 26.2683 23.4127 26.1819 23.2588 26.028C23.105 25.8742 23.0186 25.6656 23.0186 25.448C23.0186 25.2304 23.105 25.0218 23.2588 24.8679C23.4127 24.7141 23.6213 24.6277 23.8389 24.6277H39.6521C39.8697 24.6277 40.0784 24.7141 40.2322 24.8679C40.386 25.0218 40.4725 25.2304 40.4725 25.448C40.4725 25.6656 40.386 25.8742 40.2322 26.028C40.0784 26.1819 39.8697 26.2683 39.6521 26.2683Z" fill="#FF725E"/>
</g>
<g id="Group_4">
<path id="Vector_12" d="M16.7576 34.335C16.6499 34.3351 16.5432 34.3139 16.4437 34.2726C16.3442 34.2313 16.2538 34.1708 16.1778 34.0945L14.1153 32.032C13.9614 31.8782 13.875 31.6695 13.875 31.4519C13.875 31.2344 13.9614 31.0257 14.1153 30.8719C14.2691 30.718 14.4778 30.6316 14.6954 30.6316C14.9129 30.6316 15.1216 30.718 15.2754 30.8719L16.7595 32.3559L18.9997 30.1158C19.1535 29.9619 19.3622 29.8755 19.5797 29.8755C19.7973 29.8755 20.006 29.9619 20.1598 30.1158C20.3137 30.2696 20.4001 30.4783 20.4001 30.6958C20.4001 30.9134 20.3137 31.1221 20.1598 31.2759L17.3379 34.0945C17.2618 34.1709 17.1714 34.2314 17.0718 34.2727C16.9722 34.3139 16.8654 34.3351 16.7576 34.335Z" fill="#FF725E"/>
<path id="Vector_13" d="M33.2195 32.925H23.8389C23.6213 32.925 23.4127 32.8386 23.2588 32.6848C23.105 32.5309 23.0186 32.3223 23.0186 32.1047C23.0186 31.8872 23.105 31.6785 23.2588 31.5247C23.4127 31.3709 23.6213 31.2844 23.8389 31.2844H33.2195C33.4371 31.2844 33.6457 31.3709 33.7995 31.5247C33.9534 31.6785 34.0398 31.8872 34.0398 32.1047C34.0398 32.3223 33.9534 32.5309 33.7995 32.6848C33.6457 32.8386 33.4371 32.925 33.2195 32.925Z" fill="#FF725E"/>
</g>
<g id="Group_5">
<path id="Vector_14" d="M16.7573 40.9913C16.6496 40.9913 16.543 40.9702 16.4435 40.929C16.344 40.8878 16.2536 40.8274 16.1774 40.7513L14.1149 38.6888C13.9655 38.534 13.8829 38.3268 13.8848 38.1117C13.8867 37.8966 13.973 37.6909 14.1251 37.5388C14.2773 37.3868 14.483 37.3006 14.6981 37.2987C14.9132 37.2969 15.1204 37.3796 15.2751 37.5291L16.7591 39.0131L18.9993 36.773C19.1531 36.6191 19.3618 36.5327 19.5794 36.5327C19.7969 36.5327 20.0056 36.6191 20.1595 36.773C20.3133 36.9268 20.3997 37.1355 20.3997 37.3531C20.3997 37.5706 20.3133 37.7793 20.1595 37.9331L17.3376 40.7513C17.2614 40.8275 17.1709 40.8879 17.0713 40.9291C16.9717 40.9703 16.865 40.9914 16.7573 40.9913Z" fill="#FF725E"/>
<path id="Vector_15" d="M29.3035 39.5813H23.8379C23.6203 39.5813 23.4117 39.4949 23.2578 39.341C23.104 39.1872 23.0176 38.9785 23.0176 38.761C23.0176 38.5434 23.104 38.3348 23.2578 38.1809C23.4117 38.0271 23.6203 37.9407 23.8379 37.9407H29.3035C29.5211 37.9407 29.7297 38.0271 29.8836 38.1809C30.0374 38.3348 30.1238 38.5434 30.1238 38.761C30.1238 38.9785 30.0374 39.1872 29.8836 39.341C29.7297 39.4949 29.5211 39.5813 29.3035 39.5813Z" fill="#FF725E"/>
</g>
</g>
</g>
</svg>
