<svg width="61" height="60" viewBox="0 0 61 60" fill="none" xmlns="http://www.w3.org/2000/svg">
<g id="reading">
<g id="Group">
<path id="Vector" d="M30.0841 9.20386C28.6676 9.2042 27.2746 9.56524 26.0363 10.2529C24.7981 10.9407 23.7553 11.9324 23.0064 13.1346C22.2575 14.3369 21.8271 15.71 21.7557 17.1246C21.6844 18.5393 21.9744 19.9488 22.5986 21.2203C22.6474 21.3193 22.7158 21.4075 22.7995 21.4794C22.8833 21.5513 22.9808 21.6056 23.0861 21.6389L29.8361 23.781C29.9974 23.8323 30.1707 23.8323 30.332 23.781L37.082 21.6389C37.1873 21.6056 37.2848 21.5513 37.3686 21.4794C37.4524 21.4075 37.5207 21.3193 37.5695 21.2203C38.1937 19.9488 38.4838 18.5393 38.4124 17.1246C38.3411 15.71 37.9106 14.3369 37.1617 13.1346C36.4128 11.9324 35.37 10.9407 34.1318 10.2529C32.8935 9.56524 31.5005 9.2042 30.0841 9.20386ZM36.2411 20.1871L30.0841 22.1385L23.927 20.1848C23.4905 19.166 23.3136 18.0547 23.4122 16.9507C23.5108 15.8466 23.8818 14.7843 24.4921 13.859C25.1023 12.9336 25.9326 12.1742 26.9086 11.6487C27.8845 11.1232 28.9756 10.8482 30.0841 10.8482C31.1925 10.8482 32.2836 11.1232 33.2596 11.6487C34.2355 12.1742 35.0658 12.9336 35.6761 13.859C36.2863 14.7843 36.6573 15.8466 36.7559 16.9507C36.8545 18.0547 36.6776 19.166 36.2411 20.1848V20.1871Z" fill="#6A797C"/>
<path id="Vector_2" d="M30.3316 22.2187L12.0644 16.4249C11.9415 16.386 11.8111 16.3767 11.6839 16.3976C11.5567 16.4185 11.4361 16.469 11.3321 16.5452C11.2281 16.6213 11.1434 16.7209 11.0851 16.8358C11.0267 16.9508 10.9962 17.0779 10.9961 17.2068V27.913C10.9961 28.1306 11.0825 28.3393 11.2364 28.4931C11.3902 28.6469 11.5988 28.7334 11.8164 28.7334H12.5102C12.8569 28.7339 13.1892 28.8718 13.4344 29.117C13.6795 29.3621 13.8175 29.6945 13.818 30.0412V32.474C13.8175 32.8207 13.6795 33.153 13.4344 33.3982C13.1892 33.6434 12.8569 33.7813 12.5102 33.7818H11.8164C11.5989 33.7819 11.3903 33.8684 11.2365 34.0222C11.0827 34.176 10.9962 34.3846 10.9961 34.6021V44.5162C10.9964 44.6901 11.0519 44.8594 11.1547 44.9997C11.2575 45.14 11.4022 45.244 11.568 45.2966L29.8352 51.0904C29.9581 51.1294 30.0885 51.1388 30.2157 51.118C30.343 51.0971 30.4635 51.0466 30.5676 50.9704C30.6717 50.8943 30.7563 50.7946 30.8147 50.6796C30.873 50.5646 30.9034 50.4375 30.9034 50.3085V22.9991C30.9031 22.8252 30.8475 22.656 30.7447 22.5157C30.6419 22.3754 30.4973 22.2714 30.3316 22.2187ZM29.2633 49.1882L12.6367 43.9143V35.4187C13.3958 35.3849 14.1126 35.0599 14.6381 34.5112C15.1637 33.9625 15.4575 33.2324 15.4586 32.4726V30.0398C15.4575 29.28 15.1637 28.5498 14.6381 28.0012C14.1126 27.4525 13.3958 27.1274 12.6367 27.0937V18.328L29.2633 23.6015V49.1882Z" fill="#FF725E"/>
<path id="Vector_3" d="M48.834 16.5435C48.73 16.4672 48.6095 16.4166 48.4823 16.3958C48.355 16.3749 48.2247 16.3844 48.1018 16.4235L29.836 22.2186C29.67 22.2714 29.525 22.3755 29.4222 22.5161C29.3193 22.6567 29.2638 22.8263 29.2637 23.0005V50.3099C29.2637 50.4388 29.2941 50.566 29.3524 50.681C29.4108 50.796 29.4954 50.8956 29.5995 50.9718C29.7036 51.0479 29.8241 51.0985 29.9514 51.1193C30.0786 51.1402 30.209 51.1307 30.332 51.0918L48.5991 45.298C48.7652 45.2453 48.9102 45.1412 49.0131 45.0006C49.116 44.86 49.1715 44.6903 49.1715 44.5161V34.6007C49.1714 34.3831 49.0849 34.1746 48.9311 34.0207C48.7773 33.8669 48.5687 33.7805 48.3512 33.7803H47.6574C47.3107 33.7799 46.9784 33.6419 46.7332 33.3967C46.4881 33.1516 46.3501 32.8192 46.3496 32.4725V30.0397C46.3501 29.693 46.4881 29.3607 46.7332 29.1155C46.9784 28.8704 47.3107 28.7324 47.6574 28.7319H48.3512C48.5687 28.7319 48.7774 28.6455 48.9312 28.4916C49.0851 28.3378 49.1715 28.1292 49.1715 27.9116V17.2053C49.1714 17.0762 49.1407 16.949 49.0821 16.834C49.0234 16.7189 48.9384 16.6194 48.834 16.5435ZM47.5309 27.0936C46.7719 27.1274 46.0552 27.4523 45.5296 28.0009C45.0041 28.5495 44.7102 29.2795 44.709 30.0393V32.4721C44.71 33.2318 45.0039 33.962 45.5295 34.5107C46.055 35.0594 46.7718 35.3844 47.5309 35.4182V43.9143L30.9043 49.1882V23.5996L47.5309 18.328V27.0936Z" fill="#FF725E"/>
<path id="Vector_4" d="M12.5105 27.0938H11.1184C10.3368 27.095 9.58754 27.406 9.03487 27.9587C8.4822 28.5114 8.17116 29.2606 8.16992 30.0422V32.475C8.17116 33.2566 8.4822 34.0058 9.03487 34.5585C9.58754 35.1112 10.3368 35.4222 11.1184 35.4234H12.5105C13.2921 35.4222 14.0414 35.1112 14.594 34.5585C15.1467 34.0058 15.4577 33.2566 15.459 32.475V30.0422C15.4577 29.2606 15.1467 28.5114 14.594 27.9587C14.0414 27.406 13.2921 27.095 12.5105 27.0938ZM13.8184 32.475C13.8179 32.8217 13.6799 33.1541 13.4348 33.3992C13.1896 33.6444 12.8572 33.7823 12.5105 33.7828H11.1184C10.7716 33.7824 10.4392 33.6445 10.194 33.3994C9.94883 33.1542 9.81092 32.8217 9.81055 32.475V30.0422C9.81092 29.6954 9.94883 29.363 10.194 29.1178C10.4392 28.8727 10.7716 28.7347 11.1184 28.7344H12.5105C12.8572 28.7349 13.1896 28.8728 13.4348 29.118C13.6799 29.3631 13.8179 29.6955 13.8184 30.0422V32.475Z" fill="#6A797C"/>
<path id="Vector_5" d="M49.0496 27.0938H47.6574C46.8758 27.095 46.1266 27.406 45.5739 27.9587C45.0213 28.5114 44.7102 29.2606 44.709 30.0422V32.475C44.7102 33.2566 45.0213 34.0058 45.5739 34.5585C46.1266 35.1112 46.8758 35.4222 47.6574 35.4234H49.0496C49.8312 35.4222 50.5804 35.1112 51.1331 34.5585C51.6858 34.0058 51.9968 33.2566 51.998 32.475V30.0422C51.9968 29.2606 51.6858 28.5114 51.1331 27.9587C50.5804 27.406 49.8312 27.095 49.0496 27.0938ZM50.3574 32.475C50.3571 32.8217 50.2191 33.1542 49.974 33.3994C49.7288 33.6445 49.3963 33.7824 49.0496 33.7828H47.6574C47.3107 33.7823 46.9784 33.6444 46.7332 33.3992C46.4881 33.1541 46.3501 32.8217 46.3496 32.475V30.0422C46.3501 29.6955 46.4881 29.3631 46.7332 29.118C46.9784 28.8728 47.3107 28.7349 47.6574 28.7344H49.0496C49.3963 28.7347 49.7288 28.8727 49.974 29.1178C50.2191 29.363 50.3571 29.6954 50.3574 30.0422V32.475Z" fill="#6A797C"/>
<g id="Group_2">
<path id="Vector_6" d="M44.3495 23.5565L33.5894 26.969C33.485 27.0001 33.3878 27.0516 33.3035 27.1206C33.2192 27.1897 33.1495 27.2748 33.0985 27.3711C33.0474 27.4673 33.0161 27.5728 33.0063 27.6813C32.9964 27.7898 33.0083 27.8992 33.0412 28.003C33.0742 28.1069 33.1274 28.2032 33.1979 28.2862C33.2685 28.3693 33.3548 28.4374 33.452 28.4868C33.5491 28.5361 33.6551 28.5655 33.7638 28.5734C33.8724 28.5813 33.9816 28.5675 34.0849 28.5328L44.845 25.1203C45.0488 25.0517 45.2176 24.9058 45.3149 24.7141C45.4122 24.5223 45.4303 24.3 45.3654 24.095C45.3004 23.89 45.1576 23.7187 44.9676 23.618C44.7776 23.5173 44.5557 23.4952 44.3495 23.5565Z" fill="#FF725E"/>
<path id="Vector_7" d="M41.1497 29.2616L33.5887 31.6597C33.3814 31.7255 33.2086 31.8711 33.1086 32.0642C33.0085 32.2574 32.9892 32.4824 33.0551 32.6898C33.1209 32.8972 33.2664 33.0699 33.4596 33.17C33.6527 33.2701 33.8778 33.2893 34.0851 33.2235L41.6461 30.8253C41.8534 30.7595 42.0262 30.614 42.1262 30.4208C42.2263 30.2277 42.2456 30.0026 42.1797 29.7953C42.1139 29.5879 41.9684 29.4152 41.7752 29.3151C41.5821 29.215 41.357 29.1958 41.1497 29.2616Z" fill="#FF725E"/>
<path id="Vector_8" d="M42.0371 34.3191L33.5897 36.998C33.4032 37.0572 33.2439 37.1812 33.1407 37.3476C33.0376 37.5139 32.9973 37.7117 33.0272 37.9051C33.0571 38.0986 33.1552 38.275 33.3037 38.4024C33.4523 38.5299 33.6415 38.6 33.8372 38.6002C33.9214 38.6 34.005 38.5871 34.0852 38.5618L42.5321 35.8829C42.735 35.8137 42.9028 35.6677 42.9995 35.4763C43.0962 35.285 43.1141 35.0633 43.0494 34.8589C42.9847 34.6545 42.8425 34.4835 42.6533 34.3826C42.4641 34.2817 42.2429 34.2589 42.0371 34.3191Z" fill="#FF725E"/>
<path id="Vector_9" d="M44.3499 39.1499L33.5897 42.5624C33.4032 42.6216 33.2439 42.7456 33.1407 42.9119C33.0376 43.0783 32.9973 43.2761 33.0272 43.4695C33.0571 43.663 33.1552 43.8393 33.3037 43.9668C33.4523 44.0943 33.6415 44.1644 33.8372 44.1646C33.9214 44.1644 34.005 44.1514 34.0852 44.1261L44.8454 40.7132C44.948 40.6806 45.0432 40.6282 45.1256 40.5589C45.208 40.4895 45.2759 40.4047 45.3255 40.3091C45.3751 40.2135 45.4053 40.1091 45.4146 40.0018C45.4238 39.8945 45.4118 39.7864 45.3793 39.6838C45.3467 39.5812 45.2943 39.4859 45.225 39.4035C45.1556 39.3212 45.0707 39.2532 44.9751 39.2037C44.8796 39.1541 44.7752 39.1238 44.6679 39.1146C44.5606 39.1054 44.4525 39.1174 44.3499 39.1499Z" fill="#FF725E"/>
<path id="Vector_10" d="M26.578 26.969L15.8178 23.5565C15.6117 23.4952 15.3898 23.5173 15.1998 23.618C15.0098 23.7187 14.8669 23.89 14.802 24.095C14.737 24.3 14.7552 24.5223 14.8525 24.7141C14.9498 24.9058 15.1186 25.0517 15.3224 25.1203L26.0825 28.5328C26.1858 28.5675 26.2949 28.5813 26.4036 28.5734C26.5123 28.5655 26.6183 28.5361 26.7154 28.4868C26.8126 28.4374 26.8989 28.3693 26.9694 28.2862C27.04 28.2032 27.0932 28.1069 27.1261 28.003C27.159 27.8992 27.1709 27.7898 27.1611 27.6813C27.1513 27.5728 27.1199 27.4673 27.0689 27.3711C27.0179 27.2748 26.9482 27.1897 26.8639 27.1206C26.7796 27.0516 26.6824 27.0001 26.578 26.969Z" fill="#FF725E"/>
<path id="Vector_11" d="M26.5787 31.6597L19.0177 29.2616C18.8104 29.1958 18.5854 29.215 18.3922 29.3151C18.199 29.4152 18.0535 29.5879 17.9877 29.7953C17.9218 30.0026 17.9411 30.2277 18.0412 30.4208C18.1413 30.614 18.314 30.7595 18.5213 30.8253L26.0823 33.2235C26.185 33.2561 26.293 33.2681 26.4004 33.2589C26.5077 33.2498 26.6122 33.2195 26.7078 33.17C26.8035 33.1204 26.8885 33.0525 26.9579 32.9701C27.0273 32.8877 27.0798 32.7925 27.1124 32.6898C27.145 32.5871 27.157 32.479 27.1478 32.3717C27.1386 32.2644 27.1084 32.1599 27.0589 32.0642C27.0093 31.9686 26.9414 31.8836 26.859 31.8142C26.7766 31.7448 26.6814 31.6923 26.5787 31.6597Z" fill="#FF725E"/>
<path id="Vector_12" d="M26.5777 36.9979L18.1303 34.319C18.0273 34.2849 17.9185 34.2717 17.8102 34.28C17.702 34.2883 17.5965 34.318 17.4998 34.3674C17.4032 34.4168 17.3173 34.4849 17.2471 34.5677C17.177 34.6505 17.1239 34.7464 17.0911 34.8499C17.0583 34.9534 17.0463 35.0623 17.0559 35.1705C17.0656 35.2786 17.0965 35.3837 17.147 35.4798C17.1976 35.5759 17.2667 35.6609 17.3503 35.7301C17.434 35.7993 17.5305 35.8512 17.6344 35.8827L26.0813 38.5616C26.1615 38.5869 26.2451 38.5999 26.3292 38.6001C26.525 38.5999 26.7142 38.5298 26.8628 38.4023C27.0113 38.2748 27.1094 38.0984 27.1393 37.905C27.1692 37.7115 27.1289 37.5138 27.0257 37.3474C26.9226 37.1811 26.7633 37.0571 26.5767 36.9979H26.5777Z" fill="#FF725E"/>
<path id="Vector_13" d="M26.5779 42.5624L15.8177 39.1499C15.715 39.1174 15.607 39.1054 15.4997 39.1146C15.3924 39.1238 15.288 39.1541 15.1924 39.2037C15.0968 39.2532 15.012 39.3212 14.9426 39.4035C14.8733 39.4859 14.8209 39.5812 14.7883 39.6838C14.7558 39.7864 14.7438 39.8945 14.753 40.0018C14.7622 40.1091 14.7925 40.2135 14.8421 40.3091C14.8917 40.4047 14.9596 40.4895 15.042 40.5589C15.1243 40.6282 15.2196 40.6806 15.3222 40.7132L26.0824 44.1261C26.1626 44.1514 26.2462 44.1644 26.3304 44.1646C26.5261 44.1644 26.7153 44.0943 26.8639 43.9668C27.0124 43.8393 27.1105 43.663 27.1404 43.4695C27.1703 43.2761 27.13 43.0783 27.0268 42.9119C26.9237 42.7456 26.7644 42.6216 26.5779 42.5624Z" fill="#FF725E"/>
</g>
</g>
</g>
</svg>
