<svg width="61" height="60" viewBox="0 0 61 60" fill="none" xmlns="http://www.w3.org/2000/svg">
<g id="taco">
<g id="Group">
<g id="Group_2">
<path id="Vector" d="M9.03638 28.0969C8.89655 28.0967 8.75908 28.0609 8.63701 27.9927C8.51494 27.9245 8.41233 27.8262 8.33893 27.7072C8.26552 27.5882 8.22376 27.4524 8.21759 27.3127C8.21143 27.173 8.24108 27.0341 8.30372 26.9091L11.3923 20.745C11.6032 20.323 11.8953 19.9468 12.2519 19.638C12.6085 19.3291 13.0226 19.0938 13.4704 18.9453C13.9181 18.7968 14.3908 18.7382 14.8613 18.7728C15.3318 18.8075 15.7908 18.9346 16.212 19.147L17.5376 19.8122C17.7281 19.912 17.8718 20.0826 17.9377 20.2873C18.0036 20.492 17.9865 20.7144 17.8901 20.9066C17.7937 21.0988 17.6257 21.2455 17.4222 21.315C17.2187 21.3846 16.9961 21.3714 16.8022 21.2784L15.4751 20.6128C15.2466 20.4974 14.9975 20.4283 14.7422 20.4095C14.4868 20.3906 14.2303 20.4223 13.9873 20.5029C13.7443 20.5834 13.5195 20.7111 13.326 20.8787C13.1325 21.0463 12.9739 21.2505 12.8595 21.4795L9.77044 27.6441C9.70215 27.7802 9.59732 27.8947 9.46768 27.9746C9.33804 28.0546 9.1887 28.0969 9.03638 28.0969Z" fill="#FF725E"/>
<path id="Vector_2" d="M53.0336 40.7062C52.876 40.7064 52.7217 40.6613 52.5891 40.5762C52.4565 40.4911 52.3512 40.3695 52.2858 40.2261C52.2204 40.0828 52.1978 39.9236 52.2205 39.7676C52.2432 39.6117 52.3103 39.4656 52.4139 39.3468L55.3623 35.939C55.5301 35.7459 55.6582 35.5217 55.7393 35.2791C55.8204 35.0365 55.8529 34.7803 55.8349 34.5251C55.817 34.2699 55.749 34.0208 55.6347 33.7919C55.5205 33.5631 55.3623 33.3589 55.1692 33.1912L53.9355 32.122C53.7738 31.9787 53.6752 31.7774 53.661 31.5618C53.6468 31.3463 53.7183 31.1338 53.8598 30.9706C54.0014 30.8074 54.2016 30.7066 54.417 30.6901C54.6324 30.6737 54.8456 30.7428 55.0103 30.8826L56.2436 31.9513C56.5996 32.2602 56.8912 32.6362 57.1019 33.0578C57.3125 33.4794 57.438 33.9384 57.4712 34.4085C57.5045 34.8786 57.4447 35.3507 57.2954 35.7977C57.1462 36.2448 56.9103 36.658 56.6012 37.0138L53.6542 40.4203C53.5775 40.5099 53.4824 40.5819 53.3752 40.6312C53.2681 40.6806 53.1515 40.7062 53.0336 40.7062Z" fill="#FF725E"/>
<path id="Vector_3" d="M17.5585 25.1204C17.3903 25.1203 17.2262 25.0686 17.0884 24.9722C16.9505 24.8758 16.8456 24.7393 16.7879 24.5813C16.0904 22.6785 16.097 20.5888 16.8066 18.6904C17.5163 16.792 18.882 15.2103 20.6568 14.2316C22.4315 13.2529 24.4979 12.9418 26.4821 13.3547C28.4663 13.7675 30.2372 14.8769 31.4743 16.4823C31.6072 16.6547 31.6662 16.8729 31.6382 17.0888C31.6103 17.3047 31.4977 17.5006 31.3253 17.6335C31.1528 17.7664 30.9347 17.8254 30.7188 17.7974C30.5029 17.7695 30.3069 17.6569 30.174 17.4845C29.5383 16.6522 28.7186 15.9784 27.7791 15.5156C26.8396 15.0529 25.8058 14.8139 24.7585 14.8173C23.6556 14.8141 22.5682 15.0779 21.5894 15.5863C20.6106 16.0946 19.7693 16.8323 19.1375 17.7364C18.5058 18.6405 18.1022 19.6841 17.9613 20.778C17.8205 21.872 17.9465 22.9837 18.3287 24.0184C18.3738 24.1423 18.3884 24.2753 18.3712 24.406C18.354 24.5368 18.3056 24.6615 18.2301 24.7696C18.1545 24.8777 18.0541 24.966 17.9372 25.0271C17.8203 25.0881 17.6904 25.1201 17.5585 25.1204Z" fill="#FF725E"/>
<path id="Vector_4" d="M51.3091 35.1427C51.1199 35.1425 50.9366 35.077 50.7901 34.9571C50.6437 34.8373 50.5431 34.6705 50.5055 34.4851C50.4679 34.2996 50.4955 34.1069 50.5837 33.9395C50.6719 33.772 50.8152 33.6402 50.9894 33.5663C52.3783 32.9962 53.49 31.9069 54.0883 30.5299C54.6865 29.1529 54.724 27.5969 54.1928 26.1927C53.6617 24.7885 52.6037 23.6468 51.2439 23.0105C49.8842 22.3741 48.3298 22.2933 46.9113 22.7851C46.8076 22.8255 46.6968 22.8444 46.5855 22.8407C46.4743 22.8369 46.3649 22.8105 46.2642 22.7632C46.1635 22.7158 46.0734 22.6484 45.9996 22.5651C45.9257 22.4819 45.8696 22.3844 45.8346 22.2788C45.7996 22.1731 45.7864 22.0614 45.796 21.9505C45.8055 21.8396 45.8375 21.7318 45.8901 21.6336C45.9426 21.5355 46.0146 21.4491 46.1016 21.3797C46.1886 21.3102 46.2888 21.2592 46.3962 21.2298C48.2147 20.6128 50.2017 20.7264 51.9381 21.5464C53.6746 22.3664 55.0246 23.8288 55.7035 25.6251C56.3824 27.4214 56.337 29.4111 55.577 31.1746C54.817 32.9382 53.4017 34.3375 51.6298 35.0776C51.5284 35.1207 51.4193 35.1429 51.3091 35.1427Z" fill="#FF725E"/>
<path id="Vector_5" d="M45.2245 27.0623C45.043 27.0625 44.8666 27.0024 44.7229 26.8916C44.5792 26.7808 44.4763 26.6254 44.4303 26.4499C44.3843 26.2743 44.3979 26.0884 44.4688 25.9214C44.5397 25.7544 44.6641 25.6156 44.8223 25.5267L47.7234 23.8978L45.3651 22.0359C45.2478 21.9435 45.158 21.8207 45.1054 21.6809C45.0528 21.5412 45.0393 21.3897 45.0665 21.2428L45.6548 18.0553H42.4847C42.3089 18.0555 42.1377 17.9991 41.9964 17.8945C41.8551 17.79 41.7512 17.6427 41.7 17.4745L40.8422 14.662L37.8248 16.2942C37.6842 16.3705 37.5243 16.404 37.3649 16.3906C37.2055 16.3772 37.0535 16.3174 36.9276 16.2187L34.3359 14.182L33.5625 17.1844C33.5171 17.3606 33.4145 17.5167 33.2708 17.6282C33.1271 17.7397 32.9503 17.8002 32.7684 17.8003H29.2945L29.9976 20.4572C30.0531 20.6676 30.0228 20.8914 29.9132 21.0795C29.8037 21.2675 29.624 21.4043 29.4136 21.4598C29.2031 21.5153 28.9793 21.485 28.7913 21.3755C28.6032 21.2659 28.4664 21.0862 28.4109 20.8758L27.4387 17.1891C27.4064 17.0675 27.4024 16.9402 27.4271 16.8169C27.4518 16.6937 27.5045 16.5777 27.5812 16.478C27.6579 16.3784 27.7564 16.2976 27.8692 16.2421C27.982 16.1866 28.1061 16.1577 28.2318 16.1578H32.1347L33.0628 12.5545C33.0968 12.4225 33.1631 12.301 33.2559 12.2011C33.3486 12.1011 33.4648 12.0259 33.594 11.9822C33.7231 11.9385 33.8611 11.9277 33.9955 11.9508C34.1299 11.9739 34.2564 12.0301 34.3636 12.1144L37.5197 14.5941L40.9453 12.7406C41.0522 12.6827 41.1706 12.6492 41.2921 12.6427C41.4135 12.6362 41.5348 12.6567 41.6473 12.7029C41.7598 12.7491 41.8606 12.8197 41.9425 12.9097C42.0243 12.9996 42.0851 13.1066 42.1204 13.223L43.0936 16.4128H46.6411C46.7614 16.4127 46.8804 16.4391 46.9894 16.4902C47.0984 16.5412 47.1949 16.6157 47.2719 16.7082C47.3489 16.8008 47.4045 16.9091 47.435 17.0256C47.4654 17.1421 47.4697 17.2638 47.4478 17.3822L46.7704 21.0506L49.7057 23.3653C49.8117 23.4487 49.8954 23.557 49.9495 23.6805C50.0037 23.804 50.0265 23.939 50.0159 24.0734C50.0054 24.2079 49.9619 24.3376 49.8892 24.4512C49.8166 24.5648 49.717 24.6588 49.5993 24.7247L45.629 26.9536C45.506 27.0246 45.3665 27.0621 45.2245 27.0623Z" fill="#FF725E"/>
<path id="Vector_6" d="M7.42199 39.322C7.33208 39.322 7.24278 39.3072 7.15761 39.2784C6.2542 38.9734 5.4277 38.476 4.73513 37.8206C4.04256 37.1652 3.5004 36.3674 3.14603 35.4821C2.79167 34.5969 2.63353 33.6453 2.68254 32.6931C2.73155 31.7408 2.98653 30.8105 3.4299 29.9663C3.87327 29.1222 4.49447 28.3842 5.25067 27.8034C6.00686 27.2225 6.88004 26.8126 7.81 26.6019C8.73995 26.3912 9.70454 26.3848 10.6372 26.583C11.5699 26.7812 12.4485 27.1793 13.2125 27.75C13.304 27.8181 13.3803 27.9045 13.4365 28.0037C13.4928 28.1029 13.5277 28.2128 13.5391 28.3263C13.5505 28.4397 13.5382 28.5544 13.5029 28.6628C13.4675 28.7712 13.41 28.8711 13.3339 28.9561C10.8496 31.7293 9.09242 35.0758 8.2198 38.6953C8.17694 38.8744 8.07501 39.0339 7.93045 39.148C7.78588 39.2621 7.6071 39.3243 7.42292 39.3244L7.42199 39.322ZM9.28292 28.0823C8.18574 28.0819 7.11949 28.4459 6.25149 29.117C5.38349 29.7881 4.76287 30.7284 4.48703 31.7903C4.2112 32.8523 4.29575 33.9757 4.72743 34.9844C5.1591 35.9931 5.91347 36.8299 6.87214 37.3636C7.78571 34.1554 9.35326 31.1709 11.4762 28.5979C10.7952 28.2579 10.0442 28.0813 9.28292 28.0823Z" fill="#FF725E"/>
</g>
<path id="Vector_7" d="M50.1117 48.0572H10.0547C8.96727 48.0559 7.92474 47.6234 7.15582 46.8545C6.38689 46.0856 5.95437 45.043 5.95312 43.9556C5.98125 37.5743 8.53592 31.464 13.0581 26.9617C17.5804 22.4594 23.7019 19.9316 30.0832 19.9316C36.4645 19.9316 42.5861 22.4594 47.1083 26.9617C51.6305 31.464 54.1852 37.5743 54.2133 43.9556C54.212 45.043 53.7795 46.0856 53.0106 46.8545C52.2417 47.6234 51.1991 48.0559 50.1117 48.0572ZM30.0834 21.4687C24.1213 21.4754 18.4053 23.8466 14.1892 28.0622C9.97312 32.2778 7.60119 37.9935 7.59375 43.9556C7.59449 44.6081 7.85401 45.2336 8.31536 45.6949C8.77672 46.1563 9.40223 46.4158 10.0547 46.4165H50.1117C50.7642 46.4158 51.3897 46.1563 51.851 45.6949C52.3124 45.2336 52.5719 44.6081 52.5727 43.9556C52.5653 37.9936 50.1935 32.2778 45.9775 28.0622C41.7615 23.8466 36.0455 21.4754 30.0834 21.4687Z" fill="#6A797C"/>
<path id="Vector_8" d="M11.5146 43.9382C11.9677 43.9382 12.335 43.571 12.335 43.1179C12.335 42.6649 11.9677 42.2976 11.5146 42.2976C11.0616 42.2976 10.6943 42.6649 10.6943 43.1179C10.6943 43.571 11.0616 43.9382 11.5146 43.9382Z" fill="#FF725E"/>
<path id="Vector_9" d="M12.8887 40.4546C13.3417 40.4546 13.709 40.0873 13.709 39.6343C13.709 39.1812 13.3417 38.814 12.8887 38.814C12.4356 38.814 12.0684 39.1812 12.0684 39.6343C12.0684 40.0873 12.4356 40.4546 12.8887 40.4546Z" fill="#FF725E"/>
<path id="Vector_10" d="M15.4668 43.7251C15.9198 43.7251 16.2871 43.3578 16.2871 42.9048C16.2871 42.4517 15.9198 42.0845 15.4668 42.0845C15.0138 42.0845 14.6465 42.4517 14.6465 42.9048C14.6465 43.3578 15.0138 43.7251 15.4668 43.7251Z" fill="#FF725E"/>
</g>
</g>
</svg>
