<svg xmlns="http://www.w3.org/2000/svg" xmlns:xlink="http://www.w3.org/1999/xlink" width="32" zoomAndPan="magnify" viewBox="0 0 24 23.999999" height="32" preserveAspectRatio="xMidYMid meet" version="1.0"><defs><g/></defs><path fill="#ff725e" d="M 22.394531 12.988281 C 22.265625 12.988281 22.140625 12.964844 22.019531 12.914062 C 21.898438 12.863281 21.789062 12.792969 21.695312 12.699219 C 21.605469 12.605469 21.53125 12.5 21.480469 12.378906 C 21.433594 12.257812 21.40625 12.132812 21.40625 12 C 21.40625 11.867188 21.433594 11.742188 21.480469 11.621094 C 21.53125 11.5 21.605469 11.394531 21.695312 11.300781 C 21.789062 11.207031 21.894531 11.136719 22.015625 11.085938 C 22.136719 11.035156 22.265625 11.011719 22.394531 11.011719 C 22.527344 11.011719 22.652344 11.035156 22.773438 11.085938 C 22.894531 11.136719 23.003906 11.207031 23.09375 11.300781 C 23.1875 11.394531 23.261719 11.5 23.308594 11.621094 C 23.359375 11.742188 23.386719 11.867188 23.386719 12 C 23.386719 12.273438 23.289062 12.507812 23.09375 12.699219 C 22.902344 12.890625 22.667969 12.988281 22.394531 12.988281 Z M 15.023438 14.8125 C 14.738281 14.570312 14.425781 14.363281 14.09375 14.195312 C 14.261719 13.570312 14.355469 12.929688 14.371094 12.28125 L 16.117188 12.28125 C 16.050781 13.253906 15.6875 14.097656 15.023438 14.8125 Z M 7.832031 12.28125 L 9.574219 12.28125 C 9.589844 12.929688 9.683594 13.570312 9.855469 14.195312 C 9.519531 14.363281 9.210938 14.570312 8.921875 14.816406 C 8.261719 14.097656 7.894531 13.253906 7.832031 12.28125 Z M 8.921875 9.183594 C 9.210938 9.429688 9.519531 9.636719 9.855469 9.804688 C 9.683594 10.429688 9.589844 11.070312 9.574219 11.71875 L 7.832031 11.71875 C 7.894531 10.746094 8.261719 9.902344 8.921875 9.1875 Z M 12.253906 11.71875 L 12.253906 10.296875 C 12.707031 10.269531 13.144531 10.179688 13.570312 10.027344 C 13.714844 10.582031 13.792969 11.144531 13.808594 11.71875 Z M 12.253906 13.703125 L 12.253906 12.28125 L 13.808594 12.28125 C 13.792969 12.851562 13.714844 13.417969 13.570312 13.972656 C 13.144531 13.820312 12.703125 13.730469 12.253906 13.703125 Z M 13.914062 14.738281 C 13.75 15.191406 13.511719 15.601562 13.199219 15.96875 C 13.71875 15.804688 14.191406 15.550781 14.613281 15.203125 C 14.394531 15.023438 14.164062 14.867188 13.914062 14.738281 Z M 13.222656 14.921875 C 12.949219 15.476562 12.605469 15.84375 12.253906 15.976562 L 12.253906 14.265625 C 12.648438 14.292969 13.03125 14.371094 13.398438 14.507812 C 13.347656 14.652344 13.285156 14.792969 13.222656 14.921875 Z M 10.75 15.96875 C 10.433594 15.601562 10.195312 15.191406 10.03125 14.738281 C 9.785156 14.867188 9.550781 15.023438 9.335938 15.203125 C 9.753906 15.550781 10.226562 15.804688 10.75 15.96875 Z M 11.691406 14.265625 L 11.691406 15.972656 C 11.339844 15.84375 11 15.476562 10.726562 14.921875 C 10.660156 14.789062 10.601562 14.652344 10.546875 14.507812 C 10.917969 14.371094 11.300781 14.292969 11.691406 14.265625 Z M 11.691406 12.28125 L 11.691406 13.703125 C 11.242188 13.730469 10.800781 13.820312 10.375 13.972656 C 10.230469 13.417969 10.152344 12.851562 10.136719 12.28125 Z M 11.691406 10.296875 L 11.691406 11.71875 L 10.136719 11.71875 C 10.152344 11.144531 10.234375 10.582031 10.375 10.027344 C 10.800781 10.179688 11.242188 10.269531 11.691406 10.296875 Z M 10.03125 9.261719 C 10.195312 8.808594 10.433594 8.398438 10.75 8.03125 C 10.226562 8.195312 9.753906 8.449219 9.335938 8.796875 C 9.550781 8.976562 9.785156 9.132812 10.03125 9.261719 Z M 10.722656 9.074219 C 10.996094 8.519531 11.339844 8.152344 11.691406 8.023438 L 11.691406 9.730469 C 11.296875 9.707031 10.917969 9.625 10.546875 9.492188 C 10.601562 9.34375 10.660156 9.207031 10.722656 9.074219 Z M 13.195312 8.03125 C 13.71875 8.191406 14.191406 8.445312 14.613281 8.796875 C 14.394531 8.976562 14.160156 9.128906 13.914062 9.261719 C 13.75 8.808594 13.511719 8.398438 13.199219 8.03125 Z M 12.253906 8.023438 L 12.253906 9.730469 C 12.648438 9.707031 13.027344 9.625 13.398438 9.492188 C 13.347656 9.34375 13.285156 9.207031 13.222656 9.074219 C 12.949219 8.519531 12.605469 8.152344 12.253906 8.023438 Z M 16.117188 11.71875 C 16.050781 10.746094 15.6875 9.902344 15.023438 9.183594 C 14.738281 9.429688 14.425781 9.636719 14.09375 9.804688 C 14.261719 10.429688 14.355469 11.070312 14.371094 11.71875 Z M 20.722656 19.378906 C 20.722656 19.511719 20.699219 19.636719 20.648438 19.757812 C 20.597656 19.878906 20.527344 19.988281 20.433594 20.078125 C 20.34375 20.171875 20.234375 20.242188 20.113281 20.292969 C 19.992188 20.34375 19.867188 20.367188 19.734375 20.367188 C 19.605469 20.367188 19.476562 20.34375 19.355469 20.292969 C 19.234375 20.242188 19.128906 20.171875 19.035156 20.078125 C 18.941406 19.988281 18.871094 19.878906 18.820312 19.757812 C 18.769531 19.636719 18.746094 19.511719 18.746094 19.378906 C 18.746094 19.25 18.769531 19.121094 18.820312 19 C 18.871094 18.878906 18.941406 18.773438 19.035156 18.679688 C 19.128906 18.585938 19.234375 18.515625 19.355469 18.464844 C 19.476562 18.414062 19.605469 18.390625 19.734375 18.390625 C 20.007812 18.390625 20.242188 18.488281 20.433594 18.679688 C 20.628906 18.875 20.722656 19.105469 20.722656 19.378906 Z M 17.285156 21.382812 C 17.285156 21.515625 17.261719 21.640625 17.210938 21.761719 C 17.160156 21.882812 17.089844 21.992188 16.996094 22.085938 C 16.902344 22.175781 16.796875 22.25 16.675781 22.300781 C 16.554688 22.347656 16.429688 22.375 16.296875 22.375 C 16.164062 22.375 16.039062 22.347656 15.917969 22.300781 C 15.796875 22.25 15.691406 22.175781 15.597656 22.085938 C 15.503906 21.992188 15.433594 21.886719 15.382812 21.765625 C 15.332031 21.644531 15.308594 21.515625 15.308594 21.386719 C 15.308594 21.253906 15.332031 21.128906 15.382812 21.007812 C 15.433594 20.886719 15.503906 20.777344 15.597656 20.683594 C 15.6875 20.59375 15.796875 20.519531 15.917969 20.472656 C 16.039062 20.421875 16.164062 20.394531 16.296875 20.394531 C 16.570312 20.394531 16.800781 20.492188 16.996094 20.683594 C 17.1875 20.878906 17.285156 21.113281 17.285156 21.382812 Z M 15.308594 2.617188 C 15.308594 2.484375 15.332031 2.359375 15.382812 2.238281 C 15.433594 2.117188 15.503906 2.007812 15.597656 1.914062 C 15.691406 1.824219 15.796875 1.75 15.917969 1.699219 C 16.039062 1.652344 16.164062 1.625 16.296875 1.625 C 16.425781 1.625 16.554688 1.652344 16.675781 1.699219 C 16.796875 1.75 16.902344 1.824219 16.996094 1.914062 C 17.089844 2.007812 17.160156 2.113281 17.210938 2.238281 C 17.261719 2.359375 17.285156 2.484375 17.285156 2.613281 C 17.285156 2.746094 17.261719 2.871094 17.210938 2.992188 C 17.160156 3.113281 17.089844 3.222656 16.996094 3.316406 C 16.902344 3.40625 16.796875 3.480469 16.675781 3.527344 C 16.554688 3.578125 16.425781 3.605469 16.296875 3.605469 C 16.023438 3.605469 15.789062 3.507812 15.597656 3.3125 C 15.402344 3.121094 15.308594 2.886719 15.308594 2.617188 Z M 18.746094 4.621094 C 18.746094 4.488281 18.769531 4.363281 18.820312 4.242188 C 18.871094 4.121094 18.941406 4.011719 19.035156 3.921875 C 19.128906 3.828125 19.234375 3.757812 19.355469 3.707031 C 19.476562 3.65625 19.605469 3.628906 19.734375 3.628906 C 19.867188 3.628906 19.992188 3.65625 20.113281 3.707031 C 20.234375 3.757812 20.339844 3.828125 20.433594 3.921875 C 20.527344 4.011719 20.597656 4.121094 20.648438 4.242188 C 20.699219 4.363281 20.722656 4.488281 20.722656 4.621094 C 20.722656 4.75 20.699219 4.878906 20.648438 5 C 20.597656 5.121094 20.527344 5.226562 20.433594 5.320312 C 20.34375 5.414062 20.234375 5.484375 20.113281 5.535156 C 19.992188 5.585938 19.867188 5.609375 19.734375 5.609375 C 19.460938 5.609375 19.230469 5.511719 19.035156 5.320312 C 18.84375 5.125 18.746094 4.894531 18.746094 4.621094 Z M 22.394531 10.449219 C 22.023438 10.449219 21.691406 10.570312 21.40625 10.808594 C 21.117188 11.046875 20.941406 11.351562 20.871094 11.71875 L 16.679688 11.71875 C 16.648438 11.222656 16.542969 10.738281 16.359375 10.277344 L 19.433594 10.277344 C 19.59375 10.277344 19.730469 10.21875 19.84375 10.105469 C 19.957031 9.992188 20.015625 9.851562 20.015625 9.691406 L 20.015625 6.144531 C 20.140625 6.121094 20.261719 6.082031 20.378906 6.03125 C 20.496094 5.976562 20.605469 5.910156 20.703125 5.828125 C 20.804688 5.75 20.894531 5.660156 20.96875 5.554688 C 21.046875 5.453125 21.113281 5.34375 21.160156 5.226562 C 21.210938 5.109375 21.246094 4.988281 21.265625 4.859375 C 21.285156 4.734375 21.289062 4.605469 21.28125 4.476562 C 21.269531 4.351562 21.242188 4.226562 21.199219 4.105469 C 21.15625 3.984375 21.097656 3.871094 21.027344 3.765625 C 20.957031 3.65625 20.875 3.5625 20.78125 3.472656 C 20.6875 3.386719 20.582031 3.3125 20.46875 3.253906 C 20.355469 3.191406 20.238281 3.148438 20.113281 3.117188 C 19.988281 3.085938 19.863281 3.070312 19.734375 3.070312 C 19.605469 3.070312 19.480469 3.085938 19.355469 3.117188 C 19.230469 3.148438 19.113281 3.191406 19 3.253906 C 18.886719 3.3125 18.785156 3.386719 18.691406 3.472656 C 18.59375 3.5625 18.511719 3.65625 18.441406 3.765625 C 18.371094 3.871094 18.3125 3.984375 18.273438 4.105469 C 18.230469 4.226562 18.203125 4.351562 18.191406 4.476562 C 18.179688 4.605469 18.183594 4.734375 18.203125 4.859375 C 18.222656 4.988281 18.257812 5.109375 18.308594 5.226562 C 18.359375 5.34375 18.421875 5.453125 18.5 5.554688 C 18.578125 5.660156 18.664062 5.75 18.765625 5.828125 C 18.867188 5.910156 18.972656 5.976562 19.089844 6.03125 C 19.207031 6.082031 19.328125 6.121094 19.453125 6.144531 L 19.453125 9.691406 C 19.453125 9.707031 19.445312 9.714844 19.433594 9.714844 L 16.09375 9.714844 C 15.777344 9.148438 15.363281 8.667969 14.851562 8.269531 L 15.992188 8.269531 C 16.15625 8.269531 16.292969 8.214844 16.40625 8.101562 C 16.519531 7.984375 16.578125 7.847656 16.578125 7.6875 L 16.578125 4.140625 C 16.703125 4.117188 16.824219 4.078125 16.941406 4.023438 C 17.058594 3.972656 17.164062 3.90625 17.265625 3.824219 C 17.363281 3.746094 17.453125 3.652344 17.53125 3.550781 C 17.609375 3.449219 17.671875 3.339844 17.722656 3.222656 C 17.773438 3.105469 17.808594 2.980469 17.828125 2.855469 C 17.847656 2.730469 17.851562 2.601562 17.839844 2.472656 C 17.828125 2.347656 17.800781 2.222656 17.757812 2.101562 C 17.714844 1.980469 17.660156 1.867188 17.589844 1.757812 C 17.519531 1.652344 17.4375 1.554688 17.339844 1.46875 C 17.246094 1.382812 17.144531 1.308594 17.03125 1.25 C 16.917969 1.1875 16.796875 1.140625 16.675781 1.109375 C 16.550781 1.078125 16.425781 1.0625 16.296875 1.0625 C 16.167969 1.0625 16.042969 1.078125 15.917969 1.109375 C 15.792969 1.140625 15.675781 1.1875 15.5625 1.25 C 15.449219 1.308594 15.34375 1.382812 15.25 1.46875 C 15.15625 1.554688 15.074219 1.652344 15.003906 1.757812 C 14.933594 1.867188 14.875 1.980469 14.832031 2.101562 C 14.789062 2.222656 14.761719 2.347656 14.75 2.472656 C 14.738281 2.601562 14.742188 2.730469 14.765625 2.855469 C 14.785156 2.980469 14.820312 3.105469 14.867188 3.222656 C 14.917969 3.339844 14.984375 3.449219 15.058594 3.550781 C 15.136719 3.652344 15.226562 3.746094 15.328125 3.824219 C 15.425781 3.90625 15.535156 3.972656 15.652344 4.023438 C 15.769531 4.078125 15.890625 4.117188 16.015625 4.140625 L 16.015625 7.6875 C 16.015625 7.703125 16.007812 7.710938 15.992188 7.710938 L 13.925781 7.710938 C 13.566406 7.546875 13.191406 7.429688 12.804688 7.359375 C 12.414062 7.289062 12.023438 7.269531 11.632812 7.296875 C 11.238281 7.328125 10.855469 7.402344 10.480469 7.527344 C 10.105469 7.652344 9.753906 7.824219 9.421875 8.035156 C 9.089844 8.25 8.789062 8.5 8.519531 8.789062 C 8.253906 9.078125 8.023438 9.394531 7.835938 9.742188 C 7.644531 10.089844 7.503906 10.453125 7.40625 10.835938 C 7.308594 11.21875 7.257812 11.605469 7.257812 12 C 7.257812 12.394531 7.308594 12.78125 7.40625 13.164062 C 7.503906 13.546875 7.644531 13.910156 7.835938 14.257812 C 8.023438 14.605469 8.253906 14.921875 8.519531 15.210938 C 8.789062 15.5 9.089844 15.75 9.421875 15.964844 C 9.753906 16.175781 10.105469 16.347656 10.480469 16.472656 C 10.855469 16.597656 11.238281 16.671875 11.632812 16.703125 C 12.023438 16.730469 12.414062 16.710938 12.804688 16.640625 C 13.191406 16.570312 13.566406 16.453125 13.925781 16.289062 L 15.992188 16.289062 C 16.007812 16.289062 16.015625 16.296875 16.015625 16.3125 L 16.015625 19.859375 C 15.890625 19.882812 15.769531 19.921875 15.652344 19.976562 C 15.535156 20.027344 15.425781 20.09375 15.328125 20.175781 C 15.226562 20.253906 15.136719 20.347656 15.0625 20.449219 C 14.984375 20.550781 14.917969 20.660156 14.867188 20.777344 C 14.820312 20.898438 14.785156 21.019531 14.765625 21.144531 C 14.742188 21.273438 14.738281 21.398438 14.75 21.527344 C 14.761719 21.65625 14.789062 21.777344 14.832031 21.898438 C 14.875 22.019531 14.933594 22.132812 15.003906 22.242188 C 15.074219 22.347656 15.15625 22.445312 15.25 22.53125 C 15.34375 22.617188 15.449219 22.691406 15.5625 22.753906 C 15.675781 22.8125 15.792969 22.859375 15.917969 22.890625 C 16.042969 22.921875 16.167969 22.9375 16.296875 22.9375 C 16.425781 22.9375 16.550781 22.921875 16.675781 22.890625 C 16.800781 22.859375 16.917969 22.8125 17.03125 22.753906 C 17.144531 22.691406 17.246094 22.617188 17.34375 22.53125 C 17.4375 22.445312 17.519531 22.347656 17.589844 22.242188 C 17.660156 22.132812 17.71875 22.019531 17.761719 21.898438 C 17.800781 21.777344 17.828125 21.65625 17.839844 21.527344 C 17.851562 21.398438 17.847656 21.273438 17.828125 21.144531 C 17.808594 21.019531 17.773438 20.898438 17.722656 20.777344 C 17.671875 20.660156 17.609375 20.550781 17.53125 20.449219 C 17.453125 20.347656 17.367188 20.253906 17.265625 20.175781 C 17.164062 20.09375 17.058594 20.027344 16.941406 19.976562 C 16.824219 19.921875 16.703125 19.882812 16.578125 19.859375 L 16.578125 16.3125 C 16.578125 16.152344 16.519531 16.015625 16.40625 15.898438 C 16.292969 15.785156 16.15625 15.730469 15.992188 15.730469 L 14.851562 15.730469 C 15.363281 15.332031 15.777344 14.851562 16.09375 14.285156 L 19.433594 14.285156 C 19.445312 14.285156 19.453125 14.292969 19.453125 14.308594 L 19.453125 17.855469 C 19.328125 17.878906 19.207031 17.917969 19.089844 17.96875 C 18.972656 18.023438 18.867188 18.089844 18.765625 18.171875 C 18.664062 18.25 18.578125 18.339844 18.5 18.441406 C 18.421875 18.546875 18.359375 18.65625 18.308594 18.773438 C 18.257812 18.890625 18.222656 19.011719 18.203125 19.140625 C 18.183594 19.265625 18.179688 19.394531 18.191406 19.519531 C 18.203125 19.648438 18.230469 19.773438 18.273438 19.894531 C 18.316406 20.015625 18.371094 20.128906 18.441406 20.234375 C 18.511719 20.34375 18.59375 20.4375 18.691406 20.523438 C 18.785156 20.609375 18.886719 20.683594 19 20.746094 C 19.113281 20.804688 19.234375 20.851562 19.355469 20.882812 C 19.480469 20.914062 19.605469 20.929688 19.734375 20.929688 C 19.863281 20.929688 19.988281 20.914062 20.113281 20.882812 C 20.238281 20.851562 20.355469 20.804688 20.46875 20.746094 C 20.582031 20.683594 20.6875 20.609375 20.78125 20.523438 C 20.875 20.4375 20.957031 20.34375 21.027344 20.234375 C 21.097656 20.128906 21.15625 20.015625 21.199219 19.894531 C 21.238281 19.773438 21.265625 19.648438 21.277344 19.519531 C 21.289062 19.394531 21.285156 19.265625 21.265625 19.140625 C 21.246094 19.011719 21.210938 18.890625 21.160156 18.773438 C 21.113281 18.65625 21.046875 18.546875 20.96875 18.441406 C 20.894531 18.339844 20.804688 18.25 20.703125 18.171875 C 20.605469 18.089844 20.496094 18.023438 20.378906 17.96875 C 20.261719 17.917969 20.140625 17.878906 20.015625 17.855469 L 20.015625 14.308594 C 20.015625 14.148438 19.957031 14.007812 19.84375 13.894531 C 19.730469 13.78125 19.59375 13.722656 19.433594 13.722656 L 16.359375 13.722656 C 16.542969 13.261719 16.648438 12.777344 16.679688 12.28125 L 20.871094 12.28125 C 20.910156 12.476562 20.980469 12.65625 21.082031 12.824219 C 21.1875 12.992188 21.320312 13.132812 21.480469 13.25 C 21.636719 13.367188 21.8125 13.449219 22.003906 13.5 C 22.195312 13.550781 22.390625 13.5625 22.585938 13.539062 C 22.78125 13.515625 22.964844 13.457031 23.140625 13.363281 C 23.3125 13.265625 23.460938 13.144531 23.589844 12.992188 C 23.714844 12.839844 23.808594 12.671875 23.871094 12.484375 C 23.933594 12.296875 23.957031 12.101562 23.945312 11.90625 C 23.933594 11.707031 23.886719 11.519531 23.800781 11.34375 C 23.71875 11.164062 23.605469 11.007812 23.460938 10.871094 C 23.316406 10.734375 23.152344 10.632812 22.96875 10.558594 C 22.785156 10.484375 22.59375 10.449219 22.398438 10.449219 Z M 0.5625 10.257812 L 0.5625 13.742188 C 0.558594 13.855469 0.613281 13.914062 0.726562 13.929688 L 2.777344 14.179688 C 2.902344 14.195312 2.980469 14.265625 3.015625 14.386719 C 3.226562 15.183594 3.539062 15.933594 3.949219 16.648438 C 4.015625 16.757812 4.007812 16.859375 3.929688 16.960938 L 2.65625 18.589844 C 2.585938 18.675781 2.59375 18.757812 2.671875 18.835938 L 5.136719 21.300781 C 5.214844 21.382812 5.296875 21.386719 5.382812 21.316406 L 7.011719 20.042969 C 7.113281 19.964844 7.214844 19.960938 7.324219 20.023438 C 8.035156 20.4375 8.789062 20.75 9.585938 20.960938 C 9.707031 20.992188 9.777344 21.070312 9.792969 21.195312 L 10.042969 23.25 C 10.058594 23.359375 10.117188 23.414062 10.230469 23.410156 L 11.691406 23.410156 L 11.691406 17.921875 C 11.316406 17.90625 10.945312 17.851562 10.578125 17.761719 C 10.210938 17.671875 9.855469 17.550781 9.511719 17.394531 C 9.167969 17.238281 8.84375 17.050781 8.535156 16.832031 C 8.226562 16.613281 7.945312 16.367188 7.683594 16.09375 C 7.421875 15.820312 7.191406 15.523438 6.984375 15.207031 C 6.78125 14.886719 6.609375 14.554688 6.46875 14.203125 C 6.328125 13.855469 6.222656 13.492188 6.152344 13.121094 C 6.082031 12.75 6.042969 12.378906 6.042969 12 C 6.042969 11.621094 6.082031 11.25 6.152344 10.878906 C 6.222656 10.507812 6.328125 10.144531 6.46875 9.796875 C 6.609375 9.445312 6.78125 9.113281 6.984375 8.792969 C 7.191406 8.476562 7.421875 8.179688 7.683594 7.90625 C 7.945312 7.632812 8.226562 7.386719 8.535156 7.167969 C 8.84375 6.949219 9.167969 6.761719 9.511719 6.605469 C 9.855469 6.449219 10.210938 6.328125 10.578125 6.238281 C 10.945312 6.148438 11.316406 6.09375 11.691406 6.078125 L 11.691406 0.585938 L 10.230469 0.585938 C 10.117188 0.585938 10.054688 0.640625 10.042969 0.753906 L 9.792969 2.804688 C 9.777344 2.929688 9.707031 3.007812 9.585938 3.039062 C 8.789062 3.25 8.035156 3.5625 7.324219 3.976562 C 7.214844 4.039062 7.113281 4.035156 7.011719 3.957031 L 5.382812 2.683594 C 5.296875 2.613281 5.214844 2.621094 5.136719 2.699219 L 2.671875 5.160156 C 2.589844 5.238281 2.585938 5.320312 2.65625 5.410156 L 3.929688 7.039062 C 4.007812 7.136719 4.015625 7.242188 3.949219 7.351562 C 3.539062 8.0625 3.226562 8.816406 3.015625 9.613281 C 2.980469 9.734375 2.902344 9.800781 2.777344 9.816406 L 0.726562 10.070312 C 0.613281 10.082031 0.558594 10.144531 0.5625 10.257812 Z M 0.65625 14.484375 L 2.523438 14.714844 C 2.726562 15.429688 3.011719 16.113281 3.371094 16.765625 L 2.214844 18.246094 C 2.097656 18.394531 2.046875 18.5625 2.058594 18.75 C 2.070312 18.9375 2.140625 19.101562 2.273438 19.234375 L 4.738281 21.699219 C 4.875 21.832031 5.035156 21.90625 5.222656 21.917969 C 5.410156 21.929688 5.582031 21.875 5.730469 21.757812 L 7.210938 20.601562 C 7.859375 20.964844 8.542969 21.246094 9.257812 21.453125 L 9.488281 23.316406 C 9.511719 23.503906 9.59375 23.660156 9.734375 23.785156 C 9.878906 23.910156 10.042969 23.972656 10.230469 23.972656 L 11.972656 23.972656 C 12.050781 23.972656 12.117188 23.945312 12.171875 23.890625 C 12.226562 23.835938 12.253906 23.769531 12.253906 23.691406 L 12.253906 17.648438 C 12.253906 17.570312 12.226562 17.503906 12.171875 17.449219 C 12.117188 17.394531 12.050781 17.367188 11.972656 17.367188 C 11.621094 17.367188 11.273438 17.332031 10.925781 17.265625 C 10.582031 17.195312 10.246094 17.09375 9.917969 16.960938 C 9.59375 16.824219 9.285156 16.660156 8.992188 16.464844 C 8.699219 16.265625 8.425781 16.046875 8.175781 15.796875 C 7.929688 15.546875 7.707031 15.277344 7.511719 14.980469 C 7.3125 14.6875 7.148438 14.378906 7.015625 14.054688 C 6.878906 13.730469 6.777344 13.394531 6.707031 13.046875 C 6.640625 12.703125 6.605469 12.351562 6.605469 12 C 6.605469 11.648438 6.640625 11.296875 6.707031 10.953125 C 6.777344 10.605469 6.878906 10.269531 7.015625 9.945312 C 7.148438 9.621094 7.3125 9.3125 7.511719 9.019531 C 7.707031 8.722656 7.929688 8.453125 8.175781 8.203125 C 8.425781 7.953125 8.699219 7.734375 8.992188 7.535156 C 9.285156 7.339844 9.59375 7.175781 9.917969 7.039062 C 10.246094 6.90625 10.582031 6.804688 10.925781 6.734375 C 11.273438 6.667969 11.621094 6.632812 11.972656 6.632812 C 12.050781 6.632812 12.117188 6.605469 12.171875 6.550781 C 12.226562 6.496094 12.253906 6.429688 12.253906 6.351562 L 12.253906 0.308594 C 12.253906 0.230469 12.226562 0.164062 12.171875 0.109375 C 12.117188 0.0546875 12.050781 0.0273438 11.972656 0.0273438 L 10.230469 0.0273438 C 10.042969 0.0273438 9.875 0.0898438 9.734375 0.214844 C 9.59375 0.339844 9.511719 0.496094 9.488281 0.683594 L 9.257812 2.546875 C 8.542969 2.753906 7.859375 3.035156 7.210938 3.398438 L 5.730469 2.242188 C 5.582031 2.125 5.410156 2.070312 5.222656 2.082031 C 5.035156 2.09375 4.875 2.167969 4.738281 2.300781 L 2.273438 4.765625 C 2.140625 4.898438 2.070312 5.0625 2.058594 5.25 C 2.046875 5.4375 2.097656 5.605469 2.214844 5.753906 L 3.371094 7.238281 C 3.011719 7.886719 2.726562 8.570312 2.523438 9.285156 L 0.65625 9.515625 C 0.46875 9.539062 0.3125 9.621094 0.1875 9.761719 C 0.0625 9.902344 0 10.066406 0 10.257812 L 0 13.742188 C 0 13.929688 0.0625 14.097656 0.1875 14.238281 C 0.3125 14.378906 0.46875 14.460938 0.65625 14.484375 Z M 0.65625 14.484375 " fill-opacity="1" fill-rule="evenodd"/><g fill="#ffffff" fill-opacity="1"><g transform="translate(13.499999, 19.050001)"><g><path d="M 0.109375 0 L 0.109375 -0.140625 L 0.484375 -0.140625 L 0.484375 -1.234375 L 0.46875 -1.234375 C 0.40625 -1.203125 0.347656 -1.175781 0.296875 -1.15625 C 0.253906 -1.144531 0.195312 -1.128906 0.125 -1.109375 L 0.125 -1.265625 C 0.195312 -1.285156 0.269531 -1.304688 0.34375 -1.328125 C 0.414062 -1.359375 0.476562 -1.390625 0.53125 -1.421875 L 0.65625 -1.421875 L 0.65625 -0.140625 L 1 -0.140625 L 1 0 Z M 0.109375 0 "/></g></g></g></svg>