<svg xmlns="http://www.w3.org/2000/svg" xmlns:xlink="http://www.w3.org/1999/xlink" width="31" zoomAndPan="magnify" viewBox="0 0 23.25 22.5" height="30" preserveAspectRatio="xMidYMid meet" version="1.0"><defs><g/><clipPath id="f1a1003868"><path d="M 0 0.109375 L 21.785156 0.109375 L 21.785156 21.90625 L 0 21.90625 Z M 0 0.109375 " clip-rule="nonzero"/></clipPath></defs><g clip-path="url(#f1a1003868)"><path fill="#ff725e" d="M 10.210938 16.652344 C 10.210938 16.566406 10.242188 16.496094 10.296875 16.4375 C 10.355469 16.378906 10.429688 16.351562 10.511719 16.351562 L 11.390625 16.351562 C 11.472656 16.351562 11.542969 16.378906 11.601562 16.4375 C 11.660156 16.496094 11.691406 16.566406 11.691406 16.652344 C 11.691406 16.734375 11.660156 16.804688 11.601562 16.863281 C 11.542969 16.921875 11.472656 16.949219 11.390625 16.949219 L 10.511719 16.949219 C 10.429688 16.949219 10.355469 16.921875 10.296875 16.863281 C 10.242188 16.804688 10.210938 16.734375 10.210938 16.652344 Z M 21.90625 4.46875 L 21.90625 16.996094 C 21.90625 17.15625 21.875 17.308594 21.8125 17.457031 C 21.753906 17.601562 21.667969 17.730469 21.554688 17.84375 C 21.441406 17.957031 21.3125 18.042969 21.167969 18.101562 C 21.019531 18.164062 20.867188 18.195312 20.707031 18.195312 L 13.253906 18.195312 L 13.253906 19.839844 L 13.59375 19.839844 C 13.855469 19.839844 14.078125 19.929688 14.261719 20.113281 C 14.445312 20.296875 14.535156 20.519531 14.535156 20.78125 L 14.535156 21.421875 C 14.535156 21.503906 14.507812 21.574219 14.449219 21.632812 C 14.390625 21.691406 14.320312 21.722656 14.238281 21.722656 L 7.664062 21.722656 C 7.582031 21.722656 7.511719 21.691406 7.453125 21.632812 C 7.394531 21.574219 7.363281 21.503906 7.363281 21.421875 L 7.363281 20.78125 C 7.363281 20.519531 7.457031 20.296875 7.640625 20.113281 C 7.824219 19.929688 8.046875 19.839844 8.304688 19.839844 L 8.644531 19.839844 L 8.644531 18.195312 L 1.191406 18.195312 C 1.03125 18.195312 0.878906 18.164062 0.734375 18.101562 C 0.585938 18.042969 0.457031 17.957031 0.347656 17.84375 C 0.234375 17.730469 0.148438 17.601562 0.0859375 17.457031 C 0.0273438 17.308594 -0.00390625 17.15625 -0.00390625 16.996094 L -0.00390625 4.46875 C -0.00390625 4.3125 0.0273438 4.160156 0.0859375 4.011719 C 0.148438 3.867188 0.234375 3.738281 0.347656 3.625 C 0.457031 3.511719 0.585938 3.425781 0.734375 3.367188 C 0.878906 3.304688 1.03125 3.273438 1.191406 3.273438 L 17.707031 3.273438 C 18.0625 2.792969 18.382812 2.367188 18.667969 2.007812 C 19.160156 1.375 19.539062 0.929688 19.828125 0.644531 C 20.121094 0.355469 20.433594 0.109375 20.71875 0.273438 C 21.042969 0.457031 20.933594 0.929688 20.792969 1.394531 C 20.660156 1.835938 20.425781 2.453125 20.082031 3.273438 L 20.707031 3.273438 C 20.867188 3.273438 21.019531 3.304688 21.167969 3.363281 C 21.3125 3.425781 21.441406 3.511719 21.554688 3.625 C 21.667969 3.738281 21.753906 3.867188 21.8125 4.011719 C 21.875 4.160156 21.90625 4.3125 21.90625 4.46875 Z M 18.113281 3.734375 C 18.105469 3.746094 18.097656 3.757812 18.089844 3.765625 C 17.402344 4.703125 16.582031 5.863281 15.609375 7.261719 L 17.199219 8.179688 C 18.183594 6.089844 18.859375 4.601562 19.351562 3.460938 C 19.351562 3.457031 19.355469 3.457031 19.355469 3.453125 C 19.359375 3.4375 19.367188 3.425781 19.371094 3.410156 C 19.933594 2.101562 20.171875 1.410156 20.269531 1.050781 C 20.027344 1.285156 19.609375 1.753906 18.894531 2.691406 C 18.65625 3 18.394531 3.351562 18.113281 3.734375 Z M 16.726562 9.179688 C 16.800781 9.027344 16.871094 8.875 16.941406 8.722656 L 15.269531 7.757812 C 15.175781 7.894531 15.078125 8.035156 14.984375 8.175781 Z M 14.527344 8.601562 C 14.019531 8.820312 13.9375 9.230469 13.835938 9.953125 C 13.738281 10.625 13.625 11.429688 12.886719 12.054688 C 14.0625 12.421875 14.898438 12.078125 15.417969 11.691406 C 16.175781 11.125 16.550781 10.265625 16.566406 9.78125 Z M 8.304688 20.4375 C 8.210938 20.4375 8.128906 20.472656 8.0625 20.539062 C 7.996094 20.605469 7.964844 20.6875 7.964844 20.78125 L 7.964844 21.121094 L 13.9375 21.121094 L 13.9375 20.78125 C 13.9375 20.6875 13.902344 20.605469 13.835938 20.539062 C 13.769531 20.472656 13.691406 20.4375 13.59375 20.4375 Z M 12.65625 19.839844 L 12.65625 18.195312 L 9.246094 18.195312 L 9.246094 19.839844 Z M 21.304688 15.707031 L 0.59375 15.707031 L 0.59375 16.996094 C 0.59375 17.164062 0.652344 17.304688 0.769531 17.417969 C 0.886719 17.535156 1.027344 17.59375 1.191406 17.59375 L 20.707031 17.59375 C 20.875 17.59375 21.015625 17.535156 21.132812 17.421875 C 21.246094 17.304688 21.304688 17.164062 21.304688 16.996094 Z M 21.304688 4.46875 C 21.304688 4.304688 21.246094 4.164062 21.132812 4.046875 C 21.015625 3.929688 20.875 3.875 20.707031 3.875 L 19.824219 3.875 C 19.316406 5.046875 18.609375 6.589844 17.609375 8.710938 C 17.605469 8.722656 17.597656 8.738281 17.589844 8.753906 C 17.453125 9.042969 17.3125 9.34375 17.164062 9.65625 C 17.207031 10.355469 16.707031 11.472656 15.777344 12.171875 C 15.210938 12.601562 14.570312 12.816406 13.859375 12.816406 C 13.351562 12.816406 12.773438 12.699219 12.125 12.402344 C 12.011719 12.351562 11.953125 12.265625 11.949219 12.140625 C 11.945312 12.019531 11.996094 11.925781 12.105469 11.867188 C 13.027344 11.363281 13.132812 10.636719 13.242188 9.871094 C 13.34375 9.167969 13.457031 8.375 14.359375 8.023438 C 14.550781 7.746094 14.738281 7.472656 14.917969 7.210938 C 14.925781 7.195312 14.9375 7.183594 14.945312 7.171875 C 15.839844 5.878906 16.609375 4.785156 17.269531 3.875 L 1.191406 3.875 C 1.027344 3.875 0.886719 3.933594 0.769531 4.046875 C 0.652344 4.164062 0.59375 4.304688 0.59375 4.46875 L 0.59375 15.109375 L 21.304688 15.109375 Z M 10.816406 5.402344 L 10.816406 13.738281 C 10.816406 13.820312 10.789062 13.890625 10.730469 13.949219 C 10.671875 14.007812 10.601562 14.035156 10.519531 14.035156 L 1.949219 14.035156 C 1.867188 14.035156 1.792969 14.007812 1.734375 13.949219 C 1.679688 13.890625 1.648438 13.820312 1.648438 13.738281 L 1.648438 5.402344 C 1.648438 5.316406 1.679688 5.246094 1.734375 5.1875 C 1.792969 5.128906 1.867188 5.101562 1.949219 5.101562 L 10.519531 5.101562 C 10.601562 5.101562 10.671875 5.128906 10.730469 5.1875 C 10.789062 5.246094 10.816406 5.316406 10.816406 5.402344 Z M 7.335938 13.4375 L 5.253906 11.144531 L 5.25 11.144531 L 4.238281 10.035156 C 4.1875 9.976562 4.125 9.949219 4.046875 9.949219 C 3.96875 9.949219 3.90625 9.976562 3.855469 10.03125 L 2.246094 11.800781 L 2.246094 13.4375 Z M 10.21875 11.796875 L 7.851562 9.199219 C 7.800781 9.140625 7.738281 9.113281 7.660156 9.113281 C 7.582031 9.113281 7.519531 9.140625 7.46875 9.199219 L 5.878906 10.945312 L 8.148438 13.4375 L 10.21875 13.4375 Z M 10.21875 5.699219 L 2.246094 5.699219 L 2.246094 10.910156 L 3.410156 9.628906 C 3.492188 9.539062 3.589844 9.472656 3.699219 9.421875 C 3.808594 9.371094 3.925781 9.347656 4.046875 9.347656 C 4.167969 9.347656 4.285156 9.371094 4.394531 9.421875 C 4.507812 9.472656 4.601562 9.539062 4.683594 9.628906 L 5.472656 10.5 L 7.023438 8.796875 C 7.105469 8.707031 7.203125 8.636719 7.3125 8.585938 C 7.421875 8.539062 7.539062 8.515625 7.660156 8.515625 C 7.78125 8.515625 7.898438 8.539062 8.007812 8.585938 C 8.117188 8.636719 8.214844 8.707031 8.296875 8.796875 L 10.21875 10.910156 Z M 3.066406 7.28125 C 3.066406 7.046875 3.152344 6.84375 3.316406 6.679688 C 3.484375 6.511719 3.683594 6.429688 3.917969 6.429688 C 4.15625 6.429688 4.355469 6.511719 4.523438 6.679688 C 4.6875 6.84375 4.769531 7.046875 4.769531 7.28125 C 4.769531 7.515625 4.6875 7.714844 4.523438 7.882812 C 4.355469 8.050781 4.15625 8.132812 3.917969 8.132812 C 3.683594 8.132812 3.484375 8.046875 3.316406 7.882812 C 3.152344 7.714844 3.066406 7.515625 3.066406 7.28125 Z M 3.667969 7.28125 C 3.667969 7.351562 3.691406 7.410156 3.742188 7.457031 C 3.789062 7.507812 3.851562 7.53125 3.917969 7.53125 C 3.988281 7.53125 4.046875 7.507812 4.097656 7.457031 C 4.148438 7.410156 4.171875 7.351562 4.171875 7.28125 C 4.171875 7.210938 4.148438 7.152344 4.097656 7.101562 C 4.046875 7.050781 3.988281 7.027344 3.917969 7.027344 C 3.847656 7.027344 3.789062 7.054688 3.742188 7.101562 C 3.691406 7.152344 3.667969 7.210938 3.667969 7.28125 Z M 3.667969 7.28125 " fill-opacity="1" fill-rule="nonzero"/></g><g fill="#ffffff" fill-opacity="1"><g transform="translate(11.109229, 10.68996)"><g><path d="M 0.09375 0 L 0.09375 -0.140625 L 0.46875 -0.140625 L 0.46875 -1.1875 L 0.453125 -1.203125 C 0.390625 -1.171875 0.332031 -1.144531 0.28125 -1.125 C 0.238281 -1.113281 0.179688 -1.097656 0.109375 -1.078125 L 0.109375 -1.234375 C 0.179688 -1.242188 0.253906 -1.257812 0.328125 -1.28125 C 0.398438 -1.3125 0.460938 -1.347656 0.515625 -1.390625 L 0.640625 -1.390625 L 0.640625 -0.140625 L 0.96875 -0.140625 L 0.96875 0 Z M 0.09375 0 "/></g></g></g></svg>