<svg xmlns="http://www.w3.org/2000/svg" xmlns:xlink="http://www.w3.org/1999/xlink" width="36" zoomAndPan="magnify" viewBox="0 0 26.88 24.749999" height="33" preserveAspectRatio="xMidYMid meet" version="1.0"><defs><g/><clipPath id="f2697232a2"><path d="M 0.0742188 0 L 7 0 L 7 11 L 0.0742188 11 Z M 0.0742188 0 " clip-rule="nonzero"/></clipPath><clipPath id="9f20796c8b"><path d="M 20 14 L 26.6875 14 L 26.6875 24.503906 L 20 24.503906 Z M 20 14 " clip-rule="nonzero"/></clipPath></defs><path fill="#ff725e" d="M 21.089844 22.160156 L 21.671875 21.511719 C 21.9375 21.511719 22.070312 21.511719 22.332031 21.511719 L 22.914062 22.160156 C 23.300781 22 23.300781 22 23.6875 21.839844 L 23.640625 20.96875 C 23.828125 20.785156 23.921875 20.691406 24.109375 20.503906 L 24.976562 20.550781 C 25.136719 20.164062 25.136719 20.164062 25.296875 19.777344 L 24.652344 19.195312 C 24.652344 18.929688 24.652344 18.796875 24.652344 18.535156 L 25.296875 17.953125 C 25.136719 17.566406 25.136719 17.566406 24.976562 17.179688 L 24.109375 17.226562 C 23.921875 17.039062 23.828125 16.945312 23.640625 16.757812 L 23.6875 15.890625 C 23.300781 15.730469 23.300781 15.730469 22.914062 15.570312 L 22.332031 16.214844 C 22.070312 16.214844 21.9375 16.214844 21.671875 16.214844 L 21.089844 15.570312 C 20.703125 15.730469 20.703125 15.730469 20.316406 15.890625 L 20.363281 16.757812 C 20.175781 16.945312 20.082031 17.039062 19.898438 17.226562 L 19.027344 17.179688 C 18.867188 17.566406 18.867188 17.566406 18.707031 17.953125 L 19.238281 18.429688 L 6.546875 18.429688 C 5.875 18.429688 5.328125 17.882812 5.328125 17.210938 L 5.328125 13.800781 C 5.328125 13.125 5.875 12.578125 6.546875 12.578125 L 10.703125 12.578125 L 10.203125 13.03125 C 10.363281 13.417969 10.363281 13.417969 10.523438 13.804688 L 11.390625 13.757812 C 11.578125 13.945312 11.671875 14.039062 11.855469 14.222656 L 11.8125 15.09375 C 12.199219 15.253906 12.199219 15.253906 12.585938 15.414062 L 13.167969 14.765625 C 13.429688 14.765625 13.5625 14.765625 13.824219 14.765625 L 14.410156 15.414062 C 14.792969 15.253906 14.796875 15.253906 15.179688 15.09375 L 15.136719 14.222656 C 15.324219 14.039062 15.417969 13.945312 15.601562 13.757812 L 16.472656 13.804688 C 16.632812 13.417969 16.632812 13.417969 16.792969 13.03125 L 16.269531 12.558594 L 20.347656 12.578125 C 20.90625 12.578125 21.429688 12.363281 21.824219 11.96875 C 22.21875 11.574219 22.4375 11.050781 22.4375 10.492188 L 22.4375 7.183594 C 22.4375 6.625 22.21875 6.101562 21.824219 5.707031 C 21.429688 5.3125 20.90625 5.09375 20.347656 5.09375 L 7.660156 5.09375 L 8.1875 4.617188 C 8.027344 4.230469 8.027344 4.230469 7.871094 3.84375 L 7 3.890625 C 6.8125 3.703125 6.71875 3.609375 6.535156 3.425781 L 6.578125 2.554688 C 6.191406 2.394531 6.191406 2.394531 5.808594 2.234375 L 5.222656 2.882812 C 4.960938 2.882812 4.828125 2.882812 4.566406 2.882812 L 3.980469 2.234375 C 3.597656 2.394531 3.597656 2.394531 3.210938 2.554688 L 3.253906 3.425781 C 3.070312 3.609375 2.976562 3.703125 2.789062 3.890625 L 1.917969 3.84375 C 1.761719 4.230469 1.757812 4.230469 1.601562 4.617188 L 2.246094 5.199219 C 2.246094 5.464844 2.246094 5.597656 2.246094 5.859375 L 1.601562 6.441406 C 1.757812 6.828125 1.761719 6.828125 1.917969 7.214844 L 2.789062 7.167969 C 2.976562 7.355469 3.070312 7.449219 3.253906 7.636719 L 3.210938 8.503906 C 3.59375 8.664062 3.597656 8.664062 3.980469 8.824219 L 4.566406 8.179688 C 4.828125 8.179688 4.960938 8.179688 5.222656 8.179688 L 5.808594 8.824219 C 6.191406 8.664062 6.191406 8.664062 6.578125 8.503906 L 6.535156 7.636719 C 6.71875 7.449219 6.8125 7.355469 7 7.167969 L 7.867188 7.214844 C 8.027344 6.828125 8.027344 6.828125 8.1875 6.441406 L 7.660156 5.964844 L 20.347656 5.964844 C 21.019531 5.964844 21.566406 6.511719 21.566406 7.183594 L 21.566406 10.492188 C 21.566406 11.164062 21.019531 11.710938 20.347656 11.710938 L 16.253906 11.691406 L 16.792969 11.207031 C 16.632812 10.820312 16.632812 10.820312 16.472656 10.433594 L 15.601562 10.480469 C 15.417969 10.292969 15.324219 10.199219 15.136719 10.011719 L 15.179688 9.144531 C 14.796875 8.984375 14.792969 8.984375 14.410156 8.824219 L 13.824219 9.46875 C 13.5625 9.46875 13.429688 9.46875 13.167969 9.46875 L 12.585938 8.824219 C 12.199219 8.984375 12.199219 8.984375 11.8125 9.144531 L 11.855469 10.011719 C 11.671875 10.199219 11.578125 10.292969 11.390625 10.480469 L 10.523438 10.433594 C 10.363281 10.820312 10.363281 10.820312 10.203125 11.207031 L 10.761719 11.710938 L 6.546875 11.710938 C 5.992188 11.710938 5.464844 11.929688 5.070312 12.324219 C 4.675781 12.71875 4.460938 13.242188 4.460938 13.800781 L 4.460938 17.210938 C 4.460938 17.769531 4.675781 18.292969 5.070312 18.6875 C 5.464844 19.082031 5.992188 19.296875 6.546875 19.296875 L 19.238281 19.296875 L 18.707031 19.777344 C 18.867188 20.164062 18.867188 20.164062 19.027344 20.546875 L 19.898438 20.503906 C 20.082031 20.691406 20.175781 20.785156 20.363281 20.96875 L 20.316406 21.839844 C 20.703125 22 20.703125 22 21.089844 22.160156 Z M 22.003906 17.417969 C 22.800781 17.417969 23.449219 18.066406 23.449219 18.863281 C 23.449219 19.664062 22.800781 20.3125 22.003906 20.3125 C 21.203125 20.3125 20.554688 19.664062 20.554688 18.863281 C 20.554688 18.066406 21.203125 17.417969 22.003906 17.417969 Z M 4.894531 6.976562 C 4.09375 6.976562 3.445312 6.328125 3.445312 5.53125 C 3.445312 4.730469 4.09375 4.082031 4.894531 4.082031 C 5.695312 4.082031 6.339844 4.730469 6.339844 5.53125 C 6.339844 6.328125 5.695312 6.976562 4.894531 6.976562 Z M 13.496094 10.671875 C 14.296875 10.671875 14.945312 11.320312 14.945312 12.117188 C 14.945312 12.917969 14.296875 13.566406 13.496094 13.566406 C 12.699219 13.566406 12.050781 12.917969 12.050781 12.117188 C 12.050781 11.320312 12.699219 10.671875 13.496094 10.671875 Z M 13.496094 10.671875 " fill-opacity="1" fill-rule="nonzero"/><g clip-path="url(#f2697232a2)"><path fill="#ff725e" d="M 5.171875 10.078125 C 5.171875 9.925781 5.046875 9.800781 4.894531 9.800781 C 2.539062 9.800781 0.625 7.882812 0.625 5.53125 C 0.625 3.339844 2.28125 1.53125 4.402344 1.289062 L 4.402344 2 L 6.136719 1 L 4.402344 0 L 4.402344 0.726562 C 3.925781 0.777344 3.460938 0.894531 3.015625 1.082031 C 2.441406 1.324219 1.925781 1.671875 1.480469 2.117188 C 1.039062 2.558594 0.691406 3.074219 0.445312 3.652344 C 0.195312 4.246094 0.0664062 4.878906 0.0664062 5.53125 C 0.0664062 6.179688 0.195312 6.8125 0.445312 7.410156 C 0.691406 7.984375 1.039062 8.5 1.480469 8.941406 C 1.925781 9.386719 2.441406 9.734375 3.015625 9.976562 C 3.609375 10.230469 4.242188 10.355469 4.894531 10.355469 C 5.046875 10.355469 5.171875 10.230469 5.171875 10.078125 Z M 5.171875 10.078125 " fill-opacity="1" fill-rule="nonzero"/></g><g clip-path="url(#9f20796c8b)"><path fill="#ff725e" d="M 26.425781 16.996094 C 26.183594 16.425781 25.839844 15.910156 25.398438 15.46875 C 24.957031 15.027344 24.441406 14.683594 23.871094 14.441406 C 23.277344 14.191406 22.648438 14.0625 22.003906 14.0625 C 21.847656 14.0625 21.722656 14.1875 21.722656 14.34375 C 21.722656 14.496094 21.847656 14.621094 22.003906 14.621094 C 24.34375 14.621094 26.246094 16.523438 26.246094 18.863281 C 26.246094 21.109375 24.496094 22.953125 22.285156 23.097656 L 22.285156 22.386719 L 20.554688 23.386719 L 22.285156 24.386719 L 22.285156 23.65625 C 22.835938 23.625 23.367188 23.5 23.871094 23.289062 C 24.441406 23.046875 24.957031 22.699219 25.398438 22.257812 C 25.835938 21.820312 26.183594 21.304688 26.425781 20.734375 C 26.675781 20.140625 26.804688 19.511719 26.804688 18.863281 C 26.804688 18.214844 26.675781 17.585938 26.425781 16.996094 Z M 26.425781 16.996094 " fill-opacity="1" fill-rule="nonzero"/></g><g fill="#ffffff" fill-opacity="1"><g transform="translate(12.912917, 8.375815)"><g><path d="M 0.09375 0 L 0.09375 -0.140625 L 0.484375 -0.140625 L 0.484375 -1.21875 L 0.46875 -1.234375 C 0.40625 -1.203125 0.347656 -1.175781 0.296875 -1.15625 C 0.253906 -1.132812 0.195312 -1.117188 0.125 -1.109375 L 0.125 -1.265625 C 0.195312 -1.273438 0.265625 -1.289062 0.328125 -1.3125 C 0.398438 -1.34375 0.46875 -1.378906 0.53125 -1.421875 L 0.65625 -1.421875 L 0.65625 -0.140625 L 1 -0.140625 L 1 0 Z M 0.09375 0 "/></g></g></g></svg>