<svg width="61" height="60" viewBox="0 0 61 60" fill="none" xmlns="http://www.w3.org/2000/svg">
<g id="workplace">
<g id="Group">
<path id="Vector" d="M48.8545 51.9139H34.792C34.6842 51.9139 34.5776 51.8928 34.478 51.8516C34.3784 51.8104 34.288 51.7499 34.2118 51.6738C34.1356 51.5976 34.0752 51.5071 34.034 51.4076C33.9928 51.308 33.9716 51.2013 33.9717 51.0936V44.0347C33.9717 43.8171 34.0581 43.6085 34.2119 43.4546C34.3658 43.3008 34.5744 43.2144 34.792 43.2144H48.8545C49.0721 43.2144 49.2807 43.3008 49.4345 43.4546C49.5884 43.6085 49.6748 43.8171 49.6748 44.0347V51.0936C49.6749 51.2013 49.6537 51.308 49.6125 51.4076C49.5713 51.5071 49.5109 51.5976 49.4347 51.6738C49.3585 51.7499 49.268 51.8104 49.1685 51.8516C49.0689 51.8928 48.9622 51.9139 48.8545 51.9139ZM35.6109 50.2733H48.0328V44.855H35.6109V50.2733Z" fill="#FF725E"/>
<path id="Vector_2" d="M48.8545 37.7967H34.792C34.6842 37.7968 34.5776 37.7756 34.478 37.7344C34.3784 37.6932 34.288 37.6328 34.2118 37.5566C34.1356 37.4804 34.0752 37.3899 34.034 37.2904C33.9928 37.1908 33.9716 37.0841 33.9717 36.9764V29.9175C33.9716 29.8097 33.9928 29.703 34.034 29.6035C34.0752 29.5039 34.1356 29.4135 34.2118 29.3373C34.288 29.2611 34.3784 29.2007 34.478 29.1595C34.5776 29.1183 34.6842 29.0971 34.792 29.0972H48.8545C48.9622 29.0971 49.0689 29.1183 49.1685 29.1595C49.268 29.2007 49.3585 29.2611 49.4347 29.3373C49.5109 29.4135 49.5713 29.5039 49.6125 29.6035C49.6537 29.703 49.6749 29.8097 49.6748 29.9175V36.9764C49.6749 37.0841 49.6537 37.1908 49.6125 37.2904C49.5713 37.3899 49.5109 37.4804 49.4347 37.5566C49.3585 37.6328 49.268 37.6932 49.1685 37.7344C49.0689 37.7756 48.9622 37.7968 48.8545 37.7967ZM35.6109 36.1561H48.0328V30.7378H35.6109V36.1561Z" fill="#FF725E"/>
<path id="Vector_3" d="M12.9766 51.914H12.2636C11.7008 51.9132 11.1612 51.6893 10.7632 51.2914C10.3653 50.8934 10.1414 50.3538 10.1406 49.791V29.916C10.1406 29.6985 10.227 29.4898 10.3809 29.336C10.5347 29.1821 10.7434 29.0957 10.9609 29.0957H14.2792C14.387 29.0956 14.4937 29.1168 14.5932 29.158C14.6928 29.1992 14.7832 29.2596 14.8594 29.3358C14.9356 29.412 14.996 29.5025 15.0372 29.602C15.0784 29.7016 15.0996 29.8083 15.0995 29.916V49.791C15.0988 50.3538 14.8749 50.8934 14.4769 51.2914C14.0789 51.6893 13.5394 51.9132 12.9766 51.914ZM11.7813 30.7377V49.791C11.7814 49.9189 11.8322 50.0415 11.9227 50.1319C12.0131 50.2224 12.1357 50.2732 12.2636 50.2734H12.9766C13.1044 50.2732 13.2271 50.2224 13.3175 50.1319C13.4079 50.0415 13.4588 49.9189 13.4589 49.791V30.7377H11.7813Z" fill="#FF725E"/>
<path id="Vector_4" d="M48.8545 44.8551H34.792C34.6842 44.8551 34.5776 44.834 34.478 44.7928C34.3784 44.7515 34.288 44.6911 34.2118 44.6149C34.1356 44.5388 34.0752 44.4483 34.034 44.3487C33.9928 44.2492 33.9716 44.1425 33.9717 44.0348V36.9763C33.9716 36.8686 33.9928 36.7619 34.034 36.6623C34.0752 36.5628 34.1356 36.4723 34.2118 36.3961C34.288 36.3199 34.3784 36.2595 34.478 36.2183C34.5776 36.1771 34.6842 36.1559 34.792 36.156H48.8545C48.9622 36.1559 49.0689 36.1771 49.1685 36.2183C49.268 36.2595 49.3585 36.3199 49.4347 36.3961C49.5109 36.4723 49.5713 36.5628 49.6125 36.6623C49.6537 36.7619 49.6749 36.8686 49.6748 36.9763V44.0348C49.6749 44.1425 49.6537 44.2492 49.6125 44.3487C49.5713 44.4483 49.5109 44.5388 49.4347 44.6149C49.3585 44.6911 49.268 44.7515 49.1685 44.7928C49.0689 44.834 48.9622 44.8551 48.8545 44.8551ZM35.6109 43.2144H48.0328V37.7966H35.6109V43.2144Z" fill="#FF725E"/>
<path id="Vector_5" d="M42.8269 34.2656H41.1445C40.927 34.2656 40.7183 34.1792 40.5645 34.0254C40.4106 33.8715 40.3242 33.6629 40.3242 33.4453C40.3242 33.2278 40.4106 33.0191 40.5645 32.8653C40.7183 32.7114 40.927 32.625 41.1445 32.625H42.8269C43.0444 32.625 43.2531 32.7114 43.4069 32.8653C43.5608 33.0191 43.6472 33.2278 43.6472 33.4453C43.6472 33.6629 43.5608 33.8715 43.4069 34.0254C43.2531 34.1792 43.0444 34.2656 42.8269 34.2656Z" fill="#FF725E"/>
<path id="Vector_6" d="M42.8269 41.3259H41.1445C40.927 41.3259 40.7183 41.2395 40.5645 41.0857C40.4106 40.9318 40.3242 40.7232 40.3242 40.5056C40.3242 40.2881 40.4106 40.0794 40.5645 39.9256C40.7183 39.7717 40.927 39.6853 41.1445 39.6853H42.8269C43.0444 39.6853 43.2531 39.7717 43.4069 39.9256C43.5608 40.0794 43.6472 40.2881 43.6472 40.5056C43.6472 40.7232 43.5608 40.9318 43.4069 41.0857C43.2531 41.2395 43.0444 41.3259 42.8269 41.3259Z" fill="#FF725E"/>
<path id="Vector_7" d="M42.8269 48.3848H41.1445C40.927 48.3848 40.7183 48.2983 40.5645 48.1445C40.4106 47.9907 40.3242 47.782 40.3242 47.5645C40.3242 47.3469 40.4106 47.1382 40.5645 46.9844C40.7183 46.8306 40.927 46.7441 41.1445 46.7441H42.8269C43.0444 46.7441 43.2531 46.8306 43.4069 46.9844C43.5608 47.1382 43.6472 47.3469 43.6472 47.5645C43.6472 47.782 43.5608 47.9907 43.4069 48.1445C43.2531 48.2983 43.0444 48.3848 42.8269 48.3848Z" fill="#FF725E"/>
</g>
<path id="Vector_8" d="M37.5948 22.547H20.3654C19.8118 22.5623 19.2747 22.3577 18.8715 21.9781C18.4683 21.5984 18.2319 21.0745 18.2139 20.521V10.1148C18.2311 9.56077 18.4673 9.03619 18.8706 8.65594C19.2738 8.27568 19.8114 8.07075 20.3654 8.08603H37.5948C38.1487 8.07049 38.6862 8.27506 39.0896 8.65494C39.4931 9.03482 39.7295 9.55906 39.7473 10.1129V20.5192C39.7298 21.0732 39.4934 21.5976 39.09 21.9777C38.6865 22.3578 38.1489 22.5625 37.5948 22.547ZM20.3654 9.72665C20.0879 9.72665 19.8536 9.90337 19.8536 10.1129V20.5192C19.8536 20.7287 20.0879 20.9059 20.3654 20.9059H37.5948C37.8723 20.9059 38.1067 20.7287 38.1067 20.5192V10.1129C38.1067 9.90337 37.8723 9.72665 37.5948 9.72665H20.3654Z" fill="#6A797C"/>
<path id="Vector_9" d="M32.37 26.5134H25.5895C25.4737 26.5132 25.3593 26.4884 25.2537 26.4408C25.1482 26.3932 25.0539 26.3238 24.9771 26.2372C24.9003 26.1505 24.8427 26.0486 24.8081 25.9381C24.7734 25.8276 24.7626 25.7111 24.7762 25.5961L25.245 21.6309C25.2684 21.4312 25.3644 21.2471 25.5146 21.1135C25.6649 20.9799 25.859 20.9061 26.0601 20.9063H31.8989C32.0996 20.9062 32.2935 20.9798 32.4436 21.1131C32.5938 21.2464 32.6898 21.4302 32.7136 21.6295L33.1823 25.5947C33.1962 25.7097 33.1856 25.8264 33.1511 25.937C33.1167 26.0476 33.0592 26.1497 32.9825 26.2365C32.9057 26.3233 32.8115 26.3929 32.7059 26.4406C32.6003 26.4883 32.4858 26.5132 32.37 26.5134ZM26.5106 24.8728H31.4465L31.1704 22.5469H26.789L26.5106 24.8728Z" fill="#6A797C"/>
<path id="Vector_10" d="M49.8746 30.7377H10.4593C9.87435 30.7371 9.3135 30.5045 8.89986 30.0908C8.48621 29.6772 8.25355 29.1163 8.25293 28.5313V27.0782C8.25343 26.4931 8.48603 25.9322 8.89969 25.5184C9.31335 25.1047 9.87427 24.872 10.4593 24.8713H49.8746C50.4597 24.872 51.0206 25.1047 51.4343 25.5184C51.848 25.9322 52.0806 26.4931 52.0811 27.0782V28.5313C52.0804 29.1163 51.8478 29.6772 51.4341 30.0908C51.0205 30.5045 50.4596 30.7371 49.8746 30.7377ZM10.4593 26.5134C10.3093 26.5136 10.1654 26.5734 10.0594 26.6795C9.95331 26.7857 9.89368 26.9296 9.89355 27.0796V28.5327C9.89368 28.6828 9.95333 28.8266 10.0594 28.9327C10.1655 29.0388 10.3093 29.0984 10.4593 29.0985H49.8746C50.0247 29.0984 50.1685 29.0388 50.2746 28.9327C50.3807 28.8266 50.4403 28.6828 50.4404 28.5327V27.0796C50.4403 26.9296 50.3807 26.7857 50.2746 26.6795C50.1685 26.5734 50.0247 26.5136 49.8746 26.5134H10.4593Z" fill="#FF725E"/>
</g>
</svg>
