<svg width="30" height="30" viewBox="0 0 30 30" fill="none" xmlns="http://www.w3.org/2000/svg">
<g clip-path="url(#clip0_1716_17781)">
<path d="M14.9998 4.89142C15.3585 4.89142 15.652 4.59794 15.652 4.23925V3.91316C15.652 3.55446 15.3585 3.26099 14.9998 3.26099C14.6411 3.26099 14.3477 3.55446 14.3477 3.91316V4.23925C14.3477 4.59794 14.6411 4.89142 14.9998 4.89142Z" fill="#4F5B5E"/>
<path d="M14.9998 25.1086C14.6411 25.1086 14.3477 25.4021 14.3477 25.7608V26.0869C14.3477 26.4456 14.6411 26.7391 14.9998 26.7391C15.3585 26.7391 15.652 26.4456 15.652 26.0869V25.7608C15.652 25.4021 15.3585 25.1086 14.9998 25.1086Z" fill="#4F5B5E"/>
<path d="M4.239 14.3479H3.91292C3.55422 14.3479 3.26074 14.6414 3.26074 15.0001C3.26074 15.3588 3.55422 15.6522 3.91292 15.6522H4.239C4.5977 15.6522 4.89118 15.3588 4.89118 15.0001C4.89118 14.6414 4.5977 14.3479 4.239 14.3479Z" fill="#4F5B5E"/>
<path d="M26.0871 14.3479H25.7611C25.4024 14.3479 25.1089 14.6414 25.1089 15.0001C25.1089 15.3588 25.4024 15.6522 25.7611 15.6522H26.0871C26.4458 15.6522 26.7393 15.3588 26.7393 15.0001C26.7393 14.6414 26.4458 14.3479 26.0871 14.3479Z" fill="#4F5B5E"/>
<path d="M7.63067 6.71738C7.3698 6.45651 6.97849 6.45651 6.71762 6.71738C6.45676 6.97825 6.45676 7.36955 6.71762 7.63042L6.94589 7.85869C7.07632 7.98912 7.23936 8.05434 7.40241 8.05434C7.56545 8.05434 7.72849 7.98912 7.85893 7.85869C8.1198 7.59782 8.1198 7.20651 7.85893 6.94564L7.63067 6.71738Z" fill="#4F5B5E"/>
<path d="M6.94589 22.1412L6.71762 22.3695C6.45676 22.6303 6.45676 23.0216 6.71762 23.2825C6.84806 23.4129 7.0111 23.4782 7.17415 23.4782C7.33719 23.4782 7.50023 23.4129 7.63067 23.2825L7.85893 23.0543C8.1198 22.7934 8.1198 22.4021 7.85893 22.1412C7.59806 21.8803 7.20675 21.8803 6.94589 22.1412Z" fill="#4F5B5E"/>
<path d="M22.3697 6.71738L22.1415 6.94564C21.8806 7.20651 21.8806 7.59782 22.1415 7.85869C22.2719 7.98912 22.4349 8.05434 22.598 8.05434C22.761 8.05434 22.9241 7.98912 23.0545 7.85869L23.2828 7.63042C23.5436 7.36955 23.5436 6.97825 23.2828 6.71738C23.0219 6.45651 22.6306 6.45651 22.3697 6.71738Z" fill="#4F5B5E"/>
<path d="M15.652 14.7391V8.80427C15.652 8.44558 15.3585 8.1521 14.9998 8.1521C14.6411 8.1521 14.3477 8.44558 14.3477 8.80427V14.9999C14.3477 15.163 14.4129 15.326 14.5433 15.4564L21.6846 22.5978C21.815 22.7282 21.9781 22.7934 22.1411 22.7934C22.3042 22.7934 22.4672 22.7282 22.5977 22.5978C22.8585 22.3369 22.8585 21.9456 22.5977 21.6847L15.652 14.7391Z" fill="#4F5B5E"/>
<path d="M15 0C6.71739 0 0 6.71739 0 15C0 23.2826 6.71739 30 15 30C23.2826 30 30 23.2826 30 15C30 6.71739 23.2826 0 15 0ZM15 28.6957C7.43478 28.6957 1.30435 22.5652 1.30435 15C1.30435 7.43478 7.43478 1.30435 15 1.30435C22.5652 1.30435 28.6957 7.43478 28.6957 15C28.6957 22.5652 22.5652 28.6957 15 28.6957Z" fill="#4F5B5E"/>
</g>
<defs>
<clipPath id="clip0_1716_17781">
<rect width="30" height="30" fill="white"/>
</clipPath>
</defs>
</svg>
