<svg width="299" height="297" viewBox="0 0 299 297" fill="none" xmlns="http://www.w3.org/2000/svg">
<path fill-rule="evenodd" clip-rule="evenodd" d="M109.859 108.344C109.842 104.513 103.084 100.205 100.197 97.984C94.489 93.5911 88.5524 89.5344 82.6709 85.4129C76.7893 81.2915 70.8919 77.1812 65.2835 72.6564C61.6419 69.7192 57.3631 66.411 54.8934 62.2169C49.6322 53.2791 66.2203 54.6063 70.5172 54.4108C81.4482 53.9114 93.9861 54.1393 104.232 49.4849C110.349 46.7064 112.788 42.0464 111.474 35.2547C111.051 33.046 109.797 30.5043 110.859 28.3525C111.993 26.0543 114.601 24.7282 116.766 23.8388C124.662 20.5989 133.741 20.2235 142.095 19.8168C151.104 19.3699 160.197 19.5006 169.142 19.466C172.935 19.4515 176.896 18.0136 180.508 16.845C185.243 15.3132 189.922 13.5927 194.618 11.9291C204.949 8.27802 215.594 4.4325 226.524 3.5052C233.369 2.92423 240.85 3.70965 246.167 8.7629C248.837 11.3001 250.234 15.0719 251.778 18.4225C253.646 22.4702 255.44 26.5571 257.43 30.5411C263.837 43.3725 272.986 55.9113 287.834 56.5414C290.081 56.6363 292.287 56.3269 294.523 56.2688C295.946 56.233 297.214 56.5961 297.743 58.1681C299.074 62.1108 294.891 68.3349 293.176 71.4632C289.421 78.3107 285.187 84.851 281.22 91.5611C278.596 95.9987 274.054 102.063 274.006 107.455C273.964 112.259 280.019 115.731 283.315 118.098C286.404 120.313 292.001 123.413 292.34 127.92C292.504 130.106 291.138 131.917 289.712 133.322C287.213 135.78 284.334 137.514 282.085 140.318C278.398 144.919 275.318 151.249 275.818 157.449C276.166 161.745 278.488 164.558 281.443 167.247C282.684 168.378 283.692 169.178 283.758 171.013C283.864 173.928 282.782 177.013 281.89 179.715C278.702 189.387 274.173 198.74 269.135 207.472C266.618 211.836 263.899 216.186 260.561 219.909C258.375 222.353 255.427 225.263 252.092 225.259C248.231 225.259 244.146 223.789 240.394 222.69C233.385 220.635 226.46 218.26 219.564 215.823C203.614 210.186 187.815 204.091 172.165 197.541C161.142 192.919 149.885 188.29 139.521 182.145C137.5 180.939 135.593 179.532 133.824 177.943C131.935 176.275 129.59 175.529 127.212 174.973C112.455 171.519 96.2886 174.17 81.4704 175.833C77.7092 176.254 73.9481 176.677 70.1763 176.972C66.9338 177.226 63.052 177.953 59.9005 176.861C53.6908 174.71 59.1193 166.783 61.4143 163.553C69.4946 152.181 79.9196 142.559 89.5824 132.737C94.1767 128.059 98.8059 123.393 103.15 118.451C105.413 115.881 109.873 111.703 109.859 108.344Z" stroke="#FFCEC7"/>
<path fill-rule="evenodd" clip-rule="evenodd" d="M112.643 107.698C110.166 103.645 105.821 100.648 102.214 97.8286C97.0234 93.7692 91.6696 89.9355 86.3963 85.9912C81.4101 82.2612 76.4133 78.4889 71.7957 74.2531C68.98 71.6701 65.4472 68.5812 64.1135 64.7608C61.2205 56.4802 76.7841 57.7365 80.6262 57.5199C90.1781 56.9838 101.007 56.861 109.844 52.5012C115.362 49.7786 117.629 45.2637 116.452 38.9954C116.046 36.8267 115.312 34.9751 116.24 32.8176C117.314 30.3206 119.782 28.7638 122.044 27.6649C129.132 24.222 137.51 23.4906 145.194 22.882C153.131 22.2532 161.401 21.8099 169.083 22.27C172.155 22.4531 175.691 21.4134 178.732 20.6161C183.41 19.3877 188.04 17.9705 192.695 16.6528C202.154 13.9726 211.86 11.3907 221.701 11.097C228.806 10.8848 236.213 12.0351 242.124 16.4808C248.115 20.9891 250.773 27.9776 254.095 34.6211C259.832 46.1068 267.581 60.0716 280.854 62.4983C282.867 62.8668 284.801 62.6669 286.812 62.7574C287.846 62.8032 289.023 62.9483 289.547 64.0238C290.908 66.8156 287.178 71.9202 285.923 74.0588C282.455 79.9686 278.555 85.5891 274.921 91.385C272.034 95.9871 268.375 101.101 267.259 106.556C265.904 113.176 274.757 117.886 277.87 122.548C283.267 130.631 273.042 135.236 268 139.09C262.211 143.514 257.433 151.586 262.622 158.432C264.607 161.049 267.05 162.61 267.937 166.026C269.323 171.368 268.275 177.473 267.15 182.754C265.455 190.693 262.773 198.546 259.126 205.721C256.514 210.858 252.181 218.913 245.834 218.309C241.562 217.906 237.219 216.433 233.059 215.131C226.83 213.182 220.68 210.961 214.562 208.654C200.44 203.343 186.474 197.486 172.783 191.045C163.44 186.648 137.381 168.681 135.42 168.04C129.574 166.131 122.927 166.467 116.899 166.763C108.881 167.156 100.904 168.174 92.9323 169.118C89.1378 169.565 85.3243 170.111 81.5097 170.331C78.7946 170.487 75.229 170.621 72.8508 168.956C68.2089 165.707 73.3805 158.274 75.5192 155.13C82.0711 145.489 90.3592 137.14 98.1304 128.604C101.944 124.413 105.816 120.228 109.278 115.701C110.674 113.873 114.174 110.202 112.643 107.698Z" stroke="#FFCEC7"/>
<path fill-rule="evenodd" clip-rule="evenodd" d="M116.07 105.619C109.306 97.5073 99.9703 91.4741 91.9132 84.6991C87.8694 81.2977 83.8 77.8036 80.3122 73.752C78.4979 71.6453 76.2323 68.9811 75.8828 66.0444C74.9486 58.1881 88.9762 59.2504 93.1747 58.9522C101.292 58.3736 110.462 57.9346 117.827 53.9255C122.326 51.4746 124.542 47.4521 123.701 42.1651C123.328 39.8193 122.748 37.8265 123.701 35.5231C124.667 33.1896 126.679 31.5431 128.717 30.3087C134.573 26.7587 141.851 25.6238 148.444 24.7782C156.178 23.7933 163.971 23.4087 171.759 23.6276C178.58 23.8164 185.368 21.6929 192.028 20.2932C200.851 18.44 209.834 16.8214 218.862 17.0661C225.992 17.2604 233.179 18.7874 239.274 22.8457C245.468 26.9788 249.192 33.165 252.55 39.8405C257.625 49.932 263.951 63.455 275.086 67.2876C276.705 67.8462 278.214 67.9076 279.885 68.0048C280.696 68.0517 281.744 68.0662 282.146 68.9588C283.114 71.108 279.535 75.2746 278.536 76.7267C275.348 81.3625 271.892 85.7894 268.625 90.3637C265.574 94.6342 262.252 99.0845 260.357 104.089C257.342 112.059 266.982 116.719 266.712 124.314C266.544 129.029 262.263 132.411 258.874 134.75C254.701 137.626 248.692 139.517 246.604 144.766C245.048 148.676 247.489 150.952 249.369 153.918C252.555 158.945 252.772 165.759 252.441 171.578C251.994 179.441 250.247 187.42 247.274 194.647C245.927 197.924 244.277 201.332 241.847 203.876C239.571 206.261 237.417 206.872 234.375 206.384C225.063 204.887 215.66 200.715 206.731 196.989C195.511 192.306 184.446 187.136 173.711 181.32C166.391 177.353 158.906 173.156 152.481 167.676C150.807 166.247 149.092 164.695 147.868 162.81C146.942 161.394 146.549 160.224 144.989 159.415C140.365 157.019 133.932 157.646 128.978 157.895C121.055 158.292 113.171 159.347 105.297 160.298C100.702 160.856 92.0467 162.614 88.3777 158.399C85.2108 154.76 89.0323 148.554 90.9843 145.348C95.9221 137.241 102.274 130.125 108.167 122.798C110.868 119.441 113.675 116.057 115.905 112.324C116.475 111.372 117.388 110.111 117.545 108.955C117.721 107.63 116.9 106.619 116.07 105.619Z" stroke="#FFCEC7"/>
<path fill-rule="evenodd" clip-rule="evenodd" d="M116.651 107.508C110.401 100.335 102.871 94.4427 96.1616 87.7307C93.1532 84.7213 90.1151 81.5643 87.8227 77.8931C86.5896 75.9188 85.2803 73.4337 85.6203 70.9799C86.596 63.9371 98.133 64.5732 102.794 64.1606C109.72 63.5547 117.676 62.9444 123.8 59.1468C127.812 56.6594 129.316 52.986 128.567 48.2483C127.763 43.1662 129.561 39.4771 133.652 36.6421C138.781 33.0905 145.256 31.6428 151.211 30.6143C158.387 29.3811 165.653 28.8345 172.921 28.981C179.99 29.1241 186.838 27.8743 193.861 27.0616C203.171 25.985 212.78 25.454 221.986 27.6608C230 29.5825 237.24 33.8171 242.667 40.3659C248.335 47.2008 251.141 55.8121 255.744 63.3736C258.615 68.0901 262.618 74.3292 267.982 76.1626C269.771 76.7741 273.032 75.949 271.603 78.9573C270.786 80.6778 269.258 82.187 268.05 83.5933C266.099 85.866 264.083 88.0762 262.099 90.3176C257.87 95.0955 253.341 99.9752 250.172 105.633C246.178 112.756 252.115 118.239 251.391 125.461C251.002 129.348 248.441 132.451 245.731 134.888C243.978 136.466 242.06 137.833 240.101 139.109C238.055 140.441 235.635 141.456 233.851 143.179C231.309 145.631 232.412 148.533 232.889 151.702C233.728 157.272 233.912 162.93 233.438 168.547C232.857 175.432 231.496 182.514 228.629 188.771C227.513 191.207 226.1 193.789 224.001 195.423C221.903 197.056 219.732 196.944 217.328 196.452C210.195 194.999 203.078 191.617 196.312 188.412C187.844 184.4 179.542 179.916 171.614 174.815C166.141 171.294 160.651 167.489 156.073 162.715C154.741 161.325 153.474 159.837 152.45 158.176C151.746 157.037 151.369 155.567 150.35 154.71C147.162 152.038 140.76 152.836 137.021 152.991C129.558 153.301 122.212 154.773 114.759 155.131C110.691 155.326 104.321 155.818 101.333 152.164C98.5239 148.729 101.068 143.318 102.747 140.008C106.047 133.499 110.48 127.701 114.454 121.65C116.087 119.161 117.878 116.556 118.936 113.713C119.877 111.18 118.253 109.347 116.651 107.508Z" stroke="#FFCEC7"/>
<path fill-rule="evenodd" clip-rule="evenodd" d="M118.189 107.625C113.214 101.314 107.216 95.7108 102.206 89.2964C99.2727 85.54 94.2216 79.2251 96.4899 73.9293C98.9784 68.11 107.653 67.9515 112.666 67.4826C118.634 66.9245 125.642 66.162 130.749 62.5284C132.365 61.3797 133.741 59.8593 134.324 57.8567C134.948 55.7133 134.266 53.8379 134.177 51.6924C133.99 47.1914 136.537 43.5779 139.907 41.0964C144.67 37.5878 150.626 35.929 156.252 34.7725C162.626 33.4681 169.105 32.825 175.598 32.8524C181.802 32.8747 187.941 32.7296 194.153 32.5622C202.275 32.3389 210.512 32.6995 218.391 34.9756C226.153 37.2194 233.21 41.4246 238.753 47.61C244.161 53.6459 247.809 61.0236 251.005 68.5386C252.818 72.804 255.881 79.1782 260.206 81.3327C262.129 82.2916 264.017 82.2257 261.972 84.7196C259.396 87.8597 255.926 90.3793 252.943 93.0651C248.64 96.9409 244.23 100.893 240.618 105.501C238.312 108.443 237.284 111.299 237.443 115.109C237.566 118.011 238.122 120.884 237.841 123.797C237.181 130.636 232.076 135.325 227.563 139.692C224.66 142.501 222.008 144.643 220.514 148.638C218.746 153.36 218.004 158.498 216.823 163.4C215.525 168.784 214.026 174.385 211.194 179.127C208.673 183.349 205.606 185.242 201.017 184.105C193.858 182.332 186.803 177.965 180.447 173.925C173.979 169.815 167.622 165.193 162.262 159.544C159.368 156.493 157.393 152.911 154.823 149.633C151.591 145.518 144.278 147.077 139.932 147.425C132.717 148.003 110.016 152.33 112.111 138.316C112.985 132.466 116.428 127.068 118.946 121.906C119.99 119.764 121.5 117.193 121.736 114.738C121.994 112.065 119.684 109.525 118.189 107.625Z" stroke="#FFCEC7"/>
<path fill-rule="evenodd" clip-rule="evenodd" d="M120.815 108.161C117.013 102.441 112.464 97.0378 109.202 90.8603C107.086 86.8596 105.008 81.5141 107.737 77.2811C110.818 72.5042 117.612 71.3906 122.604 70.7819C127.748 70.1553 133.887 69.6282 138.091 66.0061C139.429 64.8523 140.531 63.2965 140.736 61.4335C140.934 59.6465 140.376 57.8595 140.561 56.0401C140.975 51.9545 143.323 48.5882 146.35 46.1466C155.305 38.9237 168.632 37.3176 179.436 37.1288C184.844 37.035 190.409 37.5276 195.852 37.8805C202.915 38.3384 209.988 39.3213 216.723 41.6902C231.044 46.7252 240.643 57.8919 247.347 71.7871C249.457 76.1609 251.072 80.8931 254.378 84.408C256.083 86.223 255.71 87.5264 253.967 89.1816C251.243 91.7683 247.92 93.7452 244.896 95.9042C240.595 98.9745 236.201 102.091 232.398 105.769C229.776 108.304 227.915 110.747 227.35 114.548C226.947 117.259 227.041 120.021 226.798 122.749C226.337 127.93 224.757 133.072 221.961 137.37C219.739 140.776 217.094 143.872 214.36 146.824C210.806 150.668 207.8 154.572 205.101 159.134C201.522 165.172 196.494 176.309 188.066 173.362C178.77 170.109 170.056 161.846 164.092 153.839C162.089 151.15 160.445 147.853 157.744 145.871C153.7 142.907 149.597 143.011 144.787 143.024C137.585 143.04 121.915 144.69 121.746 133.307C121.679 128.797 123.529 124.532 124.415 120.194C125.413 115.336 123.412 112.059 120.815 108.161Z" stroke="#FFCEC7"/>
<path fill-rule="evenodd" clip-rule="evenodd" d="M123.647 108.671C119.886 101.217 111.454 88.9672 117.867 80.6779C121.255 76.2971 127.247 74.6509 132.274 73.6698C136.319 72.8762 141.197 72.5783 144.253 69.2143C146.5 66.741 145.503 63.1415 146.363 60.0454C147.431 56.2071 149.883 53.0664 152.896 50.7058C161.316 44.1085 173.022 42.0839 183.15 41.653C193.669 41.2066 205.259 43.2948 215.158 47.3117C227.499 52.3219 236.746 61.8089 243.212 73.8227C244.405 76.0404 245.489 78.3162 246.634 80.5607C247.404 82.0663 248.545 83.5228 249.152 85.1066C250.162 87.7473 248.972 89.9059 247.064 91.6269C244.32 94.1047 240.949 95.8681 237.821 97.7276C233.543 100.272 229.17 102.771 225.19 105.757C222.516 107.766 219.717 109.93 218.76 113.416C218.107 115.793 217.971 118.311 217.995 120.773C218.046 126.052 217.783 130.321 215.448 135.156C211.605 143.094 205.695 150.232 199.452 156.171C194.553 160.831 186.8 168.072 179.662 164.955C173.257 162.165 169.511 155.486 165.291 150.087C163.239 147.462 160.934 145.064 158.226 143.197C154.812 140.843 151.598 139.855 147.553 139.47C140.745 138.822 130.479 138.653 128.375 130.037C127.598 126.857 128.041 123.563 127.634 120.342C127.101 116.083 125.544 112.431 123.647 108.671Z" stroke="#FFCEC7"/>
<path fill-rule="evenodd" clip-rule="evenodd" d="M127.556 108.947C124.879 100.79 121.361 90.5108 127.828 83.2614C130.961 79.7496 135.367 77.7864 139.632 76.3193C142.686 75.2679 147.536 74.9584 149.408 71.7259C150.784 69.347 150.974 66.0654 152.218 63.5167C153.928 60.0127 156.518 57.1266 159.556 54.8673C167.472 48.9799 177.782 46.705 187.184 46.0536C207.613 44.6401 228.4 55.8975 239.332 74.4187C242.592 79.9395 246.799 85.8157 241.532 91.4561C235.78 97.6094 227.117 100.492 220.253 104.864C217.63 106.534 214.288 108.54 212.825 111.563C211.945 113.38 211.884 115.659 211.844 117.659C211.738 122.753 211.337 127.334 209.396 132.088C206.398 139.433 201.617 146.21 196.199 151.761C191.474 156.601 184.736 162.29 177.874 158.8C172.613 156.118 169.276 150.427 165.188 146.231C160.639 141.558 155.013 138.409 148.834 136.871C142.824 135.378 136.232 134.371 133.064 128.029C131.978 125.854 130.842 123.037 130.435 120.629C129.777 116.659 128.815 112.752 127.556 108.947Z" stroke="#FFCEC7"/>
<path fill-rule="evenodd" clip-rule="evenodd" d="M131.916 109.004C130.677 100.768 130.54 92.1796 136.295 85.688C138.981 82.6595 142.377 80.5079 145.811 78.5586C148.337 77.1242 150.946 75.9143 152.833 73.5628C154.581 71.3856 155.909 68.8575 157.597 66.6233C159.823 63.6624 162.487 61.0993 165.486 59.0325C173.003 53.8614 182.148 51.4428 190.897 50.6038C195.132 50.1961 199.726 49.9838 203.933 51.0954C207.995 52.1678 212.012 53.8636 215.748 55.8409C223.689 60.0401 230.571 66.1898 235.56 73.965C238.981 79.2981 240.83 84.4838 236.4 89.894C231.406 95.9923 223.575 99.3571 217.121 103.315C212.694 106.03 207.733 108.691 206.906 114.459C206.247 119.05 205.713 123.406 204.009 127.745C201.474 134.145 197.746 139.943 193.046 144.794C188.749 149.213 183.312 152.963 177.164 150.603C172.294 148.729 168.515 144.532 164.26 141.532C159.518 138.18 154.307 136.333 148.821 134.847C143.89 133.506 139.247 131.446 136.06 127.073C135.408 126.179 134.723 125.206 134.22 124.206C133.578 122.93 133.628 121.666 133.502 120.236C133.174 116.462 132.476 112.732 131.916 109.004Z" stroke="#FFCEC7"/>
<path fill-rule="evenodd" clip-rule="evenodd" d="M136.723 108.331C136.829 100.508 138.612 93.1141 143.496 87.0171C145.584 84.4089 148.078 82.2606 150.375 79.8706C152.225 77.9438 153.973 76.1536 156.101 74.5658C161.147 70.8063 165.247 65.9412 170.61 62.5934C177.768 58.1178 185.968 55.6439 194.104 54.6547C198.077 54.1714 202.181 54.0024 206.2 54.5484C209.652 55.0173 212.958 56.6632 216.025 58.3471C222.037 61.6457 227.873 66.334 231.776 72.2653C240.381 85.3421 223.415 94.8495 214.708 100.417C210.703 102.978 204.584 105.945 202.944 111.018C201.771 114.642 201.057 118.328 199.547 121.84C195.49 131.272 187.256 142.366 176.282 140.89C171.587 140.258 167.307 137.695 162.923 135.974C158.41 134.202 153.751 133.214 149.06 132.13C144.675 131.117 141.181 129.676 138.349 125.812C136.995 123.967 137.115 121.758 136.994 119.495C136.797 115.777 136.676 112.037 136.723 108.331Z" stroke="#FFCEC7"/>
<path fill-rule="evenodd" clip-rule="evenodd" d="M141.101 107.329C142.864 95.5205 149.411 82.6286 159.039 75.7707C170.363 67.7035 182.632 60.9103 196.162 58.9574C202.436 58.0519 209.307 57.6064 215.227 60.5675C219.731 62.8196 224.964 66.1861 227.443 70.9203C233.509 82.5002 220.017 91.7186 212.331 97.0759C208.193 99.96 202.925 102.77 199.806 106.982C197.996 109.424 197.073 112.654 195.612 115.336C191.184 123.464 183.896 130.019 174.817 131.191C170.62 131.733 166.391 131.063 162.226 130.53C157.961 129.986 153.644 129.69 149.406 128.929C146.023 128.322 142.036 127.293 140.79 123.474C139.219 118.66 140.381 112.152 141.101 107.329Z" stroke="#FFCEC7"/>
<path fill-rule="evenodd" clip-rule="evenodd" d="M145.393 105.432C147.964 94.3299 153.409 83.5003 162.562 76.8725C167.415 73.358 173.05 70.9319 178.459 68.5349C184.591 65.8183 190.998 63.7096 197.542 62.6636C205.689 61.3606 218.884 60.1861 223.14 69.9809C227.365 79.7031 216.689 88.3078 210.376 93.2113C206.328 96.3526 201.996 99.2357 198.129 102.67C196.032 104.531 194.417 106.683 192.642 108.866C187.737 114.916 180.745 119.706 173.618 122.263C166.711 124.741 158.166 125.839 150.875 125.02C147.729 124.668 145.48 123.48 144.529 120.103C143.21 115.408 144.33 110.018 145.393 105.432Z" stroke="#FFCEC7"/>
<path fill-rule="evenodd" clip-rule="evenodd" d="M149.659 102.442C152.213 92.667 157.722 83.7387 165.758 77.8718C174.766 71.295 186.365 67.6404 197.026 65.782C202.693 64.7949 214.974 62.1186 217.862 69.7782C220.751 77.4378 212.4 84.9862 207.594 89.1415C201.762 94.1771 195.473 99.039 189.191 103.557C183.734 107.485 177.911 111.502 171.999 114.535C168.665 116.256 165.193 117.661 161.622 118.734C158.978 119.522 155.615 120.697 152.843 120.111C145.851 118.629 148.437 107.116 149.659 102.442Z" stroke="#FFCEC7"/>
<path fill-rule="evenodd" clip-rule="evenodd" d="M154.923 99.5148C160.528 81.0289 178.284 71.9372 195.38 68.7682C199.352 68.0326 210.489 65.3805 212.71 71.0275C214.861 76.5026 208.018 82.9957 204.814 86.0721C194.886 95.6047 182.62 102.673 170.997 109.675C167.369 111.86 160.826 116.603 156.326 114.415C151.439 112.036 153.762 103.348 154.923 99.5148Z" stroke="#FFCEC7"/>
<path fill-rule="evenodd" clip-rule="evenodd" d="M160.664 95.9569C165.537 82.3434 179.713 74.5355 192.746 71.9616C195.938 71.3318 204.046 69.3709 206.464 73.1698C208.701 76.684 203.362 81.7761 201.364 83.7996C196.917 88.3054 191.646 92.0173 186.439 95.5851C181.625 98.886 176.759 102.27 171.693 105.061C169.025 106.531 164.02 109.666 160.988 107.397C157.724 104.956 159.582 98.9798 160.664 95.9569Z" stroke="#FFCEC7"/>
<path fill-rule="evenodd" clip-rule="evenodd" d="M166.99 91.9795C170.704 83.0893 180.653 77.3163 189.429 75.398C191.791 74.8829 196.895 73.5466 198.887 75.9209C200.721 78.1074 197.765 81.3128 196.453 82.7932C190.639 89.355 182.125 95.2162 174.325 98.8161C172.363 99.7211 168.837 101.498 166.82 99.6708C164.75 97.7949 166.136 94.0207 166.99 91.9795Z" stroke="#FFCEC7"/>
<path fill-rule="evenodd" clip-rule="evenodd" d="M173.7 88.245C175.794 83.8305 181.264 80.4999 185.796 79.4397C188.985 78.6942 192.819 79.3382 190.04 83.1809C187.278 86.9942 182.155 90.4771 177.813 92.0212C174.5 93.1987 171.903 92.037 173.7 88.245Z" stroke="#FFCEC7"/>
<path fill-rule="evenodd" clip-rule="evenodd" d="M3.95825 118.821C3.824 110.099 -0.568211 101.035 1.60093 92.1483C3.38213 84.8497 12.3494 84.2404 17.7289 80.9337C22.0038 78.3067 24.4298 73.653 26.7417 69.1879C28.8188 65.1792 30.6846 61.0501 32.8728 57.1073C34.2893 54.5583 36.7216 49.5531 39.7935 49.4627C42.7343 49.3757 45.431 53.276 47.1392 55.5817C49.3665 58.5871 51.3412 61.7911 53.504 64.8444C57.1488 69.9947 61.522 73.807 66.5294 77.415C72.2278 81.5204 78.0203 85.4855 83.9069 89.3104C88.2409 92.1349 92.6046 94.9383 96.7706 98.0419C99.3837 99.9893 105.151 103.643 105.178 107.233C105.19 108.946 103.652 110.843 102.615 112.213C100.86 114.531 98.8604 116.65 96.8541 118.723C93.1173 122.586 89.2219 126.273 85.3688 130.005C80.3677 134.848 75.5907 139.613 71.1943 145.111C66.6488 150.803 62.3063 156.682 57.875 162.48C54.8739 166.409 51.876 170.82 47.5473 173.231C42.1255 176.244 37.6751 173.067 32.192 173.03C27.4753 172.998 27.8231 161.463 27.2237 158.255C26.6222 155.009 25.2966 151.987 24.7829 148.733C24.1423 144.67 24.1338 140.514 23.9763 136.409C23.785 131.387 23.7089 126.606 18.6232 124.691C15.7289 123.603 12.5978 123.374 9.60204 122.722C7.66123 122.299 4.00053 121.576 3.95825 118.821Z" stroke="#FFCEC7"/>
<path fill-rule="evenodd" clip-rule="evenodd" d="M6.2769 117.269C5.78249 109.958 2.86156 100.601 5.62368 93.0545C7.9835 86.6055 15.3636 85.7694 20.3331 82.3818C24.4355 79.5875 26.2618 75.0151 28.3125 70.5231C29.9577 66.9197 31.5531 63.2817 33.4206 59.7934C34.7969 57.2227 36.8984 52.8828 39.7601 52.3507C42.3327 51.8724 45.0916 55.7038 46.5357 57.653C48.6425 60.4986 50.4444 63.589 52.3056 66.6146C55.5759 71.9292 58.9245 76.7084 63.7108 80.6125C68.5183 84.5333 73.7779 87.465 79.0936 90.5162C83.2521 92.9036 87.3895 95.3603 91.3405 98.1165C94.2837 100.169 98.5153 102.795 99.8619 106.454C100.928 109.349 95.5213 114.153 93.9269 115.849C90.645 119.335 87.1672 122.607 83.683 125.86C79.4355 129.823 75.0526 133.289 71.3016 137.81C64.5927 145.893 58.9848 155.959 50.3523 161.966C45.1456 165.59 39.3514 166.516 33.5604 165.974C31.2673 165.76 30.7168 162.343 30.4277 160.35C29.9471 157.04 29.8867 153.672 29.5173 150.348C29.1711 147.236 28.4025 144.28 27.7831 141.229C27.1564 138.137 26.9806 134.97 26.519 131.857C26.2332 129.925 25.9505 127.676 24.7002 126.122C23.4065 124.514 21.2722 123.84 19.4068 123.328C15.9036 122.376 6.62626 122.428 6.2769 117.269Z" stroke="#FFCEC7"/>
<path fill-rule="evenodd" clip-rule="evenodd" d="M9.26131 114.209C8.42982 107.498 7.26574 99.1396 10.6531 92.9568C13.4219 87.9015 19.3271 86.8109 23.5449 83.5169C27.053 80.7777 28.3781 76.4211 30.1194 72.3726C31.5483 69.0518 32.9846 65.7165 34.7164 62.5565C36.0299 60.16 37.7225 56.9106 40.3303 56.0746C42.5599 55.3602 45.0788 58.5604 46.3149 60.1533C48.4195 62.8679 50.1355 65.9096 51.8398 68.9112C54.6276 73.8225 57.193 79.0688 61.1609 83.0637C65.0164 86.9404 69.5965 89.2286 74.2623 91.8015C77.8361 93.7728 81.3877 95.8199 84.755 98.1707C87.3405 99.9745 90.5446 102.112 91.892 105.114C93.0571 107.702 90.0659 110.766 88.5713 112.592C86.1033 115.606 83.3642 118.371 80.6632 121.147C77.7482 124.142 74.5197 126.904 71.699 129.973C65.7674 136.43 61.0285 143.58 53.7177 148.527C48.983 151.732 42.6118 154.643 37.0149 154.119C32.9899 153.742 33.2547 144.341 32.8681 141.337C32.2326 136.426 31.0049 131.266 29.0549 126.742C27.3803 122.865 23.4008 121.669 19.7402 120.8C17.4469 120.254 15.0436 119.959 12.8256 119.115C10.258 118.138 9.60979 117.021 9.26131 114.209Z" stroke="#FFCEC7"/>
<path fill-rule="evenodd" clip-rule="evenodd" d="M12.0454 111.063C11.5503 105.39 11.6616 98.6805 14.8685 93.7726C17.6788 89.4738 22.6826 88.342 26.2414 84.9555C29.0189 82.3135 30.1097 78.0057 31.6035 74.5118C33.429 70.2398 35.987 62.3496 40.5922 60.742C44.8761 59.2475 49.3562 68.7945 50.9071 71.6414C53.3623 76.1474 55.4158 81.0888 58.3937 85.2499C60.9581 88.8323 64.3939 90.8127 68.0407 92.9408C72.6904 95.659 79.7497 98.882 82.2357 104.179C84.0888 108.127 78.0631 113.995 76.0054 116.73C73.8533 119.587 72.2324 122.973 70.0115 125.73C66.5067 130.079 60.8277 133.581 56.1388 136.253C51.5803 138.852 45.6606 141.729 40.4894 141.558C37.0906 141.446 36.4439 135.907 35.7188 133.201C34.6799 129.355 33.2986 125.908 30.3313 123.291C27.311 120.628 23.7512 119.373 20.009 118.275C18.088 117.715 15.8968 117.279 14.1783 116.148C12.2796 114.918 12.2362 113.244 12.0454 111.063Z" stroke="#FFCEC7"/>
<path fill-rule="evenodd" clip-rule="evenodd" d="M15.4371 107.793C15.4646 102.891 16.5266 97.6645 19.6755 93.8836C22.2982 90.7343 26.4034 89.6816 28.914 86.4622C30.9027 83.9134 31.915 80.3352 33.2464 77.3753C34.8748 73.7482 37.1773 67.4118 41.2265 66.153C45.1785 64.9276 48.674 71.9068 50.1892 74.6683C52.4083 78.7177 54.2046 83.0099 56.4437 87.0481C58.1978 90.2163 60.3429 92.2583 63.1991 94.3002C66.5519 96.6986 71.2298 99.3555 73.0209 103.324C74.3122 106.197 71.1865 110.787 70.0516 113.318C69.2908 115.018 68.5945 116.745 68.212 118.587C67.914 120.022 67.8844 121.35 67.0211 122.582C64.8475 125.681 60.0819 126.086 56.8484 127.107C52.5541 128.463 47.9977 130.004 43.5036 130.298C40.7415 130.481 39.3318 127.796 37.7553 125.906C35.8924 123.673 33.2549 122.066 30.9513 120.381C27.9113 118.153 24.6028 116.767 21.1802 115.348C19.6364 114.707 17.8231 114.079 16.627 112.806C15.378 111.486 15.4276 109.562 15.4371 107.793Z" stroke="#FFCEC7"/>
<path fill-rule="evenodd" clip-rule="evenodd" d="M18.9995 104.883C19.5453 100.766 21.2461 96.8318 24.119 93.9217C26.3213 91.6874 29.246 90.4295 31.0135 87.745C32.6604 85.2426 33.8081 82.3973 35.1683 79.7217C36.6079 76.8931 38.7467 72.1654 42.067 71.3957C45.6454 70.5668 48.4019 75.3359 49.9283 77.979C51.8566 81.3192 53.3216 84.9131 55.0457 88.3684C56.3446 90.9437 58.0015 93.2991 59.9611 95.3561C62.0163 97.5244 64.8035 99.6012 65.8433 102.583C66.7625 105.224 65.0426 108.419 64.739 111.096C64.4143 113.957 64.9833 116.963 63.183 119.419C59.4703 124.485 50.1525 123.546 44.8257 123.654C39.5697 123.766 35.3439 120.666 31.0907 117.717C28.2813 115.769 25.3555 114.121 22.4752 112.306C19.5389 110.455 18.5192 108.506 18.9995 104.883Z" stroke="#FFCEC7"/>
<path fill-rule="evenodd" clip-rule="evenodd" d="M22.3093 102.527C23.9234 96.563 28.9645 93.3933 32.5684 88.8863C35.5171 85.1966 37.728 77.5557 42.694 76.545C48.3321 75.3978 51.7074 85.522 53.6675 89.4286C55.8425 93.7611 59.7163 97.2853 61.3271 101.872C62.1739 104.279 61.4467 106.525 60.9959 108.931C60.5016 111.573 60.1301 114.275 58.424 116.401C55.0657 120.586 48.5068 120.557 43.7831 120.672C38.8933 120.792 34.5677 117.924 30.6717 115.062C26.5397 112.031 20.6561 108.643 22.3093 102.527Z" stroke="#FFCEC7"/>
<path fill-rule="evenodd" clip-rule="evenodd" d="M25.013 100.909C26.8317 96.6604 30.6537 93.2061 33.7549 89.9451C36.3434 87.2265 39.128 81.7538 43.0746 81.3636C47.7132 80.9035 50.5244 86.7475 52.3496 90.3308C54.1459 93.8518 56.7344 97.5696 57.729 101.434C58.7663 105.46 56.0041 110.881 53.3698 113.73C50.4317 116.906 45.6247 118.08 41.5 117.953C37.1813 117.825 33.2187 115.199 29.9479 112.476C26.4512 109.565 22.8979 105.842 25.013 100.909Z" stroke="#FFCEC7"/>
<path fill-rule="evenodd" clip-rule="evenodd" d="M27.5214 100.11C29.2587 96.5755 32.2701 93.5859 35.0468 90.9192C37.1896 88.8604 40.3515 85.3597 43.4429 85.274C46.8438 85.1794 49.7261 88.1177 51.0782 91.1296C52.411 94.1003 53.8154 97.8247 54.0149 101.084C54.4482 108.181 45.6273 116.131 39.0037 115.484C32.7237 114.87 24.0576 107.151 27.5214 100.11Z" stroke="#FFCEC7"/>
<path fill-rule="evenodd" clip-rule="evenodd" d="M29.8413 99.7201C32.238 95.1155 38.0595 88.551 43.4491 88.3951C49.6354 88.2169 51.1884 95.5219 50.3821 100.816C49.5629 106.219 42.4305 114.039 36.7433 112.983C31.1927 111.952 27.0009 105.181 29.8413 99.7201Z" stroke="#FFCEC7"/>
<path fill-rule="evenodd" clip-rule="evenodd" d="M32.2905 98.9755C34.3196 95.1201 38.6498 90.3045 43.166 90.1587C48.5472 89.9863 48.4456 96.1537 47.2254 99.9924C45.9565 103.978 40.3681 110.785 35.6562 109.71C31.0744 108.661 30.3459 102.671 32.2905 98.9755Z" stroke="#FFCEC7"/>
<path fill-rule="evenodd" clip-rule="evenodd" d="M34.4241 98.5317C35.7635 95.7807 39.1157 92.3038 42.3024 92.1926C46.1976 92.0588 45.4404 96.9506 44.434 99.3116C43.2378 102.121 39.2281 107.003 35.8631 106.212C32.5502 105.433 33.319 100.798 34.4241 98.5317Z" stroke="#FFCEC7"/>
<path fill-rule="evenodd" clip-rule="evenodd" d="M217.659 255.713C209.038 261.232 199.291 265.788 190.1 270.419C176.669 277.185 163.04 283.77 148.927 288.81C141.36 291.512 131.556 295.407 123.437 293.29C120.468 292.517 117.761 290.177 115.1 288.656C111.43 286.56 107.706 284.567 103.988 282.57C96.5305 278.566 89.0497 274.603 81.7203 270.343C78.191 268.291 74.7665 265.707 71.0922 263.956C68.945 262.933 66.3756 263.411 64.0813 263.476C58.7668 263.627 53.4554 263.913 48.144 264.156C41.6474 264.453 35.136 264.769 28.6319 264.652C25.6985 264.598 18.514 265.147 16.8991 262.481C16.0303 261.046 18.078 258.457 19.0272 257.259C20.7702 255.058 22.7735 253.074 24.7503 251.11C29.3219 246.569 34.1772 242.244 38.2409 237.171C40.3288 234.563 43.0644 231.377 41.7014 227.817C40.3257 224.221 37.9425 221.107 36.4884 217.524C34.8143 213.4 34.12 209.108 33.3295 204.736C32.7443 201.504 31.3813 198.64 30.0997 195.661C28.6838 192.367 27.217 189.046 26.2339 185.573C25.5842 183.279 24.5354 179.151 26.8086 177.699C30.0384 175.634 36.0947 177.306 39.7764 177.915C44.8645 178.754 49.9155 179.824 54.9899 180.745C58.6736 181.414 62.3701 182.149 66.1153 182.227C72.1526 182.353 78.2101 181.917 84.2315 181.51C95.3813 180.758 106.451 179.738 117.638 179.738C127.44 179.738 150.09 191.702 155.392 193.808C165.974 198.014 176.838 202 186.852 207.596C189.562 209.111 193.731 211.129 195.157 214.247C196.036 216.168 195.632 217.279 197.706 218.517C200.536 220.206 204.161 220.87 207.294 221.625C212.338 222.842 217.422 223.873 222.49 224.974C232.74 227.197 242.921 229.711 253.129 232.13C256.215 232.862 259.948 233.024 262.89 234.312C264.786 235.139 264.59 236.181 263.122 237.438C260.547 239.644 256.938 240.868 253.897 242.127C249.441 243.97 244.911 245.614 240.38 247.235C235.849 248.856 231.294 250.427 226.76 252.051C223.765 253.121 220.35 253.99 217.659 255.713Z" stroke="#FFCEC7"/>
<path fill-rule="evenodd" clip-rule="evenodd" d="M210.565 254.499C201.445 260.03 191.321 264.435 181.562 268.734C169.072 274.239 156.299 279.398 143.139 282.84C135.412 284.859 126.296 287.088 118.401 284.773C115.584 283.946 113.48 282.089 111.065 280.451C108.313 278.58 105.455 276.866 102.597 275.179C96.7144 271.707 90.7692 268.353 84.762 265.117C81.5802 263.397 78.0777 261.093 74.4831 260.496C71.6252 260.021 68.3788 260.708 65.5082 260.908C60.3386 261.268 55.1701 261.639 49.9983 261.955C44.0306 262.318 38.046 262.653 32.0656 262.595C28.7324 262.563 23.0102 263.098 20.653 260.826C18.5964 258.842 26.0841 251.669 27.4008 250.306C31.513 246.051 35.838 242 39.6654 237.45C41.9274 234.767 44.6816 231.503 45.6353 227.947C46.4471 224.916 44.8806 221.463 43.9555 218.661C42.7986 215.152 41.865 211.514 40.5207 208.078C39.3236 205.017 37.4183 202.291 35.7448 199.508C33.9041 196.447 32.0401 193.336 30.6736 189.996C29.8364 187.941 28.4508 184.5 30.1148 182.541C32.037 180.283 37.9624 181.759 40.3979 182.081C45.3389 182.743 50.2418 183.726 55.1489 184.607C63.2992 186.07 71.0695 187.349 79.3691 187.042C90.1772 186.642 100.975 185.701 111.781 185.18C115.771 184.985 119.825 184.594 123.819 184.805C126.108 184.927 127.852 185.665 129.183 187.33C131.002 189.601 135.19 190.859 138.103 192.163C142.645 194.194 147.244 196.083 151.831 197.997C161.899 202.201 172.161 206.253 181.709 211.689C184.73 213.409 188.189 215.326 190.424 218.167C191.671 219.751 191.356 221.277 192.117 222.961C193.125 225.175 196.438 226.175 198.419 226.899C202.241 228.299 206.22 229.237 210.168 230.116C219.101 232.104 228.056 233.411 237.135 234.373C239.262 234.597 247.64 235.371 243.24 239.105C238.378 243.232 231.358 245.254 225.635 247.58C220.479 249.67 215.319 251.616 210.565 254.499Z" stroke="#FFCEC7"/>
<path fill-rule="evenodd" clip-rule="evenodd" d="M197.961 253.476C189.389 258.342 179.893 261.972 170.66 265.444C159.457 269.658 147.973 273.414 136.223 275.518C128.841 276.839 120.704 277.853 113.372 275.659C108.365 274.161 104.492 270.111 100.095 267.325C95.6975 264.539 91.1221 261.924 86.41 259.744C83.4854 258.391 80.3394 257.028 77.0853 257.207C69.1731 257.64 61.2704 258.672 53.3498 259.173C48.11 259.508 42.8596 259.784 37.6038 259.701C34.4345 259.652 30.0805 259.853 27.2747 258.094C24.1731 256.149 40.6873 239.537 42.2481 237.667C46.1613 232.979 50.9 226.757 50.1434 220.09C49.4197 213.716 46.2832 208.958 42.7356 203.964C40.7223 201.123 34.266 193.534 36.6587 189.839C38.0256 187.727 42.5311 188.458 44.6715 188.602C48.8898 188.886 53.0849 189.495 57.281 190.025C63.3992 190.791 69.686 191.976 75.8307 192.323C80.1095 192.564 84.4136 192.241 88.6998 192.235C94.8456 192.226 100.991 192.275 107.137 192.333C112.298 192.382 117.501 192.333 122.644 192.855C125.841 193.177 128.267 193.899 130.56 195.939C132.555 197.714 135.566 198.753 138.109 199.882C142.309 201.745 146.565 203.472 150.806 205.226C159.687 208.901 168.669 212.499 177.17 217.091C181.05 219.186 187.574 222.119 188.484 227.199C188.813 229.031 189.054 229.822 190.75 230.864C193.156 232.342 196.038 233.008 198.738 233.587C205.032 234.938 211.509 234.736 217.792 236.071C220.351 236.621 223.692 237.809 220.771 240.528C217.362 243.708 212.4 245.456 208.316 247.421C206.277 248.401 204.177 249.318 202.241 250.515C200.755 251.437 199.482 252.619 197.961 253.476Z" stroke="#FFCEC7"/>
<path fill-rule="evenodd" clip-rule="evenodd" d="M181.725 251.957C173.805 255.909 165.204 258.782 156.758 261.373C147.376 264.246 137.767 266.626 128.032 267.638C121.31 268.34 114.148 268.547 107.623 266.4C103.497 265.041 100.7 262.185 97.1497 259.789C91.7912 256.169 85.9937 253.3 79.5561 253.998C72.3388 254.779 65.0978 255.365 57.8333 255.756C53.4512 255.992 49.0523 256.169 44.665 256.004C41.8911 255.901 38.3173 255.728 35.9041 254.402C32.6753 252.626 44.8036 239.114 46.3154 237.145C50.0647 232.261 52.8133 227.137 54.4193 221.086C55.729 216.148 53.0535 212.267 50.2933 208.573C48.5773 206.279 43.0326 200.51 44.7687 197.532C45.7208 195.889 48.8587 195.974 50.544 195.891C53.7559 195.732 56.9816 195.897 60.1935 195.97C64.9363 196.082 69.9848 195.313 74.6874 195.932C85.1092 197.302 95.5046 198.488 105.991 199.426C111.772 199.943 117.587 200.413 123.316 201.41C125.373 201.768 127.497 202.147 129.446 202.957C130.699 203.478 131.383 204.364 132.441 205.091C137.485 208.553 144.07 210.334 149.751 212.553C157.304 215.502 164.896 218.406 172.248 221.89C176.115 223.723 181.516 225.829 184.176 229.569C184.98 230.699 184.638 231.603 185.143 232.69C185.725 233.943 187.493 234.317 188.635 234.666C191.226 235.459 202.071 236.658 197.073 241.312C194.688 243.528 191.65 244.951 188.962 246.693C187.988 247.324 187.039 247.958 186.228 248.81C184.87 250.237 183.533 251.052 181.725 251.957Z" stroke="#FFCEC7"/>
<path fill-rule="evenodd" clip-rule="evenodd" d="M164.425 250.246C148.791 256.64 130.467 260.996 113.422 260.152C107.753 259.87 101.654 258.93 96.7406 255.713C93.8433 253.813 91.528 251.668 88.0476 250.981C85.5351 250.486 82.8297 251.048 80.3024 251.252C76.6418 251.547 72.979 251.811 69.3131 252.024C64.7684 252.285 60.2088 252.486 55.6555 252.379C52.402 252.301 47.9092 252.389 45.0829 250.544C41.7085 248.345 50.2977 238.025 51.5062 236.187C54.4353 231.73 56.4888 227.412 57.2309 222.041C57.4493 220.476 58.185 218.872 58.0896 217.295C57.9899 215.684 57.0496 214.25 56.1814 212.984C55.046 211.324 51.1065 207.387 52.2345 205.363C52.8579 204.245 55.1976 204.104 56.4103 203.867C58.6854 203.42 60.9933 203.18 63.2821 202.824C67.1653 202.218 71.021 200.246 74.918 200.301C85.3973 200.449 96.0282 203.878 106.298 205.762C112.403 206.885 118.55 207.905 124.581 209.426C126.489 209.908 128.454 210.406 130.268 211.223C131.534 211.793 132.347 212.809 133.52 213.448C138.016 215.899 143.186 217.387 148.014 219.036C154.281 221.183 160.57 223.264 166.794 225.549C170.695 226.98 175.711 228.24 179.073 230.896C181.528 232.835 179.85 233.416 178.555 235.222C177.893 236.143 178.046 237.051 177.758 238.093C177.348 239.582 176.188 240.654 175.101 241.618C173.601 242.949 171.602 244.046 170.376 245.678C169.943 246.252 169.963 246.965 169.614 247.466C168.596 248.925 165.896 249.645 164.425 250.246Z" stroke="#FFCEC7"/>
<path fill-rule="evenodd" clip-rule="evenodd" d="M147.803 247.968C135.113 251.988 120.994 254.277 107.581 253.214C102.914 252.844 98.2189 251.985 93.8717 250.096C91.8938 249.239 90.4091 248.285 88.2418 248.233C83.2131 248.115 78.1685 248.529 73.1408 248.629C69.5428 248.7 65.9268 248.726 62.3373 248.421C59.9372 248.217 56.6916 247.974 54.7254 246.421C51.8681 244.159 57.026 236.469 58.0758 234.344C59.8155 230.821 61.5415 226.904 60.8515 222.827C60.6399 221.581 60.2652 220.479 60.2166 219.208C60.17 218.116 60.3002 217.107 59.933 216.063C59.479 214.768 57.4599 212.759 58.1541 211.567C58.6271 210.753 60.0303 210.715 60.9637 210.454C62.4775 210.032 63.9557 209.477 65.3829 208.797C66.8856 208.077 68.165 206.964 69.7217 206.369C72.2487 205.406 75.0774 205.315 77.7336 205.319C88.3318 205.337 99.0644 207.543 109.394 209.85C114.773 211.051 120.182 212.331 125.409 214.153C126.997 214.706 128.796 215.262 130.191 216.284C131.062 216.92 131.653 217.718 132.642 218.196C141.094 222.282 150.866 223.799 159.839 226.75C162.174 227.518 175.118 231.399 168.35 235.05C164.239 237.268 159.895 238.277 156.144 241.312C155.001 242.234 154.239 242.998 153.792 244.406C153.498 245.343 154.206 244.867 153.218 245.847C152.019 247.024 149.281 247.5 147.803 247.968Z" stroke="#FFCEC7"/>
<path fill-rule="evenodd" clip-rule="evenodd" d="M134.609 245.591C119.752 248.872 104.02 249.028 88.9287 246.12C85.1244 245.387 81.1652 245.562 77.3143 245.376C73.5726 245.198 66.9201 245.569 64.2025 242.533C62.2319 240.332 64.3702 235.655 65.1098 233.194C66.0521 230.058 66.8756 226.818 65.3284 223.772C64.4222 221.988 63.1806 220.29 62.2086 218.523C61.7438 217.679 60.7866 216.386 61.1856 215.587C61.8457 214.268 64.9336 213.712 66.432 213.09C71.221 211.103 76.2924 210.595 81.4125 210.609C90.8696 210.635 100.375 212 109.652 213.851C113.92 214.702 118.248 215.611 122.364 217.092C124.693 217.929 126.411 219.544 128.635 220.502C135.797 223.588 143.492 225.237 150.777 228.059C152.885 228.876 160.761 231.596 156.793 234.804C152.952 237.909 147.349 237.539 143.355 240.46C142.903 240.795 142.344 241.195 142.081 241.736C141.926 242.059 142.199 242.675 142.081 242.859C140.855 244.858 136.494 245.175 134.609 245.591Z" stroke="#FFCEC7"/>
<path fill-rule="evenodd" clip-rule="evenodd" d="M124.983 243.423C117.362 244.526 109.572 244.799 101.822 244.869C97.5862 244.907 92.9319 245.192 88.7869 244.059C86.2406 243.362 83.7814 242.752 81.1567 242.313C78.3325 241.84 73.7854 241.496 72.0656 238.932C70.7809 237.017 71.6614 233.079 71.7081 230.749C71.758 228.195 71.2614 226.3 69.5523 224.472C68.4776 223.321 63.5475 219.142 64.1172 217.937C64.6593 216.789 68.0946 216.613 69.5799 216.315C74.2745 215.369 79.0317 215.04 83.8069 215.091C91.2026 215.17 98.6259 215.965 105.906 217.333C108.916 217.901 112.026 218.49 114.902 219.625C116.838 220.391 118.452 221.748 120.376 222.54C125.884 224.81 131.709 226.351 137.236 228.662C139.01 229.405 144.79 231.384 143.404 234.433C142.249 236.979 138.319 237.753 136.388 239.459C133.104 242.369 129.172 242.817 124.983 243.423Z" stroke="#FFCEC7"/>
<path fill-rule="evenodd" clip-rule="evenodd" d="M120.182 241.96C114.136 242.69 107.949 243.009 101.815 243.025C97.8555 243.035 93.6787 243.092 89.7935 242.153C87.8419 241.682 86.146 240.58 84.299 239.794C82.3971 238.985 79.7725 238.083 78.9504 236.23C78.178 234.488 78.4665 231.946 77.7881 229.846C77.1848 227.983 75.9221 226.832 74.5622 225.572C73.6958 224.767 69.2464 221.282 69.7609 220.513C70.3125 219.689 72.9847 219.756 74.3752 219.642C78.2064 219.323 82.051 219.221 85.8924 219.337C91.1354 219.507 96.4185 219.98 101.571 221.052C105.225 221.812 107.982 223.62 111.39 224.947C115.804 226.67 120.377 228.032 124.75 229.917C126.929 230.856 130.153 232.064 131.269 234.488C131.698 235.417 132.114 237.779 131.637 238.708C131.063 239.825 128.928 240.298 127.92 240.585C125.394 241.301 122.752 241.649 120.182 241.96Z" stroke="#FFCEC7"/>
</svg>
