<svg width="220" height="300" viewBox="0 0 220 300" fill="none" xmlns="http://www.w3.org/2000/svg">
<line y1="-1" x2="9.1586" y2="-1" transform="matrix(-0.342019 -0.939693 -0.939692 0.342021 69.8677 9.60767)" stroke="#FFCEC7" stroke-width="2"/>
<line y1="-1" x2="9.1586" y2="-1" transform="matrix(-0.5 -0.866025 -0.866025 0.5 50.3452 9.32178)" stroke="#FFCEC7" stroke-width="2"/>
<line y1="-1" x2="9.15859" y2="-1" transform="matrix(-0.642787 -0.766045 -0.766044 0.642788 30.7192 9.0354)" stroke="#FFCEC7" stroke-width="2"/>
<line y1="-1" x2="9.1586" y2="-1" transform="matrix(-0.766045 -0.642787 -0.642788 0.766044 10.9609 8.46313)" stroke="#FFCEC7" stroke-width="2"/>
<line y1="-1" x2="9.1586" y2="-1" transform="matrix(0.766044 -0.642788 -0.642788 -0.766044 206.506 8.46313)" stroke="#FFCEC7" stroke-width="2"/>
<line y1="-1" x2="9.1586" y2="-1" transform="matrix(0.642788 -0.766044 -0.766044 -0.642788 186.745 9.0354)" stroke="#FFCEC7" stroke-width="2"/>
<line y1="-1" x2="9.1586" y2="-1" transform="matrix(0.5 -0.866025 -0.866025 -0.5 167.119 9.32178)" stroke="#FFCEC7" stroke-width="2"/>
<line y1="-1" x2="9.1586" y2="-1" transform="matrix(0.342021 -0.939692 -0.939693 -0.34202 147.597 9.60767)" stroke="#FFCEC7" stroke-width="2"/>
<line y1="-1" x2="9.1586" y2="-1" transform="matrix(0.173648 -0.984808 -0.984808 -0.173649 128.146 9.89404)" stroke="#FFCEC7" stroke-width="2"/>
<line y1="-1" x2="9.1586" y2="-1" transform="matrix(0 -1 -1 0 108.732 9.89404)" stroke="#FFCEC7" stroke-width="2"/>
<line y1="-1" x2="9.1586" y2="-1" transform="matrix(-0.173649 -0.984808 -0.984808 0.173648 89.3188 9.89404)" stroke="#FFCEC7" stroke-width="2"/>
<line y1="-1" x2="9.1586" y2="-1" transform="matrix(-0.342019 -0.939693 -0.939692 0.342021 90.4731 25.6355)" stroke="#FFCEC7" stroke-width="2"/>
<line y1="-1" x2="9.1586" y2="-1" transform="matrix(-0.5 -0.866025 -0.866025 0.5 70.9536 25.3489)" stroke="#FFCEC7" stroke-width="2"/>
<line y1="-1" x2="9.15859" y2="-1" transform="matrix(-0.642787 -0.766045 -0.766044 0.642788 51.3276 25.0632)" stroke="#FFCEC7" stroke-width="2"/>
<line y1="-1" x2="9.1586" y2="-1" transform="matrix(-0.766045 -0.642787 -0.642788 0.766044 31.5664 24.491)" stroke="#FFCEC7" stroke-width="2"/>
<line y1="-1" x2="9.1586" y2="-1" transform="matrix(-0.866025 -0.5 -0.5 0.866026 11.6475 23.6321)" stroke="#FFCEC7" stroke-width="2"/>
<line y1="-1" x2="9.1586" y2="-1" transform="matrix(0.642788 -0.766044 -0.766044 -0.642788 207.351 25.0632)" stroke="#FFCEC7" stroke-width="2"/>
<line y1="-1" x2="9.1586" y2="-1" transform="matrix(0.5 -0.866025 -0.866025 -0.5 187.725 25.3489)" stroke="#FFCEC7" stroke-width="2"/>
<line y1="-1" x2="9.1586" y2="-1" transform="matrix(0.34202 -0.939693 -0.939693 -0.34202 168.205 25.6355)" stroke="#FFCEC7" stroke-width="2"/>
<line y1="-1" x2="9.1586" y2="-1" transform="matrix(0.173649 -0.984808 -0.984808 -0.173648 148.754 25.9214)" stroke="#FFCEC7" stroke-width="2"/>
<line y1="-1" x2="9.1586" y2="-1" transform="matrix(0 -1 -1 0 129.34 25.9214)" stroke="#FFCEC7" stroke-width="2"/>
<line y1="-1" x2="9.1586" y2="-1" transform="matrix(-0.173648 -0.984808 -0.984808 0.173649 109.924 25.9214)" stroke="#FFCEC7" stroke-width="2"/>
<line y1="-1" x2="9.1586" y2="-1" transform="matrix(-0.34202 -0.939693 -0.939693 0.34202 111.082 41.6633)" stroke="#FFCEC7" stroke-width="2"/>
<line y1="-1" x2="9.1586" y2="-1" transform="matrix(-0.5 -0.866025 -0.866025 0.5 91.5591 41.3767)" stroke="#FFCEC7" stroke-width="2"/>
<line y1="-1" x2="9.15859" y2="-1" transform="matrix(-0.642787 -0.766045 -0.766044 0.642788 71.9331 41.0903)" stroke="#FFCEC7" stroke-width="2"/>
<line y1="-1" x2="9.1586" y2="-1" transform="matrix(-0.766045 -0.642787 -0.642788 0.766044 52.1719 40.5181)" stroke="#FFCEC7" stroke-width="2"/>
<line y1="-1" x2="9.1586" y2="-1" transform="matrix(-0.866025 -0.5 -0.5 0.866025 32.2529 39.6592)" stroke="#FFCEC7" stroke-width="2"/>
<line y1="-1" x2="9.15859" y2="-1" transform="matrix(-0.939692 -0.342021 -0.34202 0.939693 12.1528 39.0869)" stroke="#FFCEC7" stroke-width="2"/>
<line y1="-1" x2="9.1586" y2="-1" transform="matrix(0.5 -0.866025 -0.866025 -0.5 208.333 41.3767)" stroke="#FFCEC7" stroke-width="2"/>
<line y1="-1" x2="9.1586" y2="-1" transform="matrix(0.34202 -0.939693 -0.939693 -0.34202 188.811 41.6633)" stroke="#FFCEC7" stroke-width="2"/>
<line y1="-1" x2="9.1586" y2="-1" transform="matrix(0.173648 -0.984808 -0.984808 -0.173648 169.359 41.9492)" stroke="#FFCEC7" stroke-width="2"/>
<line y1="-1" x2="9.1586" y2="-1" transform="matrix(0 -1 -1 0 149.946 41.9492)" stroke="#FFCEC7" stroke-width="2"/>
<line y1="-1" x2="9.1586" y2="-1" transform="matrix(-0.173649 -0.984808 -0.984808 0.173648 130.533 41.9492)" stroke="#FFCEC7" stroke-width="2"/>
<line y1="-1" x2="9.1586" y2="-1" transform="matrix(-0.34202 -0.939693 -0.939693 0.34202 131.687 57.6904)" stroke="#FFCEC7" stroke-width="2"/>
<line y1="-1" x2="9.1586" y2="-1" transform="matrix(-0.5 -0.866025 -0.866025 0.5 112.167 57.4045)" stroke="#FFCEC7" stroke-width="2"/>
<line y1="-1" x2="9.1586" y2="-1" transform="matrix(-0.642788 -0.766044 -0.766044 0.642788 92.5415 57.1182)" stroke="#FFCEC7" stroke-width="2"/>
<line y1="-1" x2="9.1586" y2="-1" transform="matrix(-0.766045 -0.642787 -0.642788 0.766044 72.7803 56.5459)" stroke="#FFCEC7" stroke-width="2"/>
<line y1="-1" x2="9.1586" y2="-1" transform="matrix(-0.866025 -0.5 -0.5 0.866025 52.8584 55.687)" stroke="#FFCEC7" stroke-width="2"/>
<line y1="-1" x2="9.15859" y2="-1" transform="matrix(-0.939692 -0.342021 -0.34202 0.939693 32.7583 55.1147)" stroke="#FFCEC7" stroke-width="2"/>
<line y1="-1" x2="9.1586" y2="-1" transform="matrix(-0.984808 -0.173648 -0.173648 0.984808 12.4604 54.2559)" stroke="#FFCEC7" stroke-width="2"/>
<line y1="-1" x2="9.1586" y2="-1" transform="matrix(0.34202 -0.939693 -0.939693 -0.34202 209.418 57.6904)" stroke="#FFCEC7" stroke-width="2"/>
<line y1="-1" x2="9.1586" y2="-1" transform="matrix(0.173648 -0.984808 -0.984808 -0.173648 189.968 57.9771)" stroke="#FFCEC7" stroke-width="2"/>
<line y1="-1" x2="9.1586" y2="-1" transform="matrix(0 -1 -1 0 170.554 57.9771)" stroke="#FFCEC7" stroke-width="2"/>
<line y1="-1" x2="9.1586" y2="-1" transform="matrix(-0.173649 -0.984808 -0.984808 0.173648 151.138 57.9771)" stroke="#FFCEC7" stroke-width="2"/>
<line y1="-1" x2="9.1586" y2="-1" transform="matrix(-0.34202 -0.939693 -0.939693 0.34202 152.295 73.7183)" stroke="#FFCEC7" stroke-width="2"/>
<line y1="-1" x2="9.1586" y2="-1" transform="matrix(-0.5 -0.866025 -0.866025 0.5 132.773 73.4316)" stroke="#FFCEC7" stroke-width="2"/>
<line y1="-1" x2="9.1586" y2="-1" transform="matrix(-0.642788 -0.766044 -0.766044 0.642788 113.147 73.146)" stroke="#FFCEC7" stroke-width="2"/>
<line y1="-1" x2="9.1586" y2="-1" transform="matrix(-0.766045 -0.642787 -0.642788 0.766044 93.3857 72.573)" stroke="#FFCEC7" stroke-width="2"/>
<line y1="-1" x2="9.1586" y2="-1" transform="matrix(-0.866025 -0.5 -0.5 0.866025 73.4668 71.7148)" stroke="#FFCEC7" stroke-width="2"/>
<line y1="-1" x2="9.15861" y2="-1" transform="matrix(-0.939693 -0.34202 -0.342021 0.939692 53.3667 71.1418)" stroke="#FFCEC7" stroke-width="2"/>
<line y1="-1" x2="9.15861" y2="-1" transform="matrix(-0.984808 -0.173648 -0.173649 0.984808 33.0688 70.2837)" stroke="#FFCEC7" stroke-width="2"/>
<line y1="-1" x2="9.1586" y2="-1" transform="matrix(0.173648 -0.984808 -0.984808 -0.173648 210.573 74.0042)" stroke="#FFCEC7" stroke-width="2"/>
<line y1="-1" x2="9.1586" y2="-1" transform="matrix(0 -1 -1 0 191.16 74.0042)" stroke="#FFCEC7" stroke-width="2"/>
<line y1="-1" x2="9.1586" y2="-1" transform="matrix(-0.173648 -0.984808 -0.984808 0.173648 171.746 74.0042)" stroke="#FFCEC7" stroke-width="2"/>
<line y1="-1" x2="9.1586" y2="-1" transform="matrix(1 0 0 -1 1.11768 69.425)" stroke="#FFCEC7" stroke-width="2"/>
<line y1="-1" x2="9.1586" y2="-1" transform="matrix(-0.34202 -0.939693 -0.939693 0.34202 172.901 89.7454)" stroke="#FFCEC7" stroke-width="2"/>
<line y1="-1" x2="9.1586" y2="-1" transform="matrix(-0.5 -0.866025 -0.866025 0.5 153.381 89.4595)" stroke="#FFCEC7" stroke-width="2"/>
<line y1="-1" x2="9.1586" y2="-1" transform="matrix(-0.642788 -0.766044 -0.766045 0.642787 133.755 89.1731)" stroke="#FFCEC7" stroke-width="2"/>
<line y1="-1" x2="9.1586" y2="-1" transform="matrix(-0.766044 -0.642788 -0.642788 0.766044 113.994 88.6008)" stroke="#FFCEC7" stroke-width="2"/>
<line y1="-1" x2="9.1586" y2="-1" transform="matrix(-0.866025 -0.5 -0.5 0.866025 94.0723 87.7419)" stroke="#FFCEC7" stroke-width="2"/>
<line y1="-1" x2="9.15859" y2="-1" transform="matrix(-0.939693 -0.34202 -0.34202 0.939693 73.9722 87.1697)" stroke="#FFCEC7" stroke-width="2"/>
<line y1="-1" x2="9.15861" y2="-1" transform="matrix(-0.984808 -0.173648 -0.173649 0.984808 53.6743 86.3108)" stroke="#FFCEC7" stroke-width="2"/>
<line y1="-1" x2="9.1586" y2="-1" transform="matrix(0 -1 -1 0 211.768 90.032)" stroke="#FFCEC7" stroke-width="2"/>
<line y1="-1" x2="9.1586" y2="-1" transform="matrix(-0.173648 -0.984808 -0.984808 0.173648 192.352 90.032)" stroke="#FFCEC7" stroke-width="2"/>
<line y1="-1" x2="9.1586" y2="-1" transform="matrix(1 0 0 -1 21.7261 85.4529)" stroke="#FFCEC7" stroke-width="2"/>
<line y1="-1" x2="9.15859" y2="-1" transform="matrix(0.984808 -0.173648 -0.173649 -0.984808 1.22119 86.3108)" stroke="#FFCEC7" stroke-width="2"/>
<line y1="-1" x2="9.1586" y2="-1" transform="matrix(-0.34202 -0.939693 -0.939693 0.34202 193.509 105.773)" stroke="#FFCEC7" stroke-width="2"/>
<line y1="-1" x2="9.1586" y2="-1" transform="matrix(-0.5 -0.866025 -0.866025 0.5 173.987 105.487)" stroke="#FFCEC7" stroke-width="2"/>
<line y1="-1" x2="9.1586" y2="-1" transform="matrix(-0.642788 -0.766044 -0.766045 0.642787 154.361 105.201)" stroke="#FFCEC7" stroke-width="2"/>
<line y1="-1" x2="9.1586" y2="-1" transform="matrix(-0.766044 -0.642788 -0.642788 0.766044 134.6 104.629)" stroke="#FFCEC7" stroke-width="2"/>
<line y1="-1" x2="9.1586" y2="-1" transform="matrix(-0.866025 -0.5 -0.5 0.866025 114.681 103.77)" stroke="#FFCEC7" stroke-width="2"/>
<line y1="-1" x2="9.1586" y2="-1" transform="matrix(-0.939693 -0.34202 -0.34202 0.939693 94.5806 103.198)" stroke="#FFCEC7" stroke-width="2"/>
<line y1="-1" x2="9.15859" y2="-1" transform="matrix(-0.984808 -0.173648 -0.173649 0.984808 74.2827 102.339)" stroke="#FFCEC7" stroke-width="2"/>
<line y1="-1" x2="9.1586" y2="-1" transform="matrix(-0.173648 -0.984808 -0.984808 0.173648 212.96 106.06)" stroke="#FFCEC7" stroke-width="2"/>
<line y1="-1" x2="9.1586" y2="-1" transform="matrix(1 0 0 -1 42.3315 101.48)" stroke="#FFCEC7" stroke-width="2"/>
<line y1="-1" x2="9.15859" y2="-1" transform="matrix(0.984808 -0.173648 -0.173649 -0.984808 21.8296 102.339)" stroke="#FFCEC7" stroke-width="2"/>
<line y1="-1" x2="9.15861" y2="-1" transform="matrix(0.939693 -0.34202 -0.342021 -0.939692 1.53125 103.198)" stroke="#FFCEC7" stroke-width="2"/>
<line y1="-1" x2="9.1586" y2="-1" transform="matrix(-0.34202 -0.939693 -0.939693 0.34202 214.115 121.801)" stroke="#FFCEC7" stroke-width="2"/>
<line y1="-1" x2="9.1586" y2="-1" transform="matrix(-0.5 -0.866025 -0.866025 0.5 194.595 121.515)" stroke="#FFCEC7" stroke-width="2"/>
<line y1="-1" x2="9.1586" y2="-1" transform="matrix(-0.642788 -0.766044 -0.766044 0.642788 174.969 121.228)" stroke="#FFCEC7" stroke-width="2"/>
<line y1="-1" x2="9.1586" y2="-1" transform="matrix(-0.766045 -0.642787 -0.642788 0.766044 155.208 120.656)" stroke="#FFCEC7" stroke-width="2"/>
<line y1="-1" x2="9.15861" y2="-1" transform="matrix(-0.866026 -0.5 -0.5 0.866025 135.286 119.797)" stroke="#FFCEC7" stroke-width="2"/>
<line y1="-1" x2="9.1586" y2="-1" transform="matrix(-0.939692 -0.342021 -0.342019 0.939693 115.186 119.225)" stroke="#FFCEC7" stroke-width="2"/>
<line y1="-1" x2="9.15859" y2="-1" transform="matrix(-0.984808 -0.173648 -0.173649 0.984808 94.8882 118.366)" stroke="#FFCEC7" stroke-width="2"/>
<line y1="-1" x2="9.1586" y2="-1" transform="matrix(0.866025 -0.5 -0.5 -0.866025 2.03711 119.797)" stroke="#FFCEC7" stroke-width="2"/>
<line y1="-1" x2="9.15862" y2="-1" transform="matrix(1 0 0 -1 62.937 117.508)" stroke="#FFCEC7" stroke-width="2"/>
<line y1="-1" x2="9.15859" y2="-1" transform="matrix(0.984808 -0.173648 -0.173649 -0.984808 42.4351 118.366)" stroke="#FFCEC7" stroke-width="2"/>
<line y1="-1" x2="9.15861" y2="-1" transform="matrix(0.939693 -0.34202 -0.34202 -0.939693 22.1396 119.225)" stroke="#FFCEC7" stroke-width="2"/>
<line y1="-1" x2="9.1586" y2="-1" transform="matrix(-0.5 -0.866025 -0.866025 0.5 215.201 137.542)" stroke="#FFCEC7" stroke-width="2"/>
<line y1="-1" x2="9.1586" y2="-1" transform="matrix(-0.642787 -0.766045 -0.766044 0.642788 195.574 137.256)" stroke="#FFCEC7" stroke-width="2"/>
<line y1="-1" x2="9.1586" y2="-1" transform="matrix(-0.766044 -0.642788 -0.642787 0.766045 175.813 136.684)" stroke="#FFCEC7" stroke-width="2"/>
<line y1="-1" x2="9.1586" y2="-1" transform="matrix(-0.866025 -0.5 -0.5 0.866025 155.895 135.825)" stroke="#FFCEC7" stroke-width="2"/>
<line y1="-1" x2="9.1586" y2="-1" transform="matrix(-0.939692 -0.342021 -0.34202 0.939693 135.794 135.252)" stroke="#FFCEC7" stroke-width="2"/>
<line y1="-1" x2="9.1586" y2="-1" transform="matrix(-0.984808 -0.173649 -0.173648 0.984808 115.496 134.394)" stroke="#FFCEC7" stroke-width="2"/>
<line y1="-1" x2="9.1586" y2="-1" transform="matrix(0.866025 -0.5 -0.5 -0.866025 22.6455 135.825)" stroke="#FFCEC7" stroke-width="2"/>
<line y1="-1" x2="9.1586" y2="-1" transform="matrix(0.766044 -0.642788 -0.642787 -0.766045 2.72363 136.684)" stroke="#FFCEC7" stroke-width="2"/>
<line y1="-1" x2="9.15859" y2="-1" transform="matrix(1 0 0 -1 83.5454 133.535)" stroke="#FFCEC7" stroke-width="2"/>
<line y1="-1" x2="9.15861" y2="-1" transform="matrix(0.984808 -0.173648 -0.173648 -0.984808 63.0435 134.394)" stroke="#FFCEC7" stroke-width="2"/>
<line y1="-1" x2="9.15861" y2="-1" transform="matrix(0.939693 -0.34202 -0.34202 -0.939693 42.7451 135.252)" stroke="#FFCEC7" stroke-width="2"/>
<line y1="-1" x2="9.1586" y2="-1" transform="matrix(-0.642787 -0.766045 -0.766044 0.642788 216.183 153.284)" stroke="#FFCEC7" stroke-width="2"/>
<line y1="-1" x2="9.1586" y2="-1" transform="matrix(-0.766044 -0.642788 -0.642787 0.766045 196.422 152.711)" stroke="#FFCEC7" stroke-width="2"/>
<line y1="-1" x2="9.1586" y2="-1" transform="matrix(-0.866025 -0.5 -0.5 0.866025 176.5 151.853)" stroke="#FFCEC7" stroke-width="2"/>
<line y1="-1" x2="9.1586" y2="-1" transform="matrix(-0.939692 -0.342021 -0.34202 0.939693 156.4 151.28)" stroke="#FFCEC7" stroke-width="2"/>
<line y1="-1" x2="9.1586" y2="-1" transform="matrix(-0.984808 -0.173649 -0.173648 0.984808 136.102 150.421)" stroke="#FFCEC7" stroke-width="2"/>
<line y1="-1" x2="9.1586" y2="-1" transform="matrix(0.866025 -0.5 -0.5 -0.866025 43.251 151.853)" stroke="#FFCEC7" stroke-width="2"/>
<line y1="-1" x2="9.15861" y2="-1" transform="matrix(0.766044 -0.642788 -0.642788 -0.766044 23.332 152.711)" stroke="#FFCEC7" stroke-width="2"/>
<line y1="-1" x2="9.15861" y2="-1" transform="matrix(0.642788 -0.766044 -0.766044 -0.642788 3.5708 153.284)" stroke="#FFCEC7" stroke-width="2"/>
<line y1="-1" x2="9.1586" y2="-1" transform="matrix(1 0 0 -1 104.151 149.563)" stroke="#FFCEC7" stroke-width="2"/>
<line y1="-1" x2="9.1586" y2="-1" transform="matrix(0.984808 -0.173649 -0.173648 -0.984808 83.6489 150.421)" stroke="#FFCEC7" stroke-width="2"/>
<line y1="-1" x2="9.15861" y2="-1" transform="matrix(0.939693 -0.34202 -0.34202 -0.939693 63.3506 151.28)" stroke="#FFCEC7" stroke-width="2"/>
<line y1="-1" x2="9.1586" y2="-1" transform="matrix(-0.766044 -0.642788 -0.642787 0.766045 217.027 168.739)" stroke="#FFCEC7" stroke-width="2"/>
<line y1="-1" x2="9.1586" y2="-1" transform="matrix(-0.866025 -0.5 -0.5 0.866025 197.108 167.88)" stroke="#FFCEC7" stroke-width="2"/>
<line y1="-1" x2="9.1586" y2="-1" transform="matrix(-0.939692 -0.342021 -0.34202 0.939693 177.008 167.307)" stroke="#FFCEC7" stroke-width="2"/>
<line y1="-1" x2="9.1586" y2="-1" transform="matrix(-0.984808 -0.173647 -0.173649 0.984808 156.71 166.449)" stroke="#FFCEC7" stroke-width="2"/>
<line y1="-1" x2="9.1586" y2="-1" transform="matrix(0.866025 -0.5 -0.5 -0.866025 63.8594 167.88)" stroke="#FFCEC7" stroke-width="2"/>
<line y1="-1" x2="9.15861" y2="-1" transform="matrix(0.766044 -0.642788 -0.642788 -0.766044 43.9375 168.739)" stroke="#FFCEC7" stroke-width="2"/>
<line y1="-1" x2="9.15861" y2="-1" transform="matrix(0.642788 -0.766044 -0.766044 -0.642788 24.1792 169.311)" stroke="#FFCEC7" stroke-width="2"/>
<line y1="-1" x2="9.1586" y2="-1" transform="matrix(0.5 -0.866025 -0.866025 -0.5 4.55029 169.597)" stroke="#FFCEC7" stroke-width="2"/>
<line y1="-1" x2="9.1586" y2="-1" transform="matrix(1 0 0 -1 124.759 165.591)" stroke="#FFCEC7" stroke-width="2"/>
<line y1="-1" x2="9.1586" y2="-1" transform="matrix(0.984808 -0.173647 -0.173649 -0.984808 104.257 166.449)" stroke="#FFCEC7" stroke-width="2"/>
<line y1="-1" x2="9.1586" y2="-1" transform="matrix(0.939692 -0.342021 -0.342019 -0.939693 83.959 167.307)" stroke="#FFCEC7" stroke-width="2"/>
<line y1="-1" x2="9.1586" y2="-1" transform="matrix(-0.866025 -0.5 -0.5 0.866025 217.714 183.907)" stroke="#FFCEC7" stroke-width="2"/>
<line y1="-1" x2="9.1586" y2="-1" transform="matrix(-0.939692 -0.342021 -0.34202 0.939693 197.614 183.335)" stroke="#FFCEC7" stroke-width="2"/>
<line y1="-1" x2="9.1586" y2="-1" transform="matrix(-0.984808 -0.173647 -0.173649 0.984808 177.315 182.477)" stroke="#FFCEC7" stroke-width="2"/>
<line y1="-1" x2="9.1586" y2="-1" transform="matrix(0.866025 -0.5 -0.5 -0.866025 84.4648 183.907)" stroke="#FFCEC7" stroke-width="2"/>
<line y1="-1" x2="9.15861" y2="-1" transform="matrix(0.766044 -0.642788 -0.642788 -0.766044 64.5454 184.766)" stroke="#FFCEC7" stroke-width="2"/>
<line y1="-1" x2="9.15861" y2="-1" transform="matrix(0.642788 -0.766044 -0.766044 -0.642788 44.7847 185.339)" stroke="#FFCEC7" stroke-width="2"/>
<line y1="-1" x2="9.1586" y2="-1" transform="matrix(0.5 -0.866025 -0.866025 -0.5 25.1587 185.625)" stroke="#FFCEC7" stroke-width="2"/>
<line y1="-1" x2="9.15861" y2="-1" transform="matrix(0.34202 -0.939693 -0.939693 -0.34202 5.63574 185.911)" stroke="#FFCEC7" stroke-width="2"/>
<line y1="-1" x2="9.1586" y2="-1" transform="matrix(1 0 0 -1 145.365 181.618)" stroke="#FFCEC7" stroke-width="2"/>
<line y1="-1" x2="9.15859" y2="-1" transform="matrix(0.984808 -0.173647 -0.173649 -0.984808 124.863 182.477)" stroke="#FFCEC7" stroke-width="2"/>
<line y1="-1" x2="9.1586" y2="-1" transform="matrix(0.939692 -0.342021 -0.34202 -0.939693 104.564 183.335)" stroke="#FFCEC7" stroke-width="2"/>
<line y1="-1" x2="9.1586" y2="-1" transform="matrix(-0.939692 -0.342021 -0.34202 0.939693 218.222 199.362)" stroke="#FFCEC7" stroke-width="2"/>
<line y1="-1" x2="9.1586" y2="-1" transform="matrix(-0.984808 -0.173647 -0.173649 0.984808 197.924 198.504)" stroke="#FFCEC7" stroke-width="2"/>
<line y1="-1" x2="9.15861" y2="-1" transform="matrix(0.866026 -0.5 -0.5 -0.866025 105.073 199.935)" stroke="#FFCEC7" stroke-width="2"/>
<line y1="-1" x2="9.15861" y2="-1" transform="matrix(0.766044 -0.642788 -0.642788 -0.766044 85.1509 200.793)" stroke="#FFCEC7" stroke-width="2"/>
<line y1="-1" x2="9.15861" y2="-1" transform="matrix(0.642788 -0.766044 -0.766044 -0.642788 65.3901 201.366)" stroke="#FFCEC7" stroke-width="2"/>
<line y1="-1" x2="9.1586" y2="-1" transform="matrix(0.5 -0.866025 -0.866025 -0.5 45.7642 201.652)" stroke="#FFCEC7" stroke-width="2"/>
<line y1="-1" x2="9.1586" y2="-1" transform="matrix(0.342019 -0.939693 -0.939692 -0.342021 26.2441 201.939)" stroke="#FFCEC7" stroke-width="2"/>
<line y1="-1" x2="9.1586" y2="-1" transform="matrix(0.173649 -0.984808 -0.984808 -0.173648 6.79346 202.225)" stroke="#FFCEC7" stroke-width="2"/>
<line y1="-1" x2="9.1586" y2="-1" transform="matrix(1 0 0 -1 165.973 197.646)" stroke="#FFCEC7" stroke-width="2"/>
<line y1="-1" x2="9.1586" y2="-1" transform="matrix(0.984808 -0.173647 -0.173649 -0.984808 145.471 198.504)" stroke="#FFCEC7" stroke-width="2"/>
<line y1="-1" x2="9.1586" y2="-1" transform="matrix(0.939692 -0.342021 -0.342019 -0.939693 125.173 199.362)" stroke="#FFCEC7" stroke-width="2"/>
<line y1="-1" x2="9.1586" y2="-1" transform="matrix(-0.984808 -0.173647 -0.173649 0.984808 218.529 214.531)" stroke="#FFCEC7" stroke-width="2"/>
<line y1="-1" x2="9.15861" y2="-1" transform="matrix(0.866026 -0.5 -0.5 -0.866025 125.678 215.962)" stroke="#FFCEC7" stroke-width="2"/>
<line y1="-1" x2="9.1586" y2="-1" transform="matrix(0.766044 -0.642788 -0.642787 -0.766045 105.759 216.821)" stroke="#FFCEC7" stroke-width="2"/>
<line y1="-1" x2="9.1586" y2="-1" transform="matrix(0.642787 -0.766045 -0.766044 -0.642789 85.9985 217.394)" stroke="#FFCEC7" stroke-width="2"/>
<line y1="-1" x2="9.1586" y2="-1" transform="matrix(0.5 -0.866025 -0.866025 -0.5 66.3726 217.68)" stroke="#FFCEC7" stroke-width="2"/>
<line y1="-1" x2="9.1586" y2="-1" transform="matrix(0.342019 -0.939693 -0.939692 -0.342021 46.8496 217.966)" stroke="#FFCEC7" stroke-width="2"/>
<line y1="-1" x2="9.1586" y2="-1" transform="matrix(0.173649 -0.984808 -0.984808 -0.173648 27.3989 218.252)" stroke="#FFCEC7" stroke-width="2"/>
<line y1="-1" x2="9.1586" y2="-1" transform="matrix(0 -1 -1 0 7.98535 218.252)" stroke="#FFCEC7" stroke-width="2"/>
<line y1="-1" x2="9.1586" y2="-1" transform="matrix(1 0 0 -1 186.579 213.673)" stroke="#FFCEC7" stroke-width="2"/>
<line y1="-1" x2="9.1586" y2="-1" transform="matrix(0.984808 -0.173647 -0.173649 -0.984808 166.077 214.531)" stroke="#FFCEC7" stroke-width="2"/>
<line y1="-1" x2="9.1586" y2="-1" transform="matrix(0.939692 -0.342021 -0.342019 -0.939693 145.778 215.39)" stroke="#FFCEC7" stroke-width="2"/>
<line y1="-1" x2="9.1586" y2="-1" transform="matrix(0.866025 -0.5 -0.5 -0.866025 146.287 231.99)" stroke="#FFCEC7" stroke-width="2"/>
<line y1="-1" x2="9.1586" y2="-1" transform="matrix(0.766044 -0.642788 -0.642787 -0.766045 126.365 232.848)" stroke="#FFCEC7" stroke-width="2"/>
<line y1="-1" x2="9.15861" y2="-1" transform="matrix(0.642788 -0.766044 -0.766044 -0.642788 106.604 233.421)" stroke="#FFCEC7" stroke-width="2"/>
<line y1="-1" x2="9.1586" y2="-1" transform="matrix(0.5 -0.866025 -0.866025 -0.5 86.978 233.707)" stroke="#FFCEC7" stroke-width="2"/>
<line y1="-1" x2="9.1586" y2="-1" transform="matrix(0.342019 -0.939693 -0.939692 -0.342021 67.458 233.994)" stroke="#FFCEC7" stroke-width="2"/>
<line y1="-1" x2="9.1586" y2="-1" transform="matrix(0.173649 -0.984808 -0.984808 -0.173648 48.0073 234.28)" stroke="#FFCEC7" stroke-width="2"/>
<line y1="-1" x2="9.1586" y2="-1" transform="matrix(0 -1 -1 0 28.5938 234.28)" stroke="#FFCEC7" stroke-width="2"/>
<line y1="-1" x2="9.1586" y2="-1" transform="matrix(-0.173649 -0.984808 -0.984808 0.173648 9.17725 234.28)" stroke="#FFCEC7" stroke-width="2"/>
<line y1="-1" x2="9.1586" y2="-1" transform="matrix(1 0 0 -1 207.187 229.7)" stroke="#FFCEC7" stroke-width="2"/>
<line y1="-1" x2="9.1586" y2="-1" transform="matrix(0.984808 -0.173647 -0.173649 -0.984808 186.685 230.559)" stroke="#FFCEC7" stroke-width="2"/>
<line y1="-1" x2="9.1586" y2="-1" transform="matrix(0.939692 -0.342021 -0.34202 -0.939693 166.387 231.418)" stroke="#FFCEC7" stroke-width="2"/>
<line y1="-1" x2="9.1586" y2="-1" transform="matrix(-0.342019 -0.939693 -0.939692 0.342021 10.335 250.021)" stroke="#FFCEC7" stroke-width="2"/>
<line y1="-1" x2="9.1586" y2="-1" transform="matrix(0.866025 -0.5 -0.5 -0.866025 166.892 248.017)" stroke="#FFCEC7" stroke-width="2"/>
<line y1="-1" x2="9.15861" y2="-1" transform="matrix(0.766044 -0.642788 -0.642788 -0.766044 146.973 248.876)" stroke="#FFCEC7" stroke-width="2"/>
<line y1="-1" x2="9.1586" y2="-1" transform="matrix(0.642787 -0.766045 -0.766044 -0.642788 127.212 249.448)" stroke="#FFCEC7" stroke-width="2"/>
<line y1="-1" x2="9.1586" y2="-1" transform="matrix(0.5 -0.866025 -0.866025 -0.5 107.586 249.735)" stroke="#FFCEC7" stroke-width="2"/>
<line y1="-1" x2="9.1586" y2="-1" transform="matrix(0.342019 -0.939693 -0.939692 -0.342021 88.0635 250.021)" stroke="#FFCEC7" stroke-width="2"/>
<line y1="-1" x2="9.1586" y2="-1" transform="matrix(0.173649 -0.984808 -0.984808 -0.173648 68.6128 250.307)" stroke="#FFCEC7" stroke-width="2"/>
<line y1="-1" x2="9.1586" y2="-1" transform="matrix(0 -1 -1 0 49.1992 250.307)" stroke="#FFCEC7" stroke-width="2"/>
<line y1="-1" x2="9.1586" y2="-1" transform="matrix(-0.173649 -0.984808 -0.984808 0.173648 29.7856 250.307)" stroke="#FFCEC7" stroke-width="2"/>
<line y1="-1" x2="9.1586" y2="-1" transform="matrix(0.984808 -0.173647 -0.173649 -0.984808 207.291 246.586)" stroke="#FFCEC7" stroke-width="2"/>
<line y1="-1" x2="9.1586" y2="-1" transform="matrix(0.939692 -0.342021 -0.34202 -0.939693 186.992 247.445)" stroke="#FFCEC7" stroke-width="2"/>
<line y1="-1" x2="9.15859" y2="-1" transform="matrix(-0.342019 -0.939693 -0.939692 0.342021 30.9404 266.049)" stroke="#FFCEC7" stroke-width="2"/>
<line y1="-1" x2="9.1586" y2="-1" transform="matrix(-0.5 -0.866025 -0.866025 0.5 11.4204 265.762)" stroke="#FFCEC7" stroke-width="2"/>
<line y1="-1" x2="9.15859" y2="-1" transform="matrix(0.866026 -0.499999 -0.500001 -0.866025 187.5 264.045)" stroke="#FFCEC7" stroke-width="2"/>
<line y1="-1" x2="9.15859" y2="-1" transform="matrix(0.766045 -0.642787 -0.642788 -0.766044 167.579 264.904)" stroke="#FFCEC7" stroke-width="2"/>
<line y1="-1" x2="9.15858" y2="-1" transform="matrix(0.642789 -0.766043 -0.766045 -0.642786 147.818 265.476)" stroke="#FFCEC7" stroke-width="2"/>
<line y1="-1" x2="9.1586" y2="-1" transform="matrix(0.5 -0.866025 -0.866025 -0.5 128.191 265.762)" stroke="#FFCEC7" stroke-width="2"/>
<line y1="-1" x2="9.15859" y2="-1" transform="matrix(0.34202 -0.939693 -0.939693 -0.34202 108.672 266.049)" stroke="#FFCEC7" stroke-width="2"/>
<line y1="-1" x2="9.15861" y2="-1" transform="matrix(0.173647 -0.984808 -0.984807 -0.17365 89.2212 266.335)" stroke="#FFCEC7" stroke-width="2"/>
<line y1="-1" x2="9.1586" y2="-1" transform="matrix(0 -1 -1 0 69.8076 266.335)" stroke="#FFCEC7" stroke-width="2"/>
<line y1="-1" x2="9.15861" y2="-1" transform="matrix(-0.173648 -0.984808 -0.984808 0.173648 50.3911 266.335)" stroke="#FFCEC7" stroke-width="2"/>
<line y1="-1" x2="9.1586" y2="-1" transform="matrix(0.939693 -0.342019 -0.342021 -0.939692 207.601 263.473)" stroke="#FFCEC7" stroke-width="2"/>
<line y1="-1" x2="9.1586" y2="-1" transform="matrix(-0.342021 -0.939692 -0.939693 0.342019 51.5488 282.076)" stroke="#FFCEC7" stroke-width="2"/>
<line y1="-1" x2="9.1586" y2="-1" transform="matrix(-0.5 -0.866025 -0.866025 0.5 32.0259 281.79)" stroke="#FFCEC7" stroke-width="2"/>
<line y1="-1" x2="9.15861" y2="-1" transform="matrix(-0.642788 -0.766044 -0.766044 0.642788 12.3999 281.503)" stroke="#FFCEC7" stroke-width="2"/>
<line y1="-1" x2="9.15859" y2="-1" transform="matrix(0.866026 -0.499999 -0.500001 -0.866025 208.106 280.073)" stroke="#FFCEC7" stroke-width="2"/>
<line y1="-1" x2="9.15859" y2="-1" transform="matrix(0.766045 -0.642787 -0.642788 -0.766044 188.187 280.931)" stroke="#FFCEC7" stroke-width="2"/>
<line y1="-1" x2="9.1586" y2="-1" transform="matrix(0.642787 -0.766045 -0.766044 -0.642788 168.426 281.503)" stroke="#FFCEC7" stroke-width="2"/>
<line y1="-1" x2="9.1586" y2="-1" transform="matrix(0.5 -0.866025 -0.866025 -0.5 148.8 281.79)" stroke="#FFCEC7" stroke-width="2"/>
<line y1="-1" x2="9.15859" y2="-1" transform="matrix(0.34202 -0.939693 -0.939693 -0.34202 129.277 282.076)" stroke="#FFCEC7" stroke-width="2"/>
<line y1="-1" x2="9.15861" y2="-1" transform="matrix(0.173648 -0.984808 -0.984808 -0.173648 109.827 282.362)" stroke="#FFCEC7" stroke-width="2"/>
<line y1="-1" x2="9.1586" y2="-1" transform="matrix(0 -1 -1 0 90.4131 282.362)" stroke="#FFCEC7" stroke-width="2"/>
<line y1="-1" x2="9.15861" y2="-1" transform="matrix(-0.173648 -0.984808 -0.984808 0.173648 70.9995 282.362)" stroke="#FFCEC7" stroke-width="2"/>
<line y1="-1" x2="9.1586" y2="-1" transform="matrix(-0.342021 -0.939692 -0.939693 0.342019 72.1543 298.104)" stroke="#FFCEC7" stroke-width="2"/>
<line y1="-1" x2="9.15861" y2="-1" transform="matrix(-0.500001 -0.866025 -0.866026 0.499999 52.6343 297.818)" stroke="#FFCEC7" stroke-width="2"/>
<line y1="-1" x2="9.15861" y2="-1" transform="matrix(-0.642788 -0.766044 -0.766044 0.642788 33.0083 297.531)" stroke="#FFCEC7" stroke-width="2"/>
<line y1="-1" x2="9.1586" y2="-1" transform="matrix(-0.766045 -0.642787 -0.642789 0.766044 13.2476 296.959)" stroke="#FFCEC7" stroke-width="2"/>
<line y1="-1" x2="9.15859" y2="-1" transform="matrix(0.766045 -0.642787 -0.642788 -0.766044 208.792 296.959)" stroke="#FFCEC7" stroke-width="2"/>
<line y1="-1" x2="9.1586" y2="-1" transform="matrix(0.642787 -0.766045 -0.766044 -0.642788 189.031 297.531)" stroke="#FFCEC7" stroke-width="2"/>
<line y1="-1" x2="9.1586" y2="-1" transform="matrix(0.5 -0.866025 -0.866025 -0.5 169.405 297.818)" stroke="#FFCEC7" stroke-width="2"/>
<line y1="-1" x2="9.15859" y2="-1" transform="matrix(0.34202 -0.939693 -0.939693 -0.34202 149.886 298.104)" stroke="#FFCEC7" stroke-width="2"/>
<line y1="-1" x2="9.15861" y2="-1" transform="matrix(0.173648 -0.984808 -0.984808 -0.173649 130.435 298.39)" stroke="#FFCEC7" stroke-width="2"/>
<line y1="-1" x2="9.1586" y2="-1" transform="matrix(0 -1 -1 0 111.021 298.39)" stroke="#FFCEC7" stroke-width="2"/>
<line y1="-1" x2="9.15861" y2="-1" transform="matrix(-0.173648 -0.984808 -0.984808 0.173648 91.605 298.39)" stroke="#FFCEC7" stroke-width="2"/>
</svg>
