<svg width="402" height="400" viewBox="0 0 402 400" fill="none" xmlns="http://www.w3.org/2000/svg">
<path d="M1 6.66663C11 6.66663 11 13.3333 21 13.3333C31 13.3333 31 6.66663 41 6.66663C51 6.66663 51 13.3333 61 13.3333C71 13.3333 71 6.66663 81 6.66663C91 6.66663 91 13.3333 101 13.3333C111 13.3333 111 6.66663 121 6.66663C131 6.66663 131 13.3333 141 13.3333C151 13.3333 151 6.66663 161 6.66663C171 6.66663 171 13.3333 181 13.3333C191 13.3333 191 6.66663 201 6.66663C211 6.66663 211 13.3333 221 13.3333C231 13.3333 231 6.66663 241 6.66663C248.917 6.66663 251 13.3333 261 13.3333C271 13.3333 271 6.66663 281 6.66663C291 6.66663 291 13.3333 301 13.3333C311 13.3333 311 6.66663 321 6.66663C331 6.66663 331 13.3333 341 13.3333C351 13.3333 351 6.66663 361 6.66663C371 6.66663 371 13.3333 381 13.3333C391 13.3333 391 6.66663 401 6.66663" stroke="#FFACA0" stroke-width="2" stroke-linecap="round"/>
<path d="M1 26.6666C11 26.6666 11 33.3333 21 33.3333C31 33.3333 31 26.6666 41 26.6666C51 26.6666 51 33.3333 61 33.3333C71 33.3333 71 26.6666 81 26.6666C91 26.6666 91 33.3333 101 33.3333C111 33.3333 111 26.6666 121 26.6666C131 26.6666 131 33.3333 141 33.3333C151 33.3333 151 26.6666 161 26.6666C171 26.6666 171 33.3333 181 33.3333C191 33.3333 191 26.6666 201 26.6666C211 26.6666 211 33.3333 221 33.3333C231 33.3333 231 26.6666 241 26.6666C248.917 26.6666 251 33.3333 261 33.3333C271 33.3333 271 26.6666 281 26.6666C291 26.6666 291 33.3333 301 33.3333C311 33.3333 311 26.6666 321 26.6666C331 26.6666 331 33.3333 341 33.3333C351 33.3333 351 26.6666 361 26.6666C371 26.6666 371 33.3333 381 33.3333C391 33.3333 391 26.6666 401 26.6666" stroke="#FFACA0" stroke-width="2" stroke-linecap="round"/>
<path d="M1 46.6666C11 46.6666 11 53.3333 21 53.3333C31 53.3333 31 46.6666 41 46.6666C51 46.6666 51 53.3333 61 53.3333C71 53.3333 71 46.6666 81 46.6666C91 46.6666 91 53.3333 101 53.3333C111 53.3333 111 46.6666 121 46.6666C131 46.6666 131 53.3333 141 53.3333C151 53.3333 151 46.6666 161 46.6666C171 46.6666 171 53.3333 181 53.3333C191 53.3333 191 46.6666 201 46.6666C211 46.6666 211 53.3333 221 53.3333C231 53.3333 231 46.6666 241 46.6666C248.917 46.6666 251 53.3333 261 53.3333C271 53.3333 271 46.6666 281 46.6666C291 46.6666 291 53.3333 301 53.3333C311 53.3333 311 46.6666 321 46.6666C331 46.6666 331 53.3333 341 53.3333C351 53.3333 351 46.6666 361 46.6666C371 46.6666 371 53.3333 381 53.3333C391 53.3333 391 46.6666 401 46.6666" stroke="#FFACA0" stroke-width="2" stroke-linecap="round"/>
<path d="M1 66.6666C11 66.6666 11 73.3333 21 73.3333C31 73.3333 31 66.6666 41 66.6666C51 66.6666 51 73.3333 61 73.3333C71 73.3333 71 66.6666 81 66.6666C91 66.6666 91 73.3333 101 73.3333C111 73.3333 111 66.6666 121 66.6666C131 66.6666 131 73.3333 141 73.3333C151 73.3333 151 66.6666 161 66.6666C171 66.6666 171 73.3333 181 73.3333C191 73.3333 191 66.6666 201 66.6666C211 66.6666 211 73.3333 221 73.3333C231 73.3333 231 66.6666 241 66.6666C248.917 66.6666 251 73.3333 261 73.3333C271 73.3333 271 66.6666 281 66.6666C291 66.6666 291 73.3333 301 73.3333C311 73.3333 311 66.6666 321 66.6666C331 66.6666 331 73.3333 341 73.3333C351 73.3333 351 66.6666 361 66.6666C371 66.6666 371 73.3333 381 73.3333C391 73.3333 391 66.6666 401 66.6666" stroke="#FFACA0" stroke-width="2" stroke-linecap="round"/>
<path d="M1 86.6666C11 86.6666 11 93.3333 21 93.3333C31 93.3333 31 86.6666 41 86.6666C51 86.6666 51 93.3333 61 93.3333C71 93.3333 71 86.6666 81 86.6666C91 86.6666 91 93.3333 101 93.3333C111 93.3333 111 86.6666 121 86.6666C131 86.6666 131 93.3333 141 93.3333C151 93.3333 151 86.6666 161 86.6666C171 86.6666 171 93.3333 181 93.3333C191 93.3333 191 86.6666 201 86.6666C211 86.6666 211 93.3333 221 93.3333C231 93.3333 231 86.6666 241 86.6666C248.917 86.6666 251 93.3333 261 93.3333C271 93.3333 271 86.6666 281 86.6666C291 86.6666 291 93.3333 301 93.3333C311 93.3333 311 86.6666 321 86.6666C331 86.6666 331 93.3333 341 93.3333C351 93.3333 351 86.6666 361 86.6666C371 86.6666 371 93.3333 381 93.3333C391 93.3333 391 86.6666 401 86.6666" stroke="#FFACA0" stroke-width="2" stroke-linecap="round"/>
<path d="M1 106.667C11 106.667 11 113.333 21 113.333C31 113.333 31 106.667 41 106.667C51 106.667 51 113.333 61 113.333C71 113.333 71 106.667 81 106.667C91 106.667 91 113.333 101 113.333C111 113.333 111 106.667 121 106.667C131 106.667 131 113.333 141 113.333C151 113.333 151 106.667 161 106.667C171 106.667 171 113.333 181 113.333C191 113.333 191 106.667 201 106.667C211 106.667 211 113.333 221 113.333C231 113.333 231 106.667 241 106.667C248.917 106.667 251 113.333 261 113.333C271 113.333 271 106.667 281 106.667C291 106.667 291 113.333 301 113.333C311 113.333 311 106.667 321 106.667C331 106.667 331 113.333 341 113.333C351 113.333 351 106.667 361 106.667C371 106.667 371 113.333 381 113.333C391 113.333 391 106.667 401 106.667" stroke="#FFACA0" stroke-width="2" stroke-linecap="round"/>
<path d="M1 126.667C11 126.667 11 133.333 21 133.333C31 133.333 31 126.667 41 126.667C51 126.667 51 133.333 61 133.333C71 133.333 71 126.667 81 126.667C91 126.667 91 133.333 101 133.333C111 133.333 111 126.667 121 126.667C131 126.667 131 133.333 141 133.333C151 133.333 151 126.667 161 126.667C171 126.667 171 133.333 181 133.333C191 133.333 191 126.667 201 126.667C211 126.667 211 133.333 221 133.333C231 133.333 231 126.667 241 126.667C248.917 126.667 251 133.333 261 133.333C271 133.333 271 126.667 281 126.667C291 126.667 291 133.333 301 133.333C311 133.333 311 126.667 321 126.667C331 126.667 331 133.333 341 133.333C351 133.333 351 126.667 361 126.667C371 126.667 371 133.333 381 133.333C391 133.333 391 126.667 401 126.667" stroke="#FFACA0" stroke-width="2" stroke-linecap="round"/>
<path d="M1 146.667C11 146.667 11 153.333 21 153.333C31 153.333 31 146.667 41 146.667C51 146.667 51 153.333 61 153.333C71 153.333 71 146.667 81 146.667C91 146.667 91 153.333 101 153.333C111 153.333 111 146.667 121 146.667C131 146.667 131 153.333 141 153.333C151 153.333 151 146.667 161 146.667C171 146.667 171 153.333 181 153.333C191 153.333 191 146.667 201 146.667C211 146.667 211 153.333 221 153.333C231 153.333 231 146.667 241 146.667C248.917 146.667 251 153.333 261 153.333C271 153.333 271 146.667 281 146.667C291 146.667 291 153.333 301 153.333C311 153.333 311 146.667 321 146.667C331 146.667 331 153.333 341 153.333C351 153.333 351 146.667 361 146.667C371 146.667 371 153.333 381 153.333C391 153.333 391 146.667 401 146.667" stroke="#FFACA0" stroke-width="2" stroke-linecap="round"/>
<path d="M1 166.667C11 166.667 11 173.333 21 173.333C31 173.333 31 166.667 41 166.667C51 166.667 51 173.333 61 173.333C71 173.333 71 166.667 81 166.667C91 166.667 91 173.333 101 173.333C111 173.333 111 166.667 121 166.667C131 166.667 131 173.333 141 173.333C151 173.333 151 166.667 161 166.667C171 166.667 171 173.333 181 173.333C191 173.333 191 166.667 201 166.667C211 166.667 211 173.333 221 173.333C231 173.333 231 166.667 241 166.667C248.917 166.667 251 173.333 261 173.333C271 173.333 271 166.667 281 166.667C291 166.667 291 173.333 301 173.333C311 173.333 311 166.667 321 166.667C331 166.667 331 173.333 341 173.333C351 173.333 351 166.667 361 166.667C371 166.667 371 173.333 381 173.333C391 173.333 391 166.667 401 166.667" stroke="#FFACA0" stroke-width="2" stroke-linecap="round"/>
<path d="M1 186.667C11 186.667 11 193.333 21 193.333C31 193.333 31 186.667 41 186.667C51 186.667 51 193.333 61 193.333C71 193.333 71 186.667 81 186.667C91 186.667 91 193.333 101 193.333C111 193.333 111 186.667 121 186.667C131 186.667 131 193.333 141 193.333C151 193.333 151 186.667 161 186.667C171 186.667 171 193.333 181 193.333C191 193.333 191 186.667 201 186.667C211 186.667 211 193.333 221 193.333C231 193.333 231 186.667 241 186.667C248.917 186.667 251 193.333 261 193.333C271 193.333 271 186.667 281 186.667C291 186.667 291 193.333 301 193.333C311 193.333 311 186.667 321 186.667C331 186.667 331 193.333 341 193.333C351 193.333 351 186.667 361 186.667C371 186.667 371 193.333 381 193.333C391 193.333 391 186.667 401 186.667" stroke="#FFACA0" stroke-width="2" stroke-linecap="round"/>
<path d="M1 206.667C11 206.667 11 213.333 21 213.333C31 213.333 31 206.667 41 206.667C51 206.667 51 213.333 61 213.333C71 213.333 71 206.667 81 206.667C91 206.667 91 213.333 101 213.333C111 213.333 111 206.667 121 206.667C131 206.667 131 213.333 141 213.333C151 213.333 151 206.667 161 206.667C171 206.667 171 213.333 181 213.333C191 213.333 191 206.667 201 206.667C211 206.667 211 213.333 221 213.333C231 213.333 231 206.667 241 206.667C248.917 206.667 251 213.333 261 213.333C271 213.333 271 206.667 281 206.667C291 206.667 291 213.333 301 213.333C311 213.333 311 206.667 321 206.667C331 206.667 331 213.333 341 213.333C351 213.333 351 206.667 361 206.667C371 206.667 371 213.333 381 213.333C391 213.333 391 206.667 401 206.667" stroke="#FFACA0" stroke-width="2" stroke-linecap="round"/>
<path d="M1 226.667C11 226.667 11 233.333 21 233.333C31 233.333 31 226.667 41 226.667C51 226.667 51 233.333 61 233.333C71 233.333 71 226.667 81 226.667C91 226.667 91 233.333 101 233.333C111 233.333 111 226.667 121 226.667C131 226.667 131 233.333 141 233.333C151 233.333 151 226.667 161 226.667C171 226.667 171 233.333 181 233.333C191 233.333 191 226.667 201 226.667C211 226.667 211 233.333 221 233.333C231 233.333 231 226.667 241 226.667C248.917 226.667 251 233.333 261 233.333C271 233.333 271 226.667 281 226.667C291 226.667 291 233.333 301 233.333C311 233.333 311 226.667 321 226.667C331 226.667 331 233.333 341 233.333C351 233.333 351 226.667 361 226.667C371 226.667 371 233.333 381 233.333C391 233.333 391 226.667 401 226.667" stroke="#FFACA0" stroke-width="2" stroke-linecap="round"/>
<path d="M1 246.667C11 246.667 11 253.333 21 253.333C31 253.333 31 246.667 41 246.667C51 246.667 51 253.333 61 253.333C71 253.333 71 246.667 81 246.667C91 246.667 91 253.333 101 253.333C111 253.333 111 246.667 121 246.667C131 246.667 131 253.333 141 253.333C151 253.333 151 246.667 161 246.667C171 246.667 171 253.333 181 253.333C191 253.333 191 246.667 201 246.667C211 246.667 211 253.333 221 253.333C231 253.333 231 246.667 241 246.667C248.917 246.667 251 253.333 261 253.333C271 253.333 271 246.667 281 246.667C291 246.667 291 253.333 301 253.333C311 253.333 311 246.667 321 246.667C331 246.667 331 253.333 341 253.333C351 253.333 351 246.667 361 246.667C371 246.667 371 253.333 381 253.333C391 253.333 391 246.667 401 246.667" stroke="#FFACA0" stroke-width="2" stroke-linecap="round"/>
<path d="M1 266.667C11 266.667 11 273.333 21 273.333C31 273.333 31 266.667 41 266.667C51 266.667 51 273.333 61 273.333C71 273.333 71 266.667 81 266.667C91 266.667 91 273.333 101 273.333C111 273.333 111 266.667 121 266.667C131 266.667 131 273.333 141 273.333C151 273.333 151 266.667 161 266.667C171 266.667 171 273.333 181 273.333C191 273.333 191 266.667 201 266.667C211 266.667 211 273.333 221 273.333C231 273.333 231 266.667 241 266.667C248.917 266.667 251 273.333 261 273.333C271 273.333 271 266.667 281 266.667C291 266.667 291 273.333 301 273.333C311 273.333 311 266.667 321 266.667C331 266.667 331 273.333 341 273.333C351 273.333 351 266.667 361 266.667C371 266.667 371 273.333 381 273.333C391 273.333 391 266.667 401 266.667" stroke="#FFACA0" stroke-width="2" stroke-linecap="round"/>
<path d="M1 286.667C11 286.667 11 293.333 21 293.333C31 293.333 31 286.667 41 286.667C51 286.667 51 293.333 61 293.333C71 293.333 71 286.667 81 286.667C91 286.667 91 293.333 101 293.333C111 293.333 111 286.667 121 286.667C131 286.667 131 293.333 141 293.333C151 293.333 151 286.667 161 286.667C171 286.667 171 293.333 181 293.333C191 293.333 191 286.667 201 286.667C211 286.667 211 293.333 221 293.333C231 293.333 231 286.667 241 286.667C248.917 286.667 251 293.333 261 293.333C271 293.333 271 286.667 281 286.667C291 286.667 291 293.333 301 293.333C311 293.333 311 286.667 321 286.667C331 286.667 331 293.333 341 293.333C351 293.333 351 286.667 361 286.667C371 286.667 371 293.333 381 293.333C391 293.333 391 286.667 401 286.667" stroke="#FFACA0" stroke-width="2" stroke-linecap="round"/>
<path d="M1 306.667C11 306.667 11 313.333 21 313.333C31 313.333 31 306.667 41 306.667C51 306.667 51 313.333 61 313.333C71 313.333 71 306.667 81 306.667C91 306.667 91 313.333 101 313.333C111 313.333 111 306.667 121 306.667C131 306.667 131 313.333 141 313.333C151 313.333 151 306.667 161 306.667C171 306.667 171 313.333 181 313.333C191 313.333 191 306.667 201 306.667C211 306.667 211 313.333 221 313.333C231 313.333 231 306.667 241 306.667C248.917 306.667 251 313.333 261 313.333C271 313.333 271 306.667 281 306.667C291 306.667 291 313.333 301 313.333C311 313.333 311 306.667 321 306.667C331 306.667 331 313.333 341 313.333C351 313.333 351 306.667 361 306.667C371 306.667 371 313.333 381 313.333C391 313.333 391 306.667 401 306.667" stroke="#FFACA0" stroke-width="2" stroke-linecap="round"/>
<path d="M1 326.667C11 326.667 11 333.333 21 333.333C31 333.333 31 326.667 41 326.667C51 326.667 51 333.333 61 333.333C71 333.333 71 326.667 81 326.667C91 326.667 91 333.333 101 333.333C111 333.333 111 326.667 121 326.667C131 326.667 131 333.333 141 333.333C151 333.333 151 326.667 161 326.667C171 326.667 171 333.333 181 333.333C191 333.333 191 326.667 201 326.667C211 326.667 211 333.333 221 333.333C231 333.333 231 326.667 241 326.667C248.917 326.667 251 333.333 261 333.333C271 333.333 271 326.667 281 326.667C291 326.667 291 333.333 301 333.333C311 333.333 311 326.667 321 326.667C331 326.667 331 333.333 341 333.333C351 333.333 351 326.667 361 326.667C371 326.667 371 333.333 381 333.333C391 333.333 391 326.667 401 326.667" stroke="#FFACA0" stroke-width="2" stroke-linecap="round"/>
<path d="M1 346.667C11 346.667 11 353.333 21 353.333C31 353.333 31 346.667 41 346.667C51 346.667 51 353.333 61 353.333C71 353.333 71 346.667 81 346.667C91 346.667 91 353.333 101 353.333C111 353.333 111 346.667 121 346.667C131 346.667 131 353.333 141 353.333C151 353.333 151 346.667 161 346.667C171 346.667 171 353.333 181 353.333C191 353.333 191 346.667 201 346.667C211 346.667 211 353.333 221 353.333C231 353.333 231 346.667 241 346.667C248.917 346.667 251 353.333 261 353.333C271 353.333 271 346.667 281 346.667C291 346.667 291 353.333 301 353.333C311 353.333 311 346.667 321 346.667C331 346.667 331 353.333 341 353.333C351 353.333 351 346.667 361 346.667C371 346.667 371 353.333 381 353.333C391 353.333 391 346.667 401 346.667" stroke="#FFACA0" stroke-width="2" stroke-linecap="round"/>
<path d="M1 366.667C11 366.667 11 373.333 21 373.333C31 373.333 31 366.667 41 366.667C51 366.667 51 373.333 61 373.333C71 373.333 71 366.667 81 366.667C91 366.667 91 373.333 101 373.333C111 373.333 111 366.667 121 366.667C131 366.667 131 373.333 141 373.333C151 373.333 151 366.667 161 366.667C171 366.667 171 373.333 181 373.333C191 373.333 191 366.667 201 366.667C211 366.667 211 373.333 221 373.333C231 373.333 231 366.667 241 366.667C248.917 366.667 251 373.333 261 373.333C271 373.333 271 366.667 281 366.667C291 366.667 291 373.333 301 373.333C311 373.333 311 366.667 321 366.667C331 366.667 331 373.333 341 373.333C351 373.333 351 366.667 361 366.667C371 366.667 371 373.333 381 373.333C391 373.333 391 366.667 401 366.667" stroke="#FFACA0" stroke-width="2" stroke-linecap="round"/>
<path d="M1 386.667C11 386.667 11 393.333 21 393.333C31 393.333 31 386.667 41 386.667C51 386.667 51 393.333 61 393.333C71 393.333 71 386.667 81 386.667C91 386.667 91 393.333 101 393.333C111 393.333 111 386.667 121 386.667C131 386.667 131 393.333 141 393.333C151 393.333 151 386.667 161 386.667C171 386.667 171 393.333 181 393.333C191 393.333 191 386.667 201 386.667C211 386.667 211 393.333 221 393.333C231 393.333 231 386.667 241 386.667C248.917 386.667 251 393.333 261 393.333C271 393.333 271 386.667 281 386.667C291 386.667 291 393.333 301 393.333C311 393.333 311 386.667 321 386.667C331 386.667 331 393.333 341 393.333C351 393.333 351 386.667 361 386.667C371 386.667 371 393.333 381 393.333C391 393.333 391 386.667 401 386.667" stroke="#FFACA0" stroke-width="2" stroke-linecap="round"/>
</svg>
