<svg width="18" height="30" viewBox="0 0 18 30" fill="none" xmlns="http://www.w3.org/2000/svg">
<path d="M17.8648 9.43982C17.8088 9.33497 17.7256 9.24722 17.6238 9.18587C17.522 9.12452 17.4055 9.09185 17.2867 9.09134L10.6245 9.09134L13.437 0.867111V0.863011C13.4688 0.763447 13.4769 0.657805 13.4605 0.554565C13.4441 0.451324 13.4038 0.353361 13.3427 0.268538C13.2807 0.186519 13.2009 0.119703 13.1093 0.0731709C13.0176 0.0266383 12.9166 0.00161377 12.8138 0L6.06961 0C5.93405 0.000298881 5.80187 0.0423811 5.69109 0.120514C5.58031 0.198647 5.49631 0.309032 5.45053 0.43663C5.45053 0.44073 5.44643 0.44073 5.44643 0.44483L0.0305809 16.4403V16.4444C0.00267345 16.5346 -0.00627001 16.6296 0.0043133 16.7234C0.0148966 16.8173 0.0447779 16.9079 0.0920781 16.9896C0.137827 17.0653 0.198495 17.1308 0.270388 17.1823C0.342281 17.2337 0.423895 17.27 0.510259 17.2889C0.555812 17.3004 0.602672 17.3059 0.649652 17.3053H5.80722L3.56872 29.2194C3.5493 29.3222 3.5544 29.4281 3.5836 29.5285C3.61281 29.629 3.6653 29.7211 3.73681 29.7974C3.80349 29.8672 3.88472 29.9213 3.97472 29.956C4.06472 29.9907 4.16127 30.0052 4.25749 29.9983C4.35669 29.99 4.45277 29.9596 4.53863 29.9092C4.62449 29.8588 4.69794 29.7898 4.75357 29.7073L17.8279 10.1142C17.8962 10.0164 17.9358 9.90143 17.9423 9.78228C17.9488 9.66314 17.922 9.54454 17.8648 9.43982ZM5.45053 26.3024L7.24625 16.7703C7.2639 16.6754 7.26057 16.5778 7.23649 16.4843C7.21241 16.3908 7.16816 16.3037 7.10686 16.2291C7.04562 16.1547 6.96863 16.0947 6.88143 16.0536C6.79423 16.0125 6.69899 15.9912 6.60258 15.9913H1.56391L6.53699 1.31194L11.8954 1.31194L9.08297 9.54027C9.04906 9.63895 9.03918 9.74429 9.05414 9.84756C9.06911 9.95082 9.1085 10.049 9.16903 10.134C9.22957 10.219 9.30951 10.2883 9.40221 10.3362C9.49491 10.3841 9.5977 10.4092 9.70204 10.4094L16.0609 10.4094L5.45053 26.3024Z" fill="#4F5B5E"/>
</svg>
