<svg width="568" height="320" viewBox="0 0 568 320" fill="none" xmlns="http://www.w3.org/2000/svg">
<g clip-path="url(#clip0_1716_14929)">
<path d="M567.467 173.456L546.594 320.013H15.9395L0.268209 208.206C-1.47893 195.683 5.44346 183.544 17.1308 178.685L64.2242 159.133V112.284C64.2242 98.4768 74.3232 86.7745 87.9827 84.7888L99.1141 83.1606L117.816 19.8966C121.324 8.08836 132.164 0 144.46 0H335.799C343.079 0 349.75 2.80644 354.713 7.42647C359.69 12.0597 362.959 18.5066 363.489 25.761L454.605 35.3849C468.132 36.8279 478.615 47.8153 479.422 61.3842L483.115 124.608L547.494 142.797C560.889 146.57 569.413 159.676 567.467 173.456Z" fill="#FFACA0"/>
<path d="M47.7553 203.679L64.3267 320.013H485.534L497.975 231.266C499.365 221.325 493.859 211.688 484.594 207.835L447.216 192.32V155.135C447.216 144.174 439.195 134.894 428.354 133.319L419.513 132.022L404.662 81.8104C401.896 72.4247 393.279 66.0176 383.524 66.0176H231.629C225.845 66.0176 220.564 68.2415 216.619 71.9084C212.675 75.5886 210.067 80.6984 209.644 86.4701L137.323 94.1084C126.588 95.2469 118.263 103.971 117.615 114.746L114.689 164.918L63.5855 179.361C52.9702 182.339 46.2067 192.744 47.7553 203.679Z" fill="#FFCEC7"/>
<path d="M395.252 276.659C395.252 264.123 386.079 253.493 373.664 251.679L363.551 250.197L346.557 192.731C343.393 181.995 333.532 174.648 322.361 174.648H148.534C141.916 174.648 135.867 177.203 131.354 181.399C126.84 185.609 123.862 191.46 123.372 198.053L48.1128 205.995L64.34 320H397.144L395.238 319.206V276.659H395.252Z" fill="#FFACA0"/>
<path d="M81.5298 319.209C81.5298 319.322 179.036 319.404 299.265 319.404C419.494 319.404 517 319.322 517 319.209C517 319.096 419.516 319.013 299.227 319.013C178.938 319.013 81.5298 319.103 81.5298 319.209Z" fill="#263238"/>
<path d="M273.513 156.239H357.066L350.888 96.7197H266.627L273.513 156.239Z" fill="#263238"/>
<path d="M277.763 156.239H361.323L355.145 96.7197H270.884L277.763 156.239Z" fill="#455A64"/>
<path d="M280.867 153.542H358.4L352.666 98.3169H274.478L280.867 153.542Z" fill="#F5F5F5"/>
<path d="M349.992 144.335C350.105 144.335 349.336 136.01 348.274 125.779C347.212 115.547 346.278 107.245 346.172 107.26C346.067 107.275 346.828 115.547 347.89 125.816C348.952 136.085 349.886 144.343 349.992 144.335Z" fill="#263238"/>
<path d="M335.881 109.106C338.469 109.367 341.076 109.367 343.664 109.106C341.076 108.844 338.469 108.844 335.881 109.106Z" fill="#263238"/>
<path d="M302.761 109.106C302.761 109.211 309.7 109.301 318.266 109.301C326.832 109.301 333.764 109.211 333.764 109.106C333.764 109 326.825 108.91 318.266 108.91C309.707 108.91 302.761 109 302.761 109.106Z" fill="#FF725E"/>
<path d="M336.792 128.732C339.382 128.993 341.992 128.993 344.583 128.732C341.992 128.471 339.382 128.471 336.792 128.732Z" fill="#263238"/>
<path d="M303.68 128.732C303.68 128.845 310.619 128.928 319.177 128.928C327.736 128.928 334.683 128.845 334.683 128.732C334.683 128.619 327.744 128.536 319.177 128.536C310.611 128.536 303.68 128.627 303.68 128.732Z" fill="#FF725E"/>
<path d="M314.243 137.78C314.243 137.886 321.182 137.976 329.74 137.976C338.299 137.976 345.246 137.886 345.246 137.78C345.246 137.675 338.307 137.584 329.74 137.584C321.174 137.584 314.243 137.675 314.243 137.78Z" fill="#FF725E"/>
<path d="M332.415 114.643C334.233 114.846 336.064 114.914 337.892 114.846C339.721 114.914 341.551 114.846 343.37 114.643C341.551 114.449 339.72 114.384 337.892 114.447C336.064 114.384 334.234 114.449 332.415 114.643Z" fill="#FF725E"/>
<path d="M332.724 122.773C334.543 122.966 336.373 123.032 338.201 122.968C340.029 123.032 341.859 122.966 343.678 122.773C341.86 122.574 340.029 122.509 338.201 122.577C336.373 122.509 334.542 122.574 332.724 122.773Z" fill="#FF725E"/>
<path d="M323.464 134.383C325.283 134.576 327.114 134.642 328.942 134.578C330.77 134.642 332.6 134.577 334.419 134.383C332.6 134.184 330.77 134.119 328.942 134.187C327.114 134.119 325.283 134.184 323.464 134.383Z" fill="#FF725E"/>
<path d="M292.612 114.643C292.612 114.756 298.873 114.847 306.596 114.847C314.318 114.847 320.586 114.756 320.586 114.643C320.586 114.53 314.326 114.447 306.596 114.447C298.866 114.447 292.612 114.538 292.612 114.643Z" fill="#263238"/>
<path d="M301.247 123.24C301.247 123.353 307.507 123.436 315.23 123.436C322.952 123.436 329.221 123.353 329.221 123.24C329.221 123.127 322.96 123.044 315.23 123.044C307.5 123.044 301.247 123.134 301.247 123.24Z" fill="#263238"/>
<path d="M291.618 134.382C291.618 134.488 297.879 134.578 305.601 134.578C313.324 134.578 319.607 134.48 319.607 134.382C319.607 134.284 313.346 134.187 305.616 134.187C297.886 134.187 291.618 134.269 291.618 134.382Z" fill="#263238"/>
<path d="M317.159 144.335C317.159 144.441 323.427 144.531 331.149 144.531C338.872 144.531 345.14 144.441 345.14 144.335C345.14 144.23 338.872 144.139 331.149 144.139C323.427 144.139 317.159 144.222 317.159 144.335Z" fill="#263238"/>
<path d="M286.224 144.335C286.224 144.441 292.485 144.531 300.207 144.531C307.929 144.531 314.198 144.441 314.198 144.335C314.198 144.23 307.937 144.139 300.207 144.139C292.477 144.139 286.224 144.222 286.224 144.335Z" fill="#263238"/>
<path d="M317.166 147.567C317.166 147.68 323.427 147.763 331.149 147.763C338.872 147.763 345.14 147.68 345.14 147.567C345.14 147.454 338.879 147.371 331.149 147.371C323.419 147.371 317.166 147.461 317.166 147.567Z" fill="#263238"/>
<path d="M315.802 116.979C315.802 117.084 322.063 117.174 329.786 117.174C337.508 117.174 343.776 117.084 343.776 116.979C343.776 116.873 337.516 116.783 329.786 116.783C322.056 116.783 315.802 116.873 315.802 116.979Z" fill="#263238"/>
<path d="M323.261 114.681C325.657 114.942 328.075 114.942 330.471 114.681C328.075 114.41 325.657 114.41 323.261 114.681Z" fill="#455A64"/>
<path d="M337.689 131.399C340.083 131.66 342.498 131.66 344.892 131.399C342.498 131.138 340.083 131.138 337.689 131.399Z" fill="#455A64"/>
<path d="M337.885 134.382C340.279 134.644 342.694 134.644 345.087 134.382C342.694 134.121 340.279 134.121 337.885 134.382Z" fill="#455A64"/>
<path d="M275.45 104.216C275.45 104.322 292.883 104.412 314.393 104.412C335.903 104.412 353.337 104.322 353.337 104.216C353.337 104.111 335.903 104.013 314.393 104.013C292.883 104.013 275.45 104.103 275.45 104.216Z" fill="#263238"/>
<path d="M347.159 101.579C347.159 101.763 347.214 101.942 347.316 102.095C347.418 102.247 347.563 102.366 347.733 102.436C347.903 102.506 348.09 102.524 348.27 102.487C348.45 102.451 348.615 102.362 348.744 102.232C348.873 102.101 348.961 101.935 348.996 101.755C349.031 101.575 349.011 101.388 348.94 101.219C348.869 101.05 348.749 100.906 348.595 100.805C348.442 100.704 348.262 100.651 348.078 100.652C347.957 100.652 347.837 100.676 347.725 100.723C347.613 100.77 347.511 100.838 347.426 100.924C347.34 101.01 347.273 101.113 347.227 101.225C347.181 101.337 347.158 101.458 347.159 101.579Z" fill="white"/>
<path d="M343.196 101.579C343.196 101.763 343.251 101.942 343.353 102.095C343.455 102.247 343.6 102.366 343.77 102.436C343.94 102.506 344.127 102.524 344.307 102.487C344.487 102.451 344.652 102.362 344.781 102.232C344.91 102.101 344.998 101.935 345.033 101.755C345.068 101.575 345.048 101.388 344.977 101.219C344.906 101.05 344.786 100.906 344.632 100.805C344.479 100.704 344.299 100.651 344.116 100.652C343.994 100.652 343.874 100.676 343.762 100.723C343.65 100.77 343.548 100.838 343.463 100.924C343.378 101.01 343.31 101.113 343.264 101.225C343.218 101.337 343.195 101.458 343.196 101.579Z" fill="white"/>
<path d="M339.195 101.579C339.195 101.763 339.25 101.942 339.352 102.095C339.454 102.247 339.599 102.366 339.769 102.436C339.939 102.506 340.126 102.524 340.306 102.487C340.486 102.451 340.651 102.362 340.78 102.232C340.909 102.101 340.997 101.935 341.032 101.755C341.067 101.575 341.047 101.388 340.976 101.219C340.905 101.05 340.785 100.906 340.631 100.805C340.478 100.704 340.298 100.651 340.115 100.652C339.993 100.652 339.873 100.676 339.761 100.723C339.649 100.77 339.547 100.838 339.462 100.924C339.377 101.01 339.309 101.113 339.263 101.225C339.217 101.337 339.194 101.458 339.195 101.579Z" fill="white"/>
<path d="M163.749 158.047H251.642L245.148 95.4312H156.502L163.749 158.047Z" fill="#263238"/>
<path d="M168.225 158.047H256.117L249.615 95.4312H160.977L168.225 158.047Z" fill="#455A64"/>
<path d="M171.479 155.207H253.036L247.008 97.1113H164.759L171.479 155.207Z" fill="#EBEBEB"/>
<path d="M244.153 144.644C244.258 144.644 243.445 135.889 242.337 125.123C241.23 114.357 240.235 105.632 240.13 105.647C240.024 105.663 240.838 114.395 241.945 125.168C243.053 135.942 244.047 144.651 244.153 144.644Z" fill="#263238"/>
<path d="M229.304 107.591C232.027 107.852 234.77 107.852 237.493 107.591C234.77 107.32 232.027 107.32 229.304 107.591Z" fill="#263238"/>
<path d="M194.466 107.591C194.466 107.697 201.767 107.787 210.777 107.787C219.788 107.787 227.081 107.697 227.081 107.591C227.081 107.486 219.781 107.388 210.777 107.388C201.774 107.388 194.466 107.478 194.466 107.591Z" fill="#FF725E"/>
<path d="M230.268 128.235C232.992 128.496 235.734 128.496 238.458 128.235C235.734 127.974 232.992 127.974 230.268 128.235Z" fill="#263238"/>
<path d="M195.43 128.235C195.43 128.34 202.738 128.431 211.742 128.431C220.745 128.431 228.045 128.34 228.045 128.235C228.045 128.129 220.745 128.039 211.742 128.039C202.738 128.039 195.43 128.129 195.43 128.235Z" fill="#FF725E"/>
<path d="M206.543 137.75C206.543 137.863 213.844 137.946 222.847 137.946C231.85 137.946 239.158 137.863 239.158 137.75C239.158 137.637 231.858 137.554 222.847 137.554C213.836 137.554 206.543 137.645 206.543 137.75Z" fill="#FF725E"/>
<path d="M225.695 113.385C229.53 113.646 233.379 113.646 237.214 113.385C233.379 113.124 229.53 113.124 225.695 113.385Z" fill="#FF725E"/>
<path d="M225.989 121.959C229.824 122.23 233.673 122.23 237.508 121.959C233.673 121.697 229.824 121.697 225.989 121.959Z" fill="#FF725E"/>
<path d="M216.247 134.179C220.082 134.44 223.931 134.44 227.767 134.179C223.931 133.918 220.082 133.918 216.247 134.179Z" fill="#FF725E"/>
<path d="M183.79 113.385C183.79 113.498 190.375 113.581 198.504 113.581C206.633 113.581 213.218 113.498 213.218 113.385C213.218 113.272 206.633 113.189 198.504 113.189C190.375 113.189 183.79 113.31 183.79 113.385Z" fill="#263238"/>
<path d="M192.869 122.426C192.869 122.539 199.461 122.622 207.583 122.622C215.705 122.622 222.297 122.539 222.297 122.426C222.297 122.313 215.712 122.23 207.583 122.23C199.454 122.23 192.869 122.351 192.869 122.426Z" fill="#263238"/>
<path d="M182.743 134.179C182.743 134.285 189.335 134.375 197.457 134.375C205.579 134.375 212.171 134.285 212.171 134.179C212.171 134.074 205.586 133.983 197.457 133.983C189.328 133.983 182.743 134.066 182.743 134.179Z" fill="#263238"/>
<path d="M209.609 144.644C209.609 144.75 216.194 144.84 224.324 144.84C232.453 144.84 239.038 144.75 239.038 144.644C239.038 144.539 232.445 144.448 224.324 144.448C216.202 144.448 209.609 144.539 209.609 144.644Z" fill="#263238"/>
<path d="M177.069 144.644C177.069 144.75 183.662 144.84 191.783 144.84C199.905 144.84 206.498 144.75 206.498 144.644C206.498 144.539 199.913 144.448 191.783 144.448C183.654 144.448 177.069 144.539 177.069 144.644Z" fill="#263238"/>
<path d="M209.609 148.042C209.609 148.147 216.194 148.237 224.324 148.237C232.453 148.237 239.038 148.147 239.038 148.042C239.038 147.936 232.453 147.846 224.324 147.846C216.194 147.846 209.609 147.944 209.609 148.042Z" fill="#263238"/>
<path d="M208.186 115.871C208.186 115.977 214.77 116.067 222.9 116.067C231.029 116.067 237.614 115.977 237.614 115.871C237.614 115.766 231.029 115.675 222.9 115.675C214.77 115.675 208.186 115.766 208.186 115.871Z" fill="#263238"/>
<path d="M216.036 113.445C218.556 113.707 221.096 113.707 223.615 113.445C221.096 113.184 218.556 113.184 216.036 113.445Z" fill="#455A64"/>
<path d="M231.232 131.037C233.752 131.298 236.292 131.298 238.812 131.037C236.292 130.776 233.752 130.776 231.232 131.037Z" fill="#455A64"/>
<path d="M231.413 134.179C233.933 134.44 236.473 134.44 238.992 134.179C236.473 133.918 233.933 133.918 231.413 134.179Z" fill="#455A64"/>
<path d="M165.738 102.438C165.738 102.551 184.076 102.634 206.701 102.634C229.326 102.634 247.664 102.551 247.664 102.438C247.664 102.325 229.326 102.242 206.701 102.242C184.076 102.242 165.738 102.333 165.738 102.438Z" fill="#263238"/>
<path d="M241.169 99.6731C241.169 99.8653 241.226 100.053 241.333 100.213C241.44 100.373 241.592 100.497 241.769 100.571C241.947 100.645 242.142 100.664 242.331 100.626C242.52 100.589 242.693 100.496 242.829 100.36C242.965 100.224 243.057 100.051 243.095 99.8627C243.132 99.6742 243.113 99.4788 243.039 99.3012C242.966 99.1236 242.841 98.9718 242.681 98.865C242.522 98.7582 242.334 98.7012 242.141 98.7012C242.013 98.7002 241.887 98.7247 241.768 98.7731C241.65 98.8216 241.542 98.8932 241.452 98.9836C241.361 99.0741 241.29 99.1816 241.241 99.3C241.193 99.4184 241.168 99.5452 241.169 99.6731Z" fill="white"/>
<path d="M237.003 99.6731C237.003 99.8653 237.06 100.053 237.167 100.213C237.274 100.373 237.426 100.497 237.603 100.571C237.781 100.645 237.976 100.664 238.165 100.626C238.354 100.589 238.527 100.496 238.663 100.36C238.799 100.224 238.891 100.051 238.929 99.8627C238.966 99.6742 238.947 99.4788 238.873 99.3012C238.8 99.1236 238.675 98.9718 238.515 98.865C238.356 98.7582 238.168 98.7012 237.975 98.7012C237.847 98.7002 237.721 98.7247 237.602 98.7731C237.484 98.8216 237.376 98.8932 237.286 98.9836C237.195 99.0741 237.124 99.1816 237.075 99.3C237.027 99.4184 237.002 99.5452 237.003 99.6731Z" fill="white"/>
<path d="M232.829 99.6731C232.829 99.8653 232.886 100.053 232.993 100.213C233.1 100.373 233.252 100.497 233.429 100.571C233.607 100.645 233.802 100.664 233.991 100.626C234.179 100.589 234.352 100.496 234.488 100.36C234.624 100.224 234.717 100.051 234.754 99.8627C234.792 99.6742 234.773 99.4788 234.699 99.3012C234.625 99.1236 234.501 98.9718 234.341 98.865C234.181 98.7582 233.993 98.7012 233.801 98.7012C233.673 98.7002 233.546 98.7247 233.428 98.7731C233.31 98.8216 233.202 98.8932 233.112 98.9836C233.021 99.0741 232.95 99.1816 232.901 99.3C232.853 99.4184 232.828 99.5452 232.829 99.6731Z" fill="white"/>
<path d="M213.896 83.9267H297.833L291.625 24.1362H206.98L213.896 83.9267Z" fill="#263238"/>
<path d="M218.168 83.9267H302.105L295.897 24.1362H211.252L218.168 83.9267Z" fill="#455A64"/>
<path d="M221.287 81.2222H299.167L293.411 25.7412H214.868L221.287 81.2222Z" fill="#FAFAFA"/>
<path d="M290.608 71.9476C290.714 71.9476 289.938 63.5847 288.875 53.3082C287.813 43.0317 286.871 34.6915 286.758 34.7066C286.645 34.7216 287.429 43.0619 288.491 53.3459C289.553 63.6299 290.495 71.9476 290.608 71.9476Z" fill="#263238"/>
<path d="M276.422 36.5372C279.022 36.7984 281.642 36.7984 284.242 36.5372C281.642 36.276 279.022 36.276 276.422 36.5372Z" fill="#263238"/>
<path d="M243.159 36.5372C243.159 36.6427 250.128 36.7331 258.732 36.7331C267.336 36.7331 274.305 36.6427 274.305 36.5372C274.305 36.4317 267.336 36.3413 258.732 36.3413C250.128 36.3413 243.159 36.4091 243.159 36.5372Z" fill="#FF725E"/>
<path d="M277.348 56.2389C279.948 56.5 282.568 56.5 285.168 56.2389C282.568 55.9777 279.948 55.9777 277.348 56.2389Z" fill="#263238"/>
<path d="M244.078 56.2389C244.078 56.3443 251.054 56.4347 259.651 56.4347C268.247 56.4347 275.224 56.3443 275.224 56.2389C275.224 56.1334 268.255 56.043 259.651 56.043C251.047 56.043 244.078 56.1258 244.078 56.2389Z" fill="#FF725E"/>
<path d="M254.686 65.3253C254.686 65.4308 261.662 65.5212 270.259 65.5212C278.855 65.5212 285.832 65.4308 285.832 65.3253C285.832 65.2198 278.863 65.1294 270.259 65.1294C261.655 65.1294 254.686 65.2198 254.686 65.3253Z" fill="#FF725E"/>
<path d="M272.979 42.0899C276.641 42.3511 280.317 42.3511 283.979 42.0899C280.317 41.8287 276.641 41.8287 272.979 42.0899Z" fill="#FF725E"/>
<path d="M273.257 50.2496C276.919 50.5108 280.595 50.5108 284.257 50.2496C280.595 49.9884 276.919 49.9884 273.257 50.2496Z" fill="#FF725E"/>
<path d="M263.96 61.9122C267.622 62.1734 271.298 62.1734 274.96 61.9122C271.298 61.651 267.622 61.651 263.96 61.9122Z" fill="#FF725E"/>
<path d="M232.965 42.0899C232.965 42.1954 239.256 42.2858 247.016 42.2858C254.776 42.2858 261.067 42.1954 261.067 42.0899C261.067 41.9845 254.784 41.894 247.016 41.894C239.249 41.894 232.965 41.9769 232.965 42.0899Z" fill="#263238"/>
<path d="M241.637 50.7242C241.637 50.8297 247.928 50.9201 255.688 50.9201C263.448 50.9201 269.739 50.8297 269.739 50.7242C269.739 50.6187 263.448 50.5283 255.688 50.5283C247.928 50.5283 241.637 50.6112 241.637 50.7242Z" fill="#263238"/>
<path d="M231.963 61.9122C231.963 62.0177 238.254 62.1081 246.014 62.1081C253.774 62.1081 260.065 62.0177 260.065 61.9122C260.065 61.8067 253.774 61.7163 246.014 61.7163C238.254 61.7163 231.963 61.7992 231.963 61.9122Z" fill="#263238"/>
<path d="M257.624 71.9473C257.624 72.0528 263.915 72.1432 271.675 72.1432C279.435 72.1432 285.704 72.0152 285.704 71.9473C285.704 71.8795 279.413 71.7515 271.653 71.7515C263.892 71.7515 257.624 71.7967 257.624 71.9473Z" fill="#263238"/>
<path d="M226.546 71.9473C226.546 72.0528 232.837 72.1432 240.597 72.1432C248.357 72.1432 254.648 72.0528 254.648 71.9473C254.648 71.8419 248.357 71.7515 240.597 71.7515C232.837 71.7515 226.546 71.7967 226.546 71.9473Z" fill="#263238"/>
<path d="M257.624 75.1568C257.624 75.2698 263.915 75.3527 271.675 75.3527C279.435 75.3527 285.726 75.2698 285.726 75.1568C285.726 75.0438 279.435 74.9609 271.675 74.9609C263.915 74.9609 257.624 75.0513 257.624 75.1568Z" fill="#263238"/>
<path d="M256.26 44.4332C256.26 44.5387 262.551 44.6291 270.311 44.6291C278.071 44.6291 284.362 44.5387 284.362 44.4332C284.362 44.3277 278.071 44.2373 270.311 44.2373C262.551 44.2373 256.26 44.3202 256.26 44.4332Z" fill="#263238"/>
<path d="M263.749 42.1202C266.156 42.3814 268.583 42.3814 270.99 42.1202C268.583 41.859 266.156 41.859 263.749 42.1202Z" fill="#455A64"/>
<path d="M278.268 58.9137C280.674 59.1748 283.101 59.1748 285.508 58.9137C283.101 58.6525 280.674 58.6525 278.268 58.9137Z" fill="#455A64"/>
<path d="M278.433 61.9122C280.839 62.1734 283.267 62.1734 285.673 61.9122C283.267 61.651 280.839 61.651 278.433 61.9122Z" fill="#455A64"/>
<path d="M215.727 31.6026C215.727 31.7156 233.236 31.806 254.837 31.806C276.437 31.806 293.991 31.7156 293.991 31.6026C293.991 31.4896 276.482 31.4067 254.867 31.4067C233.251 31.4067 215.727 31.4971 215.727 31.6026Z" fill="#263238"/>
<path d="M288.68 29.8846C288.168 29.8846 287.753 29.4697 287.753 28.9579C287.753 28.4461 288.168 28.0312 288.68 28.0312C289.192 28.0312 289.606 28.4461 289.606 28.9579C289.606 29.4697 289.192 29.8846 288.68 29.8846Z" fill="white"/>
<path d="M284.702 29.8846C284.19 29.8846 283.775 29.4697 283.775 28.9579C283.775 28.4461 284.19 28.0312 284.702 28.0312C285.214 28.0312 285.628 28.4461 285.628 28.9579C285.628 29.4697 285.214 29.8846 284.702 29.8846Z" fill="white"/>
<path d="M280.724 29.8846C280.212 29.8846 279.797 29.4697 279.797 28.9579C279.797 28.4461 280.212 28.0312 280.724 28.0312C281.236 28.0312 281.65 28.4461 281.65 28.9579C281.65 29.4697 281.236 29.8846 280.724 29.8846Z" fill="white"/>
<path d="M356.087 309.791H362.626V318.711H356.087V309.791Z" fill="#263238"/>
<path d="M321.031 205.7H263.011V202.875H321.031V205.7Z" fill="#263238"/>
<path d="M254.023 205.7L243.136 164.918H288.446L298.301 205.7H254.023Z" fill="#263238"/>
<path d="M295.581 202.619H255.107L245.69 166.802H286.374L295.581 202.619Z" fill="#F5F5F5"/>
<path d="M285.365 173.741L287.874 183.882H261.037L258.174 173.741H285.365Z" fill="#E0E0E0"/>
<path d="M263.855 172.399C263.855 172.512 268.556 172.595 274.365 172.595C280.174 172.595 284.875 172.512 284.875 172.399C284.875 172.286 280.174 172.204 274.365 172.204C268.556 172.204 263.855 172.294 263.855 172.399Z" fill="#455A64"/>
<path d="M276.068 175.677C278.887 175.938 281.724 175.938 284.543 175.677C281.724 175.416 278.887 175.416 276.068 175.677Z" fill="#263238"/>
<path d="M269.272 175.519C271.101 175.78 272.958 175.78 274.787 175.519C272.958 175.257 271.101 175.257 269.272 175.519Z" fill="#263238"/>
<path d="M261.594 177.515C261.594 177.628 266.785 177.719 273.189 177.719C279.593 177.719 284.784 177.628 284.784 177.515C284.784 177.402 279.593 177.319 273.189 177.319C266.785 177.319 261.594 177.425 261.594 177.515Z" fill="#455A64"/>
<path d="M277.748 179.196C280.252 179.458 282.777 179.458 285.282 179.196C282.777 178.933 280.252 178.933 277.748 179.196Z" fill="#FF725E"/>
<path d="M263.674 181.599C263.674 181.704 268.488 181.795 274.425 181.795C280.362 181.795 285.184 181.704 285.184 181.599C285.184 181.493 280.369 181.403 274.425 181.403C268.481 181.403 263.674 181.486 263.674 181.599Z" fill="#455A64"/>
<path d="M279.503 186.79C282.259 187.049 285.034 187.049 287.791 186.79C285.034 186.53 282.259 186.53 279.503 186.79Z" fill="#455A64"/>
<path d="M272.391 186.827C273.326 187.01 274.281 187.068 275.231 187.001C276.181 187.059 277.135 186.983 278.064 186.775C277.129 186.592 276.174 186.534 275.224 186.601C274.273 186.543 273.32 186.619 272.391 186.827Z" fill="#263238"/>
<path d="M268.375 186.631C268.375 186.744 268.917 186.827 269.58 186.827C270.243 186.827 270.778 186.744 270.778 186.631C270.778 186.518 270.236 186.436 269.58 186.436C268.925 186.436 268.375 186.526 268.375 186.631Z" fill="#263238"/>
<path d="M285.018 188.869C285.018 188.982 285.613 189.065 286.344 189.065C287.075 189.065 287.663 188.982 287.663 188.869C287.663 188.756 287.067 188.673 286.344 188.673C285.621 188.673 285.018 188.764 285.018 188.869Z" fill="#FF725E"/>
<path d="M277.107 188.869C279.204 189.13 281.324 189.13 283.421 188.869C281.324 188.608 279.204 188.608 277.107 188.869Z" fill="#263238"/>
<path d="M258.242 188.628C258.242 188.741 262.009 188.824 266.673 188.824C271.336 188.824 275.111 188.741 275.111 188.628C275.111 188.515 271.344 188.432 266.673 188.432C262.002 188.432 258.242 188.523 258.242 188.628Z" fill="#455A64"/>
<path d="M285.425 191.031C285.425 191.137 286.028 191.227 286.781 191.227C287.534 191.227 288.137 191.137 288.137 191.031C288.137 190.926 287.534 190.835 286.781 190.835C286.028 190.835 285.425 190.918 285.425 191.031Z" fill="#263238"/>
<path d="M281.266 190.986C281.788 191.181 282.348 191.248 282.901 191.182C283.456 191.247 284.019 191.18 284.543 190.986C284.018 190.797 283.456 190.73 282.901 190.79C282.348 190.729 281.789 190.796 281.266 190.986Z" fill="#263238"/>
<path d="M268.872 190.79C272.411 191.051 275.964 191.051 279.503 190.79C275.964 190.529 272.411 190.529 268.872 190.79Z" fill="#455A64"/>
<path d="M275.427 194.55C277.566 194.744 279.715 194.809 281.861 194.746C284.008 194.81 286.157 194.744 288.295 194.55C286.157 194.352 284.008 194.286 281.861 194.354C279.715 194.286 277.566 194.352 275.427 194.55Z" fill="#455A64"/>
<path d="M267.916 194.384C269.851 194.645 271.812 194.645 273.747 194.384C271.812 194.123 269.851 194.123 267.916 194.384Z" fill="#FF725E"/>
<path d="M256.758 194.384C259.977 194.645 263.212 194.645 266.432 194.384C263.212 194.123 259.977 194.123 256.758 194.384Z" fill="#263238"/>
<path d="M259.334 172.241C259.334 172.354 259.786 172.437 260.336 172.437C260.886 172.437 261.338 172.354 261.338 172.241C261.338 172.128 260.886 172.045 260.336 172.045C259.786 172.045 259.334 172.151 259.334 172.241Z" fill="#263238"/>
<path d="M279.744 170.885C281.199 171.146 282.689 171.146 284.144 170.885C282.689 170.624 281.199 170.624 279.744 170.885Z" fill="#FF725E"/>
<path d="M246.368 169.378H287.052L286.367 166.802H245.683L246.368 169.378Z" fill="#EBEBEB"/>
<path d="M284.657 168.55C284.411 168.55 284.212 168.351 284.212 168.105C284.212 167.86 284.411 167.661 284.657 167.661C284.902 167.661 285.101 167.86 285.101 168.105C285.101 168.351 284.902 168.55 284.657 168.55Z" fill="#FAFAFA"/>
<path d="M283.127 168.55C282.881 168.55 282.682 168.351 282.682 168.105C282.682 167.86 282.881 167.661 283.127 167.661C283.372 167.661 283.571 167.86 283.571 168.105C283.571 168.351 283.372 168.55 283.127 168.55Z" fill="#FAFAFA"/>
<path d="M281.597 168.55C281.352 168.55 281.153 168.351 281.153 168.105C281.153 167.86 281.352 167.661 281.597 167.661C281.843 167.661 282.042 167.86 282.042 168.105C282.042 168.351 281.843 168.55 281.597 168.55Z" fill="#FAFAFA"/>
<path d="M196.787 209.498H293.253V265.785H196.787V209.498Z" fill="#263238"/>
<path d="M249.307 209.498H293.253V265.785H249.307V209.498Z" fill="#455A64"/>
<path d="M253.782 228.611C253.793 228.516 253.793 228.42 253.782 228.325V227.504C253.782 226.75 253.782 225.718 253.819 224.377C253.819 221.657 253.865 217.77 253.895 212.978L253.752 213.121L289.102 213.174L288.906 212.978V217.039C288.906 218.38 288.906 219.714 288.906 221.017C288.906 223.631 288.906 226.17 288.906 228.596L289.087 228.416L263.764 228.498L256.411 228.551H254.437H253.917H253.737H253.895H254.392H256.328L263.644 228.596L289.087 228.687H289.275V228.498C289.275 226.072 289.275 223.533 289.275 220.919V212.993L289.079 212.797L253.729 212.85H253.586V212.993C253.624 217.823 253.646 221.74 253.669 224.475C253.669 225.801 253.669 226.841 253.669 227.572V228.37C253.774 228.529 253.782 228.657 253.782 228.611Z" fill="#263238"/>
<path d="M269.957 220.799C270.056 220.371 270.294 219.989 270.635 219.714C270.819 219.586 271.03 219.504 271.252 219.476C271.474 219.449 271.7 219.476 271.909 219.556C272.16 219.652 272.377 219.823 272.53 220.045C272.683 220.266 272.766 220.529 272.768 220.799C272.764 221.068 272.68 221.33 272.527 221.551C272.374 221.772 272.159 221.943 271.909 222.042C271.699 222.118 271.473 222.143 271.252 222.114C271.03 222.085 270.819 222.004 270.635 221.876C270.297 221.598 270.059 221.217 269.957 220.791C269.957 220.791 269.89 220.927 269.957 221.175C270.018 221.537 270.208 221.863 270.492 222.094C270.708 222.271 270.965 222.389 271.24 222.437C271.514 222.486 271.796 222.464 272.059 222.373C272.389 222.26 272.675 222.047 272.878 221.763C273.081 221.48 273.189 221.14 273.189 220.791C273.189 220.442 273.081 220.103 272.878 219.819C272.675 219.535 272.389 219.322 272.059 219.209C271.797 219.117 271.515 219.094 271.241 219.141C270.966 219.189 270.709 219.305 270.492 219.48C270.208 219.711 270.018 220.038 269.957 220.399C269.882 220.663 269.935 220.799 269.957 220.799Z" fill="#263238"/>
<path d="M253.782 245.827C253.792 245.729 253.792 245.631 253.782 245.533V244.712C253.782 243.958 253.782 242.926 253.819 241.585C253.819 238.873 253.865 234.985 253.895 230.186L253.752 230.329L289.102 230.389L288.906 230.194V234.254C288.906 235.603 288.906 236.929 288.906 238.24C288.906 240.854 288.906 243.393 288.906 245.819L289.086 245.631L263.764 245.721L256.411 245.774H254.437H253.917H253.737H253.895H254.392H256.328L263.644 245.827L289.086 245.917H289.275V245.729C289.275 243.303 289.275 240.764 289.275 238.15V230.201C289.32 230.201 288.906 229.824 289.079 229.998L253.729 230.058H253.586V230.163C253.624 235 253.646 238.918 253.669 241.653C253.669 242.979 253.669 244.011 253.669 244.749V245.541C253.774 245.744 253.782 245.834 253.782 245.827Z" fill="#263238"/>
<path d="M269.957 238.006C270.063 237.589 270.301 237.216 270.635 236.944C270.836 236.801 271.072 236.715 271.318 236.697C271.564 236.678 271.811 236.728 272.031 236.84C272.25 236.952 272.435 237.122 272.565 237.331C272.695 237.541 272.765 237.782 272.768 238.029C272.766 238.299 272.683 238.561 272.53 238.783C272.377 239.005 272.16 239.175 271.909 239.272C271.7 239.352 271.474 239.379 271.252 239.351C271.03 239.324 270.819 239.242 270.635 239.114C270.296 238.837 270.057 238.456 269.957 238.029C269.957 238.029 269.89 238.165 269.957 238.413C270.018 238.775 270.208 239.101 270.492 239.332C270.708 239.509 270.965 239.627 271.24 239.675C271.514 239.724 271.796 239.702 272.059 239.611C272.389 239.498 272.675 239.285 272.878 239.001C273.081 238.718 273.189 238.378 273.189 238.029C273.189 237.68 273.081 237.341 272.878 237.057C272.675 236.773 272.389 236.56 272.059 236.447C271.796 236.356 271.514 236.334 271.24 236.383C270.965 236.431 270.708 236.55 270.492 236.726C270.208 236.957 270.018 237.284 269.957 237.645C269.882 237.871 269.935 238.006 269.957 238.006Z" fill="#263238"/>
<path d="M253.782 263.035C253.793 262.94 253.793 262.844 253.782 262.748V261.927C253.782 261.174 253.782 260.142 253.819 258.801C253.819 256.081 253.865 252.193 253.895 247.402L253.752 247.545L289.102 247.597L288.906 247.402V251.462C288.906 252.803 288.906 254.137 288.906 255.44C288.906 258.055 288.906 260.594 288.906 263.02L289.087 262.839L263.764 262.922L256.411 262.974H254.437H253.917H253.737H253.895H254.392H256.328L263.644 263.02L289.087 263.11H289.275V262.922C289.275 260.496 289.275 257.957 289.275 255.342V247.417L289.079 247.221L253.729 247.273H253.586V247.417C253.624 252.246 253.646 256.164 253.669 258.899C253.669 260.225 253.669 261.264 253.669 261.995V262.794C253.774 262.952 253.782 263.042 253.782 263.035Z" fill="#263238"/>
<path d="M269.957 255.222C270.056 254.794 270.294 254.412 270.635 254.137C270.819 254.009 271.03 253.927 271.252 253.9C271.474 253.872 271.7 253.899 271.909 253.979C272.16 254.076 272.377 254.246 272.53 254.468C272.683 254.689 272.766 254.952 272.768 255.222C272.765 255.468 272.695 255.71 272.565 255.919C272.435 256.129 272.25 256.299 272.031 256.411C271.811 256.523 271.564 256.572 271.318 256.554C271.072 256.536 270.836 256.45 270.635 256.307C270.297 256.029 270.059 255.648 269.957 255.222C269.957 255.222 269.89 255.357 269.957 255.606C270.018 255.967 270.208 256.294 270.492 256.525C270.708 256.701 270.965 256.819 271.24 256.868C271.514 256.917 271.796 256.895 272.059 256.804C272.389 256.691 272.675 256.478 272.878 256.194C273.081 255.91 273.189 255.57 273.189 255.222C273.189 254.873 273.081 254.533 272.878 254.25C272.675 253.966 272.389 253.753 272.059 253.64C271.797 253.548 271.515 253.524 271.241 253.572C270.966 253.619 270.709 253.736 270.492 253.911C270.208 254.142 270.018 254.469 269.957 254.83C269.882 255.086 269.935 255.222 269.957 255.222Z" fill="#263238"/>
<path d="M357.496 311.599L421.965 311.547V209.498H357.496V311.599Z" fill="#263238"/>
<path d="M193.283 205.572H425.077V210.921H193.283V205.572Z" fill="#263238"/>
<path d="M414.777 210.921H421.965V319.186H414.777V210.921Z" fill="#263238"/>
<path d="M196.786 210.921H203.974V319.216H196.786V210.921Z" fill="#263238"/>
<path d="M242.119 210.921H249.307V319.216H242.119V210.921Z" fill="#263238"/>
<path d="M392.484 205.572C392.484 205.678 399.393 205.768 407.914 205.768C416.435 205.768 423.344 205.678 423.344 205.572C423.344 205.467 416.435 205.376 407.914 205.376C399.393 205.376 392.484 205.459 392.484 205.572Z" fill="#455A64"/>
<path d="M324.708 313.912L324.527 306.175L339.03 305.738L339.414 317.039L338.518 317.122C334.524 317.468 318.175 318.583 315.486 317.875C312.472 317.062 324.708 313.912 324.708 313.912Z" fill="#FF725E"/>
<g opacity="0.4">
<path d="M318.741 315.668C318.741 315.668 314.454 317.039 315.019 317.74C315.584 318.441 332.136 317.921 339.414 317.062V316.738L320.104 317.491C320.104 317.491 319.607 315.676 318.741 315.668Z" fill="white"/>
</g>
<path d="M339.61 316.723H339.361L338.608 316.79L335.978 316.986C333.756 317.137 330.705 317.295 327.284 317.408C323.864 317.521 320.805 317.544 318.575 317.536C320.797 317.536 323.849 317.461 327.277 317.356C330.705 317.25 333.748 317.107 335.971 316.986L338.608 316.851H339.361L339.61 316.723Z" fill="#263238"/>
<path d="M320.089 317.717C319.96 317.283 319.781 316.866 319.554 316.474C319.282 316.115 318.971 315.787 318.628 315.495C319.067 315.674 319.442 315.983 319.703 316.379C319.964 316.776 320.099 317.242 320.089 317.717Z" fill="#263238"/>
<path d="M324.301 315.419C324.263 315.419 324.045 315.201 323.826 314.877C323.608 314.553 323.457 314.259 323.495 314.236C323.532 314.214 323.751 314.447 323.969 314.779C324.188 315.11 324.339 315.389 324.301 315.419Z" fill="#263238"/>
<path d="M325.453 314.764C325.453 314.764 325.19 314.651 324.933 314.432C324.677 314.214 324.496 314.01 324.527 313.973C324.557 313.935 324.79 314.086 325.046 314.304C325.303 314.523 325.483 314.726 325.453 314.764Z" fill="#263238"/>
<path d="M326.154 313.37C325.914 313.462 325.658 313.503 325.401 313.491C325.148 313.529 324.891 313.508 324.647 313.43C324.888 313.339 325.144 313.298 325.401 313.31C325.815 313.295 326.154 313.317 326.154 313.37Z" fill="#263238"/>
<path d="M326.388 312.398C326.141 312.567 325.851 312.662 325.551 312.669C325.258 312.727 324.953 312.695 324.677 312.579C324.96 312.521 325.248 312.493 325.536 312.496C325.816 312.432 326.101 312.399 326.388 312.398Z" fill="#263238"/>
<path d="M323.766 314.169C323.459 314.221 323.146 314.221 322.839 314.169C322.5 314.135 322.165 314.072 321.837 313.98C321.639 313.928 321.447 313.855 321.264 313.762C321.151 313.703 321.065 313.603 321.023 313.483C321.005 313.415 321.008 313.342 321.031 313.275C321.054 313.208 321.095 313.15 321.151 313.106C321.502 312.921 321.905 312.862 322.294 312.941C322.683 313.019 323.032 313.229 323.283 313.536C323.432 313.718 323.542 313.928 323.607 314.154C323.624 314.236 323.624 314.32 323.607 314.402C323.5 314.128 323.347 313.873 323.155 313.649C322.94 313.411 322.66 313.24 322.349 313.159C321.978 313.05 321.579 313.087 321.234 313.264C321.091 313.377 321.159 313.551 321.325 313.649C321.494 313.732 321.67 313.8 321.852 313.852C322.17 313.951 322.495 314.026 322.824 314.078C323.374 314.146 323.766 314.138 323.766 314.169Z" fill="#263238"/>
<path d="M323.532 314.221C323.412 314.031 323.366 313.803 323.404 313.581C323.424 313.334 323.504 313.096 323.638 312.888C323.711 312.748 323.819 312.629 323.951 312.542C324.082 312.455 324.234 312.403 324.391 312.391C324.487 312.407 324.572 312.461 324.629 312.54C324.685 312.619 324.708 312.717 324.693 312.813C324.674 312.962 324.622 313.106 324.542 313.234C324.429 313.444 324.287 313.637 324.12 313.807C323.98 313.978 323.802 314.115 323.6 314.206C323.6 314.206 323.781 314.033 324.03 313.724C324.172 313.549 324.296 313.36 324.399 313.159C324.519 312.956 324.602 312.602 324.361 312.564C324.12 312.526 323.902 312.79 323.766 312.978C323.638 313.163 323.553 313.374 323.517 313.596C323.501 313.804 323.506 314.014 323.532 314.221Z" fill="#263238"/>
<path d="M339.196 312.76C339.196 312.797 338.774 312.76 338.126 312.835C337.273 312.952 336.471 313.309 335.815 313.866C335.158 314.422 334.674 315.155 334.419 315.977C334.321 316.322 334.241 316.671 334.178 317.024C334.159 316.927 334.159 316.827 334.178 316.73C334.204 316.476 334.249 316.224 334.314 315.977C334.547 315.116 335.037 314.345 335.717 313.768C336.398 313.191 337.238 312.834 338.126 312.745C338.391 312.718 338.659 312.718 338.925 312.745C339.015 312.739 339.106 312.744 339.196 312.76Z" fill="#263238"/>
<path d="M337.508 306.77C337.635 307.757 337.708 308.751 337.727 309.746C337.796 310.749 337.808 311.755 337.764 312.76C337.637 311.772 337.564 310.779 337.546 309.784C337.472 308.781 337.459 307.774 337.508 306.77Z" fill="#263238"/>
<path d="M332.287 315.743C331.599 315.928 330.889 316.022 330.177 316.022C329.467 316.077 328.753 316.041 328.052 315.917C328.052 315.864 329.002 315.917 330.17 315.849C331.337 315.781 332.279 315.698 332.287 315.743Z" fill="#263238"/>
<path d="M335.127 315.653C335.127 315.653 335.06 315.856 334.969 316.075C334.879 316.293 334.834 316.497 334.781 316.489C334.728 316.482 334.698 316.263 334.781 316.015C334.864 315.766 335.097 315.623 335.127 315.653Z" fill="#263238"/>
<path d="M336.182 314.289C336.182 314.289 336.129 314.477 335.986 314.636C335.843 314.794 335.692 314.892 335.655 314.854C335.617 314.817 335.707 314.673 335.858 314.515C336.009 314.357 336.122 314.259 336.182 314.289Z" fill="#263238"/>
<path d="M337.689 313.634C337.689 313.686 337.486 313.686 337.275 313.769C337.064 313.852 336.913 313.965 336.875 313.935C336.838 313.905 336.951 313.701 337.214 313.603C337.478 313.505 337.689 313.588 337.689 313.634Z" fill="#263238"/>
<path d="M338.759 313.31C338.759 313.355 338.691 313.43 338.578 313.483C338.465 313.536 338.344 313.536 338.329 313.483C338.314 313.43 338.39 313.355 338.51 313.31C338.631 313.265 338.736 313.265 338.759 313.31Z" fill="#263238"/>
<g opacity="0.3">
<path d="M339.166 312.376L324.67 312.579L324.64 310.831L339.249 311.449L339.166 312.376Z" fill="black"/>
</g>
<path d="M301.834 315.118V307.373L316.345 307.32L316.428 318.621L315.531 318.681C311.531 318.915 295.189 319.6 292.484 318.802C289.516 317.935 301.834 315.118 301.834 315.118Z" fill="#FF725E"/>
<g opacity="0.4">
<path d="M295.822 316.708C295.822 316.708 291.505 317.973 292.055 318.681C292.605 319.39 309.157 319.322 316.458 318.681V318.357L297.14 318.606C297.14 318.606 296.665 316.745 295.822 316.708Z" fill="white"/>
</g>
<path d="M316.654 318.312H316.405L315.689 318.358L313.053 318.486C310.83 318.576 307.779 318.659 304.351 318.674C300.923 318.689 297.871 318.674 295.641 318.576L293.004 318.478L292.289 318.433H292.04H293.004L295.641 318.471C297.901 318.471 300.953 318.539 304.351 318.523C307.749 318.508 310.822 318.441 313.053 318.388L315.689 318.312H316.654Z" fill="#263238"/>
<path d="M297.11 318.802C296.997 318.364 296.83 317.941 296.613 317.544C296.352 317.173 296.048 316.835 295.709 316.534C296.162 316.699 296.538 317.027 296.763 317.453C297.044 317.843 297.168 318.325 297.11 318.802Z" fill="#263238"/>
<path d="M301.382 316.61C301.345 316.61 301.141 316.384 300.923 316.052C300.704 315.721 300.576 315.434 300.614 315.404C300.651 315.374 300.862 315.63 301.073 315.962C301.284 316.293 301.427 316.58 301.382 316.61Z" fill="#263238"/>
<path d="M302.557 315.984C302.557 315.984 302.294 315.864 302.045 315.645C301.796 315.427 301.616 315.208 301.646 315.171C301.676 315.133 301.909 315.291 302.158 315.51C302.407 315.728 302.587 315.947 302.557 315.984Z" fill="#263238"/>
<path d="M303.296 314.613C303.054 314.698 302.798 314.732 302.542 314.711C302.289 314.742 302.032 314.716 301.789 314.636C301.789 314.583 302.121 314.538 302.542 314.538C302.964 314.538 303.296 314.545 303.296 314.613Z" fill="#263238"/>
<path d="M303.544 313.641C303.294 313.806 303 313.893 302.701 313.89C302.405 313.949 302.098 313.909 301.827 313.777C302.111 313.733 302.398 313.713 302.686 313.716C302.969 313.666 303.256 313.641 303.544 313.641Z" fill="#263238"/>
<path d="M300.885 315.344C300.579 315.402 300.264 315.402 299.958 315.344C299.62 315.306 299.286 315.233 298.964 315.125C298.764 315.074 298.572 314.998 298.391 314.899C298.279 314.834 298.196 314.729 298.157 314.605C298.144 314.537 298.15 314.465 298.175 314.4C298.201 314.335 298.244 314.278 298.301 314.236C298.656 314.06 299.061 314.012 299.447 314.102C299.833 314.191 300.176 314.412 300.418 314.726C300.558 314.911 300.663 315.12 300.727 315.344C300.746 315.428 300.746 315.516 300.727 315.6C300.626 315.327 300.481 315.072 300.297 314.846C300.085 314.601 299.808 314.421 299.498 314.327C299.133 314.207 298.735 314.236 298.391 314.409C298.24 314.522 298.301 314.696 298.466 314.794C298.631 314.885 298.806 314.958 298.986 315.012C299.301 315.118 299.624 315.201 299.951 315.261C300.531 315.299 300.885 315.298 300.885 315.344Z" fill="#263238"/>
<path d="M300.644 315.397C300.535 315.199 300.497 314.97 300.538 314.749C300.564 314.503 300.649 314.268 300.787 314.063C300.864 313.928 300.973 313.815 301.105 313.732C301.236 313.649 301.386 313.6 301.54 313.588C301.588 313.597 301.633 313.616 301.673 313.642C301.713 313.669 301.747 313.703 301.774 313.743C301.8 313.783 301.819 313.828 301.828 313.875C301.837 313.922 301.837 313.971 301.827 314.018C301.805 314.166 301.751 314.307 301.669 314.432C301.548 314.639 301.401 314.829 301.232 314.997C300.945 315.284 300.712 315.397 300.704 315.374C300.697 315.351 300.885 315.208 301.141 314.914C301.289 314.739 301.42 314.55 301.533 314.349C301.661 314.153 301.744 313.799 301.533 313.762C301.322 313.724 301.066 313.973 300.923 314.153C300.79 314.335 300.7 314.543 300.659 314.764C300.636 314.974 300.631 315.186 300.644 315.397Z" fill="#263238"/>
<path d="M316.345 314.349C316.345 314.349 315.93 314.311 315.275 314.394C314.421 314.493 313.611 314.83 312.939 315.366C312.272 315.909 311.769 316.626 311.485 317.438C311.267 318.056 311.244 318.478 311.214 318.47C311.199 318.373 311.199 318.274 311.214 318.176C311.242 317.921 311.292 317.669 311.365 317.423C311.622 316.569 312.132 315.812 312.827 315.253C313.522 314.693 314.37 314.357 315.26 314.289C315.525 314.264 315.793 314.264 316.058 314.289C316.247 314.311 316.345 314.334 316.345 314.349Z" fill="#263238"/>
<path d="M314.816 308.314C314.921 309.315 314.966 310.322 314.951 311.328C315.002 312.332 314.99 313.339 314.913 314.342C314.813 313.34 314.768 312.334 314.778 311.328C314.727 310.324 314.739 309.317 314.816 308.314Z" fill="#263238"/>
<path d="M309.361 317.152C308.668 317.316 307.956 317.389 307.244 317.37C306.531 317.406 305.817 317.351 305.119 317.205C305.119 317.16 306.076 317.205 307.244 317.205C308.412 317.205 309.353 317.099 309.361 317.152Z" fill="#263238"/>
<path d="M312.208 317.13C312.208 317.167 312.126 317.333 312.035 317.552C311.945 317.77 311.885 317.966 311.832 317.958C311.779 317.951 311.756 317.732 311.869 317.484C311.982 317.235 312.171 317.1 312.208 317.13Z" fill="#263238"/>
<path d="M313.271 315.796C313.308 315.796 313.21 315.977 313.06 316.135C312.909 316.293 312.766 316.384 312.728 316.346C312.691 316.308 312.789 316.165 312.939 316.007C313.09 315.849 313.233 315.758 313.271 315.796Z" fill="#263238"/>
<path d="M314.8 315.178C314.8 315.231 314.597 315.231 314.386 315.306C314.175 315.382 314.017 315.495 313.979 315.465C313.941 315.434 314.062 315.231 314.325 315.141C314.589 315.05 314.815 315.133 314.8 315.178Z" fill="#263238"/>
<path d="M315.893 314.884C315.893 314.93 315.825 315.005 315.704 315.058C315.584 315.11 315.471 315.103 315.456 315.058C315.441 315.012 315.523 314.937 315.644 314.892C315.764 314.847 315.84 314.839 315.893 314.884Z" fill="#263238"/>
<g opacity="0.3">
<path d="M316.322 313.958L301.826 313.785L301.842 312.037L316.435 313.039L316.322 313.958Z" fill="black"/>
</g>
<path d="M333.869 182.541L328.06 200.027C326.493 204.751 322.365 205.565 317.385 205.565H285.071V198.309L314.589 194.098L321.626 176.122L333.869 182.541Z" fill="#FFBE9D"/>
<path d="M281.515 196.81L278.953 195.597C278.953 195.597 276.188 190.255 275.555 190.474C274.922 190.692 274.734 192.259 275.842 194.708L272.436 193.736C272.436 193.736 265.053 197.149 265.377 197.609C265.701 198.068 266.311 199.161 267.916 198.362C269.52 197.563 271.638 196.569 271.638 196.569L275.616 197.707L270.485 198.362L265.655 202.747C265.655 202.747 267.245 203.937 268.609 202.679L281.146 205.369L285.071 205.595V198.339L281.515 196.81Z" fill="#FFBE9D"/>
<path d="M268.609 202.657C268.661 202.657 268.895 202.318 269.362 201.828C269.628 201.547 269.936 201.308 270.274 201.12C270.699 200.916 271.159 200.796 271.63 200.766C272.904 200.679 274.166 200.464 275.397 200.125C274.121 200.082 272.844 200.168 271.585 200.381C271.057 200.414 270.543 200.56 270.078 200.811C269.716 201.03 269.396 201.313 269.136 201.647C268.874 201.931 268.692 202.279 268.609 202.657Z" fill="#EB996E"/>
<path d="M270.568 203.154C270.62 203.154 270.658 202.898 271.005 202.822C271.351 202.747 271.939 202.687 272.511 202.626C273.25 202.615 273.985 202.542 274.711 202.408C273.986 202.155 273.207 202.095 272.451 202.235C271.916 202.281 271.387 202.39 270.877 202.559C270.787 202.592 270.707 202.645 270.641 202.714C270.576 202.783 270.528 202.867 270.5 202.958C270.5 203.094 270.545 203.161 270.568 203.154Z" fill="#EB996E"/>
<path d="M361.15 110.613L362.905 146.158L347.686 147.59L346.843 139.001C346.843 139.001 341.478 140.327 339.851 135.362C338.804 132.19 337.877 107.343 337.877 107.343L361.15 110.613Z" fill="#FFBE9D"/>
<path d="M336.566 111.456C336.144 114.786 340.793 116.73 340.793 116.73L341.606 124.603C342.334 124.551 343.064 124.551 343.791 124.603C343.399 120.912 348.161 121.635 348.643 124.151C349.125 126.668 346.383 128.189 346.383 128.189C348.282 131.105 349.058 132.65 351.755 135.385C354.678 138.345 356.275 138.587 359.289 138.496L362.611 138.345C362.611 138.345 363.802 135.505 364.668 128.792C365.083 125.568 367.606 121.333 366.883 116.09C364.849 101.18 350.564 102.754 350.564 102.754C343.098 102.913 337.545 103.741 336.566 111.456Z" fill="#263238"/>
<path d="M347.483 103.139C344.258 103.222 340.913 103.478 338.08 105.022C335.248 106.567 333.063 109.754 333.643 112.925L335.255 113.219L335.918 112.029C335.918 112.662 335.918 113.295 335.918 113.927L338.751 114.719C339.177 112.3 340.029 109.976 341.267 107.855" fill="#263238"/>
<path d="M360.547 119.495C360.659 119.324 360.743 119.136 360.796 118.938C360.978 118.411 361.115 117.869 361.203 117.318C361.509 115.489 361.381 113.614 360.83 111.844C360.28 110.073 359.321 108.457 358.031 107.124C357.651 106.718 357.235 106.348 356.788 106.017C356.631 105.88 356.453 105.771 356.26 105.693C356.223 105.746 356.916 106.265 357.827 107.305C359.012 108.66 359.902 110.245 360.442 111.961C360.96 113.684 361.119 115.494 360.909 117.28C360.766 118.659 360.479 119.473 360.547 119.495Z" fill="#455A64"/>
<path d="M357.549 118.252C357.841 117.679 358.042 117.064 358.144 116.429C358.478 114.911 358.577 113.351 358.438 111.803C358.307 110.25 357.941 108.726 357.353 107.283C357.14 106.673 356.833 106.101 356.441 105.587C357.252 107.583 357.792 109.679 358.046 111.818C358.168 113.975 358.001 116.139 357.549 118.252Z" fill="#455A64"/>
<path d="M338.118 112.737C338.194 112.737 338.322 111.818 338.94 110.477C339.733 108.709 341.005 107.197 342.612 106.114C344.219 105.03 346.097 104.417 348.033 104.344C349.54 104.276 350.437 104.502 350.452 104.434C350.253 104.334 350.039 104.268 349.819 104.239C349.228 104.122 348.628 104.066 348.026 104.073C346.015 104.07 344.049 104.671 342.383 105.798C340.718 106.925 339.429 108.526 338.683 110.394C338.456 110.95 338.287 111.528 338.179 112.119C338.125 112.32 338.104 112.529 338.118 112.737Z" fill="#455A64"/>
<path d="M360.073 100.261C359.222 100.441 358.454 100.896 357.888 101.557C357.227 102.123 356.776 102.895 356.607 103.749C356.712 103.794 357.202 102.785 358.167 101.828C359.131 100.871 360.125 100.374 360.073 100.261Z" fill="#263238"/>
<path d="M356.524 100.276C356.411 100.314 356.645 101.112 356.6 102.099C356.554 103.086 356.283 103.855 356.389 103.907C356.812 103.409 357.028 102.767 356.991 102.114C357.081 101.464 356.914 100.804 356.524 100.276Z" fill="#455A64"/>
<path d="M336.604 178.728L334.125 187.144L318.349 180.009C318.914 178.246 321.528 170.395 326.516 157.934C327.881 154.518 330.103 151.511 332.968 149.203C335.833 146.895 339.244 145.364 342.872 144.757C347.846 143.849 352.885 143.345 357.94 143.25C366.785 143.348 379.789 148.878 381.552 157.565C382.893 164.18 381.605 175.865 381.605 190.059L380.452 217.182L335.127 218.689L336.604 178.728Z" fill="#FF725E"/>
<g opacity="0.3">
<path d="M381.583 183.791C376.068 184.921 370.409 183.791 364.789 183.452C361.384 183.249 357.602 182.879 354.904 184.959C352.765 186.616 351.891 189.411 351.288 192.048C348.937 202.091 348.515 208.827 347.988 219.126L375.269 220.783L381.583 183.791Z" fill="black"/>
</g>
<path d="M327.842 155.335C327.842 155.448 339.746 155.531 354.422 155.531C369.098 155.531 380.995 155.448 380.995 155.335C380.995 155.222 369.098 155.139 354.422 155.139C339.746 155.139 327.842 155.23 327.842 155.335Z" fill="#FAFAFA"/>
<path d="M324.534 162.952C324.534 163.057 337.478 163.148 353.428 163.148C369.377 163.148 382.321 163.057 382.321 162.952C382.321 162.846 369.392 162.756 353.428 162.756C337.463 162.756 324.534 162.846 324.534 162.952Z" fill="#FAFAFA"/>
<path d="M320.361 172.505C320.361 172.618 334.163 172.701 351.19 172.701C368.217 172.701 382.02 172.618 382.02 172.505C382.02 172.392 368.217 172.309 351.19 172.309C334.163 172.309 320.361 172.399 320.361 172.505Z" fill="#FAFAFA"/>
<path d="M336.936 182.812C336.936 182.917 341.253 183.007 346.564 183.007C351.876 183.007 356.2 182.917 356.2 182.812C356.2 182.706 351.891 182.616 346.564 182.616C341.237 182.616 336.936 182.699 336.936 182.812Z" fill="#FAFAFA"/>
<path d="M336.054 194C336.054 194.105 340.575 194.158 346.135 194.113C351.695 194.067 356.215 193.947 356.215 193.834C356.215 193.721 351.695 193.676 346.135 193.721C340.575 193.766 336.054 193.872 336.054 194Z" fill="#FAFAFA"/>
<path d="M335.617 203.078C335.878 203.126 336.144 203.138 336.408 203.116L338.57 203.071C340.393 203.033 342.91 202.981 345.69 202.981C348.47 202.981 350.964 203.026 352.81 203.063L354.972 203.109C355.237 203.143 355.505 203.143 355.771 203.109C355.513 203.033 355.247 202.993 354.979 202.988C354.475 202.935 353.736 202.883 352.825 202.83C351.001 202.717 348.478 202.626 345.69 202.626C342.902 202.626 340.378 202.724 338.563 202.837C337.651 202.89 336.913 202.95 336.4 203.003C336.137 202.997 335.874 203.022 335.617 203.078Z" fill="#FAFAFA"/>
<path d="M335.76 210.432C335.76 210.537 340.205 210.628 345.69 210.628C351.175 210.628 355.612 210.537 355.612 210.432C355.612 210.326 351.175 210.236 345.69 210.236C340.205 210.236 335.76 210.319 335.76 210.432Z" fill="#FAFAFA"/>
<path d="M334.411 147.869C334.411 147.982 343.136 148.065 353.895 148.065C364.653 148.065 373.385 147.982 373.385 147.869C373.385 147.756 364.661 147.673 353.895 147.673C343.128 147.673 334.411 147.763 334.411 147.869Z" fill="#FAFAFA"/>
<path d="M335.428 149.285C335.428 149.33 335.88 149.353 336.634 149.647C337.679 150.105 338.582 150.837 339.248 151.764C340.209 153.157 340.75 154.796 340.808 156.488C340.865 158.568 340.703 160.649 340.326 162.696C339.692 166.445 338.846 170.155 337.794 173.809C337.425 175.172 337.116 176.295 336.882 177.146C336.755 177.551 336.657 177.964 336.589 178.382C336.769 177.999 336.915 177.6 337.026 177.192C337.282 176.438 337.643 175.285 338.065 173.884C339.186 170.236 340.067 166.519 340.702 162.756C341.08 160.679 341.232 158.567 341.154 156.458C341.076 154.706 340.484 153.016 339.452 151.598C338.746 150.647 337.78 149.92 336.671 149.504C336.371 149.401 336.06 149.331 335.745 149.293C335.64 149.275 335.534 149.273 335.428 149.285Z" fill="#263238"/>
<path d="M318.854 177.854C319.556 178.345 320.3 178.773 321.076 179.135C322.478 179.889 324.444 180.83 326.644 181.825C328.844 182.819 330.863 183.648 332.34 184.213C333.125 184.552 333.936 184.827 334.766 185.034C334.02 184.619 333.244 184.259 332.445 183.957C330.999 183.324 328.995 182.45 326.802 181.471C324.61 180.491 322.636 179.55 321.204 178.887C320.445 178.49 319.66 178.145 318.854 177.854Z" fill="#263238"/>
<path d="M366.462 217.627L312.307 219.541C308.081 219.692 304.083 221.493 301.171 224.558C298.258 227.623 296.662 231.707 296.726 235.935L298.986 313.28L319.909 312.587L318.349 240.169L366.469 238.903L366.462 217.627Z" fill="#263238"/>
<path d="M388.838 217.627L334.675 219.541C330.45 219.692 326.452 221.493 323.539 224.558C320.627 227.623 319.031 231.707 319.095 235.935L321.355 313.28L342.556 311.6L340.703 240.169L388.823 238.903L388.838 217.627Z" fill="#263238"/>
<path d="M348.304 245.721H353.631V309.542H348.304V245.721Z" fill="#455A64"/>
<path d="M398.331 183.776V230.759C398.331 233.718 397.155 236.556 395.062 238.649C392.97 240.741 390.132 241.917 387.173 241.917H355.884V183.776C355.884 183.123 356.012 182.477 356.262 181.873C356.512 181.27 356.878 180.722 357.34 180.26C357.802 179.798 358.35 179.432 358.953 179.182C359.556 178.932 360.203 178.804 360.856 178.804H393.358C394.011 178.804 394.658 178.932 395.261 179.182C395.864 179.432 396.412 179.798 396.874 180.26C397.336 180.722 397.702 181.27 397.952 181.873C398.202 182.477 398.331 183.123 398.331 183.776Z" fill="#455A64"/>
<path d="M313.783 245.722H389.968C389.968 243.524 389.095 241.416 387.54 239.861C385.986 238.307 383.878 237.434 381.68 237.434H322.033C319.835 237.434 317.727 238.307 316.173 239.861C314.619 241.416 313.745 243.524 313.745 245.722H313.783Z" fill="#455A64"/>
<path d="M355.884 236.356C355.874 236.477 355.874 236.598 355.884 236.718C355.89 237.063 355.933 237.407 356.012 237.743C356.263 238.806 356.819 239.774 357.611 240.527C358.403 241.281 359.397 241.787 360.472 241.984C361.473 242.092 362.48 242.129 363.486 242.097H370.334C375.194 242.097 379.594 242.097 382.773 242.052L386.54 241.999L387.565 241.962C387.686 241.96 387.807 241.947 387.926 241.924C387.809 241.891 387.687 241.875 387.565 241.879L386.54 241.841L382.773 241.773C379.594 241.736 375.194 241.713 370.334 241.706H363.493C362.506 241.745 361.517 241.723 360.532 241.638C359.698 241.496 358.908 241.16 358.227 240.658C357.22 239.916 356.494 238.853 356.17 237.645C355.906 236.854 355.929 236.356 355.884 236.356Z" fill="#263238"/>
<path d="M346.293 245.887C347.844 246.085 349.409 246.151 350.971 246.083C352.531 246.151 354.094 246.085 355.643 245.887C354.094 245.694 352.531 245.628 350.971 245.691C349.409 245.628 347.844 245.694 346.293 245.887Z" fill="#263238"/>
<path d="M323.118 242.323C323.342 241.586 323.498 240.829 323.585 240.063C323.841 238.617 324.18 236.515 324.587 233.923C324.994 231.331 325.273 228.189 326.704 225.078C327.454 223.459 328.403 221.941 329.529 220.557C330.76 219.09 332.191 217.802 333.779 216.73C335.36 215.646 337.098 214.81 338.932 214.251C340.639 213.706 342.414 213.399 344.206 213.34C347.649 213.264 350.798 213.279 353.42 213.227C356.042 213.174 358.174 213.151 359.643 213.106C360.4 213.124 361.156 213.071 361.903 212.948C361.156 212.831 360.399 212.78 359.643 212.797C358.174 212.752 356.049 212.707 353.42 212.677C350.791 212.647 347.679 212.579 344.183 212.624C340.32 212.715 336.564 213.915 333.364 216.082C331.712 217.19 330.23 218.533 328.964 220.068C327.8 221.509 326.825 223.094 326.064 224.784C325.89 225.183 325.747 225.598 325.589 225.997L325.363 226.6C325.31 226.803 325.25 227.007 325.197 227.21C325.084 227.609 324.971 228.009 324.866 228.4C324.76 228.792 324.723 229.191 324.647 229.576C324.384 231.12 324.24 232.537 324.06 233.848C323.728 236.447 323.464 238.564 323.306 240.018C323.174 240.779 323.111 241.551 323.118 242.323Z" fill="#455A64"/>
<path d="M327.669 315.299H328.422C328.367 312.287 328.913 309.295 330.027 306.497C331.142 303.699 332.802 301.151 334.913 299.002C337.023 296.853 339.54 295.146 342.317 293.981C345.095 292.815 348.076 292.215 351.088 292.215C354.1 292.215 357.082 292.815 359.859 293.981C362.636 295.146 365.154 296.853 367.264 299.002C369.374 301.151 371.035 303.699 372.149 306.497C373.264 309.295 373.809 312.287 373.755 315.299H374.508C374.564 312.188 373.999 309.097 372.847 306.207C371.695 303.316 369.979 300.685 367.799 298.465C365.619 296.245 363.018 294.482 360.149 293.278C357.28 292.075 354.2 291.455 351.088 291.455C347.977 291.455 344.897 292.075 342.028 293.278C339.158 294.482 336.558 296.245 334.377 298.465C332.197 300.685 330.481 303.316 329.329 306.207C328.177 309.097 327.613 312.188 327.669 315.299Z" fill="#455A64"/>
<path d="M370.62 316.489C370.62 317.183 370.826 317.862 371.212 318.439C371.598 319.017 372.146 319.467 372.788 319.733C373.429 319.998 374.135 320.068 374.816 319.932C375.497 319.797 376.123 319.462 376.614 318.971C377.105 318.48 377.439 317.855 377.575 317.174C377.71 316.493 377.641 315.787 377.375 315.145C377.109 314.504 376.659 313.955 376.082 313.57C375.504 313.184 374.826 312.978 374.131 312.978C373.67 312.977 373.213 313.067 372.786 313.243C372.36 313.419 371.973 313.678 371.646 314.004C371.32 314.33 371.062 314.718 370.886 315.144C370.709 315.571 370.619 316.028 370.62 316.489Z" fill="#263238"/>
<path d="M324.361 316.007C324.361 316.701 324.567 317.38 324.953 317.958C325.339 318.535 325.887 318.985 326.528 319.251C327.17 319.516 327.876 319.586 328.557 319.45C329.238 319.315 329.863 318.981 330.354 318.49C330.845 317.999 331.18 317.373 331.315 316.692C331.451 316.011 331.381 315.305 331.116 314.663C330.85 314.022 330.4 313.474 329.822 313.088C329.245 312.702 328.566 312.496 327.872 312.496C326.941 312.496 326.048 312.866 325.389 313.524C324.731 314.183 324.361 315.076 324.361 316.007Z" fill="#263238"/>
<path d="M327.895 309.543C327.895 309.656 338.088 309.746 350.655 309.746C363.222 309.746 373.416 309.656 373.416 309.543C373.416 309.43 363.229 309.347 350.655 309.347C338.081 309.347 327.895 309.437 327.895 309.543Z" fill="#455A64"/>
<path d="M405.646 162.937C405.09 163.288 404.611 163.747 404.236 164.286C403.86 164.826 403.597 165.435 403.461 166.078C403.204 167.374 403.245 168.711 403.582 169.988C404.154 172.46 405.842 174.825 407.65 176.649C409.541 174.562 409.654 171.292 409.609 169.627C409.534 166.997 407.793 162.289 405.646 162.937Z" fill="#FF725E"/>
<path d="M405.676 181.078C405.733 180.348 405.597 179.615 405.281 178.954C404.965 178.292 404.48 177.726 403.876 177.311C403.261 176.906 402.573 176.627 401.85 176.49C401.127 176.353 400.384 176.361 399.664 176.513C399.326 176.548 399 176.657 398.709 176.831C398.417 177.006 398.167 177.241 397.977 177.522C397.843 177.811 397.79 178.131 397.822 178.447C397.854 178.764 397.969 179.066 398.157 179.323C398.546 179.836 399.067 180.235 399.664 180.476C401.631 181.41 403.702 181.983 405.691 181.094" fill="#FF725E"/>
<path d="M408.856 186.593C408.751 186.041 408.59 185.5 408.374 184.981C408.163 184.404 407.882 183.855 407.537 183.346C407.143 182.711 406.705 182.104 406.227 181.531C405.346 180.474 404.217 179.651 402.942 179.135C402.554 178.992 402.152 178.889 401.744 178.826C401.594 178.801 401.441 178.801 401.292 178.826C401.292 178.879 401.925 178.946 402.866 179.346C404.079 179.9 405.153 180.718 406.008 181.741C406.481 182.304 406.918 182.896 407.319 183.512C407.664 184.003 407.957 184.528 408.193 185.079C408.378 185.599 408.599 186.105 408.856 186.593Z" fill="#263238"/>
<path d="M406.656 166.636C406.627 166.919 406.627 167.204 406.656 167.487C406.656 168.03 406.731 168.821 406.799 169.793C406.942 171.744 407.175 174.434 407.492 177.402C407.808 180.37 408.185 183.037 408.494 184.936C408.652 185.9 408.78 186.676 408.886 187.196C408.925 187.477 408.988 187.755 409.074 188.025C409.077 187.739 409.051 187.454 408.999 187.174C408.916 186.586 408.818 185.81 408.697 184.913C408.441 182.977 408.102 180.303 407.778 177.334C407.454 174.366 407.206 171.736 407.025 169.747C406.927 168.813 406.844 168.037 406.784 167.442C406.761 167.17 406.718 166.901 406.656 166.636Z" fill="#263238"/>
<path d="M408.976 181.674C409.267 180.149 409.916 178.715 410.869 177.49C411.823 176.265 413.054 175.285 414.461 174.629C415.215 174.305 416.111 174.102 416.684 174.629C417.256 175.157 417.106 176.136 416.804 176.852C416.148 178.363 415.058 179.645 413.672 180.537C412.287 181.429 410.669 181.89 409.022 181.862" fill="#FF725E"/>
<path d="M413.911 176.875C413.769 176.918 413.634 176.985 413.512 177.07C411.989 177.945 410.663 179.125 409.617 180.536C409.205 181.16 408.897 181.847 408.705 182.57C408.556 183.161 408.488 183.769 408.502 184.378C408.512 184.786 408.56 185.192 408.645 185.591C408.664 185.742 408.705 185.889 408.765 186.028C408.826 186.028 408.69 185.388 408.705 184.378C408.72 183.791 408.803 183.207 408.954 182.638C409.156 181.948 409.46 181.293 409.858 180.694C410.619 179.617 411.547 178.668 412.608 177.884C413.063 177.575 413.498 177.238 413.911 176.875Z" fill="#263238"/>
<path d="M409.225 205.572C411.723 205.57 414.119 204.576 415.885 202.809C417.651 201.041 418.643 198.645 418.643 196.147V186.729H399.807V196.147C399.807 198.645 400.799 201.041 402.565 202.809C404.331 204.576 406.727 205.57 409.225 205.572Z" fill="#263238"/>
<path d="M399.8 191.363C399.876 191.459 399.962 191.548 400.056 191.626L400.809 192.327L403.68 194.753L403.748 194.806L403.831 194.76L409.263 191.498H409.104L414.22 194.753L414.295 194.806L414.371 194.745L417.497 192.297L418.356 191.604C418.463 191.526 418.559 191.434 418.643 191.332C418.52 191.383 418.405 191.451 418.304 191.536C418.062 191.709 417.761 191.928 417.399 192.176L414.213 194.542H414.363L409.308 191.212L409.225 191.159L409.142 191.204L403.71 194.534H403.861L400.945 192.176L400.124 191.528C399.913 191.423 399.807 191.348 399.8 191.363Z" fill="#E0E0E0"/>
<path d="M399.8 189.479C399.876 189.576 399.962 189.664 400.056 189.743L400.809 190.444L403.65 192.892L403.717 192.945L403.8 192.9L409.263 189.615H409.104L414.19 192.907L414.265 192.96L414.34 192.9L417.467 190.451L418.326 189.758C418.432 189.68 418.529 189.589 418.612 189.487C418.49 189.537 418.375 189.605 418.273 189.69L417.369 190.331L414.182 192.696H414.333L409.278 189.366L409.195 189.313L409.112 189.359L403.68 192.689H403.83L400.915 190.331L400.094 189.683C399.913 189.539 399.807 189.479 399.8 189.479Z" fill="#E0E0E0"/>
<path d="M399.8 193.246C399.8 193.246 399.883 193.352 400.056 193.517L400.809 194.211L403.65 196.659L403.717 196.719L403.8 196.667L409.263 193.42H409.104L414.19 196.712L414.265 196.765L414.341 196.712C415.599 195.717 416.661 194.889 417.467 194.263L418.326 193.563C418.522 193.397 418.62 193.307 418.612 193.291C418.492 193.345 418.378 193.414 418.273 193.495C418.032 193.676 417.731 193.887 417.369 194.143L414.182 196.501H414.333L409.278 193.171L409.195 193.118L409.112 193.171L403.68 196.493H403.831L400.915 194.128L400.094 193.487C400.007 193.394 399.908 193.313 399.8 193.246Z" fill="#E0E0E0"/>
<path d="M155.695 227.692C159.598 228.325 161.346 233.116 160.969 237.057C160.593 240.997 159.003 244.855 159.462 248.78C160.012 253.775 163.787 257.994 164.224 262.997C164.744 268.896 160.57 274.132 159.327 279.918C158.717 282.736 158.799 285.719 157.752 288.402C156.858 290.686 155.2 292.59 153.059 293.788C150.919 294.987 148.429 295.405 146.014 294.974C143.599 294.542 141.409 293.285 139.817 291.419C138.224 289.553 137.329 287.193 137.282 284.74C137.199 280.22 139.994 275.948 139.655 271.427C139.407 268.09 137.448 264.925 137.862 261.633C138.367 257.678 142.029 254.852 143.324 251.085C144.62 247.318 143.37 243.159 143.822 239.196C144.62 232.092 148.561 227.142 155.688 227.707" fill="#FF725E"/>
<path d="M175.631 262.1C176.301 268.685 173.37 276.415 170.003 282.118C166.575 287.847 161.41 292.333 155.258 294.926C154.573 295.212 153.714 295.453 153.134 294.986C152.927 294.761 152.772 294.493 152.68 294.202C152.588 293.91 152.56 293.602 152.599 293.299C152.549 286.309 154.767 279.492 158.919 273.87C163.072 268.247 168.936 264.123 175.631 262.115" fill="#FF725E"/>
<g opacity="0.2">
<path d="M175.631 262.1C176.301 268.685 173.37 276.415 170.003 282.118C166.575 287.847 161.41 292.333 155.258 294.926C154.573 295.212 153.714 295.453 153.134 294.986C152.927 294.761 152.772 294.493 152.68 294.202C152.588 293.91 152.56 293.602 152.599 293.299C152.549 286.309 154.767 279.492 158.919 273.87C163.072 268.247 168.936 264.123 175.631 262.115" fill="black"/>
</g>
<path d="M146.949 308.676C147.027 308.564 147.091 308.443 147.137 308.314L147.612 307.229C148.003 306.295 148.598 304.969 149.352 303.274C151.314 298.949 153.494 294.727 155.884 290.624C158.29 286.525 160.9 282.55 163.704 278.713C164.782 277.243 165.671 276.061 166.296 275.254C166.582 274.878 166.823 274.561 167.004 274.313C167.093 274.208 167.171 274.094 167.238 273.974C167.238 273.974 167.125 274.064 166.951 274.267L166.198 275.164C165.535 275.917 164.616 277.1 163.508 278.554C157.741 286.153 152.908 294.417 149.111 303.168C148.357 304.848 147.83 306.22 147.476 307.176L147.069 308.284C147.017 308.411 146.977 308.542 146.949 308.676Z" fill="#263238"/>
<path d="M151.19 245.909C151.148 246.118 151.122 246.329 151.115 246.542C151.115 246.987 151.039 247.589 150.987 248.358C150.881 249.963 150.738 252.238 150.557 255.025C150.203 260.661 149.706 268.444 149.096 277.032C148.485 285.621 147.898 293.404 147.461 299.032C147.25 301.82 147.076 304.087 146.948 305.7C146.896 306.453 146.858 307.063 146.828 307.508C146.81 307.721 146.81 307.935 146.828 308.148C146.828 308.148 146.865 307.93 146.918 307.515C146.971 307.101 147.031 306.468 147.114 305.707C147.265 304.102 147.476 301.835 147.739 299.055C148.244 293.427 148.885 285.659 149.487 277.063C150.09 268.466 150.535 260.684 150.843 255.025C150.972 252.23 151.077 249.963 151.152 248.35C151.152 247.597 151.198 246.979 151.213 246.527C151.224 246.321 151.216 246.114 151.19 245.909Z" fill="#263238"/>
<path d="M157.248 299.289H140.755V311.396C140.757 313.495 141.593 315.507 143.077 316.99C144.562 318.473 146.575 319.307 148.674 319.307C150.699 319.308 152.648 318.531 154.119 317.138C155.589 315.745 156.469 313.841 156.577 311.818L157.248 299.289Z" fill="#263238"/>
<path d="M240.77 139.672L201.442 161.453L202.919 164.225L241.9 142.038L240.77 139.672Z" fill="#FF725E"/>
<path d="M242.707 137.615L240.898 134.85L239.844 135.498L241.463 138.286L242.707 137.615Z" fill="#FF725E"/>
<path d="M205.91 158.01L203.891 159.17L210.476 201.195L213.595 201.233L205.91 158.01Z" fill="#FF725E"/>
<path d="M222.658 205.572C222.658 205.572 217.859 200.72 211.44 201.052C209.605 201.119 207.802 201.548 206.134 202.315C204.466 203.082 202.966 204.171 201.721 205.52L222.658 205.572Z" fill="#FF725E"/>
<path d="M242.669 156.669L258.242 147.673L253.721 139.891C253.131 138.868 252.346 137.971 251.409 137.252C250.473 136.533 249.404 136.006 248.263 135.7C247.123 135.394 245.933 135.316 244.763 135.47C243.592 135.625 242.463 136.008 241.441 136.598C239.377 137.791 237.871 139.755 237.253 142.057C236.636 144.36 236.958 146.813 238.148 148.879L242.669 156.669Z" fill="#FF725E"/>
</g>
<defs>
<clipPath id="clip0_1716_14929">
<rect width="567.742" height="320" fill="white"/>
</clipPath>
</defs>
</svg>
