<svg width="259" height="367" viewBox="0 0 259 367" fill="none" xmlns="http://www.w3.org/2000/svg">
<path d="M191.077 25.7052C196.467 25.1717 200.404 20.3696 199.87 14.9794C199.337 9.5893 194.535 5.65225 189.144 6.18579C183.754 6.71933 179.817 11.5214 180.351 16.9116C180.884 22.3017 185.686 26.2387 191.077 25.7052Z" fill="#E6EAEB"/>
<path d="M228.476 17.1384C229.137 11.7623 225.316 6.8676 219.94 6.20568C214.564 5.54377 209.669 9.36531 209.007 14.7414C208.345 20.1174 212.167 25.0122 217.543 25.6741C222.919 26.336 227.814 22.5144 228.476 17.1384Z" fill="#CDD4D5"/>
<path d="M248.551 25.6669C253.927 25.005 257.749 20.1102 257.087 14.7342C256.425 9.35811 251.53 5.53655 246.154 6.19847C240.778 6.86038 236.957 11.7551 237.618 17.1312C238.28 22.5072 243.175 26.3288 248.551 25.6669Z" fill="#B4BEC1"/>
<path d="M247.354 26.5573C241.5 26.5573 236.734 21.7955 236.734 15.9381C236.734 10.0844 241.496 5.31885 247.354 5.31885C253.207 5.31885 257.973 10.0807 257.973 15.9381C257.973 21.7918 253.207 26.5573 247.354 26.5573ZM247.354 6.94548C242.393 6.94548 238.357 10.9807 238.357 15.9418C238.357 20.9028 242.393 24.9381 247.354 24.9381C252.315 24.9381 256.346 20.9028 256.346 15.9418C256.346 10.9807 252.315 6.94548 247.354 6.94548Z" fill="#6A797C"/>
<path d="M125.817 67C125.364 67 125 66.8275 125 66.6128V14.3872C125 14.1725 125.364 14 125.817 14H166.183C166.636 14 167 14.1725 167 14.3872C167 14.6019 166.636 14.7743 166.183 14.7743H126.634V66.6128C126.634 66.8275 126.266 67 125.817 67Z" fill="#03141A"/>
<path d="M257.152 36.1474H181.95C181.5 36.1474 181.139 35.7859 181.139 35.3359C181.139 34.8859 181.5 34.5244 181.95 34.5244H257.155C257.605 34.5244 257.967 34.8859 257.967 35.3359C257.963 35.7859 257.602 36.1474 257.152 36.1474Z" fill="#03141A"/>
<path d="M233.73 48.4188H181.95C181.5 48.4188 181.139 48.0574 181.139 47.6074C181.139 47.1574 181.5 46.7959 181.95 46.7959H233.73C234.18 46.7959 234.541 47.1574 234.541 47.6074C234.541 48.0537 234.18 48.4188 233.73 48.4188Z" fill="#03141A"/>
<path d="M182.455 339.23H147.494V366.518H182.455V339.23Z" fill="#F4EAE2"/>
<path d="M182.453 367H147.494C147.227 367 147.012 366.785 147.012 366.518V339.23C147.012 338.963 147.227 338.748 147.494 338.748H182.455C182.722 338.748 182.937 338.963 182.937 339.23V366.518C182.935 366.785 182.72 367 182.453 367ZM147.976 366.035H181.97V339.713H147.976V366.035Z" fill="#03141A"/>
<path d="M147.493 339.23H37.4824V366.518H147.493V339.23Z" fill="#F4EAE2"/>
<path d="M147.493 367H37.4823C37.2149 367 37 366.785 37 366.518V339.23C37 338.963 37.2149 338.748 37.4823 338.748H147.493C147.76 338.748 147.975 338.963 147.975 339.23V366.518C147.975 366.785 147.758 367 147.493 367ZM37.9647 366.035H147.011V339.713H37.9647V366.035Z" fill="#03141A"/>
<path d="M108.444 80.7865C108.444 80.7865 118.913 81.1373 114.754 71.2691C111.013 62.3941 110.242 70.1225 108.841 70.0457C107.332 69.9624 107.508 66.8886 105.675 67.1144C103.87 67.3359 103.408 70.2299 101.527 70.2299C99.6456 70.2277 95.2848 68.4233 92.6101 71.2275C90.3716 73.5756 91.3713 76.9454 91.3713 76.9454C91.3713 76.9454 88.0125 78.1293 89.0298 83.6718C90.0471 89.2143 100.608 97.3067 100.608 97.3067L108.444 80.7865Z" fill="#03141A"/>
<path d="M98.3841 91.4902L97.3295 107.517L95.9746 107.592C95.9746 107.592 99.8837 117.164 108.053 118.486C116.222 119.808 115.632 107.517 115.632 107.517L109.765 106.772L110.21 95.577L98.3841 91.4902Z" fill="#F4EAE2"/>
<path d="M109.696 108.977C109.69 108.977 109.683 108.977 109.677 108.977C109.411 108.966 109.203 108.743 109.214 108.475L109.712 95.9168L98.8241 92.1523L97.8112 107.55C97.7937 107.815 97.5635 108.006 97.2982 107.999C97.0329 107.982 96.8312 107.752 96.8487 107.486L97.9033 91.4595C97.9142 91.3082 97.9932 91.1723 98.1181 91.089C98.2431 91.0057 98.401 90.9881 98.5435 91.0342L110.367 95.1209C110.569 95.1911 110.701 95.384 110.692 95.5967L110.179 108.512C110.168 108.773 109.953 108.977 109.696 108.977Z" fill="#03141A"/>
<path d="M112.461 107.453C112.45 107.453 112.437 107.453 112.426 107.451L109.73 107.254C109.464 107.234 109.265 107.004 109.285 106.736C109.304 106.471 109.539 106.265 109.802 106.291L112.499 106.489C112.764 106.508 112.963 106.739 112.944 107.006C112.924 107.26 112.711 107.453 112.461 107.453Z" fill="#03141A"/>
<path d="M101.103 95.1016C101.103 95.1016 105.521 100.23 111.603 97.5133C117.684 94.7968 115.023 86.4458 111.445 77.7637C110.666 78.4653 109.636 79.077 107.972 79.4497C105.146 80.0811 98.9499 80.4363 98.4566 79.8553C100.353 82.0828 101.623 84.5427 100.86 86.4787C100.583 87.3074 99.7874 88.0594 98.0861 88.5286C98.0861 88.5286 96.3299 85.9722 94.4444 88.1997C92.5589 90.4295 95.7665 96.9717 101.103 95.1016Z" fill="#F4EAE2"/>
<path d="M108.054 98.7848C104.386 98.7848 101.731 96.4235 100.963 95.654C98.4704 96.4016 96.0937 95.5356 94.5568 93.3037C93.2392 91.3919 93.0375 89.1139 94.0745 87.8861C94.7125 87.1319 95.4206 86.7636 96.1836 86.8053C97.1527 86.8535 97.9047 87.5617 98.2599 87.9717C99.4416 87.5946 100.161 87.0421 100.4 86.3251C101 84.7992 100.178 82.6221 98.0889 80.1687C97.9157 79.9648 97.942 79.6623 98.1437 79.4891C98.3322 79.3268 98.6107 79.3378 98.7883 79.5066C99.5205 79.8662 105.01 79.6184 107.869 78.9804C109.237 78.6757 110.272 78.1736 111.125 77.4062C111.241 77.301 111.404 77.2593 111.555 77.2944C111.708 77.3295 111.833 77.4369 111.895 77.5816C115.317 85.891 118.417 95.0028 111.805 97.9561C110.47 98.548 109.211 98.7848 108.054 98.7848ZM101.103 94.6192C101.242 94.6192 101.375 94.6784 101.47 94.7858C101.641 94.9831 105.736 99.6048 111.406 97.0725C117.082 94.538 114.394 86.2703 111.246 78.5485C110.373 79.1931 109.351 79.636 108.078 79.9188C106.56 80.2586 102.099 80.7716 99.6565 80.5897C101.382 82.9378 101.952 85.0184 101.307 86.6518C100.95 87.7283 99.9064 88.5242 98.2138 88.989C98.0143 89.0438 97.8038 88.967 97.6876 88.7982C97.6811 88.7894 96.9904 87.8094 96.1332 87.7678C95.6881 87.7458 95.2453 87.9958 94.8133 88.5066C94.0767 89.3792 94.3135 91.2428 95.3527 92.7534C95.8526 93.4791 97.7337 95.7658 100.946 94.6411C100.996 94.6279 101.051 94.6192 101.103 94.6192Z" fill="#03141A"/>
<path d="M98.2994 92.4616C98.1526 92.4616 98.0057 92.3937 97.9114 92.2665C97.6373 91.8982 97.3545 91.5167 97.0103 91.247C96.6814 90.9883 96.3131 90.8699 96.0303 90.9182C95.7694 90.9708 95.5172 90.7932 95.469 90.5301C95.4208 90.267 95.594 90.0171 95.8571 89.9688C96.4183 89.8658 97.0541 90.0565 97.6044 90.4862C98.0517 90.8348 98.3893 91.2887 98.6853 91.6899C98.8432 91.9048 98.7993 92.2073 98.5867 92.3652C98.499 92.4287 98.3981 92.4616 98.2994 92.4616Z" fill="#03141A"/>
<path d="M138.191 325.034C138.191 325.034 138.003 320.41 137.685 312.673H49.4211L45.3213 330.82C44.3982 334.903 47.825 339.035 52.131 339.035H144.742C147.04 339.035 148.108 336.411 146.54 334.615L138.191 325.034Z" fill="#F4EAE2"/>
<path d="M144.739 339.52H52.1279C49.8784 339.52 47.7561 338.478 46.3047 336.661C44.9169 334.924 44.3863 332.758 44.8489 330.715L48.9488 312.568C48.9992 312.349 49.1944 312.191 49.4202 312.191H137.684C137.943 312.191 138.155 312.395 138.166 312.654L138.666 324.844L146.905 334.297C147.787 335.308 148.01 336.648 147.491 337.794C146.995 338.875 145.969 339.52 144.739 339.52ZM49.8039 313.158L45.7895 330.928C45.3926 332.682 45.8552 334.552 47.0589 336.058C48.3261 337.645 50.1744 338.555 52.1279 338.555H144.739C145.579 338.555 146.278 338.121 146.607 337.395C146.969 336.599 146.802 335.657 146.173 334.933L137.824 325.352C137.752 325.269 137.71 325.164 137.706 325.054L137.219 313.158H49.8039Z" fill="#03141A"/>
<path d="M141.555 313.107C139.959 274.174 131.146 153.212 131.133 152.35L85.6458 152.326L45.0723 313.107H141.555Z" fill="#FF725E"/>
<path d="M108.399 339.52H88.3202C88.0527 339.52 87.8379 339.305 87.8379 339.037C87.8379 338.77 88.0527 338.555 88.3202 338.555H108.399C109.278 338.555 109.968 338.036 110.249 337.163C110.525 336.306 110.35 335.113 109.333 334.383L96.8576 325.427C96.7107 325.322 96.634 325.14 96.6625 324.96L118.703 183.722C119.1 181.181 121.014 179.278 123.577 178.875L123.965 178.813C124.228 178.769 124.476 178.951 124.518 179.214C124.559 179.477 124.379 179.725 124.116 179.767L123.728 179.828C121.586 180.166 119.988 181.753 119.657 183.871L97.6601 324.815L109.894 333.598C111.306 334.611 111.549 336.266 111.168 337.457C110.76 338.731 109.697 339.52 108.399 339.52Z" fill="#03141A"/>
<path d="M97.1379 325.516H49.5859C49.3184 325.516 49.1035 325.302 49.1035 325.034C49.1035 324.767 49.3184 324.552 49.5859 324.552H97.1379C97.4054 324.552 97.6203 324.767 97.6203 325.034C97.6203 325.302 97.4054 325.516 97.1379 325.516Z" fill="#03141A"/>
<path d="M138.19 325.516H99.7304C99.4629 325.516 99.248 325.302 99.248 325.034C99.248 324.767 99.4629 324.552 99.7304 324.552H138.188C138.456 324.552 138.671 324.767 138.671 325.034C138.673 325.302 138.456 325.516 138.19 325.516Z" fill="#03141A"/>
<path d="M141.455 108.207L145.162 107.683C145.162 107.683 143.36 99.5999 141.097 94.9497C138.835 90.2995 136.153 85.3577 137.087 80.7689C138.021 76.1823 139.527 75.2637 140.817 75.1168C142.108 74.9699 142.327 77.5658 141.968 79.5083C141.608 81.4508 142.566 82.6939 142.566 82.6939L152.901 84.0861C152.901 84.0861 158.753 94.8401 160.551 103.009C162.349 111.178 165.486 122.34 141.117 125.339C141.119 125.341 142.233 113.147 141.455 108.207Z" fill="#F4EAE2"/>
<path d="M141.12 125.824C140.879 125.824 140.672 125.644 140.642 125.401C140.609 125.135 140.797 124.897 141.063 124.864C150.631 123.686 156.634 121.198 159.418 117.256C162.314 113.154 161.205 108.159 160.225 103.75L160.084 103.115C158.46 95.7347 153.424 86.0879 152.597 84.5335L142.505 83.1742C142.38 83.1566 142.266 83.0909 142.187 82.99C142.144 82.933 141.102 81.5496 141.495 79.4207C141.782 77.8772 141.635 76.2153 141.17 75.7155C141.078 75.6168 140.99 75.5839 140.872 75.5971C139.888 75.7089 138.476 76.3754 137.561 80.8655C136.728 84.9522 138.912 89.3964 141.021 93.6957L141.532 94.7394C143.792 99.3874 145.559 107.247 145.634 107.581C145.665 107.712 145.636 107.85 145.559 107.96C145.483 108.072 145.364 108.144 145.231 108.164L141.523 108.688C141.26 108.725 141.015 108.541 140.977 108.278C140.94 108.015 141.124 107.769 141.387 107.732L144.575 107.282C144.139 105.441 142.554 99.0431 140.666 95.1625L140.157 94.1233C137.976 89.6792 135.72 85.0838 136.619 80.677C137.41 76.792 138.728 74.8736 140.767 74.6434C141.194 74.5951 141.578 74.7398 141.881 75.0621C142.687 75.9281 142.74 78.0219 142.448 79.6005C142.201 80.9379 142.646 81.8938 142.856 82.249L152.974 83.6105C153.126 83.6302 153.259 83.7223 153.334 83.8582C153.393 83.9657 159.24 94.7657 161.032 102.908L161.172 103.542C162.143 107.918 163.353 113.362 160.212 117.813C157.263 121.989 151.038 124.607 141.186 125.822C141.159 125.824 141.139 125.824 141.12 125.824Z" fill="#03141A"/>
<path d="M123.197 106.844C120.25 106.75 117.31 106.756 114.374 106.807C114.344 107.375 114.287 107.938 114.188 108.491C113.92 109.986 113.342 111.47 112.16 112.43C110.82 113.518 108.981 113.687 107.227 113.452C102.969 112.884 99.2288 110.462 95.9796 107.589C82.6999 108.787 71.8867 111.417 71.7508 111.7C71.5951 112.023 78.1067 127.19 80.8714 133.877C82.4785 133.386 84.0833 132.893 85.6904 132.401C85.1993 138.898 84.7761 146.212 84.285 152.708C100.297 152.98 116.24 152.436 132.251 152.708C132.591 143.967 132.55 137.354 131.756 128.545C135.299 128.44 137.733 128.056 140.714 128.185C141.751 122.132 141.872 114.452 141.458 108.208C141.418 107.649 124.74 106.894 123.197 106.844Z" fill="#03141A"/>
<path d="M89.5831 160.673C90.3856 160.642 90.9271 159.848 90.9425 159.055C90.9578 158.261 90.5785 157.481 90.1707 156.759C87.4915 152.028 76.5929 142.309 69.1276 137.966C69.1276 137.966 74.681 133.978 79.511 131.954L71.7848 113.401C65.4136 115.682 61.1142 118.076 56.3171 122.671C54.1312 124.763 52.1163 127.126 51.0925 130.005C49.5928 134.221 50.4194 139.215 52.7193 143.392C55.0213 147.569 58.6805 150.976 62.7344 153.565C66.7882 156.154 71.2411 157.985 75.7137 159.62C75.7137 159.62 79.7807 166.336 80.7673 166.573C82.2165 166.921 83.0803 165.845 80.7278 159.338C80.7278 159.338 83.5035 164.108 84.58 164.795C86.4655 165.996 87.6143 163.902 86.8228 162.091C86.8228 162.091 87.6779 163.416 88.8289 163.185C89.98 162.957 89.5831 160.673 89.5831 160.673Z" fill="#F4EAE2"/>
<path d="M81.6759 167.197C81.5027 167.197 81.3185 167.173 81.119 167.125C80.1105 166.882 77.4247 162.685 75.8527 160.098C71.8099 158.614 67.1334 156.735 62.9392 154.054C58.4184 151.166 54.8995 147.588 52.7618 143.705C50.2646 139.176 49.6442 134.023 51.1022 129.924C52.251 126.692 54.5618 124.206 56.4474 122.401C60.8344 118.2 65.158 114.901 71.9874 112.458C72.2396 112.369 72.5136 112.5 72.6035 112.75C72.6934 113.002 72.5619 113.278 72.3119 113.366C65.6206 115.76 61.536 118.865 57.1139 123.098C54.4281 125.67 52.8539 127.874 52.012 130.246C50.6461 134.089 51.2425 138.945 53.6081 143.238C55.669 146.979 59.0761 150.436 63.461 153.238C67.6332 155.904 72.3163 157.772 76.346 159.248C76.4491 159.285 76.5368 159.357 76.5938 159.451C78.4376 162.495 80.7858 165.937 81.3689 166.191C81.8228 166.298 81.9412 166.167 81.9806 166.123C82.2218 165.853 82.5836 164.676 80.7419 159.583C80.6564 159.348 80.766 159.088 80.9918 158.982C81.2177 158.877 81.4873 158.963 81.6123 159.177C82.6625 160.982 84.594 164.016 85.3066 164.47C85.6749 164.705 86.2011 164.913 86.6111 164.562C87.0386 164.196 87.2447 163.275 86.8479 162.365C86.747 162.135 86.8413 161.865 87.0627 161.747C87.2842 161.626 87.5604 161.699 87.6964 161.909C87.7029 161.918 88.3936 162.953 89.2026 162.793C89.6893 162.696 89.6871 161.469 89.5753 160.835C89.5512 160.697 89.5884 160.556 89.6761 160.449C89.7638 160.342 89.8932 160.276 90.0335 160.271C90.5728 160.252 90.9171 159.66 90.928 159.125C90.9412 158.452 90.5948 157.744 90.2199 157.077C87.613 152.475 76.6924 142.732 69.3543 138.463C69.2096 138.38 69.1197 138.226 69.1153 138.06C69.111 137.893 69.1921 137.735 69.3324 137.643C69.3894 137.606 75.1862 133.795 80.003 131.778C80.2508 131.673 80.5314 131.792 80.6345 132.037C80.7375 132.283 80.6213 132.565 80.3758 132.668C76.5806 134.258 72.1519 136.99 70.5141 138.031C78.0627 142.613 88.4199 151.94 91.0618 156.603C91.5068 157.388 91.9146 158.239 91.8971 159.147C91.8796 159.978 91.3972 160.85 90.5882 161.14C90.654 161.949 90.6123 163.499 89.3955 163.742C88.8759 163.847 88.4111 163.716 88.0274 163.505C87.9967 164.227 87.7271 164.884 87.2425 165.299C86.5826 165.862 85.6903 165.858 84.7935 165.288C84.2937 164.97 83.5197 163.95 82.7853 162.865C83.4211 165.446 83.1097 166.32 82.7063 166.772C82.4389 167.053 82.0968 167.197 81.6759 167.197Z" fill="#03141A"/>
<path d="M87.0629 162.207C86.8656 162.207 86.6792 162.085 86.6091 161.887C85.947 160.03 85.0678 158.232 83.9913 156.546C83.8488 156.321 83.9146 156.022 84.1382 155.88C84.364 155.735 84.6622 155.803 84.8047 156.027C85.9207 157.774 86.8327 159.638 87.519 161.563C87.6089 161.813 87.4773 162.089 87.2252 162.179C87.1725 162.199 87.1177 162.207 87.0629 162.207Z" fill="#03141A"/>
<path d="M89.8801 160.945C89.6784 160.945 89.4898 160.817 89.424 160.616C88.6523 158.329 87.5078 156.176 86.017 154.214C85.8547 154.001 85.8964 153.699 86.109 153.538C86.3217 153.378 86.6243 153.418 86.7843 153.631C88.3366 155.676 89.5315 157.921 90.3361 160.307C90.4216 160.559 90.2857 160.833 90.0335 160.918C89.9831 160.936 89.9305 160.945 89.8801 160.945Z" fill="#03141A"/>
<path d="M68.9726 137.972C68.8959 137.972 68.8147 137.953 68.7424 137.913C67.4488 137.209 66.0939 136.613 64.7149 136.144C64.4627 136.058 64.329 135.784 64.4145 135.532C64.5 135.28 64.774 135.144 65.0262 135.232C66.4579 135.721 67.8632 136.337 69.2028 137.067C69.4374 137.194 69.5229 137.488 69.3957 137.722C69.308 137.88 69.1436 137.972 68.9726 137.972Z" fill="#03141A"/>
<path d="M118.63 81.7666C117.632 81.9289 117.012 82.8563 117.22 83.8626C117.428 84.8711 118.395 85.6034 119.408 85.5223L165.559 81.8368L164.002 74.3276L118.63 81.7666Z" fill="#03141A"/>
<path d="M118.629 81.7664L119.407 85.5243L186.132 82.6412L183.24 68.6841L118.629 81.7664Z" fill="#03141A"/>
<path d="M184.816 67.6339L183.137 68.1667L186.243 83.1565L188.057 83.2661C188.78 83.3099 189.335 82.7596 189.205 82.1304L186.368 68.4429C186.237 67.8137 185.485 67.4213 184.816 67.6339Z" fill="#03141A"/>
<path d="M153.236 73.0556C154.006 73.0161 154.859 73.1016 155.396 73.7001C155.942 74.3075 156.038 75.1603 156.058 75.9408C156.078 76.7257 156.051 77.5194 155.821 78.2517C155.591 78.9839 155.141 79.6548 154.466 80.0122C154.104 80.2052 153.664 80.3016 153.247 80.1766C152.53 79.964 152.094 79.155 152.087 78.4336C152.081 77.7101 152.399 77.0568 152.71 76.4276C151.993 76.3749 151.206 76.4034 150.5 76.2434C150.522 75.9036 151.555 73.1389 153.236 73.0556Z" fill="#F4EAE2"/>
<path d="M153.633 80.7117C153.453 80.7117 153.276 80.6876 153.107 80.6372C152.131 80.3478 151.612 79.3107 151.603 78.4359C151.596 77.8681 151.763 77.3419 151.962 76.8727C151.443 76.853 150.906 76.8289 150.388 76.7127C150.154 76.6601 149.994 76.443 150.013 76.2018C150.053 75.7239 151.173 72.6742 153.21 72.5711C154.381 72.5119 155.214 72.775 155.751 73.3758C156.402 74.1015 156.514 75.0727 156.536 75.9256C156.556 76.6754 156.54 77.5546 156.277 78.3921C155.986 79.3195 155.42 80.0452 154.688 80.4333C154.343 80.6196 153.982 80.7117 153.633 80.7117ZM151.116 75.8532C151.421 75.8861 151.741 75.8993 152.055 75.9102C152.287 75.919 152.517 75.9278 152.743 75.9453C152.903 75.9563 153.048 76.0484 153.127 76.1865C153.206 76.3268 153.212 76.4956 153.14 76.6403C152.855 77.2126 152.561 77.8067 152.568 78.425C152.572 78.9402 152.879 79.5629 153.381 79.712C153.723 79.8128 154.065 79.6747 154.238 79.5826C154.747 79.3129 155.146 78.7867 155.361 78.1027C155.582 77.3989 155.593 76.6206 155.576 75.9497C155.556 75.2372 155.479 74.5115 155.036 74.0203C154.701 73.6454 154.137 73.4898 153.26 73.5358C152.267 73.5862 151.438 75.0508 151.116 75.8532Z" fill="#03141A"/>
<path d="M152.709 76.8486C152.637 76.8486 152.563 76.831 152.492 76.7981C152.253 76.6775 152.159 76.3881 152.278 76.1492L152.894 74.9236C153.014 74.6846 153.301 74.5903 153.543 74.7087C153.782 74.8293 153.876 75.1187 153.757 75.3577L153.141 76.5833C153.058 76.7521 152.887 76.8486 152.709 76.8486Z" fill="#03141A"/>
<path d="M150.392 72.3396C151.238 72.2979 152.176 72.39 152.766 73.0477C153.367 73.7164 153.472 74.6548 153.494 75.512C153.516 76.3759 153.485 77.2485 153.233 78.0531C152.981 78.8577 152.485 79.5944 151.742 79.989C151.343 80.2017 150.861 80.3069 150.4 80.171C149.613 79.9364 149.133 79.0485 149.124 78.2548C149.116 77.4611 149.466 76.7398 149.808 76.0492C149.019 75.9922 148.153 76.0229 147.377 75.8453C147.408 75.4726 148.543 72.4317 150.392 72.3396Z" fill="#F4EAE2"/>
<path d="M150.827 80.7124C150.634 80.7124 150.443 80.6861 150.264 80.6313C149.211 80.3199 148.652 79.1996 148.643 78.2568C148.637 77.6145 148.832 77.0203 149.064 76.4919C149.062 76.4919 149.06 76.4919 149.058 76.4919C148.468 76.47 147.858 76.4459 147.273 76.3143C147.038 76.2617 146.878 76.0447 146.898 75.8035C146.94 75.2839 148.157 71.9667 150.369 71.8549C151.643 71.7957 152.544 72.0763 153.127 72.7231C153.833 73.5102 153.953 74.5669 153.978 75.4965C153.999 76.3165 153.982 77.2768 153.695 78.1933C153.379 79.2018 152.765 79.9889 151.969 80.4098C151.594 80.6115 151.204 80.7124 150.827 80.7124ZM147.997 75.4593C148.352 75.5009 148.724 75.5163 149.091 75.5294C149.345 75.5404 149.597 75.5492 149.843 75.5667C150.003 75.5777 150.147 75.6697 150.226 75.8079C150.305 75.9482 150.31 76.117 150.239 76.2617C149.939 76.8668 149.599 77.5531 149.606 78.2481C149.612 78.8313 149.961 79.5372 150.535 79.7061C150.93 79.8244 151.318 79.6666 151.513 79.5614C152.083 79.2588 152.531 78.6712 152.77 77.9061C153.015 77.1255 153.028 76.2639 153.008 75.5229C152.989 74.7687 152.901 73.9224 152.403 73.3677C152.022 72.9445 151.388 72.7669 150.413 72.8196C149.24 72.881 148.334 74.602 147.997 75.4593Z" fill="#03141A"/>
<path d="M149.815 76.463C149.743 76.463 149.668 76.4455 149.598 76.4126C149.359 76.292 149.265 76.0026 149.383 75.7636L150.06 74.4153C150.181 74.1763 150.47 74.082 150.709 74.2004C150.948 74.321 151.043 74.6104 150.924 74.8494L150.245 76.1977C150.161 76.3666 149.99 76.463 149.815 76.463Z" fill="#03141A"/>
<path d="M147.55 72.3391C148.396 72.2974 149.334 72.3895 149.924 73.0472C150.525 73.7159 150.63 74.6543 150.652 75.5116C150.674 76.3754 150.643 77.248 150.391 78.0526C150.139 78.8572 149.644 79.5939 148.9 79.9885C148.501 80.2012 148.019 80.3065 147.559 80.1705C146.771 79.9359 146.291 79.048 146.283 78.2543C146.274 77.4607 146.625 76.7393 146.967 76.0487C146.177 75.9917 145.311 76.0224 144.535 75.8448C144.566 75.4721 145.702 72.4312 147.55 72.3391Z" fill="#F4EAE2"/>
<path d="M147.987 80.7122C147.794 80.7122 147.603 80.6859 147.423 80.6311C146.371 80.3197 145.812 79.1994 145.803 78.2566C145.797 77.6143 145.992 77.0201 146.224 76.4917C146.222 76.4917 146.22 76.4917 146.218 76.4917C145.628 76.4698 145.018 76.4457 144.433 76.3141C144.198 76.2615 144.04 76.0445 144.058 75.8055C144.1 75.2859 145.314 71.9665 147.529 71.8569C148.796 71.7933 149.704 72.0761 150.287 72.7251C150.993 73.5122 151.113 74.5689 151.137 75.4985C151.159 76.3185 151.142 77.281 150.855 78.1974C150.539 79.206 149.925 79.9931 149.129 80.414C148.754 80.6113 148.364 80.7122 147.987 80.7122ZM145.156 75.4591C145.512 75.5007 145.886 75.5161 146.25 75.5292C146.505 75.5402 146.757 75.549 147.002 75.5665C147.162 75.5775 147.307 75.6696 147.386 75.8077C147.465 75.948 147.469 76.1168 147.399 76.2615C147.099 76.8666 146.759 77.5529 146.766 78.2479C146.772 78.8311 147.121 79.537 147.695 79.7059C148.09 79.8242 148.478 79.6664 148.673 79.5612C149.243 79.2586 149.69 78.671 149.929 77.9059C150.175 77.1253 150.188 76.2637 150.168 75.5227C150.149 74.729 150.061 73.92 149.563 73.3675C149.184 72.9443 148.552 72.7667 147.572 72.8194C146.399 72.8808 145.494 74.604 145.156 75.4591Z" fill="#03141A"/>
<path d="M144.727 73.0694C145.313 72.9795 146.295 73.0562 146.882 73.7117C147.426 74.319 147.523 75.1697 147.542 75.948C147.562 76.7307 147.534 77.5244 147.306 78.2545C147.075 78.9846 146.626 79.6533 145.953 80.0107C145.591 80.2036 145.153 80.3001 144.736 80.1751C143.839 79.9098 143.611 78.6338 143.581 78.4518C143.581 78.4452 143.578 78.4409 143.578 78.4365C143.504 77.9322 143.596 77.3052 144.096 76.5597C143.791 76.6452 143.471 76.7286 143.133 76.8053C142.805 76.8798 142.487 76.9434 142.18 76.9982C142.272 74.8562 143.34 73.282 144.727 73.0694Z" fill="#F4EAE2"/>
<path d="M145.125 80.7121C144.945 80.7121 144.769 80.688 144.601 80.6376C143.478 80.3043 143.173 78.9385 143.105 78.5285C143.044 78.1141 143.079 77.6997 143.208 77.2832C142.884 77.3555 142.57 77.4191 142.266 77.4717C142.121 77.498 141.974 77.4564 141.862 77.3599C141.753 77.2634 141.691 77.1209 141.698 76.9762C141.799 74.6456 143.013 72.8434 144.653 72.5913C145.41 72.4751 146.545 72.6132 147.24 73.3894C147.891 74.1151 148.003 75.0841 148.023 75.9348C148.043 76.6824 148.027 77.5594 147.764 78.3969C147.473 79.3243 146.909 80.0478 146.177 80.4359C145.835 80.6201 145.473 80.7121 145.125 80.7121ZM144.094 76.0773C144.245 76.0773 144.392 76.1497 144.484 76.2768C144.603 76.4413 144.607 76.6605 144.495 76.8293C144.134 77.3708 143.984 77.8883 144.055 78.3662C144.125 78.8025 144.375 79.5655 144.872 79.7124C145.214 79.8154 145.552 79.6751 145.725 79.583C146.232 79.3134 146.631 78.7916 146.846 78.1075C147.067 77.4037 147.078 76.6276 147.06 75.9589C147.043 75.2836 146.966 74.525 146.523 74.0317C146.054 73.5099 145.221 73.4793 144.802 73.5428C143.756 73.7029 142.947 74.843 142.722 76.3974C142.822 76.3755 142.926 76.3536 143.029 76.3294C143.355 76.2549 143.669 76.1738 143.965 76.0905C144.006 76.0839 144.052 76.0773 144.094 76.0773Z" fill="#03141A"/>
<path d="M144.206 76.8578C144.133 76.8578 144.059 76.8402 143.989 76.8074C143.75 76.6868 143.655 76.3974 143.774 76.1584L144.39 74.935C144.51 74.696 144.8 74.5996 145.039 74.7223C145.278 74.8429 145.372 75.1323 145.251 75.3713L144.635 76.5947C144.552 76.7591 144.383 76.8578 144.206 76.8578Z" fill="#03141A"/>
<path d="M34.0162 43.7788L37.7298 48.8369L0 74.7295V100L49.7904 65.7366L53.769 70.6852L57.4213 47.4027L34.0162 43.7788Z" fill="#CDD4D5"/>
<path d="M9.52746 37.0871C9.3698 37.0871 9.21434 37.0105 9.12237 36.8682C8.97786 36.6448 9.04136 36.347 9.2647 36.2003L63.3052 1.20538C63.5285 1.06087 63.8263 1.12437 63.973 1.34771C64.1176 1.57105 64.0541 1.86885 63.8307 2.01555L9.79022 37.0105C9.7092 37.063 9.61723 37.0871 9.52746 37.0871Z" fill="#03141A"/>
<path d="M60.9607 12.3331C60.9213 12.3331 60.8818 12.3287 60.8402 12.3178C60.5819 12.2521 60.4264 11.9893 60.4921 11.7309L62.962 2.03079L52.8984 0.962241C52.6334 0.933776 52.4429 0.697294 52.4692 0.432346C52.4977 0.167399 52.732 -0.0274794 52.9991 0.00317563L63.6167 1.13084C63.7569 1.14617 63.8817 1.22062 63.9627 1.33448C64.0415 1.44834 64.0678 1.59286 64.0327 1.72862L61.4249 11.9696C61.3701 12.1886 61.1753 12.3331 60.9607 12.3331Z" fill="#03141A"/>
</svg>
